<?xml version="1.0" encoding="UTF-8" standalone="no"?>
<!-- Created with Inkscape (http://www.inkscape.org/) -->

<svg
   version="1.1"
   id="svg2"
   xml:space="preserve"
   width="1032.3997"
   height="474.17447"
   viewBox="0 0 1032.3997 474.17447"
   sodipodi:docname="ch10-hybrid-parallel.svg"
   inkscape:version="1.1.1 (3bf5ae0d25, 2021-09-20)"
   xmlns:inkscape="http://www.inkscape.org/namespaces/inkscape"
   xmlns:sodipodi="http://sodipodi.sourceforge.net/DTD/sodipodi-0.dtd"
   xmlns="http://www.w3.org/2000/svg"
   xmlns:svg="http://www.w3.org/2000/svg"><defs
     id="defs6"><clipPath
       clipPathUnits="userSpaceOnUse"
       id="clipPath18"><path
         d="M 0,0 H 799 V 379 H 0 Z"
         id="path16" /></clipPath></defs><sodipodi:namedview
     id="namedview4"
     pagecolor="#ffffff"
     bordercolor="#666666"
     borderopacity="1.0"
     inkscape:pageshadow="2"
     inkscape:pageopacity="0.0"
     inkscape:pagecheckerboard="0"
     showgrid="false"
     fit-margin-top="0"
     fit-margin-left="0"
     fit-margin-right="0"
     fit-margin-bottom="0"
     inkscape:zoom="0.86352878"
     inkscape:cx="424.42129"
     inkscape:cy="372.88856"
     inkscape:window-width="1920"
     inkscape:window-height="1137"
     inkscape:window-x="1912"
     inkscape:window-y="-8"
     inkscape:window-maximized="1"
     inkscape:current-layer="g8" /><g
     id="g8"
     inkscape:groupmode="layer"
     inkscape:label="ch10-hybrid-parallel"
     transform="matrix(1.3333333,0,0,-1.3333333,-16.464185,493.54816)"><g
       id="g10" /><g
       id="g22"><path
         d="m 448.5,162.1663 c 0,13.4391 10.8946,24.3337 24.3337,24.3337 h 231.3326 c 13.4391,0 24.3337,-10.8946 24.3337,-24.3337 V 64.83374 C 728.5,51.39459 717.6054,40.5 704.1663,40.5 H 472.8337 C 459.3946,40.5 448.5,51.39459 448.5,64.83374 Z"
         style="fill:#e7e6e6;fill-opacity:1;fill-rule:nonzero;stroke:none"
         id="path24" /><g
         id="g26"
         transform="matrix(7.874016e-5,0,0,-7.874016e-5,448.5,186.5)"><path
           d="M 0,309038.5 C 0,138361.3 138361.2,0 309038.3,0 H 3246962 c 170677,0 309038,138361.3 309038,309038.5 V 1545161 c 0,170678 -138361,309039 -309038,309039 H 309038.3 C 138361.2,1854200 0,1715839 0,1545161 Z"
           style="fill:none;stroke:#000000;stroke-width:12700;stroke-linecap:butt;stroke-linejoin:miter;stroke-miterlimit:8;stroke-dasharray:50800, 38100;stroke-dashoffset:0;stroke-opacity:1"
           id="path28" /></g><path
         d="m 451.5,322.4996 c 0,11.5982 9.4022,21.0004 21.0003,21.0004 h 237.9994 c 11.5981,0 21.0003,-9.4022 21.0003,-21.0004 V 238.5004 C 731.5,226.9022 722.0978,217.5 710.4997,217.5 H 472.5003 c -11.5981,0 -21.0003,9.4022 -21.0003,21.0004 z"
         style="fill:#e7e6e6;fill-opacity:1;fill-rule:nonzero;stroke:none"
         id="path30" /><g
         id="g32"
         transform="matrix(7.874016e-5,0,0,-7.874016e-5,451.5,343.5)"><path
           d="M 0,266704.5 C 0,119407.7 119407.4,0 266703.9,0 H 3289296 c 147297,0 266704,119407.7 266704,266704.5 V 1333495 c 0,147297 -119407,266705 -266704,266705 H 266703.9 C 119407.4,1600200 0,1480792 0,1333495 Z"
           style="fill:none;stroke:#000000;stroke-width:12700;stroke-linecap:butt;stroke-linejoin:miter;stroke-miterlimit:8;stroke-dasharray:50800, 38100;stroke-dashoffset:0;stroke-opacity:1"
           id="path34" /></g><path
         d="m 83.5,322.4994 c 0,11.5983 9.40227,21.0006 21.0006,21.0006 h 274.9988 c 11.5983,0 21.0006,-9.4023 21.0006,-21.0006 V 238.5006 C 400.5,226.9023 391.0977,217.5 379.4994,217.5 H 104.5006 C 92.90227,217.5 83.5,226.9023 83.5,238.5006 Z"
         style="fill:#e7e6e6;fill-opacity:1;fill-rule:nonzero;stroke:none"
         id="path36" /><g
         id="g38"
         transform="matrix(7.874016e-5,0,0,-7.874016e-5,83.5,343.5)"><path
           d="M 0,266707.4 C 0,119408.9 119408.8,0 266707.1,0 H 3759193 c 147298,0 266707,119408.9 266707,266707.4 V 1333493 c 0,147298 -119409,266707 -266707,266707 H 266707.1 C 119408.8,1600200 0,1480791 0,1333493 Z"
           style="fill:none;stroke:#000000;stroke-width:12700;stroke-linecap:butt;stroke-linejoin:miter;stroke-miterlimit:8;stroke-dasharray:50800, 38100;stroke-dashoffset:0;stroke-opacity:1"
           id="path40" /></g><g
         id="g42"
         transform="translate(11.96142,-90)"><text
           transform="matrix(1,0,0,-1,0,379)"
           style="font-variant:normal;font-weight:normal;font-size:18px;font-family:STSongti-TC;-inkscape-font-specification:STSongti-TC-Regular;writing-mode:lr-tb;fill:#000000;fill-opacity:1;fill-rule:nonzero;stroke:none"
           id="text46"><tspan
             x="0 18"
             y="0"
             sodipodi:role="line"
             id="tspan44">设备</tspan></text></g><g
         id="g48"
         transform="translate(47.96142,-90)"><text
           transform="matrix(1,0,0,-1,0,379)"
           style="font-variant:normal;font-weight:normal;font-size:18px;font-family:Arial;-inkscape-font-specification:ArialMT;writing-mode:lr-tb;fill:#000000;fill-opacity:1;fill-rule:nonzero;stroke:none"
           id="text52"><tspan
             x="0"
             y="0"
             id="tspan50">1</tspan></text></g><path
         d="m 83.5,163.8329 c 0,13.6233 11.04383,24.6671 24.6671,24.6671 h 265.6658 c 13.6233,0 24.6671,-11.0438 24.6671,-24.6671 V 65.16713 C 398.5,51.54385 387.4562,40.5 373.8329,40.5 H 108.1671 C 94.54383,40.5 83.5,51.54385 83.5,65.16713 Z"
         style="fill:#e7e6e6;fill-opacity:1;fill-rule:nonzero;stroke:none"
         id="path54" /><g
         id="g56"
         transform="matrix(7.874016e-5,0,0,-7.874016e-5,83.5,188.5)"><path
           d="M 0,313272.5 C 0,140256.9 140256.6,0 313271.9,0 H 3687228 c 173016,0 313272,140256.9 313272,313272.5 V 1566327 c 0,173016 -140256,313273 -313272,313273 H 313271.9 C 140256.6,1879600 0,1739343 0,1566327 Z"
           style="fill:none;stroke:#000000;stroke-width:12700;stroke-linecap:butt;stroke-linejoin:miter;stroke-miterlimit:8;stroke-dasharray:50800, 38100;stroke-dashoffset:0;stroke-opacity:1"
           id="path58" /></g><g
         id="g60"
         transform="translate(12.3048,-283)"><text
           transform="matrix(1,0,0,-1,0,379)"
           style="font-variant:normal;font-weight:normal;font-size:18px;font-family:STSongti-TC;-inkscape-font-specification:STSongti-TC-Regular;writing-mode:lr-tb;fill:#000000;fill-opacity:1;fill-rule:nonzero;stroke:none"
           id="text64"><tspan
             x="0 18"
             y="0"
             sodipodi:role="line"
             id="tspan62">设备</tspan></text></g><g
         id="g66"
         transform="translate(48.3048,-283)"><text
           transform="matrix(1,0,0,-1,0,379)"
           style="font-variant:normal;font-weight:normal;font-size:18px;font-family:Arial;-inkscape-font-specification:ArialMT;writing-mode:lr-tb;fill:#000000;fill-opacity:1;fill-rule:nonzero;stroke:none"
           id="text70"><tspan
             x="0"
             y="0"
             id="tspan68">3</tspan></text></g><path
         d="m 316.1082,180.3532 0.5873,40.6259 -2.9997,0.0434 -0.5872,-40.6259 z m -5.9777,1.5866 4.3695,-9.0641 4.6296,8.934 z m 9.543,37.4961 -4.3695,9.0641 -4.6296,-8.934 z"
         style="fill:#4472c4;fill-opacity:1;fill-rule:nonzero;stroke:none"
         id="path72" /><path
         d="m 589.0037,181.062 0.0188,37.9373 -3,0.001 -0.0188,-37.9372 3,-0.001 z m -5.9992,1.503 4.4955,-9.0022 4.5045,8.9977 -9,0.005 z m 9.0173,34.9328 -4.4956,9.0022 -4.5044,-8.9978 9,-0.004 z"
         style="fill:#4472c4;fill-opacity:1;fill-rule:nonzero;stroke:none"
         id="path74" /><g
         id="g76"
         transform="translate(320.3829,-183)"><text
           transform="matrix(1,0,0,-1,0,379)"
           style="font-variant:normal;font-weight:normal;font-size:18px;font-family:Arial;-inkscape-font-specification:ArialMT;writing-mode:lr-tb;fill:#000000;fill-opacity:1;fill-rule:nonzero;stroke:none"
           id="text80"><tspan
             x="0 12.0006 16.0002 19.9998 25.999201 36 46.000801 56.001598 65.001602"
             y="0"
             sodipodi:role="line"
             id="tspan78">Allreduce</tspan></text></g><path
         d="m 225.5,320.75 26.5683,-10e-5 v -4.5 L 225.5,316.25 Z m 24.3183,4.4999 13.5,-6.75 -13.5,-6.75 z"
         style="fill:#4472c4;fill-opacity:1;fill-rule:nonzero;stroke:none"
         id="path82" /><path
         d="m 367.5,316.75 120.4126,-10e-5 v -4.5 L 367.5,312.25 Z m 118.1626,4.4999 13.5,-6.75 -13.5,-6.75 z"
         style="fill:#4472c4;fill-opacity:1;fill-rule:nonzero;stroke:none"
         id="path84" /><path
         d="m 221.5,72.75 25.147,-5e-5 v -4.5 L 221.5,68.25 Z m 22.897,4.49995 13.5,-6.75003 -13.5,-6.74997 z"
         style="fill:#4472c4;fill-opacity:1;fill-rule:nonzero;stroke:none"
         id="path86" /><path
         d="m 363.5,73.75 118.9914,-7e-5 v -4.5 L 363.5,69.25 Z m 116.7413,4.49993 13.5,-6.75001 -13.5,-6.74999 z"
         style="fill:#4472c4;fill-opacity:1;fill-rule:nonzero;stroke:none"
         id="path88" /><path
         d="m 263.5,265.5 h 104 v -37 h -104 z"
         style="fill:#afabab;fill-opacity:1;fill-rule:nonzero;stroke:none"
         id="path90" /><g
         id="g92"
         transform="matrix(7.874016e-5,0,0,-7.874016e-5,263.5,265.5)"><path
           d="M 0,0 H 1320800 V 469900 H 0 Z"
           style="fill:none;stroke:#000000;stroke-width:12700;stroke-linecap:butt;stroke-linejoin:miter;stroke-miterlimit:8;stroke-dasharray:none;stroke-opacity:1"
           id="path94" /></g><g
         id="g96"
         transform="translate(289.9471,-138)"><text
           transform="matrix(1,0,0,-1,0,379)"
           style="font-variant:normal;font-weight:normal;font-size:18px;font-family:STSongti-TC;-inkscape-font-specification:STSongti-TC-Regular;writing-mode:lr-tb;fill:#000000;fill-opacity:1;fill-rule:nonzero;stroke:none"
           id="text100"><tspan
             x="0 18"
             y="0"
             sodipodi:role="line"
             id="tspan98">梯度</tspan></text></g><g
         id="g102"
         transform="translate(330.9471,-138)"><text
           transform="matrix(1,0,0,-1,0,379)"
           style="font-variant:normal;font-weight:normal;font-size:18px;font-family:Arial;-inkscape-font-specification:ArialMT;writing-mode:lr-tb;fill:#000000;fill-opacity:1;fill-rule:nonzero;stroke:none"
           id="text106"><tspan
             x="0"
             y="0"
             id="tspan104">1</tspan></text></g><path
         d="m 528.5,263.5 h 117 v -37 h -117 z"
         style="fill:#afabab;fill-opacity:1;fill-rule:nonzero;stroke:none"
         id="path108" /><g
         id="g110"
         transform="matrix(7.874016e-5,0,0,-7.874016e-5,528.5,263.5)"><path
           d="M 0,0 H 1485900 V 469900 H 0 Z"
           style="fill:none;stroke:#000000;stroke-width:12700;stroke-linecap:butt;stroke-linejoin:miter;stroke-miterlimit:8;stroke-dasharray:none;stroke-opacity:1"
           id="path112" /></g><g
         id="g114"
         transform="translate(565.3602,-140)"><text
           transform="matrix(1,0,0,-1,0,379)"
           style="font-variant:normal;font-weight:normal;font-size:18px;font-family:STSongti-TC;-inkscape-font-specification:STSongti-TC-Regular;writing-mode:lr-tb;fill:#000000;fill-opacity:1;fill-rule:nonzero;stroke:none"
           id="text118"><tspan
             x="0 18"
             y="0"
             sodipodi:role="line"
             id="tspan116">梯度</tspan></text></g><g
         id="g120"
         transform="translate(601.3602,-140)"><text
           transform="matrix(1,0,0,-1,0,379)"
           style="font-variant:normal;font-weight:normal;font-size:18px;font-family:Arial;-inkscape-font-specification:ArialMT;writing-mode:lr-tb;fill:#000000;fill-opacity:1;fill-rule:nonzero;stroke:none"
           id="text124"><tspan
             x="0"
             y="0"
             id="tspan122">2</tspan></text></g><path
         d="m 264.5,173.5 h 100 v -37 h -100 z"
         style="fill:#afabab;fill-opacity:1;fill-rule:nonzero;stroke:none"
         id="path126" /><g
         id="g128"
         transform="matrix(7.874016e-5,0,0,-7.874016e-5,264.5,173.5)"><path
           d="M 0,0 H 1270000 V 469900 H 0 Z"
           style="fill:none;stroke:#000000;stroke-width:12700;stroke-linecap:butt;stroke-linejoin:miter;stroke-miterlimit:8;stroke-dasharray:none;stroke-opacity:1"
           id="path130" /></g><g
         id="g132"
         transform="translate(290.6458,-232)"><text
           transform="matrix(1,0,0,-1,0,379)"
           style="font-variant:normal;font-weight:normal;font-size:18px;font-family:STSongti-TC;-inkscape-font-specification:STSongti-TC-Regular;writing-mode:lr-tb;fill:#000000;fill-opacity:1;fill-rule:nonzero;stroke:none"
           id="text136"><tspan
             x="0 18"
             y="0"
             sodipodi:role="line"
             id="tspan134">梯度</tspan></text></g><g
         id="g138"
         transform="translate(326.6458,-232)"><text
           transform="matrix(1,0,0,-1,0,379)"
           style="font-variant:normal;font-weight:normal;font-size:18px;font-family:Arial;-inkscape-font-specification:ArialMT;writing-mode:lr-tb;fill:#000000;fill-opacity:1;fill-rule:nonzero;stroke:none"
           id="text142"><tspan
             x="0"
             y="0"
             id="tspan140">1</tspan></text></g><path
         d="m 528.5,173.5 h 117 v -37 h -117 z"
         style="fill:#afabab;fill-opacity:1;fill-rule:nonzero;stroke:none"
         id="path144" /><g
         id="g146"
         transform="matrix(7.874016e-5,0,0,-7.874016e-5,528.5,173.5)"><path
           d="M 0,0 H 1485900 V 469900 H 0 Z"
           style="fill:none;stroke:#000000;stroke-width:12700;stroke-linecap:butt;stroke-linejoin:miter;stroke-miterlimit:8;stroke-dasharray:none;stroke-opacity:1"
           id="path148" /></g><g
         id="g150"
         transform="translate(565.3339,-231)"><text
           transform="matrix(1,0,0,-1,0,379)"
           style="font-variant:normal;font-weight:normal;font-size:18px;font-family:STSongti-TC;-inkscape-font-specification:STSongti-TC-Regular;writing-mode:lr-tb;fill:#000000;fill-opacity:1;fill-rule:nonzero;stroke:none"
           id="text154"><tspan
             x="0 18"
             y="0"
             sodipodi:role="line"
             id="tspan152">梯度</tspan></text></g><g
         id="g156"
         transform="translate(601.3339,-231)"><text
           transform="matrix(1,0,0,-1,0,379)"
           style="font-variant:normal;font-weight:normal;font-size:18px;font-family:Arial;-inkscape-font-specification:ArialMT;writing-mode:lr-tb;fill:#000000;fill-opacity:1;fill-rule:nonzero;stroke:none"
           id="text160"><tspan
             x="0"
             y="0"
             id="tspan158">2</tspan></text></g><path
         d="M 499.1625,294.75 378.75,294.7499 v -4.5 l 120.4125,10e-5 z M 381,299.2499 l -13.5,-6.75 13.5,-6.75 z"
         style="fill:#4472c4;fill-opacity:1;fill-rule:nonzero;stroke:none"
         id="path162" /><path
         d="m 493.8602,97.75 -123.1103,-7e-5 v -4.5 l 123.1103,7e-5 z M 373,102.2499 359.5,95.49992 373,88.74993 Z"
         style="fill:#4472c4;fill-opacity:1;fill-rule:nonzero;stroke:none"
         id="path164" /><g
         id="g166"
         transform="translate(741.5074,-90)"><text
           transform="matrix(1,0,0,-1,0,379)"
           style="font-variant:normal;font-weight:normal;font-size:18px;font-family:STSongti-TC;-inkscape-font-specification:STSongti-TC-Regular;writing-mode:lr-tb;fill:#000000;fill-opacity:1;fill-rule:nonzero;stroke:none"
           id="text170"><tspan
             x="0 18"
             y="0"
             sodipodi:role="line"
             id="tspan168">设备</tspan></text></g><g
         id="g172"
         transform="translate(777.5074,-90)"><text
           transform="matrix(1,0,0,-1,0,379)"
           style="font-variant:normal;font-weight:normal;font-size:18px;font-family:Arial;-inkscape-font-specification:ArialMT;writing-mode:lr-tb;fill:#000000;fill-opacity:1;fill-rule:nonzero;stroke:none"
           id="text176"><tspan
             x="0"
             y="0"
             id="tspan174">2</tspan></text></g><g
         id="g178"
         transform="translate(741.5073,-283)"><text
           transform="matrix(1,0,0,-1,0,379)"
           style="font-variant:normal;font-weight:normal;font-size:18px;font-family:STSongti-TC;-inkscape-font-specification:STSongti-TC-Regular;writing-mode:lr-tb;fill:#000000;fill-opacity:1;fill-rule:nonzero;stroke:none"
           id="text182"><tspan
             x="0 18"
             y="0"
             sodipodi:role="line"
             id="tspan180">设备</tspan></text></g><g
         id="g184"
         transform="translate(777.5073,-283)"><text
           transform="matrix(1,0,0,-1,0,379)"
           style="font-variant:normal;font-weight:normal;font-size:18px;font-family:Arial;-inkscape-font-specification:ArialMT;writing-mode:lr-tb;fill:#000000;fill-opacity:1;fill-rule:nonzero;stroke:none"
           id="text188"><tspan
             x="0"
             y="0"
             id="tspan186">4</tspan></text></g><path
         d="m 109.5,335.5 h 116 v -63 h -116 z"
         style="fill:#ffffff;fill-opacity:1;fill-rule:nonzero;stroke:none"
         id="path190" /><g
         id="g192"
         transform="matrix(7.874016e-5,0,0,-7.874016e-5,109.5,335.5)"><path
           d="M 0,0 H 1473200 V 800100 H 0 Z"
           style="fill:none;stroke:#000000;stroke-width:12700;stroke-linecap:butt;stroke-linejoin:miter;stroke-miterlimit:8;stroke-dasharray:none;stroke-opacity:1"
           id="path194" /></g><path
         d="m 109.5,122.5 h 111 v -66 h -111 z"
         style="fill:#ffffff;fill-opacity:1;fill-rule:nonzero;stroke:none"
         id="path196" /><g
         id="g198"
         transform="matrix(7.874016e-5,0,0,-7.874016e-5,109.5,122.5)"><path
           d="M 0,0 H 1409700 V 838200 H 0 Z"
           style="fill:none;stroke:#000000;stroke-width:12700;stroke-linecap:butt;stroke-linejoin:miter;stroke-miterlimit:8;stroke-dasharray:none;stroke-opacity:1"
           id="path200" /></g><path
         d="m 109.5,86.5 h 111 v -31 h -111 z"
         style="fill:#9dc3e6;fill-opacity:1;fill-rule:nonzero;stroke:none"
         id="path202" /><g
         id="g204"
         transform="matrix(7.874016e-5,0,0,-7.874016e-5,109.5,86.5)"><path
           d="M 0,0 H 1409700 V 393700 H 0 Z"
           style="fill:none;stroke:#000000;stroke-width:12700;stroke-linecap:butt;stroke-linejoin:miter;stroke-miterlimit:8;stroke-dasharray:none;stroke-opacity:1"
           id="path206" /></g><g
         id="g208"
         transform="translate(125.1799,-313)"><text
           transform="matrix(1,0,0,-1,0,379)"
           style="font-variant:normal;font-weight:normal;font-size:18px;font-family:STSongti-TC;-inkscape-font-specification:STSongti-TC-Regular;writing-mode:lr-tb;fill:#000000;fill-opacity:1;fill-rule:nonzero;stroke:none"
           id="text212"><tspan
             x="0 18 36 54"
             y="0"
             sodipodi:role="line"
             id="tspan210">数据分区</tspan></text></g><g
         id="g214"
         transform="translate(197.1799,-313)"><text
           transform="matrix(1,0,0,-1,0,379)"
           style="font-variant:normal;font-weight:normal;font-size:18px;font-family:Arial;-inkscape-font-specification:ArialMT;writing-mode:lr-tb;fill:#000000;fill-opacity:1;fill-rule:nonzero;stroke:none"
           id="text218"><tspan
             x="0"
             y="0"
             id="tspan216">2</tspan></text></g><path
         d="m 109.5,335.5 h 116 v -33 h -116 z"
         style="fill:#9dc3e6;fill-opacity:1;fill-rule:nonzero;stroke:none"
         id="path220" /><g
         id="g222"
         transform="matrix(7.874016e-5,0,0,-7.874016e-5,109.5,335.5)"><path
           d="M 0,0 H 1473200 V 419100 H 0 Z"
           style="fill:none;stroke:#000000;stroke-width:12700;stroke-linecap:butt;stroke-linejoin:miter;stroke-miterlimit:8;stroke-dasharray:none;stroke-opacity:1"
           id="path224" /></g><g
         id="g226"
         transform="translate(128.6735,-69)"><text
           transform="matrix(1,0,0,-1,0,379)"
           style="font-variant:normal;font-weight:normal;font-size:18px;font-family:STSongti-TC;-inkscape-font-specification:STSongti-TC-Regular;writing-mode:lr-tb;fill:#000000;fill-opacity:1;fill-rule:nonzero;stroke:none"
           id="text230"><tspan
             x="0 18 36 54"
             y="0"
             sodipodi:role="line"
             id="tspan228">数据分区</tspan></text></g><g
         id="g232"
         transform="translate(205.6735,-69)"><text
           transform="matrix(1,0,0,-1,0,379)"
           style="font-variant:normal;font-weight:normal;font-size:18px;font-family:Arial;-inkscape-font-specification:ArialMT;writing-mode:lr-tb;fill:#000000;fill-opacity:1;fill-rule:nonzero;stroke:none"
           id="text236"><tspan
             x="0"
             y="0"
             id="tspan234">1</tspan></text></g><g
         id="g238"
         transform="translate(406.0215,-42)"><text
           transform="matrix(1,0,0,-1,0,379)"
           style="font-variant:normal;font-weight:normal;font-size:18px;font-family:Arial;-inkscape-font-specification:ArialMT;writing-mode:lr-tb;fill:#000000;fill-opacity:1;fill-rule:nonzero;stroke:none"
           id="text242"><tspan
             x="0 9 19.000799 29.0016"
             y="0"
             sodipodi:role="line"
             id="tspan240">send</tspan></text></g><path
         d="m 263.5,335.5 h 104 v -63 h -104 z"
         style="fill:#a9d18e;fill-opacity:1;fill-rule:nonzero;stroke:none"
         id="path244" /><g
         id="g246"
         transform="matrix(7.874016e-5,0,0,-7.874016e-5,263.5,335.5)"><path
           d="M 0,0 H 1320800 V 800100 H 0 Z"
           style="fill:none;stroke:#000000;stroke-width:12700;stroke-linecap:butt;stroke-linejoin:miter;stroke-miterlimit:8;stroke-dasharray:none;stroke-opacity:1"
           id="path248" /></g><g
         id="g250"
         transform="translate(289.1145,-81)"><text
           transform="matrix(1,0,0,-1,0,379)"
           style="font-variant:normal;font-weight:normal;font-size:18px;font-family:STSongti-TC;-inkscape-font-specification:STSongti-TC-Regular;writing-mode:lr-tb;fill:#000000;fill-opacity:1;fill-rule:nonzero;stroke:none"
           id="text254"><tspan
             x="0 18"
             y="0"
             sodipodi:role="line"
             id="tspan252">算⼦</tspan></text></g><g
         id="g256"
         transform="translate(325.1145,-81)"><text
           transform="matrix(1,0,0,-1,0,379)"
           style="font-variant:normal;font-weight:normal;font-size:18px;font-family:Arial;-inkscape-font-specification:ArialMT;writing-mode:lr-tb;fill:#000000;fill-opacity:1;fill-rule:nonzero;stroke:none"
           id="text260"><tspan
             x="0"
             y="0"
             id="tspan258">1</tspan></text></g><path
         d="m 262.5,122.5 h 100 v -66 h -100 z"
         style="fill:#a9d18e;fill-opacity:1;fill-rule:nonzero;stroke:none"
         id="path262" /><g
         id="g264"
         transform="matrix(7.874016e-5,0,0,-7.874016e-5,262.5,122.5)"><path
           d="M 0,0 H 1270000 V 838200 H 0 Z"
           style="fill:none;stroke:#000000;stroke-width:12700;stroke-linecap:butt;stroke-linejoin:miter;stroke-miterlimit:8;stroke-dasharray:none;stroke-opacity:1"
           id="path266" /></g><g
         id="g268"
         transform="translate(286.2876,-297)"><text
           transform="matrix(1,0,0,-1,0,379)"
           style="font-variant:normal;font-weight:normal;font-size:18px;font-family:STSongti-TC;-inkscape-font-specification:STSongti-TC-Regular;writing-mode:lr-tb;fill:#000000;fill-opacity:1;fill-rule:nonzero;stroke:none"
           id="text272"><tspan
             x="0 18"
             y="0"
             sodipodi:role="line"
             id="tspan270">算⼦</tspan></text></g><g
         id="g274"
         transform="translate(322.2876,-297)"><text
           transform="matrix(1,0,0,-1,0,379)"
           style="font-variant:normal;font-weight:normal;font-size:18px;font-family:Arial;-inkscape-font-specification:ArialMT;writing-mode:lr-tb;fill:#000000;fill-opacity:1;fill-rule:nonzero;stroke:none"
           id="text278"><tspan
             x="0"
             y="0"
             id="tspan276">1</tspan></text></g><path
         d="m 499.5,334.5 h 178 v -62 h -178 z"
         style="fill:#a9d18e;fill-opacity:1;fill-rule:nonzero;stroke:none"
         id="path280" /><g
         id="g282"
         transform="matrix(7.874016e-5,0,0,-7.874016e-5,499.5,334.5)"><path
           d="M 0,0 H 2260600 V 787400 H 0 Z"
           style="fill:none;stroke:#000000;stroke-width:12700;stroke-linecap:butt;stroke-linejoin:miter;stroke-miterlimit:8;stroke-dasharray:none;stroke-opacity:1"
           id="path284" /></g><g
         id="g286"
         transform="translate(560.4364,-81)"><text
           transform="matrix(1,0,0,-1,0,379)"
           style="font-variant:normal;font-weight:normal;font-size:18px;font-family:STSongti-TC;-inkscape-font-specification:STSongti-TC-Regular;writing-mode:lr-tb;fill:#000000;fill-opacity:1;fill-rule:nonzero;stroke:none"
           id="text290"><tspan
             x="0 18"
             y="0"
             sodipodi:role="line"
             id="tspan288">算⼦</tspan></text></g><g
         id="g292"
         transform="translate(596.4364,-81)"><text
           transform="matrix(1,0,0,-1,0,379)"
           style="font-variant:normal;font-weight:normal;font-size:18px;font-family:Arial;-inkscape-font-specification:ArialMT;writing-mode:lr-tb;fill:#000000;fill-opacity:1;fill-rule:nonzero;stroke:none"
           id="text296"><tspan
             x="0"
             y="0"
             id="tspan294">2</tspan></text></g><path
         d="m 494.5,122.5 h 178 v -64 h -178 z"
         style="fill:#a9d18e;fill-opacity:1;fill-rule:nonzero;stroke:none"
         id="path298" /><g
         id="g300"
         transform="matrix(7.874016e-5,0,0,-7.874016e-5,494.5,122.5)"><path
           d="M 0,0 H 2260600 V 812800 H 0 Z"
           style="fill:none;stroke:#000000;stroke-width:12700;stroke-linecap:butt;stroke-linejoin:miter;stroke-miterlimit:8;stroke-dasharray:none;stroke-opacity:1"
           id="path302" /></g><g
         id="g304"
         transform="translate(562.7028,-293)"><text
           transform="matrix(1,0,0,-1,0,379)"
           style="font-variant:normal;font-weight:normal;font-size:18px;font-family:STSongti-TC;-inkscape-font-specification:STSongti-TC-Regular;writing-mode:lr-tb;fill:#000000;fill-opacity:1;fill-rule:nonzero;stroke:none"
           id="text308"><tspan
             x="0 18"
             y="0"
             sodipodi:role="line"
             id="tspan306">算⼦</tspan></text></g><g
         id="g310"
         transform="translate(598.7028,-293)"><text
           transform="matrix(1,0,0,-1,0,379)"
           style="font-variant:normal;font-weight:normal;font-size:18px;font-family:Arial;-inkscape-font-specification:ArialMT;writing-mode:lr-tb;fill:#000000;fill-opacity:1;fill-rule:nonzero;stroke:none"
           id="text314"><tspan
             x="0"
             y="0"
             id="tspan312">2</tspan></text></g><g
         id="g316"
         transform="translate(257.4024,-24)"><text
           transform="matrix(1,0,0,-1,0,379)"
           style="font-variant:normal;font-weight:normal;font-size:18px;font-family:STSongti-TC;-inkscape-font-specification:STSongti-TC-Regular;writing-mode:lr-tb;fill:#000000;fill-opacity:1;fill-rule:nonzero;stroke:none"
           id="text320"><tspan
             x="0 18 36 54"
             y="0"
             sodipodi:role="line"
             id="tspan318">程序分区</tspan></text></g><g
         id="g322"
         transform="translate(329.4024,-24)"><text
           transform="matrix(1,0,0,-1,0,379)"
           style="font-variant:normal;font-weight:normal;font-size:18px;font-family:Arial;-inkscape-font-specification:ArialMT;writing-mode:lr-tb;fill:#000000;fill-opacity:1;fill-rule:nonzero;stroke:none"
           id="text326"><tspan
             x="0"
             y="0"
             id="tspan324">1</tspan></text></g><g
         id="g328"
         transform="translate(339.4024,-24)"><text
           transform="matrix(1,0,0,-1,0,379)"
           style="font-variant:normal;font-weight:normal;font-size:18px;font-family:STSongti-TC;-inkscape-font-specification:STSongti-TC-Regular;writing-mode:lr-tb;fill:#000000;fill-opacity:1;fill-rule:nonzero;stroke:none"
           id="text332"><tspan
             x="0 18"
             y="0"
             sodipodi:role="line"
             id="tspan330">副本</tspan></text></g><g
         id="g334"
         transform="translate(524.6193,-28)"><text
           transform="matrix(1,0,0,-1,0,379)"
           style="font-variant:normal;font-weight:normal;font-size:18px;font-family:STSongti-TC;-inkscape-font-specification:STSongti-TC-Regular;writing-mode:lr-tb;fill:#000000;fill-opacity:1;fill-rule:nonzero;stroke:none"
           id="text338"><tspan
             x="0 18 36 54"
             y="0"
             sodipodi:role="line"
             id="tspan336">程序分区</tspan></text></g><g
         id="g340"
         transform="translate(596.6193,-28)"><text
           transform="matrix(1,0,0,-1,0,379)"
           style="font-variant:normal;font-weight:normal;font-size:18px;font-family:Arial;-inkscape-font-specification:ArialMT;writing-mode:lr-tb;fill:#000000;fill-opacity:1;fill-rule:nonzero;stroke:none"
           id="text344"><tspan
             x="0"
             y="0"
             id="tspan342">2</tspan></text></g><g
         id="g346"
         transform="translate(606.6193,-28)"><text
           transform="matrix(1,0,0,-1,0,379)"
           style="font-variant:normal;font-weight:normal;font-size:18px;font-family:STSongti-TC;-inkscape-font-specification:STSongti-TC-Regular;writing-mode:lr-tb;fill:#000000;fill-opacity:1;fill-rule:nonzero;stroke:none"
           id="text350"><tspan
             x="0 18"
             y="0"
             sodipodi:role="line"
             id="tspan348">副本</tspan></text></g><g
         id="g352"
         transform="translate(525.8193,-362)"><text
           transform="matrix(1,0,0,-1,0,379)"
           style="font-variant:normal;font-weight:normal;font-size:18px;font-family:STSongti-TC;-inkscape-font-specification:STSongti-TC-Regular;writing-mode:lr-tb;fill:#000000;fill-opacity:1;fill-rule:nonzero;stroke:none"
           id="text356"><tspan
             x="0 18 36 54"
             y="0"
             sodipodi:role="line"
             id="tspan354">程序分区</tspan></text></g><g
         id="g358"
         transform="translate(597.8193,-362)"><text
           transform="matrix(1,0,0,-1,0,379)"
           style="font-variant:normal;font-weight:normal;font-size:18px;font-family:Arial;-inkscape-font-specification:ArialMT;writing-mode:lr-tb;fill:#000000;fill-opacity:1;fill-rule:nonzero;stroke:none"
           id="text362"><tspan
             x="0"
             y="0"
             id="tspan360">2</tspan></text></g><g
         id="g364"
         transform="translate(607.8193,-362)"><text
           transform="matrix(1,0,0,-1,0,379)"
           style="font-variant:normal;font-weight:normal;font-size:18px;font-family:STSongti-TC;-inkscape-font-specification:STSongti-TC-Regular;writing-mode:lr-tb;fill:#000000;fill-opacity:1;fill-rule:nonzero;stroke:none"
           id="text368"><tspan
             x="0 18"
             y="0"
             sodipodi:role="line"
             id="tspan366">副本</tspan></text></g><g
         id="g370"
         transform="translate(258.384,-362)"><text
           transform="matrix(1,0,0,-1,0,379)"
           style="font-variant:normal;font-weight:normal;font-size:18px;font-family:STSongti-TC;-inkscape-font-specification:STSongti-TC-Regular;writing-mode:lr-tb;fill:#000000;fill-opacity:1;fill-rule:nonzero;stroke:none"
           id="text374"><tspan
             x="0 18 36 54"
             y="0"
             sodipodi:role="line"
             id="tspan372">程序分区</tspan></text></g><g
         id="g376"
         transform="translate(330.384,-362)"><text
           transform="matrix(1,0,0,-1,0,379)"
           style="font-variant:normal;font-weight:normal;font-size:18px;font-family:Arial;-inkscape-font-specification:ArialMT;writing-mode:lr-tb;fill:#000000;fill-opacity:1;fill-rule:nonzero;stroke:none"
           id="text380"><tspan
             x="0"
             y="0"
             id="tspan378">1</tspan></text></g><g
         id="g382"
         transform="translate(340.384,-362)"><text
           transform="matrix(1,0,0,-1,0,379)"
           style="font-variant:normal;font-weight:normal;font-size:18px;font-family:STSongti-TC;-inkscape-font-specification:STSongti-TC-Regular;writing-mode:lr-tb;fill:#000000;fill-opacity:1;fill-rule:nonzero;stroke:none"
           id="text386"><tspan
             x="0 18"
             y="0"
             sodipodi:role="line"
             id="tspan384">副本</tspan></text></g></g></g></svg>
