<?xml version="1.0" encoding="UTF-8" standalone="no"?>
<!-- Created with Inkscape (http://www.inkscape.org/) -->

<svg
   version="1.1"
   id="svg2"
   xml:space="preserve"
   width="929.85919"
   height="522.151"
   viewBox="0 0 929.85919 522.151"
   sodipodi:docname="ch10-data-parallel.svg"
   inkscape:version="1.1.1 (3bf5ae0d25, 2021-09-20)"
   xmlns:inkscape="http://www.inkscape.org/namespaces/inkscape"
   xmlns:sodipodi="http://sodipodi.sourceforge.net/DTD/sodipodi-0.dtd"
   xmlns="http://www.w3.org/2000/svg"
   xmlns:svg="http://www.w3.org/2000/svg"><defs
     id="defs6"><clipPath
       clipPathUnits="userSpaceOnUse"
       id="clipPath18"><path
         d="M 0,0 H 709 V 414 H 0 Z"
         id="path16" /></clipPath></defs><sodipodi:namedview
     id="namedview4"
     pagecolor="#ffffff"
     bordercolor="#666666"
     borderopacity="1.0"
     inkscape:pageshadow="2"
     inkscape:pageopacity="0.0"
     inkscape:pagecheckerboard="0"
     showgrid="false"
     fit-margin-top="0"
     fit-margin-left="0"
     fit-margin-right="0"
     fit-margin-bottom="0"
     inkscape:zoom="0.9210322"
     inkscape:cx="413.12345"
     inkscape:cy="275.77755"
     inkscape:window-width="1920"
     inkscape:window-height="1137"
     inkscape:window-x="1912"
     inkscape:window-y="-8"
     inkscape:window-maximized="1"
     inkscape:current-layer="g8" /><g
     id="g8"
     inkscape:groupmode="layer"
     inkscape:label="ch10-data-parallel"
     transform="matrix(1.3333333,0,0,-1.3333333,-15.477411,541.54816)"><g
       id="g10" /><g
       id="g22"><path
         d="m 84.5,352.3325 c 0,13.8996 11.26785,25.1675 25.1675,25.1675 h 573.6651 c 13.8996,0 25.1674,-11.2679 25.1674,-25.1675 V 251.6675 C 708.5,237.7678 697.2322,226.5 683.3326,226.5 H 109.6675 C 95.76785,226.5 84.5,237.7678 84.5,251.6675 Z"
         style="fill:#e7e6e6;fill-opacity:1;fill-rule:nonzero;stroke:none"
         id="path24" /><g
         id="g26"
         transform="matrix(7.874016e-5,0,0,-7.874016e-5,84.5,377.5)"><path
           d="M 0,319626.8 C 0,143101.8 143101.7,0 319626.7,0 H 7605174 c 176524,0 319626,143101.8 319626,319626.8 V 1598073 c 0,176525 -143102,319627 -319626,319627 H 319626.7 C 143101.7,1917700 0,1774598 0,1598073 Z"
           style="fill:none;stroke:#000000;stroke-width:12700;stroke-linecap:butt;stroke-linejoin:miter;stroke-miterlimit:8;stroke-dasharray:50800, 38100;stroke-dashoffset:0;stroke-opacity:1"
           id="path28" /></g><path
         d="m 472.5,368.5 h 72 v -90 h -72 z"
         style="fill:#a9d18e;fill-opacity:1;fill-rule:nonzero;stroke:none"
         id="path30" /><g
         id="g32"
         transform="matrix(7.874016e-5,0,0,-7.874016e-5,472.5,368.5)"><path
           d="M 0,0 H 914400 V 1143000 H 0 Z"
           style="fill:none;stroke:#000000;stroke-width:12700;stroke-linecap:butt;stroke-linejoin:miter;stroke-miterlimit:8;stroke-dasharray:none;stroke-opacity:1"
           id="path34" /></g><path
         d="m 608.5,369.5 h 72 v -90 h -72 z"
         style="fill:#a9d18e;fill-opacity:1;fill-rule:nonzero;stroke:none"
         id="path36" /><g
         id="g38"
         transform="matrix(7.874016e-5,0,0,-7.874016e-5,608.5,369.5)"><path
           d="M 0,0 H 914400 V 1143000 H 0 Z"
           style="fill:none;stroke:#000000;stroke-width:12700;stroke-linecap:butt;stroke-linejoin:miter;stroke-miterlimit:8;stroke-dasharray:none;stroke-opacity:1"
           id="path40" /></g><path
         d="m 337.5,368.5 h 73 v -90 h -73 z"
         style="fill:#a9d18e;fill-opacity:1;fill-rule:nonzero;stroke:none"
         id="path42" /><g
         id="g44"
         transform="matrix(7.874016e-5,0,0,-7.874016e-5,337.5,368.5)"><path
           d="M 0,0 H 927100 V 1143000 H 0 Z"
           style="fill:none;stroke:#000000;stroke-width:12700;stroke-linecap:butt;stroke-linejoin:miter;stroke-miterlimit:8;stroke-dasharray:none;stroke-opacity:1"
           id="path46" /></g><path
         d="m 106.5,365.5 h 113 v -86 h -113 z"
         style="fill:#ffffff;fill-opacity:1;fill-rule:nonzero;stroke:none"
         id="path48" /><g
         id="g50"
         transform="matrix(7.874016e-5,0,0,-7.874016e-5,106.5,365.5)"><path
           d="M 0,0 H 1435100 V 1092200 H 0 Z"
           style="fill:none;stroke:#000000;stroke-width:12700;stroke-linecap:butt;stroke-linejoin:miter;stroke-miterlimit:8;stroke-dasharray:none;stroke-opacity:1"
           id="path52" /></g><g
         id="g54"
         transform="translate(351.0344,-97)"><text
           transform="matrix(1,0,0,-1,0,414)"
           style="font-variant:normal;font-weight:normal;font-size:18px;font-family:STSongti-SC;-inkscape-font-specification:STSongti-SC-Regular;writing-mode:lr-tb;fill:#000000;fill-opacity:1;fill-rule:nonzero;stroke:none"
           id="text58"><tspan
             x="0 18"
             y="0"
             sodipodi:role="line"
             id="tspan56">算⼦</tspan></text></g><g
         id="g60"
         transform="translate(387.0344,-97)"><text
           transform="matrix(1,0,0,-1,0,414)"
           style="font-variant:normal;font-weight:normal;font-size:18px;font-family:STSongti-SC;-inkscape-font-specification:STSongti-SC-Regular;writing-mode:lr-tb;fill:#000000;fill-opacity:1;fill-rule:nonzero;stroke:none"
           id="text64"><tspan
             x="0"
             y="0"
             id="tspan62">1</tspan></text></g><g
         id="g66"
         transform="translate(485.2252,-97)"><text
           transform="matrix(1,0,0,-1,0,414)"
           style="font-variant:normal;font-weight:normal;font-size:18px;font-family:STSongti-SC;-inkscape-font-specification:STSongti-SC-Regular;writing-mode:lr-tb;fill:#000000;fill-opacity:1;fill-rule:nonzero;stroke:none"
           id="text70"><tspan
             x="0 18"
             y="0"
             sodipodi:role="line"
             id="tspan68">算⼦</tspan></text></g><g
         id="g72"
         transform="translate(521.2252,-97)"><text
           transform="matrix(1,0,0,-1,0,414)"
           style="font-variant:normal;font-weight:normal;font-size:18px;font-family:STSongti-SC;-inkscape-font-specification:STSongti-SC-Regular;writing-mode:lr-tb;fill:#000000;fill-opacity:1;fill-rule:nonzero;stroke:none"
           id="text76"><tspan
             x="0"
             y="0"
             id="tspan74">2</tspan></text></g><g
         id="g78"
         transform="translate(620.965,-97)"><text
           transform="matrix(1,0,0,-1,0,414)"
           style="font-variant:normal;font-weight:normal;font-size:18px;font-family:STSongti-SC;-inkscape-font-specification:STSongti-SC-Regular;writing-mode:lr-tb;fill:#000000;fill-opacity:1;fill-rule:nonzero;stroke:none"
           id="text82"><tspan
             x="0 18"
             y="0"
             sodipodi:role="line"
             id="tspan80">算⼦</tspan></text></g><g
         id="g84"
         transform="translate(656.965,-97)"><text
           transform="matrix(1,0,0,-1,0,414)"
           style="font-variant:normal;font-weight:normal;font-size:18px;font-family:STSongti-SC;-inkscape-font-specification:STSongti-SC-Regular;writing-mode:lr-tb;fill:#000000;fill-opacity:1;fill-rule:nonzero;stroke:none"
           id="text88"><tspan
             x="0"
             y="0"
             id="tspan86">3</tspan></text></g><g
         id="g90"
         transform="translate(12.20717,-118)"><text
           transform="matrix(1,0,0,-1,0,414)"
           style="font-variant:normal;font-weight:normal;font-size:18px;font-family:STSongti-SC;-inkscape-font-specification:STSongti-SC-Regular;writing-mode:lr-tb;fill:#000000;fill-opacity:1;fill-rule:nonzero;stroke:none"
           id="text94"><tspan
             x="0 18"
             y="0"
             sodipodi:role="line"
             id="tspan92">设备</tspan></text></g><g
         id="g96"
         transform="translate(48.20716,-118)"><text
           transform="matrix(1,0,0,-1,0,414)"
           style="font-variant:normal;font-weight:normal;font-size:18px;font-family:STSongti-SC;-inkscape-font-specification:STSongti-SC-Regular;writing-mode:lr-tb;fill:#000000;fill-opacity:1;fill-rule:nonzero;stroke:none"
           id="text100"><tspan
             x="0"
             y="0"
             id="tspan98">1</tspan></text></g><path
         d="m 328.5,271.5 h 95 v -36 h -95 z"
         style="fill:#afabab;fill-opacity:1;fill-rule:nonzero;stroke:none"
         id="path102" /><g
         id="g104"
         transform="matrix(7.874016e-5,0,0,-7.874016e-5,328.5,271.5)"><path
           d="M 0,0 H 1206500 V 457200 H 0 Z"
           style="fill:none;stroke:#000000;stroke-width:12700;stroke-linecap:butt;stroke-linejoin:miter;stroke-miterlimit:8;stroke-dasharray:none;stroke-opacity:1"
           id="path106" /></g><g
         id="g108"
         transform="translate(352.6288,-167)"><text
           transform="matrix(1,0,0,-1,0,414)"
           style="font-variant:normal;font-weight:normal;font-size:18px;font-family:STSongti-SC;-inkscape-font-specification:STSongti-SC-Regular;writing-mode:lr-tb;fill:#000000;fill-opacity:1;fill-rule:nonzero;stroke:none"
           id="text112"><tspan
             x="0 18"
             y="0"
             sodipodi:role="line"
             id="tspan110">梯度</tspan></text></g><g
         id="g114"
         transform="translate(388.6288,-167)"><text
           transform="matrix(1,0,0,-1,0,414)"
           style="font-variant:normal;font-weight:normal;font-size:18px;font-family:STSongti-SC;-inkscape-font-specification:STSongti-SC-Regular;writing-mode:lr-tb;fill:#000000;fill-opacity:1;fill-rule:nonzero;stroke:none"
           id="text118"><tspan
             x="0"
             y="0"
             id="tspan116">1</tspan></text></g><path
         d="m 462.5,270.5 h 96 v -37 h -96 z"
         style="fill:#afabab;fill-opacity:1;fill-rule:nonzero;stroke:none"
         id="path120" /><g
         id="g122"
         transform="matrix(7.874016e-5,0,0,-7.874016e-5,462.5,270.5)"><path
           d="M 0,0 H 1219200 V 469900 H 0 Z"
           style="fill:none;stroke:#000000;stroke-width:12700;stroke-linecap:butt;stroke-linejoin:miter;stroke-miterlimit:8;stroke-dasharray:none;stroke-opacity:1"
           id="path124" /></g><g
         id="g126"
         transform="translate(487.2839,-167)"><text
           transform="matrix(1,0,0,-1,0,414)"
           style="font-variant:normal;font-weight:normal;font-size:18px;font-family:STSongti-SC;-inkscape-font-specification:STSongti-SC-Regular;writing-mode:lr-tb;fill:#000000;fill-opacity:1;fill-rule:nonzero;stroke:none"
           id="text130"><tspan
             x="0 18"
             y="0"
             sodipodi:role="line"
             id="tspan128">梯度</tspan></text></g><g
         id="g132"
         transform="translate(523.2839,-167)"><text
           transform="matrix(1,0,0,-1,0,414)"
           style="font-variant:normal;font-weight:normal;font-size:18px;font-family:STSongti-SC;-inkscape-font-specification:STSongti-SC-Regular;writing-mode:lr-tb;fill:#000000;fill-opacity:1;fill-rule:nonzero;stroke:none"
           id="text136"><tspan
             x="0"
             y="0"
             id="tspan134">2</tspan></text></g><path
         d="m 595.5,269.5 h 95 v -37 h -95 z"
         style="fill:#afabab;fill-opacity:1;fill-rule:nonzero;stroke:none"
         id="path138" /><g
         id="g140"
         transform="matrix(7.874016e-5,0,0,-7.874016e-5,595.5,269.5)"><path
           d="M 0,0 H 1206500 V 469900 H 0 Z"
           style="fill:none;stroke:#000000;stroke-width:12700;stroke-linecap:butt;stroke-linejoin:miter;stroke-miterlimit:8;stroke-dasharray:none;stroke-opacity:1"
           id="path142" /></g><g
         id="g144"
         transform="translate(620.9015,-169)"><text
           transform="matrix(1,0,0,-1,0,414)"
           style="font-variant:normal;font-weight:normal;font-size:18px;font-family:STSongti-SC;-inkscape-font-specification:STSongti-SC-Regular;writing-mode:lr-tb;fill:#000000;fill-opacity:1;fill-rule:nonzero;stroke:none"
           id="text148"><tspan
             x="0 18"
             y="0"
             sodipodi:role="line"
             id="tspan146">梯度</tspan></text></g><g
         id="g150"
         transform="translate(656.9015,-169)"><text
           transform="matrix(1,0,0,-1,0,414)"
           style="font-variant:normal;font-weight:normal;font-size:18px;font-family:STSongti-SC;-inkscape-font-specification:STSongti-SC-Regular;writing-mode:lr-tb;fill:#000000;fill-opacity:1;fill-rule:nonzero;stroke:none"
           id="text154"><tspan
             x="0"
             y="0"
             id="tspan152">3</tspan></text></g><path
         d="m 106.5,366.5 h 113 v -42 h -113 z"
         style="fill:#9dc3e6;fill-opacity:1;fill-rule:nonzero;stroke:none"
         id="path156" /><g
         id="g158"
         transform="matrix(7.874016e-5,0,0,-7.874016e-5,106.5,366.5)"><path
           d="M 0,0 H 1435100 V 533400 H 0 Z"
           style="fill:none;stroke:#000000;stroke-width:12700;stroke-linecap:butt;stroke-linejoin:miter;stroke-miterlimit:8;stroke-dasharray:none;stroke-opacity:1"
           id="path160" /></g><g
         id="g162"
         transform="translate(124.4777,-74)"><text
           transform="matrix(1,0,0,-1,0,414)"
           style="font-variant:normal;font-weight:normal;font-size:18px;font-family:STSongti-SC;-inkscape-font-specification:STSongti-SC-Regular;writing-mode:lr-tb;fill:#000000;fill-opacity:1;fill-rule:nonzero;stroke:none"
           id="text166"><tspan
             x="0 18 36 54"
             y="0"
             sodipodi:role="line"
             id="tspan164">数据分区</tspan></text></g><g
         id="g168"
         transform="translate(196.4777,-74)"><text
           transform="matrix(1,0,0,-1,0,414)"
           style="font-variant:normal;font-weight:normal;font-size:18px;font-family:STSongti-SC;-inkscape-font-specification:STSongti-SC-Regular;writing-mode:lr-tb;fill:#000000;fill-opacity:1;fill-rule:nonzero;stroke:none"
           id="text172"><tspan
             x="0"
             y="0"
             id="tspan170">1</tspan></text></g><path
         d="m 221.5,344.75 105.4246,-10e-5 v -4.5 L 221.5,340.25 Z m 103.1746,4.4999 13.5,-6.75 -13.5,-6.75 z"
         style="fill:#4472c4;fill-opacity:1;fill-rule:nonzero;stroke:none"
         id="path174" /><path
         d="m 410.5,344.75 51.1478,-10e-5 v -4.5 L 410.5,340.25 Z m 48.8978,4.4999 13.5,-6.75 -13.5,-6.75 z"
         style="fill:#4472c4;fill-opacity:1;fill-rule:nonzero;stroke:none"
         id="path176" /><path
         d="m 544.5,344.75 51.1478,-10e-5 v -4.5 L 544.5,340.25 Z m 48.8978,4.4999 13.5,-6.75 -13.5,-6.75 z"
         style="fill:#4472c4;fill-opacity:1;fill-rule:nonzero;stroke:none"
         id="path178" /><path
         d="M 604.8978,300.2499 553.75,300.25 v 4.5 l 51.1478,-10e-5 z M 556,295.75 l -13.5,6.75 13.5,6.75 z"
         style="fill:#4472c4;fill-opacity:1;fill-rule:nonzero;stroke:none"
         id="path180" /><path
         d="M 469.8978,298.2499 418.75,298.25 v 4.5 l 51.1478,-10e-5 z M 421,293.75 l -13.5,6.75 13.5,6.75 z"
         style="fill:#4472c4;fill-opacity:1;fill-rule:nonzero;stroke:none"
         id="path182" /><path
         d="m 83.5,164.166 c 0,13.9916 11.3424,25.334 25.334,25.334 h 573.3321 c 13.9915,0 25.3339,-11.3424 25.3339,-25.334 V 62.83402 c 0,-13.99159 -11.3424,-25.33401 -25.3339,-25.33401 H 108.834 c -13.9916,0 -25.334,11.34242 -25.334,25.33401 z"
         style="fill:#e7e6e6;fill-opacity:1;fill-rule:nonzero;stroke:none"
         id="path184" /><g
         id="g186"
         transform="matrix(7.874016e-5,0,0,-7.874016e-5,83.5,189.5)"><path
           d="M 0,321742 C 0,144048.8 144048.5,0 321741.3,0 H 7603059 c 177693,0 321741,144048.8 321741,321742 v 1286916 c 0,177693 -144048,321742 -321741,321742 H 321741.3 C 144048.5,1930400 0,1786351 0,1608658 Z"
           style="fill:none;stroke:#000000;stroke-width:12700;stroke-linecap:butt;stroke-linejoin:miter;stroke-miterlimit:8;stroke-dasharray:50800, 38100;stroke-dashoffset:0;stroke-opacity:1"
           id="path188" /></g><path
         d="m 471.5,137.5 h 72 v -90 h -72 z"
         style="fill:#a9d18e;fill-opacity:1;fill-rule:nonzero;stroke:none"
         id="path190" /><g
         id="g192"
         transform="matrix(7.874016e-5,0,0,-7.874016e-5,471.5,137.5)"><path
           d="M 0,0 H 914400 V 1143000 H 0 Z"
           style="fill:none;stroke:#000000;stroke-width:12700;stroke-linecap:butt;stroke-linejoin:miter;stroke-miterlimit:8;stroke-dasharray:none;stroke-opacity:1"
           id="path194" /></g><path
         d="m 607.5,137.5 h 72 v -89 h -72 z"
         style="fill:#a9d18e;fill-opacity:1;fill-rule:nonzero;stroke:none"
         id="path196" /><g
         id="g198"
         transform="matrix(7.874016e-5,0,0,-7.874016e-5,607.5,137.5)"><path
           d="M 0,0 H 914400 V 1130300 H 0 Z"
           style="fill:none;stroke:#000000;stroke-width:12700;stroke-linecap:butt;stroke-linejoin:miter;stroke-miterlimit:8;stroke-dasharray:none;stroke-opacity:1"
           id="path200" /></g><path
         d="m 336.5,137.5 h 73 v -90 h -73 z"
         style="fill:#a9d18e;fill-opacity:1;fill-rule:nonzero;stroke:none"
         id="path202" /><g
         id="g204"
         transform="matrix(7.874016e-5,0,0,-7.874016e-5,336.5,137.5)"><path
           d="M 0,0 H 927100 V 1143000 H 0 Z"
           style="fill:none;stroke:#000000;stroke-width:12700;stroke-linecap:butt;stroke-linejoin:miter;stroke-miterlimit:8;stroke-dasharray:none;stroke-opacity:1"
           id="path206" /></g><path
         d="m 105.5,134.5 h 113 v -86 h -113 z"
         style="fill:#ffffff;fill-opacity:1;fill-rule:nonzero;stroke:none"
         id="path208" /><g
         id="g210"
         transform="matrix(7.874016e-5,0,0,-7.874016e-5,105.5,134.5)"><path
           d="M 0,0 H 1435100 V 1092200 H 0 Z"
           style="fill:none;stroke:#000000;stroke-width:12700;stroke-linecap:butt;stroke-linejoin:miter;stroke-miterlimit:8;stroke-dasharray:none;stroke-opacity:1"
           id="path212" /></g><g
         id="g214"
         transform="translate(348.7747,-328)"><text
           transform="matrix(1,0,0,-1,0,414)"
           style="font-variant:normal;font-weight:normal;font-size:18px;font-family:STSongti-SC;-inkscape-font-specification:STSongti-SC-Regular;writing-mode:lr-tb;fill:#000000;fill-opacity:1;fill-rule:nonzero;stroke:none"
           id="text218"><tspan
             x="0 18"
             y="0"
             sodipodi:role="line"
             id="tspan216">算⼦</tspan></text></g><g
         id="g220"
         transform="translate(384.7747,-328)"><text
           transform="matrix(1,0,0,-1,0,414)"
           style="font-variant:normal;font-weight:normal;font-size:18px;font-family:STSongti-SC;-inkscape-font-specification:STSongti-SC-Regular;writing-mode:lr-tb;fill:#000000;fill-opacity:1;fill-rule:nonzero;stroke:none"
           id="text224"><tspan
             x="0"
             y="0"
             id="tspan222">1</tspan></text></g><g
         id="g226"
         transform="translate(485.3655,-328)"><text
           transform="matrix(1,0,0,-1,0,414)"
           style="font-variant:normal;font-weight:normal;font-size:18px;font-family:STSongti-SC;-inkscape-font-specification:STSongti-SC-Regular;writing-mode:lr-tb;fill:#000000;fill-opacity:1;fill-rule:nonzero;stroke:none"
           id="text230"><tspan
             x="0 18"
             y="0"
             sodipodi:role="line"
             id="tspan228">算⼦</tspan></text></g><g
         id="g232"
         transform="translate(521.3655,-328)"><text
           transform="matrix(1,0,0,-1,0,414)"
           style="font-variant:normal;font-weight:normal;font-size:18px;font-family:STSongti-SC;-inkscape-font-specification:STSongti-SC-Regular;writing-mode:lr-tb;fill:#000000;fill-opacity:1;fill-rule:nonzero;stroke:none"
           id="text236"><tspan
             x="0"
             y="0"
             id="tspan234">2</tspan></text></g><g
         id="g238"
         transform="translate(619.9053,-328)"><text
           transform="matrix(1,0,0,-1,0,414)"
           style="font-variant:normal;font-weight:normal;font-size:18px;font-family:STSongti-SC;-inkscape-font-specification:STSongti-SC-Regular;writing-mode:lr-tb;fill:#000000;fill-opacity:1;fill-rule:nonzero;stroke:none"
           id="text242"><tspan
             x="0 18"
             y="0"
             sodipodi:role="line"
             id="tspan240">算⼦</tspan></text></g><g
         id="g244"
         transform="translate(655.9053,-328)"><text
           transform="matrix(1,0,0,-1,0,414)"
           style="font-variant:normal;font-weight:normal;font-size:18px;font-family:STSongti-SC;-inkscape-font-specification:STSongti-SC-Regular;writing-mode:lr-tb;fill:#000000;fill-opacity:1;fill-rule:nonzero;stroke:none"
           id="text248"><tspan
             x="0"
             y="0"
             id="tspan246">3</tspan></text></g><path
         d="m 328.5,183.5 h 95 v -37 h -95 z"
         style="fill:#afabab;fill-opacity:1;fill-rule:nonzero;stroke:none"
         id="path250" /><g
         id="g252"
         transform="matrix(7.874016e-5,0,0,-7.874016e-5,328.5,183.5)"><path
           d="M 0,0 H 1206500 V 469900 H 0 Z"
           style="fill:none;stroke:#000000;stroke-width:12700;stroke-linecap:butt;stroke-linejoin:miter;stroke-miterlimit:8;stroke-dasharray:none;stroke-opacity:1"
           id="path254" /></g><g
         id="g256"
         transform="translate(352.6288,-254)"><text
           transform="matrix(1,0,0,-1,0,414)"
           style="font-variant:normal;font-weight:normal;font-size:18px;font-family:STSongti-SC;-inkscape-font-specification:STSongti-SC-Regular;writing-mode:lr-tb;fill:#000000;fill-opacity:1;fill-rule:nonzero;stroke:none"
           id="text260"><tspan
             x="0 18"
             y="0"
             sodipodi:role="line"
             id="tspan258">梯度</tspan></text></g><g
         id="g262"
         transform="translate(388.6288,-254)"><text
           transform="matrix(1,0,0,-1,0,414)"
           style="font-variant:normal;font-weight:normal;font-size:18px;font-family:STSongti-SC;-inkscape-font-specification:STSongti-SC-Regular;writing-mode:lr-tb;fill:#000000;fill-opacity:1;fill-rule:nonzero;stroke:none"
           id="text266"><tspan
             x="0"
             y="0"
             id="tspan264">1</tspan></text></g><path
         d="m 462.5,182.5 h 96 v -37 h -96 z"
         style="fill:#afabab;fill-opacity:1;fill-rule:nonzero;stroke:none"
         id="path268" /><g
         id="g270"
         transform="matrix(7.874016e-5,0,0,-7.874016e-5,462.5,182.5)"><path
           d="M 0,0 H 1219200 V 469900 H 0 Z"
           style="fill:none;stroke:#000000;stroke-width:12700;stroke-linecap:butt;stroke-linejoin:miter;stroke-miterlimit:8;stroke-dasharray:none;stroke-opacity:1"
           id="path272" /></g><g
         id="g274"
         transform="translate(488.4839,-256)"><text
           transform="matrix(1,0,0,-1,0,414)"
           style="font-variant:normal;font-weight:normal;font-size:18px;font-family:STSongti-SC;-inkscape-font-specification:STSongti-SC-Regular;writing-mode:lr-tb;fill:#000000;fill-opacity:1;fill-rule:nonzero;stroke:none"
           id="text278"><tspan
             x="0 18"
             y="0"
             sodipodi:role="line"
             id="tspan276">梯度</tspan></text></g><g
         id="g280"
         transform="translate(524.4839,-256)"><text
           transform="matrix(1,0,0,-1,0,414)"
           style="font-variant:normal;font-weight:normal;font-size:18px;font-family:STSongti-SC;-inkscape-font-specification:STSongti-SC-Regular;writing-mode:lr-tb;fill:#000000;fill-opacity:1;fill-rule:nonzero;stroke:none"
           id="text284"><tspan
             x="0"
             y="0"
             id="tspan282">2</tspan></text></g><path
         d="m 595.5,180.5 h 95 v -37 h -95 z"
         style="fill:#afabab;fill-opacity:1;fill-rule:nonzero;stroke:none"
         id="path286" /><g
         id="g288"
         transform="matrix(7.874016e-5,0,0,-7.874016e-5,595.5,180.5)"><path
           d="M 0,0 H 1206500 V 469900 H 0 Z"
           style="fill:none;stroke:#000000;stroke-width:12700;stroke-linecap:butt;stroke-linejoin:miter;stroke-miterlimit:8;stroke-dasharray:none;stroke-opacity:1"
           id="path290" /></g><g
         id="g292"
         transform="translate(620.9015,-257)"><text
           transform="matrix(1,0,0,-1,0,414)"
           style="font-variant:normal;font-weight:normal;font-size:18px;font-family:STSongti-SC;-inkscape-font-specification:STSongti-SC-Regular;writing-mode:lr-tb;fill:#000000;fill-opacity:1;fill-rule:nonzero;stroke:none"
           id="text296"><tspan
             x="0 18"
             y="0"
             sodipodi:role="line"
             id="tspan294">梯度</tspan></text></g><g
         id="g298"
         transform="translate(656.9015,-257)"><text
           transform="matrix(1,0,0,-1,0,414)"
           style="font-variant:normal;font-weight:normal;font-size:18px;font-family:STSongti-SC;-inkscape-font-specification:STSongti-SC-Regular;writing-mode:lr-tb;fill:#000000;fill-opacity:1;fill-rule:nonzero;stroke:none"
           id="text302"><tspan
             x="0"
             y="0"
             id="tspan300">3</tspan></text></g><path
         d="m 105.5,90.5 h 113 v -42 h -113 z"
         style="fill:#9dc3e6;fill-opacity:1;fill-rule:nonzero;stroke:none"
         id="path304" /><g
         id="g306"
         transform="matrix(7.874016e-5,0,0,-7.874016e-5,105.5,90.5)"><path
           d="M 0,0 H 1435100 V 533400 H 0 Z"
           style="fill:none;stroke:#000000;stroke-width:12700;stroke-linecap:butt;stroke-linejoin:miter;stroke-miterlimit:8;stroke-dasharray:none;stroke-opacity:1"
           id="path308" /></g><g
         id="g310"
         transform="translate(121.0906,-349)"><text
           transform="matrix(1,0,0,-1,0,414)"
           style="font-variant:normal;font-weight:normal;font-size:18px;font-family:STSongti-SC;-inkscape-font-specification:STSongti-SC-Regular;writing-mode:lr-tb;fill:#000000;fill-opacity:1;fill-rule:nonzero;stroke:none"
           id="text314"><tspan
             x="0 18 36 54"
             y="0"
             sodipodi:role="line"
             id="tspan312">数据分区</tspan></text></g><g
         id="g316"
         transform="translate(193.0906,-349)"><text
           transform="matrix(1,0,0,-1,0,414)"
           style="font-variant:normal;font-weight:normal;font-size:18px;font-family:STSongti-SC;-inkscape-font-specification:STSongti-SC-Regular;writing-mode:lr-tb;fill:#000000;fill-opacity:1;fill-rule:nonzero;stroke:none"
           id="text320"><tspan
             x="0"
             y="0"
             id="tspan318">2</tspan></text></g><path
         d="m 220.5,66.75 105.4246,-7e-5 v -4.5 L 220.5,62.25 Z m 103.1746,4.49993 13.5,-6.75001 -13.5,-6.74999 z"
         style="fill:#4472c4;fill-opacity:1;fill-rule:nonzero;stroke:none"
         id="path322" /><path
         d="m 409.5,67.75 51.1478,-6e-5 v -4.5 L 409.5,63.25 Z m 48.8978,4.49994 13.5,-6.75002 -13.5,-6.74998 z"
         style="fill:#4472c4;fill-opacity:1;fill-rule:nonzero;stroke:none"
         id="path324" /><path
         d="m 543.5,66.75 51.1478,-6e-5 v -4.5 L 543.5,62.25 Z m 48.8978,4.49994 13.5,-6.75002 -13.5,-6.74998 z"
         style="fill:#4472c4;fill-opacity:1;fill-rule:nonzero;stroke:none"
         id="path326" /><path
         d="m 605.8978,109.2499 -51.1478,1e-4 v 4.5 l 51.1478,-1e-4 z M 557,104.75 l -13.5,6.75 13.5,6.75 z"
         style="fill:#4472c4;fill-opacity:1;fill-rule:nonzero;stroke:none"
         id="path328" /><path
         d="m 470.8978,108.2499 -51.1478,1e-4 v 4.5 l 51.1478,-1e-4 z M 422,103.75 l -13.5,6.75 13.5,6.75 z"
         style="fill:#4472c4;fill-opacity:1;fill-rule:nonzero;stroke:none"
         id="path330" /><g
         id="g332"
         transform="translate(11.22134,-300)"><text
           transform="matrix(1,0,0,-1,0,414)"
           style="font-variant:normal;font-weight:normal;font-size:18px;font-family:STSongti-SC;-inkscape-font-specification:STSongti-SC-Regular;writing-mode:lr-tb;fill:#000000;fill-opacity:1;fill-rule:nonzero;stroke:none"
           id="text336"><tspan
             x="0 18"
             y="0"
             sodipodi:role="line"
             id="tspan334">设备</tspan></text></g><g
         id="g338"
         transform="translate(47.22134,-300)"><text
           transform="matrix(1,0,0,-1,0,414)"
           style="font-variant:normal;font-weight:normal;font-size:18px;font-family:STSongti-SC;-inkscape-font-specification:STSongti-SC-Regular;writing-mode:lr-tb;fill:#000000;fill-opacity:1;fill-rule:nonzero;stroke:none"
           id="text342"><tspan
             x="0"
             y="0"
             id="tspan340">2</tspan></text></g><path
         d="M 377,191.4653 377.0001,228 h -3 L 374,191.4653 Z m -6,1.5 4.5,-9 4.5,9 z m 9.0001,33.5347 -4.5,9 -4.5,-9 z"
         style="fill:#4472c4;fill-opacity:1;fill-rule:nonzero;stroke:none"
         id="path344" /><path
         d="M 512,189.4653 512.0001,226 h -3 L 509,189.4653 Z m -6,1.5 4.5,-9 4.5,9 z m 9.0001,33.5347 -4.5,9 -4.5,-9 z"
         style="fill:#4472c4;fill-opacity:1;fill-rule:nonzero;stroke:none"
         id="path346" /><path
         d="M 644,188.4653 644.0001,225 h -3 L 641,188.4653 Z m -6,1.5 4.5,-9 4.5,9 z m 9.0001,33.5347 -4.5,9 -4.5,-9 z"
         style="fill:#4472c4;fill-opacity:1;fill-rule:nonzero;stroke:none"
         id="path348" /><g
         id="g350"
         transform="translate(233.9832,-202)"><text
           transform="matrix(1,0,0,-1,0,414)"
           style="font-variant:normal;font-weight:normal;font-size:18px;font-family:STSongti-SC;-inkscape-font-specification:STSongti-SC-Regular;writing-mode:lr-tb;fill:#000000;fill-opacity:1;fill-rule:nonzero;stroke:none"
           id="text354"><tspan
             x="0 12.0006 16.999201 21.997801 28.9944 36.999001 45.993599 54.988201 61.984798"
             y="0"
             sodipodi:role="line"
             id="tspan352">Allreduce</tspan></text></g><g
         id="g356"
         transform="translate(205.9832,-224)"><text
           transform="matrix(1,0,0,-1,0,414)"
           style="font-variant:normal;font-weight:normal;font-size:18px;font-family:STSongti-SC;-inkscape-font-specification:STSongti-SC-Regular;writing-mode:lr-tb;fill:#000000;fill-opacity:1;fill-rule:nonzero;stroke:none"
           id="text360"><tspan
             x="0 18 36 54 72 90 108"
             y="0"
             sodipodi:role="line"
             id="tspan358">（计算平均值）</tspan></text></g><g
         id="g362"
         transform="translate(466.7052,-23)"><text
           transform="matrix(1,0,0,-1,0,414)"
           style="font-variant:normal;font-weight:normal;font-size:18px;font-family:STSongti-SC;-inkscape-font-specification:STSongti-SC-Regular;writing-mode:lr-tb;fill:#000000;fill-opacity:1;fill-rule:nonzero;stroke:none"
           id="text366"><tspan
             x="0 18 36 54"
             y="0"
             sodipodi:role="line"
             id="tspan364">程序副本</tspan></text></g><g
         id="g368"
         transform="translate(464.2724,-397)"><text
           transform="matrix(1,0,0,-1,0,414)"
           style="font-variant:normal;font-weight:normal;font-size:18px;font-family:STSongti-SC;-inkscape-font-specification:STSongti-SC-Regular;writing-mode:lr-tb;fill:#000000;fill-opacity:1;fill-rule:nonzero;stroke:none"
           id="text372"><tspan
             x="0 18 36 54"
             y="0"
             sodipodi:role="line"
             id="tspan370">程序副本</tspan></text></g></g></g></svg>
