<?xml version="1.0" encoding="UTF-8" standalone="no"?>
<!-- Created with Inkscape (http://www.inkscape.org/) -->

<svg
   version="1.1"
   id="svg2"
   xml:space="preserve"
   width="1176"
   height="457.09634"
   viewBox="0 0 1176 457.09634"
   sodipodi:docname="ch10-allreduce-state.svg"
   inkscape:version="1.1.1 (3bf5ae0d25, 2021-09-20)"
   xmlns:inkscape="http://www.inkscape.org/namespaces/inkscape"
   xmlns:sodipodi="http://sodipodi.sourceforge.net/DTD/sodipodi-0.dtd"
   xmlns="http://www.w3.org/2000/svg"
   xmlns:svg="http://www.w3.org/2000/svg"><defs
     id="defs6"><clipPath
       clipPathUnits="userSpaceOnUse"
       id="clipPath18"><path
         d="M 0,0 H 883 V 364 H 0 Z"
         id="path16" /></clipPath></defs><sodipodi:namedview
     id="namedview4"
     pagecolor="#ffffff"
     bordercolor="#666666"
     borderopacity="1.0"
     inkscape:pageshadow="2"
     inkscape:pageopacity="0.0"
     inkscape:pagecheckerboard="0"
     showgrid="false"
     inkscape:zoom="0.78378348"
     inkscape:cx="290.25873"
     inkscape:cy="247.51734"
     inkscape:window-width="1920"
     inkscape:window-height="1137"
     inkscape:window-x="1912"
     inkscape:window-y="-8"
     inkscape:window-maximized="1"
     inkscape:current-layer="g8"
     fit-margin-top="0"
     fit-margin-left="0"
     fit-margin-right="0"
     fit-margin-bottom="0" /><g
     id="g8"
     inkscape:groupmode="layer"
     inkscape:label="ch10-allreduce-state"
     transform="matrix(1.3333333,0,0,-1.3333333,-1.3333325,475.63801)"><g
       id="g10" /><g
       id="g22"><path
         d="m 103.5,300.1664 c 0,8.4685 6.8651,15.3336 15.3336,15.3336 h 155.3328 c 8.4685,0 15.3336,-6.8651 15.3336,-15.3336 V 238.8336 C 289.5,230.3651 282.6349,223.5 274.1664,223.5 H 118.8336 c -8.4685,0 -15.3336,6.8651 -15.3336,15.3336 z"
         style="fill:#e7e6e6;fill-opacity:1;fill-rule:nonzero;stroke:none"
         id="path24" /><g
         id="g26"
         transform="matrix(7.874016e-5,0,0,-7.874016e-5,103.5,315.5)"><path
           d="M 0,194737.2 C 0,87186.82 87186.65,0 194736.8,0 H 2167463 c 107550,0 194737,87186.82 194737,194737.2 v 778925.6 c 0,107550.2 -87187,194737.2 -194737,194737.2 H 194736.8 C 87186.65,1168400 0,1081213 0,973662.8 Z"
           style="fill:none;stroke:#000000;stroke-width:12700;stroke-linecap:butt;stroke-linejoin:miter;stroke-miterlimit:8;stroke-dasharray:50800, 38100;stroke-dashoffset:0;stroke-opacity:1"
           id="path28" /></g><path
         d="m 111.5,278.5 h 56 v -39 h -56 z"
         style="fill:#9dc3e6;fill-opacity:1;fill-rule:nonzero;stroke:none"
         id="path30" /><g
         id="g32"
         transform="matrix(7.874016e-5,0,0,-7.874016e-5,111.5,278.5)"><path
           d="M 0,0 H 711200 V 495300 H 0 Z"
           style="fill:none;stroke:#000000;stroke-width:12700;stroke-linecap:butt;stroke-linejoin:miter;stroke-miterlimit:8;stroke-dasharray:none;stroke-opacity:1"
           id="path34" /></g><g
         id="g36"
         transform="translate(134.5547,-110)"><text
           transform="matrix(1,0,0,-1,0,364)"
           style="font-variant:normal;font-weight:normal;font-size:18px;font-family:STSongti-SC;-inkscape-font-specification:STSongti-SC-Regular;writing-mode:lr-tb;fill:#000000;fill-opacity:1;fill-rule:nonzero;stroke:none"
           id="text40"><tspan
             x="0"
             y="0"
             id="tspan38">2</tspan></text></g><g
         id="g42"
         transform="translate(113.4134,-72)"><text
           transform="matrix(1,0,0,-1,0,364)"
           style="font-variant:normal;font-weight:normal;font-size:18px;font-family:STSongti-SC;-inkscape-font-specification:STSongti-SC-Regular;writing-mode:lr-tb;fill:#000000;fill-opacity:1;fill-rule:nonzero;stroke:none"
           id="text46"><tspan
             x="0 18"
             y="0"
             sodipodi:role="line"
             id="tspan44">设备</tspan></text></g><g
         id="g48"
         transform="translate(154.4134,-72)"><text
           transform="matrix(1,0,0,-1,0,364)"
           style="font-variant:normal;font-weight:normal;font-size:18px;font-family:STSongti-SC;-inkscape-font-specification:STSongti-SC-Regular;writing-mode:lr-tb;fill:#000000;fill-opacity:1;fill-rule:nonzero;stroke:none"
           id="text52"><tspan
             x="0"
             y="0"
             id="tspan50">1</tspan></text></g><path
         d="m 168.5,278.5 h 56 v -39 h -56 z"
         style="fill:#9dc3e6;fill-opacity:1;fill-rule:nonzero;stroke:none"
         id="path54" /><g
         id="g56"
         transform="matrix(7.874016e-5,0,0,-7.874016e-5,168.5,278.5)"><path
           d="M 0,0 H 711200 V 495300 H 0 Z"
           style="fill:none;stroke:#000000;stroke-width:12700;stroke-linecap:butt;stroke-linejoin:miter;stroke-miterlimit:8;stroke-dasharray:none;stroke-opacity:1"
           id="path58" /></g><g
         id="g60"
         transform="translate(191.3145,-110)"><text
           transform="matrix(1,0,0,-1,0,364)"
           style="font-variant:normal;font-weight:normal;font-size:18px;font-family:STSongti-SC;-inkscape-font-specification:STSongti-SC-Regular;writing-mode:lr-tb;fill:#000000;fill-opacity:1;fill-rule:nonzero;stroke:none"
           id="text64"><tspan
             x="0"
             y="0"
             id="tspan62">4</tspan></text></g><path
         d="m 225.5,278.5 h 55 v -39 h -55 z"
         style="fill:#9dc3e6;fill-opacity:1;fill-rule:nonzero;stroke:none"
         id="path66" /><g
         id="g68"
         transform="matrix(7.874016e-5,0,0,-7.874016e-5,225.5,278.5)"><path
           d="M 0,0 H 698500 V 495300 H 0 Z"
           style="fill:none;stroke:#000000;stroke-width:12700;stroke-linecap:butt;stroke-linejoin:miter;stroke-miterlimit:8;stroke-dasharray:none;stroke-opacity:1"
           id="path70" /></g><g
         id="g72"
         transform="translate(248.0741,-110)"><text
           transform="matrix(1,0,0,-1,0,364)"
           style="font-variant:normal;font-weight:normal;font-size:18px;font-family:STSongti-SC;-inkscape-font-specification:STSongti-SC-Regular;writing-mode:lr-tb;fill:#000000;fill-opacity:1;fill-rule:nonzero;stroke:none"
           id="text76"><tspan
             x="0"
             y="0"
             id="tspan74">6</tspan></text></g><path
         d="m 1.5,182.333 c 0,8.3765 6.7905,15.167 15.16701,15.167 H 171.333 c 8.3765,0 15.167,-6.7905 15.167,-15.167 v -60.666 c 0,-8.3765 -6.7905,-15.167 -15.167,-15.167 H 16.66701 C 8.2905,106.5 1.5,113.2905 1.5,121.667 Z"
         style="fill:#e7e6e6;fill-opacity:1;fill-rule:nonzero;stroke:none"
         id="path78" /><g
         id="g80"
         transform="matrix(7.874016e-5,0,0,-7.874016e-5,1.5,197.5)"><path
           d="M 0,192621.4 C 0,86239.53 86239.35,0 192621,0 h 1964258 c 106382,0 192621,86239.53 192621,192621.4 v 770457.2 c 0,106382.4 -86239,192621.4 -192621,192621.4 H 192621 C 86239.35,1155700 0,1069461 0,963078.6 Z"
           style="fill:none;stroke:#000000;stroke-width:12700;stroke-linecap:butt;stroke-linejoin:miter;stroke-miterlimit:8;stroke-dasharray:50800, 38100;stroke-dashoffset:0;stroke-opacity:1"
           id="path82" /></g><path
         d="m 9.5,160.5 h 56 v -38 h -56 z"
         style="fill:#9dc3e6;fill-opacity:1;fill-rule:nonzero;stroke:none"
         id="path84" /><g
         id="g86"
         transform="matrix(7.874016e-5,0,0,-7.874016e-5,9.5,160.5)"><path
           d="M 0,0 H 711200 V 482600 H 0 Z"
           style="fill:none;stroke:#000000;stroke-width:12700;stroke-linecap:butt;stroke-linejoin:miter;stroke-miterlimit:8;stroke-dasharray:none;stroke-opacity:1"
           id="path88" /></g><g
         id="g90"
         transform="translate(32.40973,-227)"><text
           transform="matrix(1,0,0,-1,0,364)"
           style="font-variant:normal;font-weight:normal;font-size:18px;font-family:STSongti-SC;-inkscape-font-specification:STSongti-SC-Regular;writing-mode:lr-tb;fill:#000000;fill-opacity:1;fill-rule:nonzero;stroke:none"
           id="text94"><tspan
             x="0"
             y="0"
             id="tspan92">1</tspan></text></g><g
         id="g96"
         transform="translate(11.26842,-190)"><text
           transform="matrix(1,0,0,-1,0,364)"
           style="font-variant:normal;font-weight:normal;font-size:18px;font-family:STSongti-SC;-inkscape-font-specification:STSongti-SC-Regular;writing-mode:lr-tb;fill:#000000;fill-opacity:1;fill-rule:nonzero;stroke:none"
           id="text100"><tspan
             x="0 18"
             y="0"
             sodipodi:role="line"
             id="tspan98">设备</tspan></text></g><g
         id="g102"
         transform="translate(52.26842,-190)"><text
           transform="matrix(1,0,0,-1,0,364)"
           style="font-variant:normal;font-weight:normal;font-size:18px;font-family:STSongti-SC;-inkscape-font-specification:STSongti-SC-Regular;writing-mode:lr-tb;fill:#000000;fill-opacity:1;fill-rule:nonzero;stroke:none"
           id="text106"><tspan
             x="0"
             y="0"
             id="tspan104">2</tspan></text></g><path
         d="m 66.5,160.5 h 55 v -38 h -55 z"
         style="fill:#9dc3e6;fill-opacity:1;fill-rule:nonzero;stroke:none"
         id="path108" /><g
         id="g110"
         transform="matrix(7.874016e-5,0,0,-7.874016e-5,66.5,160.5)"><path
           d="M 0,0 H 698500 V 482600 H 0 Z"
           style="fill:none;stroke:#000000;stroke-width:12700;stroke-linecap:butt;stroke-linejoin:miter;stroke-miterlimit:8;stroke-dasharray:none;stroke-opacity:1"
           id="path112" /></g><g
         id="g114"
         transform="translate(89.16941,-227)"><text
           transform="matrix(1,0,0,-1,0,364)"
           style="font-variant:normal;font-weight:normal;font-size:18px;font-family:STSongti-SC;-inkscape-font-specification:STSongti-SC-Regular;writing-mode:lr-tb;fill:#000000;fill-opacity:1;fill-rule:nonzero;stroke:none"
           id="text118"><tspan
             x="0"
             y="0"
             id="tspan116">2</tspan></text></g><path
         d="m 123.5,160.5 h 55 v -38 h -55 z"
         style="fill:#9dc3e6;fill-opacity:1;fill-rule:nonzero;stroke:none"
         id="path120" /><g
         id="g122"
         transform="matrix(7.874016e-5,0,0,-7.874016e-5,123.5,160.5)"><path
           d="M 0,0 H 698500 V 482600 H 0 Z"
           style="fill:none;stroke:#000000;stroke-width:12700;stroke-linecap:butt;stroke-linejoin:miter;stroke-miterlimit:8;stroke-dasharray:none;stroke-opacity:1"
           id="path124" /></g><g
         id="g126"
         transform="translate(145.9292,-227)"><text
           transform="matrix(1,0,0,-1,0,364)"
           style="font-variant:normal;font-weight:normal;font-size:18px;font-family:STSongti-SC;-inkscape-font-specification:STSongti-SC-Regular;writing-mode:lr-tb;fill:#000000;fill-opacity:1;fill-rule:nonzero;stroke:none"
           id="text130"><tspan
             x="0"
             y="0"
             id="tspan128">3</tspan></text></g><path
         d="m 201.5,182.333 c 0,8.3765 6.7905,15.167 15.167,15.167 h 154.666 c 8.3765,0 15.167,-6.7905 15.167,-15.167 v -60.666 c 0,-8.3765 -6.7905,-15.167 -15.167,-15.167 H 216.667 c -8.3765,0 -15.167,6.7905 -15.167,15.167 z"
         style="fill:#e7e6e6;fill-opacity:1;fill-rule:nonzero;stroke:none"
         id="path132" /><g
         id="g134"
         transform="matrix(7.874016e-5,0,0,-7.874016e-5,201.5,197.5)"><path
           d="M 0,192621.4 C 0,86239.53 86239.35,0 192621,0 h 1964258 c 106382,0 192621,86239.53 192621,192621.4 v 770457.2 c 0,106382.4 -86239,192621.4 -192621,192621.4 H 192621 C 86239.35,1155700 0,1069461 0,963078.6 Z"
           style="fill:none;stroke:#000000;stroke-width:12700;stroke-linecap:butt;stroke-linejoin:miter;stroke-miterlimit:8;stroke-dasharray:50800, 38100;stroke-dashoffset:0;stroke-opacity:1"
           id="path136" /></g><path
         d="m 209.5,160.5 h 56 v -38 h -56 z"
         style="fill:#9dc3e6;fill-opacity:1;fill-rule:nonzero;stroke:none"
         id="path138" /><g
         id="g140"
         transform="matrix(7.874016e-5,0,0,-7.874016e-5,209.5,160.5)"><path
           d="M 0,0 H 711200 V 482600 H 0 Z"
           style="fill:none;stroke:#000000;stroke-width:12700;stroke-linecap:butt;stroke-linejoin:miter;stroke-miterlimit:8;stroke-dasharray:none;stroke-opacity:1"
           id="path142" /></g><g
         id="g144"
         transform="translate(232.5075,-227)"><text
           transform="matrix(1,0,0,-1,0,364)"
           style="font-variant:normal;font-weight:normal;font-size:18px;font-family:STSongti-SC;-inkscape-font-specification:STSongti-SC-Regular;writing-mode:lr-tb;fill:#000000;fill-opacity:1;fill-rule:nonzero;stroke:none"
           id="text148"><tspan
             x="0"
             y="0"
             id="tspan146">4</tspan></text></g><g
         id="g150"
         transform="translate(211.3663,-190)"><text
           transform="matrix(1,0,0,-1,0,364)"
           style="font-variant:normal;font-weight:normal;font-size:18px;font-family:STSongti-SC;-inkscape-font-specification:STSongti-SC-Regular;writing-mode:lr-tb;fill:#000000;fill-opacity:1;fill-rule:nonzero;stroke:none"
           id="text154"><tspan
             x="0 18"
             y="0"
             sodipodi:role="line"
             id="tspan152">设备</tspan></text></g><g
         id="g156"
         transform="translate(252.3663,-190)"><text
           transform="matrix(1,0,0,-1,0,364)"
           style="font-variant:normal;font-weight:normal;font-size:18px;font-family:STSongti-SC;-inkscape-font-specification:STSongti-SC-Regular;writing-mode:lr-tb;fill:#000000;fill-opacity:1;fill-rule:nonzero;stroke:none"
           id="text160"><tspan
             x="0"
             y="0"
             id="tspan158">3</tspan></text></g><path
         d="m 266.5,160.5 h 56 v -38 h -56 z"
         style="fill:#9dc3e6;fill-opacity:1;fill-rule:nonzero;stroke:none"
         id="path162" /><g
         id="g164"
         transform="matrix(7.874016e-5,0,0,-7.874016e-5,266.5,160.5)"><path
           d="M 0,0 H 711200 V 482600 H 0 Z"
           style="fill:none;stroke:#000000;stroke-width:12700;stroke-linecap:butt;stroke-linejoin:miter;stroke-miterlimit:8;stroke-dasharray:none;stroke-opacity:1"
           id="path166" /></g><g
         id="g168"
         transform="translate(289.2673,-227)"><text
           transform="matrix(1,0,0,-1,0,364)"
           style="font-variant:normal;font-weight:normal;font-size:18px;font-family:STSongti-SC;-inkscape-font-specification:STSongti-SC-Regular;writing-mode:lr-tb;fill:#000000;fill-opacity:1;fill-rule:nonzero;stroke:none"
           id="text172"><tspan
             x="0"
             y="0"
             id="tspan170">8</tspan></text></g><path
         d="m 323.5,160.5 h 55 v -38 h -55 z"
         style="fill:#9dc3e6;fill-opacity:1;fill-rule:nonzero;stroke:none"
         id="path174" /><g
         id="g176"
         transform="matrix(7.874016e-5,0,0,-7.874016e-5,323.5,160.5)"><path
           d="M 0,0 H 698500 V 482600 H 0 Z"
           style="fill:none;stroke:#000000;stroke-width:12700;stroke-linecap:butt;stroke-linejoin:miter;stroke-miterlimit:8;stroke-dasharray:none;stroke-opacity:1"
           id="path178" /></g><g
         id="g180"
         transform="translate(342.027,-227)"><text
           transform="matrix(1,0,0,-1,0,364)"
           style="font-variant:normal;font-weight:normal;font-size:18px;font-family:STSongti-SC;-inkscape-font-specification:STSongti-SC-Regular;writing-mode:lr-tb;fill:#000000;fill-opacity:1;fill-rule:nonzero;stroke:none"
           id="text184"><tspan
             x="0 7.9991999"
             y="0"
             sodipodi:role="line"
             id="tspan182">12</tspan></text></g><path
         d="m 599.5,297.333 c 0,8.3765 6.7905,15.167 15.167,15.167 h 154.666 c 8.3765,0 15.167,-6.7905 15.167,-15.167 v -60.666 c 0,-8.3765 -6.7905,-15.167 -15.167,-15.167 H 614.667 c -8.3765,0 -15.167,6.7905 -15.167,15.167 z"
         style="fill:#e7e6e6;fill-opacity:1;fill-rule:nonzero;stroke:none"
         id="path186" /><g
         id="g188"
         transform="matrix(7.874016e-5,0,0,-7.874016e-5,599.5,312.5)"><path
           d="M 0,192621.4 C 0,86239.53 86239.35,0 192621,0 h 1964258 c 106382,0 192621,86239.53 192621,192621.4 v 770457.2 c 0,106382.4 -86239,192621.4 -192621,192621.4 H 192621 C 86239.35,1155700 0,1069461 0,963078.6 Z"
           style="fill:none;stroke:#000000;stroke-width:12700;stroke-linecap:butt;stroke-linejoin:miter;stroke-miterlimit:8;stroke-dasharray:50800, 38100;stroke-dashoffset:0;stroke-opacity:1"
           id="path190" /></g><path
         d="m 607.5,275.5 h 55 v -38 h -55 z"
         style="fill:#9dc3e6;fill-opacity:1;fill-rule:nonzero;stroke:none"
         id="path192" /><g
         id="g194"
         transform="matrix(7.874016e-5,0,0,-7.874016e-5,607.5,275.5)"><path
           d="M 0,0 H 698500 V 482600 H 0 Z"
           style="fill:none;stroke:#000000;stroke-width:12700;stroke-linecap:butt;stroke-linejoin:miter;stroke-miterlimit:8;stroke-dasharray:none;stroke-opacity:1"
           id="path196" /></g><g
         id="g198"
         transform="translate(630.1545,-112)"><text
           transform="matrix(1,0,0,-1,0,364)"
           style="font-variant:normal;font-weight:normal;font-size:18px;font-family:STSongti-SC;-inkscape-font-specification:STSongti-SC-Regular;writing-mode:lr-tb;fill:#000000;fill-opacity:1;fill-rule:nonzero;stroke:none"
           id="text202"><tspan
             x="0"
             y="0"
             id="tspan200">7</tspan></text></g><g
         id="g204"
         transform="translate(609.0132,-75)"><text
           transform="matrix(1,0,0,-1,0,364)"
           style="font-variant:normal;font-weight:normal;font-size:18px;font-family:STSongti-SC;-inkscape-font-specification:STSongti-SC-Regular;writing-mode:lr-tb;fill:#000000;fill-opacity:1;fill-rule:nonzero;stroke:none"
           id="text208"><tspan
             x="0 18"
             y="0"
             sodipodi:role="line"
             id="tspan206">设备</tspan></text></g><g
         id="g210"
         transform="translate(650.0132,-75)"><text
           transform="matrix(1,0,0,-1,0,364)"
           style="font-variant:normal;font-weight:normal;font-size:18px;font-family:STSongti-SC;-inkscape-font-specification:STSongti-SC-Regular;writing-mode:lr-tb;fill:#000000;fill-opacity:1;fill-rule:nonzero;stroke:none"
           id="text214"><tspan
             x="0"
             y="0"
             id="tspan212">1</tspan></text></g><path
         d="m 664.5,275.5 h 55 v -38 h -55 z"
         style="fill:#9dc3e6;fill-opacity:1;fill-rule:nonzero;stroke:none"
         id="path216" /><g
         id="g218"
         transform="matrix(7.874016e-5,0,0,-7.874016e-5,664.5,275.5)"><path
           d="M 0,0 H 698500 V 482600 H 0 Z"
           style="fill:none;stroke:#000000;stroke-width:12700;stroke-linecap:butt;stroke-linejoin:miter;stroke-miterlimit:8;stroke-dasharray:none;stroke-opacity:1"
           id="path220" /></g><g
         id="g222"
         transform="translate(682.9143,-112)"><text
           transform="matrix(1,0,0,-1,0,364)"
           style="font-variant:normal;font-weight:normal;font-size:18px;font-family:STSongti-SC;-inkscape-font-specification:STSongti-SC-Regular;writing-mode:lr-tb;fill:#000000;fill-opacity:1;fill-rule:nonzero;stroke:none"
           id="text226"><tspan
             x="0 7.9991999"
             y="0"
             sodipodi:role="line"
             id="tspan224">14</tspan></text></g><path
         d="m 720.5,275.5 h 56 v -38 h -56 z"
         style="fill:#9dc3e6;fill-opacity:1;fill-rule:nonzero;stroke:none"
         id="path228" /><g
         id="g230"
         transform="matrix(7.874016e-5,0,0,-7.874016e-5,720.5,275.5)"><path
           d="M 0,0 H 711200 V 482600 H 0 Z"
           style="fill:none;stroke:#000000;stroke-width:12700;stroke-linecap:butt;stroke-linejoin:miter;stroke-miterlimit:8;stroke-dasharray:none;stroke-opacity:1"
           id="path232" /></g><g
         id="g234"
         transform="translate(739.674,-112)"><text
           transform="matrix(1,0,0,-1,0,364)"
           style="font-variant:normal;font-weight:normal;font-size:18px;font-family:STSongti-SC;-inkscape-font-specification:STSongti-SC-Regular;writing-mode:lr-tb;fill:#000000;fill-opacity:1;fill-rule:nonzero;stroke:none"
           id="text238"><tspan
             x="0 7.9991999"
             y="0"
             sodipodi:role="line"
             id="tspan236">21</tspan></text></g><path
         d="m 496.5,179.333 c 0,8.3765 6.7905,15.167 15.167,15.167 h 155.666 c 8.3765,0 15.167,-6.7905 15.167,-15.167 v -60.666 c 0,-8.3765 -6.7905,-15.167 -15.167,-15.167 H 511.667 c -8.3765,0 -15.167,6.7905 -15.167,15.167 z"
         style="fill:#e7e6e6;fill-opacity:1;fill-rule:nonzero;stroke:none"
         id="path240" /><g
         id="g242"
         transform="matrix(7.874016e-5,0,0,-7.874016e-5,496.5,194.5)"><path
           d="M 0,192621.4 C 0,86239.54 86239.39,0 192621.1,0 H 2169579 c 106382,0 192621,86239.54 192621,192621.4 v 770457.2 c 0,106381.4 -86239,192621.4 -192621,192621.4 H 192621.1 C 86239.39,1155700 0,1069460 0,963078.6 Z"
           style="fill:none;stroke:#000000;stroke-width:12700;stroke-linecap:butt;stroke-linejoin:miter;stroke-miterlimit:8;stroke-dasharray:50800, 38100;stroke-dashoffset:0;stroke-opacity:1"
           id="path244" /></g><path
         d="m 505.5,157.5 h 55 v -38 h -55 z"
         style="fill:#9dc3e6;fill-opacity:1;fill-rule:nonzero;stroke:none"
         id="path246" /><g
         id="g248"
         transform="matrix(7.874016e-5,0,0,-7.874016e-5,505.5,157.5)"><path
           d="M 0,0 H 698500 V 482600 H 0 Z"
           style="fill:none;stroke:#000000;stroke-width:12700;stroke-linecap:butt;stroke-linejoin:miter;stroke-miterlimit:8;stroke-dasharray:none;stroke-opacity:1"
           id="path250" /></g><g
         id="g252"
         transform="translate(528.0096,-230)"><text
           transform="matrix(1,0,0,-1,0,364)"
           style="font-variant:normal;font-weight:normal;font-size:18px;font-family:STSongti-SC;-inkscape-font-specification:STSongti-SC-Regular;writing-mode:lr-tb;fill:#000000;fill-opacity:1;fill-rule:nonzero;stroke:none"
           id="text256"><tspan
             x="0"
             y="0"
             id="tspan254">7</tspan></text></g><g
         id="g258"
         transform="translate(506.8683,-192)"><text
           transform="matrix(1,0,0,-1,0,364)"
           style="font-variant:normal;font-weight:normal;font-size:18px;font-family:STSongti-SC;-inkscape-font-specification:STSongti-SC-Regular;writing-mode:lr-tb;fill:#000000;fill-opacity:1;fill-rule:nonzero;stroke:none"
           id="text262"><tspan
             x="0 18"
             y="0"
             sodipodi:role="line"
             id="tspan260">设备</tspan></text></g><g
         id="g264"
         transform="translate(547.8683,-192)"><text
           transform="matrix(1,0,0,-1,0,364)"
           style="font-variant:normal;font-weight:normal;font-size:18px;font-family:STSongti-SC;-inkscape-font-specification:STSongti-SC-Regular;writing-mode:lr-tb;fill:#000000;fill-opacity:1;fill-rule:nonzero;stroke:none"
           id="text268"><tspan
             x="0"
             y="0"
             id="tspan266">2</tspan></text></g><path
         d="m 562.5,157.5 h 55 v -38 h -55 z"
         style="fill:#9dc3e6;fill-opacity:1;fill-rule:nonzero;stroke:none"
         id="path270" /><g
         id="g272"
         transform="matrix(7.874016e-5,0,0,-7.874016e-5,562.5,157.5)"><path
           d="M 0,0 H 698500 V 482600 H 0 Z"
           style="fill:none;stroke:#000000;stroke-width:12700;stroke-linecap:butt;stroke-linejoin:miter;stroke-miterlimit:8;stroke-dasharray:none;stroke-opacity:1"
           id="path274" /></g><g
         id="g276"
         transform="translate(580.7692,-230)"><text
           transform="matrix(1,0,0,-1,0,364)"
           style="font-variant:normal;font-weight:normal;font-size:18px;font-family:STSongti-SC;-inkscape-font-specification:STSongti-SC-Regular;writing-mode:lr-tb;fill:#000000;fill-opacity:1;fill-rule:nonzero;stroke:none"
           id="text280"><tspan
             x="0 7.9991999"
             y="0"
             sodipodi:role="line"
             id="tspan278">14</tspan></text></g><path
         d="m 618.5,157.5 h 56 v -38 h -56 z"
         style="fill:#9dc3e6;fill-opacity:1;fill-rule:nonzero;stroke:none"
         id="path282" /><g
         id="g284"
         transform="matrix(7.874016e-5,0,0,-7.874016e-5,618.5,157.5)"><path
           d="M 0,0 H 711200 V 482600 H 0 Z"
           style="fill:none;stroke:#000000;stroke-width:12700;stroke-linecap:butt;stroke-linejoin:miter;stroke-miterlimit:8;stroke-dasharray:none;stroke-opacity:1"
           id="path286" /></g><g
         id="g288"
         transform="translate(637.529,-230)"><text
           transform="matrix(1,0,0,-1,0,364)"
           style="font-variant:normal;font-weight:normal;font-size:18px;font-family:STSongti-SC;-inkscape-font-specification:STSongti-SC-Regular;writing-mode:lr-tb;fill:#000000;fill-opacity:1;fill-rule:nonzero;stroke:none"
           id="text292"><tspan
             x="0 7.9991999"
             y="0"
             sodipodi:role="line"
             id="tspan290">21</tspan></text></g><path
         d="m 697.5,179.333 c 0,8.3765 6.7905,15.167 15.167,15.167 h 154.666 c 8.3765,0 15.167,-6.7905 15.167,-15.167 v -60.666 c 0,-8.3765 -6.7905,-15.167 -15.167,-15.167 H 712.667 c -8.3765,0 -15.167,6.7905 -15.167,15.167 z"
         style="fill:#e7e6e6;fill-opacity:1;fill-rule:nonzero;stroke:none"
         id="path294" /><g
         id="g296"
         transform="matrix(7.874016e-5,0,0,-7.874016e-5,697.5,194.5)"><path
           d="M 0,192621.4 C 0,86239.53 86239.35,0 192621,0 h 1964258 c 106382,0 192621,86239.53 192621,192621.4 v 770457.2 c 0,106382.4 -86239,192621.4 -192621,192621.4 H 192621 C 86239.35,1155700 0,1069461 0,963078.6 Z"
           style="fill:none;stroke:#000000;stroke-width:12700;stroke-linecap:butt;stroke-linejoin:miter;stroke-miterlimit:8;stroke-dasharray:50800, 38100;stroke-dashoffset:0;stroke-opacity:1"
           id="path298" /></g><path
         d="m 705.5,157.5 h 55 v -38 h -55 z"
         style="fill:#9dc3e6;fill-opacity:1;fill-rule:nonzero;stroke:none"
         id="path300" /><g
         id="g302"
         transform="matrix(7.874016e-5,0,0,-7.874016e-5,705.5,157.5)"><path
           d="M 0,0 H 698500 V 482600 H 0 Z"
           style="fill:none;stroke:#000000;stroke-width:12700;stroke-linecap:butt;stroke-linejoin:miter;stroke-miterlimit:8;stroke-dasharray:none;stroke-opacity:1"
           id="path304" /></g><g
         id="g306"
         transform="translate(728.1074,-230)"><text
           transform="matrix(1,0,0,-1,0,364)"
           style="font-variant:normal;font-weight:normal;font-size:18px;font-family:STSongti-SC;-inkscape-font-specification:STSongti-SC-Regular;writing-mode:lr-tb;fill:#000000;fill-opacity:1;fill-rule:nonzero;stroke:none"
           id="text310"><tspan
             x="0"
             y="0"
             id="tspan308">7</tspan></text></g><g
         id="g312"
         transform="translate(706.9661,-192)"><text
           transform="matrix(1,0,0,-1,0,364)"
           style="font-variant:normal;font-weight:normal;font-size:18px;font-family:STSongti-SC;-inkscape-font-specification:STSongti-SC-Regular;writing-mode:lr-tb;fill:#000000;fill-opacity:1;fill-rule:nonzero;stroke:none"
           id="text316"><tspan
             x="0 18"
             y="0"
             sodipodi:role="line"
             id="tspan314">设备</tspan></text></g><g
         id="g318"
         transform="translate(747.9661,-192)"><text
           transform="matrix(1,0,0,-1,0,364)"
           style="font-variant:normal;font-weight:normal;font-size:18px;font-family:STSongti-SC;-inkscape-font-specification:STSongti-SC-Regular;writing-mode:lr-tb;fill:#000000;fill-opacity:1;fill-rule:nonzero;stroke:none"
           id="text322"><tspan
             x="0"
             y="0"
             id="tspan320">3</tspan></text></g><path
         d="m 762.5,157.5 h 55 v -38 h -55 z"
         style="fill:#9dc3e6;fill-opacity:1;fill-rule:nonzero;stroke:none"
         id="path324" /><g
         id="g326"
         transform="matrix(7.874016e-5,0,0,-7.874016e-5,762.5,157.5)"><path
           d="M 0,0 H 698500 V 482600 H 0 Z"
           style="fill:none;stroke:#000000;stroke-width:12700;stroke-linecap:butt;stroke-linejoin:miter;stroke-miterlimit:8;stroke-dasharray:none;stroke-opacity:1"
           id="path328" /></g><g
         id="g330"
         transform="translate(780.8671,-230)"><text
           transform="matrix(1,0,0,-1,0,364)"
           style="font-variant:normal;font-weight:normal;font-size:18px;font-family:STSongti-SC;-inkscape-font-specification:STSongti-SC-Regular;writing-mode:lr-tb;fill:#000000;fill-opacity:1;fill-rule:nonzero;stroke:none"
           id="text334"><tspan
             x="0 7.9991999"
             y="0"
             sodipodi:role="line"
             id="tspan332">14</tspan></text></g><path
         d="m 818.5,157.5 h 56 v -38 h -56 z"
         style="fill:#9dc3e6;fill-opacity:1;fill-rule:nonzero;stroke:none"
         id="path336" /><g
         id="g338"
         transform="matrix(7.874016e-5,0,0,-7.874016e-5,818.5,157.5)"><path
           d="M 0,0 H 711200 V 482600 H 0 Z"
           style="fill:none;stroke:#000000;stroke-width:12700;stroke-linecap:butt;stroke-linejoin:miter;stroke-miterlimit:8;stroke-dasharray:none;stroke-opacity:1"
           id="path340" /></g><g
         id="g342"
         transform="translate(837.6268,-230)"><text
           transform="matrix(1,0,0,-1,0,364)"
           style="font-variant:normal;font-weight:normal;font-size:18px;font-family:STSongti-SC;-inkscape-font-specification:STSongti-SC-Regular;writing-mode:lr-tb;fill:#000000;fill-opacity:1;fill-rule:nonzero;stroke:none"
           id="text346"><tspan
             x="0 7.9991999"
             y="0"
             sodipodi:role="line"
             id="tspan344">21</tspan></text></g><path
         d="M 412.5,237.75 H 445 V 250.5 L 470.5,225 445,199.5 v 12.75 h -32.5 z"
         style="fill:#deebf7;fill-opacity:1;fill-rule:nonzero;stroke:none"
         id="path348" /><g
         id="g350"
         transform="matrix(7.874016e-5,0,0,-7.874016e-5,412.5,250.5)"><path
           d="M 0,161924.8 H 412750.6 V 0 L 736600,323850.4 412750.6,647700 V 485775.2 H 0 Z"
           style="fill:none;stroke:#2f528f;stroke-width:12700;stroke-linecap:butt;stroke-linejoin:miter;stroke-miterlimit:8;stroke-dasharray:none;stroke-opacity:1"
           id="path352" /></g><g
         id="g354"
         transform="translate(155.3719,-25)"><text
           transform="matrix(1,0,0,-1,0,364)"
           style="font-variant:normal;font-weight:bold;font-size:20px;font-family:STSongti-SC;-inkscape-font-specification:STSongti-SC-Bold;writing-mode:lr-tb;fill:#000000;fill-opacity:1;fill-rule:nonzero;stroke:none"
           id="text358"><tspan
             x="0 20 40 60"
             y="0"
             sodipodi:role="line"
             id="tspan356">初始状态</tspan></text></g><g
         id="g360"
         transform="translate(649.0545,-24)"><text
           transform="matrix(1,0,0,-1,0,364)"
           style="font-variant:normal;font-weight:bold;font-size:20px;font-family:STSongti-SC;-inkscape-font-specification:STSongti-SC-Bold;writing-mode:lr-tb;fill:#000000;fill-opacity:1;fill-rule:nonzero;stroke:none"
           id="text364"><tspan
             x="0 20 40 60"
             y="0"
             sodipodi:role="line"
             id="tspan362">最终状态</tspan></text></g><g
         id="g366"
         transform="translate(507.0483,-290)"><text
           transform="matrix(1,0,0,-1,0,364)"
           style="font-variant:normal;font-weight:normal;font-size:18px;font-family:STSongti-SC;-inkscape-font-specification:STSongti-SC-Regular;writing-mode:lr-tb;fill:#000000;fill-opacity:1;fill-rule:nonzero;stroke:none"
           id="text370"><tspan
             x="0 7.9991999 12.9924 24.9876 29.980801 37.98 42.973202 54.968399 58.9716 66.970802 71.963997 83.959198 88.9524 96.951599"
             y="0"
             sodipodi:role="line"
             id="tspan368">7 = 1 + 2 + 4 </tspan></text></g><g
         id="g372"
         transform="translate(609.0483,-290)"><text
           transform="matrix(1,0,0,-1,0,364)"
           style="font-variant:normal;font-weight:normal;font-size:18px;font-family:STSongti-SC;-inkscape-font-specification:STSongti-SC-Regular;writing-mode:lr-tb;fill:#000000;fill-opacity:1;fill-rule:nonzero;stroke:none"
           id="text376"><tspan
             x="0"
             y="0"
             id="tspan374">(</tspan></text></g><g
         id="g378"
         transform="translate(614.0483,-290)"><text
           transform="matrix(1,0,0,-1,0,364)"
           style="font-variant:normal;font-weight:normal;font-size:18px;font-family:STSongti-SC;-inkscape-font-specification:STSongti-SC-Regular;writing-mode:lr-tb;fill:#000000;fill-opacity:1;fill-rule:nonzero;stroke:none"
           id="text382"><tspan
             x="0 18"
             y="0"
             sodipodi:role="line"
             id="tspan380">分区</tspan></text></g><g
         id="g384"
         transform="translate(650.0483,-290)"><text
           transform="matrix(1,0,0,-1,0,364)"
           style="font-variant:normal;font-weight:normal;font-size:18px;font-family:STSongti-SC;-inkscape-font-specification:STSongti-SC-Regular;writing-mode:lr-tb;fill:#000000;fill-opacity:1;fill-rule:nonzero;stroke:none"
           id="text388"><tspan
             x="0"
             y="0"
             id="tspan386">1</tspan></text></g><g
         id="g390"
         transform="translate(658.0483,-290)"><text
           transform="matrix(1,0,0,-1,0,364)"
           style="font-variant:normal;font-weight:normal;font-size:18px;font-family:STSongti-SC;-inkscape-font-specification:STSongti-SC-Regular;writing-mode:lr-tb;fill:#000000;fill-opacity:1;fill-rule:nonzero;stroke:none"
           id="text394"><tspan
             x="0 18 36 54"
             y="0"
             sodipodi:role="line"
             id="tspan392">计算过程</tspan></text></g><g
         id="g396"
         transform="translate(730.0483,-290)"><text
           transform="matrix(1,0,0,-1,0,364)"
           style="font-variant:normal;font-weight:normal;font-size:18px;font-family:STSongti-SC;-inkscape-font-specification:STSongti-SC-Regular;writing-mode:lr-tb;fill:#000000;fill-opacity:1;fill-rule:nonzero;stroke:none"
           id="text400"><tspan
             x="0"
             y="0"
             id="tspan398">)</tspan></text></g><g
         id="g402"
         transform="translate(507.0483,-319)"><text
           transform="matrix(1,0,0,-1,0,364)"
           style="font-variant:normal;font-weight:normal;font-size:18px;font-family:STSongti-SC;-inkscape-font-specification:STSongti-SC-Regular;writing-mode:lr-tb;fill:#000000;fill-opacity:1;fill-rule:nonzero;stroke:none"
           id="text406"><tspan
             x="0 7.9991999 15.9984 21.999599 33.994801 37.998001 45.9972 50.990398 62.9856 67.978798 75.977997 80.971199 92.9664 96.969597 104.9688"
             y="0"
             sodipodi:role="line"
             id="tspan404">14 = 2 + 4 + 8 </tspan></text></g><g
         id="g408"
         transform="translate(617.0483,-319)"><text
           transform="matrix(1,0,0,-1,0,364)"
           style="font-variant:normal;font-weight:normal;font-size:18px;font-family:STSongti-SC;-inkscape-font-specification:STSongti-SC-Regular;writing-mode:lr-tb;fill:#000000;fill-opacity:1;fill-rule:nonzero;stroke:none"
           id="text412"><tspan
             x="0"
             y="0"
             id="tspan410">(</tspan></text></g><g
         id="g414"
         transform="translate(622.0483,-319)"><text
           transform="matrix(1,0,0,-1,0,364)"
           style="font-variant:normal;font-weight:normal;font-size:18px;font-family:STSongti-SC;-inkscape-font-specification:STSongti-SC-Regular;writing-mode:lr-tb;fill:#000000;fill-opacity:1;fill-rule:nonzero;stroke:none"
           id="text418"><tspan
             x="0 18"
             y="0"
             sodipodi:role="line"
             id="tspan416">分区</tspan></text></g><g
         id="g420"
         transform="translate(658.0483,-319)"><text
           transform="matrix(1,0,0,-1,0,364)"
           style="font-variant:normal;font-weight:normal;font-size:18px;font-family:STSongti-SC;-inkscape-font-specification:STSongti-SC-Regular;writing-mode:lr-tb;fill:#000000;fill-opacity:1;fill-rule:nonzero;stroke:none"
           id="text424"><tspan
             x="0"
             y="0"
             id="tspan422">2</tspan></text></g><g
         id="g426"
         transform="translate(666.0483,-319)"><text
           transform="matrix(1,0,0,-1,0,364)"
           style="font-variant:normal;font-weight:normal;font-size:18px;font-family:STSongti-SC;-inkscape-font-specification:STSongti-SC-Regular;writing-mode:lr-tb;fill:#000000;fill-opacity:1;fill-rule:nonzero;stroke:none"
           id="text430"><tspan
             x="0 18 36 54"
             y="0"
             sodipodi:role="line"
             id="tspan428">计算过程</tspan></text></g><g
         id="g432"
         transform="translate(738.0483,-319)"><text
           transform="matrix(1,0,0,-1,0,364)"
           style="font-variant:normal;font-weight:normal;font-size:18px;font-family:STSongti-SC;-inkscape-font-specification:STSongti-SC-Regular;writing-mode:lr-tb;fill:#000000;fill-opacity:1;fill-rule:nonzero;stroke:none"
           id="text436"><tspan
             x="0"
             y="0"
             id="tspan434">)</tspan></text></g><g
         id="g438"
         transform="translate(506.679,-347)"><text
           transform="matrix(1,0,0,-1,0,364)"
           style="font-variant:normal;font-weight:normal;font-size:18px;font-family:STSongti-SC;-inkscape-font-specification:STSongti-SC-Regular;writing-mode:lr-tb;fill:#000000;fill-opacity:1;fill-rule:nonzero;stroke:none"
           id="text442"><tspan
             x="0 7.9991999 15.9984 21.999599 33.994801 37.998001 45.9972 50.990398 62.9856 67.978798 75.977997 80.971199 92.9664 96.969597 104.9688 112.968"
             y="0"
             sodipodi:role="line"
             id="tspan440">21 = 3 + 6 + 12 </tspan></text></g><g
         id="g444"
         transform="translate(625.679,-347)"><text
           transform="matrix(1,0,0,-1,0,364)"
           style="font-variant:normal;font-weight:normal;font-size:18px;font-family:STSongti-SC;-inkscape-font-specification:STSongti-SC-Regular;writing-mode:lr-tb;fill:#000000;fill-opacity:1;fill-rule:nonzero;stroke:none"
           id="text448"><tspan
             x="0"
             y="0"
             id="tspan446">(</tspan></text></g><g
         id="g450"
         transform="translate(630.679,-347)"><text
           transform="matrix(1,0,0,-1,0,364)"
           style="font-variant:normal;font-weight:normal;font-size:18px;font-family:STSongti-SC;-inkscape-font-specification:STSongti-SC-Regular;writing-mode:lr-tb;fill:#000000;fill-opacity:1;fill-rule:nonzero;stroke:none"
           id="text454"><tspan
             x="0 18"
             y="0"
             sodipodi:role="line"
             id="tspan452">分区</tspan></text></g><g
         id="g456"
         transform="translate(666.679,-347)"><text
           transform="matrix(1,0,0,-1,0,364)"
           style="font-variant:normal;font-weight:normal;font-size:18px;font-family:STSongti-SC;-inkscape-font-specification:STSongti-SC-Regular;writing-mode:lr-tb;fill:#000000;fill-opacity:1;fill-rule:nonzero;stroke:none"
           id="text460"><tspan
             x="0"
             y="0"
             id="tspan458">3</tspan></text></g><g
         id="g462"
         transform="translate(674.679,-347)"><text
           transform="matrix(1,0,0,-1,0,364)"
           style="font-variant:normal;font-weight:normal;font-size:18px;font-family:STSongti-SC;-inkscape-font-specification:STSongti-SC-Regular;writing-mode:lr-tb;fill:#000000;fill-opacity:1;fill-rule:nonzero;stroke:none"
           id="text466"><tspan
             x="0 18 36 54"
             y="0"
             sodipodi:role="line"
             id="tspan464">计算过程</tspan></text></g><g
         id="g468"
         transform="translate(746.679,-347)"><text
           transform="matrix(1,0,0,-1,0,364)"
           style="font-variant:normal;font-weight:normal;font-size:18px;font-family:STSongti-SC;-inkscape-font-specification:STSongti-SC-Regular;writing-mode:lr-tb;fill:#000000;fill-opacity:1;fill-rule:nonzero;stroke:none"
           id="text472"><tspan
             x="0"
             y="0"
             id="tspan470">)</tspan></text></g><g
         id="g474"
         transform="translate(405.2823,-100)"><text
           transform="matrix(1,0,0,-1,0,364)"
           style="font-variant:normal;font-weight:normal;font-size:18px;font-family:STSongti-SC;-inkscape-font-specification:STSongti-SC-Regular;writing-mode:lr-tb;fill:#000000;fill-opacity:1;fill-rule:nonzero;stroke:none"
           id="text478"><tspan
             x="0 12.0006 16.999201 21.997801 28.9944 36.999001 45.993599 54.988201 61.984798"
             y="0"
             sodipodi:role="line"
             id="tspan476">Allreduce</tspan></text></g><g
         id="g480"
         transform="translate(12.3878,-284)"><text
           transform="matrix(1,0,0,-1,0,364)"
           style="font-variant:normal;font-weight:normal;font-size:18px;font-family:STSongti-SC;-inkscape-font-specification:STSongti-SC-Regular;writing-mode:lr-tb;fill:#000000;fill-opacity:1;fill-rule:nonzero;stroke:none"
           id="text484"><tspan
             x="0 18"
             y="0"
             sodipodi:role="line"
             id="tspan482">分区</tspan></text></g><g
         id="g486"
         transform="translate(48.38779,-284)"><text
           transform="matrix(1,0,0,-1,0,364)"
           style="font-variant:normal;font-weight:normal;font-size:18px;font-family:STSongti-SC;-inkscape-font-specification:STSongti-SC-Regular;writing-mode:lr-tb;fill:#000000;fill-opacity:1;fill-rule:nonzero;stroke:none"
           id="text490"><tspan
             x="0"
             y="0"
             id="tspan488">1</tspan></text></g><g
         id="g492"
         transform="translate(67.5878,-284)"><text
           transform="matrix(1,0,0,-1,0,364)"
           style="font-variant:normal;font-weight:normal;font-size:18px;font-family:STSongti-SC;-inkscape-font-specification:STSongti-SC-Regular;writing-mode:lr-tb;fill:#000000;fill-opacity:1;fill-rule:nonzero;stroke:none"
           id="text496"><tspan
             x="0 18"
             y="0"
             sodipodi:role="line"
             id="tspan494">分区</tspan></text></g><g
         id="g498"
         transform="translate(103.5878,-284)"><text
           transform="matrix(1,0,0,-1,0,364)"
           style="font-variant:normal;font-weight:normal;font-size:18px;font-family:STSongti-SC;-inkscape-font-specification:STSongti-SC-Regular;writing-mode:lr-tb;fill:#000000;fill-opacity:1;fill-rule:nonzero;stroke:none"
           id="text502"><tspan
             x="0"
             y="0"
             id="tspan500">2</tspan></text></g><g
         id="g504"
         transform="translate(127.5878,-284)"><text
           transform="matrix(1,0,0,-1,0,364)"
           style="font-variant:normal;font-weight:normal;font-size:18px;font-family:STSongti-SC;-inkscape-font-specification:STSongti-SC-Regular;writing-mode:lr-tb;fill:#000000;fill-opacity:1;fill-rule:nonzero;stroke:none"
           id="text508"><tspan
             x="0 18"
             y="0"
             sodipodi:role="line"
             id="tspan506">分区</tspan></text></g><g
         id="g510"
         transform="translate(163.5878,-284)"><text
           transform="matrix(1,0,0,-1,0,364)"
           style="font-variant:normal;font-weight:normal;font-size:18px;font-family:STSongti-SC;-inkscape-font-specification:STSongti-SC-Regular;writing-mode:lr-tb;fill:#000000;fill-opacity:1;fill-rule:nonzero;stroke:none"
           id="text514"><tspan
             x="0"
             y="0"
             id="tspan512">3</tspan></text></g></g></g></svg>
