<?xml version="1.0" encoding="UTF-8" standalone="no"?>
<!-- Created with Inkscape (http://www.inkscape.org/) -->

<svg
   version="1.1"
   id="svg2"
   xml:space="preserve"
   width="1169.1067"
   height="485.94922"
   viewBox="0 0 1169.1067 485.94922"
   sodipodi:docname="ch10-recommendation-model.svg"
   inkscape:version="1.1.1 (3bf5ae0d25, 2021-09-20)"
   xmlns:inkscape="http://www.inkscape.org/namespaces/inkscape"
   xmlns:sodipodi="http://sodipodi.sourceforge.net/DTD/sodipodi-0.dtd"
   xmlns="http://www.w3.org/2000/svg"
   xmlns:svg="http://www.w3.org/2000/svg"><defs
     id="defs6"><clipPath
       clipPathUnits="userSpaceOnUse"
       id="clipPath18"><path
         d="M 0,0 H 903 V 387 H 0 Z"
         id="path16" /></clipPath></defs><sodipodi:namedview
     id="namedview4"
     pagecolor="#ffffff"
     bordercolor="#666666"
     borderopacity="1.0"
     inkscape:pageshadow="2"
     inkscape:pageopacity="0.0"
     inkscape:pagecheckerboard="0"
     showgrid="false"
     fit-margin-top="0"
     fit-margin-left="0"
     fit-margin-right="0"
     fit-margin-bottom="0"
     inkscape:zoom="0.79109039"
     inkscape:cx="530.28074"
     inkscape:cy="251.55153"
     inkscape:window-width="1920"
     inkscape:window-height="1137"
     inkscape:window-x="1912"
     inkscape:window-y="-8"
     inkscape:window-maximized="1"
     inkscape:current-layer="g8" /><g
     id="g8"
     inkscape:groupmode="layer"
     inkscape:label="ch10-recommendation-model"
     transform="matrix(1.3333333,0,0,-1.3333333,-17.714845,501.17967)"><g
       id="g10" /><g
       id="g22"><path
         d="m 423.5,348.5 h 230 v -17 h -230 z"
         style="fill:#fbe5d6;fill-opacity:1;fill-rule:nonzero;stroke:none"
         id="path24" /><g
         id="g26"
         transform="matrix(7.874016e-5,0,0,-7.874016e-5,423.5,348.5)"><path
           d="M 0,0 H 2921000 V 215900 H 0 Z"
           style="fill:none;stroke:#2f528f;stroke-width:12700;stroke-linecap:butt;stroke-linejoin:miter;stroke-miterlimit:8;stroke-dasharray:none;stroke-opacity:1"
           id="path28" /></g><g
         id="g30"
         transform="translate(654.1775,-47)"><text
           transform="matrix(1,0,0,-1,0,387)"
           style="font-variant:normal;font-weight:normal;font-size:16px;font-family:Arial;-inkscape-font-specification:ArialMT;writing-mode:lr-tb;fill:#000000;fill-opacity:1;fill-rule:nonzero;stroke:none"
           id="text34"><tspan
             x="0 12 16 24 28 37 42 50 54 63 67 72 76 85 89 98 103 112 120 124 128 137 146 154"
             y="0"
             sodipodi:role="line"
             id="tspan32">History of Interactions </tspan></text></g><g
         id="g36"
         transform="translate(671.1775,-66)"><text
           transform="matrix(1,0,0,-1,0,387)"
           style="font-variant:normal;font-weight:normal;font-size:16px;font-family:Arial;-inkscape-font-specification:ArialMT;writing-mode:lr-tb;fill:#000000;fill-opacity:1;fill-rule:nonzero;stroke:none"
           id="text40"><tspan
             x="0 4 9.0080004 21.007999 30.016001 39.023998 48.032001 52.032001 61.040001 70.047997 74.047997 83.056 86.047997 90.047997 94.047997 103.056 116.064"
             y="0"
             sodipodi:role="line"
             id="tspan38">/ Candidate Items</tspan></text></g><path
         d="m 544,327.5 10e-5,-13.022 -3.0001,-1e-4 V 327.5 Z m 3,-11.522 -4.4999,-9 -4.5001,8.9999 z"
         style="fill:#4472c4;fill-opacity:1;fill-rule:nonzero;stroke:none"
         id="path42" /><path
         d="m 354.5,283.1662 c 0,13.9915 11.3423,25.3338 25.3338,25.3338 h 133.3324 c 13.9915,0 25.3338,-11.3423 25.3338,-25.3338 V 181.8338 C 538.5,167.8423 527.1577,156.5 513.1662,156.5 H 379.8338 c -13.9915,0 -25.3338,11.3423 -25.3338,25.3338 z"
         style="fill:#f8cbad;fill-opacity:1;fill-rule:nonzero;stroke:none"
         id="path44" /><g
         id="g46"
         transform="matrix(7.874016e-5,0,0,-7.874016e-5,354.5,308.5)"><path
           d="M 0,321739.7 C 0,144047.8 144047.6,0 321739.3,0 H 2015061 c 177691,0 321739,144047.8 321739,321739.7 V 1608660 c 0,177692 -144048,321740 -321739,321740 H 321739.3 C 144047.6,1930400 0,1786352 0,1608660 Z"
           style="fill:none;stroke:#2f528f;stroke-width:12700;stroke-linecap:butt;stroke-linejoin:miter;stroke-miterlimit:8;stroke-dasharray:none;stroke-opacity:1"
           id="path48" /></g><g
         id="g50"
         transform="translate(403.2841,-150)"><text
           transform="matrix(1,0,0,-1,0,387)"
           style="font-variant:normal;font-weight:normal;font-size:16px;font-family:Calibri;-inkscape-font-specification:Calibri;writing-mode:lr-tb;fill:#000000;fill-opacity:1;fill-rule:nonzero;stroke:none"
           id="text54"><tspan
             x="0 8 16 24 32 46 50 57.007999 60 68 76"
             y="0"
             sodipodi:role="line"
             id="tspan52">1000M x 100</tspan></text></g><g
         id="g56"
         transform="translate(392.2841,-169)"><text
           transform="matrix(1,0,0,-1,0,387)"
           style="font-variant:normal;font-weight:normal;font-size:16px;font-family:Calibri;-inkscape-font-specification:Calibri;writing-mode:lr-tb;fill:#000000;fill-opacity:1;fill-rule:nonzero;stroke:none"
           id="text60"><tspan
             x="0 10 16 24 30 34 42 55.007999 63.007999 71.008003 79.008003 87.008003 91.008003 99.008003"
             y="0"
             sodipodi:role="line"
             id="tspan58">User Embedding</tspan></text></g><path
         d="m 555.5,302.1665 c 0,4.0502 3.2833,7.3335 7.3335,7.3335 h 157.333 c 4.0502,0 7.3335,-3.2833 7.3335,-7.3335 v -29.333 c 0,-4.0502 -3.2833,-7.3335 -7.3335,-7.3335 h -157.333 c -4.0502,0 -7.3335,3.2833 -7.3335,7.3335 z"
         style="fill:#f8cbad;fill-opacity:1;fill-rule:nonzero;stroke:none"
         id="path62" /><g
         id="g64"
         transform="matrix(7.874016e-5,0,0,-7.874016e-5,555.5,309.5)"><path
           d="M 0,93135.72 C 0,41698.28 41698.23,0 93135.61,0 H 2091264 c 51438,0 93136,41698.28 93136,93135.72 V 465664.3 c 0,51437.4 -41698,93135.7 -93136,93135.7 H 93135.61 C 41698.23,558800 0,517101.7 0,465664.3 Z"
           style="fill:none;stroke:#2f528f;stroke-width:12700;stroke-linecap:butt;stroke-linejoin:miter;stroke-miterlimit:8;stroke-dasharray:none;stroke-opacity:1"
           id="path66" /></g><g
         id="g68"
         transform="translate(606.428,-95)"><text
           transform="matrix(1,0,0,-1,0,387)"
           style="font-variant:normal;font-weight:normal;font-size:16px;font-family:Calibri;-inkscape-font-specification:Calibri;writing-mode:lr-tb;fill:#000000;fill-opacity:1;fill-rule:nonzero;stroke:none"
           id="text72"><tspan
             x="0 8 16 30 34 41.007999 44 52 60"
             y="0"
             sodipodi:role="line"
             id="tspan70">10M x 100</tspan></text></g><g
         id="g74"
         transform="translate(587.428,-114)"><text
           transform="matrix(1,0,0,-1,0,387)"
           style="font-variant:normal;font-weight:normal;font-size:16px;font-family:Calibri;-inkscape-font-specification:Calibri;writing-mode:lr-tb;fill:#000000;fill-opacity:1;fill-rule:nonzero;stroke:none"
           id="text78"><tspan
             x="0 4 8.9919996 16.992001 30 34 42 55.007999 63.007999 71.008003 79.008003 87.008003 91.008003 99.008003"
             y="0"
             sodipodi:role="line"
             id="tspan76">Item Embedding</tspan></text></g><path
         d="m 555.5,249.1665 c 0,4.0502 3.2833,7.3335 7.3335,7.3335 h 157.333 c 4.0502,0 7.3335,-3.2833 7.3335,-7.3335 v -29.333 c 0,-4.0502 -3.2833,-7.3335 -7.3335,-7.3335 h -157.333 c -4.0502,0 -7.3335,3.2833 -7.3335,7.3335 z"
         style="fill:#f8cbad;fill-opacity:1;fill-rule:nonzero;stroke:none"
         id="path80" /><g
         id="g82"
         transform="matrix(7.874016e-5,0,0,-7.874016e-5,555.5,256.5)"><path
           d="M 0,93135.72 C 0,41698.28 41698.23,0 93135.61,0 H 2091264 c 51438,0 93136,41698.28 93136,93135.72 V 465664.3 c 0,51437.4 -41698,93135.7 -93136,93135.7 H 93135.61 C 41698.23,558800 0,517101.7 0,465664.3 Z"
           style="fill:none;stroke:#2f528f;stroke-width:12700;stroke-linecap:butt;stroke-linejoin:miter;stroke-miterlimit:8;stroke-dasharray:none;stroke-opacity:1"
           id="path84" /></g><g
         id="g86"
         transform="translate(598.4281,-148)"><text
           transform="matrix(1,0,0,-1,0,387)"
           style="font-variant:normal;font-weight:normal;font-size:16px;font-family:Calibri;-inkscape-font-specification:Calibri;writing-mode:lr-tb;fill:#000000;fill-opacity:1;fill-rule:nonzero;stroke:none"
           id="text90"><tspan
             x="0 10 16 24 30 34 43.007999 51.007999 59.007999 64 72 79.008003 84"
             y="0"
             sodipodi:role="line"
             id="tspan88">User Context </tspan></text></g><g
         id="g92"
         transform="translate(604.4281,-167)"><text
           transform="matrix(1,0,0,-1,0,387)"
           style="font-variant:normal;font-weight:normal;font-size:16px;font-family:Calibri;-inkscape-font-specification:Calibri;writing-mode:lr-tb;fill:#000000;fill-opacity:1;fill-rule:nonzero;stroke:none"
           id="text96"><tspan
             x="0 8 21.007999 29.007999 37.007999 45.007999 53.007999 57.007999 65.008003"
             y="0"
             sodipodi:role="line"
             id="tspan94">Embedding</tspan></text></g><path
         d="m 555.5,193.1665 c 0,4.0502 3.2833,7.3335 7.3335,7.3335 h 157.333 c 4.0502,0 7.3335,-3.2833 7.3335,-7.3335 v -29.333 c 0,-4.0502 -3.2833,-7.3335 -7.3335,-7.3335 h -157.333 c -4.0502,0 -7.3335,3.2833 -7.3335,7.3335 z"
         style="fill:#f8cbad;fill-opacity:1;fill-rule:nonzero;stroke:none"
         id="path98" /><g
         id="g100"
         transform="matrix(7.874016e-5,0,0,-7.874016e-5,555.5,200.5)"><path
           d="M 0,93135.72 C 0,41698.28 41698.23,0 93135.61,0 H 2091264 c 51438,0 93136,41698.28 93136,93135.72 V 465664.3 c 0,51437.4 -41698,93135.7 -93136,93135.7 H 93135.61 C 41698.23,558800 0,517101.7 0,465664.3 Z"
           style="fill:none;stroke:#2f528f;stroke-width:12700;stroke-linecap:butt;stroke-linejoin:miter;stroke-miterlimit:8;stroke-dasharray:none;stroke-opacity:1"
           id="path102" /></g><g
         id="g104"
         transform="translate(598.4281,-203)"><text
           transform="matrix(1,0,0,-1,0,387)"
           style="font-variant:normal;font-weight:normal;font-size:16px;font-family:Calibri;-inkscape-font-specification:Calibri;writing-mode:lr-tb;fill:#000000;fill-opacity:1;fill-rule:nonzero;stroke:none"
           id="text108"><tspan
             x="0 4 8.9919996 16.992001 30 34 43.007999 51.007999 59.007999 64 72 79.008003 84"
             y="0"
             sodipodi:role="line"
             id="tspan106">Item Context </tspan></text></g><g
         id="g110"
         transform="translate(604.4281,-222)"><text
           transform="matrix(1,0,0,-1,0,387)"
           style="font-variant:normal;font-weight:normal;font-size:16px;font-family:Calibri;-inkscape-font-specification:Calibri;writing-mode:lr-tb;fill:#000000;fill-opacity:1;fill-rule:nonzero;stroke:none"
           id="text114"><tspan
             x="0 8 21.007999 29.007999 37.007999 45.007999 53.007999 57.007999 65.008003"
             y="0"
             sodipodi:role="line"
             id="tspan112">Embedding</tspan></text></g><path
         d="m 361.5,138.1665 c 0,4.6025 3.731,8.3335 8.3334,8.3335 h 345.3332 c 4.6024,0 8.3334,-3.731 8.3334,-8.3335 v -33.333 C 723.5,100.231 719.769,96.5 715.1666,96.5 H 369.8334 c -4.6024,0 -8.3334,3.731 -8.3334,8.3335 z"
         style="fill:#e7e6e6;fill-opacity:1;fill-rule:nonzero;stroke:none"
         id="path116" /><g
         id="g118"
         transform="matrix(7.874016e-5,0,0,-7.874016e-5,361.5,146.5)"><path
           d="M 0,105835 C 0,47383.95 47383.82,0 105834.7,0 H 4491565 c 58451,0 105835,47383.95 105835,105835 v 423330 c 0,58451.1 -47384,105835 -105835,105835 H 105834.7 C 47383.82,635000 0,587616.1 0,529165 Z"
           style="fill:none;stroke:#2f528f;stroke-width:12700;stroke-linecap:butt;stroke-linejoin:miter;stroke-miterlimit:8;stroke-dasharray:none;stroke-opacity:1"
           id="path120" /></g><path
         d="m 392.5,139.5 h 300 v -11 h -300 z"
         style="fill:#ed7d31;fill-opacity:1;fill-rule:nonzero;stroke:none"
         id="path122" /><g
         id="g124"
         transform="matrix(7.874016e-5,0,0,-7.874016e-5,392.5,139.5)"><path
           d="M 0,0 H 3810000 V 139700 H 0 Z"
           style="fill:none;stroke:#2f528f;stroke-width:12700;stroke-linecap:butt;stroke-linejoin:miter;stroke-miterlimit:8;stroke-dasharray:none;stroke-opacity:1"
           id="path126" /></g><path
         d="m 424.5,118.5 h 239 v -11 h -239 z"
         style="fill:#ed7d31;fill-opacity:1;fill-rule:nonzero;stroke:none"
         id="path128" /><g
         id="g130"
         transform="matrix(7.874016e-5,0,0,-7.874016e-5,424.5,118.5)"><path
           d="M 0,0 H 3035300 V 139700 H 0 Z"
           style="fill:none;stroke:#2f528f;stroke-width:12700;stroke-linecap:butt;stroke-linejoin:miter;stroke-miterlimit:8;stroke-dasharray:none;stroke-opacity:1"
           id="path132" /></g><path
         d="m 463.5,78.5 h 157 v -15 h -157 z"
         style="fill:#fbe5d6;fill-opacity:1;fill-rule:nonzero;stroke:none"
         id="path134" /><g
         id="g136"
         transform="matrix(7.874016e-5,0,0,-7.874016e-5,463.5,78.5)"><path
           d="M 0,0 H 1993900 V 190500 H 0 Z"
           style="fill:none;stroke:#2f528f;stroke-width:12700;stroke-linecap:butt;stroke-linejoin:miter;stroke-miterlimit:8;stroke-dasharray:none;stroke-opacity:1"
           id="path138" /></g><path
         d="m 543.9996,99.53309 0.3528,-15.98875 -2.9992,-0.06618 -0.3528,15.98875 z m 3.319,-14.42294 -4.3003,-9.09708 -4.6975,8.89854 z"
         style="fill:#4472c4;fill-opacity:1;fill-rule:nonzero;stroke:none"
         id="path140" /><g
         id="g142"
         transform="translate(630.2726,-322)"><text
           transform="matrix(1,0,0,-1,0,387)"
           style="font-variant:normal;font-weight:normal;font-size:16px;font-family:Arial;-inkscape-font-specification:ArialMT;writing-mode:lr-tb;fill:#000000;fill-opacity:1;fill-rule:nonzero;stroke:none"
           id="text146"><tspan
             x="0 12 21 29 38 51 64 73 82 91 100 104 108 117 126 134 138 142 147 159 168 177"
             y="0"
             sodipodi:role="line"
             id="tspan144">Recommendations / Rank</tspan></text></g><g
         id="g148"
         transform="translate(741.0651,-156)"><text
           transform="matrix(1,0,0,-1,0,387)"
           style="font-variant:normal;font-weight:normal;font-size:18px;font-family:Arial;-inkscape-font-specification:ArialMT;writing-mode:lr-tb;fill:#000000;fill-opacity:1;fill-rule:nonzero;stroke:none"
           id="text152"><tspan
             x="0 10.0008 20.0016 30.002399 39.002399 44.0028 58.003201 70.003799"
             y="0"
             sodipodi:role="line"
             id="tspan150">100s GB </tspan></text></g><g
         id="g154"
         transform="translate(816.0651,-156)"><text
           transform="matrix(1,0,0,-1,0,387)"
           style="font-variant:normal;font-weight:normal;font-size:18px;font-family:Arial;-inkscape-font-specification:ArialMT;writing-mode:lr-tb;fill:#000000;fill-opacity:1;fill-rule:nonzero;stroke:none"
           id="text158"><tspan
             x="0"
             y="0"
             id="tspan156">–</tspan></text></g><g
         id="g160"
         transform="translate(831.0651,-156)"><text
           transform="matrix(1,0,0,-1,0,387)"
           style="font-variant:normal;font-weight:normal;font-size:18px;font-family:Arial;-inkscape-font-specification:ArialMT;writing-mode:lr-tb;fill:#000000;fill-opacity:1;fill-rule:nonzero;stroke:none"
           id="text164"><tspan
             x="0 10.0008 20.0016 29.0016 34.001999 45.001801"
             y="0"
             sodipodi:role="line"
             id="tspan162">10s TB</tspan></text></g><g
         id="g166"
         transform="translate(741.0651,-273)"><text
           transform="matrix(1,0,0,-1,0,387)"
           style="font-variant:normal;font-weight:normal;font-size:18px;font-family:Arial;-inkscape-font-specification:ArialMT;writing-mode:lr-tb;fill:#000000;fill-opacity:1;fill-rule:nonzero;stroke:none"
           id="text170"><tspan
             x="0 10.0008 20.0016 29.0016 34.001999 48.002399 60.002998"
             y="0"
             sodipodi:role="line"
             id="tspan168">10s GB </tspan></text></g><g
         id="g172"
         transform="translate(806.0651,-273)"><text
           transform="matrix(1,0,0,-1,0,387)"
           style="font-variant:normal;font-weight:normal;font-size:18px;font-family:Arial;-inkscape-font-specification:ArialMT;writing-mode:lr-tb;fill:#000000;fill-opacity:1;fill-rule:nonzero;stroke:none"
           id="text176"><tspan
             x="0"
             y="0"
             id="tspan174">–</tspan></text></g><g
         id="g178"
         transform="translate(821.0651,-273)"><text
           transform="matrix(1,0,0,-1,0,387)"
           style="font-variant:normal;font-weight:normal;font-size:18px;font-family:Arial;-inkscape-font-specification:ArialMT;writing-mode:lr-tb;fill:#000000;fill-opacity:1;fill-rule:nonzero;stroke:none"
           id="text182"><tspan
             x="0 10.0008 20.0016 30.002399 39.002399 44.0028 58.003201"
             y="0"
             sodipodi:role="line"
             id="tspan180">100s GB</tspan></text></g><g
         id="g184"
         transform="translate(447.3055,-351)"><text
           transform="matrix(1,0,0,-1,0,387)"
           style="font-variant:normal;font-weight:normal;font-size:18px;font-family:Arial;-inkscape-font-specification:ArialMT;writing-mode:lr-tb;fill:#000000;fill-opacity:1;fill-rule:nonzero;stroke:none"
           id="text188"><tspan
             x="0"
             y="0"
             id="tspan186">•</tspan></text></g><g
         id="g190"
         transform="translate(470.3055,-351)"><text
           transform="matrix(1,0,0,-1,0,387)"
           style="font-variant:normal;font-weight:normal;font-size:18px;font-family:Arial;-inkscape-font-specification:ArialMT;writing-mode:lr-tb;fill:#000000;fill-opacity:1;fill-rule:nonzero;stroke:none"
           id="text194"><tspan
             x="0 10.9998 16.999201 27 41.999401 52.000198 62.000999 72.001801 82.002602 92.003403 101.0034 106.0038 121.0032 131.004 146.0034 156.0042 162.0036 171.0036 176.004 185.004 195.00481 204.00481"
             y="0"
             sodipodi:role="line"
             id="tspan192">Tremendous memory cost</tspan></text></g><g
         id="g196"
         transform="translate(447.3055,-372)"><text
           transform="matrix(1,0,0,-1,0,387)"
           style="font-variant:normal;font-weight:normal;font-size:18px;font-family:Arial;-inkscape-font-specification:ArialMT;writing-mode:lr-tb;fill:#000000;fill-opacity:1;fill-rule:nonzero;stroke:none"
           id="text200"><tspan
             x="0"
             y="0"
             id="tspan198">•</tspan></text></g><g
         id="g202"
         transform="translate(470.3055,-372)"><text
           transform="matrix(1,0,0,-1,0,387)"
           style="font-variant:normal;font-weight:normal;font-size:18px;font-family:Arial;-inkscape-font-specification:ArialMT;writing-mode:lr-tb;fill:#000000;fill-opacity:1;fill-rule:nonzero;stroke:none"
           id="text206"><tspan
             x="0 12.0006 27 37.000801 41.000401 45 50.000401 59.000401 69.001198 84.000603 94.001404 104.0022 109.0026 119.0034 124.0038 128.0034 138.0042 148.005 153.0054 162.0054 172.0062 181.0062"
             y="0"
             sodipodi:role="line"
             id="tspan204">Small computation cost</tspan></text></g><path
         d="m 78.5,344.5 h 84 v -33 h -84 z"
         style="fill:#e2f0d9;fill-opacity:1;fill-rule:nonzero;stroke:none"
         id="path208" /><g
         id="g210"
         transform="matrix(7.874016e-5,0,0,-7.874016e-5,78.5,344.5)"><path
           d="M 0,0 H 1066800 V 419100 H 0 Z"
           style="fill:none;stroke:#000000;stroke-width:12700;stroke-linecap:butt;stroke-linejoin:miter;stroke-miterlimit:8;stroke-dasharray:none;stroke-opacity:1"
           id="path212" /></g><g
         id="g214"
         transform="translate(99.07492,-64)"><text
           transform="matrix(1,0,0,-1,0,387)"
           style="font-variant:normal;font-weight:normal;font-size:16px;font-family:Calibri;-inkscape-font-specification:Calibri;writing-mode:lr-tb;fill:#000000;fill-opacity:1;fill-rule:nonzero;stroke:none"
           id="text218"><tspan
             x="0 4 17.007999 25.007999 33.007999"
             y="0"
             sodipodi:role="line"
             id="tspan216">Image</tspan></text></g><path
         d="M 21,260.166 C 21,277.1951 34.80485,291 51.83399,291 H 184.166 C 201.1952,291 215,277.1951 215,260.166 V 136.834 C 215,119.8049 201.1952,106 184.166,106 H 51.83399 C 34.80485,106 21,119.8049 21,136.834 Z"
         style="fill:#e7e6e6;fill-opacity:1;fill-rule:nonzero;stroke:none"
         id="path220" /><g
         id="g222"
         transform="translate(76.05567,-314)"><text
           transform="matrix(1,0,0,-1,0,387)"
           style="font-variant:normal;font-weight:normal;font-size:16px;font-family:Arial;-inkscape-font-specification:ArialMT;writing-mode:lr-tb;fill:#000000;fill-opacity:1;fill-rule:nonzero;stroke:none"
           id="text226"><tspan
             x="0 12 16 25 33 41 45 49 53 61 70 74 78 87"
             y="0"
             sodipodi:role="line"
             id="tspan224">Classification</tspan></text></g><path
         d="m 77.5,277.5 h 84 v -17 h -84 z"
         style="fill:#a9d18e;fill-opacity:1;fill-rule:nonzero;stroke:none"
         id="path228" /><g
         id="g230"
         transform="matrix(7.874016e-5,0,0,-7.874016e-5,77.5,277.5)"><path
           d="M 0,0 H 1066800 V 215900 H 0 Z"
           style="fill:none;stroke:#70ad47;stroke-width:12700;stroke-linecap:butt;stroke-linejoin:miter;stroke-miterlimit:8;stroke-dasharray:none;stroke-opacity:1"
           id="path232" /></g><path
         d="m 90.5,253.5 h 60 v -16 h -60 z"
         style="fill:#a9d18e;fill-opacity:1;fill-rule:nonzero;stroke:none"
         id="path234" /><g
         id="g236"
         transform="matrix(7.874016e-5,0,0,-7.874016e-5,90.5,253.5)"><path
           d="M 0,0 H 762000 V 203200 H 0 Z"
           style="fill:none;stroke:#70ad47;stroke-width:12700;stroke-linecap:butt;stroke-linejoin:miter;stroke-miterlimit:8;stroke-dasharray:none;stroke-opacity:1"
           id="path238" /></g><path
         d="m 36.5,157.5 h 165 v -17 h -165 z"
         style="fill:#a9d18e;fill-opacity:1;fill-rule:nonzero;stroke:none"
         id="path240" /><g
         id="g242"
         transform="matrix(7.874016e-5,0,0,-7.874016e-5,36.5,157.5)"><path
           d="M 0,0 H 2095500 V 215900 H 0 Z"
           style="fill:none;stroke:#70ad47;stroke-width:12700;stroke-linecap:butt;stroke-linejoin:miter;stroke-miterlimit:8;stroke-dasharray:none;stroke-opacity:1"
           id="path244" /></g><path
         d="m 90.5,230.5 h 60 v -17 h -60 z"
         style="fill:#a9d18e;fill-opacity:1;fill-rule:nonzero;stroke:none"
         id="path246" /><g
         id="g248"
         transform="matrix(7.874016e-5,0,0,-7.874016e-5,90.5,230.5)"><path
           d="M 0,0 H 762000 V 215900 H 0 Z"
           style="fill:none;stroke:#70ad47;stroke-width:12700;stroke-linecap:butt;stroke-linejoin:miter;stroke-miterlimit:8;stroke-dasharray:none;stroke-opacity:1"
           id="path250" /></g><path
         d="m 77.5,207.5 h 84 v -17 h -84 z"
         style="fill:#a9d18e;fill-opacity:1;fill-rule:nonzero;stroke:none"
         id="path252" /><g
         id="g254"
         transform="matrix(7.874016e-5,0,0,-7.874016e-5,77.5,207.5)"><path
           d="M 0,0 H 1066800 V 215900 H 0 Z"
           style="fill:none;stroke:#70ad47;stroke-width:12700;stroke-linecap:butt;stroke-linejoin:miter;stroke-miterlimit:8;stroke-dasharray:none;stroke-opacity:1"
           id="path256" /></g><path
         d="m 63.5,181.5 h 111 v -17 h -111 z"
         style="fill:#a9d18e;fill-opacity:1;fill-rule:nonzero;stroke:none"
         id="path258" /><g
         id="g260"
         transform="matrix(7.874016e-5,0,0,-7.874016e-5,63.5,181.5)"><path
           d="M 0,0 H 1409700 V 215900 H 0 Z"
           style="fill:none;stroke:#70ad47;stroke-width:12700;stroke-linecap:butt;stroke-linejoin:miter;stroke-miterlimit:8;stroke-dasharray:none;stroke-opacity:1"
           id="path262" /></g><path
         d="m 64.5,132.5 h 111 v -17 h -111 z"
         style="fill:#a9d18e;fill-opacity:1;fill-rule:nonzero;stroke:none"
         id="path264" /><g
         id="g266"
         transform="matrix(7.874016e-5,0,0,-7.874016e-5,64.5,132.5)"><path
           d="M 0,0 H 1409700 V 215900 H 0 Z"
           style="fill:none;stroke:#70ad47;stroke-width:12700;stroke-linecap:butt;stroke-linejoin:miter;stroke-miterlimit:8;stroke-dasharray:none;stroke-opacity:1"
           id="path268" /></g><path
         d="m 119.75,309 1e-4,-21.637 h -1.5 L 118.25,309 Z m 2.2501,-20.637 -3,-6 -3,6 z"
         style="fill:#000000;fill-opacity:1;fill-rule:nonzero;stroke:none"
         id="path270" /><path
         d="m 117.75,116 1e-4,-18.38685 h -1.5 L 116.25,116 Z m 2.2501,-17.38684 -3,-6.00001 -3,5.99999 z"
         style="fill:#000000;fill-opacity:1;fill-rule:nonzero;stroke:none"
         id="path272" /><g
         id="g274"
         transform="translate(20.75323,-349)"><text
           transform="matrix(1,0,0,-1,0,387)"
           style="font-variant:normal;font-weight:normal;font-size:18px;font-family:Arial;-inkscape-font-specification:ArialMT;writing-mode:lr-tb;fill:#000000;fill-opacity:1;fill-rule:nonzero;stroke:none"
           id="text278"><tspan
             x="0"
             y="0"
             id="tspan276">•</tspan></text></g><g
         id="g280"
         transform="translate(43.75323,-349)"><text
           transform="matrix(1,0,0,-1,0,387)"
           style="font-variant:normal;font-weight:normal;font-size:18px;font-family:Arial;-inkscape-font-specification:ArialMT;writing-mode:lr-tb;fill:#000000;fill-opacity:1;fill-rule:nonzero;stroke:none"
           id="text284"><tspan
             x="0 14.9994 25.0002 35.000999 45.001801 51.001202 61.001999 66.002403 76.003197 81.003601 96.002998 106.0038 121.0032 131.004 137.0034 146.0034 151.0038 160.0038 170.00459 179.00459"
             y="0"
             sodipodi:role="line"
             id="tspan282">Moderate memory cost</tspan></text></g><g
         id="g286"
         transform="translate(20.75323,-370)"><text
           transform="matrix(1,0,0,-1,0,387)"
           style="font-variant:normal;font-weight:normal;font-size:18px;font-family:Arial;-inkscape-font-specification:ArialMT;writing-mode:lr-tb;fill:#000000;fill-opacity:1;fill-rule:nonzero;stroke:none"
           id="text290"><tspan
             x="0"
             y="0"
             id="tspan288">•</tspan></text></g><g
         id="g292"
         transform="translate(43.75323,-370)"><text
           transform="matrix(1,0,0,-1,0,387)"
           style="font-variant:normal;font-weight:normal;font-size:18px;font-family:Arial;-inkscape-font-specification:ArialMT;writing-mode:lr-tb;fill:#000000;fill-opacity:1;fill-rule:nonzero;stroke:none"
           id="text296"><tspan
             x="0 10.0008 20.0016 26.000999 36.001801 46.002602 51.002998 60.002998 70.003799 85.003197 95.003998 105.0048 110.0052 120.006 125.0064 129.006 139.00681 149.0076 154.008 163.008 173.0088 182.0088"
             y="0"
             sodipodi:role="line"
             id="tspan294">Large computation cost</tspan></text></g><g
         id="g298"
         transform="translate(11.91504,-28)"><text
           transform="matrix(1,0,0,-1,0,387)"
           style="font-variant:normal;font-weight:normal;font-size:18px;font-family:Arial;-inkscape-font-specification:ArialMT;writing-mode:lr-tb;fill:#000000;fill-opacity:1;fill-rule:nonzero;stroke:none"
           id="text302"><tspan
             x="0 12.9996 23.000401 33.001202 39.000599 49.0014 53.000999 58.0014 68.002197 78.002998 83.003403 96.002998 106.0038 112.0032 121.0032 126.0036 131.004 137.0034 147.0042 151.0038 161.00459 165.0042 175.005 185.0058 190.0062 199.0062 208.0062 217.0062 222.00661 232.0074"
             y="0"
             sodipodi:role="line"
             id="tspan300">Neural network training system</tspan></text></g><g
         id="g304"
         transform="translate(449.7736,-24)"><text
           transform="matrix(1,0,0,-1,0,387)"
           style="font-variant:normal;font-weight:normal;font-size:18px;font-family:Arial;-inkscape-font-specification:ArialMT;writing-mode:lr-tb;fill:#000000;fill-opacity:1;fill-rule:nonzero;stroke:none"
           id="text308"><tspan
             x="0 12.9996 23.000401 32.000401 42.001202 57.000599 72 82.000801 92.001602 102.0024 112.0032 117.0036 121.0032 131.004 141.00481 146.0052 155.0052 164.0052 173.0052 178.0056 188.00639"
             y="0"
             sodipodi:role="line"
             id="tspan306">Recommendation system</tspan></text></g></g></g></svg>
