<?xml version="1.0" encoding="UTF-8" standalone="no"?>
<!-- Created with Inkscape (http://www.inkscape.org/) -->

<svg
   version="1.1"
   id="svg2"
   xml:space="preserve"
   width="1182.8666"
   height="113"
   viewBox="0 0 1182.8666 113"
   sodipodi:docname="ml_systems.svg"
   inkscape:version="1.1.1 (3bf5ae0d25, 2021-09-20)"
   xmlns:inkscape="http://www.inkscape.org/namespaces/inkscape"
   xmlns:sodipodi="http://sodipodi.sourceforge.net/DTD/sodipodi-0.dtd"
   xmlns="http://www.w3.org/2000/svg"
   xmlns:svg="http://www.w3.org/2000/svg"><defs
     id="defs6"><clipPath
       clipPathUnits="userSpaceOnUse"
       id="clipPath18"><path
         d="M 0,0 H 960 V 540 H 0 Z"
         clip-rule="evenodd"
         id="path16" /></clipPath></defs><sodipodi:namedview
     id="namedview4"
     pagecolor="#ffffff"
     bordercolor="#666666"
     borderopacity="1.0"
     inkscape:pageshadow="2"
     inkscape:pageopacity="0.0"
     inkscape:pagecheckerboard="0"
     showgrid="false"
     fit-margin-top="0"
     fit-margin-left="0"
     fit-margin-right="0"
     fit-margin-bottom="0"
     inkscape:zoom="0.69550581"
     inkscape:cx="516.89"
     inkscape:cy="25.880445"
     inkscape:window-width="1920"
     inkscape:window-height="1137"
     inkscape:window-x="1912"
     inkscape:window-y="-8"
     inkscape:window-maximized="1"
     inkscape:current-layer="g14" /><g
     id="g8"
     inkscape:groupmode="layer"
     inkscape:label="ml_systems"
     transform="matrix(1.3333333,0,0,-1.3333333,-38.666666,428.19999)"><g
       id="g10"
       transform="matrix(1,0,0,-1,0,540)"><g
         id="g12"><g
           id="g14"
           clip-path="url(#clipPath18)"><g
             id="g24"><path
               d="m 29.52,233.28 c -0.02,-7.681 6.229,-13.93 13.92,-13.92 H 138 c 7.65,-0.01 13.9,6.239 13.92,13.92 v 55.92 c -0.02,7.65 -6.27,13.9 -13.92,13.92 H 43.44 C 35.749,303.1 29.5,296.85 29.52,289.2 v -55.92"
               style="fill:#d9d9d9;fill-opacity:1;fill-rule:evenodd;stroke:none"
               id="path26" /></g><g
             id="g28"><path
               d="m 29.019,232.565 0.055,-0.734 0.092,-0.724 0.128,-0.712 0.161,-0.699 0.195,-0.687 0.227,-0.672 0.259,-0.657 0.29,-0.64 0.319,-0.624 0.348,-0.605 0.376,-0.587 0.404,-0.567 0.429,-0.546 0.454,-0.524 0.479,-0.502 0.502,-0.479 0.524,-0.454 0.546,-0.429 0.567,-0.404 0.587,-0.376 0.605,-0.348 0.624,-0.319 0.64,-0.29 0.657,-0.259 0.672,-0.227 0.687,-0.195 0.699,-0.161 0.712,-0.128 0.724,-0.092 0.734,-0.055 0.737,-0.019 h 94.496 l 0.737,0.019 0.734,0.055 0.724,0.092 0.712,0.128 0.699,0.161 0.687,0.195 0.672,0.227 0.657,0.259 0.64,0.29 0.624,0.319 0.605,0.348 0.587,0.376 0.567,0.404 0.546,0.429 0.524,0.454 0.502,0.479 0.479,0.502 0.454,0.524 0.429,0.546 0.404,0.567 0.376,0.587 0.348,0.605 0.319,0.624 0.29,0.64 0.259,0.657 0.227,0.672 0.195,0.687 0.161,0.699 0.128,0.712 0.092,0.724 0.055,0.734 0.019,0.737 v 55.846 l -0.019,0.737 -0.055,0.734 -0.092,0.724 -0.128,0.712 -0.161,0.699 -0.195,0.687 -0.227,0.672 -0.259,0.657 -0.29,0.64 -0.319,0.624 -0.348,0.605 -0.376,0.587 -0.404,0.567 -0.429,0.546 -0.454,0.524 -0.479,0.502 -0.502,0.479 -0.524,0.454 -0.546,0.429 -0.567,0.404 -0.587,0.376 -0.605,0.348 -0.624,0.319 -0.64,0.29 -0.657,0.259 -0.672,0.227 -0.687,0.195 -0.699,0.161 -0.712,0.128 -0.724,0.092 -0.734,0.055 -0.737,0.019 H 43.452 l -0.737,-0.019 -0.734,-0.055 -0.724,-0.092 -0.712,-0.128 -0.699,-0.161 -0.687,-0.195 -0.672,-0.227 -0.657,-0.259 -0.64,-0.29 -0.624,-0.319 -0.605,-0.348 -0.587,-0.376 -0.567,-0.404 -0.546,-0.429 -0.524,-0.454 -0.502,-0.479 -0.479,-0.502 -0.454,-0.524 -0.429,-0.546 -0.404,-0.567 -0.376,-0.587 -0.348,-0.605 -0.319,-0.624 -0.29,-0.64 -0.259,-0.657 -0.227,-0.672 -0.195,-0.687 -0.161,-0.699 -0.128,-0.712 -0.092,-0.724 -0.055,-0.734 L 29,289.148 V 233.302 Z M 30,233.321 v -0.012 55.832 -0.012 l 0.018,0.718 -0.001,-0.025 0.054,0.709 -0.003,-0.025 0.089,0.698 -0.004,-0.025 0.123,0.688 -0.005,-0.025 0.156,0.675 -0.007,-0.024 0.189,0.663 -0.008,-0.024 0.22,0.649 -0.009,-0.024 0.25,0.634 -0.009,-0.022 0.279,0.618 -0.011,-0.022 0.309,0.602 -0.012,-0.021 0.336,0.584 -0.012,-0.02 0.363,0.566 -0.014,-0.02 0.39,0.547 -0.015,-0.019 0.415,0.527 -0.016,-0.018 0.439,0.506 -0.016,-0.017 0.462,0.485 -0.017,-0.017 0.485,0.462 -0.017,-0.016 0.506,0.439 -0.018,-0.016 0.527,0.415 -0.019,-0.015 0.547,0.39 -0.02,-0.014 0.566,0.363 -0.02,-0.012 0.584,0.336 -0.021,-0.012 0.602,0.309 -0.022,-0.011 0.618,0.279 -0.022,-0.009 0.634,0.25 -0.024,-0.009 0.649,0.22 -0.024,-0.008 0.663,0.189 -0.024,-0.007 0.675,0.156 -0.025,-0.005 0.688,0.123 -0.025,-0.004 0.698,0.089 -0.025,-0.003 0.709,0.054 -0.025,-0.001 0.718,0.018 h -0.012 94.482 -0.012 l 0.718,-0.018 -0.025,0.001 0.709,-0.054 -0.025,0.003 0.698,-0.089 -0.025,0.004 0.688,-0.123 -0.025,0.005 0.675,-0.156 -0.024,0.007 0.663,-0.189 -0.024,0.008 0.649,-0.22 -0.024,0.009 0.634,-0.25 -0.022,0.009 0.618,-0.279 -0.022,0.011 0.602,-0.309 -0.021,0.012 0.584,-0.336 -0.02,0.012 0.566,-0.363 -0.02,0.014 0.547,-0.39 -0.019,0.015 0.527,-0.415 -0.018,0.016 0.506,-0.439 -0.017,0.016 0.485,-0.462 -0.017,0.017 0.462,-0.485 -0.016,0.017 0.439,-0.506 -0.016,0.018 0.415,-0.527 -0.015,0.019 0.39,-0.547 -0.014,0.02 0.363,-0.566 -0.012,0.02 0.336,-0.584 -0.012,0.021 0.308,-0.602 -0.01,0.022 0.279,-0.618 -0.009,0.022 0.25,-0.634 -0.009,0.024 0.22,-0.649 -0.008,0.024 0.189,-0.663 -0.007,0.024 0.156,-0.675 -0.005,0.025 0.123,-0.688 -0.004,0.025 0.089,-0.698 -0.003,0.025 0.054,-0.709 -0.001,0.025 0.018,-0.718 v 0.012 -55.832 0.012 l -0.018,-0.718 0.001,0.025 -0.054,-0.709 0.003,0.025 -0.089,-0.698 0.004,0.025 -0.123,-0.688 0.005,0.025 -0.156,-0.675 0.007,0.024 -0.189,-0.663 0.008,0.024 -0.22,-0.649 0.009,0.024 -0.25,-0.634 0.009,0.022 -0.279,-0.618 0.01,0.022 -0.308,-0.602 0.012,0.021 -0.336,-0.584 0.012,0.02 -0.363,-0.566 0.014,0.02 -0.39,-0.547 0.015,0.019 -0.415,-0.527 0.016,0.018 -0.439,-0.506 0.016,0.017 -0.462,-0.485 0.017,0.017 -0.485,-0.462 0.017,0.016 -0.506,-0.439 0.018,0.016 -0.527,-0.415 0.019,0.015 -0.547,-0.39 0.02,0.014 -0.566,-0.363 0.02,0.012 -0.584,-0.336 0.021,0.012 -0.602,-0.309 0.022,0.011 -0.618,-0.279 0.022,0.009 -0.634,-0.25 0.024,0.009 -0.649,-0.22 0.024,0.008 -0.663,-0.189 0.024,0.007 -0.675,-0.156 0.025,0.005 -0.688,-0.123 0.025,0.004 -0.698,-0.089 0.025,0.003 -0.709,-0.054 0.025,0.001 -0.718,-0.018 h 0.012 -94.482 0.012 l -0.718,0.018 0.025,-0.001 -0.709,0.054 0.025,-0.003 -0.698,0.089 0.025,-0.004 -0.688,0.123 0.025,-0.005 -0.675,0.156 0.024,-0.007 -0.663,0.189 0.024,-0.008 -0.649,0.22 0.024,-0.009 -0.634,0.25 0.022,-0.009 -0.618,0.279 0.022,-0.011 -0.602,0.309 0.021,-0.012 -0.584,0.336 0.02,-0.012 -0.566,0.363 0.02,-0.014 -0.547,0.39 0.019,-0.015 -0.527,0.415 0.018,-0.016 -0.506,0.439 0.017,-0.016 -0.485,0.462 0.017,-0.017 -0.462,0.485 0.016,-0.017 -0.439,0.506 0.016,-0.018 -0.415,0.527 0.015,-0.019 -0.39,0.547 0.014,-0.02 -0.363,0.566 0.012,-0.02 -0.336,0.584 0.012,-0.021 -0.309,0.602 0.011,-0.022 -0.279,0.618 0.009,-0.022 -0.25,0.634 0.009,-0.024 -0.22,0.649 0.008,-0.024 -0.189,0.663 0.007,-0.024 -0.156,0.675 0.005,-0.025 -0.123,0.688 0.004,-0.025 -0.089,0.698 0.003,-0.025 -0.054,0.709 0.001,-0.025 -0.018,0.718"
               style="fill:#000000;fill-opacity:1;fill-rule:nonzero;stroke:none"
               id="path30" /></g><g
             id="g32"><text
               transform="translate(54.688,267.238)"
               style="font-variant:normal;font-weight:normal;font-stretch:normal;font-size:18px;font-family:'Microsoft YaHei';-inkscape-font-specification:MicrosoftYaHei;writing-mode:lr-tb;fill:#000000;fill-opacity:1;fill-rule:nonzero;stroke:none"
               id="text36"><tspan
                 x="0 18 36 54"
                 y="0"
                 sodipodi:role="line"
                 id="tspan34">数据处理</tspan></text></g><g
             id="g38"><path
               d="m 216.72,233.28 c -0.02,-7.681 6.229,-13.93 13.92,-13.92 h 94.56 c 7.65,-0.01 13.9,6.239 13.92,13.92 v 55.92 c -0.02,7.65 -6.27,13.9 -13.92,13.92 h -94.56 c -7.691,-0.02 -13.94,-6.27 -13.92,-13.92 v -55.92"
               style="fill:#d9d9d9;fill-opacity:1;fill-rule:evenodd;stroke:none"
               id="path40" /></g><g
             id="g42"><path
               d="m 216.219,232.565 0.055,-0.734 0.092,-0.724 0.128,-0.712 0.161,-0.699 0.195,-0.687 0.227,-0.672 0.259,-0.657 0.29,-0.64 0.319,-0.624 0.348,-0.605 0.376,-0.587 0.404,-0.567 0.429,-0.546 0.454,-0.524 0.479,-0.502 0.502,-0.479 0.524,-0.454 0.546,-0.429 0.567,-0.404 0.587,-0.376 0.605,-0.348 0.624,-0.319 0.64,-0.29 0.657,-0.259 0.672,-0.227 0.687,-0.195 0.699,-0.161 0.712,-0.128 0.724,-0.092 0.734,-0.055 0.737,-0.019 h 94.496 l 0.737,0.019 0.734,0.055 0.724,0.092 0.712,0.128 0.699,0.161 0.687,0.195 0.672,0.227 0.657,0.259 0.64,0.29 0.624,0.319 0.605,0.348 0.587,0.376 0.567,0.404 0.546,0.429 0.524,0.454 0.502,0.479 0.479,0.502 0.454,0.524 0.429,0.546 0.404,0.567 0.376,0.587 0.348,0.605 0.319,0.624 0.29,0.64 0.259,0.657 0.227,0.672 0.195,0.687 0.161,0.699 0.128,0.712 0.092,0.724 0.055,0.734 0.019,0.737 v 55.846 l -0.019,0.737 -0.055,0.734 -0.092,0.724 -0.128,0.712 -0.161,0.699 -0.195,0.687 -0.227,0.672 -0.259,0.657 -0.29,0.64 -0.319,0.624 -0.348,0.605 -0.376,0.587 -0.404,0.567 -0.429,0.546 -0.454,0.524 -0.479,0.502 -0.502,0.479 -0.524,0.454 -0.546,0.429 -0.567,0.404 -0.587,0.376 -0.605,0.348 -0.624,0.319 -0.64,0.29 -0.657,0.259 -0.672,0.227 -0.687,0.195 -0.699,0.161 -0.712,0.128 -0.724,0.092 -0.734,0.055 -0.737,0.019 h -94.496 l -0.737,-0.019 -0.734,-0.055 -0.724,-0.092 -0.712,-0.128 -0.699,-0.161 -0.687,-0.195 -0.672,-0.227 -0.657,-0.259 -0.64,-0.29 -0.624,-0.319 -0.605,-0.348 -0.587,-0.376 -0.567,-0.404 -0.546,-0.429 -0.524,-0.454 -0.502,-0.479 -0.479,-0.502 -0.454,-0.524 -0.429,-0.546 -0.404,-0.567 -0.376,-0.587 -0.348,-0.605 -0.319,-0.624 -0.29,-0.64 -0.259,-0.657 -0.227,-0.672 -0.195,-0.687 -0.161,-0.699 -0.128,-0.712 -0.092,-0.724 -0.055,-0.734 -0.019,-0.737 v -55.846 z m 0.981,0.756 v -0.012 55.832 -0.012 l 0.018,0.718 -10e-4,-0.025 0.054,0.709 -0.003,-0.025 0.089,0.698 -0.004,-0.025 0.123,0.688 -0.005,-0.025 0.156,0.675 -0.007,-0.024 0.189,0.663 -0.008,-0.024 0.22,0.649 -0.009,-0.024 0.25,0.634 -0.009,-0.022 0.279,0.618 -0.011,-0.022 0.309,0.602 -0.012,-0.021 0.336,0.584 -0.012,-0.02 0.363,0.566 -0.014,-0.02 0.39,0.547 -0.015,-0.019 0.415,0.527 -0.016,-0.018 0.439,0.506 -0.016,-0.017 0.462,0.485 -0.017,-0.017 0.485,0.462 -0.017,-0.016 0.506,0.439 -0.018,-0.016 0.527,0.415 -0.019,-0.015 0.547,0.39 -0.02,-0.014 0.566,0.363 -0.02,-0.012 0.584,0.336 -0.021,-0.012 0.602,0.309 -0.022,-0.011 0.618,0.279 -0.022,-0.009 0.634,0.25 -0.024,-0.009 0.649,0.22 -0.024,-0.008 0.663,0.189 -0.024,-0.007 0.675,0.156 -0.025,-0.005 0.688,0.123 -0.025,-0.004 0.698,0.089 -0.025,-0.003 0.709,0.054 -0.025,-0.001 0.718,0.018 h -0.012 94.482 -0.012 l 0.718,-0.018 -0.025,0.001 0.709,-0.054 -0.025,0.003 0.698,-0.089 -0.025,0.004 0.688,-0.123 -0.025,0.005 0.675,-0.156 -0.024,0.007 0.663,-0.189 -0.024,0.008 0.649,-0.22 -0.024,0.009 0.634,-0.25 -0.022,0.009 0.618,-0.279 -0.022,0.011 0.602,-0.309 -0.021,0.012 0.584,-0.336 -0.02,0.012 0.566,-0.363 -0.02,0.014 0.547,-0.39 -0.019,0.015 0.527,-0.415 -0.018,0.016 0.506,-0.439 -0.017,0.016 0.485,-0.462 -0.017,0.017 0.462,-0.485 -0.016,0.017 0.439,-0.506 -0.016,0.018 0.415,-0.527 -0.015,0.019 0.39,-0.547 -0.014,0.02 0.363,-0.566 -0.012,0.02 0.336,-0.584 -0.012,0.021 0.309,-0.602 -0.011,0.022 0.279,-0.618 -0.009,0.022 0.25,-0.634 -0.009,0.024 0.22,-0.649 -0.008,0.024 0.189,-0.663 -0.007,0.024 0.156,-0.675 -0.005,0.025 0.123,-0.688 -0.004,0.025 0.089,-0.698 -0.003,0.025 0.054,-0.709 -0.001,0.025 0.018,-0.718 v 0.012 -55.832 0.012 l -0.018,-0.718 0.001,0.025 -0.054,-0.709 0.003,0.025 -0.089,-0.698 0.004,0.025 -0.123,-0.688 0.005,0.025 -0.156,-0.675 0.007,0.024 -0.189,-0.663 0.008,0.024 -0.22,-0.649 0.009,0.024 -0.25,-0.634 0.009,0.022 -0.279,-0.618 0.011,0.022 -0.309,-0.602 0.012,0.021 -0.336,-0.584 0.012,0.02 -0.363,-0.566 0.014,0.02 -0.39,-0.547 0.015,0.019 -0.415,-0.527 0.016,0.018 -0.439,-0.506 0.016,0.017 -0.462,-0.485 0.017,0.017 -0.485,-0.462 0.017,0.016 -0.506,-0.439 0.018,0.016 -0.527,-0.415 0.019,0.015 -0.547,-0.39 0.02,0.014 -0.566,-0.363 0.02,0.012 -0.584,-0.336 0.021,0.012 -0.602,-0.309 0.022,0.011 -0.618,-0.279 0.022,0.009 -0.634,-0.25 0.024,0.009 -0.649,-0.22 0.024,0.008 -0.663,-0.189 0.024,0.007 -0.675,-0.156 0.025,0.005 -0.688,-0.123 0.025,0.004 -0.698,-0.089 0.025,0.003 -0.709,-0.054 0.025,0.001 -0.718,-0.018 h 0.012 -94.482 0.012 l -0.718,0.018 0.025,-0.001 -0.709,0.054 0.025,-0.003 -0.698,0.089 0.025,-0.004 -0.688,0.123 0.025,-0.005 -0.675,0.156 0.024,-0.007 -0.663,0.189 0.024,-0.008 -0.649,0.22 0.024,-0.009 -0.634,0.25 0.022,-0.009 -0.618,0.279 0.022,-0.011 -0.602,0.309 0.021,-0.012 -0.584,0.336 0.02,-0.012 -0.566,0.363 0.02,-0.014 -0.547,0.39 0.019,-0.015 -0.527,0.415 0.018,-0.016 -0.506,0.439 0.017,-0.016 -0.485,0.462 0.017,-0.017 -0.462,0.485 0.016,-0.017 -0.439,0.506 0.016,-0.018 -0.415,0.527 0.015,-0.019 -0.39,0.547 0.014,-0.02 -0.363,0.566 0.012,-0.02 -0.336,0.584 0.012,-0.021 -0.309,0.602 0.011,-0.022 -0.279,0.618 0.009,-0.022 -0.25,0.634 0.009,-0.024 -0.22,0.649 0.008,-0.024 -0.189,0.663 0.007,-0.024 -0.156,0.675 0.005,-0.025 -0.123,0.688 0.004,-0.025 -0.089,0.698 0.003,-0.025 -0.054,0.709 10e-4,-0.025 -0.018,0.718"
               style="fill:#000000;fill-opacity:1;fill-rule:nonzero;stroke:none"
               id="path44" /></g><g
             id="g46"><text
               transform="translate(241.888,267.238)"
               style="font-variant:normal;font-weight:normal;font-stretch:normal;font-size:18px;font-family:'Microsoft YaHei';-inkscape-font-specification:MicrosoftYaHei;writing-mode:lr-tb;fill:#000000;fill-opacity:1;fill-rule:nonzero;stroke:none"
               id="text50"><tspan
                 x="0 18 36 54"
                 y="0"
                 sodipodi:role="line"
                 id="tspan48">模型结构</tspan></text></g><g
             id="g52"><path
               d="m 411.36,233.28 c 0.04,-7.681 6.289,-13.93 14.04,-13.92 h 94.44 c 7.71,-0.01 13.96,6.239 13.92,13.92 v 55.92 c 0.04,7.65 -6.21,13.9 -13.92,13.92 H 425.4 c -7.751,-0.02 -14,-6.27 -14.04,-13.92 v -55.92"
               style="fill:#d9d9d9;fill-opacity:1;fill-rule:evenodd;stroke:none"
               id="path54" /></g><g
             id="g56"><path
               d="m 410.919,232.565 0.055,-0.734 0.092,-0.724 0.128,-0.712 0.161,-0.699 0.195,-0.687 0.227,-0.672 0.259,-0.657 0.29,-0.64 0.319,-0.624 0.348,-0.605 0.376,-0.587 0.404,-0.567 0.429,-0.546 0.454,-0.524 0.479,-0.502 0.502,-0.479 0.524,-0.454 0.546,-0.429 0.567,-0.404 0.587,-0.376 0.605,-0.348 0.624,-0.319 0.64,-0.29 0.657,-0.259 0.672,-0.227 0.687,-0.195 0.699,-0.161 0.712,-0.128 0.724,-0.092 0.734,-0.055 0.737,-0.019 h 94.496 l 0.737,0.019 0.734,0.055 0.724,0.092 0.712,0.128 0.699,0.161 0.687,0.195 0.672,0.227 0.656,0.259 0.641,0.29 0.624,0.319 0.605,0.348 0.587,0.376 0.567,0.404 0.546,0.429 0.524,0.454 0.502,0.479 0.479,0.502 0.454,0.524 0.429,0.546 0.404,0.567 0.376,0.587 0.348,0.605 0.319,0.624 0.29,0.64 0.259,0.657 0.227,0.672 0.195,0.687 0.161,0.699 0.128,0.712 0.092,0.724 0.055,0.734 0.019,0.737 v 55.846 l -0.019,0.737 -0.055,0.734 -0.092,0.724 -0.128,0.712 -0.161,0.699 -0.195,0.687 -0.227,0.672 -0.259,0.657 -0.29,0.64 -0.319,0.624 -0.348,0.605 -0.376,0.587 -0.404,0.567 -0.429,0.546 -0.454,0.524 -0.479,0.502 -0.502,0.479 -0.524,0.454 -0.546,0.429 -0.567,0.404 -0.587,0.376 -0.605,0.348 -0.624,0.319 -0.641,0.29 -0.656,0.259 -0.672,0.227 -0.687,0.195 -0.699,0.161 -0.712,0.128 -0.724,0.092 -0.734,0.055 -0.737,0.019 h -94.496 l -0.737,-0.019 -0.734,-0.055 -0.724,-0.092 -0.712,-0.128 -0.699,-0.161 -0.687,-0.195 -0.672,-0.227 -0.657,-0.259 -0.64,-0.29 -0.624,-0.319 -0.605,-0.348 -0.587,-0.376 -0.567,-0.404 -0.546,-0.429 -0.524,-0.454 -0.502,-0.479 -0.479,-0.502 -0.454,-0.524 -0.429,-0.546 -0.404,-0.567 -0.376,-0.587 -0.348,-0.605 -0.319,-0.624 -0.29,-0.64 -0.259,-0.657 -0.227,-0.672 -0.195,-0.687 -0.161,-0.699 -0.128,-0.712 -0.092,-0.724 -0.055,-0.734 -0.019,-0.737 v -55.846 z m 0.981,0.756 v -0.012 55.832 -0.012 l 0.018,0.718 -0.001,-0.025 0.054,0.709 -0.003,-0.025 0.089,0.698 -0.004,-0.025 0.123,0.688 -0.005,-0.025 0.156,0.675 -0.007,-0.024 0.189,0.663 -0.008,-0.024 0.22,0.649 -0.009,-0.024 0.25,0.634 -0.009,-0.022 0.279,0.618 -0.011,-0.022 0.309,0.602 -0.012,-0.021 0.336,0.584 -0.012,-0.02 0.363,0.566 -0.014,-0.02 0.39,0.547 -0.015,-0.019 0.415,0.527 -0.016,-0.018 0.439,0.506 -0.016,-0.017 0.462,0.485 -0.017,-0.017 0.485,0.462 -0.017,-0.016 0.506,0.439 -0.018,-0.016 0.527,0.415 -0.019,-0.015 0.547,0.39 -0.02,-0.014 0.566,0.363 -0.02,-0.012 0.584,0.336 -0.021,-0.012 0.602,0.309 -0.022,-0.011 0.618,0.279 -0.022,-0.009 0.634,0.25 -0.024,-0.009 0.649,0.22 -0.024,-0.008 0.663,0.189 -0.024,-0.007 0.675,0.156 -0.025,-0.005 0.688,0.123 -0.025,-0.004 0.698,0.089 -0.025,-0.003 0.709,0.054 -0.025,-0.001 0.718,0.018 h -0.012 94.482 -0.012 l 0.718,-0.018 -0.025,0.001 0.709,-0.054 -0.025,0.003 0.698,-0.089 -0.025,0.004 0.688,-0.123 -0.025,0.005 0.675,-0.156 -0.024,0.007 0.663,-0.189 -0.024,0.008 0.649,-0.22 -0.024,0.009 0.634,-0.25 -0.022,0.009 0.618,-0.279 -0.022,0.011 0.602,-0.309 -0.021,0.012 0.584,-0.336 -0.02,0.012 0.566,-0.363 -0.02,0.014 0.547,-0.39 -0.019,0.015 0.527,-0.415 -0.018,0.016 0.506,-0.439 -0.017,0.016 0.485,-0.462 -0.017,0.017 0.462,-0.485 -0.016,0.017 0.439,-0.506 -0.016,0.018 0.415,-0.527 -0.015,0.019 0.39,-0.547 -0.014,0.02 0.363,-0.566 -0.012,0.02 0.336,-0.584 -0.012,0.021 0.309,-0.602 -0.011,0.022 0.279,-0.618 -0.009,0.022 0.25,-0.634 -0.009,0.024 0.22,-0.649 -0.008,0.024 0.189,-0.663 -0.007,0.024 0.156,-0.675 -0.005,0.025 0.123,-0.688 -0.004,0.025 0.089,-0.698 -0.003,0.025 0.054,-0.709 -10e-4,0.025 0.018,-0.718 v 0.012 -55.832 0.012 l -0.018,-0.718 10e-4,0.025 -0.054,-0.709 0.003,0.025 -0.089,-0.698 0.004,0.025 -0.123,-0.688 0.005,0.025 -0.156,-0.675 0.007,0.024 -0.189,-0.663 0.008,0.024 -0.22,-0.649 0.009,0.024 -0.25,-0.634 0.009,0.022 -0.279,-0.618 0.011,0.022 -0.309,-0.602 0.012,0.021 -0.336,-0.584 0.012,0.02 -0.363,-0.566 0.014,0.02 -0.39,-0.547 0.015,0.019 -0.415,-0.527 0.016,0.018 -0.439,-0.506 0.016,0.017 -0.462,-0.485 0.017,0.017 -0.485,-0.462 0.017,0.016 -0.506,-0.439 0.018,0.016 -0.527,-0.415 0.019,0.015 -0.547,-0.39 0.02,0.014 -0.566,-0.363 0.02,0.012 -0.584,-0.336 0.021,0.012 -0.602,-0.309 0.022,0.011 -0.618,-0.279 0.022,0.009 -0.634,-0.25 0.024,0.009 -0.649,-0.22 0.024,0.008 -0.663,-0.189 0.024,0.007 -0.675,-0.156 0.025,0.005 -0.688,-0.123 0.025,0.004 -0.698,-0.089 0.025,0.003 -0.709,-0.054 0.025,0.001 -0.718,-0.018 h 0.012 -94.482 0.012 l -0.718,0.018 0.025,-0.001 -0.709,0.054 0.025,-0.003 -0.698,0.089 0.025,-0.004 -0.688,0.123 0.025,-0.005 -0.675,0.156 0.024,-0.007 -0.663,0.189 0.024,-0.008 -0.649,0.22 0.024,-0.009 -0.634,0.25 0.022,-0.009 -0.618,0.279 0.022,-0.011 -0.602,0.309 0.021,-0.012 -0.584,0.336 0.02,-0.012 -0.566,0.363 0.02,-0.014 -0.547,0.39 0.019,-0.015 -0.527,0.415 0.018,-0.016 -0.506,0.439 0.017,-0.016 -0.485,0.462 0.017,-0.017 -0.462,0.485 0.016,-0.017 -0.439,0.506 0.016,-0.018 -0.415,0.527 0.015,-0.019 -0.39,0.547 0.014,-0.02 -0.363,0.566 0.012,-0.02 -0.336,0.584 0.012,-0.021 -0.309,0.602 0.011,-0.022 -0.279,0.618 0.009,-0.022 -0.25,0.634 0.009,-0.024 -0.22,0.649 0.008,-0.024 -0.189,0.663 0.007,-0.024 -0.156,0.675 0.005,-0.025 -0.123,0.688 0.004,-0.025 -0.089,0.698 0.003,-0.025 -0.054,0.709 0.001,-0.025 -0.018,0.718"
               style="fill:#000000;fill-opacity:1;fill-rule:nonzero;stroke:none"
               id="path58" /></g><g
             id="g60"><text
               transform="translate(427.588,256.438)"
               style="font-variant:normal;font-weight:normal;font-stretch:normal;font-size:18px;font-family:'Microsoft YaHei';-inkscape-font-specification:MicrosoftYaHei;writing-mode:lr-tb;fill:#000000;fill-opacity:1;fill-rule:nonzero;stroke:none"
               id="text64"><tspan
                 x="0 18 36 54 72"
                 y="0"
                 sodipodi:role="line"
                 id="tspan62">损失函数和</tspan></text></g><g
             id="g66"><text
               transform="translate(436.588,278.038)"
               style="font-variant:normal;font-weight:normal;font-stretch:normal;font-size:18px;font-family:'Microsoft YaHei';-inkscape-font-specification:MicrosoftYaHei;writing-mode:lr-tb;fill:#000000;fill-opacity:1;fill-rule:nonzero;stroke:none"
               id="text70"><tspan
                 x="0 18 36 54"
                 y="0"
                 sodipodi:role="line"
                 id="tspan68">优化算法</tspan></text></g><g
             id="g72"><path
               d="m 606.12,233.28 c -0.02,-7.681 6.229,-13.93 13.92,-13.92 h 94.56 c 7.65,-0.01 13.9,6.239 13.92,13.92 v 55.92 c -0.02,7.65 -6.27,13.9 -13.92,13.92 h -94.56 c -7.691,-0.02 -13.94,-6.27 -13.92,-13.92 v -55.92"
               style="fill:#d9d9d9;fill-opacity:1;fill-rule:evenodd;stroke:none"
               id="path74" /></g><g
             id="g76"><path
               d="m 605.619,232.565 0.055,-0.734 0.092,-0.724 0.128,-0.712 0.161,-0.699 0.195,-0.687 0.227,-0.672 0.259,-0.657 0.29,-0.64 0.319,-0.624 0.348,-0.605 0.376,-0.587 0.404,-0.567 0.429,-0.546 0.454,-0.524 0.479,-0.502 0.502,-0.479 0.524,-0.454 0.546,-0.429 0.567,-0.404 0.587,-0.376 0.605,-0.348 0.624,-0.319 0.64,-0.29 0.657,-0.259 0.672,-0.227 0.686,-0.195 0.7,-0.161 0.712,-0.128 0.724,-0.092 0.734,-0.055 0.737,-0.019 h 94.496 l 0.737,0.019 0.734,0.055 0.724,0.092 0.712,0.128 0.699,0.161 0.687,0.195 0.672,0.227 0.656,0.259 0.641,0.29 0.624,0.319 0.605,0.348 0.587,0.376 0.567,0.404 0.546,0.429 0.524,0.454 0.502,0.479 0.479,0.502 0.454,0.524 0.429,0.546 0.404,0.567 0.376,0.587 0.348,0.605 0.319,0.624 0.29,0.64 0.259,0.657 0.227,0.672 0.195,0.687 0.161,0.699 0.128,0.712 0.091,0.724 0.056,0.734 0.019,0.737 v 55.846 l -0.019,0.737 -0.056,0.734 -0.091,0.724 -0.128,0.712 -0.161,0.699 -0.195,0.687 -0.227,0.672 -0.259,0.657 -0.29,0.64 -0.319,0.624 -0.348,0.605 -0.376,0.587 -0.404,0.567 -0.429,0.546 -0.454,0.524 -0.479,0.502 -0.502,0.479 -0.524,0.454 -0.546,0.429 -0.567,0.404 -0.587,0.376 -0.605,0.348 -0.624,0.319 -0.641,0.29 -0.656,0.259 -0.672,0.227 -0.687,0.195 -0.699,0.161 -0.712,0.128 -0.724,0.092 -0.734,0.055 -0.737,0.019 h -94.496 l -0.737,-0.019 -0.734,-0.055 -0.724,-0.092 -0.712,-0.128 -0.7,-0.161 -0.686,-0.195 -0.672,-0.227 -0.657,-0.259 -0.64,-0.29 -0.624,-0.319 -0.605,-0.348 -0.587,-0.376 -0.567,-0.404 -0.546,-0.429 -0.524,-0.454 -0.502,-0.479 -0.479,-0.502 -0.454,-0.524 -0.429,-0.546 -0.404,-0.567 -0.376,-0.587 -0.348,-0.605 -0.319,-0.624 -0.29,-0.64 -0.259,-0.657 -0.227,-0.672 -0.195,-0.687 -0.161,-0.699 -0.128,-0.712 -0.092,-0.724 -0.055,-0.734 -0.019,-0.737 v -55.846 z m 0.981,0.756 v -0.012 55.832 -0.012 l 0.018,0.718 -0.001,-0.025 0.054,0.709 -0.003,-0.025 0.089,0.698 -0.004,-0.025 0.123,0.688 -0.005,-0.025 0.156,0.675 -0.007,-0.024 0.188,0.663 -0.007,-0.024 0.22,0.649 -0.009,-0.024 0.25,0.634 -0.009,-0.022 0.279,0.618 -0.011,-0.022 0.309,0.602 -0.012,-0.021 0.336,0.584 -0.012,-0.02 0.363,0.566 -0.014,-0.02 0.39,0.547 -0.015,-0.019 0.415,0.527 -0.016,-0.018 0.439,0.506 -0.016,-0.017 0.462,0.485 -0.017,-0.017 0.485,0.462 -0.018,-0.016 0.507,0.439 -0.018,-0.016 0.527,0.415 -0.019,-0.015 0.547,0.39 -0.02,-0.014 0.566,0.363 -0.02,-0.012 0.584,0.336 -0.021,-0.012 0.602,0.309 -0.022,-0.011 0.618,0.279 -0.022,-0.009 0.634,0.25 -0.024,-0.009 0.649,0.22 -0.024,-0.008 0.663,0.189 -0.024,-0.007 0.675,0.156 -0.025,-0.005 0.688,0.123 -0.025,-0.004 0.698,0.089 -0.025,-0.003 0.709,0.054 -0.025,-0.001 0.718,0.018 h -0.012 94.482 -0.012 l 0.718,-0.018 -0.025,0.001 0.709,-0.054 -0.025,0.003 0.698,-0.089 -0.025,0.004 0.688,-0.123 -0.025,0.005 0.675,-0.156 -0.024,0.007 0.663,-0.189 -0.024,0.008 0.649,-0.22 -0.024,0.009 0.634,-0.25 -0.022,0.009 0.618,-0.279 -0.022,0.011 0.602,-0.309 -0.021,0.012 0.584,-0.336 -0.02,0.012 0.566,-0.363 -0.02,0.014 0.547,-0.39 -0.019,0.015 0.527,-0.415 -0.018,0.016 0.506,-0.439 -0.017,0.016 0.485,-0.462 -0.017,0.017 0.462,-0.485 -0.016,0.017 0.439,-0.506 -0.016,0.018 0.415,-0.527 -0.015,0.019 0.39,-0.547 -0.014,0.02 0.363,-0.566 -0.012,0.02 0.336,-0.584 -0.012,0.021 0.308,-0.602 -0.01,0.022 0.279,-0.618 -0.009,0.022 0.25,-0.634 -0.009,0.024 0.22,-0.649 -0.008,0.024 0.189,-0.663 -0.007,0.024 0.156,-0.675 -0.005,0.025 0.123,-0.688 -0.004,0.025 0.089,-0.698 -0.003,0.025 0.054,-0.709 -10e-4,0.025 0.018,-0.718 v 0.012 -55.832 0.012 l -0.018,-0.718 10e-4,0.025 -0.054,-0.709 0.003,0.025 -0.089,-0.698 0.004,0.025 -0.123,-0.688 0.005,0.025 -0.156,-0.675 0.007,0.024 -0.189,-0.663 0.008,0.024 -0.22,-0.649 0.009,0.024 -0.25,-0.634 0.009,0.022 -0.279,-0.618 0.01,0.022 -0.308,-0.602 0.012,0.021 -0.336,-0.584 0.012,0.02 -0.363,-0.566 0.014,0.02 -0.39,-0.547 0.015,0.019 -0.415,-0.527 0.016,0.018 -0.439,-0.506 0.016,0.017 -0.462,-0.485 0.017,0.017 -0.485,-0.462 0.017,0.016 -0.506,-0.439 0.018,0.016 -0.527,-0.415 0.019,0.015 -0.547,-0.39 0.02,0.014 -0.566,-0.363 0.02,0.012 -0.584,-0.336 0.021,0.012 -0.602,-0.309 0.022,0.011 -0.618,-0.279 0.022,0.009 -0.634,-0.25 0.024,0.009 -0.649,-0.22 0.024,0.008 -0.663,-0.189 0.024,0.007 -0.675,-0.156 0.025,0.005 -0.688,-0.123 0.025,0.004 -0.698,-0.089 0.025,0.003 -0.709,-0.054 0.025,0.001 -0.718,-0.018 h 0.012 -94.482 0.012 l -0.718,0.018 0.025,-0.001 -0.709,0.054 0.025,-0.003 -0.698,0.089 0.025,-0.004 -0.688,0.123 0.025,-0.005 -0.675,0.156 0.024,-0.007 -0.663,0.189 0.024,-0.008 -0.649,0.22 0.024,-0.009 -0.634,0.25 0.022,-0.009 -0.618,0.279 0.022,-0.011 -0.602,0.309 0.021,-0.012 -0.584,0.336 0.02,-0.012 -0.566,0.363 0.02,-0.014 -0.547,0.39 0.019,-0.015 -0.527,0.415 0.018,-0.016 -0.507,0.439 0.018,-0.016 -0.485,0.462 0.017,-0.017 -0.462,0.485 0.016,-0.017 -0.439,0.506 0.016,-0.018 -0.415,0.527 0.015,-0.019 -0.39,0.547 0.014,-0.02 -0.363,0.566 0.012,-0.02 -0.336,0.584 0.012,-0.021 -0.309,0.602 0.011,-0.022 -0.279,0.618 0.009,-0.022 -0.25,0.634 0.009,-0.024 -0.22,0.649 0.007,-0.024 -0.188,0.663 0.007,-0.024 -0.156,0.675 0.005,-0.025 -0.123,0.688 0.004,-0.025 -0.089,0.698 0.003,-0.025 -0.054,0.709 0.001,-0.025 -0.018,0.718"
               style="fill:#000000;fill-opacity:1;fill-rule:nonzero;stroke:none"
               id="path78" /></g><g
             id="g80"><text
               transform="translate(631.288,267.238)"
               style="font-variant:normal;font-weight:normal;font-stretch:normal;font-size:18px;font-family:'Microsoft YaHei';-inkscape-font-specification:MicrosoftYaHei;writing-mode:lr-tb;fill:#000000;fill-opacity:1;fill-rule:nonzero;stroke:none"
               id="text84"><tspan
                 x="0 18 36 54"
                 y="0"
                 sodipodi:role="line"
                 id="tspan82">训练过程</tspan></text></g><g
             id="g86"><path
               d="m 793.32,233.28 c -0.02,-7.681 6.229,-13.93 13.92,-13.92 h 94.44 c 7.721,-0.01 13.97,6.239 13.92,13.92 v 55.92 c 0.05,7.65 -6.199,13.9 -13.92,13.92 h -94.44 c -7.691,-0.02 -13.94,-6.27 -13.92,-13.92 v -55.92"
               style="fill:#d9d9d9;fill-opacity:1;fill-rule:evenodd;stroke:none"
               id="path88" /></g><g
             id="g90"><path
               d="m 792.819,232.565 0.055,-0.734 0.092,-0.724 0.128,-0.712 0.161,-0.699 0.195,-0.687 0.227,-0.672 0.259,-0.657 0.29,-0.64 0.319,-0.624 0.348,-0.605 0.376,-0.587 0.404,-0.567 0.429,-0.546 0.454,-0.524 0.479,-0.502 0.502,-0.479 0.524,-0.454 0.546,-0.429 0.567,-0.404 0.587,-0.376 0.605,-0.348 0.624,-0.319 0.64,-0.29 0.657,-0.259 0.672,-0.227 0.687,-0.195 0.699,-0.161 0.712,-0.128 0.724,-0.092 0.734,-0.055 0.737,-0.019 h 94.446 l 0.737,0.019 0.734,0.055 0.724,0.092 0.712,0.128 0.699,0.161 0.687,0.195 0.672,0.227 0.657,0.259 0.64,0.29 0.624,0.319 0.605,0.348 0.587,0.376 0.567,0.404 0.546,0.429 0.524,0.454 0.502,0.479 0.479,0.502 0.454,0.524 0.429,0.546 0.403,0.567 0.377,0.587 0.348,0.605 0.319,0.624 0.29,0.64 0.259,0.657 0.227,0.672 0.195,0.687 0.161,0.699 0.128,0.712 0.092,0.724 0.055,0.734 0.019,0.737 v 55.846 l -0.019,0.737 -0.055,0.734 -0.092,0.724 -0.128,0.712 -0.161,0.699 -0.195,0.687 -0.227,0.672 -0.259,0.657 -0.29,0.64 -0.319,0.624 -0.348,0.605 -0.377,0.587 -0.403,0.567 -0.429,0.546 -0.454,0.524 -0.479,0.502 -0.502,0.479 -0.524,0.454 -0.546,0.429 -0.567,0.404 -0.587,0.376 -0.605,0.348 -0.624,0.319 -0.64,0.29 -0.657,0.259 -0.672,0.227 -0.687,0.195 -0.699,0.161 -0.712,0.128 -0.724,0.092 -0.734,0.055 -0.737,0.019 h -94.446 l -0.737,-0.019 -0.734,-0.055 -0.724,-0.092 -0.712,-0.128 -0.699,-0.161 -0.687,-0.195 -0.672,-0.227 -0.657,-0.259 -0.64,-0.29 -0.624,-0.319 -0.605,-0.348 -0.587,-0.376 -0.567,-0.404 -0.546,-0.429 -0.524,-0.454 -0.502,-0.479 -0.479,-0.502 -0.454,-0.524 -0.429,-0.546 -0.404,-0.567 -0.376,-0.587 -0.348,-0.605 -0.319,-0.624 -0.29,-0.64 -0.259,-0.657 -0.227,-0.672 -0.195,-0.687 -0.161,-0.699 -0.128,-0.712 -0.092,-0.724 -0.055,-0.734 -0.019,-0.737 v -55.846 z m 0.981,0.756 v -0.012 55.832 -0.012 l 0.018,0.718 -10e-4,-0.025 0.054,0.709 -0.003,-0.025 0.089,0.698 -0.004,-0.025 0.123,0.688 -0.005,-0.025 0.156,0.675 -0.007,-0.024 0.189,0.663 -0.008,-0.024 0.22,0.649 -0.009,-0.024 0.25,0.634 -0.009,-0.022 0.279,0.618 -0.011,-0.022 0.309,0.602 -0.012,-0.021 0.336,0.584 -0.012,-0.02 0.363,0.566 -0.014,-0.02 0.39,0.547 -0.015,-0.019 0.415,0.527 -0.016,-0.018 0.439,0.506 -0.016,-0.017 0.462,0.485 -0.017,-0.017 0.485,0.462 -0.017,-0.016 0.506,0.439 -0.018,-0.016 0.527,0.415 -0.019,-0.015 0.547,0.39 -0.02,-0.014 0.566,0.363 -0.02,-0.012 0.584,0.336 -0.021,-0.012 0.602,0.309 -0.022,-0.011 0.618,0.279 -0.022,-0.009 0.634,0.25 -0.024,-0.009 0.649,0.22 -0.024,-0.008 0.663,0.189 -0.024,-0.007 0.675,0.156 -0.025,-0.005 0.688,0.123 -0.025,-0.004 0.698,0.089 -0.025,-0.003 0.709,0.054 -0.025,-0.001 0.718,0.018 h -0.012 94.432 -0.012 l 0.718,-0.018 -0.025,0.001 0.709,-0.054 -0.025,0.003 0.698,-0.089 -0.025,0.004 0.688,-0.123 -0.025,0.005 0.675,-0.156 -0.024,0.007 0.663,-0.189 -0.024,0.008 0.649,-0.22 -0.024,0.009 0.634,-0.25 -0.022,0.009 0.618,-0.279 -0.022,0.011 0.602,-0.309 -0.021,0.012 0.584,-0.336 -0.02,0.012 0.566,-0.363 -0.02,0.014 0.547,-0.39 -0.019,0.015 0.527,-0.415 -0.018,0.016 0.506,-0.439 -0.017,0.016 0.485,-0.462 -0.017,0.017 0.462,-0.485 -0.016,0.017 0.439,-0.506 -0.016,0.018 0.415,-0.527 -0.015,0.019 0.39,-0.547 -0.014,0.02 0.363,-0.566 -0.012,0.02 0.336,-0.584 -0.012,0.021 0.308,-0.602 -0.01,0.022 0.279,-0.618 -0.009,0.022 0.25,-0.634 -0.009,0.024 0.22,-0.649 -0.008,0.024 0.189,-0.663 -0.007,0.024 0.156,-0.675 -0.005,0.025 0.123,-0.688 -0.004,0.025 0.089,-0.698 -0.003,0.025 0.054,-0.709 -0.001,0.025 0.018,-0.718 v 0.012 -55.832 0.012 l -0.018,-0.718 0.001,0.025 -0.054,-0.709 0.003,0.025 -0.089,-0.698 0.004,0.025 -0.123,-0.688 0.005,0.025 -0.156,-0.675 0.007,0.024 -0.189,-0.663 0.008,0.024 -0.22,-0.649 0.009,0.024 -0.25,-0.634 0.009,0.022 -0.279,-0.618 0.01,0.022 -0.308,-0.602 0.012,0.021 -0.336,-0.584 0.012,0.02 -0.363,-0.566 0.014,0.02 -0.39,-0.547 0.015,0.019 -0.415,-0.527 0.016,0.018 -0.439,-0.506 0.016,0.017 -0.462,-0.485 0.017,0.017 -0.485,-0.462 0.017,0.016 -0.506,-0.439 0.018,0.016 -0.527,-0.415 0.019,0.015 -0.547,-0.39 0.02,0.014 -0.566,-0.363 0.02,0.012 -0.584,-0.336 0.021,0.012 -0.602,-0.309 0.022,0.011 -0.618,-0.279 0.022,0.009 -0.634,-0.25 0.024,0.009 -0.649,-0.22 0.024,0.008 -0.663,-0.189 0.024,0.007 -0.675,-0.156 0.025,0.005 -0.688,-0.123 0.025,0.004 -0.698,-0.089 0.025,0.003 -0.709,-0.054 0.025,0.001 -0.718,-0.018 h 0.012 -94.432 0.012 l -0.718,0.018 0.025,-0.001 -0.709,0.054 0.025,-0.003 -0.698,0.089 0.025,-0.004 -0.688,0.123 0.025,-0.005 -0.675,0.156 0.024,-0.007 -0.663,0.189 0.024,-0.008 -0.649,0.22 0.024,-0.009 -0.634,0.25 0.022,-0.009 -0.618,0.279 0.022,-0.011 -0.602,0.309 0.021,-0.012 -0.584,0.336 0.02,-0.012 -0.566,0.363 0.02,-0.014 -0.547,0.39 0.019,-0.015 -0.527,0.415 0.018,-0.016 -0.506,0.439 0.017,-0.016 -0.485,0.462 0.017,-0.017 -0.462,0.485 0.016,-0.017 -0.439,0.506 0.016,-0.018 -0.415,0.527 0.015,-0.019 -0.39,0.547 0.014,-0.02 -0.363,0.566 0.012,-0.02 -0.336,0.584 0.012,-0.021 -0.309,0.602 0.011,-0.022 -0.279,0.618 0.009,-0.022 -0.25,0.634 0.009,-0.024 -0.22,0.649 0.008,-0.024 -0.189,0.663 0.007,-0.024 -0.156,0.675 0.005,-0.025 -0.123,0.688 0.004,-0.025 -0.089,0.698 0.003,-0.025 -0.054,0.709 10e-4,-0.025 -0.018,0.718"
               style="fill:#000000;fill-opacity:1;fill-rule:nonzero;stroke:none"
               id="path92" /></g><g
             id="g94"><text
               transform="translate(809.438,267.238)"
               style="font-variant:normal;font-weight:normal;font-stretch:normal;font-size:18px;font-family:'Microsoft YaHei';-inkscape-font-specification:MicrosoftYaHei;writing-mode:lr-tb;fill:#000000;fill-opacity:1;fill-rule:nonzero;stroke:none"
               id="text98"><tspan
                 x="0 18 36 54 72"
                 y="0"
                 sodipodi:role="line"
                 id="tspan96">测试和调试</tspan></text></g><g
             id="g100"><path
               d="m 164.28,256.92 h 31.32 v -4.32 l 8.76,8.64 -8.76,8.64 v -4.32 h -31.32 v -8.64"
               style="fill:#d9d9d9;fill-opacity:1;fill-rule:evenodd;stroke:none"
               id="path102" /></g><g
             id="g104"><path
               d="m 195.625,256.387 -0.5,0.5 v -5.544 l 9.882,9.882 -9.882,9.882 v -5.544 l 0.5,0.5 H 163.8 v -9.676 z m -31.325,1 0.5,-0.5 v 8.676 l -0.5,-0.5 h 31.825 v 4.837 l -0.854,-0.354 8.675,-8.675 v 0.708 l -8.675,-8.675 0.854,-0.354 v 4.837 H 164.3"
               style="fill:#000000;fill-opacity:1;fill-rule:nonzero;stroke:none"
               id="path106" /></g><g
             id="g108"><path
               d="m 355.2,256.92 h 31.32 v -4.32 l 8.76,8.64 -8.76,8.64 v -4.32 H 355.2 v -8.64"
               style="fill:#d9d9d9;fill-opacity:1;fill-rule:evenodd;stroke:none"
               id="path110" /></g><g
             id="g112"><path
               d="m 386.575,256.387 -0.5,0.5 v -5.544 l 9.882,9.882 -9.882,9.882 v -5.544 l 0.5,0.5 H 354.75 v -9.676 z m -31.325,1 0.5,-0.5 v 8.676 l -0.5,-0.5 h 31.825 v 4.837 l -0.854,-0.354 8.675,-8.675 v 0.708 l -8.675,-8.675 0.854,-0.354 v 4.837 H 355.25"
               style="fill:#000000;fill-opacity:1;fill-rule:nonzero;stroke:none"
               id="path114" /></g><g
             id="g116"><path
               d="m 549.96,256.92 h 31.32 v -4.32 l 8.64,8.64 -8.64,8.64 v -4.32 h -31.32 v -8.64"
               style="fill:#d9d9d9;fill-opacity:1;fill-rule:evenodd;stroke:none"
               id="path118" /></g><g
             id="g120"><path
               d="m 581.275,256.387 -0.5,0.5 v -5.544 l 9.882,9.882 -9.882,9.882 v -5.544 l 0.5,0.5 H 549.45 v -9.676 z m -31.325,1 0.5,-0.5 v 8.676 l -0.5,-0.5 h 31.825 v 4.837 l -0.854,-0.354 8.675,-8.675 v 0.708 l -8.675,-8.675 0.854,-0.354 v 4.837 H 549.95"
               style="fill:#000000;fill-opacity:1;fill-rule:nonzero;stroke:none"
               id="path122" /></g><g
             id="g124"><path
               d="m 740.88,256.92 h 31.32 v -4.32 l 8.76,8.64 -8.76,8.64 v -4.32 h -31.32 v -8.64"
               style="fill:#d9d9d9;fill-opacity:1;fill-rule:evenodd;stroke:none"
               id="path126" /></g><g
             id="g128"><path
               d="m 772.225,256.387 -0.5,0.5 v -5.544 l 9.882,9.882 -9.882,9.882 v -5.544 l 0.5,0.5 H 740.4 v -9.676 z m -31.325,1 0.5,-0.5 v 8.676 l -0.5,-0.5 h 31.825 v 4.837 l -0.854,-0.354 8.675,-8.675 v 0.708 l -8.675,-8.675 0.854,-0.354 v 4.837 H 740.9"
               style="fill:#000000;fill-opacity:1;fill-rule:nonzero;stroke:none"
               id="path130" /></g></g></g></g></g></svg>
