<?xml version="1.0" encoding="UTF-8" standalone="no"?>
<!-- Created with Inkscape (http://www.inkscape.org/) -->

<svg
   version="1.1"
   id="svg9"
   xml:space="preserve"
   width="1269.72"
   height="277.57623"
   viewBox="0 0 1269.72 277.57623"
   sodipodi:docname="ast.svg"
   inkscape:version="1.1.1 (3bf5ae0d25, 2021-09-20)"
   xmlns:inkscape="http://www.inkscape.org/namespaces/inkscape"
   xmlns:sodipodi="http://sodipodi.sourceforge.net/DTD/sodipodi-0.dtd"
   xmlns="http://www.w3.org/2000/svg"
   xmlns:svg="http://www.w3.org/2000/svg"><defs
     id="defs13"><clipPath
       clipPathUnits="userSpaceOnUse"
       id="clipPath23"><path
         d="M 0,1.2207e-4 H 960 V 540.00012 H 0 Z"
         clip-rule="evenodd"
         id="path21" /></clipPath><clipPath
       clipPathUnits="userSpaceOnUse"
       id="clipPath35"><path
         d="M 1.4305e-5,0 H 960.00001 V 540 H 1.4305e-5 Z"
         clip-rule="evenodd"
         id="path33" /></clipPath><clipPath
       clipPathUnits="userSpaceOnUse"
       id="clipPath49"><path
         d="M 1.4305e-5,0 H 960.00001 V 540 H 1.4305e-5 Z"
         clip-rule="evenodd"
         id="path47" /></clipPath><clipPath
       clipPathUnits="userSpaceOnUse"
       id="clipPath61"><path
         d="M 1.4305e-5,0 H 960.00001 V 540 H 1.4305e-5 Z"
         clip-rule="evenodd"
         id="path59" /></clipPath><clipPath
       clipPathUnits="userSpaceOnUse"
       id="clipPath75"><path
         d="M 1.4305e-5,0 H 960.00001 V 540 H 1.4305e-5 Z"
         clip-rule="evenodd"
         id="path73" /></clipPath><clipPath
       clipPathUnits="userSpaceOnUse"
       id="clipPath87"><path
         d="M 1.4305e-5,0 H 960.00001 V 540 H 1.4305e-5 Z"
         clip-rule="evenodd"
         id="path85" /></clipPath><clipPath
       clipPathUnits="userSpaceOnUse"
       id="clipPath103"><path
         d="M 1.4305e-5,0 H 960.00001 V 540 H 1.4305e-5 Z"
         clip-rule="evenodd"
         id="path101" /></clipPath><clipPath
       clipPathUnits="userSpaceOnUse"
       id="clipPath115"><path
         d="M 1.4305e-5,0 H 960.00001 V 540 H 1.4305e-5 Z"
         clip-rule="evenodd"
         id="path113" /></clipPath><clipPath
       clipPathUnits="userSpaceOnUse"
       id="clipPath129"><path
         d="M 1.4305e-5,0 H 960.00001 V 540 H 1.4305e-5 Z"
         clip-rule="evenodd"
         id="path127" /></clipPath><clipPath
       clipPathUnits="userSpaceOnUse"
       id="clipPath143"><path
         d="M 1.4305e-5,0 H 960.00001 V 540 H 1.4305e-5 Z"
         clip-rule="evenodd"
         id="path141" /></clipPath><clipPath
       clipPathUnits="userSpaceOnUse"
       id="clipPath155"><path
         d="M 1.4305e-5,0 H 960.00001 V 540 H 1.4305e-5 Z"
         clip-rule="evenodd"
         id="path153" /></clipPath><clipPath
       clipPathUnits="userSpaceOnUse"
       id="clipPath185"><path
         d="M 1.4305e-5,0 H 960.00001 V 540 H 1.4305e-5 Z"
         clip-rule="evenodd"
         id="path183" /></clipPath></defs><sodipodi:namedview
     id="namedview11"
     pagecolor="#ffffff"
     bordercolor="#666666"
     borderopacity="1.0"
     inkscape:pageshadow="2"
     inkscape:pageopacity="0.0"
     inkscape:pagecheckerboard="0"
     showgrid="false"
     fit-margin-top="0"
     fit-margin-left="0"
     fit-margin-right="0"
     fit-margin-bottom="0"
     inkscape:zoom="1.321875"
     inkscape:cx="636.21749"
     inkscape:cy="138.06147"
     inkscape:window-width="2560"
     inkscape:window-height="1361"
     inkscape:window-x="-9"
     inkscape:window-y="-9"
     inkscape:window-maximized="1"
     inkscape:current-layer="g15" /><g
     id="g15"
     inkscape:groupmode="layer"
     inkscape:label="ast"
     transform="matrix(1.3333333,0,0,-1.3333333,-3.8599999,498.70537)"><path
       d="m 4.02,282.28 c 0,4.78 3.8773,8.66 8.66,8.66 H 147.4 c 4.78,0 8.66,-3.88 8.66,-8.66 v -34.64 c 0,-4.78 -3.88,-8.66 -8.66,-8.66 H 12.68 c -4.7827,0 -8.66,3.88 -8.66,8.66 z"
       style="fill:none;stroke:#2f528f;stroke-width:2.25;stroke-linecap:butt;stroke-linejoin:miter;stroke-miterlimit:10;stroke-dasharray:none;stroke-opacity:1"
       id="path27" /><g
       id="g29"><g
         id="g31"
         clip-path="url(#clipPath35)"><text
           transform="matrix(1,0,0,-1,19.992,256.3)"
           style="font-variant:normal;font-weight:normal;font-size:24px;font-family:'Microsoft YaHei';-inkscape-font-specification:MicrosoftYaHei;writing-mode:lr-tb;fill:#000000;fill-opacity:1;fill-rule:nonzero;stroke:none"
           id="text39"><tspan
             x="0 24 48 72 96"
             y="0"
             sodipodi:role="line"
             id="tspan37">动态图代码</tspan></text></g></g><path
       d="m 204.54,345.94 c 0,6.08 4.92,11 11,11 h 130.04 c 6.08,0 11,-4.92 11,-11 v -44 c 0,-6.08 -4.92,-11 -11,-11 H 215.54 c -6.08,0 -11,4.92 -11,11 z"
       style="fill:none;stroke:#2f528f;stroke-width:2.25;stroke-linecap:butt;stroke-linejoin:miter;stroke-miterlimit:10;stroke-dasharray:none;stroke-opacity:1"
       id="path41" /><g
       id="g43"><g
         id="g45"
         clip-path="url(#clipPath49)"><text
           transform="matrix(1,0,0,-1,256.49,329.74)"
           style="font-variant:normal;font-weight:normal;font-size:24px;font-family:'Microsoft YaHei';-inkscape-font-specification:MicrosoftYaHei;writing-mode:lr-tb;fill:#000000;fill-opacity:1;fill-rule:nonzero;stroke:none"
           id="text53"><tspan
             x="0 24"
             y="0"
             sodipodi:role="line"
             id="tspan51">分词</tspan></text></g></g><g
       id="g55"><g
         id="g57"
         clip-path="url(#clipPath61)"><text
           transform="matrix(1,0,0,-1,232.49,300.94)"
           style="font-variant:normal;font-weight:normal;font-size:24px;font-family:'Microsoft YaHei';-inkscape-font-specification:MicrosoftYaHei;writing-mode:lr-tb;fill:#000000;fill-opacity:1;fill-rule:nonzero;stroke:none"
           id="text65"><tspan
             x="0 24 48 72"
             y="0"
             sodipodi:role="line"
             id="tspan63">词法分析</tspan></text></g></g><path
       d="m 201.3,237.94 c 0,6.08 4.92,11 11,11 h 130.04 c 6.08,0 11,-4.92 11,-11 v -44 c 0,-6.08 -4.92,-11 -11,-11 H 212.3 c -6.08,0 -11,4.92 -11,11 z"
       style="fill:none;stroke:#2f528f;stroke-width:2.25;stroke-linecap:butt;stroke-linejoin:miter;stroke-miterlimit:10;stroke-dasharray:none;stroke-opacity:1"
       id="path67" /><g
       id="g69"><g
         id="g71"
         clip-path="url(#clipPath75)"><text
           transform="matrix(1,0,0,-1,253.25,221.64)"
           style="font-variant:normal;font-weight:normal;font-size:24px;font-family:'Microsoft YaHei';-inkscape-font-specification:MicrosoftYaHei;writing-mode:lr-tb;fill:#000000;fill-opacity:1;fill-rule:nonzero;stroke:none"
           id="text79"><tspan
             x="0 24"
             y="0"
             sodipodi:role="line"
             id="tspan77">解析</tspan></text></g></g><g
       id="g81"><g
         id="g83"
         clip-path="url(#clipPath87)"><text
           transform="matrix(1,0,0,-1,229.25,192.84)"
           style="font-variant:normal;font-weight:normal;font-size:24px;font-family:'Microsoft YaHei';-inkscape-font-specification:MicrosoftYaHei;writing-mode:lr-tb;fill:#000000;fill-opacity:1;fill-rule:nonzero;stroke:none"
           id="text91"><tspan
             x="0 24 48 72"
             y="0"
             sodipodi:role="line"
             id="tspan89">语法分析</tspan></text></g></g><g
       id="g93"><path
         d="m 188.1,342.74 c 0,16.66 13.5,30.16 30.16,30.16 H 338.9 c 16.66,0 30.16,-13.5 30.16,-30.16 v -145.6 c 0,-16.66 -13.5,-30.16 -30.16,-30.16 H 218.26 c -16.66,0 -30.16,13.5 -30.16,30.16 z"
         style="fill:none;stroke:#2f528f;stroke-width:2.25;stroke-linecap:butt;stroke-linejoin:miter;stroke-miterlimit:10;stroke-dasharray:6.75, 2.25;stroke-dashoffset:0;stroke-opacity:1"
         id="path95" /></g><g
       id="g97"><g
         id="g99"
         clip-path="url(#clipPath103)"><text
           transform="matrix(1,0,0,-1,396.07,316.25)"
           style="font-variant:normal;font-weight:normal;font-size:24px;font-family:'Microsoft YaHei';-inkscape-font-specification:MicrosoftYaHei;writing-mode:lr-tb;fill:#000000;fill-opacity:1;fill-rule:nonzero;stroke:none"
           id="text107"><tspan
             x="0 24"
             y="0"
             sodipodi:role="line"
             id="tspan105">抽象</tspan></text></g></g><g
       id="g109"><g
         id="g111"
         clip-path="url(#clipPath115)"><text
           transform="matrix(1,0,0,-1,384.07,287.45)"
           style="font-variant:normal;font-weight:normal;font-size:24px;font-family:'Microsoft YaHei';-inkscape-font-specification:MicrosoftYaHei;writing-mode:lr-tb;fill:#000000;fill-opacity:1;fill-rule:nonzero;stroke:none"
           id="text119"><tspan
             x="0 24 48"
             y="0"
             sodipodi:role="line"
             id="tspan117">语法树</tspan></text></g></g><path
       d="m 472.26,286.9 c 0,6.08 4.92,11 11,11 H 613.3 c 6.08,0 11,-4.92 11,-11 v -44 c 0,-6.08 -4.92,-11 -11,-11 H 483.26 c -6.08,0 -11,4.92 -11,11 z"
       style="fill:none;stroke:#2f528f;stroke-width:2.25;stroke-linecap:butt;stroke-linejoin:miter;stroke-miterlimit:10;stroke-dasharray:none;stroke-opacity:1"
       id="path121" /><g
       id="g123"><g
         id="g125"
         clip-path="url(#clipPath129)"><text
           transform="matrix(1,0,0,-1,488.28,256.3)"
           style="font-variant:normal;font-weight:normal;font-size:24px;font-family:'Microsoft YaHei';-inkscape-font-specification:MicrosoftYaHei;writing-mode:lr-tb;fill:#000000;fill-opacity:1;fill-rule:nonzero;stroke:none"
           id="text133"><tspan
             x="0 24 48 72 96"
             y="0"
             sodipodi:role="line"
             id="tspan131">语法树转写</tspan></text></g></g><path
       d="m 675.06,286.9 c 0,6.08 4.92,11 11,11 h 83 c 6.08,0 11,-4.92 11,-11 v -44 c 0,-6.08 -4.92,-11 -11,-11 h -83 c -6.08,0 -11,4.92 -11,11 z"
       style="fill:none;stroke:#2f528f;stroke-width:2.25;stroke-linecap:butt;stroke-linejoin:miter;stroke-miterlimit:10;stroke-dasharray:none;stroke-opacity:1"
       id="path135" /><g
       id="g137"><g
         id="g139"
         clip-path="url(#clipPath143)"><text
           transform="matrix(1,0,0,-1,691.54,270.7)"
           style="font-variant:normal;font-weight:normal;font-size:24px;font-family:'Microsoft YaHei';-inkscape-font-specification:MicrosoftYaHei;writing-mode:lr-tb;fill:#000000;fill-opacity:1;fill-rule:nonzero;stroke:none"
           id="text147"><tspan
             x="0 24 48"
             y="0"
             sodipodi:role="line"
             id="tspan145">静态图</tspan></text></g></g><g
       id="g149"><g
         id="g151"
         clip-path="url(#clipPath155)"><text
           transform="matrix(1,0,0,-1,703.54,241.9)"
           style="font-variant:normal;font-weight:normal;font-size:24.024px;font-family:'Microsoft YaHei';-inkscape-font-specification:MicrosoftYaHei;writing-mode:lr-tb;fill:#000000;fill-opacity:1;fill-rule:nonzero;stroke:none"
           id="text159"><tspan
             x="0 24"
             y="0"
             sodipodi:role="line"
             id="tspan157">代码</tspan></text></g></g><path
       d="m 156,271.29 h 19.5 v 6.27 l 12.54,-12.54 -12.54,-12.54 v 6.27 H 156 Z"
       style="fill:#4472c4;fill-opacity:1;fill-rule:evenodd;stroke:none"
       id="path161" /><path
       d="m 156,271.29 h 19.5 v 6.27 l 12.54,-12.54 -12.54,-12.54 v 6.27 H 156 Z"
       style="fill:none;stroke:#2f528f;stroke-width:1;stroke-linecap:butt;stroke-linejoin:miter;stroke-miterlimit:10;stroke-dasharray:none;stroke-opacity:1"
       id="path163" /><path
       d="m 369.24,274.29 h 88.98 v 6.27 l 12.54,-12.54 -12.54,-12.54 v 6.27 h -88.98 z"
       style="fill:#4472c4;fill-opacity:1;fill-rule:evenodd;stroke:none"
       id="path165" /><path
       d="m 369.24,274.29 h 88.98 v 6.27 l 12.54,-12.54 -12.54,-12.54 v 6.27 h -88.98 z"
       style="fill:none;stroke:#2f528f;stroke-width:1;stroke-linecap:butt;stroke-linejoin:miter;stroke-miterlimit:10;stroke-dasharray:none;stroke-opacity:1"
       id="path167" /><path
       d="m 624.24,271.29 h 37.02 v 6.27 l 12.54,-12.54 -12.54,-12.54 v 6.27 h -37.02 z"
       style="fill:#4472c4;fill-opacity:1;fill-rule:evenodd;stroke:none"
       id="path169" /><path
       d="m 624.24,271.29 h 37.02 v 6.27 l 12.54,-12.54 -12.54,-12.54 v 6.27 h -37.02 z"
       style="fill:none;stroke:#2f528f;stroke-width:1;stroke-linecap:butt;stroke-linejoin:miter;stroke-miterlimit:10;stroke-dasharray:none;stroke-opacity:1"
       id="path171" /><path
       d="m 779.4,271.29 h 36.9 v 6.27 l 12.54,-12.54 -12.54,-12.54 v 6.27 h -36.9 z"
       style="fill:#4472c4;fill-opacity:1;fill-rule:evenodd;stroke:none"
       id="path173" /><path
       d="m 779.4,271.29 h 36.9 v 6.27 l 12.54,-12.54 -12.54,-12.54 v 6.27 h -36.9 z"
       style="fill:none;stroke:#2f528f;stroke-width:1;stroke-linecap:butt;stroke-linejoin:miter;stroke-miterlimit:10;stroke-dasharray:none;stroke-opacity:1"
       id="path175" /><path
       d="m 830.82,286.9 c 0,6.08 4.92,11 11,11 h 101.24 c 6.08,0 11,-4.92 11,-11 v -44 c 0,-6.08 -4.92,-11 -11,-11 H 841.82 c -6.08,0 -11,4.92 -11,11 z"
       style="fill:none;stroke:#2f528f;stroke-width:2.25;stroke-linecap:butt;stroke-linejoin:miter;stroke-miterlimit:10;stroke-dasharray:none;stroke-opacity:1"
       id="path177" /><g
       id="g179"><g
         id="g181"
         clip-path="url(#clipPath185)"><text
           transform="matrix(1,0,0,-1,844.42,256.3)"
           style="font-variant:normal;font-weight:normal;font-size:24px;font-family:'Microsoft YaHei';-inkscape-font-specification:MicrosoftYaHei;writing-mode:lr-tb;fill:#000000;fill-opacity:1;fill-rule:nonzero;stroke:none"
           id="text189"><tspan
             x="0 24 48 72"
             y="0"
             sodipodi:role="line"
             id="tspan187">静态生成</tspan></text></g></g></g></svg>
