<?xml version="1.0" encoding="UTF-8" standalone="no"?>
<!-- Created with Inkscape (http://www.inkscape.org/) -->

<svg
   version="1.1"
   id="svg9"
   xml:space="preserve"
   width="673.81329"
   height="288.55063"
   viewBox="0 0 673.81329 288.55063"
   sodipodi:docname="chain.svg"
   inkscape:version="1.1.1 (3bf5ae0d25, 2021-09-20)"
   xmlns:inkscape="http://www.inkscape.org/namespaces/inkscape"
   xmlns:sodipodi="http://sodipodi.sourceforge.net/DTD/sodipodi-0.dtd"
   xmlns="http://www.w3.org/2000/svg"
   xmlns:svg="http://www.w3.org/2000/svg"><defs
     id="defs13"><clipPath
       clipPathUnits="userSpaceOnUse"
       id="clipPath23"><path
         d="M 0,1.2207e-4 H 960 V 540.00012 H 0 Z"
         clip-rule="evenodd"
         id="path21" /></clipPath><clipPath
       clipPathUnits="userSpaceOnUse"
       id="clipPath37"><path
         d="M 1.4305e-5,0 H 960.00001 V 540 H 1.4305e-5 Z"
         clip-rule="evenodd"
         id="path35" /></clipPath><clipPath
       clipPathUnits="userSpaceOnUse"
       id="clipPath49"><path
         d="M 1.4305e-5,0 H 960.00001 V 540 H 1.4305e-5 Z"
         clip-rule="evenodd"
         id="path47" /></clipPath><clipPath
       clipPathUnits="userSpaceOnUse"
       id="clipPath71"><path
         d="M 1.4305e-5,0 H 960.00001 V 540 H 1.4305e-5 Z"
         clip-rule="evenodd"
         id="path69" /></clipPath><clipPath
       clipPathUnits="userSpaceOnUse"
       id="clipPath87"><path
         d="M 1.4305e-5,0 H 960.00001 V 540 H 1.4305e-5 Z"
         clip-rule="evenodd"
         id="path85" /></clipPath><clipPath
       clipPathUnits="userSpaceOnUse"
       id="clipPath99"><path
         d="M 1.4305e-5,0 H 960.00001 V 540 H 1.4305e-5 Z"
         clip-rule="evenodd"
         id="path97" /></clipPath><clipPath
       clipPathUnits="userSpaceOnUse"
       id="clipPath115"><path
         d="M 1.4305e-5,0 H 960.00001 V 540 H 1.4305e-5 Z"
         clip-rule="evenodd"
         id="path113" /></clipPath><clipPath
       clipPathUnits="userSpaceOnUse"
       id="clipPath131"><path
         d="M 1.4305e-5,0 H 960.00001 V 540 H 1.4305e-5 Z"
         clip-rule="evenodd"
         id="path129" /></clipPath><clipPath
       clipPathUnits="userSpaceOnUse"
       id="clipPath147"><path
         d="M 1.4305e-5,0 H 960.00001 V 540 H 1.4305e-5 Z"
         clip-rule="evenodd"
         id="path145" /></clipPath><clipPath
       clipPathUnits="userSpaceOnUse"
       id="clipPath159"><path
         d="M 1.4305e-5,0 H 960.00001 V 540 H 1.4305e-5 Z"
         clip-rule="evenodd"
         id="path157" /></clipPath><clipPath
       clipPathUnits="userSpaceOnUse"
       id="clipPath175"><path
         d="M 1.4305e-5,0 H 960.00001 V 540 H 1.4305e-5 Z"
         clip-rule="evenodd"
         id="path173" /></clipPath><clipPath
       clipPathUnits="userSpaceOnUse"
       id="clipPath187"><path
         d="M 1.4305e-5,0 H 960.00001 V 540 H 1.4305e-5 Z"
         clip-rule="evenodd"
         id="path185" /></clipPath><clipPath
       clipPathUnits="userSpaceOnUse"
       id="clipPath203"><path
         d="M 1.4305e-5,0 H 960.00001 V 540 H 1.4305e-5 Z"
         clip-rule="evenodd"
         id="path201" /></clipPath><clipPath
       clipPathUnits="userSpaceOnUse"
       id="clipPath219"><path
         d="M 1.4305e-5,0 H 960.00001 V 540 H 1.4305e-5 Z"
         clip-rule="evenodd"
         id="path217" /></clipPath></defs><sodipodi:namedview
     id="namedview11"
     pagecolor="#ffffff"
     bordercolor="#666666"
     borderopacity="1.0"
     inkscape:pageshadow="2"
     inkscape:pageopacity="0.0"
     inkscape:pagecheckerboard="0"
     showgrid="false"
     fit-margin-top="0"
     fit-margin-left="0"
     fit-margin-right="0"
     fit-margin-bottom="0"
     inkscape:zoom="1.321875"
     inkscape:cx="415.31915"
     inkscape:cy="184.96454"
     inkscape:window-width="2560"
     inkscape:window-height="1361"
     inkscape:window-x="-9"
     inkscape:window-y="-9"
     inkscape:window-maximized="1"
     inkscape:current-layer="g15" /><g
     id="g15"
     inkscape:groupmode="layer"
     inkscape:label="chain"
     transform="matrix(1.3333333,0,0,-1.3333333,-224.77333,544.96431)"><path
       d="m 267.36,348.87 h 282.78 v 3.33 l 6.66,-6.66 -6.66,-6.66 v 3.33 H 267.36 Z"
       style="fill:#4472c4;fill-opacity:1;fill-rule:evenodd;stroke:none"
       id="path27" /><path
       d="m 267.36,348.87 h 282.78 v 3.33 l 6.66,-6.66 -6.66,-6.66 v 3.33 H 267.36 Z"
       style="fill:none;stroke:#2f528f;stroke-width:1;stroke-linecap:butt;stroke-linejoin:miter;stroke-miterlimit:10;stroke-dasharray:none;stroke-opacity:1"
       id="path29" /><g
       id="g31"><g
         id="g33"
         clip-path="url(#clipPath37)"><text
           transform="matrix(1,0,0,-1,403.63,393.65)"
           style="font-variant:normal;font-weight:normal;font-size:18px;font-family:'Microsoft YaHei';-inkscape-font-specification:MicrosoftYaHei;writing-mode:lr-tb;fill:#000000;fill-opacity:1;fill-rule:nonzero;stroke:none"
           id="text41"><tspan
             x="0 18"
             y="0"
             sodipodi:role="line"
             id="tspan39">前向</tspan></text></g></g><g
       id="g43"><g
         id="g45"
         clip-path="url(#clipPath49)"><text
           transform="matrix(1,0,0,-1,411.72,194.78)"
           style="font-variant:normal;font-weight:normal;font-size:18px;font-family:'Microsoft YaHei';-inkscape-font-specification:MicrosoftYaHei;writing-mode:lr-tb;fill:#000000;fill-opacity:1;fill-rule:nonzero;stroke:none"
           id="text53"><tspan
             x="0 18"
             y="0"
             sodipodi:role="line"
             id="tspan51">反向</tspan></text></g></g><path
       d="m 300.56,345.48 2.06,-0.03 2.08,-0.09 2.08,-0.15 2.08,-0.2 2.06,-0.27 2.06,-0.32 2.06,-0.38 2.05,-0.43 2.04,-0.48 2.03,-0.54 2.02,-0.58 2.01,-0.64 1.99,-0.69 1.98,-0.73 1.97,-0.78 1.95,-0.83 3.85,-1.78 3.77,-1.97 3.7,-2.13 3.61,-2.28 3.5,-2.45 3.4,-2.58 3.29,-2.71 3.16,-2.85 3.04,-2.98 2.9,-3.08 2.76,-3.19 2.6,-3.29 2.44,-3.38 2.27,-3.46 1.08,-1.77 1.03,-1.79 0.97,-1.8 0.93,-1.82 0.89,-1.83 0.83,-1.84 0.79,-1.87 0.73,-1.87 0.68,-1.89 0.63,-1.89 0.57,-1.92 0.51,-1.92 0.46,-1.92 0.41,-1.94 0.35,-1.97 0.2,-2.12 -2.99,-0.29 -0.2,2.06 0.02,-0.11 -0.33,1.89 0.01,-0.05 -0.4,1.89 0.01,-0.04 -0.45,1.89 0.01,-0.04 -0.5,1.87 0.01,-0.04 -0.56,1.87 0.01,-0.04 -0.61,1.86 0.01,-0.03 -0.66,1.84 0.01,-0.04 -0.72,1.84 0.02,-0.04 -0.77,1.83 0.01,-0.03 -0.82,1.81 0.02,-0.04 -0.87,1.8 0.02,-0.03 -0.92,1.79 0.02,-0.04 -0.96,1.77 0.01,-0.03 -1,1.76 0.02,-0.04 -1.06,1.74 0.03,-0.04 -2.24,3.41 0.04,-0.06 -2.4,3.32 0.04,-0.05 -2.56,3.24 0.04,-0.05 -2.72,3.14 0.04,-0.04 -2.85,3.03 0.04,-0.04 -2.99,2.93 0.04,-0.04 -3.12,2.8 0.05,-0.04 -3.24,2.68 0.05,-0.04 -3.35,2.54 0.05,-0.03 -3.45,2.41 0.05,-0.04 -3.55,2.25 0.05,-0.03 -3.64,2.1 0.06,-0.03 -3.71,1.93 0.06,-0.03 -3.79,1.76 0.04,-0.02 -1.92,0.82 0.04,-0.02 -1.93,0.77 0.03,-0.02 -1.95,0.72 0.03,-0.01 -1.96,0.68 0.03,-0.01 -1.97,0.63 0.04,-0.02 -1.98,0.57 h 0.02 l -1.99,0.53 0.04,-0.01 -2,0.47 0.04,-0.01 -2.01,0.42 0.03,-0.01 -2.01,0.37 h 0.03 l -2.02,0.31 0.04,-0.01 -2.03,0.27 0.05,-0.01 -2.04,0.2 h 0.05 l -2.04,0.14 h 0.04 l -2.04,0.09 h 0.05 l -2.04,0.03 z m 90.75,-73.73 -3.79,-9.32 -5.19,8.62 z"
       style="fill:#4472c4;fill-opacity:1;fill-rule:nonzero;stroke:none"
       id="path55" /><path
       d="M 556.8,242.97 H 273.9 v -3.33 l -6.66,6.66 6.66,6.66 v -3.33 h 282.9 z"
       style="fill:#00b050;fill-opacity:1;fill-rule:evenodd;stroke:none"
       id="path57" /><path
       d="M 556.8,242.97 H 273.9 v -3.33 l -6.66,6.66 6.66,6.66 v -3.33 h 282.9 z"
       style="fill:none;stroke:#00b050;stroke-width:1;stroke-linecap:butt;stroke-linejoin:miter;stroke-miterlimit:10;stroke-dasharray:none;stroke-opacity:1"
       id="path59" /><path
       d="m 367.86,345.48 c 0,12.03 24.26,21.78 54.18,21.78 29.92,0 54.18,-9.75 54.18,-21.78 0,-12.03 -24.26,-21.78 -54.18,-21.78 -29.92,0 -54.18,9.75 -54.18,21.78 z"
       style="fill:#ffffff;fill-opacity:1;fill-rule:evenodd;stroke:none"
       id="path61" /><path
       d="m 367.86,345.48 c 0,12.03 24.26,21.78 54.18,21.78 29.92,0 54.18,-9.75 54.18,-21.78 0,-12.03 -24.26,-21.78 -54.18,-21.78 -29.92,0 -54.18,9.75 -54.18,21.78 z"
       style="fill:none;stroke:#000000;stroke-width:1.5;stroke-linecap:butt;stroke-linejoin:miter;stroke-miterlimit:10;stroke-dasharray:none;stroke-opacity:1"
       id="path63" /><g
       id="g65"><g
         id="g67"
         clip-path="url(#clipPath71)"><text
           transform="matrix(1,0,0,-1,394.56,338.88)"
           style="font-variant:normal;font-weight:normal;font-size:18px;font-family:'Times New Roman';-inkscape-font-specification:TimesNewRomanPSMT;writing-mode:lr-tb;fill:#000000;fill-opacity:1;fill-rule:nonzero;stroke:none"
           id="text75"><tspan
             x="0 13.95 21.996 27 41.004002 50.004002"
             y="0"
             sodipodi:role="line"
             id="tspan73">matmul</tspan></text></g></g><path
       d="m 371.7,247.02 c 0,12.06 24.26,21.84 54.18,21.84 29.92,0 54.18,-9.78 54.18,-21.84 0,-12.06 -24.26,-21.84 -54.18,-21.84 -29.92,0 -54.18,9.78 -54.18,21.84 z"
       style="fill:#ffffff;fill-opacity:1;fill-rule:evenodd;stroke:none"
       id="path77" /><path
       d="m 371.7,247.02 c 0,12.06 24.26,21.84 54.18,21.84 29.92,0 54.18,-9.78 54.18,-21.84 0,-12.06 -24.26,-21.84 -54.18,-21.84 -29.92,0 -54.18,9.78 -54.18,21.84 z"
       style="fill:none;stroke:#000000;stroke-width:1.5;stroke-linecap:butt;stroke-linejoin:miter;stroke-miterlimit:10;stroke-dasharray:none;stroke-opacity:1"
       id="path79" /><g
       id="g81"><g
         id="g83"
         clip-path="url(#clipPath87)"><text
           transform="matrix(1,0,0,-1,407.28,251.18)"
           style="font-variant:normal;font-weight:normal;font-size:18px;font-family:'Times New Roman';-inkscape-font-specification:TimesNewRomanPSMT;writing-mode:lr-tb;fill:#000000;fill-opacity:1;fill-rule:nonzero;stroke:none"
           id="text91"><tspan
             x="0 9 14.994 23.021999 32.021999"
             y="0"
             sodipodi:role="line"
             id="tspan89">grad:</tspan></text></g></g><g
       id="g93"><g
         id="g95"
         clip-path="url(#clipPath99)"><text
           transform="matrix(1,0,0,-1,398.4,229.58)"
           style="font-variant:normal;font-weight:normal;font-size:18.024px;font-family:'Times New Roman';-inkscape-font-specification:TimesNewRomanPSMT;writing-mode:lr-tb;fill:#000000;fill-opacity:1;fill-rule:nonzero;stroke:none"
           id="text103"><tspan
             x="0 13.914528 21.917185 26.981928 40.896458 49.908455"
             y="0"
             sodipodi:role="line"
             id="tspan101">matmul</tspan></text></g></g><path
       d="m 191.04,352.2 h 56.16 v 26.52 h -56.16 z"
       style="fill:none;stroke:#000000;stroke-width:1;stroke-linecap:butt;stroke-linejoin:miter;stroke-miterlimit:10;stroke-dasharray:none;stroke-opacity:1"
       id="path107" /><g
       id="g109"><g
         id="g111"
         clip-path="url(#clipPath115)"><text
           transform="matrix(1,0,0,-1,211.85,358.97)"
           style="font-style:italic;font-variant:normal;font-weight:bold;font-size:18.024px;font-family:'Times New Roman';-inkscape-font-specification:TimesNewRomanPS-BoldItalicMT;writing-mode:lr-tb;fill:#000000;fill-opacity:1;fill-rule:nonzero;stroke:none"
           id="text119"><tspan
             x="0"
             y="0"
             id="tspan117">X</tspan></text></g></g><path
       d="m 191.76,316.44 h 56.16 v 26.52 h -56.16 z"
       style="fill:none;stroke:#000000;stroke-width:1;stroke-linecap:butt;stroke-linejoin:miter;stroke-miterlimit:10;stroke-dasharray:none;stroke-opacity:1"
       id="path123" /><g
       id="g125"><g
         id="g127"
         clip-path="url(#clipPath131)"><text
           transform="matrix(1,0,0,-1,212.62,323.14)"
           style="font-style:italic;font-variant:normal;font-weight:bold;font-size:18px;font-family:'Times New Roman';-inkscape-font-specification:TimesNewRomanPS-BoldItalicMT;writing-mode:lr-tb;fill:#000000;fill-opacity:1;fill-rule:nonzero;stroke:none"
           id="text135"><tspan
             x="0"
             y="0"
             id="tspan133">W</tspan></text></g></g><path
       d="m 574.70213,330.0105 h 56.16 v 26.52 h -56.16 z"
       style="fill:none;stroke:#000000;stroke-width:1;stroke-linecap:butt;stroke-linejoin:miter;stroke-miterlimit:10;stroke-dasharray:none;stroke-opacity:1"
       id="path139" /><g
       id="g141"><g
         id="g143"
         clip-path="url(#clipPath147)"><text
           transform="matrix(1,0,0,-1,593.54,337.68)"
           style="font-style:italic;font-variant:normal;font-weight:bold;font-size:18px;font-family:'Times New Roman';-inkscape-font-specification:TimesNewRomanPS-BoldItalicMT;writing-mode:lr-tb;fill:#000000;fill-opacity:1;fill-rule:nonzero;stroke:none"
           id="text151"><tspan
             x="0"
             y="0"
             id="tspan149">X</tspan></text></g></g><g
       id="g153"><g
         id="g155"
         clip-path="url(#clipPath159)"><text
           transform="matrix(1,0,0,-1,605.54,333.24)"
           style="font-style:italic;font-variant:normal;font-weight:bold;font-size:12px;font-family:'Times New Roman';-inkscape-font-specification:TimesNewRomanPS-BoldItalicMT;writing-mode:lr-tb;fill:#000000;fill-opacity:1;fill-rule:nonzero;stroke:none"
           id="text163"><tspan
             x="0"
             y="0"
             id="tspan161">1</tspan></text></g></g><path
       d="m 578.16,235.44 h 95.28 v 26.52 h -95.28 z"
       style="fill:none;stroke:#000000;stroke-width:1;stroke-linecap:butt;stroke-linejoin:miter;stroke-miterlimit:10;stroke-dasharray:none;stroke-opacity:1"
       id="path167" /><g
       id="g169"><g
         id="g171"
         clip-path="url(#clipPath175)"><text
           transform="matrix(1,0,0,-1,598.7,240.89)"
           style="font-style:italic;font-variant:normal;font-weight:bold;font-size:18px;font-family:'Times New Roman';-inkscape-font-specification:TimesNewRomanPS-BoldItalicMT;writing-mode:lr-tb;fill:#000000;fill-opacity:1;fill-rule:nonzero;stroke:none"
           id="text179"><tspan
             x="0 9 16.002001 25.002001 34.001999 43.001999"
             y="0"
             sodipodi:role="line"
             id="tspan177">grad X</tspan></text></g></g><g
       id="g181"><g
         id="g183"
         clip-path="url(#clipPath187)"><text
           transform="matrix(1,0,0,-1,653.66,236.45)"
           style="font-style:italic;font-variant:normal;font-weight:bold;font-size:12px;font-family:'Times New Roman';-inkscape-font-specification:TimesNewRomanPS-BoldItalicMT;writing-mode:lr-tb;fill:#000000;fill-opacity:1;fill-rule:nonzero;stroke:none"
           id="text191"><tspan
             x="0"
             y="0"
             id="tspan189">1</tspan></text></g></g><path
       d="m 169.08,248.76 h 81.24 v 26.52 h -81.24 z"
       style="fill:none;stroke:#000000;stroke-width:1;stroke-linecap:butt;stroke-linejoin:miter;stroke-miterlimit:10;stroke-dasharray:none;stroke-opacity:1"
       id="path195" /><g
       id="g197"><g
         id="g199"
         clip-path="url(#clipPath203)"><text
           transform="matrix(1,0,0,-1,182.02,255.43)"
           style="font-style:italic;font-variant:normal;font-weight:bold;font-size:18px;font-family:'Times New Roman';-inkscape-font-specification:TimesNewRomanPS-BoldItalicMT;writing-mode:lr-tb;fill:#000000;fill-opacity:1;fill-rule:nonzero;stroke:none"
           id="text207"><tspan
             x="0 9 16.002001 25.002001 34.001999 38.501999"
             y="0"
             sodipodi:role="line"
             id="tspan205">grad X</tspan></text></g></g><path
       d="m 169.08,212.88 h 81.96 v 26.52 h -81.96 z"
       style="fill:none;stroke:#000000;stroke-width:1;stroke-linecap:butt;stroke-linejoin:miter;stroke-miterlimit:10;stroke-dasharray:none;stroke-opacity:1"
       id="path211" /><g
       id="g213"><g
         id="g215"
         clip-path="url(#clipPath219)"><text
           transform="matrix(1,0,0,-1,183.07,219.48)"
           style="font-style:italic;font-variant:normal;font-weight:bold;font-size:18px;font-family:'Times New Roman';-inkscape-font-specification:TimesNewRomanPS-BoldItalicMT;writing-mode:lr-tb;fill:#000000;fill-opacity:1;fill-rule:nonzero;stroke:none"
           id="text223"><tspan
             x="0 9 16.002001 25.002001 34.037998 38.231998"
             y="0"
             sodipodi:role="line"
             id="tspan221">grad W</tspan></text></g></g></g></svg>
