<?xml version="1.0" encoding="UTF-8" standalone="no"?>
<!-- Created with Inkscape (http://www.inkscape.org/) -->

<svg
   version="1.1"
   id="svg5783"
   xml:space="preserve"
   width="850.20532"
   height="324.56"
   viewBox="0 0 850.20532 324.56"
   sodipodi:docname="dynamic-gen.svg"
   inkscape:version="1.1.1 (3bf5ae0d25, 2021-09-20)"
   xmlns:inkscape="http://www.inkscape.org/namespaces/inkscape"
   xmlns:sodipodi="http://sodipodi.sourceforge.net/DTD/sodipodi-0.dtd"
   xmlns="http://www.w3.org/2000/svg"
   xmlns:svg="http://www.w3.org/2000/svg"><defs
     id="defs5787"><clipPath
       clipPathUnits="userSpaceOnUse"
       id="clipPath5797"><path
         d="M 0,1.2207e-4 H 960 V 540.00012 H 0 Z"
         clip-rule="evenodd"
         id="path5795" /></clipPath><clipPath
       clipPathUnits="userSpaceOnUse"
       id="clipPath5807"><path
         d="M 1.4305e-5,0 H 960.00001 V 540 H 1.4305e-5 Z"
         clip-rule="evenodd"
         id="path5805" /></clipPath><clipPath
       clipPathUnits="userSpaceOnUse"
       id="clipPath5819"><path
         d="M 1.4305e-5,0 H 960.00001 V 540 H 1.4305e-5 Z"
         clip-rule="evenodd"
         id="path5817" /></clipPath><clipPath
       clipPathUnits="userSpaceOnUse"
       id="clipPath5831"><path
         d="M 1.4305e-5,0 H 960.00001 V 540 H 1.4305e-5 Z"
         clip-rule="evenodd"
         id="path5829" /></clipPath><clipPath
       clipPathUnits="userSpaceOnUse"
       id="clipPath5843"><path
         d="M 1.4305e-5,0 H 960.00001 V 540 H 1.4305e-5 Z"
         clip-rule="evenodd"
         id="path5841" /></clipPath><clipPath
       clipPathUnits="userSpaceOnUse"
       id="clipPath5855"><path
         d="M 1.4305e-5,0 H 960.00001 V 540 H 1.4305e-5 Z"
         clip-rule="evenodd"
         id="path5853" /></clipPath><clipPath
       clipPathUnits="userSpaceOnUse"
       id="clipPath5867"><path
         d="M 1.4305e-5,0 H 960.00001 V 540 H 1.4305e-5 Z"
         clip-rule="evenodd"
         id="path5865" /></clipPath><clipPath
       clipPathUnits="userSpaceOnUse"
       id="clipPath5879"><path
         d="M 1.4305e-5,0 H 960.00001 V 540 H 1.4305e-5 Z"
         clip-rule="evenodd"
         id="path5877" /></clipPath><clipPath
       clipPathUnits="userSpaceOnUse"
       id="clipPath5891"><path
         d="M 1.4305e-5,0 H 960.00001 V 540 H 1.4305e-5 Z"
         clip-rule="evenodd"
         id="path5889" /></clipPath><clipPath
       clipPathUnits="userSpaceOnUse"
       id="clipPath5903"><path
         d="M 1.4305e-5,0 H 960.00001 V 540 H 1.4305e-5 Z"
         clip-rule="evenodd"
         id="path5901" /></clipPath><clipPath
       clipPathUnits="userSpaceOnUse"
       id="clipPath5915"><path
         d="M 1.4305e-5,0 H 960.00001 V 540 H 1.4305e-5 Z"
         clip-rule="evenodd"
         id="path5913" /></clipPath><clipPath
       clipPathUnits="userSpaceOnUse"
       id="clipPath5943"><path
         d="M 1.4305e-5,0 H 960.00001 V 540 H 1.4305e-5 Z"
         clip-rule="evenodd"
         id="path5941" /></clipPath><clipPath
       clipPathUnits="userSpaceOnUse"
       id="clipPath5955"><path
         d="M 1.4305e-5,0 H 960.00001 V 540 H 1.4305e-5 Z"
         clip-rule="evenodd"
         id="path5953" /></clipPath><clipPath
       clipPathUnits="userSpaceOnUse"
       id="clipPath5967"><path
         d="M 1.4305e-5,0 H 960.00001 V 540 H 1.4305e-5 Z"
         clip-rule="evenodd"
         id="path5965" /></clipPath><clipPath
       clipPathUnits="userSpaceOnUse"
       id="clipPath5981"><path
         d="M 1.4305e-5,0 H 960.00001 V 540 H 1.4305e-5 Z"
         clip-rule="evenodd"
         id="path5979" /></clipPath><clipPath
       clipPathUnits="userSpaceOnUse"
       id="clipPath5993"><path
         d="M 1.4305e-5,0 H 960.00001 V 540 H 1.4305e-5 Z"
         clip-rule="evenodd"
         id="path5991" /></clipPath><clipPath
       clipPathUnits="userSpaceOnUse"
       id="clipPath6007"><path
         d="M 1.4305e-5,0 H 960.00001 V 540 H 1.4305e-5 Z"
         clip-rule="evenodd"
         id="path6005" /></clipPath><clipPath
       clipPathUnits="userSpaceOnUse"
       id="clipPath6019"><path
         d="M 1.4305e-5,0 H 960.00001 V 540 H 1.4305e-5 Z"
         clip-rule="evenodd"
         id="path6017" /></clipPath><clipPath
       clipPathUnits="userSpaceOnUse"
       id="clipPath6031"><path
         d="M 1.4305e-5,0 H 960.00001 V 540 H 1.4305e-5 Z"
         clip-rule="evenodd"
         id="path6029" /></clipPath><clipPath
       clipPathUnits="userSpaceOnUse"
       id="clipPath6045"><path
         d="M 1.4305e-5,0 H 960.00001 V 540 H 1.4305e-5 Z"
         clip-rule="evenodd"
         id="path6043" /></clipPath><clipPath
       clipPathUnits="userSpaceOnUse"
       id="clipPath6057"><path
         d="M 1.4305e-5,0 H 960.00001 V 540 H 1.4305e-5 Z"
         clip-rule="evenodd"
         id="path6055" /></clipPath><clipPath
       clipPathUnits="userSpaceOnUse"
       id="clipPath6071"><path
         d="M 1.4305e-5,0 H 960.00001 V 540 H 1.4305e-5 Z"
         clip-rule="evenodd"
         id="path6069" /></clipPath><clipPath
       clipPathUnits="userSpaceOnUse"
       id="clipPath6083"><path
         d="M 1.4305e-5,0 H 960.00001 V 540 H 1.4305e-5 Z"
         clip-rule="evenodd"
         id="path6081" /></clipPath><clipPath
       clipPathUnits="userSpaceOnUse"
       id="clipPath6095"><path
         d="M 1.4305e-5,0 H 960.00001 V 540 H 1.4305e-5 Z"
         clip-rule="evenodd"
         id="path6093" /></clipPath><clipPath
       clipPathUnits="userSpaceOnUse"
       id="clipPath6109"><path
         d="M 1.4305e-5,0 H 960.00001 V 540 H 1.4305e-5 Z"
         clip-rule="evenodd"
         id="path6107" /></clipPath><clipPath
       clipPathUnits="userSpaceOnUse"
       id="clipPath6121"><path
         d="M 1.4305e-5,0 H 960.00001 V 540 H 1.4305e-5 Z"
         clip-rule="evenodd"
         id="path6119" /></clipPath><clipPath
       clipPathUnits="userSpaceOnUse"
       id="clipPath6135"><path
         d="M 1.4305e-5,0 H 960.00001 V 540 H 1.4305e-5 Z"
         clip-rule="evenodd"
         id="path6133" /></clipPath></defs><sodipodi:namedview
     id="namedview5785"
     pagecolor="#ffffff"
     bordercolor="#666666"
     borderopacity="1.0"
     inkscape:pageshadow="2"
     inkscape:pageopacity="0.0"
     inkscape:pagecheckerboard="0"
     showgrid="false"
     fit-margin-top="0"
     fit-margin-left="0"
     fit-margin-right="0"
     fit-margin-bottom="0"
     inkscape:zoom="1.321875"
     inkscape:cx="497.02128"
     inkscape:cy="215.22459"
     inkscape:window-width="2560"
     inkscape:window-height="1361"
     inkscape:window-x="-9"
     inkscape:window-y="-9"
     inkscape:window-maximized="1"
     inkscape:current-layer="g5789" /><g
     id="g5789"
     inkscape:groupmode="layer"
     inkscape:label="dynamic-gen"
     transform="matrix(1.3333333,0,0,-1.3333333,-143.19687,575.47999)"><g
       id="g5801"><g
         id="g5803"
         clip-path="url(#clipPath5807)"><text
           transform="matrix(1,0,0,-1,106.8,371.16)"
           style="font-variant:normal;font-weight:normal;font-size:18px;font-family:'Times New Roman';-inkscape-font-specification:TimesNewRomanPSMT;writing-mode:lr-tb;fill:#2e75b6;fill-opacity:1;fill-rule:nonzero;stroke:none"
           id="text5811"><tspan
             x="0 9 17.063999"
             y="0"
             sodipodi:role="line"
             id="tspan5809">def</tspan></text></g></g><g
       id="g5813"><g
         id="g5815"
         clip-path="url(#clipPath5819)"><text
           transform="matrix(1,0,0,-1,134.3,371.16)"
           style="font-variant:normal;font-weight:normal;font-size:18px;font-family:'Times New Roman';-inkscape-font-specification:TimesNewRomanPSMT;writing-mode:lr-tb;fill:#000000;fill-opacity:1;fill-rule:nonzero;stroke:none"
           id="text5823"><tspan
             x="0 13.914 22.914 31.914 39.905998 44.981998 50.976002 63.972 68.472 72.972 78.966003 83.970001 91.998001 100.998 106.992"
             y="0"
             sodipodi:role="line"
             id="tspan5821">model(X, flag):</tspan></text></g></g><g
       id="g5825"><g
         id="g5827"
         clip-path="url(#clipPath5831)"><text
           transform="matrix(1,0,0,-1,133.82,349.56)"
           style="font-variant:normal;font-weight:normal;font-size:18.024px;font-family:'Times New Roman';-inkscape-font-specification:TimesNewRomanPSMT;writing-mode:lr-tb;fill:#000000;fill-opacity:1;fill-rule:nonzero;stroke:none"
           id="text5835"><tspan
             x="0 5.0106721 11.012664 15.518664 21.520657 26.531328 34.533985 43.545982 53.711521 62.723518"
             y="0"
             sodipodi:role="line"
             id="tspan5833">if flag&gt;0:</tspan></text></g></g><g
       id="g5837"><g
         id="g5839"
         clip-path="url(#clipPath5843)"><text
           transform="matrix(1,0,0,-1,160.1,327.94)"
           style="font-variant:normal;font-weight:normal;font-size:18px;font-family:'Times New Roman';-inkscape-font-specification:TimesNewRomanPSMT;writing-mode:lr-tb;fill:#000000;fill-opacity:1;fill-rule:nonzero;stroke:none"
           id="text5847"><tspan
             x="0 12.24 16.902 27.054001 31.554001 45.467999 53.459999 58.535999 72.449997 81.449997 86.454002 92.447998 109.44 118.44 122.94 127.512 140.508"
             y="0"
             sodipodi:role="line"
             id="tspan5845">Y = matmul(W1, X)</tspan></text></g></g><g
       id="g5849"><g
         id="g5851"
         clip-path="url(#clipPath5855)"><text
           transform="matrix(1,0,0,-1,133.82,306.34)"
           style="font-variant:normal;font-weight:normal;font-size:18px;font-family:'Times New Roman';-inkscape-font-specification:TimesNewRomanPSMT;writing-mode:lr-tb;fill:#000000;fill-opacity:1;fill-rule:nonzero;stroke:none"
           id="text5859"><tspan
             x="0 7.9920001 13.068 20.07 28.062"
             y="0"
             sodipodi:role="line"
             id="tspan5857">else:</tspan></text></g></g><g
       id="g5861"><g
         id="g5863"
         clip-path="url(#clipPath5867)"><text
           transform="matrix(1,0,0,-1,160.1,284.74)"
           style="font-variant:normal;font-weight:normal;font-size:18px;font-family:'Times New Roman';-inkscape-font-specification:TimesNewRomanPSMT;writing-mode:lr-tb;fill:#000000;fill-opacity:1;fill-rule:nonzero;stroke:none"
           id="text5871"><tspan
             x="0 12.24 16.902 27.054001 31.554001 45.467999 53.459999 58.535999 72.449997 81.449997 86.454002 92.447998 109.44 118.44 122.94 127.512 140.508"
             y="0"
             sodipodi:role="line"
             id="tspan5869">Y = matmul(W2, X)</tspan></text></g></g><g
       id="g5873"><g
         id="g5875"
         clip-path="url(#clipPath5879)"><text
           transform="matrix(1,0,0,-1,133.1,263.14)"
           style="font-variant:normal;font-weight:normal;font-size:18px;font-family:'Times New Roman';-inkscape-font-specification:TimesNewRomanPSMT;writing-mode:lr-tb;fill:#000000;fill-opacity:1;fill-rule:nonzero;stroke:none"
           id="text5883"><tspan
             x="0 12.24 16.902 27.054001 30.816 43.056 47.591999 57.743999 62.243999"
             y="0"
             sodipodi:role="line"
             id="tspan5881">Y = Y + b</tspan></text></g></g><g
       id="g5885"><g
         id="g5887"
         clip-path="url(#clipPath5891)"><text
           transform="matrix(1,0,0,-1,133.1,241.54)"
           style="font-variant:normal;font-weight:normal;font-size:18.024px;font-family:'Times New Roman';-inkscape-font-specification:TimesNewRomanPSMT;writing-mode:lr-tb;fill:#000000;fill-opacity:1;fill-rule:nonzero;stroke:none"
           id="text5895"><tspan
             x="0 12.238296 16.906511 27.072048 31.578049 37.58004 45.582695 50.593369 59.60537 65.607361 78.620689"
             y="0"
             sodipodi:role="line"
             id="tspan5893">Y = relu(Y)</tspan></text></g></g><g
       id="g5897"><g
         id="g5899"
         clip-path="url(#clipPath5903)"><text
           transform="matrix(1,0,0,-1,133.82,219.91)"
           style="font-variant:normal;font-weight:normal;font-size:18px;font-family:'Times New Roman';-inkscape-font-specification:TimesNewRomanPSMT;writing-mode:lr-tb;fill:#2e75b6;fill-opacity:1;fill-rule:nonzero;stroke:none"
           id="text5907"><tspan
             x="0 5.994 13.986 19.062 28.062 34.056"
             y="0"
             sodipodi:role="line"
             id="tspan5905">return</tspan></text></g></g><g
       id="g5909"><g
         id="g5911"
         clip-path="url(#clipPath5915)"><text
           transform="matrix(1,0,0,-1,180.62,219.91)"
           style="font-variant:normal;font-weight:normal;font-size:18px;font-family:'Times New Roman';-inkscape-font-specification:TimesNewRomanPSMT;writing-mode:lr-tb;fill:#000000;fill-opacity:1;fill-rule:nonzero;stroke:none"
           id="text5919"><tspan
             x="0"
             y="0"
             id="tspan5917">Y</tspan></text></g></g><path
       d="m 310.38,334.36 h 54.56 v 68.3 l -0.75,-0.75 h 48.82 v 1.5 h -49.57 v -68.3 l 0.75,0.75 h -53.81 z m 101.63,65.3 6,3 -6,3 z"
       style="fill:#0070c0;fill-opacity:1;fill-rule:nonzero;stroke:none"
       id="path5921" /><g
       id="g5923"><path
         d="m 417.9,423.54 c 0,4.04 3.28,7.32 7.32,7.32 h 307.8 c 4.04,0 7.32,-3.28 7.32,-7.32 v -29.28 c 0,-4.04 -3.28,-7.32 -7.32,-7.32 h -307.8 c -4.04,0 -7.32,3.28 -7.32,7.32 z"
         style="fill:none;stroke:#2f528f;stroke-width:1.5;stroke-linecap:butt;stroke-linejoin:miter;stroke-miterlimit:10;stroke-dasharray:1.5, 1.5;stroke-dashoffset:0;stroke-opacity:1"
         id="path5925" /></g><g
       id="g5927"><path
         d="m 421.98,348.92 c 0,4.03 3.27,7.3 7.3,7.3 H 737 c 4.03,0 7.3,-3.27 7.3,-7.3 v -29.2 c 0,-4.03 -3.27,-7.3 -7.3,-7.3 H 429.28 c -4.03,0 -7.3,3.27 -7.3,7.3 z"
         style="fill:none;stroke:#2f528f;stroke-width:1.5;stroke-linecap:butt;stroke-linejoin:miter;stroke-miterlimit:10;stroke-dasharray:1.5, 1.5;stroke-dashoffset:0;stroke-opacity:1"
         id="path5929" /></g><g
       id="g5931"><path
         d="m 417.9,277.02 c 0,4.04 3.28,7.32 7.32,7.32 h 307.8 c 4.04,0 7.32,-3.28 7.32,-7.32 v -29.28 c 0,-4.04 -3.28,-7.32 -7.32,-7.32 h -307.8 c -4.04,0 -7.32,3.28 -7.32,7.32 z"
         style="fill:none;stroke:#2f528f;stroke-width:1.5;stroke-linecap:butt;stroke-linejoin:miter;stroke-miterlimit:10;stroke-dasharray:1.5, 1.5;stroke-dashoffset:0;stroke-opacity:1"
         id="path5933" /></g><path
       d="m 425.46,417.84 c 0,2.49 2.01,4.5 4.5,4.5 h 120.48 c 2.49,0 4.5,-2.01 4.5,-4.5 v -18 c 0,-2.49 -2.01,-4.5 -4.5,-4.5 H 429.96 c -2.49,0 -4.5,2.01 -4.5,4.5 z"
       style="fill:none;stroke:#2f528f;stroke-width:1.5;stroke-linecap:butt;stroke-linejoin:miter;stroke-miterlimit:10;stroke-dasharray:none;stroke-opacity:1"
       id="path5935" /><g
       id="g5937"><g
         id="g5939"
         clip-path="url(#clipPath5943)"><text
           transform="matrix(1,0,0,-1,435.82,404.59)"
           style="font-variant:normal;font-weight:normal;font-size:12px;font-family:'Microsoft YaHei';-inkscape-font-specification:MicrosoftYaHei;writing-mode:lr-tb;fill:#000000;fill-opacity:1;fill-rule:nonzero;stroke:none"
           id="text5947"><tspan
             x="0 12 24 36"
             y="0"
             sodipodi:role="line"
             id="tspan5945">运行前向</tspan></text></g></g><g
       id="g5949"><g
         id="g5951"
         clip-path="url(#clipPath5955)"><text
           transform="matrix(1,0,0,-1,483.82,404.59)"
           style="font-variant:normal;font-weight:normal;font-size:12px;font-family:'Times New Roman';-inkscape-font-specification:TimesNewRomanPSMT;writing-mode:lr-tb;fill:#000000;fill-opacity:1;fill-rule:nonzero;stroke:none"
           id="text5959"><tspan
             x="0 9.3360004 14.664 18 27.336 33.335999"
             y="0"
             sodipodi:role="line"
             id="tspan5957">matmul</tspan></text></g></g><g
       id="g5961"><g
         id="g5963"
         clip-path="url(#clipPath5967)"><text
           transform="matrix(1,0,0,-1,520.56,404.59)"
           style="font-variant:normal;font-weight:normal;font-size:12px;font-family:'Microsoft YaHei';-inkscape-font-specification:MicrosoftYaHei;writing-mode:lr-tb;fill:#000000;fill-opacity:1;fill-rule:nonzero;stroke:none"
           id="text5971"><tspan
             x="0 12"
             y="0"
             sodipodi:role="line"
             id="tspan5969">算子</tspan></text></g></g><path
       d="m 573.42,417.24 c 0,2.49 2.01,4.5 4.5,4.5 H 723 c 2.49,0 4.5,-2.01 4.5,-4.5 v -18 c 0,-2.49 -2.01,-4.5 -4.5,-4.5 H 577.92 c -2.49,0 -4.5,2.01 -4.5,4.5 z"
       style="fill:none;stroke:#2f528f;stroke-width:1.5;stroke-linecap:butt;stroke-linejoin:miter;stroke-miterlimit:10;stroke-dasharray:none;stroke-opacity:1"
       id="path5973" /><g
       id="g5975"><g
         id="g5977"
         clip-path="url(#clipPath5981)"><text
           transform="matrix(1,0,0,-1,596.09,403.9)"
           style="font-variant:normal;font-weight:normal;font-size:12px;font-family:'Times New Roman';-inkscape-font-specification:TimesNewRomanPSMT;writing-mode:lr-tb;fill:#000000;fill-opacity:1;fill-rule:nonzero;stroke:none"
           id="text5985"><tspan
             x="0 9.3360004 14.664 18 27.336 33.335999"
             y="0"
             sodipodi:role="line"
             id="tspan5983">matmul</tspan></text></g></g><g
       id="g5987"><g
         id="g5989"
         clip-path="url(#clipPath5993)"><text
           transform="matrix(1,0,0,-1,632.81,403.9)"
           style="font-variant:normal;font-weight:normal;font-size:12px;font-family:'Microsoft YaHei';-inkscape-font-specification:MicrosoftYaHei;writing-mode:lr-tb;fill:#000000;fill-opacity:1;fill-rule:nonzero;stroke:none"
           id="text5997"><tspan
             x="0 12 24 36 48 60"
             y="0"
             sodipodi:role="line"
             id="tspan5995">算子反向计算</tspan></text></g></g><path
       d="m 436.98,344.34 c 0,3.05 2.47,5.52 5.52,5.52 h 110.64 c 3.05,0 5.52,-2.47 5.52,-5.52 v -22.08 c 0,-3.05 -2.47,-5.52 -5.52,-5.52 H 442.5 c -3.05,0 -5.52,2.47 -5.52,5.52 z"
       style="fill:none;stroke:#2f528f;stroke-width:1.5;stroke-linecap:butt;stroke-linejoin:miter;stroke-miterlimit:10;stroke-dasharray:none;stroke-opacity:1"
       id="path5999" /><g
       id="g6001"><g
         id="g6003"
         clip-path="url(#clipPath6007)"><text
           transform="matrix(1,0,0,-1,453.14,329.02)"
           style="font-variant:normal;font-weight:normal;font-size:12.024px;font-family:'Microsoft YaHei';-inkscape-font-specification:MicrosoftYaHei;writing-mode:lr-tb;fill:#000000;fill-opacity:1;fill-rule:nonzero;stroke:none"
           id="text6011"><tspan
             x="0 12 24 36"
             y="0"
             sodipodi:role="line"
             id="tspan6009">运行前向</tspan></text></g></g><g
       id="g6013"><g
         id="g6015"
         clip-path="url(#clipPath6019)"><text
           transform="matrix(1,0,0,-1,501.14,329.02)"
           style="font-variant:normal;font-weight:normal;font-size:12.024px;font-family:'Times New Roman';-inkscape-font-specification:TimesNewRomanPSMT;writing-mode:lr-tb;fill:#000000;fill-opacity:1;fill-rule:nonzero;stroke:none"
           id="text6023"><tspan
             x="0 5.2785358 11.290536"
             y="0"
             sodipodi:role="line"
             id="tspan6021">add</tspan></text></g></g><g
       id="g6025"><g
         id="g6027"
         clip-path="url(#clipPath6031)"><text
           transform="matrix(1,0,0,-1,518.42,329.02)"
           style="font-variant:normal;font-weight:normal;font-size:12.024px;font-family:'Microsoft YaHei';-inkscape-font-specification:MicrosoftYaHei;writing-mode:lr-tb;fill:#000000;fill-opacity:1;fill-rule:nonzero;stroke:none"
           id="text6035"><tspan
             x="0 12"
             y="0"
             sodipodi:role="line"
             id="tspan6033">算子</tspan></text></g></g><path
       d="m 576.18,344.46 c 0,3.05 2.47,5.52 5.52,5.52 h 149.52 c 3.05,0 5.52,-2.47 5.52,-5.52 v -22.08 c 0,-3.05 -2.47,-5.52 -5.52,-5.52 H 581.7 c -3.05,0 -5.52,2.47 -5.52,5.52 z"
       style="fill:none;stroke:#2f528f;stroke-width:1.5;stroke-linecap:butt;stroke-linejoin:miter;stroke-miterlimit:10;stroke-dasharray:none;stroke-opacity:1"
       id="path6037" /><g
       id="g6039"><g
         id="g6041"
         clip-path="url(#clipPath6045)"><text
           transform="matrix(1,0,0,-1,611.78,329.11)"
           style="font-variant:normal;font-weight:normal;font-size:12.024px;font-family:'Times New Roman';-inkscape-font-specification:TimesNewRomanPSMT;writing-mode:lr-tb;fill:#000000;fill-opacity:1;fill-rule:nonzero;stroke:none"
           id="text6049"><tspan
             x="0 5.2785358 11.290536"
             y="0"
             sodipodi:role="line"
             id="tspan6047">add</tspan></text></g></g><g
       id="g6051"><g
         id="g6053"
         clip-path="url(#clipPath6057)"><text
           transform="matrix(1,0,0,-1,629.06,329.11)"
           style="font-variant:normal;font-weight:normal;font-size:12.024px;font-family:'Microsoft YaHei';-inkscape-font-specification:MicrosoftYaHei;writing-mode:lr-tb;fill:#000000;fill-opacity:1;fill-rule:nonzero;stroke:none"
           id="text6061"><tspan
             x="0 12 24 36 48 60"
             y="0"
             sodipodi:role="line"
             id="tspan6059">算子反向计算</tspan></text></g></g><path
       d="m 432.9,273.42 c 0,3.05 2.47,5.52 5.52,5.52 h 112.2 c 3.05,0 5.52,-2.47 5.52,-5.52 v -22.08 c 0,-3.05 -2.47,-5.52 -5.52,-5.52 h -112.2 c -3.05,0 -5.52,2.47 -5.52,5.52 z"
       style="fill:none;stroke:#2f528f;stroke-width:1.5;stroke-linecap:butt;stroke-linejoin:miter;stroke-miterlimit:10;stroke-dasharray:none;stroke-opacity:1"
       id="path6063" /><g
       id="g6065"><g
         id="g6067"
         clip-path="url(#clipPath6071)"><text
           transform="matrix(1,0,0,-1,443.98,258.05)"
           style="font-variant:normal;font-weight:normal;font-size:12.024px;font-family:'Microsoft YaHei';-inkscape-font-specification:MicrosoftYaHei;writing-mode:lr-tb;fill:#000000;fill-opacity:1;fill-rule:nonzero;stroke:none"
           id="text6075"><tspan
             x="0 12 24 36"
             y="0"
             sodipodi:role="line"
             id="tspan6073">运行前向</tspan></text></g></g><g
       id="g6077"><g
         id="g6079"
         clip-path="url(#clipPath6083)"><text
           transform="matrix(1,0,0,-1,491.98,258.05)"
           style="font-variant:normal;font-weight:normal;font-size:12.024px;font-family:'Times New Roman';-inkscape-font-specification:TimesNewRomanPSMT;writing-mode:lr-tb;fill:#000000;fill-opacity:1;fill-rule:nonzero;stroke:none"
           id="text6087"><tspan
             x="0 8.0200081 13.322592 20.404728"
             y="0"
             sodipodi:role="line"
             id="tspan6085">ReLU</tspan></text></g></g><g
       id="g6089"><g
         id="g6091"
         clip-path="url(#clipPath6095)"><text
           transform="matrix(1,0,0,-1,521.02,258.05)"
           style="font-variant:normal;font-weight:normal;font-size:12.024px;font-family:'Microsoft YaHei';-inkscape-font-specification:MicrosoftYaHei;writing-mode:lr-tb;fill:#000000;fill-opacity:1;fill-rule:nonzero;stroke:none"
           id="text6099"><tspan
             x="0 12.024"
             y="0"
             sodipodi:role="line"
             id="tspan6097">算子</tspan></text></g></g><path
       d="m 573.42,273.42 c 0,3.05 2.47,5.52 5.52,5.52 h 149.52 c 3.05,0 5.52,-2.47 5.52,-5.52 v -22.08 c 0,-3.05 -2.47,-5.52 -5.52,-5.52 H 578.94 c -3.05,0 -5.52,2.47 -5.52,5.52 z"
       style="fill:none;stroke:#2f528f;stroke-width:1.5;stroke-linecap:butt;stroke-linejoin:miter;stroke-miterlimit:10;stroke-dasharray:none;stroke-opacity:1"
       id="path6101" /><g
       id="g6103"><g
         id="g6105"
         clip-path="url(#clipPath6109)"><text
           transform="matrix(1,0,0,-1,603.19,258.05)"
           style="font-variant:normal;font-weight:normal;font-size:12px;font-family:'Times New Roman';-inkscape-font-specification:TimesNewRomanPSMT;writing-mode:lr-tb;fill:#000000;fill-opacity:1;fill-rule:nonzero;stroke:none"
           id="text6113"><tspan
             x="0 8.052 13.332 20.436001"
             y="0"
             sodipodi:role="line"
             id="tspan6111">ReLU</tspan></text></g></g><g
       id="g6115"><g
         id="g6117"
         clip-path="url(#clipPath6121)"><text
           transform="matrix(1,0,0,-1,632.26,258.05)"
           style="font-variant:normal;font-weight:normal;font-size:12px;font-family:'Microsoft YaHei';-inkscape-font-specification:MicrosoftYaHei;writing-mode:lr-tb;fill:#000000;fill-opacity:1;fill-rule:nonzero;stroke:none"
           id="text6125"><tspan
             x="0 12 24 36 48 60"
             y="0"
             sodipodi:role="line"
             id="tspan6123">算子反向计算</tspan></text></g></g><path
       d="m 599.82,211.44 c 0,2.49 2.01,4.5 4.5,4.5 h 102.6 c 2.49,0 4.5,-2.01 4.5,-4.5 v -18 c 0,-2.49 -2.01,-4.5 -4.5,-4.5 h -102.6 c -2.49,0 -4.5,2.01 -4.5,4.5 z"
       style="fill:none;stroke:#2f528f;stroke-width:1.5;stroke-linecap:butt;stroke-linejoin:miter;stroke-miterlimit:10;stroke-dasharray:none;stroke-opacity:1"
       id="path6127" /><g
       id="g6129"><g
         id="g6131"
         clip-path="url(#clipPath6135)"><text
           transform="matrix(1,0,0,-1,619.61,198.17)"
           style="font-variant:normal;font-weight:normal;font-size:12.024px;font-family:'Microsoft YaHei';-inkscape-font-specification:MicrosoftYaHei;writing-mode:lr-tb;fill:#000000;fill-opacity:1;fill-rule:nonzero;stroke:none"
           id="text6139"><tspan
             x="0 12.024 24.048 36.071999 48.096001 60.119999"
             y="0"
             sodipodi:role="line"
             id="tspan6137">梯度反向计算</tspan></text></g></g><path
       d="m 488.64,368.76 h 2.4 v 11.16 h 4.8 v -11.16 h 2.4 l -4.8,-4.8 z"
       style="fill:#4472c4;fill-opacity:1;fill-rule:evenodd;stroke:none"
       id="path6141" /><path
       d="m 488.64,368.76 h 2.4 v 11.16 h 4.8 v -11.16 h 2.4 l -4.8,-4.8 z"
       style="fill:none;stroke:#2f528f;stroke-width:1;stroke-linecap:butt;stroke-linejoin:miter;stroke-miterlimit:10;stroke-dasharray:none;stroke-opacity:1"
       id="path6143" /><path
       d="m 491.16,292.56 h 2.58 v 14.52 h 5.16 v -14.52 h 2.58 l -5.16,-5.16 z"
       style="fill:#4472c4;fill-opacity:1;fill-rule:evenodd;stroke:none"
       id="path6145" /><path
       d="m 491.16,292.56 h 2.58 v 14.52 h 5.16 v -14.52 h 2.58 l -5.16,-5.16 z"
       style="fill:none;stroke:#2f528f;stroke-width:1;stroke-linecap:butt;stroke-linejoin:miter;stroke-miterlimit:10;stroke-dasharray:none;stroke-opacity:1"
       id="path6147" /><path
       d="m 658.56,232.26 h -2.37 v -11.22 h -4.74 v 11.22 h -2.37 l 4.74,4.74 z"
       style="fill:#4472c4;fill-opacity:1;fill-rule:evenodd;stroke:none"
       id="path6149" /><path
       d="m 658.56,232.26 h -2.37 v -11.22 h -4.74 v 11.22 h -2.37 l 4.74,4.74 z"
       style="fill:none;stroke:#2f528f;stroke-width:1;stroke-linecap:butt;stroke-linejoin:miter;stroke-miterlimit:10;stroke-dasharray:none;stroke-opacity:1"
       id="path6151" /><path
       d="m 658.68,300.06 h -2.37 v -11.22 h -4.74 v 11.22 h -2.37 l 4.74,4.74 z"
       style="fill:#4472c4;fill-opacity:1;fill-rule:evenodd;stroke:none"
       id="path6153" /><path
       d="m 658.68,300.06 h -2.37 v -11.22 h -4.74 v 11.22 h -2.37 l 4.74,4.74 z"
       style="fill:none;stroke:#2f528f;stroke-width:1;stroke-linecap:butt;stroke-linejoin:miter;stroke-miterlimit:10;stroke-dasharray:none;stroke-opacity:1"
       id="path6155" /><path
       d="m 658.44,375.78 h -2.37 v -11.22 h -4.74 v 11.22 h -2.37 l 4.74,4.74 z"
       style="fill:#4472c4;fill-opacity:1;fill-rule:evenodd;stroke:none"
       id="path6157" /><path
       d="m 658.44,375.78 h -2.37 v -11.22 h -4.74 v 11.22 h -2.37 l 4.74,4.74 z"
       style="fill:none;stroke:#2f528f;stroke-width:1;stroke-linecap:butt;stroke-linejoin:miter;stroke-miterlimit:10;stroke-dasharray:none;stroke-opacity:1"
       id="path6159" /><path
       d="m 220.86,269.14 h 157.75 v 65.12 l -0.75,-0.75 h 39.18 v 1.5 h -39.93 v -65.12 l 0.75,0.75 h -157 z m 195.18,62.12 6,3 -6,3 z"
       style="fill:#0070c0;fill-opacity:1;fill-rule:nonzero;stroke:none"
       id="path6161" /><path
       d="M 220.86,242.88 H 385.5 v 19.5 l -0.75,-0.75 H 413 v 1.5 h -29 v -19.5 l 0.75,0.75 H 220.86 Z m 191.14,16.5 6,3 -6,3 z"
       style="fill:#0070c0;fill-opacity:1;fill-rule:nonzero;stroke:none"
       id="path6163" /></g></svg>
