<?xml version="1.0" encoding="UTF-8" standalone="no"?>
<!-- Created with Inkscape (http://www.inkscape.org/) -->

<svg
   version="1.1"
   id="svg8079"
   xml:space="preserve"
   width="1054.3064"
   height="399.88364"
   viewBox="0 0 1054.3064 399.88364"
   sodipodi:docname="order.svg"
   inkscape:version="1.1.1 (3bf5ae0d25, 2021-09-20)"
   xmlns:inkscape="http://www.inkscape.org/namespaces/inkscape"
   xmlns:sodipodi="http://sodipodi.sourceforge.net/DTD/sodipodi-0.dtd"
   xmlns="http://www.w3.org/2000/svg"
   xmlns:svg="http://www.w3.org/2000/svg"><defs
     id="defs8083"><clipPath
       clipPathUnits="userSpaceOnUse"
       id="clipPath8093"><path
         d="M 0,1.2207e-4 H 960 V 540.00012 H 0 Z"
         clip-rule="evenodd"
         id="path8091" /></clipPath><clipPath
       clipPathUnits="userSpaceOnUse"
       id="clipPath8109"><path
         d="M 1.4305e-5,0 H 960.00001 V 540 H 1.4305e-5 Z"
         clip-rule="evenodd"
         id="path8107" /></clipPath><clipPath
       clipPathUnits="userSpaceOnUse"
       id="clipPath8125"><path
         d="M 1.4305e-5,0 H 960.00001 V 540 H 1.4305e-5 Z"
         clip-rule="evenodd"
         id="path8123" /></clipPath><clipPath
       clipPathUnits="userSpaceOnUse"
       id="clipPath8141"><path
         d="M 1.4305e-5,0 H 960.00001 V 540 H 1.4305e-5 Z"
         clip-rule="evenodd"
         id="path8139" /></clipPath><clipPath
       clipPathUnits="userSpaceOnUse"
       id="clipPath8157"><path
         d="M 1.4305e-5,0 H 960.00001 V 540 H 1.4305e-5 Z"
         clip-rule="evenodd"
         id="path8155" /></clipPath><clipPath
       clipPathUnits="userSpaceOnUse"
       id="clipPath8173"><path
         d="M 1.4305e-5,0 H 960.00001 V 540 H 1.4305e-5 Z"
         clip-rule="evenodd"
         id="path8171" /></clipPath><clipPath
       clipPathUnits="userSpaceOnUse"
       id="clipPath8189"><path
         d="M 1.4305e-5,0 H 960.00001 V 540 H 1.4305e-5 Z"
         clip-rule="evenodd"
         id="path8187" /></clipPath><clipPath
       clipPathUnits="userSpaceOnUse"
       id="clipPath8201"><path
         d="M 1.4305e-5,0 H 960.00001 V 540 H 1.4305e-5 Z"
         clip-rule="evenodd"
         id="path8199" /></clipPath><clipPath
       clipPathUnits="userSpaceOnUse"
       id="clipPath8217"><path
         d="M 1.4305e-5,0 H 960.00001 V 540 H 1.4305e-5 Z"
         clip-rule="evenodd"
         id="path8215" /></clipPath><clipPath
       clipPathUnits="userSpaceOnUse"
       id="clipPath8229"><path
         d="M 1.4305e-5,0 H 960.00001 V 540 H 1.4305e-5 Z"
         clip-rule="evenodd"
         id="path8227" /></clipPath><clipPath
       clipPathUnits="userSpaceOnUse"
       id="clipPath8245"><path
         d="M 1.4305e-5,0 H 960.00001 V 540 H 1.4305e-5 Z"
         clip-rule="evenodd"
         id="path8243" /></clipPath><clipPath
       clipPathUnits="userSpaceOnUse"
       id="clipPath8257"><path
         d="M 1.4305e-5,0 H 960.00001 V 540 H 1.4305e-5 Z"
         clip-rule="evenodd"
         id="path8255" /></clipPath><clipPath
       clipPathUnits="userSpaceOnUse"
       id="clipPath8269"><path
         d="M 1.4305e-5,0 H 960.00001 V 540 H 1.4305e-5 Z"
         clip-rule="evenodd"
         id="path8267" /></clipPath><clipPath
       clipPathUnits="userSpaceOnUse"
       id="clipPath8281"><path
         d="M 1.4305e-5,0 H 960.00001 V 540 H 1.4305e-5 Z"
         clip-rule="evenodd"
         id="path8279" /></clipPath><clipPath
       clipPathUnits="userSpaceOnUse"
       id="clipPath8301"><path
         d="M 1.4305e-5,0 H 960.00001 V 540 H 1.4305e-5 Z"
         clip-rule="evenodd"
         id="path8299" /></clipPath><clipPath
       clipPathUnits="userSpaceOnUse"
       id="clipPath8319"><path
         d="M 1.4305e-5,0 H 960.00001 V 540 H 1.4305e-5 Z"
         clip-rule="evenodd"
         id="path8317" /></clipPath><clipPath
       clipPathUnits="userSpaceOnUse"
       id="clipPath8331"><path
         d="M 1.4305e-5,0 H 960.00001 V 540 H 1.4305e-5 Z"
         clip-rule="evenodd"
         id="path8329" /></clipPath><clipPath
       clipPathUnits="userSpaceOnUse"
       id="clipPath8343"><path
         d="M 1.4305e-5,0 H 960.00001 V 540 H 1.4305e-5 Z"
         clip-rule="evenodd"
         id="path8341" /></clipPath><clipPath
       clipPathUnits="userSpaceOnUse"
       id="clipPath8361"><path
         d="M 1.4305e-5,0 H 960.00001 V 540 H 1.4305e-5 Z"
         clip-rule="evenodd"
         id="path8359" /></clipPath><clipPath
       clipPathUnits="userSpaceOnUse"
       id="clipPath8377"><path
         d="M 1.4305e-5,0 H 960.00001 V 540 H 1.4305e-5 Z"
         clip-rule="evenodd"
         id="path8375" /></clipPath><clipPath
       clipPathUnits="userSpaceOnUse"
       id="clipPath8393"><path
         d="M 1.4305e-5,0 H 960.00001 V 540 H 1.4305e-5 Z"
         clip-rule="evenodd"
         id="path8391" /></clipPath><clipPath
       clipPathUnits="userSpaceOnUse"
       id="clipPath8405"><path
         d="M 1.4305e-5,0 H 960.00001 V 540 H 1.4305e-5 Z"
         clip-rule="evenodd"
         id="path8403" /></clipPath><clipPath
       clipPathUnits="userSpaceOnUse"
       id="clipPath8425"><path
         d="M 1.4305e-5,0 H 960.00001 V 540 H 1.4305e-5 Z"
         clip-rule="evenodd"
         id="path8423" /></clipPath><clipPath
       clipPathUnits="userSpaceOnUse"
       id="clipPath8441"><path
         d="M 1.4305e-5,0 H 960.00001 V 540 H 1.4305e-5 Z"
         clip-rule="evenodd"
         id="path8439" /></clipPath><clipPath
       clipPathUnits="userSpaceOnUse"
       id="clipPath8459"><path
         d="M 1.4305e-5,0 H 960.00001 V 540 H 1.4305e-5 Z"
         clip-rule="evenodd"
         id="path8457" /></clipPath><clipPath
       clipPathUnits="userSpaceOnUse"
       id="clipPath8471"><path
         d="M 1.4305e-5,0 H 960.00001 V 540 H 1.4305e-5 Z"
         clip-rule="evenodd"
         id="path8469" /></clipPath><clipPath
       clipPathUnits="userSpaceOnUse"
       id="clipPath8483"><path
         d="M 1.4305e-5,0 H 960.00001 V 540 H 1.4305e-5 Z"
         clip-rule="evenodd"
         id="path8481" /></clipPath><clipPath
       clipPathUnits="userSpaceOnUse"
       id="clipPath8501"><path
         d="M 1.4305e-5,0 H 960.00001 V 540 H 1.4305e-5 Z"
         clip-rule="evenodd"
         id="path8499" /></clipPath><clipPath
       clipPathUnits="userSpaceOnUse"
       id="clipPath8513"><path
         d="M 1.4305e-5,0 H 960.00001 V 540 H 1.4305e-5 Z"
         clip-rule="evenodd"
         id="path8511" /></clipPath><clipPath
       clipPathUnits="userSpaceOnUse"
       id="clipPath8533"><path
         d="M 1.4305e-5,0 H 960.00001 V 540 H 1.4305e-5 Z"
         clip-rule="evenodd"
         id="path8531" /></clipPath><clipPath
       clipPathUnits="userSpaceOnUse"
       id="clipPath8545"><path
         d="M 1.4305e-5,0 H 960.00001 V 540 H 1.4305e-5 Z"
         clip-rule="evenodd"
         id="path8543" /></clipPath><clipPath
       clipPathUnits="userSpaceOnUse"
       id="clipPath8557"><path
         d="M 1.4305e-5,0 H 960.00001 V 540 H 1.4305e-5 Z"
         clip-rule="evenodd"
         id="path8555" /></clipPath><clipPath
       clipPathUnits="userSpaceOnUse"
       id="clipPath8569"><path
         d="M 1.4305e-5,0 H 960.00001 V 540 H 1.4305e-5 Z"
         clip-rule="evenodd"
         id="path8567" /></clipPath><clipPath
       clipPathUnits="userSpaceOnUse"
       id="clipPath8585"><path
         d="M 1.4305e-5,0 H 960.00001 V 540 H 1.4305e-5 Z"
         clip-rule="evenodd"
         id="path8583" /></clipPath><clipPath
       clipPathUnits="userSpaceOnUse"
       id="clipPath8599"><path
         d="M 1.4305e-5,0 H 960.00001 V 540 H 1.4305e-5 Z"
         clip-rule="evenodd"
         id="path8597" /></clipPath><clipPath
       clipPathUnits="userSpaceOnUse"
       id="clipPath8611"><path
         d="M 1.4305e-5,0 H 960.00001 V 540 H 1.4305e-5 Z"
         clip-rule="evenodd"
         id="path8609" /></clipPath><clipPath
       clipPathUnits="userSpaceOnUse"
       id="clipPath8623"><path
         d="M 1.4305e-5,0 H 960.00001 V 540 H 1.4305e-5 Z"
         clip-rule="evenodd"
         id="path8621" /></clipPath></defs><sodipodi:namedview
     id="namedview8081"
     pagecolor="#ffffff"
     bordercolor="#666666"
     borderopacity="1.0"
     inkscape:pageshadow="2"
     inkscape:pageopacity="0.0"
     inkscape:pagecheckerboard="0"
     showgrid="false"
     fit-margin-top="0"
     fit-margin-left="0"
     fit-margin-right="0"
     fit-margin-bottom="0"
     inkscape:zoom="1.321875"
     inkscape:cx="503.07329"
     inkscape:cy="181.93853"
     inkscape:window-width="2560"
     inkscape:window-height="1361"
     inkscape:window-x="-9"
     inkscape:window-y="-9"
     inkscape:window-maximized="1"
     inkscape:current-layer="g8085" /><g
     id="g8085"
     inkscape:groupmode="layer"
     inkscape:label="order"
     transform="matrix(1.3333333,0,0,-1.3333333,-136.6002,542.13061)"><path
       d="m 432.96,280.02 h 37.92 v 6.06 L 483,273.96 470.88,261.84 v 6.06 h -37.92 z"
       style="fill:#b4c7e7;fill-opacity:1;fill-rule:evenodd;stroke:none"
       id="path8097" /><path
       d="m 432.96,280.02 h 37.92 v 6.06 L 483,273.96 470.88,261.84 v 6.06 h -37.92 z"
       style="fill:none;stroke:#2f528f;stroke-width:1;stroke-linecap:butt;stroke-linejoin:miter;stroke-miterlimit:10;stroke-dasharray:none;stroke-opacity:1"
       id="path8099" /><path
       d="M 520.38,177.35 H 881.51 V 175.1 H 520.38 Z m 360,2.25 6.75,-3.38 -6.75,-3.37 z"
       style="fill:#4472c4;fill-opacity:1;fill-rule:nonzero;stroke:none"
       id="path8101" /><g
       id="g8103"><g
         id="g8105"
         clip-path="url(#clipPath8109)"><text
           transform="matrix(1,0,0,-1,790.87,144.77)"
           style="font-variant:normal;font-weight:normal;font-size:18px;font-family:'Microsoft YaHei';-inkscape-font-specification:MicrosoftYaHei;writing-mode:lr-tb;fill:#000000;fill-opacity:1;fill-rule:nonzero;stroke:none"
           id="text8113"><tspan
             x="0 18.024"
             y="0"
             sodipodi:role="line"
             id="tspan8111">时间</tspan></text></g></g><path
       d="m 506.88,267.96 h 55.08 v 30.6 h -55.08 z"
       style="fill:#8faadc;fill-opacity:1;fill-rule:evenodd;stroke:none"
       id="path8115" /><path
       d="m 506.88,267.96 h 55.08 v 30.6 h -55.08 z"
       style="fill:none;stroke:#2f528f;stroke-width:1;stroke-linecap:butt;stroke-linejoin:miter;stroke-miterlimit:10;stroke-dasharray:none;stroke-opacity:1"
       id="path8117" /><g
       id="g8119"><g
         id="g8121"
         clip-path="url(#clipPath8125)"><text
           transform="matrix(1,0,0,-1,515.54,278.76)"
           style="font-variant:normal;font-weight:normal;font-size:12px;font-family:'Times New Roman';-inkscape-font-specification:TimesNewRomanPSMT;writing-mode:lr-tb;fill:#000000;fill-opacity:1;fill-rule:nonzero;stroke:none"
           id="text8129"><tspan
             x="0 10.668 15.96 19.296 28.667999 34.667999"
             y="0"
             sodipodi:role="line"
             id="tspan8127">Matmul</tspan></text></g></g><path
       d="m 561.96,237.48 h 55.2 v 30.6 h -55.2 z"
       style="fill:#8faadc;fill-opacity:1;fill-rule:evenodd;stroke:none"
       id="path8131" /><path
       d="m 561.96,237.48 h 55.2 v 30.6 h -55.2 z"
       style="fill:none;stroke:#2f528f;stroke-width:1;stroke-linecap:butt;stroke-linejoin:miter;stroke-miterlimit:10;stroke-dasharray:none;stroke-opacity:1"
       id="path8133" /><g
       id="g8135"><g
         id="g8137"
         clip-path="url(#clipPath8141)"><text
           transform="matrix(1,0,0,-1,575.09,248.3)"
           style="font-variant:normal;font-weight:normal;font-size:12px;font-family:'Times New Roman';-inkscape-font-specification:TimesNewRomanPSMT;writing-mode:lr-tb;fill:#000000;fill-opacity:1;fill-rule:nonzero;stroke:none"
           id="text8145"><tspan
             x="0 8.0279999 13.308 20.388"
             y="0"
             sodipodi:role="line"
             id="tspan8143">ReLU</tspan></text></g></g><path
       d="m 617.16,207 h 55.08 v 30.6 h -55.08 z"
       style="fill:#8faadc;fill-opacity:1;fill-rule:evenodd;stroke:none"
       id="path8147" /><path
       d="m 617.16,207 h 55.08 v 30.6 h -55.08 z"
       style="fill:none;stroke:#2f528f;stroke-width:1;stroke-linecap:butt;stroke-linejoin:miter;stroke-miterlimit:10;stroke-dasharray:none;stroke-opacity:1"
       id="path8149" /><g
       id="g8151"><g
         id="g8153"
         clip-path="url(#clipPath8157)"><text
           transform="matrix(1,0,0,-1,625.78,217.78)"
           style="font-variant:normal;font-weight:normal;font-size:12px;font-family:'Times New Roman';-inkscape-font-specification:TimesNewRomanPSMT;writing-mode:lr-tb;fill:#000000;fill-opacity:1;fill-rule:nonzero;stroke:none"
           id="text8161"><tspan
             x="0 10.668 15.96 19.296 28.667999 34.667999"
             y="0"
             sodipodi:role="line"
             id="tspan8159">Matmul</tspan></text></g></g><path
       d="m 672.24,176.28 h 55.08 V 207 h -55.08 z"
       style="fill:#8faadc;fill-opacity:1;fill-rule:evenodd;stroke:none"
       id="path8163" /><path
       d="m 672.24,176.28 h 55.08 V 207 h -55.08 z"
       style="fill:none;stroke:#2f528f;stroke-width:1;stroke-linecap:butt;stroke-linejoin:miter;stroke-miterlimit:10;stroke-dasharray:none;stroke-opacity:1"
       id="path8165" /><g
       id="g8167"><g
         id="g8169"
         clip-path="url(#clipPath8173)"><text
           transform="matrix(1,0,0,-1,688.7,187.1)"
           style="font-variant:normal;font-weight:normal;font-size:12px;font-family:'Times New Roman';-inkscape-font-specification:TimesNewRomanPSMT;writing-mode:lr-tb;fill:#000000;fill-opacity:1;fill-rule:nonzero;stroke:none"
           id="text8177"><tspan
             x="0 7.0799999 13.08 17.747999"
             y="0"
             sodipodi:role="line"
             id="tspan8175">Loss</tspan></text></g></g><path
       d="m 727.32,207 h 55.2 v 30.6 h -55.2 z"
       style="fill:#f8cbad;fill-opacity:1;fill-rule:evenodd;stroke:none"
       id="path8179" /><path
       d="m 727.32,207 h 55.2 v 30.6 h -55.2 z"
       style="fill:none;stroke:#2f528f;stroke-width:1;stroke-linecap:butt;stroke-linejoin:miter;stroke-miterlimit:10;stroke-dasharray:none;stroke-opacity:1"
       id="path8181" /><g
       id="g8183"><g
         id="g8185"
         clip-path="url(#clipPath8189)"><text
           transform="matrix(1,0,0,-1,736.01,224.98)"
           style="font-variant:normal;font-weight:normal;font-size:12px;font-family:'Times New Roman';-inkscape-font-specification:TimesNewRomanPSMT;writing-mode:lr-tb;fill:#000000;fill-opacity:1;fill-rule:nonzero;stroke:none"
           id="text8193"><tspan
             x="0 10.668 15.96 19.296 28.667999 34.667999"
             y="0"
             sodipodi:role="line"
             id="tspan8191">Matmul</tspan></text></g></g><g
       id="g8195"><g
         id="g8197"
         clip-path="url(#clipPath8201)"><text
           transform="matrix(1,0,0,-1,743.09,210.58)"
           style="font-variant:normal;font-weight:normal;font-size:12px;font-family:'Times New Roman';-inkscape-font-specification:TimesNewRomanPSMT;writing-mode:lr-tb;fill:#000000;fill-opacity:1;fill-rule:nonzero;stroke:none"
           id="text8205"><tspan
             x="0 8.6639996 12.6 17.879999"
             y="0"
             sodipodi:role="line"
             id="tspan8203">Grad</tspan></text></g></g><path
       d="m 782.52,237.6 h 55.08 v 30.72 h -55.08 z"
       style="fill:#f8cbad;fill-opacity:1;fill-rule:evenodd;stroke:none"
       id="path8207" /><path
       d="m 782.52,237.6 h 55.08 v 30.72 h -55.08 z"
       style="fill:none;stroke:#2f528f;stroke-width:1;stroke-linecap:butt;stroke-linejoin:miter;stroke-miterlimit:10;stroke-dasharray:none;stroke-opacity:1"
       id="path8209" /><g
       id="g8211"><g
         id="g8213"
         clip-path="url(#clipPath8217)"><text
           transform="matrix(1,0,0,-1,795.58,255.62)"
           style="font-variant:normal;font-weight:normal;font-size:12px;font-family:'Times New Roman';-inkscape-font-specification:TimesNewRomanPSMT;writing-mode:lr-tb;fill:#000000;fill-opacity:1;fill-rule:nonzero;stroke:none"
           id="text8221"><tspan
             x="0 8.0279999 13.308 20.388"
             y="0"
             sodipodi:role="line"
             id="tspan8219">ReLU</tspan></text></g></g><g
       id="g8223"><g
         id="g8225"
         clip-path="url(#clipPath8229)"><text
           transform="matrix(1,0,0,-1,798.22,241.22)"
           style="font-variant:normal;font-weight:normal;font-size:12px;font-family:'Times New Roman';-inkscape-font-specification:TimesNewRomanPSMT;writing-mode:lr-tb;fill:#000000;fill-opacity:1;fill-rule:nonzero;stroke:none"
           id="text8233"><tspan
             x="0 8.6639996 12.6 17.879999"
             y="0"
             sodipodi:role="line"
             id="tspan8231">Grad</tspan></text></g></g><path
       d="m 837.6,267.96 h 55.08 v 30.6 H 837.6 Z"
       style="fill:#f8cbad;fill-opacity:1;fill-rule:evenodd;stroke:none"
       id="path8235" /><path
       d="m 837.6,267.96 h 55.08 v 30.6 H 837.6 Z"
       style="fill:none;stroke:#2f528f;stroke-width:1;stroke-linecap:butt;stroke-linejoin:miter;stroke-miterlimit:10;stroke-dasharray:none;stroke-opacity:1"
       id="path8237" /><g
       id="g8239"><g
         id="g8241"
         clip-path="url(#clipPath8245)"><text
           transform="matrix(1,0,0,-1,846.24,285.96)"
           style="font-variant:normal;font-weight:normal;font-size:12px;font-family:'Times New Roman';-inkscape-font-specification:TimesNewRomanPSMT;writing-mode:lr-tb;fill:#000000;fill-opacity:1;fill-rule:nonzero;stroke:none"
           id="text8249"><tspan
             x="0 10.668 15.96 19.296 28.667999 34.667999"
             y="0"
             sodipodi:role="line"
             id="tspan8247">Matmul</tspan></text></g></g><g
       id="g8251"><g
         id="g8253"
         clip-path="url(#clipPath8257)"><text
           transform="matrix(1,0,0,-1,853.32,271.56)"
           style="font-variant:normal;font-weight:normal;font-size:12px;font-family:'Times New Roman';-inkscape-font-specification:TimesNewRomanPSMT;writing-mode:lr-tb;fill:#000000;fill-opacity:1;fill-rule:nonzero;stroke:none"
           id="text8261"><tspan
             x="0 8.6639996 12.6 17.879999"
             y="0"
             sodipodi:role="line"
             id="tspan8259">Grad</tspan></text></g></g><g
       id="g8263"><g
         id="g8265"
         clip-path="url(#clipPath8269)"><text
           transform="matrix(1,0,0,-1,148.32,394.68)"
           style="font-style:italic;font-variant:normal;font-weight:bold;font-size:18px;font-family:'Times New Roman';-inkscape-font-specification:TimesNewRomanPS-BoldItalicMT;writing-mode:lr-tb;fill:#000000;fill-opacity:1;fill-rule:nonzero;stroke:none"
           id="text8273"><tspan
             x="0"
             y="0"
             id="tspan8271">W</tspan></text></g></g><g
       id="g8275"><g
         id="g8277"
         clip-path="url(#clipPath8281)"><text
           transform="matrix(1,0,0,-1,164.28,390.24)"
           style="font-style:italic;font-variant:normal;font-weight:bold;font-size:12px;font-family:'Times New Roman';-inkscape-font-specification:TimesNewRomanPS-BoldItalicMT;writing-mode:lr-tb;fill:#000000;fill-opacity:1;fill-rule:nonzero;stroke:none"
           id="text8285"><tspan
             x="0"
             y="0"
             id="tspan8283">1</tspan></text></g></g><path
       d="m 109.71,387.21 16.72,-24.49 -1.86,-1.27 -16.72,24.5 z m 17.94,-22.29 1.02,-7.48 -6.59,3.67 z"
       style="fill:#000000;fill-opacity:1;fill-rule:nonzero;stroke:none"
       id="path8287" /><path
       d="m 159.7,387.2 -16.33,-24.46 1.87,-1.25 16.34,24.47 z m -17.58,-22.27 -0.94,-7.49 6.56,3.74 z"
       style="fill:#000000;fill-opacity:1;fill-rule:nonzero;stroke:none"
       id="path8289" /><path
       d="m 118.74,341.58 c 0,8.81 7.15,15.96 15.96,15.96 8.81,0 15.96,-7.15 15.96,-15.96 0,-8.81 -7.15,-15.96 -15.96,-15.96 -8.81,0 -15.96,7.15 -15.96,15.96 z"
       style="fill:none;stroke:#000000;stroke-width:2.25;stroke-linecap:butt;stroke-linejoin:miter;stroke-miterlimit:10;stroke-dasharray:none;stroke-opacity:1"
       id="path8293" /><g
       id="g8295"
       transform="translate(1.1347518,-5.1063831)"><g
         id="g8297"
         clip-path="url(#clipPath8301)"><text
           transform="matrix(1,0,0,-1,126.67,329.78)"
           style="font-variant:normal;font-weight:normal;font-size:32.04px;font-family:'Times New Roman';-inkscape-font-specification:TimesNewRomanPSMT;writing-mode:lr-tb;fill:#000000;fill-opacity:1;fill-rule:nonzero;stroke:none"
           id="text8305"><tspan
             x="0"
             y="0"
             id="tspan8303">*</tspan></text></g></g><path
       d="m 135.77,325.98 4.65,-13.98 -2.13,-0.71 -4.66,13.97 z m 6.43,-12.21 -1.07,-7.47 -5.33,5.34 z"
       style="fill:#000000;fill-opacity:1;fill-rule:nonzero;stroke:none"
       id="path8307" /><path
       d="m 132.06,288.12 c 0,11.1 8.97,20.1 20.04,20.1 11.07,0 20.04,-9 20.04,-20.1 0,-11.1 -8.97,-20.1 -20.04,-20.1 -11.07,0 -20.04,9 -20.04,20.1 z"
       style="fill:none;stroke:#000000;stroke-width:2.25;stroke-linecap:butt;stroke-linejoin:miter;stroke-miterlimit:10;stroke-dasharray:none;stroke-opacity:1"
       id="path8311" /><g
       id="g8313"><g
         id="g8315"
         clip-path="url(#clipPath8319)"><text
           transform="matrix(1,0,0,-1,135.86,283.08)"
           style="font-variant:normal;font-weight:normal;font-size:14.04px;font-family:'Times New Roman';-inkscape-font-specification:TimesNewRomanPSMT;writing-mode:lr-tb;fill:#000000;fill-opacity:1;fill-rule:nonzero;stroke:none"
           id="text8323"><tspan
             x="0 9.3646803 15.59844 24.12072"
             y="0"
             sodipodi:role="line"
             id="tspan8321">ReLU</tspan></text></g></g><g
       id="g8325"><g
         id="g8327"
         clip-path="url(#clipPath8331)"><text
           transform="matrix(1,0,0,-1,192.7,282.58)"
           style="font-style:italic;font-variant:normal;font-weight:bold;font-size:18px;font-family:'Times New Roman';-inkscape-font-specification:TimesNewRomanPS-BoldItalicMT;writing-mode:lr-tb;fill:#000000;fill-opacity:1;fill-rule:nonzero;stroke:none"
           id="text8335"><tspan
             x="0"
             y="0"
             id="tspan8333">W</tspan></text></g></g><g
       id="g8337"><g
         id="g8339"
         clip-path="url(#clipPath8343)"><text
           transform="matrix(1,0,0,-1,208.66,278.14)"
           style="font-style:italic;font-variant:normal;font-weight:bold;font-size:12px;font-family:'Times New Roman';-inkscape-font-specification:TimesNewRomanPS-BoldItalicMT;writing-mode:lr-tb;fill:#000000;fill-opacity:1;fill-rule:nonzero;stroke:none"
           id="text8347"><tspan
             x="0"
             y="0"
             id="tspan8345">2</tspan></text></g></g><path
       d="m 202.9,275.1 -15.28,-24.38 1.9,-1.19 15.29,24.37 z m -16.59,-22.23 -0.73,-7.51 6.45,3.92 z"
       style="fill:#000000;fill-opacity:1;fill-rule:nonzero;stroke:none"
       id="path8349" /><path
       d="m 163.14,229.5 c 0,8.81 7.15,15.96 15.96,15.96 8.81,0 15.96,-7.15 15.96,-15.96 0,-8.81 -7.15,-15.96 -15.96,-15.96 -8.81,0 -15.96,7.15 -15.96,15.96 z"
       style="fill:none;stroke:#000000;stroke-width:2.25;stroke-linecap:butt;stroke-linejoin:miter;stroke-miterlimit:10;stroke-dasharray:none;stroke-opacity:1"
       id="path8353" /><g
       id="g8355"
       transform="translate(-7.8014237e-8,-5.1063827)"><g
         id="g8357"
         clip-path="url(#clipPath8361)"><text
           transform="matrix(1,0,0,-1,171.07,217.68)"
           style="font-variant:normal;font-weight:normal;font-size:32.04px;font-family:'Times New Roman';-inkscape-font-specification:TimesNewRomanPSMT;writing-mode:lr-tb;fill:#000000;fill-opacity:1;fill-rule:nonzero;stroke:none"
           id="text8365"><tspan
             x="0"
             y="0"
             id="tspan8363">*</tspan></text></g></g><path
       d="m 152.98,268.72 15.47,-19.65 -1.77,-1.39 -15.46,19.64 z m 16.54,-17.37 1.52,-7.4 -6.83,3.22 z"
       style="fill:#000000;fill-opacity:1;fill-rule:nonzero;stroke:none"
       id="path8367" /><path
       d="m 183.32,211.81 12.97,-23.42 -1.97,-1.09 -12.96,23.42 z m 14.4,-21.35 0.31,-7.54 -6.22,4.27 z"
       style="fill:#000000;fill-opacity:1;fill-rule:nonzero;stroke:none"
       id="path8369" /><g
       id="g8371"><g
         id="g8373"
         clip-path="url(#clipPath8377)"><text
           transform="matrix(1,0,0,-1,103.54,393.1)"
           style="font-style:italic;font-variant:normal;font-weight:bold;font-size:18px;font-family:'Times New Roman';-inkscape-font-specification:TimesNewRomanPS-BoldItalicMT;writing-mode:lr-tb;fill:#000000;fill-opacity:1;fill-rule:nonzero;stroke:none"
           id="text8381"><tspan
             x="0"
             y="0"
             id="tspan8379">X</tspan></text></g></g><path
       d="m 165.96,167.18 h 26.67 v -1 h -26.67 z m 25.67,2.5 6,-3 -6,-3 z"
       style="fill:#4472c4;fill-opacity:1;fill-rule:nonzero;stroke:none"
       id="path8383" /><path
       d="m 165.96,124.94 h 26.67 v -1 h -26.67 z m 25.67,2.5 6,-3 -6,-3 z"
       style="fill:#4472c4;fill-opacity:1;fill-rule:nonzero;stroke:none"
       id="path8385" /><g
       id="g8387"><g
         id="g8389"
         clip-path="url(#clipPath8393)"><text
           transform="matrix(1,0,0,-1,120.46,161.16)"
           style="font-variant:normal;font-weight:normal;font-size:18px;font-family:'Microsoft YaHei';-inkscape-font-specification:MicrosoftYaHei;writing-mode:lr-tb;fill:#000000;fill-opacity:1;fill-rule:nonzero;stroke:none"
           id="text8397"><tspan
             x="0 18"
             y="0"
             sodipodi:role="line"
             id="tspan8395">预测</tspan></text></g></g><g
       id="g8399"><g
         id="g8401"
         clip-path="url(#clipPath8405)"><text
           transform="matrix(1,0,0,-1,121.37,120.12)"
           style="font-variant:normal;font-weight:normal;font-size:18px;font-family:'Microsoft YaHei';-inkscape-font-specification:MicrosoftYaHei;writing-mode:lr-tb;fill:#000000;fill-opacity:1;fill-rule:nonzero;stroke:none"
           id="text8409"><tspan
             x="0 18"
             y="0"
             sodipodi:role="line"
             id="tspan8407">标签</tspan></text></g></g><path
       d="m 217.42,116.05 27.6,14.23 -1.03,2 -27.61,-14.23 z m 27.63,11.72 4.46,6.09 -7.55,-0.09 z"
       style="fill:#000000;fill-opacity:1;fill-rule:nonzero;stroke:none"
       id="path8411" /><path
       d="m 220.43,163.89 26.2,-14.14 -1.07,-1.98 -26.19,14.14 z m 26.28,-11.63 4.33,-6.17 -7.54,0.23 z"
       style="fill:#000000;fill-opacity:1;fill-rule:nonzero;stroke:none"
       id="path8413" /><path
       d="m 250.5,142.74 c 0,10.67 8.68,19.32 19.38,19.32 10.7,0 19.38,-8.65 19.38,-19.32 0,-10.67 -8.68,-19.32 -19.38,-19.32 -10.7,0 -19.38,8.65 -19.38,19.32 z"
       style="fill:none;stroke:#000000;stroke-width:2.25;stroke-linecap:butt;stroke-linejoin:miter;stroke-miterlimit:10;stroke-dasharray:none;stroke-opacity:1"
       id="path8417" /><g
       id="g8419"><g
         id="g8421"
         clip-path="url(#clipPath8425)"><text
           transform="matrix(1,0,0,-1,254.47,137.3)"
           style="font-variant:normal;font-weight:normal;font-size:18.024px;font-family:'Times New Roman';-inkscape-font-specification:TimesNewRomanPSMT;writing-mode:lr-tb;fill:#000000;fill-opacity:1;fill-rule:nonzero;stroke:none"
           id="text8429"><tspan
             x="0 5.0106721 14.022672 21.034008"
             y="0"
             sodipodi:role="line"
             id="tspan8427">loss</tspan></text></g></g><path
       d="m 309.3,195.3 c 0,8.81 7.15,15.96 15.96,15.96 8.81,0 15.96,-7.15 15.96,-15.96 0,-8.81 -7.15,-15.96 -15.96,-15.96 -8.81,0 -15.96,7.15 -15.96,15.96 z"
       style="fill:none;stroke:#000000;stroke-width:2.25;stroke-linecap:butt;stroke-linejoin:miter;stroke-miterlimit:10;stroke-dasharray:none;stroke-opacity:1"
       id="path8433" /><g
       id="g8435"
       transform="translate(0.56737603,1.7021274)"><g
         id="g8437"
         clip-path="url(#clipPath8441)"><text
           transform="matrix(1,0,0,-1,313.97,188.62)"
           style="font-variant:normal;font-weight:normal;font-size:18px;font-family:'Times New Roman';-inkscape-font-specification:TimesNewRomanPSMT;writing-mode:lr-tb;fill:#000000;fill-opacity:1;fill-rule:nonzero;stroke:none"
           id="text8445"><tspan
             x="0 9"
             y="0"
             sodipodi:role="line"
             id="tspan8443">*g</tspan></text></g></g><path
       d="m 214.27,281.79 92.43,-72.45 -0.62,-0.79 -92.43,72.46 z m 93.19,-69.86 2.87,-6.07 -6.57,1.34 z"
       style="fill:#4472c4;fill-opacity:1;fill-rule:nonzero;stroke:none"
       id="path8447" /><path
       d="m 295.58,143.54 26.83,31.72 -0.77,0.64 -26.82,-31.72 z m 28.09,29.34 1.58,6.52 -6.16,-2.64 z"
       style="fill:#4472c4;fill-opacity:1;fill-rule:nonzero;stroke:none"
       id="path8449" /><path
       d="m 336.78,209.48 -21.73,37.23 0.86,0.5 21.73,-37.23 z m -23.39,35.11 -0.43,6.69 5.62,-3.67 z"
       style="fill:#4472c4;fill-opacity:1;fill-rule:nonzero;stroke:none"
       id="path8451" /><g
       id="g8453"><g
         id="g8455"
         clip-path="url(#clipPath8459)"><text
           transform="matrix(0.94869278,0,-0.31619931,-0.94869278,287.52,280.99)"
           style="font-variant:normal;font-weight:normal;font-size:18.9735px;font-family:'Cambria Math';-inkscape-font-specification:CambriaMath;writing-mode:lr-tb;fill:#000000;fill-opacity:1;fill-rule:nonzero;stroke:none"
           id="text8463"><tspan
             x="0"
             y="0"
             id="tspan8461">∇</tspan></text></g></g><g
       id="g8465"><g
         id="g8467"
         clip-path="url(#clipPath8471)"><text
           transform="matrix(1,0,0,-1,302.76,280.99)"
           style="font-style:italic;font-variant:normal;font-weight:bold;font-size:18px;font-family:'Times New Roman';-inkscape-font-specification:TimesNewRomanPS-BoldItalicMT;writing-mode:lr-tb;fill:#000000;fill-opacity:1;fill-rule:nonzero;stroke:none"
           id="text8475"><tspan
             x="0"
             y="0"
             id="tspan8473">W</tspan></text></g></g><g
       id="g8477"><g
         id="g8479"
         clip-path="url(#clipPath8483)"><text
           transform="matrix(1,0,0,-1,318.74,276.55)"
           style="font-style:italic;font-variant:normal;font-weight:bold;font-size:12px;font-family:'Times New Roman';-inkscape-font-specification:TimesNewRomanPS-BoldItalicMT;writing-mode:lr-tb;fill:#000000;fill-opacity:1;fill-rule:nonzero;stroke:none"
           id="text8487"><tspan
             x="0"
             y="0"
             id="tspan8485">2</tspan></text></g></g><path
       d="m 337.6,209.42 33.24,43 -0.79,0.61 -33.25,-42.99 z m 34.6,40.68 1.3,6.58 -6.04,-2.91 z"
       style="fill:#4472c4;fill-opacity:1;fill-rule:nonzero;stroke:none"
       id="path8489" /><path
       d="m 348.42,281.64 c 0,13.82 11.23,25.02 25.08,25.02 13.85,0 25.08,-11.2 25.08,-25.02 0,-13.82 -11.23,-25.02 -25.08,-25.02 -13.85,0 -25.08,11.2 -25.08,25.02 z"
       style="fill:none;stroke:#000000;stroke-width:2.25;stroke-linecap:butt;stroke-linejoin:miter;stroke-miterlimit:10;stroke-dasharray:none;stroke-opacity:1"
       id="path8493" /><g
       id="g8495"><g
         id="g8497"
         clip-path="url(#clipPath8501)"><text
           transform="matrix(0.94869278,0,-0.31619931,-0.94869278,348.38,278.14)"
           style="font-variant:normal;font-weight:normal;font-size:14.7993px;font-family:'Cambria Math';-inkscape-font-specification:CambriaMath;writing-mode:lr-tb;fill:#000000;fill-opacity:1;fill-rule:nonzero;stroke:none"
           id="text8505"><tspan
             x="0"
             y="0"
             id="tspan8503">∇</tspan></text></g></g><g
       id="g8507"><g
         id="g8509"
         clip-path="url(#clipPath8513)"><text
           transform="matrix(1,0,0,-1,356.78,278.14)"
           style="font-variant:normal;font-weight:normal;font-size:14.04px;font-family:'Times New Roman';-inkscape-font-specification:TimesNewRomanPSMT;writing-mode:lr-tb;fill:#000000;fill-opacity:1;fill-rule:nonzero;stroke:none"
           id="text8517"><tspan
             x="0 9.3646803 15.59844 24.12072"
             y="0"
             sodipodi:role="line"
             id="tspan8515">ReLU</tspan></text></g></g><path
       d="m 121.32,400.09 242.83,-60.22 -0.24,-0.98 -242.83,60.22 z m 242.46,-57.56 5.1,-4.35 -6.54,-1.47 z"
       style="fill:#4472c4;fill-opacity:1;fill-rule:nonzero;stroke:none"
       id="path8519" /><path
       d="m 168.99,399.84 195.22,-59.75 -0.29,-0.95 -195.23,59.74 z m 194.99,-57.06 4.86,-4.63 -6.61,-1.11 z"
       style="fill:#4472c4;fill-opacity:1;fill-rule:nonzero;stroke:none"
       id="path8521" /><path
       d="m 387.04,353.86 -39.27,28.93 0.59,0.81 39.28,-28.94 z m -39.95,26.33 -3.05,5.97 6.61,-1.14 z"
       style="fill:#4472c4;fill-opacity:1;fill-rule:nonzero;stroke:none"
       id="path8523" /><path
       d="m 387.75,354.03 22.24,27.91 -0.78,0.62 -22.24,-27.9 z m 23.57,25.57 1.4,6.56 -6.09,-2.82 z"
       style="fill:#4472c4;fill-opacity:1;fill-rule:nonzero;stroke:none"
       id="path8525" /><g
       id="g8527"><g
         id="g8529"
         clip-path="url(#clipPath8533)"><text
           transform="matrix(0.94869278,0,-0.31619931,-0.94869278,327.31,394.18)"
           style="font-variant:normal;font-weight:normal;font-size:18.9735px;font-family:'Cambria Math';-inkscape-font-specification:CambriaMath;writing-mode:lr-tb;fill:#000000;fill-opacity:1;fill-rule:nonzero;stroke:none"
           id="text8537"><tspan
             x="0"
             y="0"
             id="tspan8535">∇</tspan></text></g></g><g
       id="g8539"><g
         id="g8541"
         clip-path="url(#clipPath8545)"><text
           transform="matrix(1,0,0,-1,337.99,394.18)"
           style="font-style:italic;font-variant:normal;font-weight:bold;font-size:18px;font-family:'Times New Roman';-inkscape-font-specification:TimesNewRomanPS-BoldItalicMT;writing-mode:lr-tb;fill:#000000;fill-opacity:1;fill-rule:nonzero;stroke:none"
           id="text8549"><tspan
             x="0"
             y="0"
             id="tspan8547">X</tspan></text></g></g><g
       id="g8551"><g
         id="g8553"
         clip-path="url(#clipPath8557)"><text
           transform="matrix(1,0,0,-1,201.94,110.57)"
           style="font-style:italic;font-variant:normal;font-weight:bold;font-size:18px;font-family:'Times New Roman';-inkscape-font-specification:TimesNewRomanPS-BoldItalicMT;writing-mode:lr-tb;fill:#000000;fill-opacity:1;fill-rule:nonzero;stroke:none"
           id="text8561"><tspan
             x="0 8.04"
             y="0"
             sodipodi:role="line"
             id="tspan8559">y`</tspan></text></g></g><g
       id="g8563"><g
         id="g8565"
         clip-path="url(#clipPath8569)"><text
           transform="matrix(1,0,0,-1,205.8,157.61)"
           style="font-style:italic;font-variant:normal;font-weight:bold;font-size:20.04px;font-family:'Times New Roman';-inkscape-font-specification:TimesNewRomanPS-BoldItalicMT;writing-mode:lr-tb;fill:#000000;fill-opacity:1;fill-rule:nonzero;stroke:none"
           id="text8573"><tspan
             x="0"
             y="0"
             id="tspan8571">y</tspan></text></g></g><path
       d="m 371.46,338.34 c 0,8.81 7.15,15.96 15.96,15.96 8.81,0 15.96,-7.15 15.96,-15.96 0,-8.81 -7.15,-15.96 -15.96,-15.96 -8.81,0 -15.96,7.15 -15.96,15.96 z"
       style="fill:none;stroke:#000000;stroke-width:2.25;stroke-linecap:butt;stroke-linejoin:miter;stroke-miterlimit:10;stroke-dasharray:none;stroke-opacity:1"
       id="path8577" /><g
       id="g8579"
       transform="translate(2.2695034,2.2695036)"><g
         id="g8581"
         clip-path="url(#clipPath8585)"><text
           transform="matrix(1,0,0,-1,376.13,331.66)"
           style="font-variant:normal;font-weight:normal;font-size:18px;font-family:'Times New Roman';-inkscape-font-specification:TimesNewRomanPSMT;writing-mode:lr-tb;fill:#000000;fill-opacity:1;fill-rule:nonzero;stroke:none"
           id="text8589"><tspan
             x="0 9"
             y="0"
             sodipodi:role="line"
             id="tspan8587">*g</tspan></text></g></g><path
       d="m 373.85,306.5 6.06,8.46 -0.81,0.59 -6.07,-8.47 z m 7.51,6.2 1.05,6.62 -5.93,-3.13 z"
       style="fill:#4472c4;fill-opacity:1;fill-rule:nonzero;stroke:none"
       id="path8591" /><g
       id="g8593"><g
         id="g8595"
         clip-path="url(#clipPath8599)"><text
           transform="matrix(0.94869278,0,-0.31619931,-0.94869278,389.66,392.62)"
           style="font-variant:normal;font-weight:normal;font-size:18.9735px;font-family:'Cambria Math';-inkscape-font-specification:CambriaMath;writing-mode:lr-tb;fill:#000000;fill-opacity:1;fill-rule:nonzero;stroke:none"
           id="text8603"><tspan
             x="0"
             y="0"
             id="tspan8601">∇</tspan></text></g></g><g
       id="g8605"><g
         id="g8607"
         clip-path="url(#clipPath8611)"><text
           transform="matrix(1,0,0,-1,404.9,392.62)"
           style="font-style:italic;font-variant:normal;font-weight:bold;font-size:18px;font-family:'Times New Roman';-inkscape-font-specification:TimesNewRomanPS-BoldItalicMT;writing-mode:lr-tb;fill:#000000;fill-opacity:1;fill-rule:nonzero;stroke:none"
           id="text8615"><tspan
             x="0"
             y="0"
             id="tspan8613">W</tspan></text></g></g><g
       id="g8617"><g
         id="g8619"
         clip-path="url(#clipPath8623)"><text
           transform="matrix(1,0,0,-1,420.89,388.18)"
           style="font-style:italic;font-variant:normal;font-weight:bold;font-size:12px;font-family:'Times New Roman';-inkscape-font-specification:TimesNewRomanPS-BoldItalicMT;writing-mode:lr-tb;fill:#000000;fill-opacity:1;fill-rule:nonzero;stroke:none"
           id="text8627"><tspan
             x="0"
             y="0"
             id="tspan8625">1</tspan></text></g></g></g></svg>
