<?xml version="1.0" encoding="UTF-8" standalone="no"?>
<!-- Created with Inkscape (http://www.inkscape.org/) -->

<svg
   version="1.1"
   id="svg9781"
   xml:space="preserve"
   width="1100.3866"
   height="440.26273"
   viewBox="0 0 1100.3866 440.26273"
   sodipodi:docname="para.svg"
   inkscape:version="1.1.1 (3bf5ae0d25, 2021-09-20)"
   xmlns:inkscape="http://www.inkscape.org/namespaces/inkscape"
   xmlns:sodipodi="http://sodipodi.sourceforge.net/DTD/sodipodi-0.dtd"
   xmlns="http://www.w3.org/2000/svg"
   xmlns:svg="http://www.w3.org/2000/svg"><defs
     id="defs9785"><clipPath
       clipPathUnits="userSpaceOnUse"
       id="clipPath9795"><path
         d="M 0,1.2207e-4 H 960 V 540.00012 H 0 Z"
         clip-rule="evenodd"
         id="path9793" /></clipPath><clipPath
       clipPathUnits="userSpaceOnUse"
       id="clipPath9809"><path
         d="M 1.4305e-5,0 H 960.00001 V 540 H 1.4305e-5 Z"
         clip-rule="evenodd"
         id="path9807" /></clipPath><clipPath
       clipPathUnits="userSpaceOnUse"
       id="clipPath9825"><path
         d="M 1.4305e-5,0 H 960.00001 V 540 H 1.4305e-5 Z"
         clip-rule="evenodd"
         id="path9823" /></clipPath><clipPath
       clipPathUnits="userSpaceOnUse"
       id="clipPath9841"><path
         d="M 1.4305e-5,0 H 960.00001 V 540 H 1.4305e-5 Z"
         clip-rule="evenodd"
         id="path9839" /></clipPath><clipPath
       clipPathUnits="userSpaceOnUse"
       id="clipPath9865"><path
         d="M 1.4305e-5,0 H 960.00001 V 540 H 1.4305e-5 Z"
         clip-rule="evenodd"
         id="path9863" /></clipPath><clipPath
       clipPathUnits="userSpaceOnUse"
       id="clipPath9877"><path
         d="M 1.4305e-5,0 H 960.00001 V 540 H 1.4305e-5 Z"
         clip-rule="evenodd"
         id="path9875" /></clipPath><clipPath
       clipPathUnits="userSpaceOnUse"
       id="clipPath9889"><path
         d="M 1.4305e-5,0 H 960.00001 V 540 H 1.4305e-5 Z"
         clip-rule="evenodd"
         id="path9887" /></clipPath><clipPath
       clipPathUnits="userSpaceOnUse"
       id="clipPath9901"><path
         d="M 1.4305e-5,0 H 960.00001 V 540 H 1.4305e-5 Z"
         clip-rule="evenodd"
         id="path9899" /></clipPath><clipPath
       clipPathUnits="userSpaceOnUse"
       id="clipPath9913"><path
         d="M 1.4305e-5,0 H 960.00001 V 540 H 1.4305e-5 Z"
         clip-rule="evenodd"
         id="path9911" /></clipPath><clipPath
       clipPathUnits="userSpaceOnUse"
       id="clipPath9925"><path
         d="M 1.4305e-5,0 H 960.00001 V 540 H 1.4305e-5 Z"
         clip-rule="evenodd"
         id="path9923" /></clipPath><clipPath
       clipPathUnits="userSpaceOnUse"
       id="clipPath9937"><path
         d="M 1.4305e-5,0 H 960.00001 V 540 H 1.4305e-5 Z"
         clip-rule="evenodd"
         id="path9935" /></clipPath><clipPath
       clipPathUnits="userSpaceOnUse"
       id="clipPath9953"><path
         d="M 1.4305e-5,0 H 960.00001 V 540 H 1.4305e-5 Z"
         clip-rule="evenodd"
         id="path9951" /></clipPath><clipPath
       clipPathUnits="userSpaceOnUse"
       id="clipPath9969"><path
         d="M 1.4305e-5,0 H 960.00001 V 540 H 1.4305e-5 Z"
         clip-rule="evenodd"
         id="path9967" /></clipPath><clipPath
       clipPathUnits="userSpaceOnUse"
       id="clipPath9985"><path
         d="M 1.4305e-5,0 H 960.00001 V 540 H 1.4305e-5 Z"
         clip-rule="evenodd"
         id="path9983" /></clipPath><clipPath
       clipPathUnits="userSpaceOnUse"
       id="clipPath10001"><path
         d="M 1.4305e-5,0 H 960.00001 V 540 H 1.4305e-5 Z"
         clip-rule="evenodd"
         id="path9999" /></clipPath><clipPath
       clipPathUnits="userSpaceOnUse"
       id="clipPath10017"><path
         d="M 1.4305e-5,0 H 960.00001 V 540 H 1.4305e-5 Z"
         clip-rule="evenodd"
         id="path10015" /></clipPath><clipPath
       clipPathUnits="userSpaceOnUse"
       id="clipPath10033"><path
         d="M 1.4305e-5,0 H 960.00001 V 540 H 1.4305e-5 Z"
         clip-rule="evenodd"
         id="path10031" /></clipPath><clipPath
       clipPathUnits="userSpaceOnUse"
       id="clipPath10045"><path
         d="M 1.4305e-5,0 H 960.00001 V 540 H 1.4305e-5 Z"
         clip-rule="evenodd"
         id="path10043" /></clipPath><clipPath
       clipPathUnits="userSpaceOnUse"
       id="clipPath10057"><path
         d="M 1.4305e-5,0 H 960.00001 V 540 H 1.4305e-5 Z"
         clip-rule="evenodd"
         id="path10055" /></clipPath><clipPath
       clipPathUnits="userSpaceOnUse"
       id="clipPath10069"><path
         d="M 1.4305e-5,0 H 960.00001 V 540 H 1.4305e-5 Z"
         clip-rule="evenodd"
         id="path10067" /></clipPath><clipPath
       clipPathUnits="userSpaceOnUse"
       id="clipPath10081"><path
         d="M 1.4305e-5,0 H 960.00001 V 540 H 1.4305e-5 Z"
         clip-rule="evenodd"
         id="path10079" /></clipPath><clipPath
       clipPathUnits="userSpaceOnUse"
       id="clipPath10095"><path
         d="M 1.4305e-5,0 H 960.00001 V 540 H 1.4305e-5 Z"
         clip-rule="evenodd"
         id="path10093" /></clipPath><clipPath
       clipPathUnits="userSpaceOnUse"
       id="clipPath10111"><path
         d="M 1.4305e-5,0 H 960.00001 V 540 H 1.4305e-5 Z"
         clip-rule="evenodd"
         id="path10109" /></clipPath></defs><sodipodi:namedview
     id="namedview9783"
     pagecolor="#ffffff"
     bordercolor="#666666"
     borderopacity="1.0"
     inkscape:pageshadow="2"
     inkscape:pageopacity="0.0"
     inkscape:pagecheckerboard="0"
     showgrid="false"
     fit-margin-top="0"
     fit-margin-left="0"
     fit-margin-right="0"
     fit-margin-bottom="0"
     inkscape:zoom="1.321875"
     inkscape:cx="573.4279"
     inkscape:cy="163.026"
     inkscape:window-width="2560"
     inkscape:window-height="1361"
     inkscape:window-x="-9"
     inkscape:window-y="-9"
     inkscape:window-maximized="1"
     inkscape:current-layer="g9787" /><g
     id="g9787"
     inkscape:groupmode="layer"
     inkscape:label="para"
     transform="matrix(1.3333333,0,0,-1.3333333,-66.533332,523.54665)"><path
       d="m 149.64,204.96 c 0,14.58 26,26.4 58.08,26.4 32.08,0 58.08,-11.82 58.08,-26.4 0,-14.58 -26,-26.4 -58.08,-26.4 -32.08,0 -58.08,11.82 -58.08,26.4 z"
       style="fill:#dae3f3;fill-opacity:1;fill-rule:evenodd;stroke:none"
       id="path9799" /><path
       d="m 149.64,204.96 c 0,14.58 26,26.4 58.08,26.4 32.08,0 58.08,-11.82 58.08,-26.4 0,-14.58 -26,-26.4 -58.08,-26.4 -32.08,0 -58.08,11.82 -58.08,26.4 z"
       style="fill:none;stroke:#2f528f;stroke-width:1;stroke-linecap:butt;stroke-linejoin:miter;stroke-miterlimit:10;stroke-dasharray:none;stroke-opacity:1"
       id="path9801" /><g
       id="g9803"><g
         id="g9805"
         clip-path="url(#clipPath9809)"><text
           transform="matrix(1,0,0,-1,194.26,198.29)"
           style="font-variant:normal;font-weight:normal;font-size:18px;font-family:'Times New Roman';-inkscape-font-specification:TimesNewRomanPSMT;writing-mode:lr-tb;fill:#000000;fill-opacity:1;fill-rule:nonzero;stroke:none"
           id="text9813"><tspan
             x="0 9 18"
             y="0"
             sodipodi:role="line"
             id="tspan9811">op1</tspan></text></g></g><path
       d="m 149.64,105.18 c 0,14.55 26,26.34 58.08,26.34 32.08,0 58.08,-11.79 58.08,-26.34 0,-14.547 -26,-26.34 -58.08,-26.34 -32.08,0 -58.08,11.793 -58.08,26.34 z"
       style="fill:#dae3f3;fill-opacity:1;fill-rule:evenodd;stroke:none"
       id="path9815" /><path
       d="m 149.64,105.18 c 0,14.55 26,26.34 58.08,26.34 32.08,0 58.08,-11.79 58.08,-26.34 0,-14.547 -26,-26.34 -58.08,-26.34 -32.08,0 -58.08,11.793 -58.08,26.34 z"
       style="fill:none;stroke:#2f528f;stroke-width:1;stroke-linecap:butt;stroke-linejoin:miter;stroke-miterlimit:10;stroke-dasharray:none;stroke-opacity:1"
       id="path9817" /><g
       id="g9819"><g
         id="g9821"
         clip-path="url(#clipPath9825)"><text
           transform="matrix(1,0,0,-1,194.26,98.496)"
           style="font-variant:normal;font-weight:normal;font-size:18px;font-family:'Times New Roman';-inkscape-font-specification:TimesNewRomanPSMT;writing-mode:lr-tb;fill:#000000;fill-opacity:1;fill-rule:nonzero;stroke:none"
           id="text9829"><tspan
             x="0 9 18"
             y="0"
             sodipodi:role="line"
             id="tspan9827">op2</tspan></text></g></g><path
       d="m 288.72,156.36 c 0,14.58 26,26.4 58.08,26.4 32.08,0 58.08,-11.82 58.08,-26.4 0,-14.58 -26,-26.4 -58.08,-26.4 -32.08,0 -58.08,11.82 -58.08,26.4 z"
       style="fill:#dae3f3;fill-opacity:1;fill-rule:evenodd;stroke:none"
       id="path9831" /><path
       d="m 288.72,156.36 c 0,14.58 26,26.4 58.08,26.4 32.08,0 58.08,-11.82 58.08,-26.4 0,-14.58 -26,-26.4 -58.08,-26.4 -32.08,0 -58.08,11.82 -58.08,26.4 z"
       style="fill:none;stroke:#2f528f;stroke-width:1;stroke-linecap:butt;stroke-linejoin:miter;stroke-miterlimit:10;stroke-dasharray:none;stroke-opacity:1"
       id="path9833" /><g
       id="g9835"><g
         id="g9837"
         clip-path="url(#clipPath9841)"><text
           transform="matrix(1,0,0,-1,333.38,149.64)"
           style="font-variant:normal;font-weight:normal;font-size:18px;font-family:'Times New Roman';-inkscape-font-specification:TimesNewRomanPSMT;writing-mode:lr-tb;fill:#000000;fill-opacity:1;fill-rule:nonzero;stroke:none"
           id="text9845"><tspan
             x="0 9 18"
             y="0"
             sodipodi:role="line"
             id="tspan9843">op3</tspan></text></g></g><path
       d="m 101.74,156.47 1.15,0.03 1.18,0.11 1.19,0.17 1.17,0.25 1.15,0.3 1.15,0.37 1.12,0.42 1.12,0.48 1.09,0.53 1.06,0.59 1.05,0.63 1.03,0.69 1.94,1.49 1.81,1.65 1.68,1.8 1.51,1.92 0.69,1.02 0.64,1.03 0.6,1.05 0.54,1.08 0.48,1.1 0.43,1.12 0.37,1.13 0.31,1.14 0.25,1.16 0.17,1.17 0.11,1.17 0.04,1.14 0.04,1.11 v -0.06 l 0.09,1.1 -0.01,-0.08 0.18,1.11 -0.01,-0.06 0.23,1.09 -0.02,-0.06 0.3,1.09 -0.02,-0.06 0.35,1.08 -0.02,-0.06 0.41,1.06 -0.01,-0.04 0.45,1.05 -0.02,-0.05 0.52,1.03 -0.03,-0.05 0.57,1 -0.02,-0.03 0.61,0.99 -0.03,-0.04 0.66,0.96 -0.04,-0.06 1.45,1.86 -0.06,-0.08 1.61,1.73 -0.06,-0.07 1.75,1.6 -0.08,-0.06 1.88,1.43 -0.06,-0.04 0.98,0.65 -0.04,-0.02 1,0.6 -0.04,-0.02 1.02,0.56 -0.04,-0.02 1.04,0.51 -0.05,-0.03 1.06,0.46 -0.05,-0.02 1.08,0.41 -0.2,-0.06 1.11,0.2 -0.39,2.21 -1.22,-0.21 -1.2,-0.45 -1.11,-0.48 -1.09,-0.53 -1.07,-0.59 -1.04,-0.63 -1.03,-0.69 -1.94,-1.48 -1.82,-1.66 -1.67,-1.8 -1.51,-1.92 -0.7,-1.02 -0.64,-1.03 -0.59,-1.05 -0.55,-1.08 -0.48,-1.1 -0.43,-1.11 -0.37,-1.14 -0.31,-1.14 -0.24,-1.16 -0.18,-1.17 -0.11,-1.17 -0.04,-1.14 -0.03,-1.1 v 0.07 l -0.11,-1.11 0.01,0.06 -0.16,-1.1 0.01,0.06 -0.23,-1.09 0.01,0.06 -0.29,-1.09 0.02,0.06 -0.36,-1.07 0.02,0.05 -0.41,-1.06 0.02,0.04 -0.46,-1.05 0.03,0.06 -0.52,-1.03 0.02,0.04 -0.57,-1.01 0.03,0.04 -0.62,-0.99 0.03,0.04 -0.66,-0.96 0.05,0.06 -1.46,-1.86 0.06,0.08 -1.61,-1.73 0.07,0.07 -1.75,-1.59 0.07,0.06 -1.88,-1.44 0.06,0.04 -0.97,-0.65 0.04,0.03 -1,-0.61 0.04,0.02 -1.02,-0.56 0.05,0.02 -1.05,-0.51 0.05,0.03 -1.06,-0.46 0.05,0.02 -1.08,-0.41 0.06,0.02 -1.1,-0.35 0.06,0.02 -1.09,-0.29 0.05,0.01 -1.11,-0.23 0.07,0.01 -1.12,-0.16 0.06,0.01 -1.11,-0.1 h 0.06 l -1.13,-0.04 z m 41.79,43.94 6.06,4.49 -7.23,2.16 z"
       style="fill:#4472c4;fill-opacity:1;fill-rule:nonzero;stroke:none"
       id="path9847" /><path
       d="m 101.74,158.74 1.16,-0.03 1.19,-0.12 1.19,-0.2 1.17,-0.27 1.16,-0.34 1.16,-0.41 1.12,-0.47 1.12,-0.53 1.09,-0.59 1.07,-0.65 1.05,-0.71 1.01,-0.76 0.99,-0.8 0.97,-0.86 1.8,-1.83 1.68,-1.98 1.5,-2.12 0.69,-1.12 0.64,-1.14 0.59,-1.17 0.54,-1.19 0.47,-1.21 0.43,-1.22 0.37,-1.25 0.31,-1.26 0.24,-1.27 0.17,-1.28 0.11,-1.29 0.04,-1.26 0.04,-1.23 v 0.06 l 0.09,-1.23 v 0.07 l 0.17,-1.22 -0.01,0.05 0.23,-1.21 -0.01,0.05 0.29,-1.21 -0.01,0.06 0.35,-1.19 -0.02,0.05 0.42,-1.18 -0.02,0.04 0.46,-1.16 -0.02,0.05 0.52,-1.15 -0.03,0.05 0.57,-1.12 -0.02,0.04 0.62,-1.1 -0.03,0.04 0.66,-1.06 -0.04,0.06 1.46,-2.06 -0.06,0.07 1.61,-1.92 -0.06,0.07 1.75,-1.76 -0.06,0.05 0.93,-0.81 -0.03,0.02 0.95,-0.77 -0.05,0.03 0.99,-0.73 -0.04,0.03 1,-0.67 -0.05,0.03 1.03,-0.63 -0.05,0.03 1.04,-0.56 -0.05,0.02 1.06,-0.51 -0.05,0.03 1.08,-0.45 -0.22,0.06 1.13,-0.22 -0.44,-2.21 -1.24,0.25 -1.21,0.5 -1.11,0.54 -1.09,0.59 -1.07,0.65 -1.04,0.7 -1.03,0.76 -0.98,0.8 -0.97,0.86 -1.81,1.82 -1.67,1.99 -1.5,2.12 -0.69,1.12 -0.64,1.14 -0.59,1.16 -0.54,1.2 -0.48,1.21 -0.43,1.22 -0.37,1.25 -0.3,1.26 -0.25,1.27 -0.18,1.27 -0.1,1.3 -0.04,1.25 -0.03,1.23 v -0.06 l -0.11,1.23 0.01,-0.05 -0.16,1.22 0.01,-0.06 -0.24,1.21 0.01,-0.05 -0.29,1.2 0.02,-0.05 -0.36,1.2 0.02,-0.06 -0.41,1.18 0.01,-0.04 -0.45,1.16 0.02,-0.05 -0.52,1.14 0.02,-0.04 -0.57,1.12 0.02,-0.04 -0.61,1.09 0.02,-0.03 -0.66,1.07 0.04,-0.06 -1.45,2.05 0.05,-0.07 -1.61,1.91 0.06,-0.07 -1.75,1.77 0.06,-0.05 -0.92,0.82 0.03,-0.03 -0.95,0.77 0.04,-0.03 -0.98,0.73 0.05,-0.03 -1.01,0.67 0.04,-0.02 -1.02,0.62 0.06,-0.03 -1.05,0.56 0.05,-0.02 -1.06,0.51 0.05,-0.02 -1.08,0.45 0.06,-0.03 -1.09,0.39 0.06,-0.02 -1.09,0.32 0.06,-0.02 -1.11,0.26 0.06,-0.02 -1.11,0.19 0.07,-0.01 -1.12,0.11 h 0.08 l -1.13,0.04 z m 41.87,-49 5.98,-4.6 -7.27,-2.02 z"
       style="fill:#4472c4;fill-opacity:1;fill-rule:nonzero;stroke:none"
       id="path9849" /><path
       d="m 265.89,103.95 1.9,0.05 1.92,0.14 1.91,0.23 1.9,0.33 1.89,0.41 1.86,0.49 1.84,0.57 1.82,0.64 1.78,0.73 1.75,0.79 1.71,0.85 1.67,0.92 1.62,0.98 1.58,1.04 1.53,1.09 1.47,1.15 1.4,1.2 1.35,1.24 1.28,1.28 1.21,1.33 1.14,1.37 1.06,1.41 0.97,1.43 0.9,1.47 0.8,1.49 0.72,1.52 0.62,1.59 0.5,2.08 -2.19,0.52 -0.48,-2 0.05,0.15 -0.58,-1.48 0.03,0.07 -0.69,-1.46 0.02,0.05 -0.77,-1.44 0.03,0.05 -0.86,-1.42 0.03,0.05 -0.95,-1.38 0.03,0.04 -1.02,-1.37 0.03,0.05 -1.1,-1.33 0.03,0.04 -1.18,-1.29 0.04,0.03 -1.25,-1.25 0.04,0.04 -1.31,-1.21 0.03,0.03 -1.37,-1.17 0.03,0.03 -1.43,-1.12 0.04,0.03 -1.49,-1.07 0.03,0.03 -1.54,-1.02 0.04,0.03 -1.59,-0.96 0.04,0.02 -1.63,-0.9 0.04,0.02 -1.67,-0.83 0.04,0.02 -1.7,-0.78 0.04,0.02 -1.74,-0.7 0.04,0.01 -1.77,-0.63 0.05,0.02 -1.8,-0.55 0.04,0.01 -1.81,-0.48 0.05,0.01 -1.84,-0.4 0.05,0.01 -1.85,-0.31 h 0.06 l -1.86,-0.22 h 0.05 l -1.87,-0.14 h 0.06 l -1.88,-0.04 z m 42.15,26.42 -2.24,7.21 -4.42,-6.11 z"
       style="fill:#4472c4;fill-opacity:1;fill-rule:nonzero;stroke:none"
       id="path9851" /><path
       d="m 265.89,206.02 1.9,-0.04 1.91,-0.13 1.91,-0.22 1.9,-0.3 1.88,-0.37 1.86,-0.46 1.84,-0.52 1.81,-0.6 1.78,-0.66 1.75,-0.73 1.71,-0.79 1.66,-0.84 1.63,-0.91 1.57,-0.96 1.53,-1 1.47,-1.07 1.41,-1.1 1.35,-1.14 1.28,-1.19 1.21,-1.23 1.14,-1.26 1.06,-1.31 0.98,-1.32 0.9,-1.36 0.8,-1.38 0.72,-1.4 0.64,-1.5 0.36,-1.55 -2.2,-0.5 -0.33,1.45 0.06,-0.19 -0.58,1.36 0.03,-0.07 -0.69,1.35 0.03,-0.06 -0.77,1.33 0.03,-0.05 -0.86,1.3 0.03,-0.04 -0.94,1.28 0.03,-0.05 -1.03,1.26 0.04,-0.04 -1.1,1.22 0.03,-0.03 -1.18,1.19 0.04,-0.03 -1.25,1.15 0.04,-0.03 -1.31,1.12 0.03,-0.03 -1.37,1.07 0.04,-0.03 -1.44,1.04 0.04,-0.03 -1.49,0.98 0.03,-0.02 -1.53,0.94 0.04,-0.02 -1.59,0.88 0.03,-0.02 -1.62,0.83 0.03,-0.02 -1.67,0.77 0.04,-0.02 -1.7,0.72 0.04,-0.02 -1.74,0.65 0.04,-0.02 -1.77,0.59 0.04,-0.02 -1.8,0.51 0.04,-0.01 -1.81,0.44 0.04,-0.01 -1.83,0.37 0.04,-0.01 -1.84,0.3 0.05,-0.01 -1.86,0.21 h 0.05 l -1.87,0.12 h 0.05 l -1.88,0.05 z m 41.96,-23.85 -2.05,-7.26 -4.58,5.99 z"
       style="fill:#4472c4;fill-opacity:1;fill-rule:nonzero;stroke:none"
       id="path9853" /><path
       d="m 560.82,270.95 308.74,-0.01 v -2.25 l -308.74,0.01 z m 307.62,2.24 6.75,-3.37 -6.75,-3.38 z"
       style="fill:#4472c4;fill-opacity:1;fill-rule:nonzero;stroke:none"
       id="path9855" /><path
       d="m 560.82,94.185 h 308.74 v -2.25 H 560.82 Z m 307.62,2.25 6.75,-3.375 -6.75,-3.375 z"
       style="fill:#4472c4;fill-opacity:1;fill-rule:nonzero;stroke:none"
       id="path9857" /><g
       id="g9859"><g
         id="g9861"
         clip-path="url(#clipPath9865)"><text
           transform="matrix(1,0,0,-1,115.82,373.39)"
           style="font-variant:normal;font-weight:bold;font-size:18px;font-family:'Times New Roman';-inkscape-font-specification:TimesNewRomanPS-BoldMT;writing-mode:lr-tb;fill:#0070c0;fill-opacity:1;fill-rule:nonzero;stroke:none"
           id="text9869"><tspan
             x="0 10.008 18"
             y="0"
             sodipodi:role="line"
             id="tspan9867">def</tspan></text></g></g><g
       id="g9871"><g
         id="g9873"
         clip-path="url(#clipPath9877)"><text
           transform="matrix(1,0,0,-1,144.26,373.39)"
           style="font-variant:normal;font-weight:normal;font-size:18px;font-family:'Times New Roman';-inkscape-font-specification:TimesNewRomanPSMT;writing-mode:lr-tb;fill:#000000;fill-opacity:1;fill-rule:nonzero;stroke:none"
           id="text9881"><tspan
             x="0 13.914 22.914 31.914 39.905998"
             y="0"
             sodipodi:role="line"
             id="tspan9879">model</tspan></text></g></g><g
       id="g9883"><g
         id="g9885"
         clip-path="url(#clipPath9889)"><text
           transform="matrix(1,0,0,-1,189.29,373.39)"
           style="font-variant:normal;font-weight:normal;font-size:18px;font-family:'Times New Roman';-inkscape-font-specification:TimesNewRomanPSMT;writing-mode:lr-tb;fill:#000000;fill-opacity:1;fill-rule:nonzero;stroke:none"
           id="text9893"><tspan
             x="0 5.994 14.994 20.988001 25.992001"
             y="0"
             sodipodi:role="line"
             id="tspan9891">(x): </tspan></text></g></g><g
       id="g9895"><g
         id="g9897"
         clip-path="url(#clipPath9901)"><text
           transform="matrix(1,0,0,-1,133.82,351.79)"
           style="font-variant:normal;font-weight:normal;font-size:18.024px;font-family:'Times New Roman';-inkscape-font-specification:TimesNewRomanPSMT;writing-mode:lr-tb;fill:#000000;fill-opacity:1;fill-rule:nonzero;stroke:none"
           id="text9905"><tspan
             x="0 9.2282877 18.240288 22.421856 32.587391 37.093391 46.105392 55.06332 64.075317 70.077309 79.08931"
             y="0"
             sodipodi:role="line"
             id="tspan9903">y1 = op1(x)</tspan></text></g></g><g
       id="g9907"><g
         id="g9909"
         clip-path="url(#clipPath9913)"><text
           transform="matrix(1,0,0,-1,133.82,330.17)"
           style="font-variant:normal;font-weight:normal;font-size:18px;font-family:'Times New Roman';-inkscape-font-specification:TimesNewRomanPSMT;writing-mode:lr-tb;fill:#000000;fill-opacity:1;fill-rule:nonzero;stroke:none"
           id="text9917"><tspan
             x="0 9.2159996 18.216 22.41 32.562 37.062 46.062 55.062 64.061996 70.056 79.056"
             y="0"
             sodipodi:role="line"
             id="tspan9915">y2 = op2(x)</tspan></text></g></g><g
       id="g9919"><g
         id="g9921"
         clip-path="url(#clipPath9925)"><text
           transform="matrix(1,0,0,-1,133.82,308.57)"
           style="font-variant:normal;font-weight:bold;font-size:18px;font-family:'Times New Roman';-inkscape-font-specification:TimesNewRomanPS-BoldMT;writing-mode:lr-tb;fill:#0070c0;fill-opacity:1;fill-rule:nonzero;stroke:none"
           id="text9929"><tspan
             x="0 7.6859999 15.678 21.672001 31.68 39.708"
             y="0"
             sodipodi:role="line"
             id="tspan9927">return</tspan></text></g></g><g
       id="g9931"><g
         id="g9933"
         clip-path="url(#clipPath9937)"><text
           transform="matrix(1,0,0,-1,187.97,308.57)"
           style="font-variant:normal;font-weight:normal;font-size:18px;font-family:'Times New Roman';-inkscape-font-specification:TimesNewRomanPSMT;writing-mode:lr-tb;fill:#000000;fill-opacity:1;fill-rule:nonzero;stroke:none"
           id="text9941"><tspan
             x="0 9 18 27 32.993999 42.228001 51.228001 55.764 59.958 69.174004 78.174004"
             y="0"
             sodipodi:role="line"
             id="tspan9939">op3(y1, y2)</tspan></text></g></g><path
       d="m 560.76,359.52 h 81.12 v 32.64 h -81.12 z"
       style="fill:#d0cece;fill-opacity:1;fill-rule:evenodd;stroke:none"
       id="path9943" /><path
       d="m 560.76,359.52 h 81.12 v 32.64 h -81.12 z"
       style="fill:none;stroke:#2f528f;stroke-width:1;stroke-linecap:butt;stroke-linejoin:miter;stroke-miterlimit:10;stroke-dasharray:none;stroke-opacity:1"
       id="path9945" /><g
       id="g9947"><g
         id="g9949"
         clip-path="url(#clipPath9953)"><text
           transform="matrix(1,0,0,-1,587.9,369.22)"
           style="font-variant:normal;font-weight:normal;font-size:18px;font-family:'Times New Roman';-inkscape-font-specification:TimesNewRomanPSMT;writing-mode:lr-tb;fill:#000000;fill-opacity:1;fill-rule:nonzero;stroke:none"
           id="text9957"><tspan
             x="0 9 18"
             y="0"
             sodipodi:role="line"
             id="tspan9955">op1</tspan></text></g></g><path
       d="M 641.88,322.32 H 723 v 32.52 h -81.12 z"
       style="fill:#d0cece;fill-opacity:1;fill-rule:evenodd;stroke:none"
       id="path9959" /><path
       d="M 641.88,322.32 H 723 v 32.52 h -81.12 z"
       style="fill:none;stroke:#2f528f;stroke-width:1;stroke-linecap:butt;stroke-linejoin:miter;stroke-miterlimit:10;stroke-dasharray:none;stroke-opacity:1"
       id="path9961" /><g
       id="g9963"><g
         id="g9965"
         clip-path="url(#clipPath9969)"><text
           transform="matrix(1,0,0,-1,669.05,331.94)"
           style="font-variant:normal;font-weight:normal;font-size:18px;font-family:'Times New Roman';-inkscape-font-specification:TimesNewRomanPSMT;writing-mode:lr-tb;fill:#000000;fill-opacity:1;fill-rule:nonzero;stroke:none"
           id="text9973"><tspan
             x="0 9 18"
             y="0"
             sodipodi:role="line"
             id="tspan9971">op2</tspan></text></g></g><path
       d="m 729,285.96 h 81.12 V 318.6 H 729 Z"
       style="fill:#d0cece;fill-opacity:1;fill-rule:evenodd;stroke:none"
       id="path9975" /><path
       d="m 729,285.96 h 81.12 V 318.6 H 729 Z"
       style="fill:none;stroke:#2f528f;stroke-width:1;stroke-linecap:butt;stroke-linejoin:miter;stroke-miterlimit:10;stroke-dasharray:none;stroke-opacity:1"
       id="path9977" /><g
       id="g9979"><g
         id="g9981"
         clip-path="url(#clipPath9985)"><text
           transform="matrix(1,0,0,-1,756.1,295.58)"
           style="font-variant:normal;font-weight:normal;font-size:18px;font-family:'Times New Roman';-inkscape-font-specification:TimesNewRomanPSMT;writing-mode:lr-tb;fill:#000000;fill-opacity:1;fill-rule:nonzero;stroke:none"
           id="text9989"><tspan
             x="0 9 18"
             y="0"
             sodipodi:role="line"
             id="tspan9987">op3</tspan></text></g></g><path
       d="m 560.76,178.2 h 81.12 v 32.64 h -81.12 z"
       style="fill:#d0cece;fill-opacity:1;fill-rule:evenodd;stroke:none"
       id="path9991" /><path
       d="m 560.76,178.2 h 81.12 v 32.64 h -81.12 z"
       style="fill:none;stroke:#2f528f;stroke-width:1;stroke-linecap:butt;stroke-linejoin:miter;stroke-miterlimit:10;stroke-dasharray:none;stroke-opacity:1"
       id="path9993" /><g
       id="g9995"><g
         id="g9997"
         clip-path="url(#clipPath10001)"><text
           transform="matrix(1,0,0,-1,587.9,187.85)"
           style="font-variant:normal;font-weight:normal;font-size:18.024px;font-family:'Times New Roman';-inkscape-font-specification:TimesNewRomanPSMT;writing-mode:lr-tb;fill:#000000;fill-opacity:1;fill-rule:nonzero;stroke:none"
           id="text10005"><tspan
             x="0 9 18"
             y="0"
             sodipodi:role="line"
             id="tspan10003">op1</tspan></text></g></g><path
       d="m 560.76,138.96 h 81.12 v 32.64 h -81.12 z"
       style="fill:#d0cece;fill-opacity:1;fill-rule:evenodd;stroke:none"
       id="path10007" /><path
       d="m 560.76,138.96 h 81.12 v 32.64 h -81.12 z"
       style="fill:none;stroke:#2f528f;stroke-width:1;stroke-linecap:butt;stroke-linejoin:miter;stroke-miterlimit:10;stroke-dasharray:none;stroke-opacity:1"
       id="path10009" /><g
       id="g10011"><g
         id="g10013"
         clip-path="url(#clipPath10017)"><text
           transform="matrix(1,0,0,-1,587.9,148.58)"
           style="font-variant:normal;font-weight:normal;font-size:18px;font-family:'Times New Roman';-inkscape-font-specification:TimesNewRomanPSMT;writing-mode:lr-tb;fill:#000000;fill-opacity:1;fill-rule:nonzero;stroke:none"
           id="text10021"><tspan
             x="0 9 18"
             y="0"
             sodipodi:role="line"
             id="tspan10019">op2</tspan></text></g></g><path
       d="M 641.88,103.56 H 723 v 32.52 h -81.12 z"
       style="fill:#d0cece;fill-opacity:1;fill-rule:evenodd;stroke:none"
       id="path10023" /><path
       d="M 641.88,103.56 H 723 v 32.52 h -81.12 z"
       style="fill:none;stroke:#2f528f;stroke-width:1;stroke-linecap:butt;stroke-linejoin:miter;stroke-miterlimit:10;stroke-dasharray:none;stroke-opacity:1"
       id="path10025" /><g
       id="g10027"><g
         id="g10029"
         clip-path="url(#clipPath10033)"><text
           transform="matrix(1,0,0,-1,669.05,113.11)"
           style="font-variant:normal;font-weight:normal;font-size:18px;font-family:'Times New Roman';-inkscape-font-specification:TimesNewRomanPSMT;writing-mode:lr-tb;fill:#000000;fill-opacity:1;fill-rule:nonzero;stroke:none"
           id="text10037"><tspan
             x="0 9 18"
             y="0"
             sodipodi:role="line"
             id="tspan10035">op3</tspan></text></g></g><g
       id="g10039"><g
         id="g10041"
         clip-path="url(#clipPath10045)"><text
           transform="matrix(1,0,0,-1,451.82,316.66)"
           style="font-variant:normal;font-weight:bold;font-size:18px;font-family:DengXian;-inkscape-font-specification:DengXian-Bold;writing-mode:lr-tb;fill:#000000;fill-opacity:1;fill-rule:nonzero;stroke:none"
           id="text10049"><tspan
             x="0 18"
             y="0"
             sodipodi:role="line"
             id="tspan10047">串行</tspan></text></g></g><g
       id="g10051"><g
         id="g10053"
         clip-path="url(#clipPath10057)"><text
           transform="matrix(1,0,0,-1,451.82,176.64)"
           style="font-variant:normal;font-weight:bold;font-size:18px;font-family:DengXian;-inkscape-font-specification:DengXian-Bold;writing-mode:lr-tb;fill:#000000;fill-opacity:1;fill-rule:nonzero;stroke:none"
           id="text10061"><tspan
             x="0 18"
             y="0"
             sodipodi:role="line"
             id="tspan10059">并行</tspan></text></g></g><g
       id="g10063"><g
         id="g10065"
         clip-path="url(#clipPath10069)"><text
           transform="matrix(1,0,0,-1,825.91,242.26)"
           style="font-variant:normal;font-weight:bold;font-size:18px;font-family:DengXian;-inkscape-font-specification:DengXian-Bold;writing-mode:lr-tb;fill:#000000;fill-opacity:1;fill-rule:nonzero;stroke:none"
           id="text10073"><tspan
             x="0 18"
             y="0"
             sodipodi:role="line"
             id="tspan10071">时间</tspan></text></g></g><g
       id="g10075"><g
         id="g10077"
         clip-path="url(#clipPath10081)"><text
           transform="matrix(1,0,0,-1,829.2,65.376)"
           style="font-variant:normal;font-weight:bold;font-size:18.024px;font-family:DengXian;-inkscape-font-specification:DengXian-Bold;writing-mode:lr-tb;fill:#000000;fill-opacity:1;fill-rule:nonzero;stroke:none"
           id="text10085"><tspan
             x="0 18"
             y="0"
             sodipodi:role="line"
             id="tspan10083">时间</tspan></text></g></g><path
       d="m 190.68,269.88 h 6.54 v 11.52 h 13.08 v -11.52 h 6.54 l -13.08,-11.52 z"
       style="fill:#44546a;fill-opacity:1;fill-rule:evenodd;stroke:none"
       id="path10087" /><g
       id="g10089"><g
         id="g10091"
         clip-path="url(#clipPath10095)"><text
           transform="matrix(1,0,0,-1,738.62,113.74)"
           style="font-variant:normal;font-weight:normal;font-size:18px;font-family:DengXian;-inkscape-font-specification:DengXian;writing-mode:lr-tb;fill:#ff0000;fill-opacity:1;fill-rule:nonzero;stroke:none"
           id="text10099"><tspan
             x="0 18 36 54 72"
             y="0"
             sodipodi:role="line"
             id="tspan10097">更快的执行</tspan></text></g></g><path
       d="m 50.4,135 h 51.24 v 45.36 H 50.4 Z"
       style="fill:#deebf7;fill-opacity:1;fill-rule:evenodd;stroke:none"
       id="path10101" /><path
       d="m 50.4,135 h 51.24 v 45.36 H 50.4 Z"
       style="fill:none;stroke:#2f528f;stroke-width:1;stroke-linecap:butt;stroke-linejoin:miter;stroke-miterlimit:10;stroke-dasharray:none;stroke-opacity:1"
       id="path10103" /><g
       id="g10105"><g
         id="g10107"
         clip-path="url(#clipPath10111)"><text
           transform="matrix(1,0,0,-1,69.504,150.98)"
           style="font-variant:normal;font-weight:normal;font-size:18px;font-family:'Times New Roman';-inkscape-font-specification:TimesNewRomanPSMT;writing-mode:lr-tb;fill:#000000;fill-opacity:1;fill-rule:nonzero;stroke:none"
           id="text10115"><tspan
             x="0"
             y="0"
             id="tspan10113">X</tspan></text></g></g></g></svg>
