<?xml version="1.0" encoding="UTF-8" standalone="no"?>
<!-- Created with Inkscape (http://www.inkscape.org/) -->

<svg
   version="1.1"
   id="svg12628"
   xml:space="preserve"
   width="1044.8153"
   height="270.35999"
   viewBox="0 0 1044.8153 270.35999"
   sodipodi:docname="static.svg"
   inkscape:version="1.1.1 (3bf5ae0d25, 2021-09-20)"
   xmlns:inkscape="http://www.inkscape.org/namespaces/inkscape"
   xmlns:sodipodi="http://sodipodi.sourceforge.net/DTD/sodipodi-0.dtd"
   xmlns="http://www.w3.org/2000/svg"
   xmlns:svg="http://www.w3.org/2000/svg"><defs
     id="defs12632"><clipPath
       clipPathUnits="userSpaceOnUse"
       id="clipPath12642"><path
         d="M 0,1.2207e-4 H 960 V 540.00012 H 0 Z"
         clip-rule="evenodd"
         id="path12640" /></clipPath><clipPath
       clipPathUnits="userSpaceOnUse"
       id="clipPath12654"><path
         d="M 1.4305e-5,0 H 960.00001 V 540 H 1.4305e-5 Z"
         clip-rule="evenodd"
         id="path12652" /></clipPath><clipPath
       clipPathUnits="userSpaceOnUse"
       id="clipPath12668"><path
         d="M 1.4305e-5,0 H 960.00001 V 540 H 1.4305e-5 Z"
         clip-rule="evenodd"
         id="path12666" /></clipPath><clipPath
       clipPathUnits="userSpaceOnUse"
       id="clipPath12682"><path
         d="M 1.4305e-5,0 H 960.00001 V 540 H 1.4305e-5 Z"
         clip-rule="evenodd"
         id="path12680" /></clipPath><clipPath
       clipPathUnits="userSpaceOnUse"
       id="clipPath12698"><path
         d="M 1.4305e-5,0 H 960.00001 V 540 H 1.4305e-5 Z"
         clip-rule="evenodd"
         id="path12696" /></clipPath><clipPath
       clipPathUnits="userSpaceOnUse"
       id="clipPath12714"><path
         d="M 1.4305e-5,0 H 960.00001 V 540 H 1.4305e-5 Z"
         clip-rule="evenodd"
         id="path12712" /></clipPath><clipPath
       clipPathUnits="userSpaceOnUse"
       id="clipPath12734"><path
         d="M 1.4305e-5,0 H 960.00001 V 540 H 1.4305e-5 Z"
         clip-rule="evenodd"
         id="path12732" /></clipPath><clipPath
       clipPathUnits="userSpaceOnUse"
       id="clipPath12746"><path
         d="M 1.4305e-5,0 H 960.00001 V 540 H 1.4305e-5 Z"
         clip-rule="evenodd"
         id="path12744" /></clipPath><clipPath
       clipPathUnits="userSpaceOnUse"
       id="clipPath12758"><path
         d="M 1.4305e-5,0 H 960.00001 V 540 H 1.4305e-5 Z"
         clip-rule="evenodd"
         id="path12756" /></clipPath><clipPath
       clipPathUnits="userSpaceOnUse"
       id="clipPath12776"><path
         d="M 1.4305e-5,0 H 960.00001 V 540 H 1.4305e-5 Z"
         clip-rule="evenodd"
         id="path12774" /></clipPath><clipPath
       clipPathUnits="userSpaceOnUse"
       id="clipPath12788"><path
         d="M 1.4305e-5,0 H 960.00001 V 540 H 1.4305e-5 Z"
         clip-rule="evenodd"
         id="path12786" /></clipPath><clipPath
       clipPathUnits="userSpaceOnUse"
       id="clipPath12800"><path
         d="M 1.4305e-5,0 H 960.00001 V 540 H 1.4305e-5 Z"
         clip-rule="evenodd"
         id="path12798" /></clipPath><clipPath
       clipPathUnits="userSpaceOnUse"
       id="clipPath12818"><path
         d="M 1.4305e-5,0 H 960.00001 V 540 H 1.4305e-5 Z"
         clip-rule="evenodd"
         id="path12816" /></clipPath><clipPath
       clipPathUnits="userSpaceOnUse"
       id="clipPath12830"><path
         d="M 1.4305e-5,0 H 960.00001 V 540 H 1.4305e-5 Z"
         clip-rule="evenodd"
         id="path12828" /></clipPath><clipPath
       clipPathUnits="userSpaceOnUse"
       id="clipPath12842"><path
         d="M 1.4305e-5,0 H 960.00001 V 540 H 1.4305e-5 Z"
         clip-rule="evenodd"
         id="path12840" /></clipPath><clipPath
       clipPathUnits="userSpaceOnUse"
       id="clipPath12860"><path
         d="M 1.4305e-5,0 H 960.00001 V 540 H 1.4305e-5 Z"
         clip-rule="evenodd"
         id="path12858" /></clipPath><clipPath
       clipPathUnits="userSpaceOnUse"
       id="clipPath12872"><path
         d="M 1.4305e-5,0 H 960.00001 V 540 H 1.4305e-5 Z"
         clip-rule="evenodd"
         id="path12870" /></clipPath><clipPath
       clipPathUnits="userSpaceOnUse"
       id="clipPath12884"><path
         d="M 1.4305e-5,0 H 960.00001 V 540 H 1.4305e-5 Z"
         clip-rule="evenodd"
         id="path12882" /></clipPath></defs><sodipodi:namedview
     id="namedview12630"
     pagecolor="#ffffff"
     bordercolor="#666666"
     borderopacity="1.0"
     inkscape:pageshadow="2"
     inkscape:pageopacity="0.0"
     inkscape:pagecheckerboard="0"
     showgrid="false"
     fit-margin-top="0"
     fit-margin-left="0"
     fit-margin-right="0"
     fit-margin-bottom="0"
     inkscape:zoom="1.321875"
     inkscape:cx="556.78487"
     inkscape:cy="170.59102"
     inkscape:window-width="2560"
     inkscape:window-height="1361"
     inkscape:window-x="-9"
     inkscape:window-y="-9"
     inkscape:window-maximized="1"
     inkscape:current-layer="g12634" /><g
     id="g12634"
     inkscape:groupmode="layer"
     inkscape:label="static"
     transform="matrix(1.3333333,0,0,-1.3333333,-82.864623,530.67999)"><path
       d="m 76.977,299.76 44.523,-20.85 -0.96,-2.03 -44.517,20.84 z m 44.453,-18.33 4.69,-5.92 -7.55,-0.19 z"
       style="fill:#000000;fill-opacity:1;fill-rule:nonzero;stroke:none"
       id="path12646" /><g
       id="g12648"><g
         id="g12650"
         clip-path="url(#clipPath12654)"><text
           transform="matrix(1,0,0,-1,159.26,278.26)"
           style="font-style:italic;font-variant:normal;font-weight:bold;font-size:20.04px;font-family:'Times New Roman';-inkscape-font-specification:TimesNewRomanPS-BoldItalicMT;writing-mode:lr-tb;fill:#000000;fill-opacity:1;fill-rule:nonzero;stroke:none"
           id="text12658"><tspan
             x="0"
             y="0"
             id="tspan12656">Y</tspan></text></g></g><path
       d="m 81.578,233.01 34.612,23.81 -1.28,1.86 -34.608,-23.81 z m 34.952,21.32 3.65,6.61 -7.47,-1.05 z"
       style="fill:#000000;fill-opacity:1;fill-rule:nonzero;stroke:none"
       id="path12660" /><g
       id="g12662"><g
         id="g12664"
         clip-path="url(#clipPath12668)"><text
           transform="matrix(1,0,0,-1,63.168,292.25)"
           style="font-style:italic;font-variant:normal;font-weight:bold;font-size:18px;font-family:'Times New Roman';-inkscape-font-specification:TimesNewRomanPS-BoldItalicMT;writing-mode:lr-tb;fill:#000000;fill-opacity:1;fill-rule:nonzero;stroke:none"
           id="text12672"><tspan
             x="0"
             y="0"
             id="tspan12670">W</tspan></text></g></g><path
       d="m 151.26,269.99 27.18,-0.01 v -2.24 h -27.18 z m 26.05,2.25 6.75,-3.38 -6.75,-3.37 z"
       style="fill:#000000;fill-opacity:1;fill-rule:nonzero;stroke:none"
       id="path12674" /><g
       id="g12676"><g
         id="g12678"
         clip-path="url(#clipPath12682)"><text
           transform="matrix(1,0,0,-1,63.168,227.47)"
           style="font-style:italic;font-variant:normal;font-weight:bold;font-size:18px;font-family:'Times New Roman';-inkscape-font-specification:TimesNewRomanPS-BoldItalicMT;writing-mode:lr-tb;fill:#000000;fill-opacity:1;fill-rule:nonzero;stroke:none"
           id="text12686"><tspan
             x="0"
             y="0"
             id="tspan12684">A</tspan></text></g></g><path
       d="m 125.1,268.86 c 0,7.09 5.86,12.84 13.08,12.84 7.22,0 13.08,-5.75 13.08,-12.84 0,-7.09 -5.86,-12.84 -13.08,-12.84 -7.22,0 -13.08,5.75 -13.08,12.84 z"
       style="fill:none;stroke:#000000;stroke-width:2.25;stroke-linecap:butt;stroke-linejoin:miter;stroke-miterlimit:10;stroke-dasharray:none;stroke-opacity:1"
       id="path12690" /><g
       id="g12692"
       transform="translate(-1.1347518,-4.5390076)"><g
         id="g12694"
         clip-path="url(#clipPath12698)"><text
           transform="matrix(1,0,0,-1,130.13,257.09)"
           style="font-variant:normal;font-weight:normal;font-size:32.04px;font-family:'Times New Roman';-inkscape-font-specification:TimesNewRomanPSMT;writing-mode:lr-tb;fill:#000000;fill-opacity:1;fill-rule:nonzero;stroke:none"
           id="text12702"><tspan
             x="0"
             y="0"
             id="tspan12700">*</tspan></text></g></g><path
       d="m 183.3,269.7 c 0,11.07 8.97,20.04 20.04,20.04 11.07,0 20.04,-8.97 20.04,-20.04 0,-11.07 -8.97,-20.04 -20.04,-20.04 -11.07,0 -20.04,8.97 -20.04,20.04 z"
       style="fill:none;stroke:#000000;stroke-width:2.25;stroke-linecap:butt;stroke-linejoin:miter;stroke-miterlimit:10;stroke-dasharray:none;stroke-opacity:1"
       id="path12706" /><g
       id="g12708"><g
         id="g12710"
         clip-path="url(#clipPath12714)"><text
           transform="matrix(1,0,0,-1,187.1,264.62)"
           style="font-variant:normal;font-weight:normal;font-size:14.04px;font-family:'Times New Roman';-inkscape-font-specification:TimesNewRomanPSMT;writing-mode:lr-tb;fill:#000000;fill-opacity:1;fill-rule:nonzero;stroke:none"
           id="text12718"><tspan
             x="0 9.3646803 15.59844 24.12072"
             y="0"
             sodipodi:role="line"
             id="tspan12716">ReLU</tspan></text></g></g><path
       d="m 223.38,269.99 27.18,-0.01 v -2.24 h -27.18 z m 26.05,2.25 6.75,-3.38 -6.75,-3.37 z"
       style="fill:#000000;fill-opacity:1;fill-rule:nonzero;stroke:none"
       id="path12720" /><path
       d="m 278.16,273.78 h 55.08 v 4.86 l 9.72,-9.72 -9.72,-9.72 v 4.86 h -55.08 z"
       style="fill:#4472c4;fill-opacity:1;fill-rule:evenodd;stroke:none"
       id="path12722" /><path
       d="m 278.16,273.78 h 55.08 v 4.86 l 9.72,-9.72 -9.72,-9.72 v 4.86 h -55.08 z"
       style="fill:none;stroke:#2f528f;stroke-width:1;stroke-linecap:butt;stroke-linejoin:miter;stroke-miterlimit:10;stroke-dasharray:none;stroke-opacity:1"
       id="path12724" /><path
       d="m 357.9,196.74 h 87.84 v 147.6 H 357.9 Z"
       style="fill:none;stroke:#2f528f;stroke-width:3;stroke-linecap:butt;stroke-linejoin:miter;stroke-miterlimit:10;stroke-dasharray:none;stroke-opacity:1"
       id="path12726" /><g
       id="g12728"><g
         id="g12730"
         clip-path="url(#clipPath12734)"><text
           transform="matrix(1,0,0,-1,369.77,296.23)"
           style="font-variant:normal;font-weight:normal;font-size:32.064px;font-family:'Microsoft YaHei';-inkscape-font-specification:MicrosoftYaHei;writing-mode:lr-tb;fill:#000000;fill-opacity:1;fill-rule:nonzero;stroke:none"
           id="text12738"><tspan
             x="0 32.040001"
             y="0"
             sodipodi:role="line"
             id="tspan12736">静态</tspan></text></g></g><g
       id="g12740"><g
         id="g12742"
         clip-path="url(#clipPath12746)"><text
           transform="matrix(1,0,0,-1,369.77,257.81)"
           style="font-variant:normal;font-weight:normal;font-size:32.04px;font-family:'Microsoft YaHei';-inkscape-font-specification:MicrosoftYaHei;writing-mode:lr-tb;fill:#000000;fill-opacity:1;fill-rule:nonzero;stroke:none"
           id="text12750"><tspan
             x="0 32.040001"
             y="0"
             sodipodi:role="line"
             id="tspan12748">计算</tspan></text></g></g><g
       id="g12752"><g
         id="g12754"
         clip-path="url(#clipPath12758)"><text
           transform="matrix(1,0,0,-1,385.85,219.41)"
           style="font-variant:normal;font-weight:normal;font-size:32.04px;font-family:'Microsoft YaHei';-inkscape-font-specification:MicrosoftYaHei;writing-mode:lr-tb;fill:#000000;fill-opacity:1;fill-rule:nonzero;stroke:none"
           id="text12762"><tspan
             x="0"
             y="0"
             id="tspan12760">图</tspan></text></g></g><path
       d="m 469.44,273.78 h 55.08 v 4.86 l 9.72,-9.72 -9.72,-9.72 v 4.86 h -55.08 z"
       style="fill:#4472c4;fill-opacity:1;fill-rule:evenodd;stroke:none"
       id="path12764" /><path
       d="m 469.44,273.78 h 55.08 v 4.86 l 9.72,-9.72 -9.72,-9.72 v 4.86 h -55.08 z"
       style="fill:none;stroke:#2f528f;stroke-width:1;stroke-linecap:butt;stroke-linejoin:miter;stroke-miterlimit:10;stroke-dasharray:none;stroke-opacity:1"
       id="path12766" /><path
       d="m 558.06,301.26 c 0,24.26 19.66,43.92 43.92,43.92 v 0 c 24.26,0 43.92,-19.66 43.92,-43.92 V 241.5 c 0,-24.26 -19.66,-43.92 -43.92,-43.92 v 0 c -24.26,0 -43.92,19.66 -43.92,43.92 z"
       style="fill:none;stroke:#2f528f;stroke-width:3;stroke-linecap:butt;stroke-linejoin:miter;stroke-miterlimit:10;stroke-dasharray:none;stroke-opacity:1"
       id="path12768" /><g
       id="g12770"><g
         id="g12772"
         clip-path="url(#clipPath12776)"><text
           transform="matrix(1,0,0,-1,585.91,297.02)"
           style="font-variant:normal;font-weight:normal;font-size:32.04px;font-family:'Microsoft YaHei';-inkscape-font-specification:MicrosoftYaHei;writing-mode:lr-tb;fill:#000000;fill-opacity:1;fill-rule:nonzero;stroke:none"
           id="text12780"><tspan
             x="0"
             y="0"
             id="tspan12778">图</tspan></text></g></g><g
       id="g12782"><g
         id="g12784"
         clip-path="url(#clipPath12788)"><text
           transform="matrix(1,0,0,-1,585.91,258.62)"
           style="font-variant:normal;font-weight:normal;font-size:32.04px;font-family:'Microsoft YaHei';-inkscape-font-specification:MicrosoftYaHei;writing-mode:lr-tb;fill:#000000;fill-opacity:1;fill-rule:nonzero;stroke:none"
           id="text12792"><tspan
             x="0"
             y="0"
             id="tspan12790">优</tspan></text></g></g><g
       id="g12794"><g
         id="g12796"
         clip-path="url(#clipPath12800)"><text
           transform="matrix(1,0,0,-1,585.91,220.22)"
           style="font-variant:normal;font-weight:normal;font-size:32.064px;font-family:'Microsoft YaHei';-inkscape-font-specification:MicrosoftYaHei;writing-mode:lr-tb;fill:#000000;fill-opacity:1;fill-rule:nonzero;stroke:none"
           id="text12804"><tspan
             x="0"
             y="0"
             id="tspan12802">化</tspan></text></g></g><path
       d="m 671.16,273.78 h 55.08 v 4.86 l 9.72,-9.72 -9.72,-9.72 v 4.86 h -55.08 z"
       style="fill:#4472c4;fill-opacity:1;fill-rule:evenodd;stroke:none"
       id="path12806" /><path
       d="m 671.16,273.78 h 55.08 v 4.86 l 9.72,-9.72 -9.72,-9.72 v 4.86 h -55.08 z"
       style="fill:none;stroke:#2f528f;stroke-width:1;stroke-linecap:butt;stroke-linejoin:miter;stroke-miterlimit:10;stroke-dasharray:none;stroke-opacity:1"
       id="path12808" /><path
       d="m 756.42,300.42 c 0,24.26 19.66,43.92 43.92,43.92 v 0 c 24.26,0 43.92,-19.66 43.92,-43.92 v -59.76 c 0,-24.26 -19.66,-43.92 -43.92,-43.92 v 0 c -24.26,0 -43.92,19.66 -43.92,43.92 z"
       style="fill:none;stroke:#2f528f;stroke-width:3;stroke-linecap:butt;stroke-linejoin:miter;stroke-miterlimit:10;stroke-dasharray:none;stroke-opacity:1"
       id="path12810" /><g
       id="g12812"><g
         id="g12814"
         clip-path="url(#clipPath12818)"><text
           transform="matrix(1,0,0,-1,784.3,276.84)"
           style="font-variant:normal;font-weight:normal;font-size:32.064px;font-family:'Microsoft YaHei';-inkscape-font-specification:MicrosoftYaHei;writing-mode:lr-tb;fill:#000000;fill-opacity:1;fill-rule:nonzero;stroke:none"
           id="text12822"><tspan
             x="0"
             y="0"
             id="tspan12820">执</tspan></text></g></g><g
       id="g12824"><g
         id="g12826"
         clip-path="url(#clipPath12830)"><text
           transform="matrix(1,0,0,-1,784.3,238.42)"
           style="font-variant:normal;font-weight:normal;font-size:32.04px;font-family:'Microsoft YaHei';-inkscape-font-specification:MicrosoftYaHei;writing-mode:lr-tb;fill:#000000;fill-opacity:1;fill-rule:nonzero;stroke:none"
           id="text12834"><tspan
             x="0"
             y="0"
             id="tspan12832">行</tspan></text></g></g><g
       id="g12836"><g
         id="g12838"
         clip-path="url(#clipPath12842)"><text
           transform="matrix(1,0,0,-1,95.976,336.1)"
           style="font-variant:normal;font-weight:normal;font-size:32.04px;font-family:'Microsoft YaHei';-inkscape-font-specification:MicrosoftYaHei;writing-mode:lr-tb;fill:#000000;fill-opacity:1;fill-rule:nonzero;stroke:none"
           id="text12846"><tspan
             x="0 32.040001 64.080002 96.120003"
             y="0"
             sodipodi:role="line"
             id="tspan12844">前端定义</tspan></text></g></g><g
       id="g12850"><path
         d="m 328.5,351.3 h 146.76 v 45.96 H 328.5 Z"
         style="fill:none;stroke:#2f528f;stroke-width:1.5;stroke-linecap:butt;stroke-linejoin:miter;stroke-miterlimit:10;stroke-dasharray:4.5, 1.5;stroke-dashoffset:0;stroke-opacity:1"
         id="path12852" /></g><g
       id="g12854"><g
         id="g12856"
         clip-path="url(#clipPath12860)"><text
           transform="matrix(1,0,0,-1,341.71,367.08)"
           style="font-variant:normal;font-weight:normal;font-size:20.04px;font-family:'Microsoft YaHei';-inkscape-font-specification:MicrosoftYaHei;writing-mode:lr-tb;fill:#000000;fill-opacity:1;fill-rule:nonzero;stroke:none"
           id="text12864"><tspan
             x="0 20.040001 40.080002 60.119999 80.160004 100.2"
             y="0"
             sodipodi:role="line"
             id="tspan12862">特殊数据结构</tspan></text></g></g><g
       id="g12866"><g
         id="g12868"
         clip-path="url(#clipPath12872)"><text
           transform="matrix(1,0,0,-1,287.3,233.18)"
           style="font-variant:normal;font-weight:normal;font-size:20.064px;font-family:'Microsoft YaHei';-inkscape-font-specification:MicrosoftYaHei;writing-mode:lr-tb;fill:#000000;fill-opacity:1;fill-rule:nonzero;stroke:none"
           id="text12876"><tspan
             x="0 20.040001"
             y="0"
             sodipodi:role="line"
             id="tspan12874">重构</tspan></text></g></g><g
       id="g12878"><g
         id="g12880"
         clip-path="url(#clipPath12884)"><text
           transform="matrix(1,0,0,-1,287.3,284.52)"
           style="font-variant:normal;font-weight:normal;font-size:20.04px;font-family:'Microsoft YaHei';-inkscape-font-specification:MicrosoftYaHei;writing-mode:lr-tb;fill:#000000;fill-opacity:1;fill-rule:nonzero;stroke:none"
           id="text12888"><tspan
             x="0 20.040001"
             y="0"
             sodipodi:role="line"
             id="tspan12886">分析</tspan></text></g></g></g></svg>
