<?xml version="1.0" encoding="UTF-8" standalone="no"?>
<!-- Created with Inkscape (http://www.inkscape.org/) -->

<svg
   version="1.1"
   id="svg13502"
   xml:space="preserve"
   width="1191.4099"
   height="559.57239"
   viewBox="0 0 1191.4099 559.57239"
   sodipodi:docname="static-gen.svg"
   inkscape:version="1.1.1 (3bf5ae0d25, 2021-09-20)"
   xmlns:inkscape="http://www.inkscape.org/namespaces/inkscape"
   xmlns:sodipodi="http://sodipodi.sourceforge.net/DTD/sodipodi-0.dtd"
   xmlns="http://www.w3.org/2000/svg"
   xmlns:svg="http://www.w3.org/2000/svg"><defs
     id="defs13506"><clipPath
       clipPathUnits="userSpaceOnUse"
       id="clipPath13516"><path
         d="M 0,1.2207e-4 H 960 V 540.00012 H 0 Z"
         clip-rule="evenodd"
         id="path13514" /></clipPath><clipPath
       clipPathUnits="userSpaceOnUse"
       id="clipPath13540"><path
         d="M 1.4305e-5,0 H 960.00001 V 540 H 1.4305e-5 Z"
         clip-rule="evenodd"
         id="path13538" /></clipPath><clipPath
       clipPathUnits="userSpaceOnUse"
       id="clipPath13552"><path
         d="M 1.4305e-5,0 H 960.00001 V 540 H 1.4305e-5 Z"
         clip-rule="evenodd"
         id="path13550" /></clipPath><clipPath
       clipPathUnits="userSpaceOnUse"
       id="clipPath13564"><path
         d="M 1.4305e-5,0 H 960.00001 V 540 H 1.4305e-5 Z"
         clip-rule="evenodd"
         id="path13562" /></clipPath><clipPath
       clipPathUnits="userSpaceOnUse"
       id="clipPath13576"><path
         d="M 1.4305e-5,0 H 960.00001 V 540 H 1.4305e-5 Z"
         clip-rule="evenodd"
         id="path13574" /></clipPath><clipPath
       clipPathUnits="userSpaceOnUse"
       id="clipPath13588"><path
         d="M 1.4305e-5,0 H 960.00001 V 540 H 1.4305e-5 Z"
         clip-rule="evenodd"
         id="path13586" /></clipPath><clipPath
       clipPathUnits="userSpaceOnUse"
       id="clipPath13600"><path
         d="M 1.4305e-5,0 H 960.00001 V 540 H 1.4305e-5 Z"
         clip-rule="evenodd"
         id="path13598" /></clipPath><clipPath
       clipPathUnits="userSpaceOnUse"
       id="clipPath13612"><path
         d="M 1.4305e-5,0 H 960.00001 V 540 H 1.4305e-5 Z"
         clip-rule="evenodd"
         id="path13610" /></clipPath><clipPath
       clipPathUnits="userSpaceOnUse"
       id="clipPath13624"><path
         d="M 1.4305e-5,0 H 960.00001 V 540 H 1.4305e-5 Z"
         clip-rule="evenodd"
         id="path13622" /></clipPath><clipPath
       clipPathUnits="userSpaceOnUse"
       id="clipPath13636"><path
         d="M 1.4305e-5,0 H 960.00001 V 540 H 1.4305e-5 Z"
         clip-rule="evenodd"
         id="path13634" /></clipPath><clipPath
       clipPathUnits="userSpaceOnUse"
       id="clipPath13648"><path
         d="M 1.4305e-5,0 H 960.00001 V 540 H 1.4305e-5 Z"
         clip-rule="evenodd"
         id="path13646" /></clipPath><clipPath
       clipPathUnits="userSpaceOnUse"
       id="clipPath13660"><path
         d="M 1.4305e-5,0 H 960.00001 V 540 H 1.4305e-5 Z"
         clip-rule="evenodd"
         id="path13658" /></clipPath><clipPath
       clipPathUnits="userSpaceOnUse"
       id="clipPath13676"><path
         d="M 1.4305e-5,0 H 960.00001 V 540 H 1.4305e-5 Z"
         clip-rule="evenodd"
         id="path13674" /></clipPath><clipPath
       clipPathUnits="userSpaceOnUse"
       id="clipPath13696"><path
         d="M 1.4305e-5,0 H 960.00001 V 540 H 1.4305e-5 Z"
         clip-rule="evenodd"
         id="path13694" /></clipPath><clipPath
       clipPathUnits="userSpaceOnUse"
       id="clipPath13708"><path
         d="M 1.4305e-5,0 H 960.00001 V 540 H 1.4305e-5 Z"
         clip-rule="evenodd"
         id="path13706" /></clipPath><clipPath
       clipPathUnits="userSpaceOnUse"
       id="clipPath13724"><path
         d="M 1.4305e-5,0 H 960.00001 V 540 H 1.4305e-5 Z"
         clip-rule="evenodd"
         id="path13722" /></clipPath><clipPath
       clipPathUnits="userSpaceOnUse"
       id="clipPath13736"><path
         d="M 1.4305e-5,0 H 960.00001 V 540 H 1.4305e-5 Z"
         clip-rule="evenodd"
         id="path13734" /></clipPath><clipPath
       clipPathUnits="userSpaceOnUse"
       id="clipPath13748"><path
         d="M 1.4305e-5,0 H 960.00001 V 540 H 1.4305e-5 Z"
         clip-rule="evenodd"
         id="path13746" /></clipPath><clipPath
       clipPathUnits="userSpaceOnUse"
       id="clipPath13764"><path
         d="M 1.4305e-5,0 H 960.00001 V 540 H 1.4305e-5 Z"
         clip-rule="evenodd"
         id="path13762" /></clipPath><clipPath
       clipPathUnits="userSpaceOnUse"
       id="clipPath13776"><path
         d="M 1.4305e-5,0 H 960.00001 V 540 H 1.4305e-5 Z"
         clip-rule="evenodd"
         id="path13774" /></clipPath><clipPath
       clipPathUnits="userSpaceOnUse"
       id="clipPath13790"><path
         d="M 1.4305e-5,0 H 960.00001 V 540 H 1.4305e-5 Z"
         clip-rule="evenodd"
         id="path13788" /></clipPath><clipPath
       clipPathUnits="userSpaceOnUse"
       id="clipPath13806"><path
         d="M 1.4305e-5,0 H 960.00001 V 540 H 1.4305e-5 Z"
         clip-rule="evenodd"
         id="path13804" /></clipPath><clipPath
       clipPathUnits="userSpaceOnUse"
       id="clipPath13818"><path
         d="M 1.4305e-5,0 H 960.00001 V 540 H 1.4305e-5 Z"
         clip-rule="evenodd"
         id="path13816" /></clipPath><clipPath
       clipPathUnits="userSpaceOnUse"
       id="clipPath13836"><path
         d="M 1.4305e-5,0 H 960.00001 V 540 H 1.4305e-5 Z"
         clip-rule="evenodd"
         id="path13834" /></clipPath><clipPath
       clipPathUnits="userSpaceOnUse"
       id="clipPath13854"><path
         d="M 1.4305e-5,0 H 960.00001 V 540 H 1.4305e-5 Z"
         clip-rule="evenodd"
         id="path13852" /></clipPath><clipPath
       clipPathUnits="userSpaceOnUse"
       id="clipPath13866"><path
         d="M 1.4305e-5,0 H 960.00001 V 540 H 1.4305e-5 Z"
         clip-rule="evenodd"
         id="path13864" /></clipPath><clipPath
       clipPathUnits="userSpaceOnUse"
       id="clipPath13878"><path
         d="M 1.4305e-5,0 H 960.00001 V 540 H 1.4305e-5 Z"
         clip-rule="evenodd"
         id="path13876" /></clipPath><clipPath
       clipPathUnits="userSpaceOnUse"
       id="clipPath13890"><path
         d="M 1.4305e-5,0 H 960.00001 V 540 H 1.4305e-5 Z"
         clip-rule="evenodd"
         id="path13888" /></clipPath><clipPath
       clipPathUnits="userSpaceOnUse"
       id="clipPath13906"><path
         d="M 1.4305e-5,0 H 960.00001 V 540 H 1.4305e-5 Z"
         clip-rule="evenodd"
         id="path13904" /></clipPath><clipPath
       clipPathUnits="userSpaceOnUse"
       id="clipPath13940"><path
         d="M 1.4305e-5,0 H 960.00001 V 540 H 1.4305e-5 Z"
         clip-rule="evenodd"
         id="path13938" /></clipPath><clipPath
       clipPathUnits="userSpaceOnUse"
       id="clipPath13952"><path
         d="M 1.4305e-5,0 H 960.00001 V 540 H 1.4305e-5 Z"
         clip-rule="evenodd"
         id="path13950" /></clipPath><clipPath
       clipPathUnits="userSpaceOnUse"
       id="clipPath13968"><path
         d="M 1.4305e-5,0 H 960.00001 V 540 H 1.4305e-5 Z"
         clip-rule="evenodd"
         id="path13966" /></clipPath><clipPath
       clipPathUnits="userSpaceOnUse"
       id="clipPath13980"><path
         d="M 1.4305e-5,0 H 960.00001 V 540 H 1.4305e-5 Z"
         clip-rule="evenodd"
         id="path13978" /></clipPath><clipPath
       clipPathUnits="userSpaceOnUse"
       id="clipPath13992"><path
         d="M 1.4305e-5,0 H 960.00001 V 540 H 1.4305e-5 Z"
         clip-rule="evenodd"
         id="path13990" /></clipPath><clipPath
       clipPathUnits="userSpaceOnUse"
       id="clipPath14008"><path
         d="M 1.4305e-5,0 H 960.00001 V 540 H 1.4305e-5 Z"
         clip-rule="evenodd"
         id="path14006" /></clipPath><clipPath
       clipPathUnits="userSpaceOnUse"
       id="clipPath14020"><path
         d="M 1.4305e-5,0 H 960.00001 V 540 H 1.4305e-5 Z"
         clip-rule="evenodd"
         id="path14018" /></clipPath><clipPath
       clipPathUnits="userSpaceOnUse"
       id="clipPath14034"><path
         d="M 1.4305e-5,0 H 960.00001 V 540 H 1.4305e-5 Z"
         clip-rule="evenodd"
         id="path14032" /></clipPath><clipPath
       clipPathUnits="userSpaceOnUse"
       id="clipPath14050"><path
         d="M 1.4305e-5,0 H 960.00001 V 540 H 1.4305e-5 Z"
         clip-rule="evenodd"
         id="path14048" /></clipPath><clipPath
       clipPathUnits="userSpaceOnUse"
       id="clipPath14062"><path
         d="M 1.4305e-5,0 H 960.00001 V 540 H 1.4305e-5 Z"
         clip-rule="evenodd"
         id="path14060" /></clipPath><clipPath
       clipPathUnits="userSpaceOnUse"
       id="clipPath14074"><path
         d="M 1.4305e-5,0 H 960.00001 V 540 H 1.4305e-5 Z"
         clip-rule="evenodd"
         id="path14072" /></clipPath><clipPath
       clipPathUnits="userSpaceOnUse"
       id="clipPath14092"><path
         d="M 1.4305e-5,0 H 960.00001 V 540 H 1.4305e-5 Z"
         clip-rule="evenodd"
         id="path14090" /></clipPath><clipPath
       clipPathUnits="userSpaceOnUse"
       id="clipPath14104"><path
         d="M 1.4305e-5,0 H 960.00001 V 540 H 1.4305e-5 Z"
         clip-rule="evenodd"
         id="path14102" /></clipPath><clipPath
       clipPathUnits="userSpaceOnUse"
       id="clipPath14116"><path
         d="M 1.4305e-5,0 H 960.00001 V 540 H 1.4305e-5 Z"
         clip-rule="evenodd"
         id="path14114" /></clipPath><clipPath
       clipPathUnits="userSpaceOnUse"
       id="clipPath14128"><path
         d="M 1.4305e-5,0 H 960.00001 V 540 H 1.4305e-5 Z"
         clip-rule="evenodd"
         id="path14126" /></clipPath><clipPath
       clipPathUnits="userSpaceOnUse"
       id="clipPath14144"><path
         d="M 1.4305e-5,0 H 960.00001 V 540 H 1.4305e-5 Z"
         clip-rule="evenodd"
         id="path14142" /></clipPath><clipPath
       clipPathUnits="userSpaceOnUse"
       id="clipPath14156"><path
         d="M 1.4305e-5,0 H 960.00001 V 540 H 1.4305e-5 Z"
         clip-rule="evenodd"
         id="path14154" /></clipPath></defs><sodipodi:namedview
     id="namedview13504"
     pagecolor="#ffffff"
     bordercolor="#666666"
     borderopacity="1.0"
     inkscape:pageshadow="2"
     inkscape:pageopacity="0.0"
     inkscape:pagecheckerboard="0"
     showgrid="false"
     fit-margin-top="0"
     fit-margin-left="0"
     fit-margin-right="0"
     fit-margin-bottom="0"
     inkscape:zoom="1.321875"
     inkscape:cx="610.49645"
     inkscape:cy="272.71868"
     inkscape:window-width="2560"
     inkscape:window-height="1361"
     inkscape:window-x="-9"
     inkscape:window-y="-9"
     inkscape:window-maximized="1"
     inkscape:current-layer="g13508" /><g
     id="g13508"
     inkscape:groupmode="layer"
     inkscape:label="static-gen"
     transform="matrix(1.3333333,0,0,-1.3333333,-29.372874,632.79998)"><g
       id="g13522"><path
         d="M 299.34,88.86 H 538.38 V 473.1 H 299.34 Z"
         style="fill:none;stroke:#2f528f;stroke-width:3;stroke-linecap:butt;stroke-linejoin:miter;stroke-miterlimit:10;stroke-dasharray:3, 3;stroke-dashoffset:0;stroke-opacity:1"
         id="path13524" /></g><path
       d="m 398.34,116.82 h 43.8 v 26.28 h -43.8 z"
       style="fill:none;stroke:#000000;stroke-width:2.25;stroke-linecap:butt;stroke-linejoin:miter;stroke-miterlimit:10;stroke-dasharray:none;stroke-opacity:1"
       id="path13528" /><path
       d="m 397.02,421.98 h 43.68 v 24.48 h -43.68 z"
       style="fill:none;stroke:#000000;stroke-width:2.25;stroke-linecap:butt;stroke-linejoin:miter;stroke-miterlimit:10;stroke-dasharray:none;stroke-opacity:1"
       id="path13532" /><g
       id="g13534"><g
         id="g13536"
         clip-path="url(#clipPath13540)"><text
           transform="matrix(1,0,0,-1,21.432,354.82)"
           style="font-variant:normal;font-weight:normal;font-size:18px;font-family:'Times New Roman';-inkscape-font-specification:TimesNewRomanPSMT;writing-mode:lr-tb;fill:#0070c0;fill-opacity:1;fill-rule:nonzero;stroke:none"
           id="text13544"><tspan
             x="0 9 16.992001 23.021999"
             y="0"
             sodipodi:role="line"
             id="tspan13542">def </tspan></text></g></g><g
       id="g13546"><g
         id="g13548"
         clip-path="url(#clipPath13552)"><text
           transform="matrix(1,0,0,-1,48.912,354.82)"
           style="font-variant:normal;font-weight:normal;font-size:18px;font-family:'Times New Roman';-inkscape-font-specification:TimesNewRomanPSMT;writing-mode:lr-tb;fill:#000000;fill-opacity:1;fill-rule:nonzero;stroke:none"
           id="text13556"><tspan
             x="0 13.914 22.914 31.914 39.905998 44.981998 50.976002 63.972 68.472 72.972 78.966003 83.970001 91.998001 100.998 106.992"
             y="0"
             sodipodi:role="line"
             id="tspan13554">model(X, flag):</tspan></text></g></g><g
       id="g13558"><g
         id="g13560"
         clip-path="url(#clipPath13564)"><text
           transform="matrix(1,0,0,-1,48.432,333.22)"
           style="font-variant:normal;font-weight:normal;font-size:18px;font-family:'Times New Roman';-inkscape-font-specification:TimesNewRomanPSMT;writing-mode:lr-tb;fill:#000000;fill-opacity:1;fill-rule:nonzero;stroke:none"
           id="text13568"><tspan
             x="0 5.0040002 10.998 15.498 21.492001 26.496 34.542 43.542 47.987999 58.139999 62.639999 71.639999"
             y="0"
             sodipodi:role="line"
             id="tspan13566">if flag &gt; 0:</tspan></text></g></g><g
       id="g13570"><g
         id="g13572"
         clip-path="url(#clipPath13576)"><text
           transform="matrix(1,0,0,-1,74.736,311.62)"
           style="font-variant:normal;font-weight:normal;font-size:18px;font-family:'Times New Roman';-inkscape-font-specification:TimesNewRomanPSMT;writing-mode:lr-tb;fill:#000000;fill-opacity:1;fill-rule:nonzero;stroke:none"
           id="text13580"><tspan
             x="0"
             y="0"
             id="tspan13578">Y</tspan></text></g></g><g
       id="g13582"><g
         id="g13584"
         clip-path="url(#clipPath13588)"><text
           transform="matrix(1,0,0,-1,91.656,311.62)"
           style="font-variant:normal;font-weight:normal;font-size:18px;font-family:'Times New Roman';-inkscape-font-specification:TimesNewRomanPSMT;writing-mode:lr-tb;fill:#000000;fill-opacity:1;fill-rule:nonzero;stroke:none"
           id="text13592"><tspan
             x="0 10.152 14.652 28.566 36.557999 41.633999 55.548 64.547997 69.552002 75.545998 92.538002 101.538 106.038 110.61 123.606"
             y="0"
             sodipodi:role="line"
             id="tspan13590">= matmul(W1, X)</tspan></text></g></g><g
       id="g13594"><g
         id="g13596"
         clip-path="url(#clipPath13600)"><text
           transform="matrix(1,0,0,-1,48.432,290.02)"
           style="font-variant:normal;font-weight:normal;font-size:18.024px;font-family:'Times New Roman';-inkscape-font-specification:TimesNewRomanPSMT;writing-mode:lr-tb;fill:#000000;fill-opacity:1;fill-rule:nonzero;stroke:none"
           id="text13604"><tspan
             x="0 8.002656 13.0674 20.078735 28.081392 33.092064"
             y="0"
             sodipodi:role="line"
             id="tspan13602">else: </tspan></text></g></g><g
       id="g13606"><g
         id="g13608"
         clip-path="url(#clipPath13612)"><text
           transform="matrix(1,0,0,-1,74.736,268.39)"
           style="font-variant:normal;font-weight:normal;font-size:18px;font-family:'Times New Roman';-inkscape-font-specification:TimesNewRomanPSMT;writing-mode:lr-tb;fill:#000000;fill-opacity:1;fill-rule:nonzero;stroke:none"
           id="text13616"><tspan
             x="0 12.24 16.902 27.054001 31.554001 45.467999 53.459999 58.535999 72.449997 81.449997 86.454002 92.447998 109.44 118.44 122.94 127.512 140.508"
             y="0"
             sodipodi:role="line"
             id="tspan13614">Y = matmul(W2, X)</tspan></text></g></g><g
       id="g13618"><g
         id="g13620"
         clip-path="url(#clipPath13624)"><text
           transform="matrix(1,0,0,-1,47.712,246.79)"
           style="font-variant:normal;font-weight:normal;font-size:18px;font-family:'Times New Roman';-inkscape-font-specification:TimesNewRomanPSMT;writing-mode:lr-tb;fill:#000000;fill-opacity:1;fill-rule:nonzero;stroke:none"
           id="text13628"><tspan
             x="0 12.24 16.902 27.054001 30.816 43.056 47.591999 57.743999 62.243999"
             y="0"
             sodipodi:role="line"
             id="tspan13626">Y = Y + b</tspan></text></g></g><g
       id="g13630"><g
         id="g13632"
         clip-path="url(#clipPath13636)"><text
           transform="matrix(1,0,0,-1,47.712,225.19)"
           style="font-variant:normal;font-weight:normal;font-size:18px;font-family:'Times New Roman';-inkscape-font-specification:TimesNewRomanPSMT;writing-mode:lr-tb;fill:#000000;fill-opacity:1;fill-rule:nonzero;stroke:none"
           id="text13640"><tspan
             x="0 12.24 16.902 27.054001 31.554001 37.548 45.540001 50.598 59.598 65.592003 78.587997"
             y="0"
             sodipodi:role="line"
             id="tspan13638">Y = relu(Y)</tspan></text></g></g><g
       id="g13642"><g
         id="g13644"
         clip-path="url(#clipPath13648)"><text
           transform="matrix(1,0,0,-1,48.432,203.59)"
           style="font-variant:normal;font-weight:normal;font-size:18px;font-family:'Times New Roman';-inkscape-font-specification:TimesNewRomanPSMT;writing-mode:lr-tb;fill:#0070c0;fill-opacity:1;fill-rule:nonzero;stroke:none"
           id="text13652"><tspan
             x="0 5.994 13.986 19.062 28.062 34.056 43.056"
             y="0"
             sodipodi:role="line"
             id="tspan13650">return </tspan></text></g></g><g
       id="g13654"><g
         id="g13656"
         clip-path="url(#clipPath13660)"><text
           transform="matrix(1,0,0,-1,95.256,203.59)"
           style="font-variant:normal;font-weight:normal;font-size:18px;font-family:'Times New Roman';-inkscape-font-specification:TimesNewRomanPSMT;writing-mode:lr-tb;fill:#000000;fill-opacity:1;fill-rule:nonzero;stroke:none"
           id="text13664"><tspan
             x="0"
             y="0"
             id="tspan13662">Y</tspan></text></g></g><path
       d="m 235.32,300.06 h 46.44 v 4.62 l 9.24,-9.24 -9.24,-9.24 v 4.62 h -46.44 z"
       style="fill:#4472c4;fill-opacity:1;fill-rule:evenodd;stroke:none"
       id="path13666" /><path
       d="m 235.32,300.06 h 46.44 v 4.62 l 9.24,-9.24 -9.24,-9.24 v 4.62 h -46.44 z"
       style="fill:none;stroke:#2f528f;stroke-width:1;stroke-linecap:butt;stroke-linejoin:miter;stroke-miterlimit:10;stroke-dasharray:none;stroke-opacity:1"
       id="path13668" /><g
       id="g13670"><g
         id="g13672"
         clip-path="url(#clipPath13676)"><text
           transform="matrix(1,0,0,-1,243.12,311.74)"
           style="font-variant:normal;font-weight:normal;font-size:18px;font-family:'Microsoft YaHei';-inkscape-font-specification:MicrosoftYaHei;writing-mode:lr-tb;fill:#000000;fill-opacity:1;fill-rule:nonzero;stroke:none"
           id="text13680"><tspan
             x="0 18"
             y="0"
             sodipodi:role="line"
             id="tspan13678">编译</tspan></text></g></g><path
       d="m 419.98,419.46 v -29.73 h -2.25 v 29.73 z m 2.25,-28.6 -3.37,-6.75 -3.38,6.75 z"
       style="fill:#000000;fill-opacity:1;fill-rule:nonzero;stroke:none"
       id="path13682" /><path
       d="m 399.48,359.34 -26.13,-31.39 1.73,-1.44 26.13,31.39 z m -27.14,-29.09 -1.72,-7.35 6.91,3.03 z"
       style="fill:#000000;fill-opacity:1;fill-rule:nonzero;stroke:none"
       id="path13684" /><path
       d="m 392.7,369.18 c 0,8.22 11.71,14.88 26.16,14.88 14.45,0 26.16,-6.66 26.16,-14.88 0,-8.22 -11.71,-14.88 -26.16,-14.88 -14.45,0 -26.16,6.66 -26.16,14.88 z"
       style="fill:none;stroke:#000000;stroke-width:2.25;stroke-linecap:butt;stroke-linejoin:miter;stroke-miterlimit:10;stroke-dasharray:none;stroke-opacity:1"
       id="path13688" /><g
       id="g13690"><g
         id="g13692"
         clip-path="url(#clipPath13696)"><text
           transform="matrix(1,0,0,-1,414.5,364.06)"
           style="font-variant:normal;font-weight:normal;font-size:14.04px;font-family:'Times New Roman';-inkscape-font-specification:TimesNewRomanPSMT;writing-mode:lr-tb;fill:#000000;fill-opacity:1;fill-rule:nonzero;stroke:none"
           id="text13700"><tspan
             x="0 3.9600201"
             y="0"
             sodipodi:role="line"
             id="tspan13698">if</tspan></text></g></g><g
       id="g13702"><g
         id="g13704"
         clip-path="url(#clipPath13708)"><text
           transform="matrix(1,0,0,-1,412.68,426.53)"
           style="font-style:italic;font-variant:normal;font-weight:bold;font-size:18px;font-family:'Times New Roman';-inkscape-font-specification:TimesNewRomanPS-BoldItalicMT;writing-mode:lr-tb;fill:#000000;fill-opacity:1;fill-rule:nonzero;stroke:none"
           id="text13712"><tspan
             x="0"
             y="0"
             id="tspan13710">X</tspan></text></g></g><path
       d="m 423.18,303.9 c 0,10.94 19.74,19.8 44.1,19.8 24.36,0 44.1,-8.86 44.1,-19.8 0,-10.94 -19.74,-19.8 -44.1,-19.8 -24.36,0 -44.1,8.86 -44.1,19.8 z"
       style="fill:none;stroke:#000000;stroke-width:2.25;stroke-linecap:butt;stroke-linejoin:miter;stroke-miterlimit:10;stroke-dasharray:none;stroke-opacity:1"
       id="path13716" /><g
       id="g13718"><g
         id="g13720"
         clip-path="url(#clipPath13724)"><text
           transform="matrix(1,0,0,-1,445.97,298.68)"
           style="font-variant:normal;font-weight:normal;font-size:14.04px;font-family:'Times New Roman';-inkscape-font-specification:TimesNewRomanPSMT;writing-mode:lr-tb;fill:#000000;fill-opacity:1;fill-rule:nonzero;stroke:none"
           id="text13728"><tspan
             x="0 10.68444 16.9182 20.86344 31.54788 38.610001"
             y="0"
             sodipodi:role="line"
             id="tspan13726">matmul</tspan></text></g></g><g
       id="g13730"><g
         id="g13732"
         clip-path="url(#clipPath13736)"><text
           transform="matrix(1,0,0,-1,333.05,331.75)"
           style="font-style:italic;font-variant:normal;font-weight:bold;font-size:18px;font-family:'Times New Roman';-inkscape-font-specification:TimesNewRomanPS-BoldItalicMT;writing-mode:lr-tb;fill:#000000;fill-opacity:1;fill-rule:nonzero;stroke:none"
           id="text13740"><tspan
             x="0"
             y="0"
             id="tspan13738">W</tspan></text></g></g><g
       id="g13742"><g
         id="g13744"
         clip-path="url(#clipPath13748)"><text
           transform="matrix(1,0,0,-1,349.01,327.31)"
           style="font-style:italic;font-variant:normal;font-weight:bold;font-size:12px;font-family:'Times New Roman';-inkscape-font-specification:TimesNewRomanPS-BoldItalicMT;writing-mode:lr-tb;fill:#000000;fill-opacity:1;fill-rule:nonzero;stroke:none"
           id="text13752"><tspan
             x="0"
             y="0"
             id="tspan13750">1</tspan></text></g></g><path
       d="m 371.36,284.23 39.85,-34.71 -1.48,-1.7 -39.85,34.71 z m 40.48,-32.28 2.87,-6.98 -7.3,1.89 z"
       style="fill:#000000;fill-opacity:1;fill-rule:nonzero;stroke:none"
       id="path13754" /><path
       d="m 438.2,359.35 1.46,-1.71 -1.72,-1.46 -1.46,1.71 z m 2.92,-3.42 1.46,-1.71 -1.71,-1.46 -1.46,1.71 z m 2.92,-3.43 1.46,-1.71 -1.71,-1.46 -1.46,1.71 z m 2.92,-3.42 1.46,-1.71 -1.71,-1.46 -1.46,1.71 z m 2.92,-3.42 1.46,-1.71 -1.71,-1.46 -1.46,1.71 z m 2.92,-3.42 1.46,-1.72 -1.71,-1.46 -1.46,1.72 z m 2.92,-3.43 1.46,-1.71 -1.71,-1.46 -1.46,1.71 z m 2.92,-3.42 1.47,-1.71 -1.72,-1.46 -1.46,1.71 z m 2.93,-3.42 1.46,-1.71 -1.71,-1.46 -1.47,1.71 z m 3.83,-1.03 1.82,-7.33 -6.95,2.94 z"
       style="fill:#000000;fill-opacity:1;fill-rule:nonzero;stroke:none"
       id="path13756" /><g
       id="g13758"><g
         id="g13760"
         clip-path="url(#clipPath13764)"><text
           transform="matrix(1,0,0,-1,482.02,330.79)"
           style="font-style:italic;font-variant:normal;font-weight:bold;font-size:18px;font-family:'Times New Roman';-inkscape-font-specification:TimesNewRomanPS-BoldItalicMT;writing-mode:lr-tb;fill:#000000;fill-opacity:1;fill-rule:nonzero;stroke:none"
           id="text13768"><tspan
             x="0"
             y="0"
             id="tspan13766">W</tspan></text></g></g><g
       id="g13770"><g
         id="g13772"
         clip-path="url(#clipPath13776)"><text
           transform="matrix(1,0,0,-1,498,326.35)"
           style="font-style:italic;font-variant:normal;font-weight:bold;font-size:12px;font-family:'Times New Roman';-inkscape-font-specification:TimesNewRomanPS-BoldItalicMT;writing-mode:lr-tb;fill:#000000;fill-opacity:1;fill-rule:nonzero;stroke:none"
           id="text13780"><tspan
             x="0"
             y="0"
             id="tspan13778">2</tspan></text></g></g><path
       d="m 466.38,284.86 -1.52,-1.65 1.65,-1.53 1.53,1.66 z m -3.05,-3.3 -1.53,-1.65 1.66,-1.53 1.52,1.65 z m -3.05,-3.31 -1.53,-1.65 1.65,-1.53 1.53,1.66 z m -3.06,-3.3 -1.52,-1.65 1.65,-1.53 1.53,1.65 z m -3.05,-3.31 -1.53,-1.65 1.65,-1.53 1.53,1.66 z m -3.06,-3.3 -1.52,-1.66 1.65,-1.52 1.53,1.65 z m -3.05,-3.31 -1.53,-1.65 1.66,-1.53 1.52,1.66 z m -3.05,-3.3 -1.53,-1.66 1.65,-1.52 1.53,1.65 z m -3.06,-3.31 -1.52,-1.65 1.65,-1.53 1.53,1.65 z m -3.05,-3.3 -1.53,-1.66 1.66,-1.52 1.52,1.65 z m -3.05,-3.31 -1.53,-1.65 1.65,-1.53 1.53,1.65 z m -3.06,-3.3 -1.22,-1.33 1.65,-1.52 1.23,1.32 z m -2.11,1.03 -2.1,-7.25 7.06,2.67 z"
       style="fill:#000000;fill-opacity:1;fill-rule:nonzero;stroke:none"
       id="path13782" /><g
       id="g13784"><g
         id="g13786"
         clip-path="url(#clipPath13790)"><text
           transform="matrix(1,0,0,-1,412.68,122.74)"
           style="font-style:italic;font-variant:normal;font-weight:bold;font-size:20.064px;font-family:'Times New Roman';-inkscape-font-specification:TimesNewRomanPS-BoldItalicMT;writing-mode:lr-tb;fill:#000000;fill-opacity:1;fill-rule:nonzero;stroke:none"
           id="text13794"><tspan
             x="0"
             y="0"
             id="tspan13792">Y</tspan></text></g></g><path
       d="m 389.7,228.78 c 0,8.81 12.97,15.96 28.98,15.96 16.01,0 28.98,-7.15 28.98,-15.96 0,-8.81 -12.97,-15.96 -28.98,-15.96 -16.01,0 -28.98,7.15 -28.98,15.96 z"
       style="fill:none;stroke:#000000;stroke-width:2.25;stroke-linecap:butt;stroke-linejoin:miter;stroke-miterlimit:10;stroke-dasharray:none;stroke-opacity:1"
       id="path13798" /><g
       id="g13800"><g
         id="g13802"
         clip-path="url(#clipPath13806)"><text
           transform="matrix(1,0,0,-1,408.43,223.54)"
           style="font-variant:normal;font-weight:normal;font-size:14.04px;font-family:'Times New Roman';-inkscape-font-specification:TimesNewRomanPSMT;writing-mode:lr-tb;fill:#000000;fill-opacity:1;fill-rule:nonzero;stroke:none"
           id="text13810"><tspan
             x="0 6.2337599 13.30992"
             y="0"
             sodipodi:role="line"
             id="tspan13808">add</tspan></text></g></g><g
       id="g13812"><g
         id="g13814"
         clip-path="url(#clipPath13818)"><text
           transform="matrix(1,0,0,-1,387.79,244.27)"
           style="font-style:italic;font-variant:normal;font-weight:bold;font-size:18px;font-family:'Times New Roman';-inkscape-font-specification:TimesNewRomanPS-BoldItalicMT;writing-mode:lr-tb;fill:#000000;fill-opacity:1;fill-rule:nonzero;stroke:none"
           id="text13822"><tspan
             x="0"
             y="0"
             id="tspan13820">b</tspan></text></g></g><path
       d="M 420.82,214.38 V 199.7 h -2.25 v 14.68 z m 2.25,-13.55 -3.37,-6.75 -3.38,6.75 z"
       style="fill:#000000;fill-opacity:1;fill-rule:nonzero;stroke:none"
       id="path13824" /><path
       d="m 383.34,179.58 c 0,8.81 16.25,15.96 36.3,15.96 20.05,0 36.3,-7.15 36.3,-15.96 0,-8.81 -16.25,-15.96 -36.3,-15.96 -20.05,0 -36.3,7.15 -36.3,15.96 z"
       style="fill:none;stroke:#000000;stroke-width:2.25;stroke-linecap:butt;stroke-linejoin:miter;stroke-miterlimit:10;stroke-dasharray:none;stroke-opacity:1"
       id="path13828" /><g
       id="g13830"><g
         id="g13832"
         clip-path="url(#clipPath13836)"><text
           transform="matrix(1,0,0,-1,408.65,174.38)"
           style="font-variant:normal;font-weight:normal;font-size:14.064px;font-family:'Times New Roman';-inkscape-font-specification:TimesNewRomanPSMT;writing-mode:lr-tb;fill:#000000;fill-opacity:1;fill-rule:nonzero;stroke:none"
           id="text13840"><tspan
             x="0 4.6833119 10.927728 14.865648"
             y="0"
             sodipodi:role="line"
             id="tspan13838">relu</tspan></text></g></g><path
       d="m 420.82,161.46 v -10.18 h -2.25 v 10.18 z m 2.25,-9.05 -3.37,-6.75 -3.38,6.75 z"
       style="fill:#000000;fill-opacity:1;fill-rule:nonzero;stroke:none"
       id="path13842" /><path
       d="m 326.46,303.18 c 0,10.94 19.74,19.8 44.1,19.8 24.36,0 44.1,-8.86 44.1,-19.8 0,-10.94 -19.74,-19.8 -44.1,-19.8 -24.36,0 -44.1,8.86 -44.1,19.8 z"
       style="fill:none;stroke:#000000;stroke-width:2.25;stroke-linecap:butt;stroke-linejoin:miter;stroke-miterlimit:10;stroke-dasharray:none;stroke-opacity:1"
       id="path13846" /><g
       id="g13848"><g
         id="g13850"
         clip-path="url(#clipPath13854)"><text
           transform="matrix(1,0,0,-1,349.3,297.98)"
           style="font-variant:normal;font-weight:normal;font-size:14.04px;font-family:'Times New Roman';-inkscape-font-specification:TimesNewRomanPSMT;writing-mode:lr-tb;fill:#000000;fill-opacity:1;fill-rule:nonzero;stroke:none"
           id="text13858"><tspan
             x="0 10.68444 16.9182 20.86344 31.54788 38.610001"
             y="0"
             sodipodi:role="line"
             id="tspan13856">matmul</tspan></text></g></g><g
       id="g13860"><g
         id="g13862"
         clip-path="url(#clipPath13866)"><text
           transform="matrix(1,0,0,-1,347.62,430.03)"
           style="font-style:italic;font-variant:normal;font-weight:bold;font-size:18px;font-family:'Times New Roman';-inkscape-font-specification:TimesNewRomanPS-BoldItalicMT;writing-mode:lr-tb;fill:#000000;fill-opacity:1;fill-rule:nonzero;stroke:none"
           id="text13870"><tspan
             x="0 5.0040002 15.012 24.011999 33.966"
             y="0"
             sodipodi:role="line"
             id="tspan13868">input</tspan></text></g></g><g
       id="g13872"><g
         id="g13874"
         clip-path="url(#clipPath13878)"><text
           transform="matrix(1,0,0,-1,336.31,123.77)"
           style="font-style:italic;font-variant:normal;font-weight:bold;font-size:18px;font-family:'Times New Roman';-inkscape-font-specification:TimesNewRomanPS-BoldItalicMT;writing-mode:lr-tb;fill:#000000;fill-opacity:1;fill-rule:nonzero;stroke:none"
           id="text13882"><tspan
             x="0 9 19.007999 24.011999 33.012001 42.966"
             y="0"
             sodipodi:role="line"
             id="tspan13880">output</tspan></text></g></g><g
       id="g13884"><g
         id="g13886"
         clip-path="url(#clipPath13890)"><text
           transform="matrix(1,0,0,-1,377.59,57.408)"
           style="font-variant:normal;font-weight:normal;font-size:18px;font-family:'Microsoft YaHei';-inkscape-font-specification:MicrosoftYaHei;writing-mode:lr-tb;fill:#000000;fill-opacity:1;fill-rule:nonzero;stroke:none"
           id="text13894"><tspan
             x="0 18 36 54 72"
             y="0"
             sodipodi:role="line"
             id="tspan13892">静态计算图</tspan></text></g></g><path
       d="m 549,305.67 h 46.38 v 4.65 l 9.3,-9.3 -9.3,-9.3 v 4.65 H 549 Z"
       style="fill:#4472c4;fill-opacity:1;fill-rule:evenodd;stroke:none"
       id="path13896" /><path
       d="m 549,305.67 h 46.38 v 4.65 l 9.3,-9.3 -9.3,-9.3 v 4.65 H 549 Z"
       style="fill:none;stroke:#2f528f;stroke-width:1;stroke-linecap:butt;stroke-linejoin:miter;stroke-miterlimit:10;stroke-dasharray:none;stroke-opacity:1"
       id="path13898" /><g
       id="g13900"><g
         id="g13902"
         clip-path="url(#clipPath13906)"><text
           transform="matrix(1,0,0,-1,556.87,317.33)"
           style="font-variant:normal;font-weight:normal;font-size:18px;font-family:'Microsoft YaHei';-inkscape-font-specification:MicrosoftYaHei;writing-mode:lr-tb;fill:#000000;fill-opacity:1;fill-rule:nonzero;stroke:none"
           id="text13910"><tspan
             x="0 18"
             y="0"
             sodipodi:role="line"
             id="tspan13908">优化</tspan></text></g></g><g
       id="g13914"><path
         d="M 613.38,88.86 H 852.3 V 473.1 H 613.38 Z"
         style="fill:none;stroke:#2f528f;stroke-width:3;stroke-linecap:butt;stroke-linejoin:miter;stroke-miterlimit:10;stroke-dasharray:3, 3;stroke-dashoffset:0;stroke-opacity:1"
         id="path13916" /></g><path
       d="m 713.22,149.7 h 43.8 v 26.4 h -43.8 z"
       style="fill:none;stroke:#000000;stroke-width:2.25;stroke-linecap:butt;stroke-linejoin:miter;stroke-miterlimit:10;stroke-dasharray:none;stroke-opacity:1"
       id="path13920" /><path
       d="m 711.9,407.34 h 43.8 v 24.6 h -43.8 z"
       style="fill:none;stroke:#000000;stroke-width:2.25;stroke-linecap:butt;stroke-linejoin:miter;stroke-miterlimit:10;stroke-dasharray:none;stroke-opacity:1"
       id="path13924" /><path
       d="m 734.86,404.94 v -29.73 h -2.25 v 29.73 z m 2.25,-28.6 -3.37,-6.75 -3.38,6.75 z"
       style="fill:#000000;fill-opacity:1;fill-rule:nonzero;stroke:none"
       id="path13926" /><path
       d="m 714.36,344.82 -26.13,-31.39 1.73,-1.44 26.13,31.39 z m -27.14,-29.09 -1.72,-7.35 6.91,3.03 z"
       style="fill:#000000;fill-opacity:1;fill-rule:nonzero;stroke:none"
       id="path13928" /><path
       d="m 707.58,354.66 c 0,8.22 11.74,14.88 26.22,14.88 14.48,0 26.22,-6.66 26.22,-14.88 0,-8.22 -11.74,-14.88 -26.22,-14.88 -14.48,0 -26.22,6.66 -26.22,14.88 z"
       style="fill:none;stroke:#000000;stroke-width:2.25;stroke-linecap:butt;stroke-linejoin:miter;stroke-miterlimit:10;stroke-dasharray:none;stroke-opacity:1"
       id="path13932" /><g
       id="g13934"><g
         id="g13936"
         clip-path="url(#clipPath13940)"><text
           transform="matrix(1,0,0,-1,729.46,349.51)"
           style="font-variant:normal;font-weight:normal;font-size:14.04px;font-family:'Times New Roman';-inkscape-font-specification:TimesNewRomanPSMT;writing-mode:lr-tb;fill:#000000;fill-opacity:1;fill-rule:nonzero;stroke:none"
           id="text13944"><tspan
             x="0 3.9600201"
             y="0"
             sodipodi:role="line"
             id="tspan13942">if</tspan></text></g></g><g
       id="g13946"><g
         id="g13948"
         clip-path="url(#clipPath13952)"><text
           transform="matrix(1,0,0,-1,727.66,411.98)"
           style="font-style:italic;font-variant:normal;font-weight:bold;font-size:18px;font-family:'Times New Roman';-inkscape-font-specification:TimesNewRomanPS-BoldItalicMT;writing-mode:lr-tb;fill:#000000;fill-opacity:1;fill-rule:nonzero;stroke:none"
           id="text13956"><tspan
             x="0"
             y="0"
             id="tspan13954">X</tspan></text></g></g><path
       d="m 738.06,289.26 c 0,10.94 19.74,19.8 44.1,19.8 24.36,0 44.1,-8.86 44.1,-19.8 0,-10.94 -19.74,-19.8 -44.1,-19.8 -24.36,0 -44.1,8.86 -44.1,19.8 z"
       style="fill:none;stroke:#000000;stroke-width:2.25;stroke-linecap:butt;stroke-linejoin:miter;stroke-miterlimit:10;stroke-dasharray:none;stroke-opacity:1"
       id="path13960" /><g
       id="g13962"><g
         id="g13964"
         clip-path="url(#clipPath13968)"><text
           transform="matrix(1,0,0,-1,760.92,284.14)"
           style="font-variant:normal;font-weight:normal;font-size:14.04px;font-family:'Times New Roman';-inkscape-font-specification:TimesNewRomanPSMT;writing-mode:lr-tb;fill:#000000;fill-opacity:1;fill-rule:nonzero;stroke:none"
           id="text13972"><tspan
             x="0 10.68444 16.9182 20.86344 31.54788 38.610001"
             y="0"
             sodipodi:role="line"
             id="tspan13970">matmul</tspan></text></g></g><g
       id="g13974"><g
         id="g13976"
         clip-path="url(#clipPath13980)"><text
           transform="matrix(1,0,0,-1,648,317.21)"
           style="font-style:italic;font-variant:normal;font-weight:bold;font-size:18px;font-family:'Times New Roman';-inkscape-font-specification:TimesNewRomanPS-BoldItalicMT;writing-mode:lr-tb;fill:#000000;fill-opacity:1;fill-rule:nonzero;stroke:none"
           id="text13984"><tspan
             x="0"
             y="0"
             id="tspan13982">W</tspan></text></g></g><g
       id="g13986"><g
         id="g13988"
         clip-path="url(#clipPath13992)"><text
           transform="matrix(1,0,0,-1,663.96,312.77)"
           style="font-style:italic;font-variant:normal;font-weight:bold;font-size:12px;font-family:'Times New Roman';-inkscape-font-specification:TimesNewRomanPS-BoldItalicMT;writing-mode:lr-tb;fill:#000000;fill-opacity:1;fill-rule:nonzero;stroke:none"
           id="text13996"><tspan
             x="0"
             y="0"
             id="tspan13994">1</tspan></text></g></g><path
       d="m 686.21,269.61 42.97,-35.09 -1.42,-1.74 -42.97,35.09 z m 43.52,-32.64 3.1,-6.88 -7.37,1.65 z"
       style="fill:#000000;fill-opacity:1;fill-rule:nonzero;stroke:none"
       id="path13998" /><path
       d="m 753.2,344.83 1.46,-1.71 -1.72,-1.46 -1.46,1.71 z m 2.92,-3.42 1.46,-1.71 -1.71,-1.46 -1.46,1.71 z m 2.92,-3.43 1.46,-1.71 -1.71,-1.46 -1.46,1.71 z m 2.92,-3.42 1.46,-1.71 -1.71,-1.46 -1.46,1.71 z m 2.92,-3.42 1.46,-1.71 -1.71,-1.46 -1.46,1.71 z m 2.92,-3.42 1.46,-1.72 -1.71,-1.46 -1.46,1.72 z m 2.92,-3.43 1.46,-1.71 -1.71,-1.46 -1.46,1.71 z m 2.92,-3.42 1.47,-1.71 -1.72,-1.46 -1.46,1.71 z m 2.93,-3.42 1.46,-1.71 -1.72,-1.46 -1.46,1.71 z m 3.83,-1.03 1.82,-7.33 -6.95,2.94 z"
       style="fill:#000000;fill-opacity:1;fill-rule:nonzero;stroke:none"
       id="path14000" /><g
       id="g14002"><g
         id="g14004"
         clip-path="url(#clipPath14008)"><text
           transform="matrix(1,0,0,-1,796.99,316.25)"
           style="font-style:italic;font-variant:normal;font-weight:bold;font-size:18px;font-family:'Times New Roman';-inkscape-font-specification:TimesNewRomanPS-BoldItalicMT;writing-mode:lr-tb;fill:#000000;fill-opacity:1;fill-rule:nonzero;stroke:none"
           id="text14012"><tspan
             x="0"
             y="0"
             id="tspan14010">W</tspan></text></g></g><g
       id="g14014"><g
         id="g14016"
         clip-path="url(#clipPath14020)"><text
           transform="matrix(1,0,0,-1,812.95,311.81)"
           style="font-style:italic;font-variant:normal;font-weight:bold;font-size:12px;font-family:'Times New Roman';-inkscape-font-specification:TimesNewRomanPS-BoldItalicMT;writing-mode:lr-tb;fill:#000000;fill-opacity:1;fill-rule:nonzero;stroke:none"
           id="text14024"><tspan
             x="0"
             y="0"
             id="tspan14022">2</tspan></text></g></g><path
       d="m 781.53,270.34 -1.76,-1.4 1.4,-1.76 1.76,1.4 z m -3.52,-2.81 -1.76,-1.4 1.4,-1.76 1.76,1.4 z m -3.52,-2.8 -1.76,-1.41 1.41,-1.76 1.75,1.41 z m -3.52,-2.81 -1.76,-1.4 1.41,-1.76 1.76,1.4 z m -3.51,-2.81 -1.76,-1.4 1.4,-1.76 1.76,1.4 z m -3.52,-2.8 -1.76,-1.41 1.4,-1.76 1.76,1.41 z m -3.52,-2.81 -1.76,-1.4 1.41,-1.76 1.75,1.4 z m -3.52,-2.81 -1.76,-1.4 1.41,-1.76 1.76,1.4 z m -3.51,-2.8 -1.76,-1.41 1.4,-1.76 1.76,1.41 z m -3.52,-2.81 -1.76,-1.4 1.4,-1.76 1.76,1.4 z m -3.52,-2.81 -1.76,-1.4 1.41,-1.76 1.75,1.4 z m -3.52,-2.8 -1.76,-1.41 1.41,-1.76 1.76,1.41 z m -3.51,-2.81 -1.76,-1.4 1.4,-1.76 1.76,1.4 z m -3.25,0.29 -3.17,-6.85 7.38,1.57 z"
       style="fill:#000000;fill-opacity:1;fill-rule:nonzero;stroke:none"
       id="path14026" /><g
       id="g14028"><g
         id="g14030"
         clip-path="url(#clipPath14034)"><text
           transform="matrix(1,0,0,-1,727.66,155.74)"
           style="font-style:italic;font-variant:normal;font-weight:bold;font-size:20.064px;font-family:'Times New Roman';-inkscape-font-specification:TimesNewRomanPS-BoldItalicMT;writing-mode:lr-tb;fill:#000000;fill-opacity:1;fill-rule:nonzero;stroke:none"
           id="text14038"><tspan
             x="0"
             y="0"
             id="tspan14036">Y</tspan></text></g></g><path
       d="m 669.54,214.14 c 0,8.81 28.34,15.96 63.3,15.96 34.96,0 63.3,-7.15 63.3,-15.96 0,-8.81 -28.34,-15.96 -63.3,-15.96 -34.96,0 -63.3,7.15 -63.3,15.96 z"
       style="fill:none;stroke:#000000;stroke-width:2.25;stroke-linecap:butt;stroke-linejoin:miter;stroke-miterlimit:10;stroke-dasharray:none;stroke-opacity:1"
       id="path14042" /><g
       id="g14044"><g
         id="g14046"
         clip-path="url(#clipPath14050)"><text
           transform="matrix(1,0,0,-1,704.33,208.99)"
           style="font-variant:normal;font-weight:normal;font-size:14.04px;font-family:'Times New Roman';-inkscape-font-specification:TimesNewRomanPSMT;writing-mode:lr-tb;fill:#000000;fill-opacity:1;fill-rule:nonzero;stroke:none"
           id="text14054"><tspan
             x="0 6.2337599 13.30992 20.37204 23.7276"
             y="0"
             sodipodi:role="line"
             id="tspan14052">add +</tspan></text></g></g><g
       id="g14056"><g
         id="g14058"
         clip-path="url(#clipPath14062)"><text
           transform="matrix(1,0,0,-1,739.49,208.99)"
           style="font-variant:normal;font-weight:normal;font-size:14.04px;font-family:'Times New Roman';-inkscape-font-specification:TimesNewRomanPSMT;writing-mode:lr-tb;fill:#000000;fill-opacity:1;fill-rule:nonzero;stroke:none"
           id="text14066"><tspan
             x="0 4.6753201 10.90908 14.86836"
             y="0"
             sodipodi:role="line"
             id="tspan14064">relu</tspan></text></g></g><g
       id="g14068"><g
         id="g14070"
         clip-path="url(#clipPath14074)"><text
           transform="matrix(1,0,0,-1,702.74,229.73)"
           style="font-style:italic;font-variant:normal;font-weight:bold;font-size:18px;font-family:'Times New Roman';-inkscape-font-specification:TimesNewRomanPS-BoldItalicMT;writing-mode:lr-tb;fill:#000000;fill-opacity:1;fill-rule:nonzero;stroke:none"
           id="text14078"><tspan
             x="0"
             y="0"
             id="tspan14076">b</tspan></text></g></g><path
       d="m 735.7,199.86 v -14.68 h -2.25 v 14.68 z m 2.25,-13.55 -3.37,-6.75 -3.38,6.75 z"
       style="fill:#000000;fill-opacity:1;fill-rule:nonzero;stroke:none"
       id="path14080" /><path
       d="m 641.46,288.6 c 0,10.97 19.74,19.86 44.1,19.86 24.36,0 44.1,-8.89 44.1,-19.86 0,-10.97 -19.74,-19.86 -44.1,-19.86 -24.36,0 -44.1,8.89 -44.1,19.86 z"
       style="fill:none;stroke:#000000;stroke-width:2.25;stroke-linecap:butt;stroke-linejoin:miter;stroke-miterlimit:10;stroke-dasharray:none;stroke-opacity:1"
       id="path14084" /><g
       id="g14086"><g
         id="g14088"
         clip-path="url(#clipPath14092)"><text
           transform="matrix(1,0,0,-1,664.27,283.44)"
           style="font-variant:normal;font-weight:normal;font-size:14.04px;font-family:'Times New Roman';-inkscape-font-specification:TimesNewRomanPSMT;writing-mode:lr-tb;fill:#000000;fill-opacity:1;fill-rule:nonzero;stroke:none"
           id="text14096"><tspan
             x="0 10.68444 16.9182 20.86344 31.54788 38.610001"
             y="0"
             sodipodi:role="line"
             id="tspan14094">matmul</tspan></text></g></g><g
       id="g14098"><g
         id="g14100"
         clip-path="url(#clipPath14104)"><text
           transform="matrix(1,0,0,-1,662.57,415.49)"
           style="font-style:italic;font-variant:normal;font-weight:bold;font-size:18px;font-family:'Times New Roman';-inkscape-font-specification:TimesNewRomanPS-BoldItalicMT;writing-mode:lr-tb;fill:#000000;fill-opacity:1;fill-rule:nonzero;stroke:none"
           id="text14108"><tspan
             x="0 5.0040002 15.012 24.011999 33.966"
             y="0"
             sodipodi:role="line"
             id="tspan14106">input</tspan></text></g></g><g
       id="g14110"><g
         id="g14112"
         clip-path="url(#clipPath14116)"><text
           transform="matrix(1,0,0,-1,648,156.77)"
           style="font-style:italic;font-variant:normal;font-weight:bold;font-size:18px;font-family:'Times New Roman';-inkscape-font-specification:TimesNewRomanPS-BoldItalicMT;writing-mode:lr-tb;fill:#000000;fill-opacity:1;fill-rule:nonzero;stroke:none"
           id="text14120"><tspan
             x="0 9 19.007999 24.011999 33.012001 42.966"
             y="0"
             sodipodi:role="line"
             id="tspan14118">output</tspan></text></g></g><g
       id="g14122"><g
         id="g14124"
         clip-path="url(#clipPath14128)"><text
           transform="matrix(1,0,0,-1,692.3,62.472)"
           style="font-variant:normal;font-weight:normal;font-size:18px;font-family:'Microsoft YaHei';-inkscape-font-specification:MicrosoftYaHei;writing-mode:lr-tb;fill:#000000;fill-opacity:1;fill-rule:nonzero;stroke:none"
           id="text14132"><tspan
             x="0 18 36 54 72"
             y="0"
             sodipodi:role="line"
             id="tspan14130">等价计算图</tspan></text></g></g><path
       d="m 859.2,305.67 h 46.38 v 4.65 l 9.3,-9.3 -9.3,-9.3 v 4.65 H 859.2 Z"
       style="fill:#4472c4;fill-opacity:1;fill-rule:evenodd;stroke:none"
       id="path14134" /><path
       d="m 859.2,305.67 h 46.38 v 4.65 l 9.3,-9.3 -9.3,-9.3 v 4.65 H 859.2 Z"
       style="fill:none;stroke:#2f528f;stroke-width:1;stroke-linecap:butt;stroke-linejoin:miter;stroke-miterlimit:10;stroke-dasharray:none;stroke-opacity:1"
       id="path14136" /><g
       id="g14138"><g
         id="g14140"
         clip-path="url(#clipPath14144)"><text
           transform="matrix(1,0,0,-1,867.14,334.66)"
           style="font-variant:normal;font-weight:normal;font-size:18px;font-family:'Microsoft YaHei';-inkscape-font-specification:MicrosoftYaHei;writing-mode:lr-tb;fill:#000000;fill-opacity:1;fill-rule:nonzero;stroke:none"
           id="text14148"><tspan
             x="0 18"
             y="0"
             sodipodi:role="line"
             id="tspan14146">后端</tspan></text></g></g><g
       id="g14150"><g
         id="g14152"
         clip-path="url(#clipPath14156)"><text
           transform="matrix(1,0,0,-1,867.14,313.06)"
           style="font-variant:normal;font-weight:normal;font-size:18px;font-family:'Microsoft YaHei';-inkscape-font-specification:MicrosoftYaHei;writing-mode:lr-tb;fill:#000000;fill-opacity:1;fill-rule:nonzero;stroke:none"
           id="text14160"><tspan
             x="0 18"
             y="0"
             sodipodi:role="line"
             id="tspan14158">执行</tspan></text></g></g></g></svg>
