<?xml version="1.0" encoding="UTF-8" standalone="no"?>
<!-- Created with Inkscape (http://www.inkscape.org/) -->

<svg
   version="1.1"
   id="svg2"
   xml:space="preserve"
   width="601.33331"
   height="461.33334"
   viewBox="0 0 601.33331 461.33334"
   sodipodi:docname="framework_position.svg"
   inkscape:version="1.1.1 (3bf5ae0d25, 2021-09-20)"
   xmlns:inkscape="http://www.inkscape.org/namespaces/inkscape"
   xmlns:sodipodi="http://sodipodi.sourceforge.net/DTD/sodipodi-0.dtd"
   xmlns="http://www.w3.org/2000/svg"
   xmlns:svg="http://www.w3.org/2000/svg"><defs
     id="defs6"><clipPath
       clipPathUnits="userSpaceOnUse"
       id="clipPath18"><path
         d="M 0,0.1818173 H 450.9818 V 346.00002 l -450.9818,0 z"
         id="path16" /></clipPath></defs><sodipodi:namedview
     id="namedview4"
     pagecolor="#ffffff"
     bordercolor="#666666"
     borderopacity="1.0"
     inkscape:pageshadow="2"
     inkscape:pageopacity="0.0"
     inkscape:pagecheckerboard="0"
     showgrid="false"
     inkscape:zoom="1.1020443"
     inkscape:cx="232.74926"
     inkscape:cy="263.14732"
     inkscape:window-width="1920"
     inkscape:window-height="1137"
     inkscape:window-x="1912"
     inkscape:window-y="-8"
     inkscape:window-maximized="1"
     inkscape:current-layer="g22" /><g
     id="g8"
     inkscape:groupmode="layer"
     inkscape:label="framework-position"
     transform="matrix(1.3333333,0,0,-1.3333333,0,461.33333)"><g
       id="g10" /><g
       id="g22"><g
         id="g26"
         transform="matrix(7.874016e-5,0,0,-7.874016e-5,1.072749,305)"><path
           d="M 0,0 H 958734 V 1064029 H 0 Z"
           style="fill:none;stroke:#000000;stroke-width:19050;stroke-linecap:butt;stroke-linejoin:miter;stroke-miterlimit:8;stroke-dasharray:none;stroke-opacity:1"
           id="path28" /></g><g
         id="g30"
         transform="matrix(0.2181818,0,0,0.2181818,11.7288,-77.49089)"><text
           transform="matrix(1,0,0,-1,0,1585)"
           style="font-variant:normal;font-weight:normal;font-size:83px;font-family:STSongti-SC;-inkscape-font-specification:STSongti-SC-Regular;writing-mode:lr-tb;fill:#000000;fill-opacity:1;fill-rule:nonzero;stroke:none"
           id="text34"><tspan
             x="0"
             sodipodi:role="line"
             id="tspan32"
             y="0">自然语</tspan></text></g><g
         id="g36"
         transform="matrix(0.2181818,0,0,0.2181818,11.7288,-99.09089)"><text
           transform="matrix(1,0,0,-1,0,1585)"
           style="font-variant:normal;font-weight:normal;font-size:83px;font-family:STSongti-SC;-inkscape-font-specification:STSongti-SC-Regular;writing-mode:lr-tb;fill:#000000;fill-opacity:1;fill-rule:nonzero;stroke:none"
           id="text40"><tspan
             x="0"
             sodipodi:role="line"
             id="tspan38"
             y="0">言处理</tspan></text></g><path
         d="M 1.072749,196.7818 H 449 V 112.3454 H 1.072749 Z"
         style="fill:#deebf7;fill-opacity:1;fill-rule:nonzero;stroke:none"
         id="path42" /><g
         id="g44"
         transform="matrix(7.874016e-5,0,0,-7.874016e-5,1.072749,196.7818)"><path
           d="M 0,0 H 5688676 V 1072342 H 0 Z"
           style="fill:none;stroke:#000000;stroke-width:19050;stroke-linecap:butt;stroke-linejoin:miter;stroke-miterlimit:8;stroke-dasharray:none;stroke-opacity:1"
           id="path46" /></g><g
         id="g48"
         transform="matrix(0.2181818,0,0,0.2181818,170.9274,-185.9273)"><text
           transform="matrix(1,0,0,-1,0,1585)"
           style="font-variant:normal;font-weight:normal;font-size:83px;font-family:STSongti-SC;-inkscape-font-specification:STSongti-SC-Regular;writing-mode:lr-tb;fill:#000000;fill-opacity:1;fill-rule:nonzero;stroke:none"
           id="text52"><tspan
             x="0 82.501991 165.00398 247.50597 330.00797 412.50995"
             y="0"
             sodipodi:role="line"
             id="tspan50">机器学习框架</tspan></text></g><g
         id="g54"
         transform="matrix(0.2181818,0,0,0.2181818,69.67742,-207.5273)"><text
           transform="scale(1,-1)"
           style="font-variant:normal;font-weight:normal;font-size:83px;font-family:STSongti-SC;-inkscape-font-specification:STSongti-SC-Regular;writing-mode:lr-tb;fill:#000000;fill-opacity:1;fill-rule:nonzero;stroke:none"
           id="text58"
           x="-103.12501"
           y="-1585"><tspan
             x="-103.12501"
             y="-1585"
             id="tspan56">(</tspan></text></g><g
         id="g60"
         transform="matrix(0.2181818,0,0,0.2181818,53.92742,-207.5273)"><text
           transform="matrix(1,0,0,-1,0,1585)"
           style="font-variant:normal;font-weight:normal;font-size:83px;font-family:STSongti-SC;-inkscape-font-specification:STSongti-SC-Regular;writing-mode:lr-tb;fill:#000000;fill-opacity:1;fill-rule:nonzero;stroke:none"
           id="text64"><tspan
             x="0 82.501991 165.00398"
             y="0"
             sodipodi:role="line"
             id="tspan62">例如：</tspan></text></g><g
         id="g66"
         transform="matrix(0.2181818,0,0,0.2181818,106.4274,-207.5273)"><text
           transform="scale(1,-1)"
           style="font-variant:normal;font-weight:normal;font-size:83px;font-family:STSongti-SC;-inkscape-font-specification:STSongti-SC-Regular;writing-mode:lr-tb;fill:#000000;fill-opacity:1;fill-rule:nonzero;stroke:none"
           id="text70"
           x="-40.549644"
           y="-1581.8807"><tspan
             sodipodi:role="line"
             id="tspan68"
             x="-40.549644"
             y="-1581.8807">TensorFlow,PyTorch,MindSpore</tspan></text></g><g
         id="g72"
         transform="matrix(0.2181818,0,0,0.2181818,224.3024,-207.5273)"><text
           transform="matrix(1,0,0,-1,0,1585)"
           style="font-variant:normal;font-weight:normal;font-size:83px;font-family:STSongti-SC;-inkscape-font-specification:STSongti-SC-Regular;writing-mode:lr-tb;fill:#000000;fill-opacity:1;fill-rule:nonzero;stroke:none"
           id="text76"><tspan
             sodipodi:role="line"
             id="tspan74"
             x="0"
             y="0" /></text></g><g
         id="g78"
         transform="matrix(0.2181818,0,0,0.2181818,285.9274,-207.5273)"><text
           transform="matrix(1,0,0,-1,0,1585)"
           style="font-variant:normal;font-weight:normal;font-size:83px;font-family:STSongti-SC;-inkscape-font-specification:STSongti-SC-Regular;writing-mode:lr-tb;fill:#000000;fill-opacity:1;fill-rule:nonzero;stroke:none"
           id="text82"><tspan
             x="0"
             y="0"
             id="tspan80" /></text></g><g
         id="g84"
         transform="matrix(0.2181818,0,0,0.2181818,294.4274,-207.5273)"><text
           transform="matrix(1,0,0,-1,0,1585)"
           style="font-variant:normal;font-weight:normal;font-size:83px;font-family:STSongti-SC;-inkscape-font-specification:STSongti-SC-Regular;writing-mode:lr-tb;fill:#000000;fill-opacity:1;fill-rule:nonzero;stroke:none"
           id="text88"><tspan
             sodipodi:role="line"
             id="tspan86"
             x="0"
             y="0" /></text></g><g
         id="g90"
         transform="matrix(0.2181818,0,0,0.2181818,377.9274,-207.5273)"><text
           transform="matrix(1,0,0,-1,0,1585)"
           style="font-variant:normal;font-weight:normal;font-size:83px;font-family:STSongti-SC;-inkscape-font-specification:STSongti-SC-Regular;writing-mode:lr-tb;fill:#000000;fill-opacity:1;fill-rule:nonzero;stroke:none"
           id="text94"><tspan
             x="0"
             y="0"
             id="tspan92">)</tspan></text></g><g
         id="g98"
         transform="matrix(7.874016e-5,0,0,-7.874016e-5,1.072749,85.50905)"><path
           d="M 0,0 H 5688676 V 1075112 H 0 Z"
           style="fill:none;stroke:#000000;stroke-width:19050;stroke-linecap:butt;stroke-linejoin:miter;stroke-miterlimit:8;stroke-dasharray:none;stroke-opacity:1"
           id="path100" /></g><g
         id="g102"
         transform="matrix(0.2181818,0,0,0.2181818,179.9274,-297.4182)"><text
           transform="matrix(1,0,0,-1,0,1585)"
           style="font-variant:normal;font-weight:normal;font-size:83px;font-family:STSongti-SC;-inkscape-font-specification:STSongti-SC-Regular;writing-mode:lr-tb;fill:#000000;fill-opacity:1;fill-rule:nonzero;stroke:none"
           id="text106"><tspan
             x="0"
             y="0"
             id="tspan104">异</tspan></text></g><g
         id="g108"
         transform="matrix(0.2181818,0,0,0.2181818,197.9274,-297.4182)"><text
           transform="matrix(1,0,0,-1,0,1585)"
           style="font-variant:normal;font-weight:normal;font-size:83px;font-family:STSongti-SC;-inkscape-font-specification:STSongti-SC-Regular;writing-mode:lr-tb;fill:#000000;fill-opacity:1;fill-rule:nonzero;stroke:none"
           id="text112"><tspan
             x="0"
             y="0"
             id="tspan110">构</tspan></text></g><g
         id="g114"
         transform="matrix(0.2181818,0,0,0.2181818,215.9274,-297.4182)"><text
           transform="matrix(1,0,0,-1,0,1585)"
           style="font-variant:normal;font-weight:normal;font-size:83px;font-family:STSongti-SC;-inkscape-font-specification:STSongti-SC-Regular;writing-mode:lr-tb;fill:#000000;fill-opacity:1;fill-rule:nonzero;stroke:none"
           id="text118"><tspan
             x="0 82.501991 165.00398"
             y="0"
             sodipodi:role="line"
             id="tspan116">处理器</tspan></text></g><g
         id="g120"
         transform="matrix(0.2181818,0,0,0.2181818,80.92742,-319.0182)"><text
           transform="matrix(1,0,0,-1,0,1585)"
           style="font-variant:normal;font-weight:normal;font-size:83px;font-family:STSongti-SC;-inkscape-font-specification:STSongti-SC-Regular;writing-mode:lr-tb;fill:#000000;fill-opacity:1;fill-rule:nonzero;stroke:none"
           id="text124"><tspan
             x="0 82.501991 165.00398 247.50597"
             y="0"
             sodipodi:role="line"
             id="tspan122">（例如：</tspan></text></g><g
         id="g126"
         transform="matrix(0.2181818,0,0,0.2181818,152.9274,-319.0182)"><text
           transform="matrix(1,0,0,-1,0,1585)"
           style="font-variant:normal;font-weight:normal;font-size:83px;font-family:STSongti-SC;-inkscape-font-specification:STSongti-SC-Regular;writing-mode:lr-tb;fill:#000000;fill-opacity:1;fill-rule:nonzero;stroke:none"
           id="text130"><tspan
             x="0"
             y="0"
             sodipodi:role="line"
             id="tspan128">通用</tspan></text></g><g
         id="g132"
         transform="matrix(0.2181818,0,0,0.2181818,188.9274,-319.0182)"><text
           transform="matrix(1,0,0,-1,0,1585)"
           style="font-variant:normal;font-weight:normal;font-size:83px;font-family:STSongti-SC;-inkscape-font-specification:STSongti-SC-Regular;writing-mode:lr-tb;fill:#000000;fill-opacity:1;fill-rule:nonzero;stroke:none"
           id="text136"><tspan
             x="0 82.501991 165.00398 247.50597 330.00797 412.50995 495.01193 577.51392 660.01593 742.51788"
             y="0"
             sodipodi:role="line"
             id="tspan134">处理器和计算加速器）</tspan></text></g><g
         id="g140"
         transform="matrix(7.874016e-5,0,0,-7.874016e-5,88.12724,305)"><path
           d="M 0,0 H 958735 V 1064029 H 0 Z"
           style="fill:none;stroke:#000000;stroke-width:19050;stroke-linecap:butt;stroke-linejoin:miter;stroke-miterlimit:8;stroke-dasharray:none;stroke-opacity:1"
           id="path142" /></g><g
         id="g144"
         transform="matrix(0.2181818,0,0,0.2181818,98.79257,-77.49089)"><text
           transform="matrix(1,0,0,-1,0,1585)"
           style="font-variant:normal;font-weight:normal;font-size:83px;font-family:STSongti-SC;-inkscape-font-specification:STSongti-SC-Regular;writing-mode:lr-tb;fill:#000000;fill-opacity:1;fill-rule:nonzero;stroke:none"
           id="text148"><tspan
             x="0 82.501991 165.00398"
             y="0"
             sodipodi:role="line"
             id="tspan146">计算机</tspan></text></g><g
         id="g150"
         transform="matrix(0.2181818,0,0,0.2181818,107.7926,-99.09089)"><text
           transform="matrix(1,0,0,-1,0,1585)"
           style="font-variant:normal;font-weight:normal;font-size:83px;font-family:STSongti-SC;-inkscape-font-specification:STSongti-SC-Regular;writing-mode:lr-tb;fill:#000000;fill-opacity:1;fill-rule:nonzero;stroke:none"
           id="text154"><tspan
             x="0 82.501991"
             y="0"
             sodipodi:role="line"
             id="tspan152">视觉</tspan></text></g><g
         id="g158"
         transform="matrix(7.874016e-5,0,0,-7.874016e-5,175.1818,305)"><path
           d="M 0,0 H 958735 V 1064029 H 0 Z"
           style="fill:none;stroke:#000000;stroke-width:19050;stroke-linecap:butt;stroke-linejoin:miter;stroke-miterlimit:8;stroke-dasharray:none;stroke-opacity:1"
           id="path160" /></g><g
         id="g162"
         transform="matrix(0.2181818,0,0,0.2181818,185.8564,-88.1818)"><text
           transform="matrix(1,0,0,-1,0,1585)"
           style="font-variant:normal;font-weight:normal;font-size:83px;font-family:STSongti-SC;-inkscape-font-specification:STSongti-SC-Regular;writing-mode:lr-tb;fill:#000000;fill-opacity:1;fill-rule:nonzero;stroke:none"
           id="text166"><tspan
             x="0 82.501991"
             y="0"
             sodipodi:role="line"
             id="tspan164">机器人</tspan></text></g><g
         id="g170"
         transform="matrix(7.874016e-5,0,0,-7.874016e-5,359.3272,305)"><path
           d="M 0,0 H 1138844 V 1064029 H 0 Z"
           style="fill:none;stroke:#000000;stroke-width:19050;stroke-linecap:butt;stroke-linejoin:miter;stroke-miterlimit:8;stroke-dasharray:none;stroke-opacity:1"
           id="path172" /></g><g
         id="g174"
         transform="matrix(0.2181818,0,0,0.2181818,368.007,-88.1818)"><text
           transform="matrix(1,0,0,-1,0,1585)"
           style="font-variant:normal;font-weight:normal;font-size:83px;font-family:STSongti-SC;-inkscape-font-specification:STSongti-SC-Regular;writing-mode:lr-tb;fill:#000000;fill-opacity:1;fill-rule:nonzero;stroke:none"
           id="text178"><tspan
             x="0 82.501991 165.00398 247.50597"
             y="0"
             sodipodi:role="line"
             id="tspan176">推荐系统</tspan></text></g><g
         id="g180"
         transform="matrix(7.874016e-5,0,0,-7.874016e-5,269.7636,263)"><path
           d="M 0,0 865414,1"
           style="fill:none;stroke:#000000;stroke-width:28575;stroke-linecap:butt;stroke-linejoin:miter;stroke-miterlimit:8;stroke-dasharray:28575, 28575;stroke-dashoffset:0;stroke-opacity:1"
           id="path182" /></g><g
         id="g184"
         transform="matrix(0.2181818,0,0,0.2181818,158.6047,-22.07271)"><text
           transform="matrix(1,0,0,-1,0,1585)"
           style="font-variant:normal;font-weight:normal;font-size:83px;font-family:STSongti-SC;-inkscape-font-specification:STSongti-SC-Regular;writing-mode:lr-tb;fill:#000000;fill-opacity:1;fill-rule:nonzero;stroke:none"
           id="text188"><tspan
             x="0 82.501991 165.00398 247.50597 330.00797"
             y="0"
             sodipodi:role="line"
             id="tspan186">机器学习应用</tspan></text></g></g></g></svg>
