<?xml version="1.0" encoding="UTF-8" standalone="no"?>
<!-- Created with Inkscape (http://www.inkscape.org/) -->

<svg
   version="1.1"
   id="svg25"
   xml:space="preserve"
   width="902.39996"
   height="387.03998"
   viewBox="0 0 902.39996 387.03998"
   sodipodi:docname="MindIR.svg"
   inkscape:version="1.1.1 (c3084ef, 2021-09-22)"
   xmlns:inkscape="http://www.inkscape.org/namespaces/inkscape"
   xmlns:sodipodi="http://sodipodi.sourceforge.net/DTD/sodipodi-0.dtd"
   xmlns="http://www.w3.org/2000/svg"
   xmlns:svg="http://www.w3.org/2000/svg"><defs
     id="defs29"><clipPath
       clipPathUnits="userSpaceOnUse"
       id="clipPath39"><path
         d="M 0,1.2207e-4 H 960 V 540.00012 H 0 Z"
         clip-rule="evenodd"
         id="path37" /></clipPath><clipPath
       clipPathUnits="userSpaceOnUse"
       id="clipPath53"><path
         d="M 1.4305e-5,0 H 960.00001 V 540 H 1.4305e-5 Z"
         clip-rule="evenodd"
         id="path51" /></clipPath><clipPath
       clipPathUnits="userSpaceOnUse"
       id="clipPath69"><path
         d="M 1.4305e-5,0 H 960.00001 V 540 H 1.4305e-5 Z"
         clip-rule="evenodd"
         id="path67" /></clipPath><clipPath
       clipPathUnits="userSpaceOnUse"
       id="clipPath85"><path
         d="M 1.4305e-5,0 H 960.00001 V 540 H 1.4305e-5 Z"
         clip-rule="evenodd"
         id="path83" /></clipPath><clipPath
       clipPathUnits="userSpaceOnUse"
       id="clipPath101"><path
         d="M 1.4305e-5,0 H 960.00001 V 540 H 1.4305e-5 Z"
         clip-rule="evenodd"
         id="path99" /></clipPath><clipPath
       clipPathUnits="userSpaceOnUse"
       id="clipPath117"><path
         d="M 1.4305e-5,0 H 960.00001 V 540 H 1.4305e-5 Z"
         clip-rule="evenodd"
         id="path115" /></clipPath><clipPath
       clipPathUnits="userSpaceOnUse"
       id="clipPath133"><path
         d="M 1.4305e-5,0 H 960.00001 V 540 H 1.4305e-5 Z"
         clip-rule="evenodd"
         id="path131" /></clipPath><clipPath
       clipPathUnits="userSpaceOnUse"
       id="clipPath149"><path
         d="M 1.4305e-5,0 H 960.00001 V 540 H 1.4305e-5 Z"
         clip-rule="evenodd"
         id="path147" /></clipPath><clipPath
       clipPathUnits="userSpaceOnUse"
       id="clipPath165"><path
         d="M 1.4305e-5,0 H 960.00001 V 540 H 1.4305e-5 Z"
         clip-rule="evenodd"
         id="path163" /></clipPath><clipPath
       clipPathUnits="userSpaceOnUse"
       id="clipPath181"><path
         d="M 1.4305e-5,0 H 960.00001 V 540 H 1.4305e-5 Z"
         clip-rule="evenodd"
         id="path179" /></clipPath><clipPath
       clipPathUnits="userSpaceOnUse"
       id="clipPath197"><path
         d="M 1.4305e-5,0 H 960.00001 V 540 H 1.4305e-5 Z"
         clip-rule="evenodd"
         id="path195" /></clipPath><clipPath
       clipPathUnits="userSpaceOnUse"
       id="clipPath213"><path
         d="M 1.4305e-5,0 H 960.00001 V 540 H 1.4305e-5 Z"
         clip-rule="evenodd"
         id="path211" /></clipPath><clipPath
       clipPathUnits="userSpaceOnUse"
       id="clipPath229"><path
         d="M 1.4305e-5,0 H 960.00001 V 540 H 1.4305e-5 Z"
         clip-rule="evenodd"
         id="path227" /></clipPath><clipPath
       clipPathUnits="userSpaceOnUse"
       id="clipPath245"><path
         d="M 1.4305e-5,0 H 960.00001 V 540 H 1.4305e-5 Z"
         clip-rule="evenodd"
         id="path243" /></clipPath><clipPath
       clipPathUnits="userSpaceOnUse"
       id="clipPath261"><path
         d="M 1.4305e-5,0 H 960.00001 V 540 H 1.4305e-5 Z"
         clip-rule="evenodd"
         id="path259" /></clipPath></defs><sodipodi:namedview
     id="namedview27"
     pagecolor="#ffffff"
     bordercolor="#cccccc"
     borderopacity="1"
     inkscape:pageshadow="0"
     inkscape:pageopacity="1"
     inkscape:pagecheckerboard="0"
     showgrid="false"
     fit-margin-top="0"
     fit-margin-left="0"
     fit-margin-right="0"
     fit-margin-bottom="0"
     inkscape:zoom="0.8375"
     inkscape:cx="458.50746"
     inkscape:cy="275.8209"
     inkscape:window-width="1792"
     inkscape:window-height="1120"
     inkscape:window-x="0"
     inkscape:window-y="0"
     inkscape:window-maximized="0"
     inkscape:current-layer="g31" /><g
     id="g31"
     inkscape:groupmode="layer"
     inkscape:label="9"
     transform="matrix(1.3333333,0,0,-1.3333333,-181.92,635.83998)"><path
       d="m 422.16,472.08 c 0,2.39 1.93,4.32 4.32,4.32 h 66.6 c 2.39,0 4.32,-1.93 4.32,-4.32 V 454.8 c 0,-2.39 -1.93,-4.32 -4.32,-4.32 h -66.6 c -2.39,0 -4.32,1.93 -4.32,4.32 z"
       style="fill:#a5c3f4;fill-opacity:1;fill-rule:evenodd;stroke:none"
       id="path43" /><path
       d="m 422.16,472.08 c 0,2.39 1.93,4.32 4.32,4.32 h 66.6 c 2.39,0 4.32,-1.93 4.32,-4.32 V 454.8 c 0,-2.39 -1.93,-4.32 -4.32,-4.32 h -66.6 c -2.39,0 -4.32,1.93 -4.32,4.32 z"
       style="fill:none;stroke:#41719c;stroke-width:0.96;stroke-linecap:butt;stroke-linejoin:miter;stroke-miterlimit:10;stroke-dasharray:none;stroke-opacity:1"
       id="path45" /><g
       id="g47"><g
         id="g49"
         clip-path="url(#clipPath53)"><text
           transform="matrix(1,0,0,-1,437.98,459.36)"
           style="font-variant:normal;font-weight:normal;font-size:12px;font-family:Calibri;-inkscape-font-specification:Calibri;writing-mode:lr-tb;fill:#000000;fill-opacity:1;fill-rule:nonzero;stroke:none"
           id="text57"><tspan
             x="0 6.948 13.2 16.908001 24.695999 31.02 37.403999"
             y="0"
             sodipodi:role="line"
             id="tspan55">AnfNode</tspan></text></g></g><path
       d="m 323.16,386.74 c 0,2.6 2.1,4.7 4.7,4.7 h 65.84 c 2.6,0 4.7,-2.1 4.7,-4.7 v -18.8 c 0,-2.6 -2.1,-4.7 -4.7,-4.7 h -65.84 c -2.6,0 -4.7,2.1 -4.7,4.7 z"
       style="fill:#a5c3f4;fill-opacity:1;fill-rule:evenodd;stroke:none"
       id="path59" /><path
       d="m 323.16,386.74 c 0,2.6 2.1,4.7 4.7,4.7 h 65.84 c 2.6,0 4.7,-2.1 4.7,-4.7 v -18.8 c 0,-2.6 -2.1,-4.7 -4.7,-4.7 h -65.84 c -2.6,0 -4.7,2.1 -4.7,4.7 z"
       style="fill:none;stroke:#41719c;stroke-width:0.96;stroke-linecap:butt;stroke-linejoin:miter;stroke-miterlimit:10;stroke-dasharray:none;stroke-opacity:1"
       id="path61" /><g
       id="g63"><g
         id="g65"
         clip-path="url(#clipPath69)"><text
           transform="matrix(1,0,0,-1,344.09,373.22)"
           style="font-variant:normal;font-weight:normal;font-size:12px;font-family:Calibri;-inkscape-font-specification:Calibri;writing-mode:lr-tb;fill:#000000;fill-opacity:1;fill-rule:nonzero;stroke:none"
           id="text73"><tspan
             x="0 6.9720001 14.784 21.156 27.528"
             y="0"
             sodipodi:role="line"
             id="tspan71">ANode</tspan></text></g></g><path
       d="m 512.28,386.68 c 0,2.63 2.13,4.76 4.76,4.76 h 65.72 c 2.63,0 4.76,-2.13 4.76,-4.76 v -19.04 c 0,-2.63 -2.13,-4.76 -4.76,-4.76 h -65.72 c -2.63,0 -4.76,2.13 -4.76,4.76 z"
       style="fill:#a5c3f4;fill-opacity:1;fill-rule:evenodd;stroke:none"
       id="path75" /><path
       d="m 512.28,386.68 c 0,2.63 2.13,4.76 4.76,4.76 h 65.72 c 2.63,0 4.76,-2.13 4.76,-4.76 v -19.04 c 0,-2.63 -2.13,-4.76 -4.76,-4.76 h -65.72 c -2.63,0 -4.76,2.13 -4.76,4.76 z"
       style="fill:none;stroke:#41719c;stroke-width:0.96;stroke-linecap:butt;stroke-linejoin:miter;stroke-miterlimit:10;stroke-dasharray:none;stroke-opacity:1"
       id="path77" /><g
       id="g79"><g
         id="g81"
         clip-path="url(#clipPath85)"><text
           transform="matrix(1,0,0,-1,533.45,373.08)"
           style="font-variant:normal;font-weight:normal;font-size:12.024px;font-family:Calibri;-inkscape-font-specification:Calibri;writing-mode:lr-tb;fill:#000000;fill-opacity:1;fill-rule:nonzero;stroke:none"
           id="text89"><tspan
             x="0 6.3606958 14.1282 20.512943 26.861616"
             y="0"
             sodipodi:role="line"
             id="tspan87">CNode</tspan></text></g></g><path
       d="m 136.92,302.44 c 0,2.56 2.08,4.64 4.64,4.64 h 86 c 2.56,0 4.64,-2.08 4.64,-4.64 v -18.56 c 0,-2.56 -2.08,-4.64 -4.64,-4.64 h -86 c -2.56,0 -4.64,2.08 -4.64,4.64 z"
       style="fill:#a5c3f4;fill-opacity:1;fill-rule:evenodd;stroke:none"
       id="path91" /><path
       d="m 136.92,302.44 c 0,2.56 2.08,4.64 4.64,4.64 h 86 c 2.56,0 4.64,-2.08 4.64,-4.64 v -18.56 c 0,-2.56 -2.08,-4.64 -4.64,-4.64 h -86 c -2.56,0 -4.64,2.08 -4.64,4.64 z"
       style="fill:none;stroke:#41719c;stroke-width:0.96;stroke-linecap:butt;stroke-linejoin:miter;stroke-miterlimit:10;stroke-dasharray:none;stroke-opacity:1"
       id="path93" /><g
       id="g95"><g
         id="g97"
         clip-path="url(#clipPath101)"><text
           transform="matrix(1,0,0,-1,145.75,289.06)"
           style="font-variant:normal;font-weight:normal;font-size:12px;font-family:Calibri;-inkscape-font-specification:Calibri;writing-mode:lr-tb;fill:#000000;fill-opacity:1;fill-rule:nonzero;stroke:none"
           id="text105"><tspan
             x="0 6 11.748 15.72 21.468 31.056 36.959999 40.919998 46.896 51.108002 58.896 65.220001 71.603996"
             y="0"
             sodipodi:role="line"
             id="tspan103">ParameterNode</tspan></text></g></g><path
       d="m 422.16,302.66 c 0,2.44 1.98,4.42 4.42,4.42 h 66.4 c 2.44,0 4.42,-1.98 4.42,-4.42 v -17.68 c 0,-2.44 -1.98,-4.42 -4.42,-4.42 h -66.4 c -2.44,0 -4.42,1.98 -4.42,4.42 z"
       style="fill:#a5c3f4;fill-opacity:1;fill-rule:evenodd;stroke:none"
       id="path107" /><path
       d="m 422.16,302.66 c 0,2.44 1.98,4.42 4.42,4.42 h 66.4 c 2.44,0 4.42,-1.98 4.42,-4.42 v -17.68 c 0,-2.44 -1.98,-4.42 -4.42,-4.42 h -66.4 c -2.44,0 -4.42,1.98 -4.42,4.42 z"
       style="fill:none;stroke:#41719c;stroke-width:0.96;stroke-linecap:butt;stroke-linejoin:miter;stroke-miterlimit:10;stroke-dasharray:none;stroke-opacity:1"
       id="path109" /><g
       id="g111"><g
         id="g113"
         clip-path="url(#clipPath117)"><text
           transform="matrix(1,0,0,-1,433.01,289.7)"
           style="font-variant:normal;font-weight:normal;font-size:12px;font-family:Calibri;-inkscape-font-specification:Calibri;writing-mode:lr-tb;fill:#000000;fill-opacity:1;fill-rule:nonzero;stroke:none"
           id="text121"><tspan
             x="0 6.1199999 11.868 14.628 20.988001 26.964001 34.776001 41.099998 47.484001"
             y="0"
             sodipodi:role="line"
             id="tspan119">ValueNode</tspan></text></g></g><path
       d="m 136.92,187.08 h 95.28 v 22.08 h -95.28 z"
       style="fill:#7cc2f2;fill-opacity:1;fill-rule:evenodd;stroke:none"
       id="path123" /><path
       d="m 136.92,187.08 h 95.28 v 22.08 h -95.28 z"
       style="fill:none;stroke:#41719c;stroke-width:0.96;stroke-linecap:butt;stroke-linejoin:miter;stroke-miterlimit:10;stroke-dasharray:none;stroke-opacity:1"
       id="path125" /><g
       id="g127"><g
         id="g129"
         clip-path="url(#clipPath133)"><text
           transform="matrix(1,0,0,-1,159,193.99)"
           style="font-variant:normal;font-weight:normal;font-size:12px;font-family:Calibri;-inkscape-font-specification:Calibri;writing-mode:lr-tb;fill:#000000;fill-opacity:1;fill-rule:nonzero;stroke:none"
           id="text137"><tspan
             x="0 6 11.748 15.72 21.468 31.056 36.959999 40.919998 46.896"
             y="0"
             sodipodi:role="line"
             id="tspan135">Parameter</tspan></text></g></g><path
       d="m 269.64,187.68 h 54.24 v 21.96 h -54.24 z"
       style="fill:#7cc2f2;fill-opacity:1;fill-rule:evenodd;stroke:none"
       id="path139" /><path
       d="m 269.64,187.68 h 54.24 v 21.96 h -54.24 z"
       style="fill:none;stroke:#41719c;stroke-width:0.96;stroke-linecap:butt;stroke-linejoin:miter;stroke-miterlimit:10;stroke-dasharray:none;stroke-opacity:1"
       id="path141" /><g
       id="g143"><g
         id="g145"
         clip-path="url(#clipPath149)"><text
           transform="matrix(1,0,0,-1,282.31,194.5)"
           style="font-variant:normal;font-weight:normal;font-size:12.024px;font-family:Calibri;-inkscape-font-specification:Calibri;writing-mode:lr-tb;fill:#000000;fill-opacity:1;fill-rule:nonzero;stroke:none"
           id="text153"><tspan
             x="0 5.5190158 10.436832 16.196327 18.961847 24.721344"
             y="0"
             sodipodi:role="line"
             id="tspan151">Scalar</tspan></text></g></g><path
       d="m 330.36,187.68 h 54.12 v 21.96 h -54.12 z"
       style="fill:#7cc2f2;fill-opacity:1;fill-rule:evenodd;stroke:none"
       id="path155" /><path
       d="m 330.36,187.68 h 54.12 v 21.96 h -54.12 z"
       style="fill:none;stroke:#41719c;stroke-width:0.96;stroke-linecap:butt;stroke-linejoin:miter;stroke-miterlimit:10;stroke-dasharray:none;stroke-opacity:1"
       id="path157" /><g
       id="g159"><g
         id="g161"
         clip-path="url(#clipPath165)"><text
           transform="matrix(1,0,0,-1,339.62,194.5)"
           style="font-variant:normal;font-weight:normal;font-size:12.024px;font-family:Calibri;-inkscape-font-specification:Calibri;writing-mode:lr-tb;fill:#000000;fill-opacity:1;fill-rule:nonzero;stroke:none"
           id="text169"><tspan
             x="0 7.7675042 13.527 23.134176 29.146175"
             y="0"
             sodipodi:role="line"
             id="tspan167">Named</tspan></text></g></g><path
       d="m 390.96,187.08 h 54.12 v 23.04 h -54.12 z"
       style="fill:#7cc2f2;fill-opacity:1;fill-rule:evenodd;stroke:none"
       id="path171" /><path
       d="m 390.96,187.08 h 54.12 v 23.04 h -54.12 z"
       style="fill:none;stroke:#41719c;stroke-width:0.96;stroke-linecap:butt;stroke-linejoin:miter;stroke-miterlimit:10;stroke-dasharray:none;stroke-opacity:1"
       id="path173" /><g
       id="g175"><g
         id="g177"
         clip-path="url(#clipPath181)"><text
           transform="matrix(1,0,0,-1,401.83,194.5)"
           style="font-variant:normal;font-weight:normal;font-size:12.024px;font-family:Calibri;-inkscape-font-specification:Calibri;writing-mode:lr-tb;fill:#000000;fill-opacity:1;fill-rule:nonzero;stroke:none"
           id="text185"><tspan
             x="0 4.797576 10.785528 17.146223 21.847609 28.184256"
             y="0"
             sodipodi:role="line"
             id="tspan183">Tensor</tspan></text></g></g><path
       d="m 451.68,187.8 h 54.12 v 23.04 h -54.12 z"
       style="fill:#7cc2f2;fill-opacity:1;fill-rule:evenodd;stroke:none"
       id="path187" /><path
       d="m 451.68,187.8 h 54.12 v 23.04 h -54.12 z"
       style="fill:none;stroke:#41719c;stroke-width:0.96;stroke-linecap:butt;stroke-linejoin:miter;stroke-miterlimit:10;stroke-dasharray:none;stroke-opacity:1"
       id="path189" /><g
       id="g191"><g
         id="g193"
         clip-path="url(#clipPath197)"><text
           transform="matrix(1,0,0,-1,467.18,195.14)"
           style="font-variant:normal;font-weight:normal;font-size:12.024px;font-family:Calibri;-inkscape-font-specification:Calibri;writing-mode:lr-tb;fill:#000000;fill-opacity:1;fill-rule:nonzero;stroke:none"
           id="text201"><tspan
             x="0 5.2785358 10.677312 17.025984"
             y="0"
             sodipodi:role="line"
             id="tspan199">Type</tspan></text></g></g><path
       d="m 512.28,188.16 h 54.12 v 22.92 h -54.12 z"
       style="fill:#7cc2f2;fill-opacity:1;fill-rule:evenodd;stroke:none"
       id="path203" /><path
       d="m 512.28,188.16 h 54.12 v 22.92 h -54.12 z"
       style="fill:none;stroke:#41719c;stroke-width:0.96;stroke-linecap:butt;stroke-linejoin:miter;stroke-miterlimit:10;stroke-dasharray:none;stroke-opacity:1"
       id="path205" /><g
       id="g207"><g
         id="g209"
         clip-path="url(#clipPath213)"><text
           transform="matrix(1,0,0,-1,524.35,195.46)"
           style="font-variant:normal;font-weight:normal;font-size:12px;font-family:Calibri;-inkscape-font-specification:Calibri;writing-mode:lr-tb;fill:#000000;fill-opacity:1;fill-rule:nonzero;stroke:none"
           id="text217"><tspan
             x="0 5.5079999 11.868 17.615999 23.976"
             y="0"
             sodipodi:role="line"
             id="tspan215">Shape</tspan></text></g></g><path
       d="m 572.88,188.16 h 60.84 v 22.92 h -60.84 z"
       style="fill:#7cc2f2;fill-opacity:1;fill-rule:evenodd;stroke:none"
       id="path219" /><path
       d="m 572.88,188.16 h 60.84 v 22.92 h -60.84 z"
       style="fill:none;stroke:#41719c;stroke-width:0.96;stroke-linecap:butt;stroke-linejoin:miter;stroke-miterlimit:10;stroke-dasharray:none;stroke-opacity:1"
       id="path221" /><g
       id="g223"><g
         id="g225"
         clip-path="url(#clipPath229)"><text
           transform="matrix(1,0,0,-1,581.52,195.46)"
           style="font-variant:normal;font-weight:normal;font-size:12px;font-family:Calibri;-inkscape-font-specification:Calibri;writing-mode:lr-tb;fill:#000000;fill-opacity:1;fill-rule:nonzero;stroke:none"
           id="text233"><tspan
             x="0 6.204 10.428 13.188 22.775999 25.535999 29.615999 32.375999 37.655998"
             y="0"
             sodipodi:role="line"
             id="tspan231">Primitive</tspan></text></g></g><path
       d="m 640.2,188.16 h 94.08 v 22.92 H 640.2 Z"
       style="fill:#7cc2f2;fill-opacity:1;fill-rule:evenodd;stroke:none"
       id="path235" /><path
       d="m 640.2,188.16 h 94.08 v 22.92 H 640.2 Z"
       style="fill:none;stroke:#41719c;stroke-width:0.96;stroke-linecap:butt;stroke-linejoin:miter;stroke-miterlimit:10;stroke-dasharray:none;stroke-opacity:1"
       id="path237" /><g
       id="g239"><g
         id="g241"
         clip-path="url(#clipPath245)"><text
           transform="matrix(1,0,0,-1,647.74,195.46)"
           style="font-variant:normal;font-weight:normal;font-size:12px;font-family:Calibri;-inkscape-font-specification:Calibri;writing-mode:lr-tb;fill:#000000;fill-opacity:1;fill-rule:nonzero;stroke:none"
           id="text249"><tspan
             x="0 10.308 16.188 20.148001 25.896 31.403999 37.776001 44.124001 49.164001 56.736 60.683998 66.431999 72.683998"
             y="0"
             sodipodi:role="line"
             id="tspan247">MetaFuncGraph</tspan></text></g></g><path
       d="m 740.76,188.16 h 72 v 22.92 h -72 z"
       style="fill:#7cc2f2;fill-opacity:1;fill-rule:evenodd;stroke:none"
       id="path251" /><path
       d="m 740.76,188.16 h 72 v 22.92 h -72 z"
       style="fill:none;stroke:#41719c;stroke-width:0.96;stroke-linecap:butt;stroke-linejoin:miter;stroke-miterlimit:10;stroke-dasharray:none;stroke-opacity:1"
       id="path253" /><g
       id="g255"><g
         id="g257"
         clip-path="url(#clipPath261)"><text
           transform="matrix(1,0,0,-1,750.12,195.46)"
           style="font-variant:normal;font-weight:normal;font-size:12px;font-family:Calibri;-inkscape-font-specification:Calibri;writing-mode:lr-tb;fill:#000000;fill-opacity:1;fill-rule:nonzero;stroke:none"
           id="text265"><tspan
             x="0 5.5079999 11.868 18.216 23.256001 30.827999 34.776001 40.523998 46.883999"
             y="0"
             sodipodi:role="line"
             id="tspan263">FuncGraph</tspan></text></g></g><path
       d="m 459.5,450.91 -94.62,-56.47 0.51,-0.85 94.62,56.46 z m -95.04,-53.81 -3.62,-5.65 6.69,0.5 z"
       style="fill:#000000;fill-opacity:1;fill-rule:nonzero;stroke:none"
       id="path267" /><path
       d="m 459.99,450.9 85.98,-56.29 -0.54,-0.84 -85.98,56.29 z m 86.52,-53.65 3.37,-5.8 -6.66,0.78 z"
       style="fill:#000000;fill-opacity:1;fill-rule:nonzero;stroke:none"
       id="path269" /><path
       d="m 360.68,363.72 -171.51,-54.6 0.31,-0.95 171.5,54.59 z m -171.31,-51.91 -4.81,-4.68 6.63,-1.04 z"
       style="fill:#000000;fill-opacity:1;fill-rule:nonzero;stroke:none"
       id="path271" /><path
       d="m 361.09,363.67 94.57,-53.64 -0.5,-0.87 -94.57,53.65 z m 94.93,-50.97 3.74,-5.57 -6.7,0.35 z"
       style="fill:#000000;fill-opacity:1;fill-rule:nonzero;stroke:none"
       id="path273" /><path
       d="m 185.06,279.24 v -65.05 h -1 v 65.05 z m 2.5,-64.05 -3,-6 -3,6 z"
       style="fill:#000000;fill-opacity:1;fill-rule:nonzero;stroke:none"
       id="path275" /><path
       d="m 459.53,281.02 -158.38,-68.87 0.39,-0.92 158.39,68.87 z m -158.46,-66.18 -4.31,-5.14 6.7,-0.36 z"
       style="fill:#000000;fill-opacity:1;fill-rule:nonzero;stroke:none"
       id="path277" /><path
       d="m 459.4,280.97 -98.21,-68.02 0.56,-0.82 98.22,68.02 z m -98.82,-65.39 -3.22,-5.88 6.64,0.95 z"
       style="fill:#000000;fill-opacity:1;fill-rule:nonzero;stroke:none"
       id="path279" /><path
       d="m 460.2,280.69 17.66,-64.9 -0.96,-0.27 -17.66,64.91 z m 19.81,-63.28 -1.32,-6.58 -4.47,5 z"
       style="fill:#000000;fill-opacity:1;fill-rule:nonzero;stroke:none"
       id="path281" /><path
       d="m 460.05,280.94 75.85,-66.12 -0.66,-0.76 -75.85,66.12 z m 76.73,-63.58 2.56,-6.21 -6.5,1.69 z"
       style="fill:#000000;fill-opacity:1;fill-rule:nonzero;stroke:none"
       id="path283" /><path
       d="m 459.94,281.01 139.08,-67.23 -0.43,-0.9 -139.09,67.23 z m 139.27,-64.54 4.09,-5.31 -6.7,-0.09 z"
       style="fill:#000000;fill-opacity:1;fill-rule:nonzero;stroke:none"
       id="path285" /><path
       d="m 459.87,281.04 222.71,-67.95 -0.29,-0.95 -222.72,67.94 z m 222.49,-65.26 4.86,-4.62 -6.61,-1.12 z"
       style="fill:#000000;fill-opacity:1;fill-rule:nonzero;stroke:none"
       id="path287" /><path
       d="m 459.83,281.05 312.13,-68.34 -0.22,-0.97 -312.13,68.33 z m 311.68,-65.68 5.22,-4.21 -6.5,-1.65 z"
       style="fill:#000000;fill-opacity:1;fill-rule:nonzero;stroke:none"
       id="path289" /><path
       d="m 459.32,280.81 -39.12,-66.07 0.86,-0.51 39.12,66.08 z m -40.76,-63.94 -0.48,-6.69 5.64,3.64 z"
       style="fill:#000000;fill-opacity:1;fill-rule:nonzero;stroke:none"
       id="path291" /></g></svg>
