<?xml version="1.0" encoding="UTF-8" standalone="no"?>
<!-- Created with Inkscape (http://www.inkscape.org/) -->

<svg
   version="1.1"
   id="svg765"
   xml:space="preserve"
   width="573.44"
   height="259.83206"
   viewBox="0 0 573.44 259.83206"
   xmlns="http://www.w3.org/2000/svg"
   xmlns:svg="http://www.w3.org/2000/svg"><defs
     id="defs769"><clipPath
       clipPathUnits="userSpaceOnUse"
       id="clipPath779"><path
         d="M 0,1.2207e-4 H 960 V 540.00012 H 0 Z"
         clip-rule="evenodd"
         id="path777" /></clipPath><clipPath
       clipPathUnits="userSpaceOnUse"
       id="clipPath793"><path
         d="M 1.4305e-5,0 H 960.00001 V 540 H 1.4305e-5 Z"
         clip-rule="evenodd"
         id="path791" /></clipPath><clipPath
       clipPathUnits="userSpaceOnUse"
       id="clipPath805"><path
         d="M 1.4305e-5,0 H 960.00001 V 540 H 1.4305e-5 Z"
         clip-rule="evenodd"
         id="path803" /></clipPath><clipPath
       clipPathUnits="userSpaceOnUse"
       id="clipPath821"><path
         d="M 1.4305e-5,0 H 960.00001 V 540 H 1.4305e-5 Z"
         clip-rule="evenodd"
         id="path819" /></clipPath><clipPath
       clipPathUnits="userSpaceOnUse"
       id="clipPath837"><path
         d="M 1.4305e-5,0 H 960.00001 V 540 H 1.4305e-5 Z"
         clip-rule="evenodd"
         id="path835" /></clipPath><clipPath
       clipPathUnits="userSpaceOnUse"
       id="clipPath853"><path
         d="M 1.4305e-5,0 H 960.00001 V 540 H 1.4305e-5 Z"
         clip-rule="evenodd"
         id="path851" /></clipPath><clipPath
       clipPathUnits="userSpaceOnUse"
       id="clipPath869"><path
         d="M 1.4305e-5,0 H 960.00001 V 540 H 1.4305e-5 Z"
         clip-rule="evenodd"
         id="path867" /></clipPath><clipPath
       clipPathUnits="userSpaceOnUse"
       id="clipPath885"><path
         d="M 1.4305e-5,0 H 960.00001 V 540 H 1.4305e-5 Z"
         clip-rule="evenodd"
         id="path883" /></clipPath><clipPath
       clipPathUnits="userSpaceOnUse"
       id="clipPath897"><path
         d="M 1.4305e-5,0 H 960.00001 V 540 H 1.4305e-5 Z"
         clip-rule="evenodd"
         id="path895" /></clipPath><clipPath
       clipPathUnits="userSpaceOnUse"
       id="clipPath913"><path
         d="M 1.4305e-5,0 H 960.00001 V 540 H 1.4305e-5 Z"
         clip-rule="evenodd"
         id="path911" /></clipPath><clipPath
       clipPathUnits="userSpaceOnUse"
       id="clipPath929"><path
         d="M 1.4305e-5,0 H 960.00001 V 540 H 1.4305e-5 Z"
         clip-rule="evenodd"
         id="path927" /></clipPath><clipPath
       clipPathUnits="userSpaceOnUse"
       id="clipPath941"><path
         d="M 1.4305e-5,0 H 960.00001 V 540 H 1.4305e-5 Z"
         clip-rule="evenodd"
         id="path939" /></clipPath><clipPath
       clipPathUnits="userSpaceOnUse"
       id="clipPath957"><path
         d="M 1.4305e-5,0 H 960.00001 V 540 H 1.4305e-5 Z"
         clip-rule="evenodd"
         id="path955" /></clipPath><clipPath
       clipPathUnits="userSpaceOnUse"
       id="clipPath969"><path
         d="M 1.4305e-5,0 H 960.00001 V 540 H 1.4305e-5 Z"
         clip-rule="evenodd"
         id="path967" /></clipPath><clipPath
       clipPathUnits="userSpaceOnUse"
       id="clipPath981"><path
         d="M 1.4305e-5,0 H 960.00001 V 540 H 1.4305e-5 Z"
         clip-rule="evenodd"
         id="path979" /></clipPath></defs><g
     id="g771"
     transform="matrix(1.3333333,0,0,-1.3333333,-279.35999,533.43999)"><g
       id="g773"><g
         id="g775"
         clip-path="url(#clipPath779)" /></g><path
       d="m 249.72,333.76 c 0,8.59 6.97,15.56 15.56,15.56 h 62.24 c 8.59,0 15.56,-6.97 15.56,-15.56 V 271.4 c 0,-8.59 -6.97,-15.56 -15.56,-15.56 h -62.24 c -8.59,0 -15.56,6.97 -15.56,15.56 z"
       style="fill:#a5c3f4;fill-opacity:1;fill-rule:evenodd;stroke:none"
       id="path783" /><path
       d="m 249.72,333.76 c 0,8.59 6.97,15.56 15.56,15.56 h 62.24 c 8.59,0 15.56,-6.97 15.56,-15.56 V 271.4 c 0,-8.59 -6.97,-15.56 -15.56,-15.56 h -62.24 c -8.59,0 -15.56,6.97 -15.56,15.56 z"
       style="fill:none;stroke:#41719c;stroke-width:0.96;stroke-linecap:butt;stroke-linejoin:miter;stroke-miterlimit:10;stroke-dasharray:none;stroke-opacity:1"
       id="path785" /><g
       id="g787"><g
         id="g789"
         clip-path="url(#clipPath793)"><text
           transform="matrix(1,0,0,-1,268.61,305.66)"
           style="font-variant:normal;font-weight:normal;font-size:12px;font-family:Calibri;-inkscape-font-specification:Calibri;writing-mode:lr-tb;fill:#000000;fill-opacity:1;fill-rule:nonzero;stroke:none"
           id="text797"><tspan
             x="0 4.8000002 10.776 17.148001 21.84 28.164 32.375999 37.883999 40.644001 47.004002"
             y="0"
             id="tspan795">TensorFlow</tspan></text></g></g><g
       id="g799"><g
         id="g801"
         clip-path="url(#clipPath805)"><text
           transform="matrix(1,0,0,-1,281.45,291.26)"
           style="font-variant:normal;font-weight:normal;font-size:12.024px;font-family:Calibri;-inkscape-font-specification:Calibri;writing-mode:lr-tb;fill:#000000;fill-opacity:1;fill-rule:nonzero;stroke:none"
           id="text809"><tspan
             x="0 7.5871439 11.518992 17.278488 23.627159"
             y="0"
             id="tspan807">Graph</tspan></text></g></g><path
       d="m 419.04,377.82 c 0,2.15 1.75,3.9 3.9,3.9 h 67.44 c 2.15,0 3.9,-1.75 3.9,-3.9 v -15.6 c 0,-2.15 -1.75,-3.9 -3.9,-3.9 h -67.44 c -2.15,0 -3.9,1.75 -3.9,3.9 z"
       style="fill:#a5c3f4;fill-opacity:1;fill-rule:evenodd;stroke:none"
       id="path811" /><path
       d="m 419.04,377.82 c 0,2.15 1.75,3.9 3.9,3.9 h 67.44 c 2.15,0 3.9,-1.75 3.9,-3.9 v -15.6 c 0,-2.15 -1.75,-3.9 -3.9,-3.9 h -67.44 c -2.15,0 -3.9,1.75 -3.9,3.9 z"
       style="fill:none;stroke:#41719c;stroke-width:0.96;stroke-linecap:butt;stroke-linejoin:miter;stroke-miterlimit:10;stroke-dasharray:none;stroke-opacity:1"
       id="path813" /><g
       id="g815"><g
         id="g817"
         clip-path="url(#clipPath821)"><text
           transform="matrix(1,0,0,-1,436.1,365.93)"
           style="font-variant:normal;font-weight:normal;font-size:12px;font-family:Calibri;-inkscape-font-specification:Calibri;writing-mode:lr-tb;fill:#000000;fill-opacity:1;fill-rule:nonzero;stroke:none"
           id="text825"><tspan
             x="0 6.2280002 11.268 18.216 20.988001 28.427999 33.228001"
             y="0"
             id="tspan823">XLA HLO</tspan></text></g></g><path
       d="m 419.04,344.1 c 0,2.15 1.75,3.9 3.9,3.9 h 67.44 c 2.15,0 3.9,-1.75 3.9,-3.9 v -15.6 c 0,-2.15 -1.75,-3.9 -3.9,-3.9 h -67.44 c -2.15,0 -3.9,1.75 -3.9,3.9 z"
       style="fill:#a5c3f4;fill-opacity:1;fill-rule:evenodd;stroke:none"
       id="path827" /><path
       d="m 419.04,344.1 c 0,2.15 1.75,3.9 3.9,3.9 h 67.44 c 2.15,0 3.9,-1.75 3.9,-3.9 v -15.6 c 0,-2.15 -1.75,-3.9 -3.9,-3.9 h -67.44 c -2.15,0 -3.9,1.75 -3.9,3.9 z"
       style="fill:none;stroke:#41719c;stroke-width:0.96;stroke-linecap:butt;stroke-linejoin:miter;stroke-miterlimit:10;stroke-dasharray:none;stroke-opacity:1"
       id="path829" /><g
       id="g831"><g
         id="g833"
         clip-path="url(#clipPath837)"><text
           transform="matrix(1,0,0,-1,433.1,332.18)"
           style="font-variant:normal;font-weight:normal;font-size:12px;font-family:Calibri;-inkscape-font-specification:Calibri;writing-mode:lr-tb;fill:#000000;fill-opacity:1;fill-rule:nonzero;stroke:none"
           id="text841"><tspan
             x="0 4.8000002 10.776 17.148001 21.84 28.164 32.375999 35.015999 41.375999"
             y="0"
             id="tspan839">Tensor RT</tspan></text></g></g><path
       d="m 419.64,310.38 c 0,2.15 1.75,3.9 3.9,3.9 h 67.44 c 2.15,0 3.9,-1.75 3.9,-3.9 v -15.6 c 0,-2.15 -1.75,-3.9 -3.9,-3.9 h -67.44 c -2.15,0 -3.9,1.75 -3.9,3.9 z"
       style="fill:#a5c3f4;fill-opacity:1;fill-rule:evenodd;stroke:none"
       id="path843" /><path
       d="m 419.64,310.38 c 0,2.15 1.75,3.9 3.9,3.9 h 67.44 c 2.15,0 3.9,-1.75 3.9,-3.9 v -15.6 c 0,-2.15 -1.75,-3.9 -3.9,-3.9 h -67.44 c -2.15,0 -3.9,1.75 -3.9,3.9 z"
       style="fill:none;stroke:#41719c;stroke-width:0.96;stroke-linecap:butt;stroke-linejoin:miter;stroke-miterlimit:10;stroke-dasharray:none;stroke-opacity:1"
       id="path845" /><g
       id="g847"><g
         id="g849"
         clip-path="url(#clipPath853)"><text
           transform="matrix(1,0,0,-1,439.15,298.46)"
           style="font-variant:normal;font-weight:normal;font-size:12px;font-family:Calibri;-inkscape-font-specification:Calibri;writing-mode:lr-tb;fill:#000000;fill-opacity:1;fill-rule:nonzero;stroke:none"
           id="text857"><tspan
             x="0 6.348 13.92 17.868 23.615999 29.976"
             y="0"
             id="tspan855">nGraph</tspan></text></g></g><path
       d="m 419.64,276.66 c 0,2.15 1.75,3.9 3.9,3.9 h 67.44 c 2.15,0 3.9,-1.75 3.9,-3.9 v -15.6 c 0,-2.15 -1.75,-3.9 -3.9,-3.9 h -67.44 c -2.15,0 -3.9,1.75 -3.9,3.9 z"
       style="fill:#bfbfbf;fill-opacity:1;fill-rule:evenodd;stroke:none"
       id="path859" /><path
       d="m 419.64,276.66 c 0,2.15 1.75,3.9 3.9,3.9 h 67.44 c 2.15,0 3.9,-1.75 3.9,-3.9 v -15.6 c 0,-2.15 -1.75,-3.9 -3.9,-3.9 h -67.44 c -2.15,0 -3.9,1.75 -3.9,3.9 z"
       style="fill:none;stroke:#41719c;stroke-width:0.96;stroke-linecap:butt;stroke-linejoin:miter;stroke-miterlimit:10;stroke-dasharray:none;stroke-opacity:1"
       id="path861" /><g
       id="g863"><g
         id="g865"
         clip-path="url(#clipPath869)"><text
           transform="matrix(1,0,0,-1,436.99,264.72)"
           style="font-variant:normal;font-weight:normal;font-size:12px;font-family:Calibri;-inkscape-font-specification:Calibri;writing-mode:lr-tb;fill:#000000;fill-opacity:1;fill-rule:nonzero;stroke:none"
           id="text873"><tspan
             x="0 6.3600001 12.684 16.799999 22.775999 25.440001 35.748001"
             y="0"
             id="tspan871">Core ML</tspan></text></g></g><path
       d="m 407.04,242.94 c 0,2.15 1.75,3.9 3.9,3.9 h 92.76 c 2.15,0 3.9,-1.75 3.9,-3.9 v -15.6 c 0,-2.15 -1.75,-3.9 -3.9,-3.9 h -92.76 c -2.15,0 -3.9,1.75 -3.9,3.9 z"
       style="fill:#a5c3f4;fill-opacity:1;fill-rule:evenodd;stroke:none"
       id="path875" /><path
       d="m 407.04,242.94 c 0,2.15 1.75,3.9 3.9,3.9 h 92.76 c 2.15,0 3.9,-1.75 3.9,-3.9 v -15.6 c 0,-2.15 -1.75,-3.9 -3.9,-3.9 h -92.76 c -2.15,0 -3.9,1.75 -3.9,3.9 z"
       style="fill:none;stroke:#41719c;stroke-width:0.96;stroke-linecap:butt;stroke-linejoin:miter;stroke-miterlimit:10;stroke-dasharray:none;stroke-opacity:1"
       id="path877" /><g
       id="g879"><g
         id="g881"
         clip-path="url(#clipPath885)"><text
           transform="matrix(1,0,0,-1,419.33,230.98)"
           style="font-variant:normal;font-weight:normal;font-size:12px;font-family:Calibri;-inkscape-font-specification:Calibri;writing-mode:lr-tb;fill:#000000;fill-opacity:1;fill-rule:nonzero;stroke:none"
           id="text889"><tspan
             x="0 4.8000002 10.776 17.148001 21.84 28.164 32.375999 37.883999 40.644001 47.004002"
             y="0"
             id="tspan887">TensorFlow</tspan></text></g></g><g
       id="g891"><g
         id="g893"
         clip-path="url(#clipPath897)"><text
           transform="matrix(1,0,0,-1,477.65,230.98)"
           style="font-variant:normal;font-weight:normal;font-size:12px;font-family:Calibri;-inkscape-font-specification:Calibri;writing-mode:lr-tb;fill:#000000;fill-opacity:1;fill-rule:nonzero;stroke:none"
           id="text901"><tspan
             x="0 5.04 7.8000002 11.76"
             y="0"
             id="tspan899">Lite</tspan></text></g></g><path
       d="m 563.88,395.7 c 0,2.15 1.75,3.9 3.9,3.9 h 67.44 c 2.15,0 3.9,-1.75 3.9,-3.9 v -15.6 c 0,-2.15 -1.75,-3.9 -3.9,-3.9 h -67.44 c -2.15,0 -3.9,1.75 -3.9,3.9 z"
       style="fill:#94c57e;fill-opacity:1;fill-rule:evenodd;stroke:none"
       id="path903" /><path
       d="m 563.88,395.7 c 0,2.15 1.75,3.9 3.9,3.9 h 67.44 c 2.15,0 3.9,-1.75 3.9,-3.9 v -15.6 c 0,-2.15 -1.75,-3.9 -3.9,-3.9 h -67.44 c -2.15,0 -3.9,1.75 -3.9,3.9 z"
       style="fill:none;stroke:#41719c;stroke-width:0.96;stroke-linecap:butt;stroke-linejoin:miter;stroke-miterlimit:10;stroke-dasharray:none;stroke-opacity:1"
       id="path905" /><g
       id="g907"><g
         id="g909"
         clip-path="url(#clipPath913)"><text
           transform="matrix(1,0,0,-1,582.36,383.78)"
           style="font-variant:normal;font-weight:normal;font-size:12.024px;font-family:Calibri;-inkscape-font-specification:Calibri;writing-mode:lr-tb;fill:#000000;fill-opacity:1;fill-rule:nonzero;stroke:none"
           id="text917"><tspan
             x="0 5.0500798 9.2344322 16.05204 26.380655 28.905697 31.935743"
             y="0"
             id="tspan915">LLVM IR</tspan></text></g></g><path
       d="m 563.88,364.52 c 0,2.14 1.74,3.88 3.88,3.88 h 67.48 c 2.14,0 3.88,-1.74 3.88,-3.88 V 349 c 0,-2.14 -1.74,-3.88 -3.88,-3.88 h -67.48 c -2.14,0 -3.88,1.74 -3.88,3.88 z"
       style="fill:#94c57e;fill-opacity:1;fill-rule:evenodd;stroke:none"
       id="path919" /><path
       d="m 563.88,364.52 c 0,2.14 1.74,3.88 3.88,3.88 h 67.48 c 2.14,0 3.88,-1.74 3.88,-3.88 V 349 c 0,-2.14 -1.74,-3.88 -3.88,-3.88 h -67.48 c -2.14,0 -3.88,1.74 -3.88,3.88 z"
       style="fill:none;stroke:#41719c;stroke-width:0.96;stroke-linecap:butt;stroke-linejoin:miter;stroke-miterlimit:10;stroke-dasharray:none;stroke-opacity:1"
       id="path921" /><g
       id="g923"><g
         id="g925"
         clip-path="url(#clipPath929)"><text
           transform="matrix(1,0,0,-1,585.48,352.63)"
           style="font-variant:normal;font-weight:normal;font-size:12px;font-family:Calibri;-inkscape-font-specification:Calibri;writing-mode:lr-tb;fill:#000000;fill-opacity:1;fill-rule:nonzero;stroke:none"
           id="text933"><tspan
             x="0 5.8439999 12.108 19.812 22.656 25.68"
             y="0"
             id="tspan931">TPU IR</tspan></text></g></g><g
       id="g935"><g
         id="g937"
         clip-path="url(#clipPath941)"><text
           transform="matrix(1,0,0,-1,566.95,325.94)"
           style="font-variant:normal;font-weight:normal;font-size:12px;font-family:Calibri;-inkscape-font-specification:Calibri;writing-mode:lr-tb;fill:#000000;fill-opacity:1;fill-rule:nonzero;stroke:none"
           id="text945"><tspan
             x="0 5.5079999 11.508 16.788 22.764 26.747999 32.495998 35.256001 37.787998 44.112 48.216 54.563999 60.540001 64.524002"
             y="0"
             id="tspan943">Several others</tspan></text></g></g><path
       d="m 563.88,247.5 c 0,2.15 1.75,3.9 3.9,3.9 h 67.44 c 2.15,0 3.9,-1.75 3.9,-3.9 v -15.6 c 0,-2.15 -1.75,-3.9 -3.9,-3.9 h -67.44 c -2.15,0 -3.9,1.75 -3.9,3.9 z"
       style="fill:#bfbfbf;fill-opacity:1;fill-rule:evenodd;stroke:none"
       id="path947" /><path
       d="m 563.88,247.5 c 0,2.15 1.75,3.9 3.9,3.9 h 67.44 c 2.15,0 3.9,-1.75 3.9,-3.9 v -15.6 c 0,-2.15 -1.75,-3.9 -3.9,-3.9 h -67.44 c -2.15,0 -3.9,1.75 -3.9,3.9 z"
       style="fill:none;stroke:#41719c;stroke-width:0.96;stroke-linecap:butt;stroke-linejoin:miter;stroke-miterlimit:10;stroke-dasharray:none;stroke-opacity:1"
       id="path949" /><g
       id="g951"><g
         id="g953"
         clip-path="url(#clipPath957)"><text
           transform="matrix(1,0,0,-1,585.6,235.51)"
           style="font-variant:normal;font-weight:normal;font-size:12px;font-family:Calibri;-inkscape-font-specification:Calibri;writing-mode:lr-tb;fill:#000000;fill-opacity:1;fill-rule:nonzero;stroke:none"
           id="text961"><tspan
             x="0 7.7880001 15.576 22.524 28.764"
             y="0"
             id="tspan959">NNAPI</tspan></text></g></g><g
       id="g963"><g
         id="g965"
         clip-path="url(#clipPath969)"><text
           transform="matrix(1,0,0,-1,575.88,207.62)"
           style="font-variant:normal;font-weight:normal;font-size:12px;font-family:Calibri;-inkscape-font-specification:Calibri;writing-mode:lr-tb;fill:#000000;fill-opacity:1;fill-rule:nonzero;stroke:none"
           id="text973"><tspan
             x="0 10.308 16.056 22.188 27.624001 30.108 36.431999 40.535999 46.883999 52.860001 56.844002"
             y="0"
             id="tspan971">Many others</tspan></text></g></g><g
       id="g975"><g
         id="g977"
         clip-path="url(#clipPath981)"><text
           transform="matrix(1,0,0,-1,278.52,367.87)"
           style="font-variant:normal;font-weight:normal;font-size:12px;font-family:Calibri;-inkscape-font-specification:Calibri;writing-mode:lr-tb;fill:#000000;fill-opacity:1;fill-rule:nonzero;stroke:none"
           id="text985"><tspan
             x="0 7.572 11.52 17.268 23.628 29.976 32.736 38.712002"
             y="0"
             id="tspan983">Grappler</tspan></text></g></g><path
       d="m 344.29,326.84 70.66,40.33 -0.5,0.87 -70.66,-40.34 z m 71.03,37.66 3.72,5.58 -6.7,-0.37 z"
       style="fill:#000000;fill-opacity:1;fill-rule:nonzero;stroke:none"
       id="path987" /><path
       d="m 343.22,313.83 71.09,20.65 -0.28,0.96 -71.09,-20.65 z m 70.83,17.97 4.92,4.56 -6.6,1.21 z"
       style="fill:#000000;fill-opacity:1;fill-rule:nonzero;stroke:none"
       id="path989" /><path
       d="m 343.08,303.14 h 71.54 v -1 h -71.54 z m 70.54,2.5 6,-3 -6,-3 z"
       style="fill:#000000;fill-opacity:1;fill-rule:nonzero;stroke:none"
       id="path991" /><path
       d="m 342.14,291.36 72.86,-20.69 -0.27,-0.96 -72.87,20.69 z m 72.58,-18.01 4.96,-4.52 -6.6,-1.25 z"
       style="fill:#000000;fill-opacity:1;fill-rule:nonzero;stroke:none"
       id="path993" /><path
       d="m 343.37,280.25 59.79,-41.89 -0.57,-0.82 -59.8,41.89 z m 60.41,-39.27 3.19,-5.9 -6.63,0.99 z"
       style="fill:#000000;fill-opacity:1;fill-rule:nonzero;stroke:none"
       id="path995" /><path
       d="m 209.52,321.26 h 35.22 v -1 h -35.22 z m 34.22,2.5 6,-3 -6,-3 z"
       style="fill:#000000;fill-opacity:1;fill-rule:nonzero;stroke:none"
       id="path997" /><path
       d="m 209.52,303.14 h 35.22 v -1 h -35.22 z m 34.22,2.5 6,-3 -6,-3 z"
       style="fill:#000000;fill-opacity:1;fill-rule:nonzero;stroke:none"
       id="path999" /><path
       d="m 209.52,285.62 h 35.22 v -1 h -35.22 z m 34.22,2.5 6,-3 -6,-3 z"
       style="fill:#000000;fill-opacity:1;fill-rule:nonzero;stroke:none"
       id="path1001" /><path
       d="m 306.81,349.92 -2.67,2.43 h 1.22 c -0.85,4.29 -3.8,7.29 -7.18,7.29 h 2.43 c 3.38,0 6.33,-3 7.18,-7.29 H 309 Z"
       style="fill:#5b9bd5;fill-opacity:1;fill-rule:evenodd;stroke:none"
       id="path1003" /><path
       d="m 299.39,359.51 c -3.58,-0.78 -6.2,-4.84 -6.2,-9.59 h -2.43 c 0,5.37 3.32,9.72 7.42,9.72 0.4,0 0.81,-0.04 1.21,-0.13 z"
       style="fill:#497dab;fill-opacity:1;fill-rule:evenodd;stroke:none"
       id="path1005" /><path
       d="m 299.39,359.51 c -3.58,-0.78 -6.2,-4.84 -6.2,-9.59 h -2.43 c 0,5.37 3.32,9.72 7.42,9.72 h 2.43 c 3.38,0 6.33,-3 7.18,-7.29 H 309 l -2.19,-2.43 -2.67,2.43 h 1.22 c -0.85,4.29 -3.8,7.29 -7.18,7.29"
       style="fill:none;stroke:#41719c;stroke-width:0.96;stroke-linecap:butt;stroke-linejoin:miter;stroke-miterlimit:10;stroke-dasharray:none;stroke-opacity:1"
       id="path1007" /><path
       d="m 494.4,369.52 64.73,16.59 -0.25,0.97 -64.72,-16.59 z m 64.38,13.92 5.07,4.4 -6.56,1.42 z"
       style="fill:#000000;fill-opacity:1;fill-rule:nonzero;stroke:none"
       id="path1009" /><path
       d="m 494.37,370.57 64.66,-12.36 -0.19,-0.98 -64.65,12.36 z m 64.15,-9.71 5.33,-4.08 -6.46,-1.82 z"
       style="fill:#000000;fill-opacity:1;fill-rule:nonzero;stroke:none"
       id="path1011" /><path
       d="m 494.51,370.52 65.14,-34.16 -0.46,-0.89 -65.14,34.17 z m 65.42,-31.48 3.92,-5.45 -6.71,0.13 z"
       style="fill:#000000;fill-opacity:1;fill-rule:nonzero;stroke:none"
       id="path1013" /><path
       d="m 507.64,234.6 51.29,4.14 -0.08,1 -51.29,-4.14 z m 50.49,1.57 5.74,3.47 -6.22,2.51 z"
       style="fill:#000000;fill-opacity:1;fill-rule:nonzero;stroke:none"
       id="path1015" /><path
       d="m 507.79,235.54 51.65,-21.43 -0.38,-0.93 -51.65,21.44 z m 51.69,-18.74 4.39,-5.07 -6.69,-0.47 z"
       style="fill:#000000;fill-opacity:1;fill-rule:nonzero;stroke:none"
       id="path1017" /></g></svg>
