<?xml version="1.0" encoding="UTF-8" standalone="no"?>
<!-- Created with Inkscape (http://www.inkscape.org/) -->

<svg
   version="1.1"
   id="svg1165"
   xml:space="preserve"
   width="357.36581"
   height="184.40012"
   viewBox="0 0 357.36581 184.40012"
   xmlns="http://www.w3.org/2000/svg"
   xmlns:svg="http://www.w3.org/2000/svg"><defs
     id="defs1169"><clipPath
       clipPathUnits="userSpaceOnUse"
       id="clipPath1179"><path
         d="M 0,1.2207e-4 H 960 V 540.00012 H 0 Z"
         clip-rule="evenodd"
         id="path1177" /></clipPath><clipPath
       clipPathUnits="userSpaceOnUse"
       id="clipPath1191"><path
         d="M 1.4305e-5,0 H 960.00001 V 540 H 1.4305e-5 Z"
         clip-rule="evenodd"
         id="path1189" /></clipPath><clipPath
       clipPathUnits="userSpaceOnUse"
       id="clipPath1205"><path
         d="M 1.4305e-5,0 H 960.00001 V 540 H 1.4305e-5 Z"
         clip-rule="evenodd"
         id="path1203" /></clipPath><clipPath
       clipPathUnits="userSpaceOnUse"
       id="clipPath1219"><path
         d="M 1.4305e-5,0 H 960.00001 V 540 H 1.4305e-5 Z"
         clip-rule="evenodd"
         id="path1217" /></clipPath><clipPath
       clipPathUnits="userSpaceOnUse"
       id="clipPath1231"><path
         d="M 1.4305e-5,0 H 960.00001 V 540 H 1.4305e-5 Z"
         clip-rule="evenodd"
         id="path1229" /></clipPath><clipPath
       clipPathUnits="userSpaceOnUse"
       id="clipPath1243"><path
         d="M 1.4305e-5,0 H 960.00001 V 540 H 1.4305e-5 Z"
         clip-rule="evenodd"
         id="path1241" /></clipPath><clipPath
       clipPathUnits="userSpaceOnUse"
       id="clipPath1257"><path
         d="M 1.4305e-5,0 H 960.00001 V 540 H 1.4305e-5 Z"
         clip-rule="evenodd"
         id="path1255" /></clipPath><clipPath
       clipPathUnits="userSpaceOnUse"
       id="clipPath1269"><path
         d="M 1.4305e-5,0 H 960.00001 V 540 H 1.4305e-5 Z"
         clip-rule="evenodd"
         id="path1267" /></clipPath><clipPath
       clipPathUnits="userSpaceOnUse"
       id="clipPath1281"><path
         d="M 1.4305e-5,0 H 960.00001 V 540 H 1.4305e-5 Z"
         clip-rule="evenodd"
         id="path1279" /></clipPath><clipPath
       clipPathUnits="userSpaceOnUse"
       id="clipPath1293"><path
         d="M 1.4305e-5,0 H 960.00001 V 540 H 1.4305e-5 Z"
         clip-rule="evenodd"
         id="path1291" /></clipPath><clipPath
       clipPathUnits="userSpaceOnUse"
       id="clipPath1313"><path
         d="M 1.4305e-5,0 H 960.00001 V 540 H 1.4305e-5 Z"
         clip-rule="evenodd"
         id="path1311" /></clipPath><clipPath
       clipPathUnits="userSpaceOnUse"
       id="clipPath1327"><path
         d="M 1.4305e-5,0 H 960.00001 V 540 H 1.4305e-5 Z"
         clip-rule="evenodd"
         id="path1325" /></clipPath><clipPath
       clipPathUnits="userSpaceOnUse"
       id="clipPath1339"><path
         d="M 1.4305e-5,0 H 960.00001 V 540 H 1.4305e-5 Z"
         clip-rule="evenodd"
         id="path1337" /></clipPath><clipPath
       clipPathUnits="userSpaceOnUse"
       id="clipPath1351"><path
         d="M 1.4305e-5,0 H 960.00001 V 540 H 1.4305e-5 Z"
         clip-rule="evenodd"
         id="path1349" /></clipPath><clipPath
       clipPathUnits="userSpaceOnUse"
       id="clipPath1363"><path
         d="M 1.4305e-5,0 H 960.00001 V 540 H 1.4305e-5 Z"
         clip-rule="evenodd"
         id="path1361" /></clipPath><clipPath
       clipPathUnits="userSpaceOnUse"
       id="clipPath1375"><path
         d="M 1.4305e-5,0 H 960.00001 V 540 H 1.4305e-5 Z"
         clip-rule="evenodd"
         id="path1373" /></clipPath><clipPath
       clipPathUnits="userSpaceOnUse"
       id="clipPath1397"><path
         d="M 1.4305e-5,0 H 960.00001 V 540 H 1.4305e-5 Z"
         clip-rule="evenodd"
         id="path1395" /></clipPath><clipPath
       clipPathUnits="userSpaceOnUse"
       id="clipPath1409"><path
         d="M 1.4305e-5,0 H 960.00001 V 540 H 1.4305e-5 Z"
         clip-rule="evenodd"
         id="path1407" /></clipPath><clipPath
       clipPathUnits="userSpaceOnUse"
       id="clipPath1421"><path
         d="M 1.4305e-5,0 H 960.00001 V 540 H 1.4305e-5 Z"
         clip-rule="evenodd"
         id="path1419" /></clipPath><clipPath
       clipPathUnits="userSpaceOnUse"
       id="clipPath1433"><path
         d="M 1.4305e-5,0 H 960.00001 V 540 H 1.4305e-5 Z"
         clip-rule="evenodd"
         id="path1431" /></clipPath><clipPath
       clipPathUnits="userSpaceOnUse"
       id="clipPath1445"><path
         d="M 1.4305e-5,0 H 960.00001 V 540 H 1.4305e-5 Z"
         clip-rule="evenodd"
         id="path1443" /></clipPath></defs><g
     id="g1171"
     transform="matrix(1.3333333,0,0,-1.3333333,-434.15916,476.41082)"><path
       d="m 373.24,346.57 -13.71,-12.39 0.67,-0.74 13.71,12.39 z m -14.64,-9.87 -2.44,-6.25 6.46,1.8 z"
       style="fill:#000000;fill-opacity:1;fill-rule:nonzero;stroke:none"
       id="path1183" /><g
       id="g1185"><g
         id="g1187"
         clip-path="url(#clipPath1191)"><text
           transform="matrix(1,0,0,-1,374.54,350.23)"
           style="font-variant:normal;font-weight:normal;font-size:12px;font-family:'宋体';-inkscape-font-specification:'宋体';writing-mode:lr-tb;fill:#000000;fill-opacity:1;fill-rule:nonzero;stroke:none"
           id="text1195"><tspan
             x="0"
             y="0"
             id="tspan1193">＋</tspan></text></g></g><path
       d="M 345.17,316.41 334.89,305 l 0.75,-0.67 10.27,11.42 z m -11.47,-8.99 -1.78,-6.47 6.24,2.46 z"
       style="fill:#000000;fill-opacity:1;fill-rule:nonzero;stroke:none"
       id="path1197" /><g
       id="g1199"><g
         id="g1201"
         clip-path="url(#clipPath1205)"><text
           transform="matrix(1,0,0,-1,344.88,318.31)"
           style="font-variant:normal;font-weight:normal;font-size:12px;font-family:'宋体';-inkscape-font-specification:'宋体';writing-mode:lr-tb;fill:#000000;fill-opacity:1;fill-rule:nonzero;stroke:none"
           id="text1209"><tspan
             x="0"
             y="0"
             id="tspan1207">×</tspan></text></g></g><path
       d="m 385.54,346.69 13.71,-12.52 -0.68,-0.74 -13.71,12.52 z m 14.66,-10 2.4,-6.26 -6.45,1.83 z"
       style="fill:#000000;fill-opacity:1;fill-rule:nonzero;stroke:none"
       id="path1211" /><g
       id="g1213"><g
         id="g1215"
         clip-path="url(#clipPath1219)"><text
           transform="matrix(1,0,0,-1,399.48,318.72)"
           style="font-variant:normal;font-weight:normal;font-size:12px;font-family:'宋体';-inkscape-font-specification:'宋体';writing-mode:lr-tb;fill:#000000;fill-opacity:1;fill-rule:nonzero;stroke:none"
           id="text1223"><tspan
             x="0"
             y="0"
             id="tspan1221">×</tspan></text></g></g><g
       id="g1225"><g
         id="g1227"
         clip-path="url(#clipPath1231)"><text
           transform="matrix(1,0,0,-1,325.01,286.78)"
           style="font-variant:normal;font-weight:normal;font-size:12px;font-family:Calibri;-inkscape-font-specification:Calibri;writing-mode:lr-tb;fill:#000000;fill-opacity:1;fill-rule:nonzero;stroke:none"
           id="text1235"><tspan
             x="0"
             y="0"
             id="tspan1233">a</tspan></text></g></g><g
       id="g1237"><g
         id="g1239"
         clip-path="url(#clipPath1243)"><text
           transform="matrix(1,0,0,-1,364.97,286.78)"
           style="font-variant:normal;font-weight:normal;font-size:12px;font-family:Calibri;-inkscape-font-specification:Calibri;writing-mode:lr-tb;fill:#000000;fill-opacity:1;fill-rule:nonzero;stroke:none"
           id="text1247"><tspan
             x="0"
             y="0"
             id="tspan1245">5</tspan></text></g></g><path
       d="m 353.18,315.93 9.73,-11.06 -0.75,-0.66 -9.74,11.06 z m 10.94,-8.66 1.72,-6.48 -6.22,2.52 z"
       style="fill:#000000;fill-opacity:1;fill-rule:nonzero;stroke:none"
       id="path1249" /><g
       id="g1251"><g
         id="g1253"
         clip-path="url(#clipPath1257)"><text
           transform="matrix(1,0,0,-1,384.1,287.06)"
           style="font-variant:normal;font-weight:normal;font-size:12px;font-family:'宋体';-inkscape-font-specification:'宋体';writing-mode:lr-tb;fill:#000000;fill-opacity:1;fill-rule:nonzero;stroke:none"
           id="text1261"><tspan
             x="0"
             y="0"
             id="tspan1259">×</tspan></text></g></g><g
       id="g1263"><g
         id="g1265"
         clip-path="url(#clipPath1269)"><text
           transform="matrix(1,0,0,-1,418.46,288.46)"
           style="font-variant:normal;font-weight:normal;font-size:12px;font-family:Calibri;-inkscape-font-specification:Calibri;writing-mode:lr-tb;fill:#000000;fill-opacity:1;fill-rule:nonzero;stroke:none"
           id="text1273"><tspan
             x="0"
             y="0"
             id="tspan1271">b</tspan></text></g></g><g
       id="g1275"><g
         id="g1277"
         clip-path="url(#clipPath1281)"><text
           transform="matrix(1,0,0,-1,366.65,253.85)"
           style="font-variant:normal;font-weight:normal;font-size:12px;font-family:Calibri;-inkscape-font-specification:Calibri;writing-mode:lr-tb;fill:#000000;fill-opacity:1;fill-rule:nonzero;stroke:none"
           id="text1285"><tspan
             x="0"
             y="0"
             id="tspan1283">a</tspan></text></g></g><g
       id="g1287"><g
         id="g1289"
         clip-path="url(#clipPath1293)"><text
           transform="matrix(1,0,0,-1,403.94,253.85)"
           style="font-variant:normal;font-weight:normal;font-size:12px;font-family:Calibri;-inkscape-font-specification:Calibri;writing-mode:lr-tb;fill:#000000;fill-opacity:1;fill-rule:nonzero;stroke:none"
           id="text1297"><tspan
             x="0"
             y="0"
             id="tspan1295">5</tspan></text></g></g><path
       d="m 403.13,315.93 -10.28,-11.41 0.75,-0.67 10.27,11.42 z m -11.47,-8.99 -1.78,-6.47 6.24,2.46 z"
       style="fill:#000000;fill-opacity:1;fill-rule:nonzero;stroke:none"
       id="path1299" /><path
       d="m 410.66,315.93 9.73,-11.06 -0.75,-0.66 -9.74,11.06 z m 10.94,-8.66 1.72,-6.48 -6.22,2.52 z"
       style="fill:#000000;fill-opacity:1;fill-rule:nonzero;stroke:none"
       id="path1301" /><path
       d="m 385.73,282.45 -10.28,-11.41 0.75,-0.67 10.27,11.42 z m -11.47,-8.99 -1.78,-6.47 6.24,2.46 z"
       style="fill:#000000;fill-opacity:1;fill-rule:nonzero;stroke:none"
       id="path1303" /><path
       d="m 393.74,282.09 9.73,-11.06 -0.75,-0.66 -9.74,11.06 z m 10.94,-8.66 1.71,-6.48 -6.21,2.52 z"
       style="fill:#000000;fill-opacity:1;fill-rule:nonzero;stroke:none"
       id="path1305" /><g
       id="g1307"><g
         id="g1309"
         clip-path="url(#clipPath1313)"><text
           transform="matrix(1,0,0,-1,538.87,350.23)"
           style="font-variant:normal;font-weight:normal;font-size:12px;font-family:'宋体';-inkscape-font-specification:'宋体';writing-mode:lr-tb;fill:#000000;fill-opacity:1;fill-rule:nonzero;stroke:none"
           id="text1317"><tspan
             x="0"
             y="0"
             id="tspan1315">＋</tspan></text></g></g><path
       d="m 553.9,346.69 13.71,-12.52 -0.68,-0.74 -13.71,12.52 z m 14.66,-10 2.4,-6.26 -6.45,1.83 z"
       style="fill:#000000;fill-opacity:1;fill-rule:nonzero;stroke:none"
       id="path1319" /><g
       id="g1321"><g
         id="g1323"
         clip-path="url(#clipPath1327)"><text
           transform="matrix(1,0,0,-1,570,317.95)"
           style="font-variant:normal;font-weight:normal;font-size:12.024px;font-family:'宋体';-inkscape-font-specification:'宋体';writing-mode:lr-tb;fill:#000000;fill-opacity:1;fill-rule:nonzero;stroke:none"
           id="text1331"><tspan
             x="0"
             y="0"
             id="tspan1329">×</tspan></text></g></g><g
       id="g1333"><g
         id="g1335"
         clip-path="url(#clipPath1339)"><text
           transform="matrix(1,0,0,-1,540.02,288.82)"
           style="font-variant:normal;font-weight:normal;font-size:12.024px;font-family:'宋体';-inkscape-font-specification:'宋体';writing-mode:lr-tb;fill:#000000;fill-opacity:1;fill-rule:nonzero;stroke:none"
           id="text1343"><tspan
             x="0"
             y="0"
             id="tspan1341">×</tspan></text></g></g><g
       id="g1345"><g
         id="g1347"
         clip-path="url(#clipPath1351)"><text
           transform="matrix(1,0,0,-1,586.8,288.46)"
           style="font-variant:normal;font-weight:normal;font-size:12px;font-family:Calibri;-inkscape-font-specification:Calibri;writing-mode:lr-tb;fill:#000000;fill-opacity:1;fill-rule:nonzero;stroke:none"
           id="text1355"><tspan
             x="0"
             y="0"
             id="tspan1353">b</tspan></text></g></g><g
       id="g1357"><g
         id="g1359"
         clip-path="url(#clipPath1363)"><text
           transform="matrix(1,0,0,-1,524.54,253.9)"
           style="font-variant:normal;font-weight:normal;font-size:12px;font-family:Calibri;-inkscape-font-specification:Calibri;writing-mode:lr-tb;fill:#000000;fill-opacity:1;fill-rule:nonzero;stroke:none"
           id="text1367"><tspan
             x="0"
             y="0"
             id="tspan1365">a</tspan></text></g></g><g
       id="g1369"><g
         id="g1371"
         clip-path="url(#clipPath1375)"><text
           transform="matrix(1,0,0,-1,561.84,253.9)"
           style="font-variant:normal;font-weight:normal;font-size:12px;font-family:Calibri;-inkscape-font-specification:Calibri;writing-mode:lr-tb;fill:#000000;fill-opacity:1;fill-rule:nonzero;stroke:none"
           id="text1379"><tspan
             x="0"
             y="0"
             id="tspan1377">5</tspan></text></g></g><path
       d="m 570.89,316.77 -10.28,-11.41 0.75,-0.67 10.27,11.42 z m -11.47,-8.99 -1.78,-6.47 6.24,2.46 z"
       style="fill:#000000;fill-opacity:1;fill-rule:nonzero;stroke:none"
       id="path1381" /><path
       d="m 579.02,315.93 9.73,-11.06 -0.75,-0.66 -9.74,11.06 z m 10.94,-8.66 1.71,-6.48 -6.21,2.52 z"
       style="fill:#000000;fill-opacity:1;fill-rule:nonzero;stroke:none"
       id="path1383" /><path
       d="m 543.53,282.57 -10.28,-11.41 0.75,-0.67 10.27,11.42 z m -11.47,-8.99 -1.78,-6.47 6.24,2.46 z"
       style="fill:#000000;fill-opacity:1;fill-rule:nonzero;stroke:none"
       id="path1385" /><path
       d="m 551.66,282.21 9.73,-11.06 -0.75,-0.66 -9.74,11.06 z m 10.94,-8.66 1.71,-6.48 -6.21,2.52 z"
       style="fill:#000000;fill-opacity:1;fill-rule:nonzero;stroke:none"
       id="path1387" /><path
       d="m 544.46,343.57 0.51,-34.6 -1,-0.02 -0.51,34.6 z m 2.99,-33.57 -2.91,-6.04 -3.08,5.96 z"
       style="fill:#000000;fill-opacity:1;fill-rule:nonzero;stroke:none"
       id="path1389" /><g
       id="g1391"><g
         id="g1393"
         clip-path="url(#clipPath1397)"><text
           transform="matrix(1,0,0,-1,351.26,220.25)"
           style="font-variant:normal;font-weight:normal;font-size:11.04px;font-family:Calibri;-inkscape-font-specification:Calibri;writing-mode:lr-tb;fill:#000000;fill-opacity:1;fill-rule:nonzero;stroke:none"
           id="text1401"><tspan
             x="0 6.3599601 11.39512"
             y="0"
             id="tspan1399">AST</tspan></text></g></g><g
       id="g1403"><g
         id="g1405"
         clip-path="url(#clipPath1409)"><text
           transform="matrix(1,0,0,-1,368.06,220.25)"
           style="font-variant:normal;font-weight:normal;font-size:11.04px;font-family:'宋体';-inkscape-font-specification:'宋体';writing-mode:lr-tb;fill:#000000;fill-opacity:1;fill-rule:nonzero;stroke:none"
           id="text1413"><tspan
             x="0 11.04 22.08 33.119999 44.16"
             y="0"
             id="tspan1411">抽象语法树</tspan></text></g></g><g
       id="g1415"><g
         id="g1417"
         clip-path="url(#clipPath1421)"><text
           transform="matrix(1,0,0,-1,506.88,219.84)"
           style="font-variant:normal;font-weight:normal;font-size:11.064px;font-family:Calibri;-inkscape-font-specification:Calibri;writing-mode:lr-tb;fill:#000000;fill-opacity:1;fill-rule:nonzero;stroke:none"
           id="text1425"><tspan
             x="0 6.826488 13.188288"
             y="0"
             id="tspan1423">DAG</tspan></text></g></g><g
       id="g1427"><g
         id="g1429"
         clip-path="url(#clipPath1433)"><text
           transform="matrix(1,0,0,-1,527.04,219.84)"
           style="font-variant:normal;font-weight:normal;font-size:11.064px;font-family:'宋体';-inkscape-font-specification:'宋体';writing-mode:lr-tb;fill:#000000;fill-opacity:1;fill-rule:nonzero;stroke:none"
           id="text1437"><tspan
             x="0"
             y="0"
             id="tspan1435">有</tspan></text></g></g><g
       id="g1439"><g
         id="g1441"
         clip-path="url(#clipPath1445)"><text
           transform="matrix(1,0,0,-1,538.1,219.84)"
           style="font-variant:normal;font-weight:normal;font-size:11.064px;font-family:'宋体';-inkscape-font-specification:'宋体';writing-mode:lr-tb;fill:#000000;fill-opacity:1;fill-rule:nonzero;stroke:none"
           id="text1449"><tspan
             x="0 11.04 22.08 33.119999"
             y="0"
             id="tspan1447">向无环图</tspan></text></g></g></g></svg>
