<?xml version="1.0" encoding="UTF-8" standalone="no"?>
<!-- Created with Inkscape (http://www.inkscape.org/) -->

<svg
   version="1.1"
   id="svg25"
   xml:space="preserve"
   width="871.03998"
   height="274.07776"
   viewBox="0 0 871.03998 274.07776"
   xmlns="http://www.w3.org/2000/svg"
   xmlns:svg="http://www.w3.org/2000/svg"><defs
     id="defs29"><clipPath
       clipPathUnits="userSpaceOnUse"
       id="clipPath39"><path
         d="M 0,1.2207e-4 H 960 V 540.00012 H 0 Z"
         clip-rule="evenodd"
         id="path37" /></clipPath><clipPath
       clipPathUnits="userSpaceOnUse"
       id="clipPath53"><path
         d="M 1.4305e-5,0 H 960.00001 V 540 H 1.4305e-5 Z"
         clip-rule="evenodd"
         id="path51" /></clipPath><clipPath
       clipPathUnits="userSpaceOnUse"
       id="clipPath65"><path
         d="M 1.4305e-5,0 H 960.00001 V 540 H 1.4305e-5 Z"
         clip-rule="evenodd"
         id="path63" /></clipPath><clipPath
       clipPathUnits="userSpaceOnUse"
       id="clipPath77"><path
         d="M 1.4305e-5,0 H 960.00001 V 540 H 1.4305e-5 Z"
         clip-rule="evenodd"
         id="path75" /></clipPath><clipPath
       clipPathUnits="userSpaceOnUse"
       id="clipPath89"><path
         d="M 1.4305e-5,0 H 960.00001 V 540 H 1.4305e-5 Z"
         clip-rule="evenodd"
         id="path87" /></clipPath><clipPath
       clipPathUnits="userSpaceOnUse"
       id="clipPath101"><path
         d="M 1.4305e-5,0 H 960.00001 V 540 H 1.4305e-5 Z"
         clip-rule="evenodd"
         id="path99" /></clipPath><clipPath
       clipPathUnits="userSpaceOnUse"
       id="clipPath121"><path
         d="M 1.4305e-5,0 H 960.00001 V 540 H 1.4305e-5 Z"
         clip-rule="evenodd"
         id="path119" /></clipPath><clipPath
       clipPathUnits="userSpaceOnUse"
       id="clipPath133"><path
         d="M 1.4305e-5,0 H 960.00001 V 540 H 1.4305e-5 Z"
         clip-rule="evenodd"
         id="path131" /></clipPath><clipPath
       clipPathUnits="userSpaceOnUse"
       id="clipPath145"><path
         d="M 1.4305e-5,0 H 960.00001 V 540 H 1.4305e-5 Z"
         clip-rule="evenodd"
         id="path143" /></clipPath><clipPath
       clipPathUnits="userSpaceOnUse"
       id="clipPath157"><path
         d="M 1.4305e-5,0 H 960.00001 V 540 H 1.4305e-5 Z"
         clip-rule="evenodd"
         id="path155" /></clipPath><clipPath
       clipPathUnits="userSpaceOnUse"
       id="clipPath169"><path
         d="m 562.56,350.52 h 65.64 v 117.6 h -65.64 z"
         clip-rule="evenodd"
         id="path167" /></clipPath><clipPath
       clipPathUnits="userSpaceOnUse"
       id="clipPath181"><path
         d="m 562.56,350.52 h 65.64 v 117.6 h -65.64 z"
         clip-rule="evenodd"
         id="path179" /></clipPath><clipPath
       clipPathUnits="userSpaceOnUse"
       id="clipPath193"><path
         d="M 1.4305e-5,0 H 960.00001 V 540 H 1.4305e-5 Z"
         clip-rule="evenodd"
         id="path191" /></clipPath><clipPath
       clipPathUnits="userSpaceOnUse"
       id="clipPath205"><path
         d="M 1.4305e-5,0 H 960.00001 V 540 H 1.4305e-5 Z"
         clip-rule="evenodd"
         id="path203" /></clipPath><clipPath
       clipPathUnits="userSpaceOnUse"
       id="clipPath217"><path
         d="M 1.4305e-5,0 H 960.00001 V 540 H 1.4305e-5 Z"
         clip-rule="evenodd"
         id="path215" /></clipPath><clipPath
       clipPathUnits="userSpaceOnUse"
       id="clipPath229"><path
         d="M 1.4305e-5,0 H 960.00001 V 540 H 1.4305e-5 Z"
         clip-rule="evenodd"
         id="path227" /></clipPath><clipPath
       clipPathUnits="userSpaceOnUse"
       id="clipPath241"><path
         d="M 1.4305e-5,0 H 960.00001 V 540 H 1.4305e-5 Z"
         clip-rule="evenodd"
         id="path239" /></clipPath><clipPath
       clipPathUnits="userSpaceOnUse"
       id="clipPath253"><path
         d="M 1.4305e-5,0 H 960.00001 V 540 H 1.4305e-5 Z"
         clip-rule="evenodd"
         id="path251" /></clipPath><clipPath
       clipPathUnits="userSpaceOnUse"
       id="clipPath265"><path
         d="M 1.4305e-5,0 H 960.00001 V 540 H 1.4305e-5 Z"
         clip-rule="evenodd"
         id="path263" /></clipPath><clipPath
       clipPathUnits="userSpaceOnUse"
       id="clipPath277"><path
         d="M 1.4305e-5,0 H 960.00001 V 540 H 1.4305e-5 Z"
         clip-rule="evenodd"
         id="path275" /></clipPath><clipPath
       clipPathUnits="userSpaceOnUse"
       id="clipPath289"><path
         d="M 1.4305e-5,0 H 960.00001 V 540 H 1.4305e-5 Z"
         clip-rule="evenodd"
         id="path287" /></clipPath><clipPath
       clipPathUnits="userSpaceOnUse"
       id="clipPath301"><path
         d="M 1.4305e-5,0 H 960.00001 V 540 H 1.4305e-5 Z"
         clip-rule="evenodd"
         id="path299" /></clipPath><clipPath
       clipPathUnits="userSpaceOnUse"
       id="clipPath313"><path
         d="M 1.4305e-5,0 H 960.00001 V 540 H 1.4305e-5 Z"
         clip-rule="evenodd"
         id="path311" /></clipPath><clipPath
       clipPathUnits="userSpaceOnUse"
       id="clipPath325"><path
         d="M 1.4305e-5,0 H 960.00001 V 540 H 1.4305e-5 Z"
         clip-rule="evenodd"
         id="path323" /></clipPath><clipPath
       clipPathUnits="userSpaceOnUse"
       id="clipPath337"><path
         d="M 1.4305e-5,0 H 960.00001 V 540 H 1.4305e-5 Z"
         clip-rule="evenodd"
         id="path335" /></clipPath><clipPath
       clipPathUnits="userSpaceOnUse"
       id="clipPath349"><path
         d="M 1.4305e-5,0 H 960.00001 V 540 H 1.4305e-5 Z"
         clip-rule="evenodd"
         id="path347" /></clipPath><clipPath
       clipPathUnits="userSpaceOnUse"
       id="clipPath361"><path
         d="M 1.4305e-5,0 H 960.00001 V 540 H 1.4305e-5 Z"
         clip-rule="evenodd"
         id="path359" /></clipPath><clipPath
       clipPathUnits="userSpaceOnUse"
       id="clipPath373"><path
         d="M 1.4305e-5,0 H 960.00001 V 540 H 1.4305e-5 Z"
         clip-rule="evenodd"
         id="path371" /></clipPath><clipPath
       clipPathUnits="userSpaceOnUse"
       id="clipPath385"><path
         d="M 1.4305e-5,0 H 960.00001 V 540 H 1.4305e-5 Z"
         clip-rule="evenodd"
         id="path383" /></clipPath><clipPath
       clipPathUnits="userSpaceOnUse"
       id="clipPath401"><path
         d="M 1.4305e-5,0 H 960.00001 V 540 H 1.4305e-5 Z"
         clip-rule="evenodd"
         id="path399" /></clipPath><clipPath
       clipPathUnits="userSpaceOnUse"
       id="clipPath413"><path
         d="M 1.4305e-5,0 H 960.00001 V 540 H 1.4305e-5 Z"
         clip-rule="evenodd"
         id="path411" /></clipPath><clipPath
       clipPathUnits="userSpaceOnUse"
       id="clipPath425"><path
         d="M 1.4305e-5,0 H 960.00001 V 540 H 1.4305e-5 Z"
         clip-rule="evenodd"
         id="path423" /></clipPath><clipPath
       clipPathUnits="userSpaceOnUse"
       id="clipPath437"><path
         d="M 1.4305e-5,0 H 960.00001 V 540 H 1.4305e-5 Z"
         clip-rule="evenodd"
         id="path435" /></clipPath><clipPath
       clipPathUnits="userSpaceOnUse"
       id="clipPath449"><path
         d="M 1.4305e-5,0 H 960.00001 V 540 H 1.4305e-5 Z"
         clip-rule="evenodd"
         id="path447" /></clipPath><clipPath
       clipPathUnits="userSpaceOnUse"
       id="clipPath461"><path
         d="M 1.4305e-5,0 H 960.00001 V 540 H 1.4305e-5 Z"
         clip-rule="evenodd"
         id="path459" /></clipPath><clipPath
       clipPathUnits="userSpaceOnUse"
       id="clipPath473"><path
         d="M 1.4305e-5,0 H 960.00001 V 540 H 1.4305e-5 Z"
         clip-rule="evenodd"
         id="path471" /></clipPath><clipPath
       clipPathUnits="userSpaceOnUse"
       id="clipPath485"><path
         d="M 1.4305e-5,0 H 960.00001 V 540 H 1.4305e-5 Z"
         clip-rule="evenodd"
         id="path483" /></clipPath><clipPath
       clipPathUnits="userSpaceOnUse"
       id="clipPath497"><path
         d="M 1.4305e-5,0 H 960.00001 V 540 H 1.4305e-5 Z"
         clip-rule="evenodd"
         id="path495" /></clipPath><clipPath
       clipPathUnits="userSpaceOnUse"
       id="clipPath509"><path
         d="M 1.4305e-5,0 H 960.00001 V 540 H 1.4305e-5 Z"
         clip-rule="evenodd"
         id="path507" /></clipPath><clipPath
       clipPathUnits="userSpaceOnUse"
       id="clipPath521"><path
         d="M 1.4305e-5,0 H 960.00001 V 540 H 1.4305e-5 Z"
         clip-rule="evenodd"
         id="path519" /></clipPath><clipPath
       clipPathUnits="userSpaceOnUse"
       id="clipPath533"><path
         d="M 1.4305e-5,0 H 960.00001 V 540 H 1.4305e-5 Z"
         clip-rule="evenodd"
         id="path531" /></clipPath><clipPath
       clipPathUnits="userSpaceOnUse"
       id="clipPath545"><path
         d="M 1.4305e-5,0 H 960.00001 V 540 H 1.4305e-5 Z"
         clip-rule="evenodd"
         id="path543" /></clipPath><clipPath
       clipPathUnits="userSpaceOnUse"
       id="clipPath557"><path
         d="M 1.4305e-5,0 H 960.00001 V 540 H 1.4305e-5 Z"
         clip-rule="evenodd"
         id="path555" /></clipPath><clipPath
       clipPathUnits="userSpaceOnUse"
       id="clipPath569"><path
         d="M 1.4305e-5,0 H 960.00001 V 540 H 1.4305e-5 Z"
         clip-rule="evenodd"
         id="path567" /></clipPath><clipPath
       clipPathUnits="userSpaceOnUse"
       id="clipPath581"><path
         d="M 1.4305e-5,0 H 960.00001 V 540 H 1.4305e-5 Z"
         clip-rule="evenodd"
         id="path579" /></clipPath><clipPath
       clipPathUnits="userSpaceOnUse"
       id="clipPath593"><path
         d="M 1.4305e-5,0 H 960.00001 V 540 H 1.4305e-5 Z"
         clip-rule="evenodd"
         id="path591" /></clipPath><clipPath
       clipPathUnits="userSpaceOnUse"
       id="clipPath605"><path
         d="M 1.4305e-5,0 H 960.00001 V 540 H 1.4305e-5 Z"
         clip-rule="evenodd"
         id="path603" /></clipPath><clipPath
       clipPathUnits="userSpaceOnUse"
       id="clipPath617"><path
         d="M 1.4305e-5,0 H 960.00001 V 540 H 1.4305e-5 Z"
         clip-rule="evenodd"
         id="path615" /></clipPath><clipPath
       clipPathUnits="userSpaceOnUse"
       id="clipPath629"><path
         d="M 1.4305e-5,0 H 960.00001 V 540 H 1.4305e-5 Z"
         clip-rule="evenodd"
         id="path627" /></clipPath><clipPath
       clipPathUnits="userSpaceOnUse"
       id="clipPath641"><path
         d="M 1.4305e-5,0 H 960.00001 V 540 H 1.4305e-5 Z"
         clip-rule="evenodd"
         id="path639" /></clipPath><clipPath
       clipPathUnits="userSpaceOnUse"
       id="clipPath653"><path
         d="M 1.4305e-5,0 H 960.00001 V 540 H 1.4305e-5 Z"
         clip-rule="evenodd"
         id="path651" /></clipPath></defs><g
     id="g31"
     transform="matrix(1.3333333,0,0,-1.3333333,-182.08,565.27999)"><path
       d="m 137.04,401.08 c 0,12.3 9.98,22.28 22.28,22.28 h 89.12 c 12.3,0 22.28,-9.98 22.28,-22.28 V 297.32 c 0,-12.3 -9.98,-22.28 -22.28,-22.28 h -89.12 c -12.3,0 -22.28,9.98 -22.28,22.28 z"
       style="fill:#ffffff;fill-opacity:1;fill-rule:evenodd;stroke:none"
       id="path43" /><path
       d="m 137.04,401.08 c 0,12.3 9.98,22.28 22.28,22.28 h 89.12 c 12.3,0 22.28,-9.98 22.28,-22.28 V 297.32 c 0,-12.3 -9.98,-22.28 -22.28,-22.28 h -89.12 c -12.3,0 -22.28,9.98 -22.28,22.28 z"
       style="fill:none;stroke:#000000;stroke-width:0.96;stroke-linecap:butt;stroke-linejoin:miter;stroke-miterlimit:10;stroke-dasharray:none;stroke-opacity:1"
       id="path45" /><g
       id="g47"><g
         id="g49"
         clip-path="url(#clipPath53)"><text
           transform="matrix(1,0,0,-1,167.28,386.38)"
           style="font-variant:normal;font-weight:normal;font-size:18px;font-family:Calibri;-inkscape-font-specification:Calibri;writing-mode:lr-tb;fill:#000000;fill-opacity:1;fill-rule:nonzero;stroke:none"
           id="text57"><tspan
             x="0 9.4499998 18.936001 25.974001 35.478001 39.653999"
             y="0"
             id="tspan55">push 5</tspan></text></g></g><g
       id="g59"><g
         id="g61"
         clip-path="url(#clipPath65)"><text
           transform="matrix(1,0,0,-1,167.28,364.78)"
           style="font-variant:normal;font-weight:normal;font-size:18px;font-family:Calibri;-inkscape-font-specification:Calibri;writing-mode:lr-tb;fill:#000000;fill-opacity:1;fill-rule:nonzero;stroke:none"
           id="text69"><tspan
             x="0 9.4499998 18.936001 25.974001 35.478001 39.653999"
             y="0"
             id="tspan67">push b</tspan></text></g></g><g
       id="g71"><g
         id="g73"
         clip-path="url(#clipPath77)"><text
           transform="matrix(1,0,0,-1,167.28,343.18)"
           style="font-variant:normal;font-weight:normal;font-size:18px;font-family:Calibri;-inkscape-font-specification:Calibri;writing-mode:lr-tb;fill:#000000;fill-opacity:1;fill-rule:nonzero;stroke:none"
           id="text81"><tspan
             x="0 14.382 23.832001 27.972 34.001999 38.034 47.484001 51.624001"
             y="0"
             id="tspan79">multiply</tspan></text></g></g><g
       id="g83"><g
         id="g85"
         clip-path="url(#clipPath89)"><text
           transform="matrix(1,0,0,-1,167.28,321.58)"
           style="font-variant:normal;font-weight:normal;font-size:18.024px;font-family:Calibri;-inkscape-font-specification:Calibri;writing-mode:lr-tb;fill:#000000;fill-opacity:1;fill-rule:nonzero;stroke:none"
           id="text93"><tspan
             x="0 9.4625998 18.9252 26.026655 35.489258 39.688847"
             y="0"
             id="tspan91">push a</tspan></text></g></g><g
       id="g95"><g
         id="g97"
         clip-path="url(#clipPath101)"><text
           transform="matrix(1,0,0,-1,167.28,299.95)"
           style="font-variant:normal;font-weight:normal;font-size:18px;font-family:Calibri;-inkscape-font-specification:Calibri;writing-mode:lr-tb;fill:#000000;fill-opacity:1;fill-rule:nonzero;stroke:none"
           id="text105"><tspan
             x="0 7.0380001 16.542 25.902 32.742001 38.771999 44.622002 53.243999 60.858002"
             y="0"
             id="tspan103">substract</tspan></text></g></g><path
       d="M 388.54,421.84 V 274.53"
       style="fill:none;stroke:#000000;stroke-width:1;stroke-linecap:butt;stroke-linejoin:round;stroke-miterlimit:10;stroke-dasharray:none;stroke-opacity:1"
       id="path107" /><path
       d="M 628.19,421.84 V 274.53"
       style="fill:none;stroke:#000000;stroke-width:1;stroke-linecap:butt;stroke-linejoin:round;stroke-miterlimit:10;stroke-dasharray:none;stroke-opacity:1"
       id="path109" /><path
       d="M 388.04,421.34 H 628.69"
       style="fill:none;stroke:#000000;stroke-width:1;stroke-linecap:butt;stroke-linejoin:round;stroke-miterlimit:10;stroke-dasharray:none;stroke-opacity:1"
       id="path111" /><path
       d="M 388.04,275.03 H 628.69"
       style="fill:none;stroke:#000000;stroke-width:1;stroke-linecap:butt;stroke-linejoin:round;stroke-miterlimit:10;stroke-dasharray:none;stroke-opacity:1"
       id="path113" /><g
       id="g115"><g
         id="g117"
         clip-path="url(#clipPath121)"><text
           transform="matrix(1,0,0,-1,398.69,404.4)"
           style="font-variant:normal;font-weight:normal;font-size:14.064px;font-family:'宋体';-inkscape-font-specification:'宋体';writing-mode:lr-tb;fill:#000000;fill-opacity:1;fill-rule:nonzero;stroke:none"
           id="text125"><tspan
             x="0 14.04"
             y="0"
             id="tspan123">目标</tspan></text></g></g><g
       id="g127"><g
         id="g129"
         clip-path="url(#clipPath133)"><text
           transform="matrix(1,0,0,-1,445.73,404.4)"
           style="font-variant:normal;font-weight:normal;font-size:14.064px;font-family:'宋体';-inkscape-font-specification:'宋体';writing-mode:lr-tb;fill:#000000;fill-opacity:1;fill-rule:nonzero;stroke:none"
           id="text137"><tspan
             x="0 14.04 28.08"
             y="0"
             id="tspan135">运算符</tspan></text></g></g><g
       id="g139"><g
         id="g141"
         clip-path="url(#clipPath145)"><text
           transform="matrix(1,0,0,-1,505.01,404.4)"
           style="font-variant:normal;font-weight:normal;font-size:14.064px;font-family:'宋体';-inkscape-font-specification:'宋体';writing-mode:lr-tb;fill:#000000;fill-opacity:1;fill-rule:nonzero;stroke:none"
           id="text149"><tspan
             x="0 14.04 28.08"
             y="0"
             id="tspan147">操作数</tspan></text></g></g><g
       id="g151"><g
         id="g153"
         clip-path="url(#clipPath157)"><text
           transform="matrix(1,0,0,-1,547.13,404.4)"
           style="font-variant:normal;font-weight:normal;font-size:14.064px;font-family:Calibri;-inkscape-font-specification:Calibri;writing-mode:lr-tb;fill:#000000;fill-opacity:1;fill-rule:nonzero;stroke:none"
           id="text161"><tspan
             x="0"
             y="0"
             id="tspan159">1</tspan></text></g></g><g
       id="g163"><g
         id="g165"
         clip-path="url(#clipPath169)"><text
           transform="matrix(1,0,0,-1,570.86,404.4)"
           style="font-variant:normal;font-weight:normal;font-size:14.064px;font-family:'宋体';-inkscape-font-specification:'宋体';writing-mode:lr-tb;fill:#000000;fill-opacity:1;fill-rule:nonzero;stroke:none"
           id="text173"><tspan
             x="0 14.04 28.08"
             y="0"
             id="tspan171">操作数</tspan></text></g></g><g
       id="g175"><g
         id="g177"
         clip-path="url(#clipPath181)"><text
           transform="matrix(1,0,0,-1,613.01,404.4)"
           style="font-variant:normal;font-weight:normal;font-size:14.064px;font-family:Calibri;-inkscape-font-specification:Calibri;writing-mode:lr-tb;fill:#000000;fill-opacity:1;fill-rule:nonzero;stroke:none"
           id="text185"><tspan
             x="0"
             y="0"
             id="tspan183">2</tspan></text></g></g><g
       id="g187"><g
         id="g189"
         clip-path="url(#clipPath193)"><text
           transform="matrix(1,0,0,-1,406.85,380.23)"
           style="font-variant:normal;font-weight:normal;font-size:14.04px;font-family:Calibri;-inkscape-font-specification:Calibri;writing-mode:lr-tb;fill:#000000;fill-opacity:1;fill-rule:nonzero;stroke:none"
           id="text197"><tspan
             x="0 4.6799998"
             y="0"
             id="tspan195">t1</tspan></text></g></g><g
       id="g199"><g
         id="g201"
         clip-path="url(#clipPath205)"><text
           transform="matrix(1,0,0,-1,460.37,380.23)"
           style="font-variant:normal;font-weight:normal;font-size:14.04px;font-family:Calibri;-inkscape-font-specification:Calibri;writing-mode:lr-tb;fill:#000000;fill-opacity:1;fill-rule:nonzero;stroke:none"
           id="text209"><tspan
             x="0"
             y="0"
             id="tspan207">←</tspan></text></g></g><g
       id="g211"><g
         id="g213"
         clip-path="url(#clipPath217)"><text
           transform="matrix(1,0,0,-1,526.01,380.23)"
           style="font-variant:normal;font-weight:normal;font-size:14.04px;font-family:Calibri;-inkscape-font-specification:Calibri;writing-mode:lr-tb;fill:#000000;fill-opacity:1;fill-rule:nonzero;stroke:none"
           id="text221"><tspan
             x="0"
             y="0"
             id="tspan219">5</tspan></text></g></g><g
       id="g223"><g
         id="g225"
         clip-path="url(#clipPath229)"><text
           transform="matrix(1,0,0,-1,406.85,355.85)"
           style="font-variant:normal;font-weight:normal;font-size:14.04px;font-family:Calibri;-inkscape-font-specification:Calibri;writing-mode:lr-tb;fill:#000000;fill-opacity:1;fill-rule:nonzero;stroke:none"
           id="text233"><tspan
             x="0 4.6799998"
             y="0"
             id="tspan231">t2</tspan></text></g></g><g
       id="g235"><g
         id="g237"
         clip-path="url(#clipPath241)"><text
           transform="matrix(1,0,0,-1,460.37,355.85)"
           style="font-variant:normal;font-weight:normal;font-size:14.04px;font-family:Calibri;-inkscape-font-specification:Calibri;writing-mode:lr-tb;fill:#000000;fill-opacity:1;fill-rule:nonzero;stroke:none"
           id="text245"><tspan
             x="0"
             y="0"
             id="tspan243">←</tspan></text></g></g><g
       id="g247"><g
         id="g249"
         clip-path="url(#clipPath253)"><text
           transform="matrix(1,0,0,-1,525.89,355.85)"
           style="font-variant:normal;font-weight:normal;font-size:14.04px;font-family:Calibri;-inkscape-font-specification:Calibri;writing-mode:lr-tb;fill:#000000;fill-opacity:1;fill-rule:nonzero;stroke:none"
           id="text257"><tspan
             x="0"
             y="0"
             id="tspan255">b</tspan></text></g></g><g
       id="g259"><g
         id="g261"
         clip-path="url(#clipPath265)"><text
           transform="matrix(1,0,0,-1,406.85,331.46)"
           style="font-variant:normal;font-weight:normal;font-size:14.064px;font-family:Calibri;-inkscape-font-specification:Calibri;writing-mode:lr-tb;fill:#000000;fill-opacity:1;fill-rule:nonzero;stroke:none"
           id="text269"><tspan
             x="0 4.6800399"
             y="0"
             id="tspan267">t3</tspan></text></g></g><g
       id="g271"><g
         id="g273"
         clip-path="url(#clipPath277)"><text
           transform="matrix(1,0,0,-1,459.77,331.22)"
           style="font-variant:normal;font-weight:normal;font-size:14.064px;font-family:'宋体';-inkscape-font-specification:'宋体';writing-mode:lr-tb;fill:#000000;fill-opacity:1;fill-rule:nonzero;stroke:none"
           id="text281"><tspan
             x="0"
             y="0"
             id="tspan279">×</tspan></text></g></g><g
       id="g283"><g
         id="g285"
         clip-path="url(#clipPath289)"><text
           transform="matrix(1,0,0,-1,523.73,331.46)"
           style="font-variant:normal;font-weight:normal;font-size:14.064px;font-family:Calibri;-inkscape-font-specification:Calibri;writing-mode:lr-tb;fill:#000000;fill-opacity:1;fill-rule:nonzero;stroke:none"
           id="text293"><tspan
             x="0 4.6800399"
             y="0"
             id="tspan291">t1</tspan></text></g></g><g
       id="g295"><g
         id="g297"
         clip-path="url(#clipPath301)"><text
           transform="matrix(1,0,0,-1,589.61,331.46)"
           style="font-variant:normal;font-weight:normal;font-size:14.064px;font-family:Calibri;-inkscape-font-specification:Calibri;writing-mode:lr-tb;fill:#000000;fill-opacity:1;fill-rule:nonzero;stroke:none"
           id="text305"><tspan
             x="0 4.6800399"
             y="0"
             id="tspan303">t2</tspan></text></g></g><g
       id="g307"><g
         id="g309"
         clip-path="url(#clipPath313)"><text
           transform="matrix(1,0,0,-1,406.85,307.06)"
           style="font-variant:normal;font-weight:normal;font-size:14.04px;font-family:Calibri;-inkscape-font-specification:Calibri;writing-mode:lr-tb;fill:#000000;fill-opacity:1;fill-rule:nonzero;stroke:none"
           id="text317"><tspan
             x="0 4.6799998"
             y="0"
             id="tspan315">t4</tspan></text></g></g><g
       id="g319"><g
         id="g321"
         clip-path="url(#clipPath325)"><text
           transform="matrix(1,0,0,-1,460.37,307.06)"
           style="font-variant:normal;font-weight:normal;font-size:14.04px;font-family:Calibri;-inkscape-font-specification:Calibri;writing-mode:lr-tb;fill:#000000;fill-opacity:1;fill-rule:nonzero;stroke:none"
           id="text329"><tspan
             x="0"
             y="0"
             id="tspan327">←</tspan></text></g></g><g
       id="g331"><g
         id="g333"
         clip-path="url(#clipPath337)"><text
           transform="matrix(1,0,0,-1,526.25,307.06)"
           style="font-variant:normal;font-weight:normal;font-size:14.04px;font-family:Calibri;-inkscape-font-specification:Calibri;writing-mode:lr-tb;fill:#000000;fill-opacity:1;fill-rule:nonzero;stroke:none"
           id="text341"><tspan
             x="0"
             y="0"
             id="tspan339">a</tspan></text></g></g><g
       id="g343"><g
         id="g345"
         clip-path="url(#clipPath349)"><text
           transform="matrix(1,0,0,-1,406.85,282.67)"
           style="font-variant:normal;font-weight:normal;font-size:14.04px;font-family:Calibri;-inkscape-font-specification:Calibri;writing-mode:lr-tb;fill:#000000;fill-opacity:1;fill-rule:nonzero;stroke:none"
           id="text353"><tspan
             x="0 4.6799998"
             y="0"
             id="tspan351">t5</tspan></text></g></g><g
       id="g355"><g
         id="g357"
         clip-path="url(#clipPath361)"><text
           transform="matrix(1,0,0,-1,464.57,282.67)"
           style="font-variant:normal;font-weight:normal;font-size:14.04px;font-family:Calibri;-inkscape-font-specification:Calibri;writing-mode:lr-tb;fill:#000000;fill-opacity:1;fill-rule:nonzero;stroke:none"
           id="text365"><tspan
             x="0"
             y="0"
             id="tspan363">-</tspan></text></g></g><g
       id="g367"><g
         id="g369"
         clip-path="url(#clipPath373)"><text
           transform="matrix(1,0,0,-1,523.73,282.67)"
           style="font-variant:normal;font-weight:normal;font-size:14.04px;font-family:Calibri;-inkscape-font-specification:Calibri;writing-mode:lr-tb;fill:#000000;fill-opacity:1;fill-rule:nonzero;stroke:none"
           id="text377"><tspan
             x="0 4.6799998"
             y="0"
             id="tspan375">t4</tspan></text></g></g><g
       id="g379"><g
         id="g381"
         clip-path="url(#clipPath385)"><text
           transform="matrix(1,0,0,-1,589.61,282.67)"
           style="font-variant:normal;font-weight:normal;font-size:14.04px;font-family:Calibri;-inkscape-font-specification:Calibri;writing-mode:lr-tb;fill:#000000;fill-opacity:1;fill-rule:nonzero;stroke:none"
           id="text389"><tspan
             x="0 4.6799998"
             y="0"
             id="tspan387">t3</tspan></text></g></g><path
       d="m 650.52,400.34 c 0,12.78 10.36,23.14 23.14,23.14 h 92.56 c 12.78,0 23.14,-10.36 23.14,-23.14 V 298.18 c 0,-12.78 -10.36,-23.14 -23.14,-23.14 h -92.56 c -12.78,0 -23.14,10.36 -23.14,23.14 z"
       style="fill:#ffffff;fill-opacity:1;fill-rule:evenodd;stroke:none"
       id="path391" /><path
       d="m 650.52,400.34 c 0,12.78 10.36,23.14 23.14,23.14 h 92.56 c 12.78,0 23.14,-10.36 23.14,-23.14 V 298.18 c 0,-12.78 -10.36,-23.14 -23.14,-23.14 h -92.56 c -12.78,0 -23.14,10.36 -23.14,23.14 z"
       style="fill:none;stroke:#000000;stroke-width:0.96;stroke-linecap:butt;stroke-linejoin:miter;stroke-miterlimit:8;stroke-dasharray:none;stroke-opacity:1"
       id="path393" /><g
       id="g395"><g
         id="g397"
         clip-path="url(#clipPath401)"><text
           transform="matrix(1,0,0,-1,676.94,386.04)"
           style="font-variant:normal;font-weight:normal;font-size:18px;font-family:Calibri;-inkscape-font-specification:Calibri;writing-mode:lr-tb;fill:#000000;fill-opacity:1;fill-rule:nonzero;stroke:none"
           id="text405"><tspan
             x="0 6.0300002 15.156"
             y="0"
             id="tspan403">t1 </tspan></text></g></g><g
       id="g407"><g
         id="g409"
         clip-path="url(#clipPath413)"><text
           transform="matrix(1,0,0,-1,696.26,386.04)"
           style="font-variant:normal;font-weight:normal;font-size:18px;font-family:Calibri;-inkscape-font-specification:Calibri;writing-mode:lr-tb;fill:#000000;fill-opacity:1;fill-rule:nonzero;stroke:none"
           id="text417"><tspan
             x="0"
             y="0"
             id="tspan415">←</tspan></text></g></g><g
       id="g419"><g
         id="g421"
         clip-path="url(#clipPath425)"><text
           transform="matrix(1,0,0,-1,716.54,386.04)"
           style="font-variant:normal;font-weight:normal;font-size:18px;font-family:Calibri;-inkscape-font-specification:Calibri;writing-mode:lr-tb;fill:#000000;fill-opacity:1;fill-rule:nonzero;stroke:none"
           id="text429"><tspan
             x="0"
             y="0"
             id="tspan427">5</tspan></text></g></g><g
       id="g431"><g
         id="g433"
         clip-path="url(#clipPath437)"><text
           transform="matrix(1,0,0,-1,676.94,364.8)"
           style="font-variant:normal;font-weight:normal;font-size:18px;font-family:Calibri;-inkscape-font-specification:Calibri;writing-mode:lr-tb;fill:#000000;fill-opacity:1;fill-rule:nonzero;stroke:none"
           id="text441"><tspan
             x="0 6.0300002 15.156"
             y="0"
             id="tspan439">t2 </tspan></text></g></g><g
       id="g443"><g
         id="g445"
         clip-path="url(#clipPath449)"><text
           transform="matrix(1,0,0,-1,696.26,364.8)"
           style="font-variant:normal;font-weight:normal;font-size:18px;font-family:Calibri;-inkscape-font-specification:Calibri;writing-mode:lr-tb;fill:#000000;fill-opacity:1;fill-rule:nonzero;stroke:none"
           id="text453"><tspan
             x="0"
             y="0"
             id="tspan451">←</tspan></text></g></g><g
       id="g455"><g
         id="g457"
         clip-path="url(#clipPath461)"><text
           transform="matrix(1,0,0,-1,716.54,364.8)"
           style="font-variant:normal;font-weight:normal;font-size:18px;font-family:Calibri;-inkscape-font-specification:Calibri;writing-mode:lr-tb;fill:#000000;fill-opacity:1;fill-rule:nonzero;stroke:none"
           id="text465"><tspan
             x="0"
             y="0"
             id="tspan463">b</tspan></text></g></g><g
       id="g467"><g
         id="g469"
         clip-path="url(#clipPath473)"><text
           transform="matrix(1,0,0,-1,676.94,342.84)"
           style="font-variant:normal;font-weight:normal;font-size:18px;font-family:Calibri;-inkscape-font-specification:Calibri;writing-mode:lr-tb;fill:#000000;fill-opacity:1;fill-rule:nonzero;stroke:none"
           id="text477"><tspan
             x="0 6.0300002 15.156"
             y="0"
             id="tspan475">t3 </tspan></text></g></g><g
       id="g479"><g
         id="g481"
         clip-path="url(#clipPath485)"><text
           transform="matrix(1,0,0,-1,696.26,342.84)"
           style="font-variant:normal;font-weight:normal;font-size:18px;font-family:Calibri;-inkscape-font-specification:Calibri;writing-mode:lr-tb;fill:#000000;fill-opacity:1;fill-rule:nonzero;stroke:none"
           id="text489"><tspan
             x="0"
             y="0"
             id="tspan487">←</tspan></text></g></g><g
       id="g491"><g
         id="g493"
         clip-path="url(#clipPath497)"><text
           transform="matrix(1,0,0,-1,716.54,342.84)"
           style="font-variant:normal;font-weight:normal;font-size:18px;font-family:Calibri;-inkscape-font-specification:Calibri;writing-mode:lr-tb;fill:#000000;fill-opacity:1;fill-rule:nonzero;stroke:none"
           id="text501"><tspan
             x="0 6"
             y="0"
             id="tspan499">t1</tspan></text></g></g><g
       id="g503"><g
         id="g505"
         clip-path="url(#clipPath509)"><text
           transform="matrix(1,0,0,-1,731.66,342.84)"
           style="font-variant:normal;font-weight:normal;font-size:18px;font-family:'宋体';-inkscape-font-specification:'宋体';writing-mode:lr-tb;fill:#000000;fill-opacity:1;fill-rule:nonzero;stroke:none"
           id="text513"><tspan
             x="0"
             y="0"
             id="tspan511">×</tspan></text></g></g><g
       id="g515"><g
         id="g517"
         clip-path="url(#clipPath521)"><text
           transform="matrix(1,0,0,-1,749.66,342.84)"
           style="font-variant:normal;font-weight:normal;font-size:18px;font-family:Calibri;-inkscape-font-specification:Calibri;writing-mode:lr-tb;fill:#000000;fill-opacity:1;fill-rule:nonzero;stroke:none"
           id="text525"><tspan
             x="0 6"
             y="0"
             id="tspan523">t2</tspan></text></g></g><g
       id="g527"><g
         id="g529"
         clip-path="url(#clipPath533)"><text
           transform="matrix(1,0,0,-1,676.94,321.6)"
           style="font-variant:normal;font-weight:normal;font-size:18.024px;font-family:Calibri;-inkscape-font-specification:Calibri;writing-mode:lr-tb;fill:#000000;fill-opacity:1;fill-rule:nonzero;stroke:none"
           id="text537"><tspan
             x="0 6.0380402 15.122136"
             y="0"
             id="tspan535">t4 </tspan></text></g></g><g
       id="g539"><g
         id="g541"
         clip-path="url(#clipPath545)"><text
           transform="matrix(1,0,0,-1,696.26,321.6)"
           style="font-variant:normal;font-weight:normal;font-size:18.024px;font-family:Calibri;-inkscape-font-specification:Calibri;writing-mode:lr-tb;fill:#000000;fill-opacity:1;fill-rule:nonzero;stroke:none"
           id="text549"><tspan
             x="0"
             y="0"
             id="tspan547">←</tspan></text></g></g><g
       id="g551"><g
         id="g553"
         clip-path="url(#clipPath557)"><text
           transform="matrix(1,0,0,-1,716.54,321.6)"
           style="font-variant:normal;font-weight:normal;font-size:18.024px;font-family:Calibri;-inkscape-font-specification:Calibri;writing-mode:lr-tb;fill:#000000;fill-opacity:1;fill-rule:nonzero;stroke:none"
           id="text561"><tspan
             x="0"
             y="0"
             id="tspan559">a</tspan></text></g></g><g
       id="g563"><g
         id="g565"
         clip-path="url(#clipPath569)"><text
           transform="matrix(1,0,0,-1,676.94,299.98)"
           style="font-variant:normal;font-weight:normal;font-size:18px;font-family:Calibri;-inkscape-font-specification:Calibri;writing-mode:lr-tb;fill:#000000;fill-opacity:1;fill-rule:nonzero;stroke:none"
           id="text573"><tspan
             x="0 6.0300002 15.156"
             y="0"
             id="tspan571">t5 </tspan></text></g></g><g
       id="g575"><g
         id="g577"
         clip-path="url(#clipPath581)"><text
           transform="matrix(1,0,0,-1,696.26,299.98)"
           style="font-variant:normal;font-weight:normal;font-size:18px;font-family:Calibri;-inkscape-font-specification:Calibri;writing-mode:lr-tb;fill:#000000;fill-opacity:1;fill-rule:nonzero;stroke:none"
           id="text585"><tspan
             x="0"
             y="0"
             id="tspan583">←</tspan></text></g></g><g
       id="g587"><g
         id="g589"
         clip-path="url(#clipPath593)"><text
           transform="matrix(1,0,0,-1,716.54,299.98)"
           style="font-variant:normal;font-weight:normal;font-size:18px;font-family:Calibri;-inkscape-font-specification:Calibri;writing-mode:lr-tb;fill:#000000;fill-opacity:1;fill-rule:nonzero;stroke:none"
           id="text597"><tspan
             x="0 6.0300002 15.156"
             y="0"
             id="tspan595">t4 </tspan></text></g></g><g
       id="g599"><g
         id="g601"
         clip-path="url(#clipPath605)"><text
           transform="matrix(1,0,0,-1,735.86,299.98)"
           style="font-variant:normal;font-weight:normal;font-size:18px;font-family:Calibri;-inkscape-font-specification:Calibri;writing-mode:lr-tb;fill:#000000;fill-opacity:1;fill-rule:nonzero;stroke:none"
           id="text609"><tspan
             x="0"
             y="0"
             id="tspan607">–</tspan></text></g></g><g
       id="g611"><g
         id="g613"
         clip-path="url(#clipPath617)"><text
           transform="matrix(1,0,0,-1,748.94,299.98)"
           style="font-variant:normal;font-weight:normal;font-size:18px;font-family:Calibri;-inkscape-font-specification:Calibri;writing-mode:lr-tb;fill:#000000;fill-opacity:1;fill-rule:nonzero;stroke:none"
           id="text621"><tspan
             x="0 6"
             y="0"
             id="tspan619">t3</tspan></text></g></g><g
       id="g623"><g
         id="g625"
         clip-path="url(#clipPath629)"><text
           transform="matrix(1,0,0,-1,171.38,219.43)"
           style="font-variant:normal;font-weight:normal;font-size:14.04px;font-family:'宋体';-inkscape-font-specification:'宋体';writing-mode:lr-tb;fill:#000000;fill-opacity:1;fill-rule:nonzero;stroke:none"
           id="text633"><tspan
             x="0 14.04"
             y="0"
             id="tspan631">堆栈</tspan></text></g></g><g
       id="g635"><g
         id="g637"
         clip-path="url(#clipPath641)"><text
           transform="matrix(1,0,0,-1,199.46,219.43)"
           style="font-variant:normal;font-weight:normal;font-size:14.04px;font-family:'宋体';-inkscape-font-specification:'宋体';writing-mode:lr-tb;fill:#000000;fill-opacity:1;fill-rule:nonzero;stroke:none"
           id="text645"><tspan
             x="0 14.04 28.08"
             y="0"
             id="tspan643">机代码</tspan></text></g></g><g
       id="g647"><g
         id="g649"
         clip-path="url(#clipPath653)"><text
           transform="matrix(1,0,0,-1,570.7,219.43)"
           style="font-variant:normal;font-weight:normal;font-size:14.04px;font-family:'宋体';-inkscape-font-specification:'宋体';writing-mode:lr-tb;fill:#000000;fill-opacity:1;fill-rule:nonzero;stroke:none"
           id="text657"><tspan
             x="0 14.04 28.08 42.119999 56.16"
             y="0"
             id="tspan655">三地址代码</tspan></text></g></g></g></svg>
