<?xml version="1.0" encoding="UTF-8" standalone="no"?>
<!-- Created with Inkscape (http://www.inkscape.org/) -->

<svg
   version="1.1"
   id="svg25"
   xml:space="preserve"
   width="1030.9867"
   height="91.972893"
   viewBox="0 0 1030.9867 91.972893"
   xmlns="http://www.w3.org/2000/svg"
   xmlns:svg="http://www.w3.org/2000/svg"><defs
     id="defs29"><clipPath
       clipPathUnits="userSpaceOnUse"
       id="clipPath39"><path
         d="M 0,1.2207e-4 H 960 V 540.00012 H 0 Z"
         clip-rule="evenodd"
         id="path37" /></clipPath><clipPath
       clipPathUnits="userSpaceOnUse"
       id="clipPath53"><path
         d="M 1.4305e-5,0 H 960.00001 V 540 H 1.4305e-5 Z"
         clip-rule="evenodd"
         id="path51" /></clipPath><clipPath
       clipPathUnits="userSpaceOnUse"
       id="clipPath69"><path
         d="M 1.4305e-5,0 H 960.00001 V 540 H 1.4305e-5 Z"
         clip-rule="evenodd"
         id="path67" /></clipPath><clipPath
       clipPathUnits="userSpaceOnUse"
       id="clipPath85"><path
         d="M 1.4305e-5,0 H 960.00001 V 540 H 1.4305e-5 Z"
         clip-rule="evenodd"
         id="path83" /></clipPath><clipPath
       clipPathUnits="userSpaceOnUse"
       id="clipPath101"><path
         d="M 1.4305e-5,0 H 960.00001 V 540 H 1.4305e-5 Z"
         clip-rule="evenodd"
         id="path99" /></clipPath><clipPath
       clipPathUnits="userSpaceOnUse"
       id="clipPath117"><path
         d="M 1.4305e-5,0 H 960.00001 V 540 H 1.4305e-5 Z"
         clip-rule="evenodd"
         id="path115" /></clipPath><clipPath
       clipPathUnits="userSpaceOnUse"
       id="clipPath133"><path
         d="M 1.4305e-5,0 H 960.00001 V 540 H 1.4305e-5 Z"
         clip-rule="evenodd"
         id="path131" /></clipPath><clipPath
       clipPathUnits="userSpaceOnUse"
       id="clipPath145"><path
         d="M 1.4305e-5,0 H 960.00001 V 540 H 1.4305e-5 Z"
         clip-rule="evenodd"
         id="path143" /></clipPath><clipPath
       clipPathUnits="userSpaceOnUse"
       id="clipPath169"><path
         d="M 1.4305e-5,0 H 960.00001 V 540 H 1.4305e-5 Z"
         clip-rule="evenodd"
         id="path167" /></clipPath><clipPath
       clipPathUnits="userSpaceOnUse"
       id="clipPath181"><path
         d="M 1.4305e-5,0 H 960.00001 V 540 H 1.4305e-5 Z"
         clip-rule="evenodd"
         id="path179" /></clipPath><clipPath
       clipPathUnits="userSpaceOnUse"
       id="clipPath195"><path
         d="M 1.4305e-5,0 H 960.00001 V 540 H 1.4305e-5 Z"
         clip-rule="evenodd"
         id="path193" /></clipPath><clipPath
       clipPathUnits="userSpaceOnUse"
       id="clipPath207"><path
         d="M 1.4305e-5,0 H 960.00001 V 540 H 1.4305e-5 Z"
         clip-rule="evenodd"
         id="path205" /></clipPath><clipPath
       clipPathUnits="userSpaceOnUse"
       id="clipPath219"><path
         d="M 1.4305e-5,0 H 960.00001 V 540 H 1.4305e-5 Z"
         clip-rule="evenodd"
         id="path217" /></clipPath><clipPath
       clipPathUnits="userSpaceOnUse"
       id="clipPath231"><path
         d="M 1.4305e-5,0 H 960.00001 V 540 H 1.4305e-5 Z"
         clip-rule="evenodd"
         id="path229" /></clipPath><clipPath
       clipPathUnits="userSpaceOnUse"
       id="clipPath243"><path
         d="M 1.4305e-5,0 H 960.00001 V 540 H 1.4305e-5 Z"
         clip-rule="evenodd"
         id="path241" /></clipPath><clipPath
       clipPathUnits="userSpaceOnUse"
       id="clipPath255"><path
         d="M -6.1035e-5,540 H 960 V 1.2207e-4 H 0"
         clip-rule="evenodd"
         id="path253" /></clipPath><clipPath
       clipPathUnits="userSpaceOnUse"
       id="clipPath265"><path
         d="M 1.4305e-5,0 H 960.00001 V 540 H 1.4305e-5 Z"
         clip-rule="evenodd"
         id="path263" /></clipPath><clipPath
       clipPathUnits="userSpaceOnUse"
       id="clipPath277"><path
         d="M 1.4305e-5,0 H 960.00001 V 540 H 1.4305e-5 Z"
         clip-rule="evenodd"
         id="path275" /></clipPath><clipPath
       clipPathUnits="userSpaceOnUse"
       id="clipPath289"><path
         d="M 1.4305e-5,0 H 960.00001 V 540 H 1.4305e-5 Z"
         clip-rule="evenodd"
         id="path287" /></clipPath></defs><g
     id="g31"
     transform="matrix(1.3333333,0,0,-1.3333333,-103.68,437.01289)"><path
       d="m 130.56,292.2 h 60.96 v 27.96 h -60.96 z"
       style="fill:#ffffff;fill-opacity:1;fill-rule:evenodd;stroke:none"
       id="path43" /><path
       d="m 130.56,292.2 h 60.96 v 27.96 h -60.96 z"
       style="fill:none;stroke:#000000;stroke-width:0.96;stroke-linecap:butt;stroke-linejoin:miter;stroke-miterlimit:10;stroke-dasharray:none;stroke-opacity:1"
       id="path45" /><g
       id="g47"><g
         id="g49"
         clip-path="url(#clipPath53)"><text
           transform="matrix(1,0,0,-1,151.13,302.5)"
           style="font-variant:normal;font-weight:normal;font-size:9.96px;font-family:'宋体';-inkscape-font-specification:'宋体';writing-mode:lr-tb;fill:#000000;fill-opacity:1;fill-rule:nonzero;stroke:none"
           id="text57"><tspan
             x="0 9.96"
             y="0"
             id="tspan55">解析</tspan></text></g></g><path
       d="m 243.6,292.2 h 60.96 v 27.96 H 243.6 Z"
       style="fill:#ffffff;fill-opacity:1;fill-rule:evenodd;stroke:none"
       id="path59" /><path
       d="m 243.6,292.2 h 60.96 v 27.96 H 243.6 Z"
       style="fill:none;stroke:#000000;stroke-width:0.96;stroke-linecap:butt;stroke-linejoin:miter;stroke-miterlimit:10;stroke-dasharray:none;stroke-opacity:1"
       id="path61" /><g
       id="g63"><g
         id="g65"
         clip-path="url(#clipPath69)"><text
           transform="matrix(1,0,0,-1,254.21,302.5)"
           style="font-variant:normal;font-weight:normal;font-size:9.96px;font-family:'宋体';-inkscape-font-specification:'宋体';writing-mode:lr-tb;fill:#000000;fill-opacity:1;fill-rule:nonzero;stroke:none"
           id="text73"><tspan
             x="0 9.96 19.92 29.879999"
             y="0"
             id="tspan71">静态分析</tspan></text></g></g><path
       d="m 356.64,292.2 h 60.96 v 27.96 h -60.96 z"
       style="fill:#ffffff;fill-opacity:1;fill-rule:evenodd;stroke:none"
       id="path75" /><path
       d="m 356.64,292.2 h 60.96 v 27.96 h -60.96 z"
       style="fill:none;stroke:#000000;stroke-width:0.96;stroke-linecap:butt;stroke-linejoin:miter;stroke-miterlimit:10;stroke-dasharray:none;stroke-opacity:1"
       id="path77" /><g
       id="g79"><g
         id="g81"
         clip-path="url(#clipPath85)"><text
           transform="matrix(1,0,0,-1,367.25,302.5)"
           style="font-variant:normal;font-weight:normal;font-size:9.96px;font-family:'宋体';-inkscape-font-specification:'宋体';writing-mode:lr-tb;fill:#000000;fill-opacity:1;fill-rule:nonzero;stroke:none"
           id="text89"><tspan
             x="0 9.96 19.92 29.879999"
             y="0"
             id="tspan87">前端优化</tspan></text></g></g><path
       d="m 469.68,292.2 h 60.96 v 27.96 h -60.96 z"
       style="fill:#ffffff;fill-opacity:1;fill-rule:evenodd;stroke:none"
       id="path91" /><path
       d="m 469.68,292.2 h 60.96 v 27.96 h -60.96 z"
       style="fill:none;stroke:#000000;stroke-width:0.96;stroke-linecap:butt;stroke-linejoin:miter;stroke-miterlimit:10;stroke-dasharray:none;stroke-opacity:1"
       id="path93" /><g
       id="g95"><g
         id="g97"
         clip-path="url(#clipPath101)"><text
           transform="matrix(1,0,0,-1,480.29,302.5)"
           style="font-variant:normal;font-weight:normal;font-size:9.96px;font-family:'宋体';-inkscape-font-specification:'宋体';writing-mode:lr-tb;fill:#000000;fill-opacity:1;fill-rule:nonzero;stroke:none"
           id="text105"><tspan
             x="0 9.96 19.92 29.879999"
             y="0"
             id="tspan103">自动微分</tspan></text></g></g><path
       d="m 582.6,292.2 h 61.08 v 27.96 H 582.6 Z"
       style="fill:#ffffff;fill-opacity:1;fill-rule:evenodd;stroke:none"
       id="path107" /><path
       d="m 582.6,292.2 h 61.08 v 27.96 H 582.6 Z"
       style="fill:none;stroke:#000000;stroke-width:0.96;stroke-linecap:butt;stroke-linejoin:miter;stroke-miterlimit:10;stroke-dasharray:none;stroke-opacity:1"
       id="path109" /><g
       id="g111"><g
         id="g113"
         clip-path="url(#clipPath117)"><text
           transform="matrix(1,0,0,-1,593.33,302.5)"
           style="font-variant:normal;font-weight:normal;font-size:9.96px;font-family:'宋体';-inkscape-font-specification:'宋体';writing-mode:lr-tb;fill:#000000;fill-opacity:1;fill-rule:nonzero;stroke:none"
           id="text121"><tspan
             x="0 9.96 19.92 29.879999"
             y="0"
             id="tspan119">前端优化</tspan></text></g></g><path
       d="m 695.64,306.18 50.76,21.06 50.76,-21.06 -50.76,-21.06 z"
       style="fill:#ffffff;fill-opacity:1;fill-rule:evenodd;stroke:none"
       id="path123" /><path
       d="m 695.64,306.18 50.76,21.06 50.76,-21.06 -50.76,-21.06 z"
       style="fill:none;stroke:#000000;stroke-width:0.96;stroke-linecap:butt;stroke-linejoin:miter;stroke-miterlimit:10;stroke-dasharray:none;stroke-opacity:1"
       id="path125" /><g
       id="g127"><g
         id="g129"
         clip-path="url(#clipPath133)"><text
           transform="matrix(1,0,0,-1,728.52,307.66)"
           style="font-variant:normal;font-weight:normal;font-size:9px;font-family:'宋体';-inkscape-font-specification:'宋体';writing-mode:lr-tb;fill:#000000;fill-opacity:1;fill-rule:nonzero;stroke:none"
           id="text137"><tspan
             x="0 9 18 27"
             y="0"
             id="tspan135">是否继续</tspan></text></g></g><g
       id="g139"><g
         id="g141"
         clip-path="url(#clipPath145)"><text
           transform="matrix(1,0,0,-1,737.52,297.46)"
           style="font-variant:normal;font-weight:normal;font-size:9px;font-family:'宋体';-inkscape-font-specification:'宋体';writing-mode:lr-tb;fill:#000000;fill-opacity:1;fill-rule:nonzero;stroke:none"
           id="text149"><tspan
             x="0 9"
             y="0"
             id="tspan147">优化</tspan></text></g></g><path
       d="m 191.52,306.62 h 47.05 v -1 h -47.05 z m 46.05,2.5 6,-3 -6,-3 z"
       style="fill:#000000;fill-opacity:1;fill-rule:nonzero;stroke:none"
       id="path151" /><path
       d="m 304.56,305.62 h 47.05 v 1 h -47.05 z m 46.05,-2.5 6,3 -6,3 z"
       style="fill:#000000;fill-opacity:1;fill-rule:nonzero;stroke:none"
       id="path153" /><path
       d="m 417.6,306.62 h 47.05 v -1 H 417.6 Z m 46.05,2.5 6,-3 -6,-3 z"
       style="fill:#000000;fill-opacity:1;fill-rule:nonzero;stroke:none"
       id="path155" /><path
       d="m 530.64,306.62 h 47.05 v -1 h -47.05 z m 46.05,2.5 6,-3 -6,-3 z"
       style="fill:#000000;fill-opacity:1;fill-rule:nonzero;stroke:none"
       id="path157" /><path
       d="m 643.68,305.62 h 47.05 v 1 h -47.05 z m 46.05,-2.5 6,3 -6,3 z"
       style="fill:#000000;fill-opacity:1;fill-rule:nonzero;stroke:none"
       id="path159" /><path
       d="m 797.16,305.67 48.84,0.06 v 1 l -48.84,-0.06 z m 47.84,-2.44 6,3.01 -6.01,2.99 z"
       style="fill:#000000;fill-opacity:1;fill-rule:nonzero;stroke:none"
       id="path161" /><g
       id="g163"><g
         id="g165"
         clip-path="url(#clipPath169)"><text
           transform="matrix(1,0,0,-1,197.21,308.81)"
           style="font-variant:normal;font-weight:normal;font-size:9.984px;font-family:'宋体';-inkscape-font-specification:'宋体';writing-mode:lr-tb;fill:#000000;fill-opacity:1;fill-rule:nonzero;stroke:none"
           id="text173"><tspan
             x="0 9.96 19.92 29.879999"
             y="0"
             id="tspan171">中间表示</tspan></text></g></g><g
       id="g175"><g
         id="g177"
         clip-path="url(#clipPath181)"><text
           transform="matrix(1,0,0,-1,86.352,308.81)"
           style="font-variant:normal;font-weight:normal;font-size:9.984px;font-family:'宋体';-inkscape-font-specification:'宋体';writing-mode:lr-tb;fill:#000000;fill-opacity:1;fill-rule:nonzero;stroke:none"
           id="text185"><tspan
             x="0 9.96 19.92"
             y="0"
             id="tspan183">源程序</tspan></text></g></g><path
       d="m 77.76,306.74 h 47.05 v -1 H 77.76 Z m 46.05,2.5 6,-3 -6,-3 z"
       style="fill:#000000;fill-opacity:1;fill-rule:nonzero;stroke:none"
       id="path187" /><g
       id="g189"><g
         id="g191"
         clip-path="url(#clipPath195)"><text
           transform="matrix(1,0,0,-1,310.37,308.81)"
           style="font-variant:normal;font-weight:normal;font-size:9.984px;font-family:'宋体';-inkscape-font-specification:'宋体';writing-mode:lr-tb;fill:#000000;fill-opacity:1;fill-rule:nonzero;stroke:none"
           id="text199"><tspan
             x="0 9.96 19.92 29.879999"
             y="0"
             id="tspan197">中间表示</tspan></text></g></g><g
       id="g201"><g
         id="g203"
         clip-path="url(#clipPath207)"><text
           transform="matrix(1,0,0,-1,423.72,308.81)"
           style="font-variant:normal;font-weight:normal;font-size:9.96px;font-family:'宋体';-inkscape-font-specification:'宋体';writing-mode:lr-tb;fill:#000000;fill-opacity:1;fill-rule:nonzero;stroke:none"
           id="text211"><tspan
             x="0 9.96 19.92 29.879999"
             y="0"
             id="tspan209">中间表示</tspan></text></g></g><g
       id="g213"><g
         id="g215"
         clip-path="url(#clipPath219)"><text
           transform="matrix(1,0,0,-1,536.23,308.81)"
           style="font-variant:normal;font-weight:normal;font-size:9.96px;font-family:'宋体';-inkscape-font-specification:'宋体';writing-mode:lr-tb;fill:#000000;fill-opacity:1;fill-rule:nonzero;stroke:none"
           id="text223"><tspan
             x="0 9.96 19.92 29.879999"
             y="0"
             id="tspan221">中间表示</tspan></text></g></g><g
       id="g225"><g
         id="g227"
         clip-path="url(#clipPath231)"><text
           transform="matrix(1,0,0,-1,648.05,308.81)"
           style="font-variant:normal;font-weight:normal;font-size:9.96px;font-family:'宋体';-inkscape-font-specification:'宋体';writing-mode:lr-tb;fill:#000000;fill-opacity:1;fill-rule:nonzero;stroke:none"
           id="text235"><tspan
             x="0 9.96 19.92 29.879999"
             y="0"
             id="tspan233">中间表示</tspan></text></g></g><g
       id="g237"><g
         id="g239"
         clip-path="url(#clipPath243)"><text
           transform="matrix(1,0,0,-1,801.41,308.81)"
           style="font-variant:normal;font-weight:normal;font-size:9.96px;font-family:'宋体';-inkscape-font-specification:'宋体';writing-mode:lr-tb;fill:#000000;fill-opacity:1;fill-rule:nonzero;stroke:none"
           id="text247"><tspan
             x="0 9.96 19.92 29.879999"
             y="0"
             id="tspan245">中间表示</tspan></text></g></g><g
       id="g249"><g
         id="g251"
         clip-path="url(#clipPath255)"><path
           d="m 745.96,285.07 v -25.79 l 0.5,0.5 H 274.08 l 0.5,-0.5 v 27.92 h -1 v -28.42 h 473.38 v 26.29 z m -468.88,1.13 -3,6 -3,-6 z"
           style="fill:#000000;fill-opacity:1;fill-rule:nonzero;stroke:none"
           id="path257" /></g></g><g
       id="g259"><g
         id="g261"
         clip-path="url(#clipPath265)"><text
           transform="matrix(1,0,0,-1,284.21,263.06)"
           style="font-variant:normal;font-weight:normal;font-size:9.96px;font-family:'宋体';-inkscape-font-specification:'宋体';writing-mode:lr-tb;fill:#000000;fill-opacity:1;fill-rule:nonzero;stroke:none"
           id="text269"><tspan
             x="0 9.96 19.92 29.879999"
             y="0"
             id="tspan267">中间表示</tspan></text></g></g><g
       id="g271"><g
         id="g273"
         clip-path="url(#clipPath277)"><text
           transform="matrix(1,0,0,-1,791.69,289.46)"
           style="font-variant:normal;font-weight:normal;font-size:9.96px;font-family:'宋体';-inkscape-font-specification:'宋体';writing-mode:lr-tb;fill:#000000;fill-opacity:1;fill-rule:nonzero;stroke:none"
           id="text281"><tspan
             x="0"
             y="0"
             id="tspan279">否</tspan></text></g></g><g
       id="g283"><g
         id="g285"
         clip-path="url(#clipPath289)"><text
           transform="matrix(1,0,0,-1,730.54,273.14)"
           style="font-variant:normal;font-weight:normal;font-size:9.96px;font-family:'宋体';-inkscape-font-specification:'宋体';writing-mode:lr-tb;fill:#000000;fill-opacity:1;fill-rule:nonzero;stroke:none"
           id="text293"><tspan
             x="0"
             y="0"
             id="tspan291">是</tspan></text></g></g></g></svg>
