<?xml version="1.0" encoding="UTF-8" standalone="no"?>
<!-- Created with Inkscape (http://www.inkscape.org/) -->

<svg
   version="1.1"
   id="svg2124"
   xml:space="preserve"
   width="1214.4"
   height="243.2"
   viewBox="0 0 1214.4 243.2"
   xmlns="http://www.w3.org/2000/svg"
   xmlns:svg="http://www.w3.org/2000/svg"><defs
     id="defs2128"><clipPath
       clipPathUnits="userSpaceOnUse"
       id="clipPath2138"><path
         d="M 0,1.2207e-4 H 960 V 540.00012 H 0 Z"
         clip-rule="evenodd"
         id="path2136" /></clipPath><clipPath
       clipPathUnits="userSpaceOnUse"
       id="clipPath2152"><path
         d="M 1.4305e-5,0 H 960.00001 V 540 H 1.4305e-5 Z"
         clip-rule="evenodd"
         id="path2150" /></clipPath><clipPath
       clipPathUnits="userSpaceOnUse"
       id="clipPath2164"><path
         d="M 1.4305e-5,0 H 960.00001 V 540 H 1.4305e-5 Z"
         clip-rule="evenodd"
         id="path2162" /></clipPath><clipPath
       clipPathUnits="userSpaceOnUse"
       id="clipPath2176"><path
         d="M 1.4305e-5,0 H 960.00001 V 540 H 1.4305e-5 Z"
         clip-rule="evenodd"
         id="path2174" /></clipPath><clipPath
       clipPathUnits="userSpaceOnUse"
       id="clipPath2188"><path
         d="M 1.4305e-5,0 H 960.00001 V 540 H 1.4305e-5 Z"
         clip-rule="evenodd"
         id="path2186" /></clipPath><clipPath
       clipPathUnits="userSpaceOnUse"
       id="clipPath2204"><path
         d="M 1.4305e-5,0 H 960.00001 V 540 H 1.4305e-5 Z"
         clip-rule="evenodd"
         id="path2202" /></clipPath><clipPath
       clipPathUnits="userSpaceOnUse"
       id="clipPath2216"><path
         d="M 1.4305e-5,0 H 960.00001 V 540 H 1.4305e-5 Z"
         clip-rule="evenodd"
         id="path2214" /></clipPath><clipPath
       clipPathUnits="userSpaceOnUse"
       id="clipPath2228"><path
         d="M 1.4305e-5,0 H 960.00001 V 540 H 1.4305e-5 Z"
         clip-rule="evenodd"
         id="path2226" /></clipPath><clipPath
       clipPathUnits="userSpaceOnUse"
       id="clipPath2240"><path
         d="M 1.4305e-5,0 H 960.00001 V 540 H 1.4305e-5 Z"
         clip-rule="evenodd"
         id="path2238" /></clipPath><clipPath
       clipPathUnits="userSpaceOnUse"
       id="clipPath2252"><path
         d="M 1.4305e-5,0 H 960.00001 V 540 H 1.4305e-5 Z"
         clip-rule="evenodd"
         id="path2250" /></clipPath><clipPath
       clipPathUnits="userSpaceOnUse"
       id="clipPath2264"><path
         d="M 1.4305e-5,0 H 960.00001 V 540 H 1.4305e-5 Z"
         clip-rule="evenodd"
         id="path2262" /></clipPath><clipPath
       clipPathUnits="userSpaceOnUse"
       id="clipPath2276"><path
         d="M 1.4305e-5,0 H 960.00001 V 540 H 1.4305e-5 Z"
         clip-rule="evenodd"
         id="path2274" /></clipPath><clipPath
       clipPathUnits="userSpaceOnUse"
       id="clipPath2288"><path
         d="M 1.4305e-5,0 H 960.00001 V 540 H 1.4305e-5 Z"
         clip-rule="evenodd"
         id="path2286" /></clipPath><clipPath
       clipPathUnits="userSpaceOnUse"
       id="clipPath2300"><path
         d="M 1.4305e-5,0 H 960.00001 V 540 H 1.4305e-5 Z"
         clip-rule="evenodd"
         id="path2298" /></clipPath><clipPath
       clipPathUnits="userSpaceOnUse"
       id="clipPath2312"><path
         d="M 1.4305e-5,0 H 960.00001 V 540 H 1.4305e-5 Z"
         clip-rule="evenodd"
         id="path2310" /></clipPath></defs><g
     id="g2130"
     transform="matrix(1.3333333,0,0,-1.3333333,-34.133332,483.73332)"><path
       d="m 26.2,332 c 0,16.68 13.521,30.2 30.2,30.2 h 327.2 c 16.68,0 30.2,-13.52 30.2,-30.2 V 211.2 C 413.8,194.52 400.28,181 383.6,181 H 56.4 c -16.679,0 -30.2,13.52 -30.2,30.2 z"
       style="fill:#ffffff;fill-opacity:1;fill-rule:evenodd;stroke:none"
       id="path2142" /><path
       d="m 26.2,332 c 0,16.68 13.521,30.2 30.2,30.2 h 327.2 c 16.68,0 30.2,-13.52 30.2,-30.2 V 211.2 C 413.8,194.52 400.28,181 383.6,181 H 56.4 c -16.679,0 -30.2,13.52 -30.2,30.2 z"
       style="fill:none;stroke:#000000;stroke-width:1.2;stroke-linecap:butt;stroke-linejoin:miter;stroke-miterlimit:10;stroke-dasharray:none;stroke-opacity:1"
       id="path2144" /><g
       id="g2146"><g
         id="g2148"
         clip-path="url(#clipPath2152)"><text
           transform="matrix(1,0,0,-1,42.125,306.38)"
           style="font-variant:normal;font-weight:normal;font-size:24.025px;font-family:Consolas;-inkscape-font-specification:Consolas;writing-mode:lr-tb;fill:#000000;fill-opacity:1;fill-rule:nonzero;stroke:none"
           id="text2156"><tspan
             x="0 13.19995 26.3999 39.59985 52.799801 65.999748 79.199699 92.399651 105.5996 118.79955"
             y="0"
             id="tspan2154">x = Net1()</tspan></text></g></g><g
       id="g2158"><g
         id="g2160"
         clip-path="url(#clipPath2164)"><text
           transform="matrix(1,0,0,-1,42.125,277.55)"
           style="font-variant:normal;font-weight:normal;font-size:24.025px;font-family:Consolas;-inkscape-font-specification:Consolas;writing-mode:lr-tb;fill:#000000;fill-opacity:1;fill-rule:nonzero;stroke:none"
           id="text2168"><tspan
             x="0 13.19995 26.3999 39.59985 52.799801 65.999748 79.199699 92.399651 105.5996 118.79955"
             y="0"
             id="tspan2166">y = Net2()</tspan></text></g></g><g
       id="g2170"><g
         id="g2172"
         clip-path="url(#clipPath2176)"><text
           transform="matrix(1,0,0,-1,42.125,248.73)"
           style="font-variant:normal;font-weight:normal;font-size:24.025px;font-family:Consolas;-inkscape-font-specification:Consolas;writing-mode:lr-tb;fill:#000000;fill-opacity:1;fill-rule:nonzero;stroke:none"
           id="text2180"><tspan
             x="0 13.19995 26.3999 39.59985 52.799801 65.999748 79.199699 92.399651 105.5996 118.79955 131.9995 145.19945 158.7838 171.98375 185.1837 198.38365 211.5836 224.78355 237.98351 251.18346 264.76779 277.96774 291.16769 304.36765 317.5676 330.76755"
             y="0"
             id="tspan2178">z = Net3() # z is not used</tspan></text></g></g><g
       id="g2182"><g
         id="g2184"
         clip-path="url(#clipPath2188)"><text
           transform="matrix(1,0,0,-1,42.125,219.9)"
           style="font-variant:normal;font-weight:normal;font-size:24.025px;font-family:Consolas;-inkscape-font-specification:Consolas;writing-mode:lr-tb;fill:#000000;fill-opacity:1;fill-rule:nonzero;stroke:none"
           id="text2192"><tspan
             x="0 13.19995 26.3999 39.59985 52.799801 65.999748 79.199699 92.399651 105.5996 118.79955 131.9995 145.19945 158.7838 171.98375"
             y="0"
             id="tspan2190">d = ops1(x, y)</tspan></text></g></g><path
       d="m 560.2,332 c 0,16.68 13.52,30.2 30.2,30.2 h 315.2 c 16.68,0 30.2,-13.52 30.2,-30.2 V 211.2 C 935.8,194.52 922.28,181 905.6,181 H 590.4 c -16.68,0 -30.2,13.52 -30.2,30.2 z"
       style="fill:#ffffff;fill-opacity:1;fill-rule:evenodd;stroke:none"
       id="path2194" /><path
       d="m 560.2,332 c 0,16.68 13.52,30.2 30.2,30.2 h 315.2 c 16.68,0 30.2,-13.52 30.2,-30.2 V 211.2 C 935.8,194.52 922.28,181 905.6,181 H 590.4 c -16.68,0 -30.2,13.52 -30.2,30.2 z"
       style="fill:none;stroke:#000000;stroke-width:1.2;stroke-linecap:butt;stroke-linejoin:miter;stroke-miterlimit:10;stroke-dasharray:none;stroke-opacity:1"
       id="path2196" /><g
       id="g2198"><g
         id="g2200"
         clip-path="url(#clipPath2204)"><text
           transform="matrix(1,0,0,-1,576.23,291.95)"
           style="font-variant:normal;font-weight:normal;font-size:24.025px;font-family:Consolas;-inkscape-font-specification:Consolas;writing-mode:lr-tb;fill:#000000;fill-opacity:1;fill-rule:nonzero;stroke:none"
           id="text2208"><tspan
             x="0"
             y="0"
             id="tspan2206">x</tspan></text></g></g><g
       id="g2210"><g
         id="g2212"
         clip-path="url(#clipPath2216)"><text
           transform="matrix(1,0,0,-1,602.65,291.95)"
           style="font-variant:normal;font-weight:normal;font-size:24.025px;font-family:Consolas;-inkscape-font-specification:Consolas;writing-mode:lr-tb;fill:#000000;fill-opacity:1;fill-rule:nonzero;stroke:none"
           id="text2220"><tspan
             x="0"
             y="0"
             id="tspan2218">=</tspan></text></g></g><g
       id="g2222"><g
         id="g2224"
         clip-path="url(#clipPath2228)"><text
           transform="matrix(1,0,0,-1,629.05,291.95)"
           style="font-variant:normal;font-weight:normal;font-size:24.025px;font-family:Consolas;-inkscape-font-specification:Consolas;writing-mode:lr-tb;fill:#000000;fill-opacity:1;fill-rule:nonzero;stroke:none"
           id="text2232"><tspan
             x="0 13.19995 26.3999 39.59985 52.799801 65.999748"
             y="0"
             id="tspan2230">Net1()</tspan></text></g></g><g
       id="g2234"><g
         id="g2236"
         clip-path="url(#clipPath2240)"><text
           transform="matrix(1,0,0,-1,576.23,263.13)"
           style="font-variant:normal;font-weight:normal;font-size:24px;font-family:Consolas;-inkscape-font-specification:Consolas;writing-mode:lr-tb;fill:#000000;fill-opacity:1;fill-rule:nonzero;stroke:none"
           id="text2244"><tspan
             x="0"
             y="0"
             id="tspan2242">y</tspan></text></g></g><g
       id="g2246"><g
         id="g2248"
         clip-path="url(#clipPath2252)"><text
           transform="matrix(1,0,0,-1,602.65,263.13)"
           style="font-variant:normal;font-weight:normal;font-size:24px;font-family:Consolas;-inkscape-font-specification:Consolas;writing-mode:lr-tb;fill:#000000;fill-opacity:1;fill-rule:nonzero;stroke:none"
           id="text2256"><tspan
             x="0"
             y="0"
             id="tspan2254">=</tspan></text></g></g><g
       id="g2258"><g
         id="g2260"
         clip-path="url(#clipPath2264)"><text
           transform="matrix(1,0,0,-1,629.05,263.13)"
           style="font-variant:normal;font-weight:normal;font-size:24px;font-family:Consolas;-inkscape-font-specification:Consolas;writing-mode:lr-tb;fill:#000000;fill-opacity:1;fill-rule:nonzero;stroke:none"
           id="text2268"><tspan
             x="0 13.200001 26.400002 39.600002 52.800003 66.000008"
             y="0"
             id="tspan2266">Net2()</tspan></text></g></g><g
       id="g2270"><g
         id="g2272"
         clip-path="url(#clipPath2276)"><text
           transform="matrix(1,0,0,-1,576.23,234.3)"
           style="font-variant:normal;font-weight:normal;font-size:24px;font-family:Consolas;-inkscape-font-specification:Consolas;writing-mode:lr-tb;fill:#000000;fill-opacity:1;fill-rule:nonzero;stroke:none"
           id="text2280"><tspan
             x="0"
             y="0"
             id="tspan2278">d</tspan></text></g></g><g
       id="g2282"><g
         id="g2284"
         clip-path="url(#clipPath2288)"><text
           transform="matrix(1,0,0,-1,602.65,234.3)"
           style="font-variant:normal;font-weight:normal;font-size:24px;font-family:Consolas;-inkscape-font-specification:Consolas;writing-mode:lr-tb;fill:#000000;fill-opacity:1;fill-rule:nonzero;stroke:none"
           id="text2292"><tspan
             x="0"
             y="0"
             id="tspan2290">=</tspan></text></g></g><g
       id="g2294"><g
         id="g2296"
         clip-path="url(#clipPath2300)"><text
           transform="matrix(1,0,0,-1,629.05,234.3)"
           style="font-variant:normal;font-weight:normal;font-size:24px;font-family:Consolas;-inkscape-font-specification:Consolas;writing-mode:lr-tb;fill:#000000;fill-opacity:1;fill-rule:nonzero;stroke:none"
           id="text2304"><tspan
             x="0 13.200001 26.400002 39.600002 52.800003 66.000008 79.200005"
             y="0"
             id="tspan2302">ops1(x,</tspan></text></g></g><g
       id="g2306"><g
         id="g2308"
         clip-path="url(#clipPath2312)"><text
           transform="matrix(1,0,0,-1,735.1,234.3)"
           style="font-variant:normal;font-weight:normal;font-size:24px;font-family:Consolas;-inkscape-font-specification:Consolas;writing-mode:lr-tb;fill:#000000;fill-opacity:1;fill-rule:nonzero;stroke:none"
           id="text2316"><tspan
             x="0 13.200001"
             y="0"
             id="tspan2314">y)</tspan></text></g></g><path
       d="M 427.8,289 H 511 v 17.6 L 546.2,271.4 511,236.2 v 17.6 h -83.2 z"
       style="fill:#5b9bd5;fill-opacity:1;fill-rule:evenodd;stroke:none"
       id="path2318" /><path
       d="M 427.8,289 H 511 v 17.6 L 546.2,271.4 511,236.2 v 17.6 h -83.2 z"
       style="fill:none;stroke:#41719c;stroke-width:1.2;stroke-linecap:butt;stroke-linejoin:miter;stroke-miterlimit:10;stroke-dasharray:none;stroke-opacity:1"
       id="path2320" /></g></svg>
