<?xml version="1.0" encoding="UTF-8" standalone="no"?>
<!-- Created with Inkscape (http://www.inkscape.org/) -->

<svg
   version="1.1"
   id="svg25"
   xml:space="preserve"
   width="1031.3199"
   height="340.83304"
   viewBox="0 0 1031.3199 340.83304"
   xmlns="http://www.w3.org/2000/svg"
   xmlns:svg="http://www.w3.org/2000/svg"><defs
     id="defs29"><clipPath
       clipPathUnits="userSpaceOnUse"
       id="clipPath39"><path
         d="M 0,1.2207e-4 H 960 V 540.00012 H 0 Z"
         clip-rule="evenodd"
         id="path37" /></clipPath><clipPath
       clipPathUnits="userSpaceOnUse"
       id="clipPath53"><path
         d="M 1.4305e-5,0 H 960.00001 V 540 H 1.4305e-5 Z"
         clip-rule="evenodd"
         id="path51" /></clipPath><clipPath
       clipPathUnits="userSpaceOnUse"
       id="clipPath65"><path
         d="M 1.4305e-5,0 H 960.00001 V 540 H 1.4305e-5 Z"
         clip-rule="evenodd"
         id="path63" /></clipPath><clipPath
       clipPathUnits="userSpaceOnUse"
       id="clipPath77"><path
         d="M 1.4305e-5,0 H 960.00001 V 540 H 1.4305e-5 Z"
         clip-rule="evenodd"
         id="path75" /></clipPath><clipPath
       clipPathUnits="userSpaceOnUse"
       id="clipPath93"><path
         d="M 1.4305e-5,0 H 960.00001 V 540 H 1.4305e-5 Z"
         clip-rule="evenodd"
         id="path91" /></clipPath><clipPath
       clipPathUnits="userSpaceOnUse"
       id="clipPath105"><path
         d="M 1.4305e-5,0 H 960.00001 V 540 H 1.4305e-5 Z"
         clip-rule="evenodd"
         id="path103" /></clipPath><clipPath
       clipPathUnits="userSpaceOnUse"
       id="clipPath121"><path
         d="M 1.4305e-5,0 H 960.00001 V 540 H 1.4305e-5 Z"
         clip-rule="evenodd"
         id="path119" /></clipPath><clipPath
       clipPathUnits="userSpaceOnUse"
       id="clipPath133"><path
         d="M 1.4305e-5,0 H 960.00001 V 540 H 1.4305e-5 Z"
         clip-rule="evenodd"
         id="path131" /></clipPath><clipPath
       clipPathUnits="userSpaceOnUse"
       id="clipPath149"><path
         d="M 1.4305e-5,0 H 960.00001 V 540 H 1.4305e-5 Z"
         clip-rule="evenodd"
         id="path147" /></clipPath><clipPath
       clipPathUnits="userSpaceOnUse"
       id="clipPath161"><path
         d="M 1.4305e-5,0 H 960.00001 V 540 H 1.4305e-5 Z"
         clip-rule="evenodd"
         id="path159" /></clipPath><clipPath
       clipPathUnits="userSpaceOnUse"
       id="clipPath177"><path
         d="M 1.4305e-5,0 H 960.00001 V 540 H 1.4305e-5 Z"
         clip-rule="evenodd"
         id="path175" /></clipPath><clipPath
       clipPathUnits="userSpaceOnUse"
       id="clipPath189"><path
         d="M 1.4305e-5,0 H 960.00001 V 540 H 1.4305e-5 Z"
         clip-rule="evenodd"
         id="path187" /></clipPath><clipPath
       clipPathUnits="userSpaceOnUse"
       id="clipPath205"><path
         d="M 1.4305e-5,0 H 960.00001 V 540 H 1.4305e-5 Z"
         clip-rule="evenodd"
         id="path203" /></clipPath><clipPath
       clipPathUnits="userSpaceOnUse"
       id="clipPath217"><path
         d="M 1.4305e-5,0 H 960.00001 V 540 H 1.4305e-5 Z"
         clip-rule="evenodd"
         id="path215" /></clipPath><clipPath
       clipPathUnits="userSpaceOnUse"
       id="clipPath233"><path
         d="M 1.4305e-5,0 H 960.00001 V 540 H 1.4305e-5 Z"
         clip-rule="evenodd"
         id="path231" /></clipPath><clipPath
       clipPathUnits="userSpaceOnUse"
       id="clipPath245"><path
         d="M 1.4305e-5,0 H 960.00001 V 540 H 1.4305e-5 Z"
         clip-rule="evenodd"
         id="path243" /></clipPath><clipPath
       clipPathUnits="userSpaceOnUse"
       id="clipPath279"><path
         d="M 1.4305e-5,0 H 960.00001 V 540 H 1.4305e-5 Z"
         clip-rule="evenodd"
         id="path277" /></clipPath><clipPath
       clipPathUnits="userSpaceOnUse"
       id="clipPath291"><path
         d="M 1.4305e-5,0 H 960.00001 V 540 H 1.4305e-5 Z"
         clip-rule="evenodd"
         id="path289" /></clipPath><clipPath
       clipPathUnits="userSpaceOnUse"
       id="clipPath303"><path
         d="M 1.4305e-5,0 H 960.00001 V 540 H 1.4305e-5 Z"
         clip-rule="evenodd"
         id="path301" /></clipPath><clipPath
       clipPathUnits="userSpaceOnUse"
       id="clipPath315"><path
         d="M 1.4305e-5,0 H 960.00001 V 540 H 1.4305e-5 Z"
         clip-rule="evenodd"
         id="path313" /></clipPath><clipPath
       clipPathUnits="userSpaceOnUse"
       id="clipPath327"><path
         d="M 1.4305e-5,0 H 960.00001 V 540 H 1.4305e-5 Z"
         clip-rule="evenodd"
         id="path325" /></clipPath><clipPath
       clipPathUnits="userSpaceOnUse"
       id="clipPath339"><path
         d="M 1.4305e-5,0 H 960.00001 V 540 H 1.4305e-5 Z"
         clip-rule="evenodd"
         id="path337" /></clipPath><clipPath
       clipPathUnits="userSpaceOnUse"
       id="clipPath351"><path
         d="M 1.4305e-5,0 H 960.00001 V 540 H 1.4305e-5 Z"
         clip-rule="evenodd"
         id="path349" /></clipPath><clipPath
       clipPathUnits="userSpaceOnUse"
       id="clipPath363"><path
         d="M 1.4305e-5,0 H 960.00001 V 540 H 1.4305e-5 Z"
         clip-rule="evenodd"
         id="path361" /></clipPath><clipPath
       clipPathUnits="userSpaceOnUse"
       id="clipPath375"><path
         d="M 1.4305e-5,0 H 960.00001 V 540 H 1.4305e-5 Z"
         clip-rule="evenodd"
         id="path373" /></clipPath><clipPath
       clipPathUnits="userSpaceOnUse"
       id="clipPath387"><path
         d="M 1.4305e-5,0 H 960.00001 V 540 H 1.4305e-5 Z"
         clip-rule="evenodd"
         id="path385" /></clipPath><clipPath
       clipPathUnits="userSpaceOnUse"
       id="clipPath399"><path
         d="M 1.4305e-5,0 H 960.00001 V 540 H 1.4305e-5 Z"
         clip-rule="evenodd"
         id="path397" /></clipPath><clipPath
       clipPathUnits="userSpaceOnUse"
       id="clipPath411"><path
         d="M 1.4305e-5,0 H 960.00001 V 540 H 1.4305e-5 Z"
         clip-rule="evenodd"
         id="path409" /></clipPath><clipPath
       clipPathUnits="userSpaceOnUse"
       id="clipPath423"><path
         d="M 1.4305e-5,0 H 960.00001 V 540 H 1.4305e-5 Z"
         clip-rule="evenodd"
         id="path421" /></clipPath><clipPath
       clipPathUnits="userSpaceOnUse"
       id="clipPath435"><path
         d="M 1.4305e-5,0 H 960.00001 V 540 H 1.4305e-5 Z"
         clip-rule="evenodd"
         id="path433" /></clipPath><clipPath
       clipPathUnits="userSpaceOnUse"
       id="clipPath447"><path
         d="M 1.4305e-5,0 H 960.00001 V 540 H 1.4305e-5 Z"
         clip-rule="evenodd"
         id="path445" /></clipPath><clipPath
       clipPathUnits="userSpaceOnUse"
       id="clipPath459"><path
         d="M 1.4305e-5,0 H 960.00001 V 540 H 1.4305e-5 Z"
         clip-rule="evenodd"
         id="path457" /></clipPath><clipPath
       clipPathUnits="userSpaceOnUse"
       id="clipPath471"><path
         d="M 1.4305e-5,0 H 960.00001 V 540 H 1.4305e-5 Z"
         clip-rule="evenodd"
         id="path469" /></clipPath><clipPath
       clipPathUnits="userSpaceOnUse"
       id="clipPath483"><path
         d="M 1.4305e-5,0 H 960.00001 V 540 H 1.4305e-5 Z"
         clip-rule="evenodd"
         id="path481" /></clipPath><clipPath
       clipPathUnits="userSpaceOnUse"
       id="clipPath495"><path
         d="M 1.4305e-5,0 H 960.00001 V 540 H 1.4305e-5 Z"
         clip-rule="evenodd"
         id="path493" /></clipPath><clipPath
       clipPathUnits="userSpaceOnUse"
       id="clipPath507"><path
         d="M 1.4305e-5,0 H 960.00001 V 540 H 1.4305e-5 Z"
         clip-rule="evenodd"
         id="path505" /></clipPath><clipPath
       clipPathUnits="userSpaceOnUse"
       id="clipPath519"><path
         d="M 1.4305e-5,0 H 960.00001 V 540 H 1.4305e-5 Z"
         clip-rule="evenodd"
         id="path517" /></clipPath><clipPath
       clipPathUnits="userSpaceOnUse"
       id="clipPath531"><path
         d="M 1.4305e-5,0 H 960.00001 V 540 H 1.4305e-5 Z"
         clip-rule="evenodd"
         id="path529" /></clipPath><clipPath
       clipPathUnits="userSpaceOnUse"
       id="clipPath543"><path
         d="M 1.4305e-5,0 H 960.00001 V 540 H 1.4305e-5 Z"
         clip-rule="evenodd"
         id="path541" /></clipPath><clipPath
       clipPathUnits="userSpaceOnUse"
       id="clipPath555"><path
         d="M 1.4305e-5,0 H 960.00001 V 540 H 1.4305e-5 Z"
         clip-rule="evenodd"
         id="path553" /></clipPath><clipPath
       clipPathUnits="userSpaceOnUse"
       id="clipPath567"><path
         d="M 1.4305e-5,0 H 960.00001 V 540 H 1.4305e-5 Z"
         clip-rule="evenodd"
         id="path565" /></clipPath><clipPath
       clipPathUnits="userSpaceOnUse"
       id="clipPath579"><path
         d="M 1.4305e-5,0 H 960.00001 V 540 H 1.4305e-5 Z"
         clip-rule="evenodd"
         id="path577" /></clipPath><clipPath
       clipPathUnits="userSpaceOnUse"
       id="clipPath591"><path
         d="M 1.4305e-5,0 H 960.00001 V 540 H 1.4305e-5 Z"
         clip-rule="evenodd"
         id="path589" /></clipPath><clipPath
       clipPathUnits="userSpaceOnUse"
       id="clipPath603"><path
         d="M 1.4305e-5,0 H 960.00001 V 540 H 1.4305e-5 Z"
         clip-rule="evenodd"
         id="path601" /></clipPath><clipPath
       clipPathUnits="userSpaceOnUse"
       id="clipPath615"><path
         d="M 1.4305e-5,0 H 960.00001 V 540 H 1.4305e-5 Z"
         clip-rule="evenodd"
         id="path613" /></clipPath><clipPath
       clipPathUnits="userSpaceOnUse"
       id="clipPath627"><path
         d="M 1.4305e-5,0 H 960.00001 V 540 H 1.4305e-5 Z"
         clip-rule="evenodd"
         id="path625" /></clipPath><clipPath
       clipPathUnits="userSpaceOnUse"
       id="clipPath639"><path
         d="M 1.4305e-5,0 H 960.00001 V 540 H 1.4305e-5 Z"
         clip-rule="evenodd"
         id="path637" /></clipPath><clipPath
       clipPathUnits="userSpaceOnUse"
       id="clipPath651"><path
         d="M 1.4305e-5,0 H 960.00001 V 540 H 1.4305e-5 Z"
         clip-rule="evenodd"
         id="path649" /></clipPath><clipPath
       clipPathUnits="userSpaceOnUse"
       id="clipPath663"><path
         d="M 1.4305e-5,0 H 960.00001 V 540 H 1.4305e-5 Z"
         clip-rule="evenodd"
         id="path661" /></clipPath><clipPath
       clipPathUnits="userSpaceOnUse"
       id="clipPath675"><path
         d="M 1.4305e-5,0 H 960.00001 V 540 H 1.4305e-5 Z"
         clip-rule="evenodd"
         id="path673" /></clipPath><clipPath
       clipPathUnits="userSpaceOnUse"
       id="clipPath687"><path
         d="M 1.4305e-5,0 H 960.00001 V 540 H 1.4305e-5 Z"
         clip-rule="evenodd"
         id="path685" /></clipPath><clipPath
       clipPathUnits="userSpaceOnUse"
       id="clipPath699"><path
         d="M 1.4305e-5,0 H 960.00001 V 540 H 1.4305e-5 Z"
         clip-rule="evenodd"
         id="path697" /></clipPath></defs><g
     id="g31"
     transform="matrix(1.3333333,0,0,-1.3333333,-63.199998,614.43302)"><g
       id="g33" /><path
       d="m 138.6,406.4 c 0,14.25 11.73,25.8 26.2,25.8 14.47,0 26.2,-11.55 26.2,-25.8 0,-14.25 -11.73,-25.8 -26.2,-25.8 -14.47,0 -26.2,11.55 -26.2,25.8 z"
       style="fill:#ffffff;fill-opacity:1;fill-rule:evenodd;stroke:none"
       id="path43" /><path
       d="m 138.6,406.4 c 0,14.25 11.73,25.8 26.2,25.8 14.47,0 26.2,-11.55 26.2,-25.8 0,-14.25 -11.73,-25.8 -26.2,-25.8 -14.47,0 -26.2,11.55 -26.2,25.8 z"
       style="fill:none;stroke:#000000;stroke-width:1.2;stroke-linecap:butt;stroke-linejoin:miter;stroke-miterlimit:10;stroke-dasharray:none;stroke-opacity:1"
       id="path45" /><g
       id="g47"><g
         id="g49"
         clip-path="url(#clipPath53)"><text
           transform="matrix(1,0,0,-1,157.02,401.33)"
           style="font-variant:normal;font-weight:normal;font-size:16.025px;font-family:Calibri;-inkscape-font-specification:Calibri;writing-mode:lr-tb;fill:#000000;fill-opacity:1;fill-rule:nonzero;stroke:none"
           id="text57"><tspan
             x="0"
             y="0"
             id="tspan55">V</tspan></text></g></g><g
       id="g59"><g
         id="g61"
         clip-path="url(#clipPath65)"><text
           transform="matrix(1,0,0,-1,166.23,397.73)"
           style="font-variant:normal;font-weight:normal;font-size:10.825px;font-family:Calibri;-inkscape-font-specification:Calibri;writing-mode:lr-tb;fill:#000000;fill-opacity:1;fill-rule:nonzero;stroke:none"
           id="text69"><tspan
             x="0"
             y="0"
             id="tspan67">-</tspan></text></g></g><g
       id="g71"><g
         id="g73"
         clip-path="url(#clipPath77)"><text
           transform="matrix(1,0,0,-1,169.43,397.73)"
           style="font-variant:normal;font-weight:normal;font-size:10.825px;font-family:Calibri;-inkscape-font-specification:Calibri;writing-mode:lr-tb;fill:#000000;fill-opacity:1;fill-rule:nonzero;stroke:none"
           id="text81"><tspan
             x="0"
             y="0"
             id="tspan79">1</tspan></text></g></g><path
       d="m 138.6,231.6 c 0,14.25 11.73,25.8 26.2,25.8 14.47,0 26.2,-11.55 26.2,-25.8 0,-14.25 -11.73,-25.8 -26.2,-25.8 -14.47,0 -26.2,11.55 -26.2,25.8 z"
       style="fill:#ffffff;fill-opacity:1;fill-rule:evenodd;stroke:none"
       id="path83" /><path
       d="m 138.6,231.6 c 0,14.25 11.73,25.8 26.2,25.8 14.47,0 26.2,-11.55 26.2,-25.8 0,-14.25 -11.73,-25.8 -26.2,-25.8 -14.47,0 -26.2,11.55 -26.2,25.8 z"
       style="fill:none;stroke:#000000;stroke-width:1.2;stroke-linecap:butt;stroke-linejoin:miter;stroke-miterlimit:10;stroke-dasharray:none;stroke-opacity:1"
       id="path85" /><g
       id="g87"><g
         id="g89"
         clip-path="url(#clipPath93)"><text
           transform="matrix(1,0,0,-1,157.08,226.32)"
           style="font-variant:normal;font-weight:normal;font-size:16px;font-family:Calibri;-inkscape-font-specification:Calibri;writing-mode:lr-tb;fill:#000000;fill-opacity:1;fill-rule:nonzero;stroke:none"
           id="text97"><tspan
             x="0"
             y="0"
             id="tspan95">V</tspan></text></g></g><g
       id="g99"><g
         id="g101"
         clip-path="url(#clipPath105)"><text
           transform="matrix(1,0,0,-1,166.28,222.73)"
           style="font-variant:normal;font-weight:normal;font-size:10.8px;font-family:Calibri;-inkscape-font-specification:Calibri;writing-mode:lr-tb;fill:#000000;fill-opacity:1;fill-rule:nonzero;stroke:none"
           id="text109"><tspan
             x="0"
             y="0"
             id="tspan107">0</tspan></text></g></g><path
       d="m 327.8,406.4 c 0,14.25 11.64,25.8 26,25.8 14.36,0 26,-11.55 26,-25.8 0,-14.25 -11.64,-25.8 -26,-25.8 -14.36,0 -26,11.55 -26,25.8 z"
       style="fill:#ffffff;fill-opacity:1;fill-rule:evenodd;stroke:none"
       id="path111" /><path
       d="m 327.8,406.4 c 0,14.25 11.64,25.8 26,25.8 14.36,0 26,-11.55 26,-25.8 0,-14.25 -11.64,-25.8 -26,-25.8 -14.36,0 -26,11.55 -26,25.8 z"
       style="fill:none;stroke:#000000;stroke-width:1.2;stroke-linecap:butt;stroke-linejoin:miter;stroke-miterlimit:10;stroke-dasharray:none;stroke-opacity:1"
       id="path113" /><g
       id="g115"><g
         id="g117"
         clip-path="url(#clipPath121)"><text
           transform="matrix(1,0,0,-1,346,401.33)"
           style="font-variant:normal;font-weight:normal;font-size:16.025px;font-family:Calibri;-inkscape-font-specification:Calibri;writing-mode:lr-tb;fill:#000000;fill-opacity:1;fill-rule:nonzero;stroke:none"
           id="text125"><tspan
             x="0"
             y="0"
             id="tspan123">V</tspan></text></g></g><g
       id="g127"><g
         id="g129"
         clip-path="url(#clipPath133)"><text
           transform="matrix(1,0,0,-1,355.2,397.73)"
           style="font-variant:normal;font-weight:normal;font-size:10.825px;font-family:Calibri;-inkscape-font-specification:Calibri;writing-mode:lr-tb;fill:#000000;fill-opacity:1;fill-rule:nonzero;stroke:none"
           id="text137"><tspan
             x="0"
             y="0"
             id="tspan135">1</tspan></text></g></g><path
       d="m 328.2,310.4 c 0,14.25 11.73,25.8 26.2,25.8 14.47,0 26.2,-11.55 26.2,-25.8 0,-14.25 -11.73,-25.8 -26.2,-25.8 -14.47,0 -26.2,11.55 -26.2,25.8 z"
       style="fill:#ffffff;fill-opacity:1;fill-rule:evenodd;stroke:none"
       id="path139" /><path
       d="m 328.2,310.4 c 0,14.25 11.73,25.8 26.2,25.8 14.47,0 26.2,-11.55 26.2,-25.8 0,-14.25 -11.73,-25.8 -26.2,-25.8 -14.47,0 -26.2,11.55 -26.2,25.8 z"
       style="fill:none;stroke:#000000;stroke-width:1.2;stroke-linecap:butt;stroke-linejoin:miter;stroke-miterlimit:10;stroke-dasharray:none;stroke-opacity:1"
       id="path141" /><g
       id="g143"><g
         id="g145"
         clip-path="url(#clipPath149)"><text
           transform="matrix(1,0,0,-1,346.7,305.17)"
           style="font-variant:normal;font-weight:normal;font-size:16.025px;font-family:Calibri;-inkscape-font-specification:Calibri;writing-mode:lr-tb;fill:#000000;fill-opacity:1;fill-rule:nonzero;stroke:none"
           id="text153"><tspan
             x="0"
             y="0"
             id="tspan151">V</tspan></text></g></g><g
       id="g155"><g
         id="g157"
         clip-path="url(#clipPath161)"><text
           transform="matrix(1,0,0,-1,355.9,301.58)"
           style="font-variant:normal;font-weight:normal;font-size:10.825px;font-family:Calibri;-inkscape-font-specification:Calibri;writing-mode:lr-tb;fill:#000000;fill-opacity:1;fill-rule:nonzero;stroke:none"
           id="text165"><tspan
             x="0"
             y="0"
             id="tspan163">2</tspan></text></g></g><path
       d="m 516.6,406.4 c 0,14.25 11.64,25.8 26,25.8 14.36,0 26,-11.55 26,-25.8 0,-14.25 -11.64,-25.8 -26,-25.8 -14.36,0 -26,11.55 -26,25.8 z"
       style="fill:#ffffff;fill-opacity:1;fill-rule:evenodd;stroke:none"
       id="path167" /><path
       d="m 516.6,406.4 c 0,14.25 11.64,25.8 26,25.8 14.36,0 26,-11.55 26,-25.8 0,-14.25 -11.64,-25.8 -26,-25.8 -14.36,0 -26,11.55 -26,25.8 z"
       style="fill:none;stroke:#000000;stroke-width:1.2;stroke-linecap:butt;stroke-linejoin:miter;stroke-miterlimit:10;stroke-dasharray:none;stroke-opacity:1"
       id="path169" /><g
       id="g171"><g
         id="g173"
         clip-path="url(#clipPath177)"><text
           transform="matrix(1,0,0,-1,535,401.33)"
           style="font-variant:normal;font-weight:normal;font-size:16.025px;font-family:Calibri;-inkscape-font-specification:Calibri;writing-mode:lr-tb;fill:#000000;fill-opacity:1;fill-rule:nonzero;stroke:none"
           id="text181"><tspan
             x="0"
             y="0"
             id="tspan179">V</tspan></text></g></g><g
       id="g183"><g
         id="g185"
         clip-path="url(#clipPath189)"><text
           transform="matrix(1,0,0,-1,544.2,397.73)"
           style="font-variant:normal;font-weight:normal;font-size:10.825px;font-family:Calibri;-inkscape-font-specification:Calibri;writing-mode:lr-tb;fill:#000000;fill-opacity:1;fill-rule:nonzero;stroke:none"
           id="text193"><tspan
             x="0"
             y="0"
             id="tspan191">4</tspan></text></g></g><path
       d="m 517.8,231.6 c 0,14.25 11.64,25.8 26,25.8 14.36,0 26,-11.55 26,-25.8 0,-14.25 -11.64,-25.8 -26,-25.8 -14.36,0 -26,11.55 -26,25.8 z"
       style="fill:#ffffff;fill-opacity:1;fill-rule:evenodd;stroke:none"
       id="path195" /><path
       d="m 517.8,231.6 c 0,14.25 11.64,25.8 26,25.8 14.36,0 26,-11.55 26,-25.8 0,-14.25 -11.64,-25.8 -26,-25.8 -14.36,0 -26,11.55 -26,25.8 z"
       style="fill:none;stroke:#000000;stroke-width:1.2;stroke-linecap:butt;stroke-linejoin:miter;stroke-miterlimit:10;stroke-dasharray:none;stroke-opacity:1"
       id="path197" /><g
       id="g199"><g
         id="g201"
         clip-path="url(#clipPath205)"><text
           transform="matrix(1,0,0,-1,536.35,226.32)"
           style="font-variant:normal;font-weight:normal;font-size:16px;font-family:Calibri;-inkscape-font-specification:Calibri;writing-mode:lr-tb;fill:#000000;fill-opacity:1;fill-rule:nonzero;stroke:none"
           id="text209"><tspan
             x="0"
             y="0"
             id="tspan207">V</tspan></text></g></g><g
       id="g211"><g
         id="g213"
         clip-path="url(#clipPath217)"><text
           transform="matrix(1,0,0,-1,545.55,222.73)"
           style="font-variant:normal;font-weight:normal;font-size:10.8px;font-family:Calibri;-inkscape-font-specification:Calibri;writing-mode:lr-tb;fill:#000000;fill-opacity:1;fill-rule:nonzero;stroke:none"
           id="text221"><tspan
             x="0"
             y="0"
             id="tspan219">3</tspan></text></g></g><path
       d="m 674.6,310.4 c 0,14.25 11.64,25.8 26,25.8 14.36,0 26,-11.55 26,-25.8 0,-14.25 -11.64,-25.8 -26,-25.8 -14.36,0 -26,11.55 -26,25.8 z"
       style="fill:#ffffff;fill-opacity:1;fill-rule:evenodd;stroke:none"
       id="path223" /><path
       d="m 674.6,310.4 c 0,14.25 11.64,25.8 26,25.8 14.36,0 26,-11.55 26,-25.8 0,-14.25 -11.64,-25.8 -26,-25.8 -14.36,0 -26,11.55 -26,25.8 z"
       style="fill:none;stroke:#000000;stroke-width:1.2;stroke-linecap:butt;stroke-linejoin:miter;stroke-miterlimit:10;stroke-dasharray:none;stroke-opacity:1"
       id="path225" /><g
       id="g227"><g
         id="g229"
         clip-path="url(#clipPath233)"><text
           transform="matrix(1,0,0,-1,693.13,305.17)"
           style="font-variant:normal;font-weight:normal;font-size:16.025px;font-family:Calibri;-inkscape-font-specification:Calibri;writing-mode:lr-tb;fill:#000000;fill-opacity:1;fill-rule:nonzero;stroke:none"
           id="text237"><tspan
             x="0"
             y="0"
             id="tspan235">V</tspan></text></g></g><g
       id="g239"><g
         id="g241"
         clip-path="url(#clipPath245)"><text
           transform="matrix(1,0,0,-1,702.33,301.58)"
           style="font-variant:normal;font-weight:normal;font-size:10.825px;font-family:Calibri;-inkscape-font-specification:Calibri;writing-mode:lr-tb;fill:#000000;fill-opacity:1;fill-rule:nonzero;stroke:none"
           id="text249"><tspan
             x="0"
             y="0"
             id="tspan247">5</tspan></text></g></g><path
       d="m 191,406 h 131.8 v 1.2 H 191 Z m 130.8,-2.4 6,3 -6,3 z"
       style="fill:#000000;fill-opacity:1;fill-rule:nonzero;stroke:none"
       id="path251" /><path
       d="M 191.28,407.13 332,331.6 l -0.56,-1.06 -140.72,75.53 z m 140.98,-72.94 3.87,-5.48 -6.71,0.19 z"
       style="fill:#000000;fill-opacity:1;fill-rule:nonzero;stroke:none"
       id="path253" /><path
       d="m 191.23,231.05 140.46,58.67 -0.46,1.11 -140.46,-58.67 z m 140.46,56.07 4.38,5.08 -6.69,0.46 z"
       style="fill:#000000;fill-opacity:1;fill-rule:nonzero;stroke:none"
       id="path255" /><path
       d="m 379.8,406 h 131.8 v 1.2 H 379.8 Z m 130.8,-2.4 6,3 -6,3 z"
       style="fill:#000000;fill-opacity:1;fill-rule:nonzero;stroke:none"
       id="path257" /><path
       d="m 380.89,309.78 139.34,75.51 -0.57,1.06 -139.35,-75.52 z m 139.6,72.92 3.85,5.5 -6.71,-0.22 z"
       style="fill:#000000;fill-opacity:1;fill-rule:nonzero;stroke:none"
       id="path259" /><path
       d="M 191,230.8 H 513 V 232 H 191 Z m 321,-2.4 6,3 -6,3 z"
       style="fill:#000000;fill-opacity:1;fill-rule:nonzero;stroke:none"
       id="path261" /><path
       d="m 570.08,231.07 107.84,58.23 -0.57,1.05 -107.84,-58.22 z m 108.1,55.64 3.86,5.49 -6.71,-0.21 z"
       style="fill:#000000;fill-opacity:1;fill-rule:nonzero;stroke:none"
       id="path263" /><path
       d="m 568.94,407.09 109.45,-75.06 -0.68,-0.99 -109.45,75.07 z m 109.98,-72.52 3.25,-5.86 -6.64,0.92 z"
       style="fill:#000000;fill-opacity:1;fill-rule:nonzero;stroke:none"
       id="path265" /><path
       d="m 726.6,309.6 h 89.29 v 1.2 H 726.6 Z m 88.29,-2.4 6,3 -6,3 z"
       style="fill:#000000;fill-opacity:1;fill-rule:nonzero;stroke:none"
       id="path267" /><path
       d="m 47.4,407.2 h 86.2 V 406 H 47.4 Z m 85.2,2.4 6,-3 -6,-3 z"
       style="fill:#000000;fill-opacity:1;fill-rule:nonzero;stroke:none"
       id="path269" /><path
       d="m 47.4,232 h 86.2 v -1.2 H 47.4 Z m 85.2,2.4 6,-3 -6,-3 z"
       style="fill:#000000;fill-opacity:1;fill-rule:nonzero;stroke:none"
       id="path271" /><g
       id="g273"><g
         id="g275"
         clip-path="url(#clipPath279)"><text
           transform="matrix(1,0,0,-1,57.7,418.02)"
           style="font-variant:normal;font-weight:normal;font-size:18.025px;font-family:Calibri;-inkscape-font-specification:Calibri;writing-mode:lr-tb;fill:#000000;fill-opacity:1;fill-rule:nonzero;stroke:none"
           id="text283"><tspan
             x="0"
             y="0"
             id="tspan281">X</tspan></text></g></g><g
       id="g285"><g
         id="g287"
         clip-path="url(#clipPath291)"><text
           transform="matrix(1,0,0,-1,66.9,414.02)"
           style="font-variant:normal;font-weight:normal;font-size:12.025px;font-family:Calibri;-inkscape-font-specification:Calibri;writing-mode:lr-tb;fill:#000000;fill-opacity:1;fill-rule:nonzero;stroke:none"
           id="text295"><tspan
             x="0"
             y="0"
             id="tspan293">1</tspan></text></g></g><g
       id="g297"><g
         id="g299"
         clip-path="url(#clipPath303)"><text
           transform="matrix(1,0,0,-1,59.35,243.2)"
           style="font-variant:normal;font-weight:normal;font-size:18px;font-family:Calibri;-inkscape-font-specification:Calibri;writing-mode:lr-tb;fill:#000000;fill-opacity:1;fill-rule:nonzero;stroke:none"
           id="text307"><tspan
             x="0"
             y="0"
             id="tspan305">X</tspan></text></g></g><g
       id="g309"><g
         id="g311"
         clip-path="url(#clipPath315)"><text
           transform="matrix(1,0,0,-1,68.55,239.2)"
           style="font-variant:normal;font-weight:normal;font-size:12px;font-family:Calibri;-inkscape-font-specification:Calibri;writing-mode:lr-tb;fill:#000000;fill-opacity:1;fill-rule:nonzero;stroke:none"
           id="text319"><tspan
             x="0"
             y="0"
             id="tspan317">2</tspan></text></g></g><g
       id="g321"><g
         id="g323"
         clip-path="url(#clipPath327)"><text
           transform="matrix(1,0,0,-1,328.6,447.13)"
           style="font-variant:normal;font-weight:normal;font-size:18.025px;font-family:Calibri;-inkscape-font-specification:Calibri;writing-mode:lr-tb;fill:#000000;fill-opacity:1;fill-rule:nonzero;stroke:none"
           id="text331"><tspan
             x="0"
             y="0"
             id="tspan329">V</tspan></text></g></g><g
       id="g333"><g
         id="g335"
         clip-path="url(#clipPath339)"><text
           transform="matrix(1,0,0,-1,339,443.13)"
           style="font-variant:normal;font-weight:normal;font-size:12.025px;font-family:Calibri;-inkscape-font-specification:Calibri;writing-mode:lr-tb;fill:#000000;fill-opacity:1;fill-rule:nonzero;stroke:none"
           id="text343"><tspan
             x="0"
             y="0"
             id="tspan341">1</tspan></text></g></g><g
       id="g345"><g
         id="g347"
         clip-path="url(#clipPath351)"><text
           transform="matrix(1,0,0,-1,349.4,447.13)"
           style="font-variant:normal;font-weight:normal;font-size:18.025px;font-family:Calibri;-inkscape-font-specification:Calibri;writing-mode:lr-tb;fill:#000000;fill-opacity:1;fill-rule:nonzero;stroke:none"
           id="text355"><tspan
             x="0"
             y="0"
             id="tspan353">=</tspan></text></g></g><g
       id="g357"><g
         id="g359"
         clip-path="url(#clipPath363)"><text
           transform="matrix(1,0,0,-1,362.2,447.13)"
           style="font-variant:normal;font-weight:normal;font-size:18.025px;font-family:Calibri;-inkscape-font-specification:Calibri;writing-mode:lr-tb;fill:#000000;fill-opacity:1;fill-rule:nonzero;stroke:none"
           id="text367"><tspan
             x="0 4.0195751 13.6269 19.232676"
             y="0"
             id="tspan365">ln(V</tspan></text></g></g><g
       id="g369"><g
         id="g371"
         clip-path="url(#clipPath375)"><text
           transform="matrix(1,0,0,-1,391.82,443.13)"
           style="font-variant:normal;font-weight:normal;font-size:12.025px;font-family:Calibri;-inkscape-font-specification:Calibri;writing-mode:lr-tb;fill:#000000;fill-opacity:1;fill-rule:nonzero;stroke:none"
           id="text379"><tspan
             x="0"
             y="0"
             id="tspan377">-</tspan></text></g></g><g
       id="g381"><g
         id="g383"
         clip-path="url(#clipPath387)"><text
           transform="matrix(1,0,0,-1,395.42,443.13)"
           style="font-variant:normal;font-weight:normal;font-size:12.025px;font-family:Calibri;-inkscape-font-specification:Calibri;writing-mode:lr-tb;fill:#000000;fill-opacity:1;fill-rule:nonzero;stroke:none"
           id="text391"><tspan
             x="0"
             y="0"
             id="tspan389">1</tspan></text></g></g><g
       id="g393"><g
         id="g395"
         clip-path="url(#clipPath399)"><text
           transform="matrix(1,0,0,-1,401.43,447.13)"
           style="font-variant:normal;font-weight:normal;font-size:18.025px;font-family:Calibri;-inkscape-font-specification:Calibri;writing-mode:lr-tb;fill:#000000;fill-opacity:1;fill-rule:nonzero;stroke:none"
           id="text403"><tspan
             x="0"
             y="0"
             id="tspan401">)</tspan></text></g></g><g
       id="g405"><g
         id="g407"
         clip-path="url(#clipPath411)"><text
           transform="matrix(1,0,0,-1,502.43,279.73)"
           style="font-variant:normal;font-weight:normal;font-size:18.025px;font-family:Calibri;-inkscape-font-specification:Calibri;writing-mode:lr-tb;fill:#000000;fill-opacity:1;fill-rule:nonzero;stroke:none"
           id="text415"><tspan
             x="0"
             y="0"
             id="tspan413">V</tspan></text></g></g><g
       id="g417"><g
         id="g419"
         clip-path="url(#clipPath423)"><text
           transform="matrix(1,0,0,-1,512.83,275.7)"
           style="font-variant:normal;font-weight:normal;font-size:12px;font-family:Calibri;-inkscape-font-specification:Calibri;writing-mode:lr-tb;fill:#000000;fill-opacity:1;fill-rule:nonzero;stroke:none"
           id="text427"><tspan
             x="0"
             y="0"
             id="tspan425">3</tspan></text></g></g><g
       id="g429"><g
         id="g431"
         clip-path="url(#clipPath435)"><text
           transform="matrix(1,0,0,-1,522.85,279.73)"
           style="font-variant:normal;font-weight:normal;font-size:18.025px;font-family:Calibri;-inkscape-font-specification:Calibri;writing-mode:lr-tb;fill:#000000;fill-opacity:1;fill-rule:nonzero;stroke:none"
           id="text439"><tspan
             x="0 8.7961998 13.176275 20.350225 24.351774 33.941074 39.528824"
             y="0"
             id="tspan437">= sin(V</tspan></text></g></g><g
       id="g441"><g
         id="g443"
         clip-path="url(#clipPath447)"><text
           transform="matrix(1,0,0,-1,572.85,275.7)"
           style="font-variant:normal;font-weight:normal;font-size:12px;font-family:Calibri;-inkscape-font-specification:Calibri;writing-mode:lr-tb;fill:#000000;fill-opacity:1;fill-rule:nonzero;stroke:none"
           id="text451"><tspan
             x="0"
             y="0"
             id="tspan449">0</tspan></text></g></g><g
       id="g453"><g
         id="g455"
         clip-path="url(#clipPath459)"><text
           transform="matrix(1,0,0,-1,578.88,279.73)"
           style="font-variant:normal;font-weight:normal;font-size:18.025px;font-family:Calibri;-inkscape-font-specification:Calibri;writing-mode:lr-tb;fill:#000000;fill-opacity:1;fill-rule:nonzero;stroke:none"
           id="text463"><tspan
             x="0"
             y="0"
             id="tspan461">)</tspan></text></g></g><g
       id="g465"><g
         id="g467"
         clip-path="url(#clipPath471)"><text
           transform="matrix(1,0,0,-1,330.02,348.83)"
           style="font-variant:normal;font-weight:normal;font-size:18.025px;font-family:Calibri;-inkscape-font-specification:Calibri;writing-mode:lr-tb;fill:#000000;fill-opacity:1;fill-rule:nonzero;stroke:none"
           id="text475"><tspan
             x="0"
             y="0"
             id="tspan473">V</tspan></text></g></g><g
       id="g477"><g
         id="g479"
         clip-path="url(#clipPath483)"><text
           transform="matrix(1,0,0,-1,340.43,344.83)"
           style="font-variant:normal;font-weight:normal;font-size:12.025px;font-family:Calibri;-inkscape-font-specification:Calibri;writing-mode:lr-tb;fill:#000000;fill-opacity:1;fill-rule:nonzero;stroke:none"
           id="text487"><tspan
             x="0"
             y="0"
             id="tspan485">2</tspan></text></g></g><g
       id="g489"><g
         id="g491"
         clip-path="url(#clipPath495)"><text
           transform="matrix(1,0,0,-1,350.42,348.83)"
           style="font-variant:normal;font-weight:normal;font-size:18.025px;font-family:Calibri;-inkscape-font-specification:Calibri;writing-mode:lr-tb;fill:#000000;fill-opacity:1;fill-rule:nonzero;stroke:none"
           id="text499"><tspan
             x="0 8.8322496 13.212325"
             y="0"
             id="tspan497">= V</tspan></text></g></g><g
       id="g501"><g
         id="g503"
         clip-path="url(#clipPath507)"><text
           transform="matrix(1,0,0,-1,374.05,344.83)"
           style="font-variant:normal;font-weight:normal;font-size:12.025px;font-family:Calibri;-inkscape-font-specification:Calibri;writing-mode:lr-tb;fill:#000000;fill-opacity:1;fill-rule:nonzero;stroke:none"
           id="text511"><tspan
             x="0"
             y="0"
             id="tspan509">-</tspan></text></g></g><g
       id="g513"><g
         id="g515"
         clip-path="url(#clipPath519)"><text
           transform="matrix(1,0,0,-1,377.65,344.83)"
           style="font-variant:normal;font-weight:normal;font-size:12.025px;font-family:Calibri;-inkscape-font-specification:Calibri;writing-mode:lr-tb;fill:#000000;fill-opacity:1;fill-rule:nonzero;stroke:none"
           id="text523"><tspan
             x="0"
             y="0"
             id="tspan521">1</tspan></text></g></g><g
       id="g525"><g
         id="g527"
         clip-path="url(#clipPath531)"><text
           transform="matrix(1,0,0,-1,383.65,348.83)"
           style="font-variant:normal;font-weight:normal;font-size:18.025px;font-family:Calibri;-inkscape-font-specification:Calibri;writing-mode:lr-tb;fill:#000000;fill-opacity:1;fill-rule:nonzero;stroke:none"
           id="text535"><tspan
             x="0"
             y="0"
             id="tspan533">V</tspan></text></g></g><g
       id="g537"><g
         id="g539"
         clip-path="url(#clipPath543)"><text
           transform="matrix(1,0,0,-1,394.05,344.83)"
           style="font-variant:normal;font-weight:normal;font-size:12.025px;font-family:Calibri;-inkscape-font-specification:Calibri;writing-mode:lr-tb;fill:#000000;fill-opacity:1;fill-rule:nonzero;stroke:none"
           id="text547"><tspan
             x="0"
             y="0"
             id="tspan545">0</tspan></text></g></g><g
       id="g549"><g
         id="g551"
         clip-path="url(#clipPath555)"><text
           transform="matrix(1,0,0,-1,502.43,447.13)"
           style="font-variant:normal;font-weight:normal;font-size:18.025px;font-family:Calibri;-inkscape-font-specification:Calibri;writing-mode:lr-tb;fill:#000000;fill-opacity:1;fill-rule:nonzero;stroke:none"
           id="text559"><tspan
             x="0"
             y="0"
             id="tspan557">V</tspan></text></g></g><g
       id="g561"><g
         id="g563"
         clip-path="url(#clipPath567)"><text
           transform="matrix(1,0,0,-1,512.83,443.13)"
           style="font-variant:normal;font-weight:normal;font-size:12.025px;font-family:Calibri;-inkscape-font-specification:Calibri;writing-mode:lr-tb;fill:#000000;fill-opacity:1;fill-rule:nonzero;stroke:none"
           id="text571"><tspan
             x="0"
             y="0"
             id="tspan569">4</tspan></text></g></g><g
       id="g573"><g
         id="g575"
         clip-path="url(#clipPath579)"><text
           transform="matrix(1,0,0,-1,522.85,447.13)"
           style="font-variant:normal;font-weight:normal;font-size:18.025px;font-family:Calibri;-inkscape-font-specification:Calibri;writing-mode:lr-tb;fill:#000000;fill-opacity:1;fill-rule:nonzero;stroke:none"
           id="text583"><tspan
             x="0 8.7961998 13.176275"
             y="0"
             id="tspan581">= V</tspan></text></g></g><g
       id="g585"><g
         id="g587"
         clip-path="url(#clipPath591)"><text
           transform="matrix(1,0,0,-1,546.45,443.13)"
           style="font-variant:normal;font-weight:normal;font-size:12.025px;font-family:Calibri;-inkscape-font-specification:Calibri;writing-mode:lr-tb;fill:#000000;fill-opacity:1;fill-rule:nonzero;stroke:none"
           id="text595"><tspan
             x="0"
             y="0"
             id="tspan593">1</tspan></text></g></g><g
       id="g597"><g
         id="g599"
         clip-path="url(#clipPath603)"><text
           transform="matrix(1,0,0,-1,556.45,447.13)"
           style="font-variant:normal;font-weight:normal;font-size:18.025px;font-family:Calibri;-inkscape-font-specification:Calibri;writing-mode:lr-tb;fill:#000000;fill-opacity:1;fill-rule:nonzero;stroke:none"
           id="text607"><tspan
             x="0 8.7961998 13.176275"
             y="0"
             id="tspan605">+ V</tspan></text></g></g><g
       id="g609"><g
         id="g611"
         clip-path="url(#clipPath615)"><text
           transform="matrix(1,0,0,-1,580.07,443.13)"
           style="font-variant:normal;font-weight:normal;font-size:12.025px;font-family:Calibri;-inkscape-font-specification:Calibri;writing-mode:lr-tb;fill:#000000;fill-opacity:1;fill-rule:nonzero;stroke:none"
           id="text619"><tspan
             x="0"
             y="0"
             id="tspan617">2</tspan></text></g></g><g
       id="g621"><g
         id="g623"
         clip-path="url(#clipPath627)"><text
           transform="matrix(1,0,0,-1,681.9,348.83)"
           style="font-variant:normal;font-weight:normal;font-size:18.025px;font-family:Calibri;-inkscape-font-specification:Calibri;writing-mode:lr-tb;fill:#000000;fill-opacity:1;fill-rule:nonzero;stroke:none"
           id="text631"><tspan
             x="0"
             y="0"
             id="tspan629">V</tspan></text></g></g><g
       id="g633"><g
         id="g635"
         clip-path="url(#clipPath639)"><text
           transform="matrix(1,0,0,-1,692.3,344.83)"
           style="font-variant:normal;font-weight:normal;font-size:12.025px;font-family:Calibri;-inkscape-font-specification:Calibri;writing-mode:lr-tb;fill:#000000;fill-opacity:1;fill-rule:nonzero;stroke:none"
           id="text643"><tspan
             x="0"
             y="0"
             id="tspan641">5</tspan></text></g></g><g
       id="g645"><g
         id="g647"
         clip-path="url(#clipPath651)"><text
           transform="matrix(1,0,0,-1,702.3,348.83)"
           style="font-variant:normal;font-weight:normal;font-size:18.025px;font-family:Calibri;-inkscape-font-specification:Calibri;writing-mode:lr-tb;fill:#000000;fill-opacity:1;fill-rule:nonzero;stroke:none"
           id="text655"><tspan
             x="0 8.7961998 13.176275"
             y="0"
             id="tspan653">= V</tspan></text></g></g><g
       id="g657"><g
         id="g659"
         clip-path="url(#clipPath663)"><text
           transform="matrix(1,0,0,-1,725.9,344.83)"
           style="font-variant:normal;font-weight:normal;font-size:12.025px;font-family:Calibri;-inkscape-font-specification:Calibri;writing-mode:lr-tb;fill:#000000;fill-opacity:1;fill-rule:nonzero;stroke:none"
           id="text667"><tspan
             x="0"
             y="0"
             id="tspan665">4</tspan></text></g></g><g
       id="g669"><g
         id="g671"
         clip-path="url(#clipPath675)"><text
           transform="matrix(1,0,0,-1,735.9,348.83)"
           style="font-variant:normal;font-weight:normal;font-size:18.025px;font-family:Calibri;-inkscape-font-specification:Calibri;writing-mode:lr-tb;fill:#000000;fill-opacity:1;fill-rule:nonzero;stroke:none"
           id="text679"><tspan
             x="0"
             y="0"
             id="tspan677">-</tspan></text></g></g><g
       id="g681"><g
         id="g683"
         clip-path="url(#clipPath687)"><text
           transform="matrix(1,0,0,-1,745.53,348.83)"
           style="font-variant:normal;font-weight:normal;font-size:18.025px;font-family:Calibri;-inkscape-font-specification:Calibri;writing-mode:lr-tb;fill:#000000;fill-opacity:1;fill-rule:nonzero;stroke:none"
           id="text691"><tspan
             x="0"
             y="0"
             id="tspan689">V</tspan></text></g></g><g
       id="g693"><g
         id="g695"
         clip-path="url(#clipPath699)"><text
           transform="matrix(1,0,0,-1,755.93,344.83)"
           style="font-variant:normal;font-weight:normal;font-size:12.025px;font-family:Calibri;-inkscape-font-specification:Calibri;writing-mode:lr-tb;fill:#000000;fill-opacity:1;fill-rule:nonzero;stroke:none"
           id="text703"><tspan
             x="0"
             y="0"
             id="tspan701">3</tspan></text></g></g></g></svg>
