<?xml version="1.0" encoding="UTF-8" standalone="no"?>
<!-- Created with Inkscape (http://www.inkscape.org/) -->

<svg
   width="245.84119mm"
   height="115.22363mm"
   viewBox="0 0 245.84119 115.22364"
   version="1.1"
   id="svg5"
   inkscape:version="1.1.2 (1:1.1+202202050950+0a00cf5339)"
   sodipodi:docname="ch10-abstract-recommendation-systems.svg"
   xmlns:inkscape="http://www.inkscape.org/namespaces/inkscape"
   xmlns:sodipodi="http://sodipodi.sourceforge.net/DTD/sodipodi-0.dtd"
   xmlns="http://www.w3.org/2000/svg"
   xmlns:svg="http://www.w3.org/2000/svg">
  <sodipodi:namedview
     id="namedview7"
     pagecolor="#ffffff"
     bordercolor="#666666"
     borderopacity="1.0"
     inkscape:pageshadow="2"
     inkscape:pageopacity="0.0"
     inkscape:pagecheckerboard="0"
     inkscape:document-units="mm"
     showgrid="false"
     fit-margin-top="0"
     fit-margin-left="0"
     fit-margin-right="0"
     fit-margin-bottom="0"
     inkscape:zoom="0.90583672"
     inkscape:cx="809.74858"
     inkscape:cy="397.97459"
     inkscape:window-width="1848"
     inkscape:window-height="1136"
     inkscape:window-x="72"
     inkscape:window-y="27"
     inkscape:window-maximized="1"
     inkscape:current-layer="g1236" />
  <defs
     id="defs2">
    <clipPath
       clipPathUnits="userSpaceOnUse"
       id="clipPath25">
      <path
         d="M 0,0.1636355 H 536.9455 V 351.00004 H 0 Z"
         id="path23" />
    </clipPath>
    <clipPath
       clipPathUnits="userSpaceOnUse"
       id="clipPath905">
      <path
         d="M 0,1.206994e-5 H 959.76 V 540.00001 H 0 Z"
         id="path903" />
    </clipPath>
    <clipPath
       clipPathUnits="userSpaceOnUse"
       id="clipPath1246">
      <path
         d="M 0,0.07272646 H 698.8364 V 328.00003 H 0 Z"
         id="path1244" />
    </clipPath>
  </defs>
  <g
     inkscape:label="Layer 1"
     inkscape:groupmode="layer"
     id="layer1"
     transform="translate(-7.4951336,-56.575409)">
    <g
       id="g15"
       inkscape:label="ch11-recommendation-models(1)"
       transform="matrix(0.35277777,0,0,-0.35277777,44.08155,178.42815)">
      <g
         id="g17" />
      <g
         id="g29">
        <g
           id="g1236"
           inkscape:label="ch11-abstract-recommendation-systems(1)"
           transform="translate(-314.29928,7.6998617)">
          <g
             id="g1238" />
          <g
             id="g1250"
             transform="translate(-74.216339)">
            <path
               d="M 284.80609,337.70949 H 981.67874 V 74.364063 H 284.80609 Z"
               style="fill:#e7e6e6;fill-opacity:1;fill-rule:nonzero;stroke:none"
               id="path1252" />
            <path
               d="m 658.55154,246.14539 c 0,12.1305 9.8336,21.9641 21.9641,21.9641 h 87.8536 c 12.1305,0 21.9641,-9.8336 21.9641,-21.9641 v -132.3628 c 0,-12.1304 -9.8336,-21.964037 -21.9641,-21.964037 h -87.8536 c -12.1305,0 -21.9641,9.833637 -21.9641,21.964037 z"
               style="fill:#deebf7;fill-opacity:1;fill-rule:evenodd;stroke:none"
               id="path1258" />
            <g
               id="g1260"
               transform="matrix(7.874016e-5,0,0,-7.874016e-5,658.55154,268.10949)">
              <path
                 d="M 0,278943.7 C 0,124887.3 124887.4,0 278943.9,0 H 1394685 c 154057,0 278944,124887.3 278944,278943.7 V 1959951 c 0,154057 -124887,278944 -278944,278944 H 278943.9 C 124887.4,2238895 0,2114008 0,1959951 Z"
                 style="fill:none;stroke:#2f528f;stroke-width:12700;stroke-linecap:butt;stroke-linejoin:miter;stroke-miterlimit:8;stroke-dasharray:none;stroke-opacity:1"
                 id="path1262" />
            </g>
            <g
               id="g1264"
               transform="matrix(0.2181818,0,0,0.2181818,688.28324,-153.92681)">
              <text
                 transform="matrix(1,0,0,-1,0,1503)"
                 style="font-variant:normal;font-weight:normal;font-size:83px;font-family:DengXian;-inkscape-font-specification:DengXian-Regular;writing-mode:lr-tb;fill:#000000;fill-opacity:1;fill-rule:nonzero;stroke:none"
                 id="text1268"><tspan
                   x="0 82.501991"
                   y="0"
                   sodipodi:role="line"
                   id="tspan1266">模型</tspan></text>
            </g>
            <g
               id="g1270"
               transform="matrix(0.2181818,0,0,0.2181818,724.28324,-153.92681)">
              <text
                 transform="matrix(1,0,0,-1,0,1503)"
                 style="font-variant:normal;font-weight:normal;font-size:83px;font-family:DengXian;-inkscape-font-specification:DengXian-Regular;writing-mode:lr-tb;fill:#000000;fill-opacity:1;fill-rule:nonzero;stroke:none"
                 id="text1274"><tspan
                   x="0 82.501991"
                   y="0"
                   sodipodi:role="line"
                   id="tspan1272">训练</tspan></text>
            </g>
            <path
               d="m 315.7879,147.81839 c 0,6.1857 5.01448,11.2002 11.20016,11.2002 h 109.38148 c 6.1857,0 11.2002,-5.0145 11.2002,-11.2002 v -44.79967 c 0,-6.185677 -5.0145,-11.200167 -11.2002,-11.200167 H 326.98806 c -6.18568,0 -11.20016,5.01449 -11.20016,11.200167 z"
               style="fill:#e2f0d9;fill-opacity:1;fill-rule:evenodd;stroke:none"
               id="path1276" />
            <g
               id="g1278"
               transform="matrix(7.874016e-5,0,0,-7.874016e-5,315.7879,159.01859)">
              <path
                 d="M 0,142242.1 C 0,63683.97 63683.91,0 142242,0 h 1389145 c 78558,0 142242,63683.97 142242,142242.1 v 568955.8 c 0,78558.1 -63684,142242.1 -142242,142242.1 H 142242 C 63683.91,853440 0,789756 0,711197.9 Z"
                 style="fill:none;stroke:#2f528f;stroke-width:12700;stroke-linecap:butt;stroke-linejoin:miter;stroke-miterlimit:8;stroke-dasharray:none;stroke-opacity:1"
                 id="path1280" />
            </g>
            <g
               id="g1282"
               transform="matrix(0.2181818,0,0,0.2181818,345.51482,-208.25411)">
              <text
                 transform="matrix(1,0,0,-1,0,1503)"
                 style="font-variant:normal;font-weight:normal;font-size:83px;font-family:DengXian;-inkscape-font-specification:DengXian-Regular;writing-mode:lr-tb;fill:#000000;fill-opacity:1;fill-rule:nonzero;stroke:none"
                 id="text1286"><tspan
                   x="0 82.501991"
                   y="0"
                   sodipodi:role="line"
                   id="tspan1284">数据</tspan></text>
            </g>
            <g
               id="g1288"
               transform="matrix(0.2181818,0,0,0.2181818,381.51482,-208.25411)">
              <text
                 transform="matrix(1,0,0,-1,0,1503)"
                 style="font-variant:normal;font-weight:normal;font-size:83px;font-family:DengXian;-inkscape-font-specification:DengXian-Regular;writing-mode:lr-tb;fill:#000000;fill-opacity:1;fill-rule:nonzero;stroke:none"
                 id="text1292"><tspan
                   x="0 82.501991"
                   y="0"
                   sodipodi:role="line"
                   id="tspan1290">收集</tspan></text>
            </g>
            <g
               id="g1294"
               transform="matrix(0.2181818,0,0,0.2181818,593.13304,-32.399577)">
              <text
                 transform="matrix(1,0,0,-1,0,1503)"
                 style="font-variant:normal;font-weight:normal;font-size:92px;font-family:MicrosoftYaHei;-inkscape-font-specification:MicrosoftYaHei;writing-mode:lr-tb;fill:#000000;fill-opacity:1;fill-rule:nonzero;stroke:none"
                 id="text1298"><tspan
                   x="0 91.668793 183.33759 275.00638"
                   y="0"
                   sodipodi:role="line"
                   id="tspan1296">推荐系统</tspan></text>
            </g>
            <path
               d="M 284.80609,58.000433 H 981.67874 V 11.091303 H 284.80609 Z"
               style="fill:#fff2cc;fill-opacity:1;fill-rule:nonzero;stroke:none"
               id="path1300" />
            <g
               id="g1306"
               transform="matrix(0.2181818,0,0,0.2181818,552.13314,-299.23591)">
              <text
                 transform="matrix(1,0,0,-1,0,1503)"
                 style="font-variant:normal;font-weight:normal;font-size:83px;font-family:DengXian;-inkscape-font-specification:DengXian-Regular;writing-mode:lr-tb;fill:#000000;fill-opacity:1;fill-rule:nonzero;stroke:none"
                 id="text1310"><tspan
                   x="0 82.501991 165.00398 247.50597 330.00797"
                   y="0"
                   sodipodi:role="line"
                   id="tspan1308">推荐服务的</tspan></text>
            </g>
            <g
               id="g1312"
               transform="matrix(0.2181818,0,0,0.2181818,642.13314,-299.23591)">
              <text
                 transform="matrix(1,0,0,-1,0,1503)"
                 style="font-variant:normal;font-weight:normal;font-size:83px;font-family:DengXian;-inkscape-font-specification:DengXian-Regular;writing-mode:lr-tb;fill:#000000;fill-opacity:1;fill-rule:nonzero;stroke:none"
                 id="text1316"><tspan
                   x="0 82.501991"
                   y="0"
                   sodipodi:role="line"
                   id="tspan1314">全球</tspan></text>
            </g>
            <g
               id="g1318"
               transform="matrix(0.2181818,0,0,0.2181818,678.13314,-299.23591)">
              <text
                 transform="matrix(1,0,0,-1,0,1503)"
                 style="font-variant:normal;font-weight:normal;font-size:83px;font-family:DengXian;-inkscape-font-specification:DengXian-Regular;writing-mode:lr-tb;fill:#000000;fill-opacity:1;fill-rule:nonzero;stroke:none"
                 id="text1322"><tspan
                   x="0 82.501991"
                   y="0"
                   sodipodi:role="line"
                   id="tspan1320">用户</tspan></text>
            </g>
            <path
               d="m 383.06971,58.068003 6e-5,26.35969 h -3 l -6e-5,-26.35968 z m 3.00003,24.85968 -4.49995,9.00001 -4.50002,-8.99999 z"
               style="fill:#4472c4;fill-opacity:1;fill-rule:nonzero;stroke:none"
               id="path1324" />
            <path
               d="m 315.7879,256.90929 c 0,6.1857 5.01448,11.2002 11.20016,11.2002 h 109.38148 c 6.1857,0 11.2002,-5.0145 11.2002,-11.2002 v -44.7996 c 0,-6.1857 -5.0145,-11.2002 -11.2002,-11.2002 H 326.98806 c -6.18568,0 -11.20016,5.0145 -11.20016,11.2002 z"
               style="fill:#e2f0d9;fill-opacity:1;fill-rule:evenodd;stroke:none"
               id="path1326" />
            <g
               id="g1328"
               transform="matrix(7.874016e-5,0,0,-7.874016e-5,315.7879,268.10949)">
              <path
                 d="M 0,142242.1 C 0,63683.97 63683.91,0 142242,0 h 1389145 c 78558,0 142242,63683.97 142242,142242.1 v 568955.8 c 0,78558.1 -63684,142242.1 -142242,142242.1 H 142242 C 63683.91,853440 0,789756 0,711197.9 Z"
                 style="fill:none;stroke:#2f528f;stroke-width:12700;stroke-linecap:butt;stroke-linejoin:miter;stroke-miterlimit:8;stroke-dasharray:none;stroke-opacity:1"
                 id="path1330" />
            </g>
            <g
               id="g1332"
               transform="matrix(0.2181818,0,0,0.2181818,345.51482,-99.381407)">
              <text
                 transform="matrix(1,0,0,-1,0,1503)"
                 style="font-variant:normal;font-weight:normal;font-size:83px;font-family:DengXian;-inkscape-font-specification:DengXian-Regular;writing-mode:lr-tb;fill:#000000;fill-opacity:1;fill-rule:nonzero;stroke:none"
                 id="text1336"><tspan
                   x="0 82.501991 165.00398 247.50597"
                   y="0"
                   sodipodi:role="line"
                   id="tspan1334">数据处理</tspan></text>
            </g>
            <path
               d="m 487.27874,246.18189 c 0,12.1103 9.8174,21.9276 21.9277,21.9276 h 87.7083 c 12.1103,0 21.9276,-9.8173 21.9276,-21.9276 v -132.4357 c 0,-12.11031 -9.8173,-21.927637 -21.9276,-21.927637 h -87.7083 c -12.1103,0 -21.9277,9.817327 -21.9277,21.927637 z"
               style="fill:#e2f0d9;fill-opacity:1;fill-rule:evenodd;stroke:none"
               id="path1338" />
            <g
               id="g1340"
               transform="matrix(7.874016e-5,0,0,-7.874016e-5,487.27874,268.10949)">
              <path
                 d="M 0,278480.9 C 0,124680.2 124680.3,0 278481.2,0 H 1392377 c 153801,0 278481,124680.2 278481,278480.9 V 1960414 c 0,153801 -124680,278481 -278481,278481 H 278481.2 C 124680.3,2238895 0,2114215 0,1960414 Z"
                 style="fill:none;stroke:#2f528f;stroke-width:12700;stroke-linecap:butt;stroke-linejoin:miter;stroke-miterlimit:8;stroke-dasharray:none;stroke-opacity:1"
                 id="path1342" />
            </g>
            <g
               id="g1344"
               transform="matrix(0.2181818,0,0,0.2181818,516.89904,-153.92681)">
              <text
                 transform="matrix(1,0,0,-1,0,1503)"
                 style="font-variant:normal;font-weight:normal;font-size:83px;font-family:DengXian;-inkscape-font-specification:DengXian-Regular;writing-mode:lr-tb;fill:#000000;fill-opacity:1;fill-rule:nonzero;stroke:none"
                 id="text1348"><tspan
                   x="0 82.501991"
                   y="0"
                   sodipodi:role="line"
                   id="tspan1346">数据</tspan></text>
            </g>
            <g
               id="g1350"
               transform="matrix(0.2181818,0,0,0.2181818,552.89904,-153.92681)">
              <text
                 transform="matrix(1,0,0,-1,0,1503)"
                 style="font-variant:normal;font-weight:normal;font-size:83px;font-family:DengXian;-inkscape-font-specification:DengXian-Regular;writing-mode:lr-tb;fill:#000000;fill-opacity:1;fill-rule:nonzero;stroke:none"
                 id="text1354"><tspan
                   x="0 82.501991"
                   y="0"
                   sodipodi:role="line"
                   id="tspan1352">存储</tspan></text>
            </g>
            <path
               d="m 830.04244,256.90899 c 0,6.1859 5.0146,11.2005 11.2004,11.2005 h 109.1628 c 6.1859,0 11.2005,-5.0146 11.2005,-11.2005 v -44.8006 c 0,-6.1859 -5.0146,-11.2005 -11.2005,-11.2005 h -109.1628 c -6.1858,0 -11.2004,5.0146 -11.2004,11.2005 z"
               style="fill:#deebf7;fill-opacity:1;fill-rule:evenodd;stroke:none"
               id="path1356" />
            <g
               id="g1358"
               transform="matrix(7.874016e-5,0,0,-7.874016e-5,830.04244,268.10949)">
              <path
                 d="M 0,142246.1 C 0,63685.74 63685.67,0 142245.9,0 H 1528613 c 78560,0 142246,63685.74 142246,142246.1 V 711214 c 0,78560.3 -63686,142246.1 -142246,142246.1 H 142245.9 C 63685.67,853460.1 0,789774.3 0,711214 Z"
                 style="fill:none;stroke:#2f528f;stroke-width:12700;stroke-linecap:butt;stroke-linejoin:miter;stroke-miterlimit:8;stroke-dasharray:none;stroke-opacity:1"
                 id="path1360" />
            </g>
            <g
               id="g1362"
               transform="matrix(0.2181818,0,0,0.2181818,859.66754,-99.381407)">
              <text
                 transform="matrix(1,0,0,-1,0,1503)"
                 style="font-variant:normal;font-weight:normal;font-size:83px;font-family:DengXian;-inkscape-font-specification:DengXian-Regular;writing-mode:lr-tb;fill:#000000;fill-opacity:1;fill-rule:nonzero;stroke:none"
                 id="text1366"><tspan
                   x="0 82.501991"
                   y="0"
                   sodipodi:role="line"
                   id="tspan1364">模型</tspan></text>
            </g>
            <g
               id="g1368"
               transform="matrix(0.2181818,0,0,0.2181818,895.66754,-99.381407)">
              <text
                 transform="matrix(1,0,0,-1,0,1503)"
                 style="font-variant:normal;font-weight:normal;font-size:83px;font-family:DengXian;-inkscape-font-specification:DengXian-Regular;writing-mode:lr-tb;fill:#000000;fill-opacity:1;fill-rule:nonzero;stroke:none"
                 id="text1372"><tspan
                   x="0 82.501991"
                   y="0"
                   sodipodi:role="line"
                   id="tspan1370">存储</tspan></text>
            </g>
            <path
               d="m 830.04244,147.81809 c 0,6.1858 5.0146,11.2005 11.2004,11.2005 h 109.1628 c 6.1859,0 11.2005,-5.0147 11.2005,-11.2005 v -44.80064 c 0,-6.185857 -5.0146,-11.200477 -11.2005,-11.200477 h -109.1628 c -6.1858,0 -11.2004,5.01462 -11.2004,11.200477 z"
               style="fill:#deebf7;fill-opacity:1;fill-rule:evenodd;stroke:none"
               id="path1374" />
            <g
               id="g1376"
               transform="matrix(7.874016e-5,0,0,-7.874016e-5,830.04244,159.01859)">
              <path
                 d="M 0,142246.1 C 0,63685.74 63685.67,0 142245.9,0 H 1528613 c 78560,0 142246,63685.74 142246,142246.1 V 711214 c 0,78560.3 -63686,142246.1 -142246,142246.1 H 142245.9 C 63685.67,853460.1 0,789774.3 0,711214 Z"
                 style="fill:none;stroke:#2f528f;stroke-width:12700;stroke-linecap:butt;stroke-linejoin:miter;stroke-miterlimit:8;stroke-dasharray:none;stroke-opacity:1"
                 id="path1378" />
            </g>
            <g
               id="g1380"
               transform="matrix(0.2181818,0,0,0.2181818,859.66754,-208.25411)">
              <text
                 transform="matrix(1,0,0,-1,0,1503)"
                 style="font-variant:normal;font-weight:normal;font-size:83px;font-family:DengXian;-inkscape-font-specification:DengXian-Regular;writing-mode:lr-tb;fill:#000000;fill-opacity:1;fill-rule:nonzero;stroke:none"
                 id="text1384"><tspan
                   x="0 82.501991"
                   y="0"
                   sodipodi:role="line"
                   id="tspan1382">推理</tspan></text>
            </g>
            <g
               id="g1386"
               transform="matrix(0.2181818,0,0,0.2181818,895.66754,-208.25411)">
              <text
                 transform="matrix(1,0,0,-1,0,1503)"
                 style="font-variant:normal;font-weight:normal;font-size:83px;font-family:DengXian;-inkscape-font-specification:DengXian-Regular;writing-mode:lr-tb;fill:#000000;fill-opacity:1;fill-rule:nonzero;stroke:none"
                 id="text1390"><tspan
                   x="0 82.501991"
                   y="0"
                   sodipodi:role="line"
                   id="tspan1388">服务</tspan></text>
            </g>
            <path
               d="m 383.06971,159.21889 7e-5,34.2997 h -3 l -7e-5,-34.2997 z m 3.00003,32.7996 -4.49995,9.0001 -4.50002,-9 z"
               style="fill:#4472c4;fill-opacity:1;fill-rule:nonzero;stroke:none"
               id="path1392" />
            <path
               d="m 447.46054,236.11859 32.2079,-1e-4 v -3 l -32.2079,1e-4 z m 30.7079,2.9999 9,-4.5 -9,-4.5 z"
               style="fill:#4472c4;fill-opacity:1;fill-rule:nonzero;stroke:none"
               id="path1394" />
            <path
               d="m 618.73334,236.99129 32.2079,-1e-4 v -3 l -32.2079,1e-4 z m 30.7079,3 9,-4.5001 -9.0001,-4.4999 z"
               style="fill:#4472c4;fill-opacity:1;fill-rule:nonzero;stroke:none"
               id="path1396" />
            <path
               d="m 790.22424,236.11859 32.2079,-1e-4 v -3 l -32.2079,1e-4 z m 30.7079,2.9999 9,-4.5 -9,-4.5 z"
               style="fill:#4472c4;fill-opacity:1;fill-rule:nonzero;stroke:none"
               id="path1398" />
            <path
               d="m 898.85154,201.01859 v -34.2997 h -3 v 34.2997 z m 3,-32.7997 -4.5,-9 -4.5,9 z"
               style="fill:#4472c4;fill-opacity:1;fill-rule:nonzero;stroke:none"
               id="path1400" />
            <path
               d="m 898.85154,91.927683 v -26.35968 l -3,-1e-5 v 26.35969 z m 3,-24.85968 -4.5,-9 -4.5,8.99999 z"
               style="fill:#4472c4;fill-opacity:1;fill-rule:nonzero;stroke:none"
               id="path1402" />
          </g>
        </g>
      </g>
    </g>
  </g>
</svg>
