<?xml version="1.0" encoding="UTF-8" standalone="no"?>
<!-- Created with Inkscape (http://www.inkscape.org/) -->

<svg
   version="1.1"
   id="svg9"
   xml:space="preserve"
   width="1280.64"
   height="720"
   viewBox="0 0 1280.64 720"
   sodipodi:docname="ch10-federated-learning-vfl-train.svg"
   inkscape:version="1.1.1 (3bf5ae0d25, 2021-09-20)"
   xmlns:inkscape="http://www.inkscape.org/namespaces/inkscape"
   xmlns:sodipodi="http://sodipodi.sourceforge.net/DTD/sodipodi-0.dtd"
   xmlns="http://www.w3.org/2000/svg"
   xmlns:svg="http://www.w3.org/2000/svg"><defs
     id="defs13"><clipPath
       clipPathUnits="userSpaceOnUse"
       id="clipPath23"><path
         d="M 0,1.2207e-4 H 960.48 V 540.00012 H 0 Z"
         clip-rule="evenodd"
         id="path21" /></clipPath><clipPath
       clipPathUnits="userSpaceOnUse"
       id="clipPath33"><path
         d="M 1.4312e-5,0 H 960.48001 V 540 H 1.4312e-5 Z"
         clip-rule="evenodd"
         id="path31" /></clipPath><clipPath
       clipPathUnits="userSpaceOnUse"
       id="clipPath45"><path
         d="M 1.4312e-5,0 H 960.48001 V 540 H 1.4312e-5 Z"
         clip-rule="evenodd"
         id="path43" /></clipPath><clipPath
       clipPathUnits="userSpaceOnUse"
       id="clipPath57"><path
         d="M -1.2207e-4,1.2207e-4 H 960.47988 V 540.00012 H -1.2207e-4 Z"
         clip-rule="evenodd"
         id="path55" /></clipPath><clipPath
       clipPathUnits="userSpaceOnUse"
       id="clipPath73"><path
         d="M 1.4312e-5,0 H 960.48001 V 540 H 1.4312e-5 Z"
         clip-rule="evenodd"
         id="path71" /></clipPath><clipPath
       clipPathUnits="userSpaceOnUse"
       id="clipPath85"><path
         d="M 1.4312e-5,0 H 960.48001 V 540 H 1.4312e-5 Z"
         clip-rule="evenodd"
         id="path83" /></clipPath><clipPath
       clipPathUnits="userSpaceOnUse"
       id="clipPath97"><path
         d="M 1.4312e-5,0 H 960.48001 V 540 H 1.4312e-5 Z"
         clip-rule="evenodd"
         id="path95" /></clipPath><clipPath
       clipPathUnits="userSpaceOnUse"
       id="clipPath113"><path
         d="M 1.4312e-5,0 H 960.48001 V 540 H 1.4312e-5 Z"
         clip-rule="evenodd"
         id="path111" /></clipPath><clipPath
       clipPathUnits="userSpaceOnUse"
       id="clipPath125"><path
         d="M 1.4312e-5,0 H 960.48001 V 540 H 1.4312e-5 Z"
         clip-rule="evenodd"
         id="path123" /></clipPath><clipPath
       clipPathUnits="userSpaceOnUse"
       id="clipPath141"><path
         d="M 1.4312e-5,0 H 960.48001 V 540 H 1.4312e-5 Z"
         clip-rule="evenodd"
         id="path139" /></clipPath><clipPath
       clipPathUnits="userSpaceOnUse"
       id="clipPath153"><path
         d="M 1.4312e-5,0 H 960.48001 V 540 H 1.4312e-5 Z"
         clip-rule="evenodd"
         id="path151" /></clipPath><clipPath
       clipPathUnits="userSpaceOnUse"
       id="clipPath179"><path
         d="M -2.2888e-5,540 H 960.48 V 1.2207e-4 L -7.6294e-5,6.1035e-5"
         clip-rule="evenodd"
         id="path177" /></clipPath><clipPath
       clipPathUnits="userSpaceOnUse"
       id="clipPath189"><path
         d="M -7.629e-6,540 H 960.48 V 1.2207e-4 L -5.3406e-5,6.1035e-5"
         clip-rule="evenodd"
         id="path187" /></clipPath><clipPath
       clipPathUnits="userSpaceOnUse"
       id="clipPath199"><path
         d="M -1.5259e-5,540 H 960.48 V 6.1035e-5 H -5.3406e-5"
         clip-rule="evenodd"
         id="path197" /></clipPath><clipPath
       clipPathUnits="userSpaceOnUse"
       id="clipPath209"><path
         d="M -1.5259e-5,540 H 960.48 V 1.2207e-4 L -4.5776e-5,6.1035e-5"
         clip-rule="evenodd"
         id="path207" /></clipPath><clipPath
       clipPathUnits="userSpaceOnUse"
       id="clipPath219"><path
         d="M -1.5259e-5,540 H 960.48 V 6.1035e-5 H -4.5776e-5"
         clip-rule="evenodd"
         id="path217" /></clipPath><clipPath
       clipPathUnits="userSpaceOnUse"
       id="clipPath229"><path
         d="M -1.5259e-5,540 H 960.48 V 6.1035e-5 H -4.5776e-5"
         clip-rule="evenodd"
         id="path227" /></clipPath><clipPath
       clipPathUnits="userSpaceOnUse"
       id="clipPath239"><path
         d="M -3.0518e-5,540 H 960.48 V 2.4414e-4 L -3.0518e-5,1.2207e-4"
         clip-rule="evenodd"
         id="path237" /></clipPath><clipPath
       clipPathUnits="userSpaceOnUse"
       id="clipPath249"><path
         d="M -3.0518e-5,540 H 960.48 V 2.4414e-4 L -6.1035e-5,1.8311e-4"
         clip-rule="evenodd"
         id="path247" /></clipPath><clipPath
       clipPathUnits="userSpaceOnUse"
       id="clipPath259"><path
         d="M -3.0518e-5,540 H 960.48 V 2.4414e-4 L -6.1035e-5,1.2207e-4"
         clip-rule="evenodd"
         id="path257" /></clipPath><clipPath
       clipPathUnits="userSpaceOnUse"
       id="clipPath269"><path
         d="M -3.0518e-5,540 H 960.48 V 3.0518e-4 L -3.0518e-5,1.2207e-4"
         clip-rule="evenodd"
         id="path267" /></clipPath><clipPath
       clipPathUnits="userSpaceOnUse"
       id="clipPath279"><path
         d="M -6.1035e-5,540 H 960.48 V 2.4414e-4 L -6.1035e-5,1.2207e-4"
         clip-rule="evenodd"
         id="path277" /></clipPath><clipPath
       clipPathUnits="userSpaceOnUse"
       id="clipPath289"><path
         d="M -3.0518e-5,540 H 960.48 V 3.0518e-4 L -6.1035e-5,1.2207e-4"
         clip-rule="evenodd"
         id="path287" /></clipPath><clipPath
       clipPathUnits="userSpaceOnUse"
       id="clipPath299"><path
         d="M -3.0518e-5,540 H 960.48 V 2.4414e-4 L -6.1035e-5,1.2207e-4"
         clip-rule="evenodd"
         id="path297" /></clipPath><clipPath
       clipPathUnits="userSpaceOnUse"
       id="clipPath309"><path
         d="M 1.4312e-5,0 H 960.48001 V 540 H 1.4312e-5 Z"
         clip-rule="evenodd"
         id="path307" /></clipPath><clipPath
       clipPathUnits="userSpaceOnUse"
       id="clipPath321"><path
         d="M 1.4312e-5,0 H 960.48001 V 540 H 1.4312e-5 Z"
         clip-rule="evenodd"
         id="path319" /></clipPath><clipPath
       clipPathUnits="userSpaceOnUse"
       id="clipPath333"><path
         d="M 1.4312e-5,0 H 960.48001 V 540 H 1.4312e-5 Z"
         clip-rule="evenodd"
         id="path331" /></clipPath><clipPath
       clipPathUnits="userSpaceOnUse"
       id="clipPath349"><path
         d="M 1.4312e-5,0 H 960.48001 V 540 H 1.4312e-5 Z"
         clip-rule="evenodd"
         id="path347" /></clipPath><clipPath
       clipPathUnits="userSpaceOnUse"
       id="clipPath361"><path
         d="M 1.4312e-5,0 H 960.48001 V 540 H 1.4312e-5 Z"
         clip-rule="evenodd"
         id="path359" /></clipPath><clipPath
       clipPathUnits="userSpaceOnUse"
       id="clipPath373"><path
         d="M 1.4312e-5,0 H 960.48001 V 540 H 1.4312e-5 Z"
         clip-rule="evenodd"
         id="path371" /></clipPath><clipPath
       clipPathUnits="userSpaceOnUse"
       id="clipPath385"><path
         d="M 1.4312e-5,0 H 960.48001 V 540 H 1.4312e-5 Z"
         clip-rule="evenodd"
         id="path383" /></clipPath><clipPath
       clipPathUnits="userSpaceOnUse"
       id="clipPath397"><path
         d="M 1.4312e-5,0 H 960.48001 V 540 H 1.4312e-5 Z"
         clip-rule="evenodd"
         id="path395" /></clipPath><clipPath
       clipPathUnits="userSpaceOnUse"
       id="clipPath413"><path
         d="M 1.4312e-5,0 H 960.48001 V 540 H 1.4312e-5 Z"
         clip-rule="evenodd"
         id="path411" /></clipPath><clipPath
       clipPathUnits="userSpaceOnUse"
       id="clipPath425"><path
         d="M 1.4312e-5,0 H 960.48001 V 540 H 1.4312e-5 Z"
         clip-rule="evenodd"
         id="path423" /></clipPath><clipPath
       clipPathUnits="userSpaceOnUse"
       id="clipPath447"><path
         d="M 1.4312e-5,0 H 960.48001 V 540 H 1.4312e-5 Z"
         clip-rule="evenodd"
         id="path445" /></clipPath><clipPath
       clipPathUnits="userSpaceOnUse"
       id="clipPath459"><path
         d="M 1.4312e-5,0 H 960.48001 V 540 H 1.4312e-5 Z"
         clip-rule="evenodd"
         id="path457" /></clipPath><clipPath
       clipPathUnits="userSpaceOnUse"
       id="clipPath471"><path
         d="M 1.4312e-5,0 H 960.48001 V 540 H 1.4312e-5 Z"
         clip-rule="evenodd"
         id="path469" /></clipPath><clipPath
       clipPathUnits="userSpaceOnUse"
       id="clipPath483"><path
         d="M 1.4312e-5,0 H 960.48001 V 540 H 1.4312e-5 Z"
         clip-rule="evenodd"
         id="path481" /></clipPath><clipPath
       clipPathUnits="userSpaceOnUse"
       id="clipPath495"><path
         d="M 1.4312e-5,0 H 960.48001 V 540 H 1.4312e-5 Z"
         clip-rule="evenodd"
         id="path493" /></clipPath><clipPath
       clipPathUnits="userSpaceOnUse"
       id="clipPath507"><path
         d="M 1.4312e-5,0 H 960.48001 V 540 H 1.4312e-5 Z"
         clip-rule="evenodd"
         id="path505" /></clipPath><clipPath
       clipPathUnits="userSpaceOnUse"
       id="clipPath519"><path
         d="M 1.4312e-5,0 H 960.48001 V 540 H 1.4312e-5 Z"
         clip-rule="evenodd"
         id="path517" /></clipPath><clipPath
       clipPathUnits="userSpaceOnUse"
       id="clipPath531"><path
         d="M 1.4312e-5,0 H 960.48001 V 540 H 1.4312e-5 Z"
         clip-rule="evenodd"
         id="path529" /></clipPath><clipPath
       clipPathUnits="userSpaceOnUse"
       id="clipPath543"><path
         d="M 1.4312e-5,0 H 960.48001 V 540 H 1.4312e-5 Z"
         clip-rule="evenodd"
         id="path541" /></clipPath><clipPath
       clipPathUnits="userSpaceOnUse"
       id="clipPath555"><path
         d="M 1.4312e-5,0 H 960.48001 V 540 H 1.4312e-5 Z"
         clip-rule="evenodd"
         id="path553" /></clipPath><clipPath
       clipPathUnits="userSpaceOnUse"
       id="clipPath567"><path
         d="M 1.4312e-5,0 H 960.48001 V 540 H 1.4312e-5 Z"
         clip-rule="evenodd"
         id="path565" /></clipPath><clipPath
       clipPathUnits="userSpaceOnUse"
       id="clipPath73-1"><path
         d="M 1.4312e-5,0 H 960.48001 V 540 H 1.4312e-5 Z"
         clip-rule="evenodd"
         id="path71-0" /></clipPath><clipPath
       clipPathUnits="userSpaceOnUse"
       id="clipPath85-4"><path
         d="M 1.4312e-5,0 H 960.48001 V 540 H 1.4312e-5 Z"
         clip-rule="evenodd"
         id="path83-8" /></clipPath><clipPath
       clipPathUnits="userSpaceOnUse"
       id="clipPath97-5"><path
         d="M 1.4312e-5,0 H 960.48001 V 540 H 1.4312e-5 Z"
         clip-rule="evenodd"
         id="path95-1" /></clipPath><clipPath
       clipPathUnits="userSpaceOnUse"
       id="clipPath113-7"><path
         d="M 1.4312e-5,0 H 960.48001 V 540 H 1.4312e-5 Z"
         clip-rule="evenodd"
         id="path111-2" /></clipPath><clipPath
       clipPathUnits="userSpaceOnUse"
       id="clipPath125-0"><path
         d="M 1.4312e-5,0 H 960.48001 V 540 H 1.4312e-5 Z"
         clip-rule="evenodd"
         id="path123-8" /></clipPath><clipPath
       clipPathUnits="userSpaceOnUse"
       id="clipPath141-4"><path
         d="M 1.4312e-5,0 H 960.48001 V 540 H 1.4312e-5 Z"
         clip-rule="evenodd"
         id="path139-0" /></clipPath><clipPath
       clipPathUnits="userSpaceOnUse"
       id="clipPath153-5"><path
         d="M 1.4312e-5,0 H 960.48001 V 540 H 1.4312e-5 Z"
         clip-rule="evenodd"
         id="path151-4" /></clipPath><clipPath
       clipPathUnits="userSpaceOnUse"
       id="clipPath179-6"><path
         d="M -2.2888e-5,540 H 960.48 V 1.2207e-4 L -7.6294e-5,6.1035e-5"
         clip-rule="evenodd"
         id="path177-0" /></clipPath><clipPath
       clipPathUnits="userSpaceOnUse"
       id="clipPath189-6"><path
         d="M -7.629e-6,540 H 960.48 V 1.2207e-4 L -5.3406e-5,6.1035e-5"
         clip-rule="evenodd"
         id="path187-3" /></clipPath><clipPath
       clipPathUnits="userSpaceOnUse"
       id="clipPath199-9"><path
         d="M -1.5259e-5,540 H 960.48 V 6.1035e-5 H -5.3406e-5"
         clip-rule="evenodd"
         id="path197-6" /></clipPath><clipPath
       clipPathUnits="userSpaceOnUse"
       id="clipPath209-8"><path
         d="M -1.5259e-5,540 H 960.48 V 1.2207e-4 L -4.5776e-5,6.1035e-5"
         clip-rule="evenodd"
         id="path207-1" /></clipPath><clipPath
       clipPathUnits="userSpaceOnUse"
       id="clipPath219-7"><path
         d="M -1.5259e-5,540 H 960.48 V 6.1035e-5 H -4.5776e-5"
         clip-rule="evenodd"
         id="path217-7" /></clipPath><clipPath
       clipPathUnits="userSpaceOnUse"
       id="clipPath229-7"><path
         d="M -1.5259e-5,540 H 960.48 V 6.1035e-5 H -4.5776e-5"
         clip-rule="evenodd"
         id="path227-9" /></clipPath><clipPath
       clipPathUnits="userSpaceOnUse"
       id="clipPath239-5"><path
         d="M -3.0518e-5,540 H 960.48 V 2.4414e-4 L -3.0518e-5,1.2207e-4"
         clip-rule="evenodd"
         id="path237-1" /></clipPath><clipPath
       clipPathUnits="userSpaceOnUse"
       id="clipPath249-0"><path
         d="M -3.0518e-5,540 H 960.48 V 2.4414e-4 L -6.1035e-5,1.8311e-4"
         clip-rule="evenodd"
         id="path247-9" /></clipPath><clipPath
       clipPathUnits="userSpaceOnUse"
       id="clipPath259-5"><path
         d="M -3.0518e-5,540 H 960.48 V 2.4414e-4 L -6.1035e-5,1.2207e-4"
         clip-rule="evenodd"
         id="path257-0" /></clipPath><clipPath
       clipPathUnits="userSpaceOnUse"
       id="clipPath269-3"><path
         d="M -3.0518e-5,540 H 960.48 V 3.0518e-4 L -3.0518e-5,1.2207e-4"
         clip-rule="evenodd"
         id="path267-3" /></clipPath><clipPath
       clipPathUnits="userSpaceOnUse"
       id="clipPath279-0"><path
         d="M -6.1035e-5,540 H 960.48 V 2.4414e-4 L -6.1035e-5,1.2207e-4"
         clip-rule="evenodd"
         id="path277-3" /></clipPath><clipPath
       clipPathUnits="userSpaceOnUse"
       id="clipPath289-9"><path
         d="M -3.0518e-5,540 H 960.48 V 3.0518e-4 L -6.1035e-5,1.2207e-4"
         clip-rule="evenodd"
         id="path287-3" /></clipPath><clipPath
       clipPathUnits="userSpaceOnUse"
       id="clipPath299-0"><path
         d="M -3.0518e-5,540 H 960.48 V 2.4414e-4 L -6.1035e-5,1.2207e-4"
         clip-rule="evenodd"
         id="path297-8" /></clipPath><clipPath
       clipPathUnits="userSpaceOnUse"
       id="clipPath309-9"><path
         d="M 1.4312e-5,0 H 960.48001 V 540 H 1.4312e-5 Z"
         clip-rule="evenodd"
         id="path307-7" /></clipPath><clipPath
       clipPathUnits="userSpaceOnUse"
       id="clipPath321-5"><path
         d="M 1.4312e-5,0 H 960.48001 V 540 H 1.4312e-5 Z"
         clip-rule="evenodd"
         id="path319-7" /></clipPath><clipPath
       clipPathUnits="userSpaceOnUse"
       id="clipPath333-3"><path
         d="M 1.4312e-5,0 H 960.48001 V 540 H 1.4312e-5 Z"
         clip-rule="evenodd"
         id="path331-7" /></clipPath><clipPath
       clipPathUnits="userSpaceOnUse"
       id="clipPath349-4"><path
         d="M 1.4312e-5,0 H 960.48001 V 540 H 1.4312e-5 Z"
         clip-rule="evenodd"
         id="path347-4" /></clipPath><clipPath
       clipPathUnits="userSpaceOnUse"
       id="clipPath361-2"><path
         d="M 1.4312e-5,0 H 960.48001 V 540 H 1.4312e-5 Z"
         clip-rule="evenodd"
         id="path359-8" /></clipPath><clipPath
       clipPathUnits="userSpaceOnUse"
       id="clipPath373-3"><path
         d="M 1.4312e-5,0 H 960.48001 V 540 H 1.4312e-5 Z"
         clip-rule="evenodd"
         id="path371-8" /></clipPath><clipPath
       clipPathUnits="userSpaceOnUse"
       id="clipPath385-7"><path
         d="M 1.4312e-5,0 H 960.48001 V 540 H 1.4312e-5 Z"
         clip-rule="evenodd"
         id="path383-7" /></clipPath><clipPath
       clipPathUnits="userSpaceOnUse"
       id="clipPath397-7"><path
         d="M 1.4312e-5,0 H 960.48001 V 540 H 1.4312e-5 Z"
         clip-rule="evenodd"
         id="path395-1" /></clipPath><clipPath
       clipPathUnits="userSpaceOnUse"
       id="clipPath413-7"><path
         d="M 1.4312e-5,0 H 960.48001 V 540 H 1.4312e-5 Z"
         clip-rule="evenodd"
         id="path411-4" /></clipPath><clipPath
       clipPathUnits="userSpaceOnUse"
       id="clipPath425-6"><path
         d="M 1.4312e-5,0 H 960.48001 V 540 H 1.4312e-5 Z"
         clip-rule="evenodd"
         id="path423-7" /></clipPath><clipPath
       clipPathUnits="userSpaceOnUse"
       id="clipPath447-3"><path
         d="M 1.4312e-5,0 H 960.48001 V 540 H 1.4312e-5 Z"
         clip-rule="evenodd"
         id="path445-6" /></clipPath><clipPath
       clipPathUnits="userSpaceOnUse"
       id="clipPath459-0"><path
         d="M 1.4312e-5,0 H 960.48001 V 540 H 1.4312e-5 Z"
         clip-rule="evenodd"
         id="path457-8" /></clipPath><clipPath
       clipPathUnits="userSpaceOnUse"
       id="clipPath471-8"><path
         d="M 1.4312e-5,0 H 960.48001 V 540 H 1.4312e-5 Z"
         clip-rule="evenodd"
         id="path469-2" /></clipPath><clipPath
       clipPathUnits="userSpaceOnUse"
       id="clipPath483-2"><path
         d="M 1.4312e-5,0 H 960.48001 V 540 H 1.4312e-5 Z"
         clip-rule="evenodd"
         id="path481-0" /></clipPath><clipPath
       clipPathUnits="userSpaceOnUse"
       id="clipPath495-5"><path
         d="M 1.4312e-5,0 H 960.48001 V 540 H 1.4312e-5 Z"
         clip-rule="evenodd"
         id="path493-2" /></clipPath><clipPath
       clipPathUnits="userSpaceOnUse"
       id="clipPath507-4"><path
         d="M 1.4312e-5,0 H 960.48001 V 540 H 1.4312e-5 Z"
         clip-rule="evenodd"
         id="path505-0" /></clipPath><clipPath
       clipPathUnits="userSpaceOnUse"
       id="clipPath519-0"><path
         d="M 1.4312e-5,0 H 960.48001 V 540 H 1.4312e-5 Z"
         clip-rule="evenodd"
         id="path517-2" /></clipPath><clipPath
       clipPathUnits="userSpaceOnUse"
       id="clipPath531-5"><path
         d="M 1.4312e-5,0 H 960.48001 V 540 H 1.4312e-5 Z"
         clip-rule="evenodd"
         id="path529-2" /></clipPath><clipPath
       clipPathUnits="userSpaceOnUse"
       id="clipPath543-3"><path
         d="M 1.4312e-5,0 H 960.48001 V 540 H 1.4312e-5 Z"
         clip-rule="evenodd"
         id="path541-8" /></clipPath><clipPath
       clipPathUnits="userSpaceOnUse"
       id="clipPath555-3"><path
         d="M 1.4312e-5,0 H 960.48001 V 540 H 1.4312e-5 Z"
         clip-rule="evenodd"
         id="path553-3" /></clipPath><clipPath
       clipPathUnits="userSpaceOnUse"
       id="clipPath567-5"><path
         d="M 1.4312e-5,0 H 960.48001 V 540 H 1.4312e-5 Z"
         clip-rule="evenodd"
         id="path565-1" /></clipPath></defs><sodipodi:namedview
     id="namedview11"
     pagecolor="#ffffff"
     bordercolor="#666666"
     borderopacity="1.0"
     inkscape:pageshadow="2"
     inkscape:pageopacity="0.0"
     inkscape:pagecheckerboard="0"
     showgrid="false"
     inkscape:zoom="0.79353094"
     inkscape:cx="521.08869"
     inkscape:cy="317.56796"
     inkscape:window-width="1920"
     inkscape:window-height="1017"
     inkscape:window-x="-8"
     inkscape:window-y="-8"
     inkscape:window-maximized="1"
     inkscape:current-layer="g15" /><g
     id="g15"
     inkscape:groupmode="layer"
     inkscape:label="ch10-federated-learning-vfl-train"
     transform="matrix(1.3333333,0,0,-1.3333333,0,720)"><path
       d="m 119.51572,462.59054 c 0,7.56006 5.58081,13.67738 12.47784,13.67738 h 161.42221 c 6.89704,0 12.47785,-6.11732 12.47785,-13.67738 V 407.881 c 0,-7.56006 -5.58081,-13.67737 -12.47785,-13.67737 H 131.99356 c -6.89703,0 -12.47784,6.11731 -12.47784,13.67737 z"
       style="fill:#ffedca;fill-opacity:1;fill-rule:evenodd;stroke:none;stroke-width:1.37805"
       id="path63" /><path
       d="m 119.51572,462.59054 c 0,7.56006 5.58081,13.67738 12.47784,13.67738 h 161.42221 c 6.89704,0 12.47785,-6.11732 12.47785,-13.67738 V 407.881 c 0,-7.56006 -5.58081,-13.67737 -12.47785,-13.67737 H 131.99356 c -6.89703,0 -12.47784,6.11731 -12.47784,13.67737 z"
       style="fill:none;stroke:#424242;stroke-width:1.32292;stroke-linecap:butt;stroke-linejoin:miter;stroke-miterlimit:10;stroke-dasharray:none;stroke-opacity:1"
       id="path65" /><g
       id="g67"
       transform="matrix(1.3162282,0,0,1.4427616,-104.45365,-139.38735)"><g
         id="g69"
         clip-path="url(#clipPath73-1)"><text
           transform="matrix(1,0,0,-1,187.27,392.45)"
           style="font-variant:normal;font-weight:bold;font-size:16.104px;font-family:'Microsoft YaHei';-inkscape-font-specification:MicrosoftYaHei-Bold;writing-mode:lr-tb;fill:#000000;fill-opacity:1;fill-rule:nonzero;stroke:none"
           id="text77"><tspan
             x="0 16.08"
             y="0"
             sodipodi:role="line"
             id="tspan75">第三</tspan></text></g></g><g
       id="g79"
       transform="matrix(1.3162282,0,0,1.4427616,-104.45365,-139.38735)"><g
         id="g81"
         clip-path="url(#clipPath85-4)"><text
           transform="matrix(1,0,0,-1,219.43,392.45)"
           style="font-variant:normal;font-weight:bold;font-size:16.104px;font-family:'Microsoft YaHei';-inkscape-font-specification:MicrosoftYaHei-Bold;writing-mode:lr-tb;fill:#000000;fill-opacity:1;fill-rule:nonzero;stroke:none"
           id="text89"><tspan
             x="0 16.08 32.16 48.240002"
             y="0"
             sodipodi:role="line"
             id="tspan87">方协作者</tspan></text></g></g><g
       id="g91"
       transform="matrix(1.3162282,0,0,1.4427616,-104.45365,-139.38735)"><g
         id="g93"
         clip-path="url(#clipPath97-5)"><text
           transform="matrix(1,0,0,-1,283.78,392.45)"
           style="font-variant:normal;font-weight:bold;font-size:16.104px;font-family:'Microsoft YaHei';-inkscape-font-specification:MicrosoftYaHei-Bold;writing-mode:lr-tb;fill:#000000;fill-opacity:1;fill-rule:nonzero;stroke:none"
           id="text101"><tspan
             x="0"
             y="0"
             id="tspan99">C</tspan></text></g></g><path
       d="m 7.3730827,217.14793 c 0,7.51679 5.5623793,13.61966 12.4251933,13.61966 h 68.654458 c 6.857549,0 12.425196,-6.10287 12.425196,-13.61966 v -54.47869 c 0,-7.51678 -5.567647,-13.61966 -12.425196,-13.61966 H 19.798276 c -6.862814,0 -12.4251933,6.10288 -12.4251933,13.61966 z"
       style="fill:#99ccff;fill-opacity:1;fill-rule:evenodd;stroke:none;stroke-width:1.37805"
       id="path103" /><path
       d="m 7.3730827,217.14793 c 0,7.51679 5.5623793,13.61966 12.4251933,13.61966 h 68.654458 c 6.857549,0 12.425196,-6.10287 12.425196,-13.61966 v -54.47869 c 0,-7.51678 -5.567647,-13.61966 -12.425196,-13.61966 H 19.798276 c -6.862814,0 -12.4251933,6.10288 -12.4251933,13.61966 z"
       style="fill:none;stroke:#424242;stroke-width:1.32292;stroke-linecap:butt;stroke-linejoin:miter;stroke-miterlimit:10;stroke-dasharray:none;stroke-opacity:1"
       id="path105" /><g
       id="g107"
       transform="matrix(1.3162282,0,0,1.4427616,-104.45365,-139.38735)"><g
         id="g109"
         clip-path="url(#clipPath113-7)"><text
           transform="matrix(1,0,0,-1,98.376,222.29)"
           style="font-variant:normal;font-weight:bold;font-size:16.08px;font-family:'Microsoft YaHei';-inkscape-font-specification:MicrosoftYaHei-Bold;writing-mode:lr-tb;fill:#000000;fill-opacity:1;fill-rule:nonzero;stroke:none"
           id="text117"><tspan
             x="0 16.08"
             y="0"
             sodipodi:role="line"
             id="tspan115">企业</tspan></text></g></g><g
       id="g119"
       transform="matrix(1.3162282,0,0,1.4427616,-104.45365,-139.38735)"><g
         id="g121"
         clip-path="url(#clipPath125-0)"><text
           transform="matrix(1,0,0,-1,130.54,222.29)"
           style="font-variant:normal;font-weight:bold;font-size:16.08px;font-family:'Microsoft YaHei';-inkscape-font-specification:MicrosoftYaHei-Bold;writing-mode:lr-tb;fill:#000000;fill-opacity:1;fill-rule:nonzero;stroke:none"
           id="text129"><tspan
             x="0"
             y="0"
             id="tspan127">A</tspan></text></g></g><path
       d="m 343.1692,217.14793 c 0,7.51679 5.56764,13.61966 12.42519,13.61966 h 68.65446 c 6.85755,0 12.42519,-6.10287 12.42519,-13.61966 v -54.47869 c 0,-7.51678 -5.56764,-13.61966 -12.42519,-13.61966 h -68.65446 c -6.85755,0 -12.42519,6.10288 -12.42519,13.61966 z"
       style="fill:#92d050;fill-opacity:1;fill-rule:evenodd;stroke:none;stroke-width:1.37805"
       id="path131" /><path
       d="m 343.1692,217.14793 c 0,7.51679 5.56764,13.61966 12.42519,13.61966 h 68.65446 c 6.85755,0 12.42519,-6.10287 12.42519,-13.61966 v -54.47869 c 0,-7.51678 -5.56764,-13.61966 -12.42519,-13.61966 h -68.65446 c -6.85755,0 -12.42519,6.10288 -12.42519,13.61966 z"
       style="fill:none;stroke:#424242;stroke-width:1.32292;stroke-linecap:butt;stroke-linejoin:miter;stroke-miterlimit:10;stroke-dasharray:none;stroke-opacity:1"
       id="path133" /><g
       id="g135"
       transform="matrix(1.3162282,0,0,1.4427616,-104.45365,-139.38735)"><g
         id="g137"
         clip-path="url(#clipPath141-4)"><text
           transform="matrix(1,0,0,-1,354.02,222.29)"
           style="font-variant:normal;font-weight:bold;font-size:16.08px;font-family:'Microsoft YaHei';-inkscape-font-specification:MicrosoftYaHei-Bold;writing-mode:lr-tb;fill:#000000;fill-opacity:1;fill-rule:nonzero;stroke:none"
           id="text145"><tspan
             x="0 16.104"
             y="0"
             sodipodi:role="line"
             id="tspan143">企业</tspan></text></g></g><g
       id="g147"
       transform="matrix(1.3162282,0,0,1.4427616,-104.45365,-139.38735)"><g
         id="g149"
         clip-path="url(#clipPath153-5)"><text
           transform="matrix(1,0,0,-1,386.21,222.29)"
           style="font-variant:normal;font-weight:bold;font-size:16.08px;font-family:'Microsoft YaHei';-inkscape-font-specification:MicrosoftYaHei-Bold;writing-mode:lr-tb;fill:#000000;fill-opacity:1;fill-rule:nonzero;stroke:none"
           id="text157"><tspan
             x="0"
             y="0"
             id="tspan155">B</tspan></text></g></g><path
       d="M 54.625672,230.1472 174.31029,388.18731 173.2968,389.11067 53.625338,231.07056 Z m 121.369398,154.6352 2.01383,9.42123 -8.08164,-3.89546 z"
       style="fill:#5b9bd5;fill-opacity:1;fill-rule:nonzero;stroke:none;stroke-width:1.37805"
       id="path159" /><path
       d="M 212.30979,394.66531 95.349769,236.6685 96.376426,235.75956 213.3233,393.75638 Z M 93.625511,240.05897 l -1.908532,-9.45009 8.042154,3.99645 z"
       style="fill:#5b9bd5;fill-opacity:1;fill-rule:nonzero;stroke:none;stroke-width:1.37805"
       id="path161" /><path
       d="M 137.56121,394.66531 19.252041,236.65405 20.269486,235.73069 138.58786,393.74194 Z M 17.544894,240.05897 l -1.958548,-9.45009 8.061897,3.95317 z"
       style="fill:#5b9bd5;fill-opacity:1;fill-rule:nonzero;stroke:none;stroke-width:1.37805"
       id="path163" /><path
       d="m 213.17852,394.69416 135.47935,-158.32866 -0.96085,-0.98108 -135.4662,158.32867 z m 136.97985,-154.80832 2.52716,-9.27696 -8.27908,3.36164 z"
       style="fill:#5b9bd5;fill-opacity:1;fill-rule:nonzero;stroke:none;stroke-width:1.37805"
       id="path165" /><path
       d="m 389.56623,230.11836 -135.2556,158.32865 0.96086,0.98108 135.2556,-158.31422 z m -136.75609,154.80831 -2.51399,9.27697 8.27907,-3.36163 z"
       style="fill:#5b9bd5;fill-opacity:1;fill-rule:nonzero;stroke:none;stroke-width:1.37805"
       id="path167" /><path
       d="M 296.58789,394.67974 425.07807,236.48092 424.0909,235.5287 295.61388,393.72752 Z m 130.06965,-154.72175 2.3034,-9.34911 -8.2001,3.59248 z"
       style="fill:#5b9bd5;fill-opacity:1;fill-rule:nonzero;stroke:none;stroke-width:1.37805"
       id="path169" /><path
       d="m 107.45907,190.62997 h 229.35274 v -1.44275 H 107.45907 Z m 1.31624,-5.04967 -7.89738,4.3283 7.89738,4.32828 z m 226.72028,8.65658 7.89736,-4.32828 -7.89736,-4.3283 z"
       style="fill:#5b9bd5;fill-opacity:1;fill-rule:nonzero;stroke:none;stroke-width:1.37805"
       id="path171" /><g
       id="g173"
       transform="matrix(1.3162282,0,0,1.4427616,-104.45365,-139.38735)"><g
         id="g175"
         clip-path="url(#clipPath179-6)"><path
           d="m 112.77,290.27 -4.46,3.87 c 0.02,-0.19 -0.02,-0.47 -0.11,-0.83 -0.08,-0.35 -0.19,-0.66 -0.32,-0.91 l -0.64,0.56 c 0.16,0.34 0.29,0.74 0.4,1.2 0.1,0.46 0.16,0.84 0.15,1.14 l 0.22,0.24 5.33,-4.61 z m 1.8,2.77 c -0.12,0.11 -0.19,0.24 -0.2,0.39 -0.01,0.16 0.04,0.3 0.14,0.42 0.11,0.13 0.24,0.2 0.4,0.21 0.16,0.01 0.29,-0.04 0.41,-0.14 0.12,-0.1 0.18,-0.23 0.2,-0.39 0.01,-0.16 -0.04,-0.3 -0.15,-0.43 -0.11,-0.12 -0.24,-0.18 -0.4,-0.19 -0.15,-0.01 -0.29,0.03 -0.4,0.13 z"
           style="fill:#1d1d1a;fill-opacity:1;fill-rule:nonzero;stroke:none"
           id="path181" /></g></g><g
       id="g183"
       transform="matrix(1.3162282,0,0,1.4427616,-104.45365,-139.38735)"><g
         id="g185"
         clip-path="url(#clipPath189-6)"><path
           d="m 114.38,300.64 1.24,1.42 c -0.38,0.52 -0.81,1.05 -1.29,1.61 l 0.57,0.51 c 0.44,-0.52 0.84,-1.04 1.21,-1.55 l 3.23,3.72 0.5,-0.43 -3.34,-3.85 c 0.23,-0.34 0.43,-0.67 0.62,-1.01 l 2.9,3.34 0.46,-0.4 c 0.48,-0.93 0.71,-1.94 0.7,-3.03 0.93,0.3 1.84,0.8 2.72,1.5 0.05,-0.39 0.1,-0.71 0.16,-0.96 -0.86,-0.51 -1.84,-0.93 -2.93,-1.26 -0.12,-0.91 -0.48,-2.06 -1.08,-3.45 -0.28,0.03 -0.57,0.04 -0.84,0.03 0.67,1.35 1.08,2.44 1.23,3.26 -1.02,-0.15 -2.02,-0.02 -3,0.4 0.8,-1.56 1.23,-3.1 1.29,-4.63 -0.28,0.02 -0.54,0.04 -0.77,0.04 -0.04,1.8 -0.69,3.67 -1.96,5.6 l -1.61,-1.87 -0.51,0.44 c -0.27,0.55 -0.55,1.09 -0.85,1.62 l 0.62,0.42 c 0.26,-0.5 0.51,-0.99 0.73,-1.47 z m 5.59,2.77 -2.11,-2.44 c 0.8,-0.33 1.68,-0.4 2.65,-0.19 0.02,1 -0.16,1.88 -0.54,2.63 z m -3.79,1.46 -0.12,0.63 c 0.66,0.2 1.32,0.37 1.97,0.51 l 0.12,-0.74 c -0.67,-0.11 -1.32,-0.24 -1.97,-0.4 z m 6.44,2.32 1.74,2.02 c -0.08,0.09 -0.46,0.42 -1.11,0.98 l -1.54,-1.77 -0.47,0.41 2,2.3 c -0.17,0.92 -0.35,1.63 -0.56,2.15 l 0.8,0.25 c 0.07,-0.38 0.17,-0.98 0.28,-1.8 l 1.21,1.4 0.47,-0.41 -1.74,-2 c 0.57,-0.49 0.94,-0.81 1.12,-0.98 l 1.89,2.17 0.47,-0.41 -1.93,-2.22 c 0.11,-0.11 0.21,-0.22 0.29,-0.34 1.08,0.3 2.16,0.57 3.23,0.82 l 0.15,-0.75 c -1.15,-0.22 -2.16,-0.44 -3.04,-0.66 0.36,-0.85 0.34,-1.88 -0.07,-3.1 -0.26,0.01 -0.51,0.02 -0.74,0 0.54,1.55 0.45,2.72 -0.28,3.5 l -1.7,-1.96 z m 3.87,-1.65 c 0.87,0.97 1.99,2.27 3.34,3.9 0.11,-0.23 0.22,-0.45 0.32,-0.67 -1.37,-1.61 -2.44,-2.84 -3.22,-3.69 -0.72,-0.8 -1.47,-1.14 -2.25,-1.03 -0.01,-0.22 0.05,-0.73 0.18,-1.53 l -0.83,0.2 c -0.01,0.5 -0.01,0.99 -0.01,1.47 l -2.34,2.04 -0.67,-0.77 -0.49,0.43 1.12,1.29 2.95,-2.55 c 0.67,-0.03 1.3,0.28 1.9,0.91 z m -7.76,3 c 0.67,-0.01 1.41,-0.04 2.21,-0.1 l -0.1,-0.77 c -0.7,0.1 -1.43,0.16 -2.17,0.19 z m 1.87,1.69 0.04,0.67 c 0.45,0.01 0.98,0.01 1.61,-0.01 l -0.08,-0.75 c -0.62,0.06 -1.14,0.09 -1.57,0.09 z m 11.22,5.47 c 1.4,-0.09 2.63,-0.2 3.7,-0.35 l -0.1,-0.81 c -0.32,0.06 -0.65,0.11 -0.99,0.16 -1.22,-1.54 -2.19,-2.81 -2.92,-3.8 -0.13,-0.18 -0.27,-0.42 -0.42,-0.72 l -0.83,0.2 c 0.1,0.28 0.14,0.57 0.12,0.88 -0.15,1.05 -0.55,2.4 -1.2,4.04 l 0.76,0.35 c 0.47,-1.38 0.85,-2.75 1.13,-4.1 0.78,0.95 1.64,2.03 2.6,3.25 -0.61,0.08 -1.26,0.15 -1.96,0.22 z m -4.12,2.56 0.23,0.66 c 1.55,-0.58 3.18,-0.57 4.89,0.02 0.03,-0.23 0.08,-0.52 0.17,-0.88 -1.93,-0.49 -3.69,-0.43 -5.29,0.2 z m -0.52,-6.22 c 0.06,1.71 -0.26,3.29 -0.94,4.74 l 0.68,0.34 c 0.74,-1.7 1.09,-3.37 1.07,-5.02 -0.25,0.01 -0.52,-0.01 -0.81,-0.06 z m 10.17,9.39 c 0.87,-0.9 1.41,-1.86 1.61,-2.88 -0.25,-0.02 -0.52,-0.05 -0.8,-0.11 -0.14,0.7 -0.4,1.32 -0.77,1.84 -0.29,0.45 -0.91,1.08 -1.85,1.89 l -2.55,2.21 2.83,3.27 5.28,-4.58 c 0.58,-0.49 0.63,-1.02 0.15,-1.57 -0.25,-0.29 -0.55,-0.63 -0.9,-1 -0.17,0.11 -0.4,0.24 -0.66,0.4 0.35,0.35 0.63,0.65 0.83,0.88 0.29,0.32 0.3,0.61 0.01,0.86 l -1.21,1.05 z m -0.71,-1.44 c 0.17,-0.13 0.39,-0.27 0.65,-0.43 -0.02,-0.25 -0.04,-0.77 -0.07,-1.56 0,-0.21 0.02,-0.38 0.06,-0.52 l -0.8,-0.01 c 0.02,0.24 -0.09,0.46 -0.31,0.66 l -1.41,1.22 -0.83,-0.96 -0.46,0.4 0.83,0.95 -0.83,0.73 -0.41,-0.47 -0.45,0.4 1.58,1.83 0.46,-0.4 -0.76,-0.87 0.84,-0.73 0.94,1.09 0.46,-0.39 -0.94,-1.09 1.41,-1.23 c 0.01,0.4 0.02,0.87 0.04,1.38 z m 0.27,1.89 1.93,2.23 -1.26,1.09 -1.92,-2.2 c 0.21,-0.17 0.62,-0.55 1.25,-1.12 z m -2.98,2.62 1.25,-1.09 1.92,2.21 -1.25,1.08 z m -1.9,-4.6 c -0.21,0.89 -0.61,1.84 -1.17,2.84 l 0.6,0.36 c 0.18,-0.33 0.34,-0.67 0.49,-1.01 l 1.24,1.43 0.47,-0.4 -1.44,-1.66 c 0.21,-0.56 0.39,-1.12 0.53,-1.68 -0.24,0.06 -0.48,0.1 -0.72,0.12 z"
           style="fill:#1d1d1a;fill-opacity:1;fill-rule:nonzero;stroke:none"
           id="path191" /></g></g><g
       id="g193"
       transform="matrix(1.3162282,0,0,1.4427616,-104.45365,-139.38735)"><g
         id="g195"
         clip-path="url(#clipPath199-9)"><path
           d="m 118.67,261.3 c 0.59,0.13 1.06,0.43 1.44,0.89 0.3,0.37 0.44,0.74 0.44,1.1 -0.01,0.36 -0.17,0.67 -0.47,0.91 -0.68,0.55 -1.41,0.34 -2.2,-0.63 l -0.36,-0.44 -0.56,0.45 0.34,0.42 c 0.7,0.87 0.73,1.55 0.09,2.07 -0.58,0.48 -1.14,0.38 -1.68,-0.27 -0.3,-0.38 -0.46,-0.84 -0.48,-1.37 l -0.64,0.52 c 0.08,0.51 0.31,1 0.69,1.47 0.37,0.46 0.79,0.73 1.25,0.81 0.47,0.08 0.89,-0.03 1.27,-0.34 0.7,-0.56 0.86,-1.29 0.48,-2.17 l 0.02,-0.01 c 0.35,0.36 0.74,0.55 1.15,0.59 0.41,0.04 0.79,-0.08 1.14,-0.36 0.48,-0.39 0.73,-0.88 0.75,-1.47 0.01,-0.59 -0.22,-1.17 -0.68,-1.74 -0.42,-0.51 -0.84,-0.84 -1.28,-1 z m 3.8,3.58 c -0.12,0.1 -0.2,0.23 -0.21,0.38 -0.02,0.16 0.03,0.3 0.13,0.42 0.1,0.13 0.23,0.21 0.39,0.22 0.15,0.02 0.29,-0.03 0.42,-0.12 0.12,-0.1 0.18,-0.23 0.2,-0.38 0.02,-0.16 -0.03,-0.3 -0.13,-0.43 -0.1,-0.13 -0.23,-0.2 -0.39,-0.22 -0.15,-0.01 -0.29,0.03 -0.41,0.13 z"
           style="fill:#1d1d1a;fill-opacity:1;fill-rule:nonzero;stroke:none"
           id="path201" /></g></g><g
       id="g203"
       transform="matrix(1.3162282,0,0,1.4427616,-104.45365,-139.38735)"><g
         id="g205"
         clip-path="url(#clipPath209-8)"><path
           d="m 122.03,272.46 1.19,1.46 c -0.39,0.51 -0.84,1.03 -1.35,1.57 l 0.55,0.53 c 0.46,-0.51 0.89,-1.01 1.27,-1.51 l 3.1,3.83 0.51,-0.42 -3.2,-3.95 c 0.24,-0.33 0.45,-0.66 0.66,-0.99 l 2.78,3.43 0.47,-0.38 c 0.51,-0.92 0.78,-1.92 0.81,-3.01 0.91,0.33 1.8,0.86 2.66,1.6 0.06,-0.4 0.13,-0.71 0.19,-0.96 -0.84,-0.54 -1.8,-0.99 -2.88,-1.36 -0.09,-0.92 -0.41,-2.08 -0.96,-3.48 -0.29,0.02 -0.57,0.02 -0.85,0 0.62,1.37 1,2.47 1.12,3.3 -1.01,-0.18 -2.01,-0.09 -3.01,0.29 0.85,-1.53 1.33,-3.05 1.44,-4.58 -0.27,0.02 -0.53,0.02 -0.77,0.01 -0.09,1.8 -0.81,3.65 -2.14,5.54 l -1.55,-1.92 -0.52,0.42 c -0.29,0.54 -0.59,1.07 -0.9,1.59 l 0.6,0.43 c 0.28,-0.49 0.54,-0.97 0.78,-1.44 z m 5.49,2.96 -2.03,-2.5 c 0.81,-0.31 1.7,-0.35 2.66,-0.11 -0.01,1 -0.22,1.87 -0.63,2.61 z m -3.83,1.34 -0.14,0.61 c 0.65,0.23 1.3,0.42 1.94,0.58 l 0.15,-0.73 c -0.67,-0.13 -1.32,-0.28 -1.95,-0.46 z m 6.35,2.53 1.67,2.07 c -0.08,0.09 -0.47,0.41 -1.14,0.95 l -1.48,-1.83 -0.48,0.4 1.92,2.37 c -0.2,0.91 -0.41,1.62 -0.63,2.13 l 0.79,0.27 c 0.08,-0.38 0.2,-0.97 0.34,-1.78 l 1.16,1.44 0.49,-0.4 -1.67,-2.06 c 0.57,-0.47 0.96,-0.78 1.15,-0.94 l 1.81,2.23 0.48,-0.39 -1.85,-2.28 c 0.12,-0.11 0.22,-0.22 0.3,-0.34 1.07,0.34 2.14,0.65 3.2,0.93 l 0.17,-0.74 c -1.13,-0.26 -2.13,-0.52 -3.01,-0.76 0.39,-0.84 0.41,-1.87 0.04,-3.1 -0.27,0 -0.51,0 -0.74,-0.02 0.49,1.56 0.35,2.72 -0.4,3.48 l -1.64,-2.02 z m 3.92,-1.52 c 0.84,1 1.91,2.34 3.21,4.01 0.12,-0.23 0.23,-0.45 0.34,-0.66 -1.31,-1.65 -2.34,-2.92 -3.08,-3.8 -0.7,-0.82 -1.44,-1.18 -2.23,-1.1 0,-0.22 0.08,-0.73 0.23,-1.53 l -0.83,0.18 c -0.02,0.5 -0.04,0.99 -0.05,1.47 l -2.42,1.96 -0.64,-0.79 -0.5,0.41 1.07,1.33 3.03,-2.46 c 0.67,0 1.3,0.33 1.87,0.98 z m -7.85,2.74 c 0.67,0.01 1.41,0 2.21,-0.03 l -0.07,-0.77 c -0.71,0.08 -1.43,0.11 -2.18,0.11 z m 1.81,1.75 0.02,0.67 c 0.44,0.03 0.98,0.04 1.6,0.04 l -0.05,-0.75 c -0.62,0.04 -1.14,0.06 -1.57,0.04 z m 13.82,7.5 c 0.02,-0.22 0.05,-0.5 0.1,-0.86 -1.77,-0.42 -3.59,-0.42 -5.47,0 l 2.74,-2.21 1.28,1.58 0.49,-0.39 -1.29,-1.59 1.42,-1.15 -0.44,-0.54 -1.41,1.15 -1.33,-1.64 -0.49,0.4 1.33,1.64 -2.74,2.21 c 0.7,-1.53 1.1,-3.35 1.2,-5.45 -0.32,-0.04 -0.58,-0.08 -0.78,-0.12 -0.02,2.19 -0.36,4.09 -1.04,5.72 l -2.26,-2.8 -0.51,0.42 2.44,3.01 -1.25,1.01 0.44,0.54 1.24,-1.01 2.44,3.01 0.51,-0.42 -2.28,-2.81 c 1.98,-0.38 3.86,-0.28 5.66,0.3 z m -1.32,8.57 0.44,0.54 1.79,-1.45 0.85,2.09 c 0.89,-0.76 1.61,-1.39 2.16,-1.88 0.61,-0.54 0.72,-1.04 0.34,-1.51 -0.17,-0.22 -0.33,-0.43 -0.5,-0.63 -0.2,0.11 -0.42,0.23 -0.66,0.37 0.2,0.19 0.37,0.37 0.5,0.54 0.2,0.23 0.13,0.5 -0.22,0.8 -0.4,0.36 -0.86,0.77 -1.39,1.2 l -0.56,-1.4 3,-2.43 -0.44,-0.54 -2.83,2.3 -0.52,-1.31 2.68,-2.17 c 0.36,-0.3 0.7,-0.25 1.02,0.15 l 1.37,1.69 c 0.34,0.43 0.36,0.8 0.06,1.12 -0.25,0.3 -0.56,0.62 -0.92,0.98 0.22,0.12 0.44,0.26 0.66,0.41 0.4,-0.42 0.71,-0.78 0.93,-1.06 0.44,-0.54 0.41,-1.11 -0.09,-1.73 l -1.59,-1.97 c -0.54,-0.67 -1.14,-0.73 -1.79,-0.21 l -2.6,2.11 -0.26,-0.65 -0.59,0.33 0.31,0.75 -1.61,1.31 0.43,0.54 1.46,-1.17 0.53,1.3 z m 2.02,-8.84 c 0.16,0.42 0.32,0.84 0.48,1.26 l -2.76,2.24 -0.73,-0.89 -0.48,0.39 0.72,0.89 -1.93,1.56 0.41,0.52 1.94,-1.57 0.65,0.81 0.48,-0.4 -0.65,-0.8 2.59,-2.1 c 0.13,0.38 0.27,0.76 0.4,1.14 0.21,-0.15 0.39,-0.27 0.56,-0.36 -0.34,-0.98 -0.67,-1.96 -0.99,-2.93 z m 4.42,11.92 1.63,2.02 -2.38,1.92 0.48,0.6 2.39,-1.93 1.64,2.03 0.5,-0.4 -1.65,-2.03 3.91,-3.16 -0.48,-0.6 -3.91,3.16 -1.63,-2.01 z m 3.01,-1.38 c 0.25,-0.18 0.47,-0.33 0.64,-0.44 -0.13,-1.11 -0.23,-2.04 -0.27,-2.8 l -0.74,0.05 c -0.01,0.27 -0.16,0.52 -0.44,0.75 l -2.74,2.22 -0.79,-0.98 -0.5,0.4 1.24,1.54 3.37,-2.73 c 0.08,0.6 0.15,1.27 0.23,1.99 z m -6.52,1.73 c 0.92,0.08 1.6,0.14 2.03,0.16 l 0.02,-0.81 c -0.62,0.02 -1.29,-0.01 -2.03,-0.07 z m 7.6,6 0.93,1.15 c -0.35,0 -0.69,-0.01 -1.01,-0.03 l 0.02,0.4 -0.47,-0.58 c 0.13,-0.56 0.19,-1.12 0.2,-1.71 -0.2,-0.01 -0.41,-0.03 -0.63,-0.06 0.01,0.92 -0.16,1.81 -0.53,2.65 l 0.47,0.59 c 0.13,-0.28 0.23,-0.57 0.33,-0.86 l 1.63,2.02 0.4,-0.33 -1.26,-1.56 c 0.3,0.03 0.61,0.06 0.93,0.08 l -0.02,-0.54 2.58,3.2 c -0.34,-0.02 -0.7,-0.05 -1.06,-0.11 l 0.01,0.39 -0.56,-0.69 c 0.13,-0.41 0.23,-0.8 0.29,-1.17 -0.2,-0.04 -0.43,-0.09 -0.67,-0.16 -0.09,0.72 -0.31,1.43 -0.65,2.13 l 0.48,0.6 c 0.13,-0.28 0.25,-0.56 0.35,-0.83 l 1.78,2.2 0.4,-0.33 -1.28,-1.58 c 0.33,0.07 0.64,0.12 0.95,0.14 v -0.55 l 0.43,0.53 3.12,-2.52 -0.4,-0.48 -0.22,0.18 -3.26,-4.02 0.23,-0.18 -0.39,-0.49 z m 2.72,-3.7 1.52,1.88 c -0.11,0.13 -0.25,0.25 -0.41,0.38 l 0.41,0.51 c 0.16,-0.13 0.29,-0.25 0.42,-0.38 l 1.83,2.27 -0.43,0.35 0.42,0.51 0.43,-0.35 1.33,1.64 0.42,-0.35 -1.32,-1.64 1.16,-0.94 -0.42,-0.51 -1.16,0.94 -1.89,-2.34 c 0.48,-0.67 0.45,-1.55 -0.11,-2.63 -0.21,0.03 -0.44,0.05 -0.7,0.06 0.49,0.87 0.61,1.55 0.37,2.03 l -1.44,-1.78 z m 1.32,7.89 -3.26,-4.02 0.46,-0.37 3.26,4.02 z m -1.15,-5.73 3.26,4.03 -0.47,0.37 -3.25,-4.02 z m -0.82,0.67 3.25,4.02 -0.46,0.38 -3.26,-4.02 z m 5.25,11.62 2.13,2.63 5.7,-4.62 -0.44,-0.54 -0.7,0.56 -1.24,-1.53 0.69,-0.57 -0.44,-0.55 z m -2.74,-4.07 0.78,0.96 c -0.37,0.31 -0.78,0.64 -1.23,1.01 l 0.44,0.55 c 0.46,-0.38 0.87,-0.71 1.23,-1.01 l 1.31,1.61 c 1.75,-1.46 3.12,-2.62 4.1,-3.47 0.81,-0.69 0.96,-1.33 0.43,-1.91 -0.14,-0.18 -0.36,-0.44 -0.66,-0.78 -0.22,0.12 -0.45,0.25 -0.69,0.38 0.3,0.29 0.53,0.53 0.7,0.73 0.26,0.31 0.18,0.65 -0.25,1.04 -1.05,0.94 -2.24,1.95 -3.55,3.03 l -0.87,-1.07 c 0.35,-0.29 0.65,-0.54 0.89,-0.75 1.79,-1.48 2.82,-3.03 3.11,-4.67 -0.24,0 -0.5,-0.01 -0.8,-0.03 -0.22,1.44 -1.15,2.85 -2.81,4.21 -0.23,0.2 -0.51,0.44 -0.82,0.7 l -0.78,-0.96 z m 4.94,5.74 -1.25,-1.54 4,-3.23 1.24,1.54 z m 3.33,-1.32 c 0.34,0.8 0.64,1.62 0.89,2.47 l -1.59,1.28 0.4,0.49 1.37,-1.11 c 0.35,1.36 0.58,2.77 0.69,4.22 l 0.68,-0.01 c -0.14,-1.49 -0.39,-2.97 -0.77,-4.43 0.17,0.03 0.33,0.13 0.48,0.32 l 1.08,1.33 c 0.22,0.27 0.28,0.5 0.17,0.69 -0.11,0.18 -0.31,0.42 -0.63,0.73 0.19,0.1 0.4,0.22 0.63,0.37 0.3,-0.36 0.48,-0.6 0.56,-0.71 0.3,-0.4 0.25,-0.85 -0.15,-1.34 l -1.27,-1.58 c -0.33,-0.4 -0.68,-0.57 -1.06,-0.5 -0.23,-0.79 -0.49,-1.57 -0.79,-2.34 -0.23,0.06 -0.46,0.1 -0.69,0.12 z m 7.17,3.36 -0.27,0.21 -3.77,-4.66 -1.82,1.47 0.42,0.53 1.32,-1.07 1.46,1.79 -1.6,1.29 0.45,0.55 1.59,-1.28 1.46,1.79 -1.33,1.07 0.43,0.52 2.09,-1.69 z m -10.31,-0.33 2.4,2.97 c -0.23,0.05 -0.48,0.09 -0.75,0.13 l 0.17,0.71 c 0.36,-0.05 0.72,-0.12 1.09,-0.22 l 2.24,2.77 1.23,-0.99 -0.45,-0.57 -0.73,0.6 -4.25,-5.24 0.74,-0.6 -0.46,-0.56 z m 1.92,-0.21 0.58,0.33 c 0.32,-0.62 0.59,-1.23 0.81,-1.82 -0.19,-0.09 -0.4,-0.2 -0.63,-0.33 -0.16,0.55 -0.41,1.16 -0.76,1.82 z m 4.13,4.01 0.03,0.65 c 0.68,0.04 1.3,0.05 1.85,0.03 l -0.03,-0.73 c -0.55,0.04 -1.17,0.06 -1.85,0.05 z m -3.11,-2.04 -0.02,0.61 c 0.49,0.11 0.96,0.19 1.39,0.24 l 0.04,-0.7 c -0.49,-0.03 -0.97,-0.08 -1.41,-0.15 z m 6.25,11.07 0.65,0.3 c 0.14,-0.46 0.26,-0.89 0.35,-1.28 l 0.87,1.07 1.97,-1.59 -0.4,-0.5 -0.19,0.15 -0.97,-1.19 0.87,-0.7 1.68,2.07 c 0.69,-0.69 1.18,-1.18 1.47,-1.5 0.36,-0.4 0.33,-0.86 -0.08,-1.38 -0.19,-0.23 -0.43,-0.48 -0.71,-0.74 -0.24,0.16 -0.46,0.28 -0.65,0.37 0.33,0.28 0.58,0.51 0.74,0.69 0.23,0.25 0.29,0.47 0.18,0.63 -0.22,0.28 -0.53,0.61 -0.94,1.01 l -1.23,-1.52 2.66,-2.15 -0.4,-0.5 -2.28,1.84 c 0.27,-1.11 0.32,-2.28 0.13,-3.49 -0.24,0.01 -0.49,0 -0.73,-0.02 0.28,1.27 0.3,2.48 0.04,3.61 l -1.23,-1.53 -1.6,1.68 1.22,1.51 -0.86,0.7 -1.31,-1.62 -0.46,0.37 0.78,0.97 c -0.4,0.07 -0.82,0.12 -1.26,0.14 l 0.09,0.62 c 0.45,-0.01 0.89,-0.04 1.29,-0.09 l -0.07,-0.61 0.9,1.11 c -0.15,0.51 -0.32,1.03 -0.52,1.57 z m -0.03,-8.98 c -0.36,1.1 -0.9,2.1 -1.61,3 l -0.74,-0.91 -0.49,0.39 0.75,0.93 -1.41,1.14 0.4,0.5 1.42,-1.14 0.65,0.8 0.48,-0.39 -0.65,-0.8 0.66,-0.54 -0.03,0.37 c 0.44,0.05 0.89,0.1 1.36,0.14 l 0.05,-0.64 c -0.47,0 -0.85,-0.02 -1.15,-0.05 l 4.03,-3.27 -0.4,-0.5 -3.65,2.96 c 0.57,-0.84 0.94,-1.59 1.12,-2.26 -0.25,0.1 -0.51,0.19 -0.79,0.27 z m 1.95,8.21 -0.96,-1.2 0.87,-0.7 0.96,1.19 z m -0.13,-4.65 0.96,1.18 -0.87,0.71 -0.88,-1.08 z m 5.27,4.83 -0.46,0.37 3.52,4.34 0.45,-0.36 c 0.11,-0.79 0.11,-1.59 -0.01,-2.42 0.8,0.45 1.61,1.09 2.41,1.92 l 0.33,-0.71 c -0.98,-0.91 -1.94,-1.58 -2.89,-2.01 -0.25,-1.07 -0.69,-2.18 -1.31,-3.33 -0.21,0.05 -0.45,0.09 -0.73,0.12 0.59,1.03 1.03,2.01 1.3,2.93 -0.72,-0.24 -1.44,-0.33 -2.15,-0.28 z m -2.74,1.88 0.83,1.03 -0.58,0.47 0.43,0.53 0.58,-0.47 1.58,1.95 -0.58,0.48 0.42,0.53 0.59,-0.48 1.02,1.26 0.46,-0.37 -1.02,-1.26 1.33,-1.08 -0.43,-0.52 -0.24,0.19 -1.59,-1.95 0.25,-0.21 -0.43,-0.52 -1.33,1.08 -0.84,-1.03 z m -0.32,3.3 0.17,0.7 c 0.37,-0.04 0.78,-0.11 1.22,-0.2 l 2.07,2.55 0.48,-0.39 -4.47,-5.53 2.08,-1.68 c 1.58,-1.28 2.51,-2.54 2.78,-3.78 -0.24,0.01 -0.5,0 -0.79,-0.02 -0.21,1.02 -1.03,2.11 -2.46,3.29 l -2.53,2.05 2.32,2.87 c -0.29,0.06 -0.58,0.11 -0.87,0.14 z m 2.68,-2.64 1.58,1.96 -0.64,0.52 -1.58,-1.95 z m 3.31,1.08 -2,-2.47 c 0.63,0.04 1.25,0.18 1.87,0.44 0.15,0.71 0.19,1.39 0.13,2.03 z m 0.65,8.36 2.48,3.06 5.78,-4.68 -0.45,-0.56 -0.67,0.55 -1.58,-1.95 0.67,-0.55 -0.45,-0.55 z m 2.54,2.09 -1.58,-1.95 4.1,-3.32 1.58,1.95 z m -1.35,-8.9 c -0.27,1.09 -0.71,2.13 -1.31,3.14 l -0.98,-1.22 -0.47,0.38 1.07,1.33 -1.1,0.88 c -0.23,-0.4 -0.48,-0.81 -0.73,-1.21 -0.19,0.08 -0.39,0.16 -0.6,0.23 0.67,1.05 1.27,2.1 1.79,3.17 l 0.61,-0.23 c -0.23,-0.45 -0.47,-0.9 -0.73,-1.36 l 1.18,-0.96 1.05,1.3 0.47,-0.38 -1.05,-1.3 0.9,-0.72 -0.05,0.45 c 0.61,0.11 1.23,0.2 1.87,0.27 l 0.08,-0.72 c -0.55,-0.02 -1.12,-0.07 -1.73,-0.14 l 3.22,-2.61 -0.43,-0.52 -3.32,2.69 c 0.46,-0.83 0.82,-1.72 1.07,-2.69 -0.24,0.07 -0.51,0.14 -0.81,0.22 z m 3.34,13.51 2.75,3.4 2.12,-1.71 -0.41,-0.51 -0.2,0.17 -1.94,-2.39 0.19,-0.15 -0.41,-0.51 z m 1.1,-5.65 c 0.19,0.4 0.38,0.78 0.55,1.16 l -1.62,1.31 -0.74,-0.91 -0.5,0.4 0.74,0.92 -1.33,1.08 0.41,0.51 1.34,-1.08 0.73,0.91 0.5,-0.41 -0.73,-0.9 1.48,-1.2 c 0.15,0.35 0.3,0.69 0.44,1.02 0.21,-0.15 0.4,-0.27 0.56,-0.37 -0.14,-0.31 -0.3,-0.67 -0.47,-1.09 l 2.08,-1.68 c 0.51,-0.41 0.61,-0.83 0.29,-1.24 -0.17,-0.22 -0.38,-0.46 -0.6,-0.73 -0.21,0.14 -0.42,0.26 -0.62,0.36 0.26,0.26 0.45,0.45 0.55,0.59 0.16,0.19 0.12,0.39 -0.13,0.58 l -1.83,1.49 c -0.15,-0.35 -0.3,-0.72 -0.47,-1.13 z m 1.23,3.3 3.19,3.94 2.51,-2.03 -0.41,-0.5 -2.04,1.65 -2.38,-2.93 2.05,-1.67 -0.4,-0.5 z m 2.59,1.61 c 0.57,-0.47 1,-0.88 1.26,-1.25 1.05,0.4 2.08,0.76 3.1,1.08 l 0.15,-0.77 c -0.9,-0.2 -1.88,-0.51 -2.93,-0.9 0.35,-0.93 0.19,-2.06 -0.49,-3.39 -0.19,0.03 -0.46,0.07 -0.79,0.1 0.87,1.47 0.99,2.64 0.37,3.52 -0.19,0.28 -0.56,0.64 -1.1,1.08 z m -2.11,3.26 -1.94,-2.39 0.99,-0.8 1.93,2.39 z m 6.63,-3.17 c 0.8,2.18 0.8,3.88 -0.02,5.1 l -2.41,-2.97 -0.53,0.42 2.49,3.08 c -0.29,0.28 -0.74,0.68 -1.34,1.19 l -1.48,-1.82 c 0.21,-0.52 0.38,-1.04 0.51,-1.58 -0.19,-0.03 -0.41,-0.08 -0.69,-0.17 -0.23,1.1 -0.69,2.14 -1.36,3.13 l 0.6,0.4 c 0.23,-0.36 0.44,-0.72 0.63,-1.09 l 1.27,1.57 c -0.4,0.33 -0.85,0.7 -1.35,1.11 l 0.48,0.59 c 0.49,-0.41 0.93,-0.79 1.33,-1.13 l 2.1,2.59 0.53,-0.42 -2.11,-2.61 c 0.55,-0.46 1,-0.86 1.36,-1.17 l 2.45,3.03 0.53,-0.43 -2.41,-2.98 c 1.51,-0.5 3.13,-0.11 4.86,1.15 0.08,-0.3 0.15,-0.59 0.23,-0.87 -1.81,-1.1 -3.46,-1.41 -4.95,-0.93 0.76,-1.22 0.81,-2.95 0.15,-5.19 -0.2,0.01 -0.5,0.01 -0.87,0 z"
           style="fill:#1d1d1a;fill-opacity:1;fill-rule:nonzero;stroke:none"
           id="path211" /></g></g><g
       id="g213"
       transform="matrix(1.3162282,0,0,1.4427616,-104.45365,-139.38735)"><g
         id="g215"
         clip-path="url(#clipPath219-7)"><path
           d="m 142.27,265.61 3.54,-2.86 0.65,0.8 0.56,-0.45 -0.65,-0.81 1.26,-1.02 -0.53,-0.65 -1.26,1.02 -2.03,-2.51 -0.53,0.43 c -0.14,0.85 -0.35,1.77 -0.64,2.75 -0.29,0.97 -0.6,1.84 -0.94,2.6 z m 1.6,-5.26 1.41,1.74 -2.56,2.07 c 0.24,-0.59 0.45,-1.19 0.63,-1.79 0.18,-0.6 0.36,-1.28 0.52,-2.02 z m 4.45,2.51 c -0.12,0.1 -0.19,0.23 -0.21,0.38 -0.01,0.16 0.03,0.3 0.13,0.42 0.11,0.13 0.24,0.2 0.39,0.22 0.16,0.02 0.3,-0.03 0.42,-0.13 0.12,-0.09 0.19,-0.22 0.2,-0.37 0.02,-0.16 -0.02,-0.3 -0.13,-0.43 -0.1,-0.13 -0.23,-0.2 -0.39,-0.22 -0.15,-0.01 -0.29,0.03 -0.41,0.13 z"
           style="fill:#1d1d1a;fill-opacity:1;fill-rule:nonzero;stroke:none"
           id="path221" /></g></g><g
       id="g223"
       transform="matrix(1.3162282,0,0,1.4427616,-104.45365,-139.38735)"><g
         id="g225"
         clip-path="url(#clipPath229-7)"><path
           d="m 151.26,271.36 -0.09,0.63 c 0.76,0.19 1.5,0.37 2.2,0.54 -0.1,0.74 -0.33,1.43 -0.69,2.07 l -2.25,-2.79 c 1.33,-1.08 2.11,-2.25 2.33,-3.5 -0.22,0.01 -0.46,0.01 -0.73,-0.01 -0.19,1.05 -0.88,2.06 -2.07,3.03 l -1.9,1.53 c 1.17,1.49 2.15,2.9 2.92,4.22 l 0.7,-0.25 c -0.84,-1.29 -1.75,-2.57 -2.71,-3.83 l 0.98,-0.79 2.71,3.35 0.49,-0.4 c 0.47,-0.75 0.77,-1.58 0.91,-2.47 0.77,0.17 1.5,0.31 2.2,0.43 l 0.11,-0.78 c -0.76,-0.11 -1.51,-0.24 -2.24,-0.38 0.04,-0.93 -0.08,-1.93 -0.37,-3.01 -0.22,0.02 -0.46,0.02 -0.72,0.02 0.29,1.02 0.42,1.97 0.39,2.86 -0.74,-0.15 -1.46,-0.3 -2.17,-0.47 z m 2.73,-2.66 1.43,1.71 1.78,2.31 c 0.11,-0.18 0.24,-0.39 0.39,-0.64 l -1.81,-2.22 -1.4,-1.69 c -0.65,-0.78 -1.36,-1.12 -2.14,-1 0.02,-0.33 0.1,-0.86 0.25,-1.58 l -0.8,0.18 c -0.07,0.72 -0.11,1.25 -0.13,1.57 l -2.33,1.89 -0.67,-0.83 -0.51,0.42 1.1,1.35 2.96,-2.4 c 0.67,-0.08 1.3,0.23 1.88,0.93 z m -7.62,2.8 c 0.48,0.01 1.18,-0.02 2.1,-0.09 l -0.06,-0.77 c -0.89,0.1 -1.59,0.16 -2.1,0.18 z m 5.68,6.44 4.9,6.05 6.34,-5.14 -0.47,-0.58 -0.44,0.36 -3.96,-4.89 0.44,-0.35 -0.47,-0.59 z m 4.94,5.05 -3.95,-4.89 4.88,-3.95 3.96,4.88 z m -2.11,-4.77 2.38,2.94 3.03,-2.45 -0.44,-0.54 -0.39,0.31 -1.51,-1.86 0.39,-0.31 -0.44,-0.54 z m 2.43,2.01 -1.51,-1.87 1.67,-1.35 1.51,1.86 z m 1.66,3.11 c -0.15,0.95 -0.47,1.89 -0.95,2.81 l 0.52,0.38 c 0.12,-0.25 0.23,-0.5 0.33,-0.74 l 1.05,1.3 0.43,-0.35 0.33,-1.1 0.72,0.88 4.17,-3.38 c 0.46,-0.37 0.51,-0.79 0.15,-1.25 -0.16,-0.2 -0.33,-0.41 -0.52,-0.61 -0.12,0.08 -0.3,0.18 -0.52,0.3 0.2,0.21 0.37,0.39 0.51,0.57 0.18,0.22 0.16,0.42 -0.05,0.6 l -1.13,0.91 -0.51,-0.62 1.29,-1.04 -0.37,-0.45 -1.28,1.04 -0.5,-0.62 c 0.84,-0.74 1.35,-1.47 1.54,-2.18 -0.21,-0.01 -0.43,-0.04 -0.67,-0.1 -0.23,0.75 -0.77,1.46 -1.61,2.15 l -2.36,1.91 c 0.03,-0.13 0.06,-0.26 0.08,-0.39 -0.17,0.01 -0.39,0 -0.65,-0.02 z m 5.64,0.93 1.32,1.64 -0.99,0.8 -0.68,-0.83 c 0.18,-0.32 0.35,-0.62 0.49,-0.92 -0.18,-0.07 -0.37,-0.17 -0.57,-0.28 -0.34,0.7 -0.74,1.36 -1.18,1.98 l 0.52,0.37 c 0.14,-0.21 0.27,-0.41 0.4,-0.61 l 0.55,0.67 -0.75,0.61 0.41,0.51 0.75,-0.6 1,1.24 0.47,-0.39 -1,-1.23 1,-0.81 1.13,1.4 0.48,-0.38 -1.14,-1.4 1.45,-1.18 -0.41,-0.51 -1.46,1.18 -1.32,-1.64 z m -4.48,3.75 2.52,3.11 c 0.44,-0.38 0.84,-0.74 1.21,-1.1 0.54,-0.49 0.58,-1.01 0.13,-1.57 -0.16,-0.2 -0.36,-0.43 -0.6,-0.7 -0.22,0.13 -0.43,0.25 -0.63,0.35 0.31,0.3 0.54,0.54 0.69,0.73 0.2,0.25 0.18,0.5 -0.07,0.74 -0.19,0.19 -0.42,0.4 -0.69,0.64 l -1.07,-1.31 c 0.45,-0.39 0.75,-0.77 0.9,-1.13 0.18,-0.42 0.23,-0.98 0.16,-1.68 -0.18,0.02 -0.42,0.03 -0.72,0.03 0.11,0.55 0.09,1 -0.04,1.35 -0.1,0.29 -0.33,0.59 -0.7,0.92 l -0.62,-0.76 z m -0.68,-3.91 0.78,0.97 -0.34,1.11 -0.79,-0.98 c 0.14,-0.38 0.26,-0.75 0.35,-1.1 z m 3.65,-0.74 0.5,0.62 -0.88,0.71 -0.5,-0.62 z m -1.66,2.37 -0.5,-0.62 0.87,-0.71 0.5,0.62 z m 0.8,-3.43 0.49,0.61 -0.88,0.71 -0.49,-0.61 z m -1.29,1.04 0.49,0.61 -0.87,0.71 -0.49,-0.61 z m 5.89,5.32 c 0.35,0.81 0.64,1.63 0.89,2.47 l -1.58,1.29 0.39,0.49 1.38,-1.12 c 0.35,1.37 0.58,2.78 0.68,4.23 l 0.68,-0.01 c -0.13,-1.49 -0.39,-2.97 -0.76,-4.43 0.17,0.02 0.33,0.13 0.48,0.31 l 1.08,1.33 c 0.22,0.28 0.28,0.51 0.16,0.69 -0.1,0.18 -0.31,0.43 -0.62,0.74 0.18,0.1 0.39,0.22 0.62,0.36 0.3,-0.35 0.49,-0.59 0.56,-0.71 0.3,-0.4 0.26,-0.84 -0.14,-1.33 l -1.28,-1.58 c -0.32,-0.4 -0.67,-0.57 -1.06,-0.51 -0.22,-0.78 -0.49,-1.56 -0.78,-2.34 -0.23,0.06 -0.47,0.1 -0.7,0.12 z m 7.18,3.36 -0.27,0.22 -3.78,-4.67 -1.82,1.48 0.43,0.53 1.32,-1.08 1.45,1.8 -1.59,1.29 0.45,0.55 1.59,-1.29 1.45,1.79 -1.32,1.07 0.43,0.53 2.09,-1.69 z m -10.31,-0.32 2.4,2.96 c -0.24,0.05 -0.49,0.1 -0.75,0.14 l 0.17,0.7 c 0.35,-0.04 0.71,-0.12 1.08,-0.22 l 2.25,2.78 1.23,-1 -0.45,-0.56 -0.74,0.59 -4.24,-5.24 0.73,-0.59 -0.45,-0.56 z m 1.91,-0.21 0.58,0.33 c 0.33,-0.62 0.6,-1.23 0.82,-1.83 -0.2,-0.08 -0.41,-0.19 -0.64,-0.32 -0.15,0.55 -0.41,1.15 -0.76,1.82 z m 4.13,4.01 0.03,0.64 c 0.69,0.04 1.31,0.05 1.86,0.03 l -0.03,-0.73 c -0.56,0.05 -1.18,0.07 -1.86,0.06 z m -3.11,-2.04 -0.02,0.61 c 0.5,0.11 0.96,0.19 1.39,0.24 l 0.05,-0.71 c -0.5,-0.03 -0.97,-0.08 -1.42,-0.14 z m 3.26,5.01 0.56,0.69 c -0.28,0.51 -0.55,0.97 -0.8,1.36 l 0.63,0.44 c 0.24,-0.43 0.45,-0.83 0.65,-1.21 l 1.12,1.38 5.51,-4.46 -0.45,-0.56 -0.54,0.44 -1.26,-1.56 0.59,-0.47 -0.45,-0.56 z m 3.66,1.61 c -0.34,1 -0.9,2.06 -1.68,3.18 l 0.62,0.47 c 0.25,-0.4 0.48,-0.79 0.69,-1.16 l 1.81,2.23 c 2.32,-1.97 3.78,-3.23 4.36,-3.76 0.7,-0.62 0.75,-1.3 0.16,-2.03 -0.34,-0.42 -0.7,-0.83 -1.08,-1.24 -0.25,0.16 -0.48,0.29 -0.7,0.39 l 0.02,0.02 c 0.43,0.41 0.81,0.8 1.12,1.18 0.34,0.42 0.3,0.83 -0.12,1.22 -0.64,0.61 -1.89,1.68 -3.73,3.21 l -1.5,-1.86 c 0.28,-0.56 0.51,-1.09 0.67,-1.58 -0.19,-0.05 -0.4,-0.14 -0.64,-0.27 z m 1.24,-4.67 1.26,1.56 -1.75,1.42 -1.26,-1.56 z m -2.67,4.75 -1.26,-1.56 1.68,-1.36 1.26,1.55 z m 2.39,0.15 0.03,0.68 c 1.02,0.02 1.88,0 2.57,-0.05 l -0.06,-0.8 c -0.8,0.1 -1.64,0.16 -2.54,0.17 z m 4.12,11.31 0.65,0.29 c 0.14,-0.46 0.25,-0.89 0.35,-1.28 l 0.87,1.08 1.97,-1.6 -0.4,-0.5 -0.2,0.16 -0.96,-1.19 0.87,-0.71 1.68,2.07 c 0.69,-0.68 1.18,-1.18 1.46,-1.5 0.37,-0.4 0.34,-0.86 -0.08,-1.37 -0.19,-0.24 -0.42,-0.49 -0.7,-0.74 -0.24,0.15 -0.46,0.27 -0.65,0.37 0.33,0.27 0.57,0.5 0.74,0.68 0.23,0.26 0.29,0.47 0.18,0.63 -0.22,0.28 -0.54,0.62 -0.94,1.01 l -1.23,-1.52 2.65,-2.15 -0.4,-0.5 -2.28,1.84 c 0.28,-1.11 0.32,-2.27 0.14,-3.48 -0.25,0 -0.49,0 -0.74,-0.03 0.29,1.28 0.3,2.48 0.05,3.61 l -1.23,-1.52 -1.6,1.67 1.22,1.51 -0.87,0.7 -1.3,-1.61 -0.46,0.37 0.78,0.96 c -0.41,0.07 -0.83,0.12 -1.26,0.14 l 0.08,0.63 c 0.46,-0.01 0.89,-0.05 1.3,-0.1 l -0.07,-0.61 0.9,1.11 c -0.15,0.51 -0.33,1.04 -0.52,1.58 z m -0.04,-8.99 c -0.36,1.1 -0.89,2.1 -1.61,3.01 l -0.74,-0.92 -0.48,0.4 0.75,0.92 -1.41,1.15 0.4,0.5 1.41,-1.15 0.65,0.81 0.49,-0.4 -0.65,-0.8 0.66,-0.54 -0.03,0.37 c 0.43,0.06 0.88,0.1 1.36,0.14 l 0.04,-0.64 c -0.46,0 -0.85,-0.02 -1.15,-0.05 l 4.04,-3.27 -0.41,-0.49 -3.64,2.95 c 0.56,-0.84 0.93,-1.59 1.11,-2.26 -0.24,0.1 -0.51,0.19 -0.79,0.27 z m 1.96,8.21 -0.96,-1.19 0.86,-0.7 0.97,1.19 z m -0.13,-4.65 0.96,1.18 -0.88,0.71 -0.87,-1.08 z m 5.42,5.02 -0.46,0.37 3.51,4.34 0.45,-0.36 c 0.12,-0.79 0.11,-1.59 -0.01,-2.42 0.81,0.45 1.62,1.09 2.42,1.92 l 0.32,-0.71 c -0.97,-0.91 -1.94,-1.58 -2.89,-2.01 -0.25,-1.07 -0.68,-2.18 -1.31,-3.33 -0.21,0.05 -0.45,0.09 -0.73,0.12 0.6,1.03 1.04,2.01 1.31,2.93 -0.72,-0.24 -1.44,-0.33 -2.15,-0.28 z m -2.75,1.88 0.84,1.03 -0.58,0.47 0.42,0.53 0.58,-0.48 1.59,1.96 -0.59,0.48 0.43,0.53 0.59,-0.48 1.02,1.26 0.45,-0.37 -1.02,-1.26 1.33,-1.08 -0.42,-0.52 -0.25,0.19 -1.58,-1.95 0.25,-0.21 -0.43,-0.52 -1.33,1.08 -0.84,-1.03 z m -0.31,3.3 0.16,0.7 c 0.38,-0.04 0.79,-0.11 1.23,-0.2 l 2.06,2.55 0.49,-0.39 -4.48,-5.53 2.09,-1.68 c 1.58,-1.28 2.5,-2.54 2.78,-3.78 -0.24,0.01 -0.51,0 -0.79,-0.02 -0.21,1.02 -1.03,2.11 -2.46,3.28 l -2.54,2.06 2.33,2.87 c -0.29,0.06 -0.58,0.1 -0.87,0.14 z m 2.68,-2.64 1.58,1.96 -0.64,0.52 -1.59,-1.95 z m 3.31,1.08 -2,-2.47 c 0.62,0.04 1.25,0.18 1.87,0.44 0.15,0.71 0.19,1.39 0.13,2.03 z m 0.49,8.17 2.48,3.06 5.78,-4.68 -0.45,-0.55 -0.67,0.54 -1.58,-1.95 0.67,-0.55 -0.45,-0.55 z m 2.55,2.09 -1.58,-1.95 4.09,-3.32 1.58,1.95 z m -1.35,-8.9 c -0.28,1.09 -0.71,2.14 -1.32,3.14 l -0.98,-1.21 -0.47,0.38 1.07,1.32 -1.09,0.89 c -0.24,-0.41 -0.48,-0.81 -0.73,-1.22 -0.19,0.08 -0.39,0.16 -0.6,0.23 0.67,1.05 1.26,2.11 1.78,3.17 l 0.62,-0.23 c -0.23,-0.45 -0.48,-0.9 -0.73,-1.36 l 1.18,-0.95 1.05,1.29 0.47,-0.38 -1.05,-1.3 0.89,-0.72 -0.04,0.45 c 0.6,0.11 1.23,0.2 1.86,0.27 l 0.08,-0.72 c -0.54,-0.02 -1.12,-0.07 -1.72,-0.14 l 3.21,-2.6 -0.42,-0.53 -3.32,2.69 c 0.46,-0.83 0.81,-1.72 1.06,-2.69 -0.24,0.07 -0.51,0.15 -0.8,0.22 z m 3.49,13.7 2.75,3.4 2.11,-1.71 -0.41,-0.51 -0.2,0.16 -1.93,-2.38 0.18,-0.15 -0.4,-0.51 z m 1.09,-5.65 c 0.2,0.4 0.38,0.78 0.56,1.16 l -1.62,1.31 -0.74,-0.91 -0.5,0.4 0.74,0.92 -1.34,1.08 0.42,0.51 1.33,-1.08 0.74,0.91 0.5,-0.41 -0.74,-0.9 1.48,-1.2 c 0.16,0.35 0.31,0.69 0.45,1.02 0.21,-0.15 0.39,-0.28 0.56,-0.37 -0.14,-0.31 -0.3,-0.68 -0.47,-1.09 l 2.07,-1.68 c 0.52,-0.41 0.61,-0.83 0.29,-1.24 -0.17,-0.22 -0.37,-0.46 -0.6,-0.73 -0.2,0.14 -0.41,0.25 -0.62,0.36 0.27,0.25 0.45,0.45 0.56,0.59 0.16,0.19 0.11,0.39 -0.13,0.58 l -1.84,1.49 c -0.14,-0.35 -0.29,-0.73 -0.46,-1.13 z m 1.23,3.3 3.2,3.94 2.5,-2.03 -0.41,-0.5 -2.04,1.65 -2.37,-2.93 2.05,-1.67 -0.41,-0.5 z m 2.59,1.61 c 0.58,-0.47 1,-0.88 1.27,-1.25 1.05,0.4 2.08,0.76 3.1,1.08 l 0.15,-0.77 c -0.91,-0.21 -1.88,-0.51 -2.94,-0.9 0.36,-0.93 0.19,-2.07 -0.49,-3.39 -0.19,0.03 -0.45,0.07 -0.78,0.1 0.87,1.47 0.99,2.64 0.37,3.52 -0.19,0.28 -0.56,0.64 -1.11,1.08 z m -2.1,3.26 -1.94,-2.39 0.98,-0.8 1.94,2.39 z m 6.47,-3.36 c 0.81,2.18 0.8,3.88 -0.02,5.1 l -2.41,-2.97 -0.52,0.43 2.49,3.07 c -0.3,0.29 -0.75,0.69 -1.35,1.2 l -1.48,-1.83 c 0.22,-0.51 0.39,-1.04 0.51,-1.58 -0.18,-0.03 -0.41,-0.08 -0.68,-0.16 -0.24,1.09 -0.69,2.14 -1.37,3.12 l 0.6,0.4 c 0.24,-0.36 0.45,-0.72 0.63,-1.09 l 1.28,1.58 c -0.4,0.33 -0.85,0.7 -1.35,1.11 l 0.48,0.58 c 0.48,-0.41 0.93,-0.78 1.33,-1.12 l 2.1,2.59 0.52,-0.43 -2.11,-2.6 c 0.55,-0.47 1.01,-0.86 1.37,-1.18 l 2.45,3.03 0.52,-0.43 -2.41,-2.97 c 1.52,-0.51 3.14,-0.12 4.87,1.15 0.07,-0.31 0.15,-0.6 0.22,-0.87 -1.81,-1.1 -3.46,-1.42 -4.94,-0.94 0.76,-1.22 0.81,-2.95 0.14,-5.18 -0.2,0 -0.49,0 -0.87,-0.01 z m 6.91,8.93 0.56,0.7 -4.28,3.47 1.32,1.63 -0.63,0.51 -1.62,-2.01 -0.47,0.39 1.62,2 -0.73,0.6 0.43,0.52 0.73,-0.59 1.76,2.18 0.47,-0.38 -1.76,-2.18 0.63,-0.51 1.36,1.67 4.28,-3.47 0.53,0.66 0.47,-0.38 -4.2,-5.19 z m -4.12,0.49 c -0.42,1.37 -1.15,2.75 -2.19,4.16 l 0.57,0.39 c 0.44,-0.67 0.84,-1.32 1.19,-1.96 l 4.92,-3.98 -0.41,-0.51 -3.86,3.12 c 0.21,-0.5 0.38,-0.98 0.52,-1.46 -0.24,0.09 -0.49,0.17 -0.74,0.24 z m 5.1,0.72 2.28,2.81 -0.63,0.51 -2.28,-2.81 z m -1.55,5.91 -2.28,-2.81 0.63,-0.5 2.27,2.81 z m -0.59,-4.18 2.28,2.81 -0.63,0.51 -2.27,-2.81 z m 1.07,-0.86 2.27,2.81 -0.62,0.5 -2.28,-2.81 z"
           style="fill:#1d1d1a;fill-opacity:1;fill-rule:nonzero;stroke:none"
           id="path231" /></g></g><g
       id="g233"
       transform="matrix(1.3162282,0,0,1.4427616,-104.45365,-139.38735)"><g
         id="g235"
         clip-path="url(#clipPath239-5)"><path
           d="m 334.34,347.6 4.39,3.95 c -0.2,0.01 -0.47,0.08 -0.81,0.2 -0.34,0.13 -0.63,0.28 -0.87,0.44 l 0.64,0.57 c 0.32,-0.21 0.7,-0.39 1.14,-0.55 0.44,-0.16 0.81,-0.26 1.11,-0.29 l 0.22,-0.25 -5.24,-4.71 z m 2.53,-2.13 c 0.12,0.11 0.26,0.16 0.41,0.15 0.16,-0.01 0.29,-0.07 0.4,-0.19 0.11,-0.13 0.16,-0.27 0.15,-0.42 -0.01,-0.16 -0.07,-0.29 -0.19,-0.39 -0.11,-0.11 -0.25,-0.15 -0.4,-0.15 -0.16,0.01 -0.3,0.08 -0.41,0.2 -0.11,0.12 -0.16,0.26 -0.15,0.42 0.01,0.15 0.08,0.28 0.19,0.38 z"
           style="fill:#1d1d1a;fill-opacity:1;fill-rule:nonzero;stroke:none"
           id="path241" /></g></g><g
       id="g243"
       transform="matrix(1.3162282,0,0,1.4427616,-104.45365,-139.38735)"><g
         id="g245"
         clip-path="url(#clipPath249-0)"><path
           d="m 344.43,344.72 1.26,-1.4 c 0.56,0.31 1.14,0.67 1.75,1.09 l 0.44,-0.63 c -0.57,-0.38 -1.13,-0.72 -1.69,-1.02 l 3.3,-3.66 -0.49,-0.44 -3.41,3.78 c -0.36,-0.18 -0.72,-0.34 -1.08,-0.49 l 2.96,-3.28 -0.46,-0.42 c -0.98,-0.35 -2.01,-0.46 -3.09,-0.32 0.18,-0.96 0.57,-1.92 1.16,-2.88 -0.4,0 -0.72,-0.01 -0.97,-0.04 -0.4,0.92 -0.7,1.94 -0.9,3.06 -0.89,0.23 -1.99,0.73 -3.29,1.5 0.07,0.28 0.11,0.56 0.14,0.83 1.26,-0.83 2.29,-1.37 3.08,-1.62 -0.02,1.03 0.23,2 0.76,2.93 -1.64,-0.61 -3.23,-0.84 -4.75,-0.71 0.06,0.27 0.1,0.52 0.13,0.76 1.8,-0.19 3.73,0.23 5.8,1.25 l -1.65,1.83 0.5,0.45 c 0.58,0.2 1.15,0.41 1.71,0.64 l 0.33,-0.67 c -0.52,-0.19 -1.04,-0.37 -1.54,-0.54 z m 2.06,-5.88 -2.15,2.39 c -0.44,-0.75 -0.61,-1.62 -0.52,-2.6 0.99,-0.15 1.88,-0.08 2.67,0.21 z m 1.92,3.57 0.63,0.05 c 0.12,-0.68 0.21,-1.35 0.27,-2.02 l -0.75,-0.03 c -0.02,0.68 -0.07,1.35 -0.15,2 z m 1.51,-6.67 1.78,-1.98 c 0.1,0.08 0.48,0.41 1.12,0.99 l -1.57,1.74 0.46,0.42 2.05,-2.27 c 0.92,0.05 1.66,0.15 2.19,0.29 l 0.15,-0.82 c -0.39,-0.03 -0.99,-0.05 -1.81,-0.06 l 1.24,-1.37 -0.47,-0.42 -1.77,1.97 c -0.56,-0.5 -0.93,-0.83 -1.12,-0.99 l 1.93,-2.14 -0.46,-0.41 -1.97,2.18 c -0.12,-0.09 -0.25,-0.18 -0.38,-0.24 0.17,-1.11 0.31,-2.21 0.42,-3.31 l -0.77,-0.05 c -0.07,1.16 -0.17,2.19 -0.27,3.09 -0.89,-0.25 -1.91,-0.1 -3.07,0.45 0.05,0.26 0.08,0.51 0.09,0.74 1.48,-0.73 2.64,-0.78 3.51,-0.16 l -1.74,1.94 z m -2.12,-3.63 c 0.86,-0.99 2.02,-2.26 3.47,-3.8 -0.25,-0.08 -0.48,-0.16 -0.71,-0.24 -1.43,1.56 -2.52,2.78 -3.27,3.65 -0.7,0.82 -0.94,1.61 -0.74,2.37 -0.22,0.03 -0.73,0.04 -1.55,0.01 l 0.31,0.79 c 0.49,-0.05 0.98,-0.11 1.46,-0.17 l 2.31,2.08 -0.68,0.75 0.49,0.44 1.14,-1.27 -2.9,-2.61 c -0.11,-0.67 0.12,-1.33 0.67,-2 z m 3.94,7.33 c -0.09,-0.67 -0.22,-1.4 -0.38,-2.18 l -0.74,0.19 c 0.18,0.68 0.33,1.39 0.45,2.13 z m 1.45,-2.06 0.65,-0.13 c -0.04,-0.45 -0.11,-0.98 -0.21,-1.59 l -0.73,0.17 c 0.14,0.6 0.23,1.12 0.29,1.55 z m 4.04,-11.81 c -0.26,-1.38 -0.52,-2.59 -0.8,-3.64 l -0.79,0.21 c 0.09,0.3 0.19,0.62 0.28,0.96 -1.38,1.39 -2.52,2.51 -3.41,3.36 -0.17,0.15 -0.39,0.32 -0.66,0.51 l 0.3,0.79 c 0.25,-0.12 0.54,-0.2 0.85,-0.22 1.07,0.02 2.45,0.25 4.16,0.7 l 0.25,-0.8 c -1.43,-0.3 -2.83,-0.51 -4.21,-0.62 0.85,-0.89 1.82,-1.88 2.91,-2.99 0.15,0.6 0.31,1.24 0.46,1.92 z m 3.05,3.77 0.63,-0.31 c -0.77,-1.47 -0.96,-3.09 -0.59,-4.86 -0.23,0.01 -0.53,-0.01 -0.89,-0.06 -0.25,1.98 0.03,3.72 0.85,5.23 z m -6.11,1.27 c 1.69,-0.26 3.3,-0.14 4.82,0.36 l 0.25,-0.72 c -1.77,-0.52 -3.48,-0.67 -5.11,-0.44 0.04,0.25 0.05,0.51 0.04,0.8 z m 8.06,-11.24 c -1,-0.76 -2.01,-1.17 -3.05,-1.25 0.02,0.26 0.01,0.53 -0.01,0.82 0.71,0.05 1.35,0.23 1.93,0.53 0.47,0.24 1.17,0.78 2.1,1.61 l 2.51,2.26 2.89,-3.22 -5.19,-4.68 c -0.57,-0.51 -1.09,-0.49 -1.58,0.05 -0.26,0.29 -0.56,0.63 -0.89,1.02 0.13,0.16 0.29,0.36 0.48,0.61 0.31,-0.4 0.57,-0.71 0.77,-0.94 0.29,-0.33 0.58,-0.37 0.86,-0.11 l 1.19,1.07 z m -1.33,0.88 c -0.15,-0.15 -0.32,-0.35 -0.51,-0.59 -0.24,0.05 -0.76,0.13 -1.54,0.26 -0.21,0.03 -0.38,0.03 -0.52,0.01 l 0.09,0.79 c 0.23,-0.04 0.46,0.03 0.68,0.23 l 1.39,1.25 -0.85,0.94 0.45,0.4 0.85,-0.94 0.82,0.74 -0.41,0.46 0.45,0.4 1.62,-1.8 -0.45,-0.4 -0.78,0.86 -0.82,-0.74 0.97,-1.07 -0.45,-0.41 -0.97,1.08 -1.39,-1.26 c 0.4,-0.06 0.86,-0.13 1.37,-0.21 z m 1.83,-0.49 1.98,-2.2 1.24,1.12 -1.95,2.17 c -0.2,-0.18 -0.62,-0.54 -1.27,-1.09 z m 2.97,2.63 -1.23,-1.11 1.95,-2.17 1.23,1.11 z m -4.33,2.45 c 0.91,0.1 1.9,0.37 2.97,0.81 l 0.28,-0.64 c -0.35,-0.14 -0.71,-0.26 -1.06,-0.36 l 1.26,-1.41 -0.45,-0.41 -1.47,1.63 c -0.58,-0.14 -1.16,-0.25 -1.74,-0.32 0.09,0.23 0.16,0.46 0.21,0.7 z"
           style="fill:#1d1d1a;fill-opacity:1;fill-rule:nonzero;stroke:none"
           id="path251" /></g></g><g
       id="g253"
       transform="matrix(1.3162282,0,0,1.4427616,-104.45365,-139.38735)"><g
         id="g255"
         clip-path="url(#clipPath259-5)"><path
           d="m 277,351.23 -3.33,-3.11 0.7,-0.75 -0.53,-0.5 -0.7,0.76 -1.19,-1.11 -0.57,0.62 1.18,1.11 -2.19,2.35 0.5,0.47 c 0.86,0.02 1.79,0.1 2.8,0.25 1.01,0.15 1.92,0.34 2.71,0.57 z m -5.44,-0.85 1.53,-1.64 2.4,2.24 c -0.61,-0.15 -1.23,-0.28 -1.85,-0.37 -0.63,-0.1 -1.32,-0.18 -2.08,-0.23 z m 1.87,-4.76 c 0.12,0.11 0.25,0.16 0.41,0.15 0.15,0 0.29,-0.07 0.4,-0.19 0.11,-0.12 0.16,-0.26 0.16,-0.41 -0.01,-0.16 -0.07,-0.29 -0.19,-0.4 -0.11,-0.1 -0.24,-0.15 -0.4,-0.15 -0.16,0.01 -0.29,0.07 -0.41,0.19 -0.11,0.12 -0.16,0.26 -0.15,0.42 0,0.15 0.07,0.28 0.18,0.39 z"
           style="fill:#1d1d1a;fill-opacity:1;fill-rule:nonzero;stroke:none"
           id="path261" /></g></g><g
       id="g263"
       transform="matrix(1.3162282,0,0,1.4427616,-104.45365,-139.38735)"><g
         id="g265"
         clip-path="url(#clipPath269-3)"><path
           d="m 281.44,341.53 h 0.63 c 0.09,-0.78 0.16,-1.54 0.23,-2.26 0.75,0 1.46,0.13 2.15,0.39 l -2.45,2.62 c -1.25,-1.16 -2.52,-1.77 -3.79,-1.82 0.04,0.22 0.07,0.46 0.09,0.73 1.07,0.04 2.16,0.58 3.29,1.63 l 1.78,1.66 c 1.31,-1.36 2.57,-2.52 3.77,-3.47 l -0.34,-0.66 c -1.16,1.01 -2.3,2.08 -3.42,3.21 l -0.92,-0.85 2.94,-3.15 -0.46,-0.44 c -0.81,-0.36 -1.67,-0.54 -2.58,-0.55 0.07,-0.79 0.11,-1.53 0.13,-2.24 h -0.79 c -0.01,0.76 -0.03,1.52 -0.07,2.27 -0.92,0.08 -1.9,0.34 -2.92,0.78 0.04,0.22 0.08,0.46 0.11,0.71 0.97,-0.42 1.9,-0.68 2.78,-0.78 -0.04,0.75 -0.1,1.49 -0.16,2.22 z m -3.02,-2.34 1.5,-1.65 2.03,-2.09 c -0.18,-0.08 -0.41,-0.18 -0.68,-0.29 l -1.95,2.1 -1.47,1.62 c -0.69,0.75 -0.92,1.5 -0.7,2.26 -0.33,0.03 -0.87,0.01 -1.6,-0.03 l 0.29,0.77 c 0.73,-0.04 1.25,-0.07 1.58,-0.09 l 2.19,2.04 -0.73,0.78 0.49,0.45 1.19,-1.28 -2.79,-2.6 c -0.18,-0.65 0.04,-1.32 0.65,-1.99 z m 3.84,7.15 c -0.06,-0.47 -0.19,-1.15 -0.38,-2.06 l -0.76,0.16 c 0.23,0.87 0.38,1.56 0.47,2.06 z m 5.58,-6.52 5.31,-5.69 -5.97,-5.56 -0.51,0.54 0.42,0.39 -4.29,4.6 -0.41,-0.39 -0.51,0.55 z m 4.32,-5.59 -4.29,4.6 -4.6,-4.29 4.29,-4.6 z m -4.44,2.76 2.59,-2.77 -2.85,-2.66 -0.48,0.51 0.37,0.34 -1.63,1.75 -0.37,-0.34 -0.47,0.51 z m 1.66,-2.69 -1.64,1.75 -1.57,-1.46 1.64,-1.75 z m 2.85,-2.08 c 0.96,0.02 1.94,0.2 2.91,0.55 l 0.31,-0.57 c -0.27,-0.08 -0.53,-0.15 -0.78,-0.22 l 1.14,-1.23 -0.4,-0.37 -1.15,-0.17 0.78,-0.83 -3.93,-3.67 c -0.43,-0.4 -0.85,-0.39 -1.26,0.03 -0.18,0.19 -0.35,0.38 -0.53,0.6 0.1,0.11 0.22,0.27 0.37,0.47 0.18,-0.22 0.34,-0.42 0.49,-0.59 0.2,-0.2 0.4,-0.21 0.6,-0.02 l 1.06,0.99 -0.54,0.58 -1.21,-1.12 -0.39,0.42 1.2,1.13 -0.54,0.58 c -0.85,-0.73 -1.64,-1.13 -2.37,-1.22 0.02,0.21 0.01,0.43 -0.01,0.68 0.77,0.12 1.56,0.55 2.36,1.29 l 2.21,2.07 c -0.13,-0.01 -0.26,-0.02 -0.39,-0.03 0.03,0.17 0.05,0.39 0.07,0.65 z m 0.14,-5.71 1.43,-1.54 0.94,0.87 -0.74,0.79 c -0.33,-0.14 -0.66,-0.26 -0.97,-0.36 -0.05,0.19 -0.11,0.4 -0.2,0.61 0.75,0.24 1.45,0.54 2.12,0.89 l 0.3,-0.56 c -0.23,-0.11 -0.45,-0.22 -0.66,-0.32 l 0.59,-0.63 0.71,0.65 0.44,-0.48 -0.7,-0.65 1.09,-1.17 -0.44,-0.41 -1.09,1.16 -0.94,-0.87 1.23,-1.32 -0.44,-0.42 -1.23,1.33 -1.37,-1.28 -0.45,0.48 1.37,1.28 -1.44,1.53 z m 4.33,3.92 2.73,-2.93 c -0.43,-0.39 -0.85,-0.74 -1.25,-1.06 -0.56,-0.46 -1.09,-0.43 -1.58,0.1 -0.17,0.18 -0.38,0.41 -0.61,0.69 0.16,0.2 0.3,0.39 0.44,0.58 0.25,-0.35 0.46,-0.61 0.62,-0.79 0.22,-0.24 0.47,-0.25 0.74,-0.03 0.22,0.16 0.46,0.36 0.73,0.59 l -1.15,1.24 c -0.44,-0.39 -0.86,-0.63 -1.24,-0.73 -0.44,-0.12 -1,-0.1 -1.68,0.08 0.04,0.17 0.08,0.4 0.12,0.7 0.54,-0.18 0.98,-0.23 1.35,-0.15 0.3,0.06 0.63,0.25 1.01,0.57 l -0.67,0.72 z m -3.77,1.21 0.85,-0.91 1.14,0.18 -0.86,0.93 c -0.39,-0.09 -0.77,-0.16 -1.13,-0.2 z m -1.25,-3.51 0.55,-0.58 0.82,0.77 -0.54,0.58 z m 2.58,1.31 -0.55,0.59 -0.82,-0.77 0.55,-0.58 z m -3.51,-0.31 0.54,-0.57 0.82,0.77 -0.53,0.57 z m 1.21,1.13 0.54,-0.57 0.82,0.76 -0.54,0.57 z m 4.46,-6.58 c 0.74,-0.45 1.52,-0.86 2.32,-1.22 l 1.49,1.39 0.43,-0.46 -1.29,-1.21 c 1.3,-0.54 2.66,-0.96 4.08,-1.26 l -0.1,-0.68 c -1.46,0.35 -2.89,0.8 -4.28,1.38 0,-0.17 0.08,-0.35 0.24,-0.52 l 1.17,-1.25 c 0.24,-0.26 0.46,-0.35 0.66,-0.27 0.19,0.08 0.47,0.25 0.82,0.52 0.07,-0.2 0.16,-0.42 0.27,-0.67 -0.4,-0.24 -0.66,-0.4 -0.78,-0.46 -0.44,-0.24 -0.88,-0.13 -1.31,0.33 l -1.38,1.49 c -0.35,0.37 -0.47,0.75 -0.36,1.12 -0.74,0.33 -1.48,0.7 -2.2,1.1 0.09,0.22 0.16,0.45 0.22,0.67 z m 2.32,-7.57 0.25,0.23 -4.09,4.39 1.71,1.6 0.47,-0.49 -1.25,-1.16 1.57,-1.69 1.5,1.4 0.49,-0.52 -1.5,-1.4 1.57,-1.69 1.25,1.16 0.46,-0.49 -1.97,-1.84 z m 1.11,10.26 2.61,-2.8 c 0.08,0.23 0.16,0.47 0.23,0.73 l 0.68,-0.27 c -0.09,-0.34 -0.22,-0.69 -0.37,-1.04 l 2.44,-2.61 -1.16,-1.08 -0.49,0.53 0.69,0.64 -4.6,4.93 -0.69,-0.64 -0.49,0.52 z m -0.47,-1.87 0.25,-0.62 c -0.66,-0.24 -1.3,-0.42 -1.92,-0.55 -0.06,0.2 -0.14,0.42 -0.24,0.67 0.57,0.08 1.2,0.25 1.91,0.5 z m 3.4,-4.65 0.63,-0.12 c -0.05,-0.68 -0.13,-1.3 -0.23,-1.84 l -0.72,0.13 c 0.13,0.55 0.23,1.16 0.32,1.83 z m -1.59,3.36 0.61,-0.06 c 0.04,-0.51 0.05,-0.98 0.04,-1.41 l -0.7,0.05 c 0.04,0.5 0.05,0.97 0.05,1.42 z"
           style="fill:#1d1d1a;fill-opacity:1;fill-rule:nonzero;stroke:none"
           id="path271" /></g></g><g
       id="g273"
       transform="matrix(1.3162282,0,0,1.4427616,-104.45365,-139.38735)"><g
         id="g275"
         clip-path="url(#clipPath279-0)"><path
           d="m 305.7,319.29 0.61,-0.65 c 0.54,0.2 1.03,0.41 1.45,0.61 l 0.35,-0.7 c -0.46,-0.17 -0.89,-0.32 -1.29,-0.46 l 1.21,-1.3 -5.18,-4.84 -0.49,0.52 0.51,0.48 -1.37,1.46 -0.55,-0.52 -0.49,0.53 z m 1.09,-3.85 c 1.03,0.2 2.15,0.6 3.38,1.22 l 0.38,-0.67 c -0.44,-0.2 -0.85,-0.37 -1.25,-0.53 l 1.96,-2.1 c -2.28,-2.02 -3.73,-3.29 -4.34,-3.8 -0.71,-0.6 -1.38,-0.56 -2.02,0.13 -0.37,0.39 -0.73,0.8 -1.08,1.24 0.19,0.23 0.35,0.44 0.48,0.64 l 0.02,-0.02 c 0.34,-0.49 0.68,-0.91 1.02,-1.27 0.36,-0.4 0.77,-0.42 1.22,-0.06 0.69,0.56 1.92,1.64 3.69,3.25 l -1.63,1.74 c -0.59,-0.2 -1.14,-0.35 -1.65,-0.44 -0.03,0.19 -0.09,0.42 -0.18,0.67 z m -4.8,-0.57 1.37,-1.47 1.65,1.54 -1.37,1.46 z m 5.07,1.98 -1.37,1.47 -1.58,-1.48 1.37,-1.47 z m -0.18,-2.39 0.66,-0.13 c -0.11,-1.01 -0.25,-1.85 -0.4,-2.53 l -0.79,0.17 c 0.22,0.77 0.4,1.6 0.53,2.49 z m 10.62,-5.65 0.21,-0.69 c -0.48,-0.07 -0.92,-0.12 -1.32,-0.17 l 0.94,-1 -1.85,-1.74 -0.44,0.47 0.18,0.17 -1.04,1.12 -0.83,-0.76 1.82,-1.95 c -0.77,-0.59 -1.33,-1.01 -1.69,-1.24 -0.44,-0.31 -0.9,-0.22 -1.35,0.27 -0.21,0.22 -0.42,0.49 -0.63,0.8 0.18,0.22 0.33,0.42 0.45,0.59 0.23,-0.36 0.42,-0.64 0.58,-0.82 0.22,-0.27 0.42,-0.36 0.6,-0.27 0.31,0.18 0.68,0.44 1.13,0.78 l -1.34,1.44 -2.5,-2.34 -0.43,0.47 2.14,2 c -1.14,-0.11 -2.3,0 -3.47,0.36 0.04,0.24 0.06,0.48 0.07,0.73 1.23,-0.46 2.41,-0.65 3.57,-0.55 l -1.34,1.43 1.88,1.35 1.33,-1.42 0.81,0.76 -1.41,1.52 0.43,0.4 0.84,-0.9 c 0.13,0.39 0.24,0.8 0.32,1.23 l 0.61,-0.18 c -0.08,-0.45 -0.17,-0.87 -0.28,-1.27 l -0.59,0.16 0.97,-1.04 c 0.53,0.07 1.07,0.17 1.63,0.29 z m -8.89,1.28 c 1.14,0.21 2.2,0.6 3.2,1.18 l -0.8,0.86 0.46,0.43 0.81,-0.88 1.33,1.24 0.44,-0.47 -1.33,-1.23 0.7,-0.76 -0.45,-0.43 -0.71,0.76 -0.62,-0.58 0.37,-0.02 c -0.01,-0.44 -0.03,-0.89 -0.06,-1.37 l -0.63,0.04 c 0.06,0.47 0.1,0.85 0.11,1.15 l -3.8,-3.54 -0.44,0.47 3.43,3.2 c -0.91,-0.44 -1.7,-0.71 -2.39,-0.79 0.14,0.23 0.26,0.48 0.38,0.74 z m 7.85,-3.08 -1.04,1.12 -0.81,-0.76 1.04,-1.12 z m -4.58,0.78 1.04,-1.11 0.82,0.76 -0.95,1.02 z m 4.22,-6.06 0.43,0.4 3.81,-4.09 -0.43,-0.39 c -0.79,0 -1.58,0.11 -2.39,0.35 0.34,-0.87 0.86,-1.75 1.57,-2.67 l -0.75,-0.22 c -0.77,1.1 -1.3,2.15 -1.59,3.15 -1.03,0.39 -2.07,0.98 -3.11,1.76 0.07,0.2 0.14,0.43 0.22,0.7 0.93,-0.73 1.84,-1.3 2.71,-1.7 -0.13,0.75 -0.12,1.47 0.03,2.17 z m 2.24,2.45 0.9,-0.97 0.55,0.51 0.46,-0.49 -0.55,-0.51 1.72,-1.85 0.56,0.52 0.46,-0.5 -0.56,-0.51 1.11,-1.19 -0.43,-0.4 -1.1,1.19 -1.26,-1.17 -0.46,0.5 0.23,0.21 -1.72,1.84 -0.23,-0.22 -0.46,0.5 1.25,1.17 -0.9,0.97 z m 3.31,-0.15 0.67,-0.26 c -0.09,-0.36 -0.21,-0.76 -0.37,-1.18 l 2.24,-2.4 -0.45,-0.43 -4.85,5.2 -1.96,-1.83 c -1.49,-1.38 -2.86,-2.12 -4.13,-2.23 0.04,0.25 0.07,0.51 0.09,0.79 1.04,0.07 2.23,0.73 3.6,1.98 l 2.38,2.23 2.52,-2.71 c 0.1,0.28 0.19,0.56 0.26,0.84 z m -2.98,-2.28 1.72,-1.84 0.6,0.56 -1.72,1.85 z m 0.6,-3.43 -2.16,2.33 c -0.06,-0.63 0,-1.27 0.17,-1.92 0.69,-0.24 1.35,-0.38 1.99,-0.41 z m 8.03,-1.63 2.68,-2.88 -5.44,-5.07 -0.48,0.52 0.63,0.59 -1.72,1.84 -0.63,-0.59 -0.48,0.52 z m 1.71,-2.81 -1.71,1.84 -3.86,-3.6 1.72,-1.83 z m -8.62,2.58 c 1.11,0.12 2.21,0.4 3.29,0.86 l -1.07,1.14 0.45,0.41 1.16,-1.24 1.02,0.96 c -0.36,0.29 -0.73,0.59 -1.1,0.9 0.11,0.17 0.21,0.36 0.32,0.56 0.94,-0.81 1.9,-1.55 2.89,-2.21 l -0.32,-0.58 c -0.41,0.29 -0.82,0.6 -1.24,0.91 l -1.11,-1.03 1.13,-1.22 -0.44,-0.42 -1.14,1.22 -0.84,-0.78 0.46,-0.02 c 0.02,-0.62 0.02,-1.24 0,-1.88 l -0.72,0.02 c 0.05,0.54 0.09,1.11 0.1,1.73 l -3.03,-2.83 -0.46,0.5 3.13,2.91 c -0.88,-0.34 -1.82,-0.57 -2.81,-0.68 0.1,0.23 0.21,0.48 0.33,0.77 z m 13.07,-5.37 2.99,-3.19 -1.99,-1.86 -0.44,0.48 0.19,0.17 -2.1,2.25 -0.18,-0.16 -0.44,0.47 z m -5.75,-0.29 c 0.37,-0.25 0.73,-0.49 1.08,-0.71 l 1.53,1.42 -0.81,0.86 0.47,0.43 0.8,-0.86 1.26,1.18 0.45,-0.49 -1.26,-1.17 0.8,-0.85 -0.47,-0.44 -0.79,0.85 -1.4,-1.3 c 0.33,-0.2 0.65,-0.39 0.96,-0.58 -0.19,-0.18 -0.33,-0.35 -0.45,-0.5 -0.29,0.18 -0.63,0.39 -1.01,0.62 l -1.95,-1.83 c -0.49,-0.44 -0.91,-0.48 -1.27,-0.11 -0.2,0.2 -0.41,0.43 -0.64,0.7 0.16,0.18 0.3,0.37 0.43,0.56 0.22,-0.29 0.39,-0.51 0.51,-0.63 0.17,-0.18 0.37,-0.17 0.6,0.05 l 1.73,1.61 c -0.33,0.19 -0.68,0.39 -1.05,0.61 z m 3.1,-1.68 3.46,-3.71 -2.35,-2.2 -0.45,0.47 1.92,1.8 -2.57,2.76 -1.94,-1.81 -0.44,0.48 z m 1.24,-2.79 c -0.54,-0.51 -1.01,-0.87 -1.42,-1.08 0.26,-1.09 0.47,-2.16 0.64,-3.22 l -0.78,-0.04 c -0.08,0.92 -0.24,1.93 -0.48,3.03 -0.98,-0.22 -2.07,0.1 -3.3,0.96 0.07,0.18 0.14,0.44 0.22,0.76 1.33,-1.06 2.47,-1.35 3.43,-0.86 0.3,0.16 0.71,0.47 1.22,0.95 z m 3.52,1.63 -2.1,2.25 -0.92,-0.86 2.09,-2.25 z m -4.22,-5.94 c 2.04,-1.1 3.73,-1.33 5.05,-0.69 l -2.61,2.8 0.49,0.46 2.7,-2.9 c 0.33,0.26 0.78,0.64 1.37,1.17 l -1.6,1.72 c -0.54,-0.14 -1.08,-0.24 -1.63,-0.29 0,0.19 -0.03,0.42 -0.07,0.71 1.12,0.07 2.21,0.38 3.28,0.91 l 0.32,-0.65 c -0.39,-0.18 -0.78,-0.34 -1.17,-0.47 l 1.38,-1.48 c 0.38,0.35 0.81,0.74 1.29,1.18 l 0.51,-0.55 c -0.47,-0.43 -0.91,-0.82 -1.3,-1.17 l 2.27,-2.43 -0.49,-0.47 -2.28,2.45 c -0.54,-0.48 -1,-0.87 -1.36,-1.18 l 2.66,-2.85 -0.5,-0.46 -2.61,2.8 c -0.71,-1.43 -0.55,-3.09 0.46,-4.98 -0.31,-0.03 -0.61,-0.06 -0.89,-0.1 -0.84,1.95 -0.92,3.62 -0.24,5.03 -1.31,-0.59 -3.03,-0.4 -5.15,0.57 0.03,0.2 0.07,0.49 0.12,0.87 z m 7.87,-8.08 0.62,-0.66 4.03,3.76 1.43,-1.54 0.6,0.55 -1.77,1.89 0.45,0.41 1.76,-1.88 0.69,0.64 0.46,-0.5 -0.69,-0.64 1.91,-2.05 -0.44,-0.41 -1.91,2.05 -0.6,-0.55 1.47,-1.58 -4.03,-3.76 0.58,-0.62 -0.44,-0.41 -4.56,4.88 z m 1.06,4 c 1.42,0.23 2.89,0.76 4.43,1.59 l 0.3,-0.61 c -0.72,-0.35 -1.42,-0.65 -2.1,-0.9 l -4.63,-4.32 -0.45,0.47 3.63,3.39 c -0.52,-0.14 -1.03,-0.25 -1.52,-0.32 0.12,0.23 0.24,0.47 0.34,0.7 z m 0.01,-5.14 2.46,-2.65 0.6,0.55 -2.47,2.65 z m 6.07,0.71 -2.47,2.64 -0.59,-0.54 2.47,-2.65 z m -4.06,1.16 2.47,-2.64 0.58,0.54 -2.46,2.65 z m -1,-0.93 2.46,-2.65 0.59,0.55 -2.47,2.64 z"
           style="fill:#1d1d1a;fill-opacity:1;fill-rule:nonzero;stroke:none"
           id="path281" /></g></g><g
       id="g283"
       transform="matrix(1.3162282,0,0,1.4427616,-104.45365,-139.38735)"><g
         id="g285"
         clip-path="url(#clipPath289-9)"><path
           d="m 288.66,358.42 c 0.05,-0.6 0.28,-1.11 0.68,-1.55 0.33,-0.34 0.67,-0.54 1.03,-0.58 0.36,-0.05 0.68,0.06 0.97,0.33 0.64,0.6 0.53,1.35 -0.32,2.27 l -0.39,0.42 0.52,0.49 0.38,-0.4 c 0.75,-0.81 1.43,-0.94 2.03,-0.38 0.55,0.52 0.54,1.08 -0.04,1.7 -0.33,0.36 -0.76,0.58 -1.29,0.67 l 0.61,0.56 c 0.5,-0.15 0.95,-0.45 1.36,-0.89 0.4,-0.43 0.61,-0.88 0.63,-1.35 0.02,-0.47 -0.15,-0.87 -0.51,-1.2 -0.66,-0.62 -1.4,-0.68 -2.21,-0.18 l -0.02,-0.01 c 0.3,-0.41 0.44,-0.81 0.42,-1.23 -0.02,-0.41 -0.19,-0.77 -0.52,-1.08 -0.45,-0.42 -0.97,-0.6 -1.55,-0.53 -0.58,0.07 -1.13,0.37 -1.63,0.91 -0.45,0.48 -0.72,0.95 -0.82,1.41 z m 3.02,-4.26 c 0.11,0.11 0.25,0.16 0.4,0.15 0.16,0 0.29,-0.06 0.4,-0.18 0.12,-0.12 0.17,-0.26 0.16,-0.42 0,-0.16 -0.06,-0.29 -0.18,-0.39 -0.11,-0.11 -0.25,-0.16 -0.4,-0.16 -0.16,0.01 -0.29,0.07 -0.41,0.2 -0.11,0.12 -0.16,0.25 -0.16,0.41 0.01,0.15 0.07,0.28 0.19,0.39 z"
           style="fill:#1d1d1a;fill-opacity:1;fill-rule:nonzero;stroke:none"
           id="path291" /></g></g><g
       id="g293"
       transform="matrix(1.3162282,0,0,1.4427616,-104.45365,-139.38735)"><g
         id="g295"
         clip-path="url(#clipPath299-0)"><path
           d="m 299.24,353.54 1.29,-1.38 c 0.55,0.32 1.13,0.69 1.74,1.12 l 0.44,-0.62 c -0.56,-0.39 -1.12,-0.74 -1.67,-1.05 l 3.36,-3.6 -0.48,-0.45 -3.47,3.72 c -0.36,-0.19 -0.72,-0.36 -1.07,-0.51 l 3.01,-3.23 -0.45,-0.42 c -0.97,-0.38 -2,-0.5 -3.09,-0.38 0.2,-0.95 0.61,-1.91 1.22,-2.86 -0.4,-0.01 -0.73,-0.02 -0.98,-0.05 -0.41,0.91 -0.73,1.92 -0.94,3.04 -0.9,0.21 -2.01,0.69 -3.32,1.44 0.06,0.28 0.1,0.56 0.12,0.84 1.27,-0.81 2.31,-1.34 3.11,-1.58 -0.04,1.03 0.2,2.01 0.71,2.95 -1.63,-0.64 -3.21,-0.9 -4.74,-0.79 0.06,0.27 0.1,0.52 0.12,0.75 1.8,-0.15 3.73,0.3 5.78,1.36 l -1.68,1.8 0.48,0.46 c 0.58,0.21 1.15,0.43 1.7,0.67 l 0.35,-0.66 c -0.52,-0.21 -1.03,-0.4 -1.54,-0.57 z m 2.17,-5.85 -2.2,2.36 c -0.42,-0.76 -0.57,-1.63 -0.47,-2.62 0.99,-0.12 1.88,-0.04 2.67,0.26 z m 1.86,3.61 0.63,0.05 c 0.13,-0.67 0.23,-1.34 0.3,-2 l -0.75,-0.05 c -0.03,0.68 -0.09,1.35 -0.18,2 z m 1.62,-6.64 1.82,-1.95 c 0.1,0.08 0.47,0.41 1.1,1 l -1.6,1.72 0.45,0.43 2.09,-2.24 c 0.92,0.07 1.65,0.18 2.19,0.33 l 0.16,-0.82 c -0.39,-0.03 -0.99,-0.06 -1.81,-0.09 l 1.26,-1.35 -0.46,-0.43 -1.81,1.94 c -0.54,-0.5 -0.9,-0.84 -1.09,-1 l 1.96,-2.11 -0.45,-0.42 -2.01,2.15 c -0.12,-0.1 -0.24,-0.18 -0.37,-0.26 0.19,-1.1 0.34,-2.2 0.47,-3.29 l -0.76,-0.07 c -0.1,1.16 -0.21,2.19 -0.33,3.09 -0.89,-0.27 -1.91,-0.14 -3.08,0.4 0.05,0.26 0.07,0.5 0.09,0.73 1.48,-0.7 2.65,-0.73 3.5,-0.09 l -1.77,1.9 z m -2.05,-3.67 c 0.88,-0.98 2.05,-2.22 3.53,-3.74 -0.24,-0.09 -0.48,-0.17 -0.7,-0.25 -1.46,1.53 -2.57,2.73 -3.34,3.59 -0.71,0.8 -0.97,1.59 -0.78,2.35 -0.22,0.03 -0.73,0.03 -1.54,-0.01 l 0.29,0.79 c 0.49,-0.04 0.98,-0.09 1.46,-0.14 l 2.28,2.12 -0.7,0.74 0.48,0.44 1.17,-1.25 -2.86,-2.66 c -0.09,-0.66 0.14,-1.32 0.71,-1.98 z m 3.8,7.39 c -0.07,-0.67 -0.19,-1.4 -0.33,-2.18 l -0.75,0.17 c 0.17,0.69 0.31,1.41 0.41,2.14 z m 1.49,-2.03 0.66,-0.12 c -0.04,-0.44 -0.1,-0.98 -0.18,-1.59 l -0.74,0.15 c 0.13,0.61 0.21,1.13 0.26,1.56 z m 5.5,-14.73 c -0.22,0.01 -0.5,0.01 -0.87,0.02 -0.17,1.8 0.09,3.61 0.77,5.41 l -2.58,-2.4 1.39,-1.49 -0.45,-0.43 -1.39,1.49 -1.34,-1.24 -0.47,0.51 1.33,1.24 -1.44,1.54 0.46,0.43 1.44,-1.54 2.58,2.4 c -1.62,-0.47 -3.48,-0.62 -5.57,-0.43 0.01,0.32 0,0.59 -0.01,0.8 2.17,-0.29 4.1,-0.22 5.8,0.23 l -2.45,2.62 0.49,0.45 2.64,-2.83 1.17,1.09 0.47,-0.51 -1.17,-1.09 2.64,-2.83 -0.48,-0.45 -2.47,2.65 c -0.65,-1.9 -0.81,-3.78 -0.49,-5.64 z m 8.67,0.1 0.48,-0.5 -1.69,-1.57 1.96,-1.14 c -0.88,-0.77 -1.61,-1.4 -2.17,-1.88 -0.61,-0.52 -1.13,-0.56 -1.55,-0.12 -0.19,0.2 -0.37,0.39 -0.54,0.59 0.13,0.17 0.28,0.37 0.45,0.6 0.17,-0.23 0.32,-0.43 0.46,-0.58 0.21,-0.23 0.48,-0.19 0.82,0.11 0.42,0.34 0.89,0.75 1.4,1.21 l -1.32,0.75 -2.82,-2.63 -0.47,0.51 2.66,2.48 -1.22,0.7 -2.52,-2.35 c -0.34,-0.32 -0.34,-0.66 0,-1.03 l 1.49,-1.6 c 0.37,-0.4 0.74,-0.47 1.1,-0.21 0.33,0.21 0.69,0.46 1.1,0.77 0.09,-0.23 0.19,-0.47 0.31,-0.71 -0.47,-0.33 -0.87,-0.59 -1.18,-0.77 -0.59,-0.36 -1.16,-0.25 -1.7,0.33 l -1.73,1.85 c -0.58,0.63 -0.57,1.23 0.05,1.8 l 2.45,2.28 -0.61,0.35 0.4,0.53 0.71,-0.41 1.52,1.42 0.48,-0.51 -1.37,-1.27 1.21,-0.71 z m -9.03,-0.76 c 0.39,-0.21 0.78,-0.43 1.18,-0.65 l 2.6,2.42 -0.78,0.84 0.45,0.43 0.79,-0.84 1.81,1.69 0.45,-0.48 -1.82,-1.69 0.71,-0.76 -0.46,-0.42 -0.7,0.75 -2.44,-2.27 c 0.36,-0.19 0.71,-0.37 1.07,-0.56 -0.17,-0.18 -0.32,-0.34 -0.44,-0.5 -0.92,0.48 -1.83,0.94 -2.75,1.39 z m 11.19,-6.04 1.77,-1.9 2.24,2.09 0.52,-0.56 -2.24,-2.09 1.78,-1.9 -0.47,-0.44 -1.78,1.91 -3.67,-3.43 -0.53,0.56 3.68,3.43 -1.77,1.89 z m -1.79,-2.79 c -0.21,-0.22 -0.39,-0.41 -0.52,-0.57 -1.08,0.29 -2,0.51 -2.74,0.66 l 0.15,0.73 c 0.27,-0.03 0.54,0.08 0.81,0.32 l 2.58,2.41 -0.87,0.92 0.47,0.44 1.35,-1.45 -3.16,-2.95 c 0.58,-0.16 1.22,-0.33 1.93,-0.51 z m 2.62,6.22 c -0.04,-0.93 -0.09,-1.61 -0.12,-2.04 l -0.81,0.1 c 0.1,0.61 0.18,1.28 0.21,2.02 z m 4.89,-8.36 1.01,-1.08 c 0.05,0.34 0.08,0.68 0.11,1 l 0.38,-0.08 -0.51,0.55 c -0.56,-0.04 -1.13,-0.03 -1.71,0.04 0.02,0.2 0.02,0.41 0.02,0.64 0.92,-0.15 1.82,-0.1 2.71,0.16 l 0.51,-0.56 c -0.29,-0.08 -0.59,-0.15 -0.89,-0.2 l 1.77,-1.9 -0.38,-0.35 -1.37,1.47 c -0.01,-0.31 -0.03,-0.62 -0.06,-0.93 l -0.52,0.09 2.8,-3.01 c 0.04,0.35 0.05,0.71 0.05,1.08 l 0.38,-0.07 -0.61,0.65 c -0.42,-0.07 -0.82,-0.12 -1.2,-0.12 -0.01,0.2 -0.03,0.43 -0.06,0.68 0.73,-0.01 1.46,0.11 2.2,0.35 l 0.52,-0.56 c -0.29,-0.09 -0.58,-0.17 -0.86,-0.23 l 1.92,-2.07 -0.37,-0.35 -1.39,1.48 c 0.02,-0.33 0.02,-0.65 0.01,-0.95 l -0.55,0.08 0.47,-0.51 -2.93,-2.73 -0.43,0.45 0.22,0.2 -3.53,3.79 -0.22,-0.2 -0.42,0.45 z m -4.05,-2.18 1.65,-1.77 c 0.14,0.1 0.29,0.21 0.44,0.35 l 0.44,-0.47 c -0.14,-0.14 -0.29,-0.26 -0.43,-0.36 l 1.99,-2.13 0.4,0.37 0.45,-0.48 -0.4,-0.38 1.44,-1.54 -0.41,-0.38 -1.43,1.55 -1.1,-1.02 -0.45,0.48 1.1,1.02 -2.06,2.2 c -0.73,-0.39 -1.59,-0.23 -2.59,0.47 0.06,0.21 0.11,0.44 0.16,0.69 0.8,-0.61 1.45,-0.83 1.96,-0.65 l -1.56,1.67 z m 7.64,-2.4 -3.53,3.78 -0.44,-0.41 3.53,-3.78 z m -5.52,1.93 3.53,-3.79 0.44,0.41 -3.53,3.79 z m 0.78,0.72 3.53,-3.78 0.43,0.4 -3.53,3.79 z m 10.77,-6.82 2.31,-2.47 -5.37,-5.01 -0.48,0.52 0.66,0.61 -1.35,1.45 -0.65,-0.61 -0.48,0.51 z m -3.65,3.28 0.85,-0.91 c 0.35,0.33 0.74,0.69 1.17,1.09 l 0.48,-0.52 c -0.44,-0.4 -0.83,-0.76 -1.18,-1.08 l 1.42,-1.51 c -1.69,-1.54 -3.02,-2.73 -4.01,-3.58 -0.8,-0.71 -1.45,-0.77 -1.95,-0.17 -0.16,0.17 -0.38,0.43 -0.68,0.77 0.15,0.2 0.31,0.41 0.47,0.63 0.24,-0.34 0.46,-0.6 0.63,-0.79 0.27,-0.3 0.62,-0.27 1.07,0.1 1.07,0.91 2.23,1.94 3.49,3.09 l -0.94,1.01 c -0.33,-0.31 -0.62,-0.56 -0.86,-0.77 -1.72,-1.57 -3.4,-2.38 -5.07,-2.43 0.04,0.23 0.06,0.49 0.08,0.79 1.47,0.01 2.99,0.75 4.57,2.19 0.23,0.21 0.5,0.45 0.81,0.73 l -0.85,0.9 z m 5,-5.69 -1.35,1.45 -3.76,-3.5 1.35,-1.45 z m -1.77,-3.11 c 0.74,-0.45 1.52,-0.86 2.32,-1.22 l 1.49,1.39 0.43,-0.46 -1.29,-1.21 c 1.3,-0.54 2.66,-0.96 4.08,-1.27 l -0.1,-0.67 c -1.46,0.34 -2.89,0.8 -4.28,1.38 0,-0.17 0.08,-0.35 0.24,-0.52 l 1.17,-1.25 c 0.24,-0.26 0.46,-0.35 0.66,-0.27 0.2,0.08 0.47,0.25 0.82,0.52 0.07,-0.2 0.16,-0.42 0.27,-0.67 -0.39,-0.24 -0.65,-0.4 -0.78,-0.46 -0.44,-0.24 -0.87,-0.13 -1.3,0.33 l -1.39,1.49 c -0.35,0.37 -0.47,0.75 -0.35,1.12 -0.75,0.33 -1.49,0.7 -2.21,1.1 0.09,0.22 0.16,0.45 0.22,0.67 z m 2.32,-7.57 0.26,0.23 -4.1,4.39 1.72,1.6 0.46,-0.49 -1.25,-1.16 1.58,-1.69 1.5,1.4 0.48,-0.53 -1.5,-1.39 1.58,-1.69 1.24,1.16 0.46,-0.49 -1.96,-1.84 z m 1.12,10.25 2.6,-2.79 c 0.08,0.23 0.16,0.47 0.24,0.73 l 0.67,-0.27 c -0.09,-0.34 -0.21,-0.69 -0.37,-1.04 l 2.44,-2.61 -1.16,-1.08 -0.49,0.52 0.69,0.65 -4.6,4.93 -0.69,-0.64 -0.49,0.52 z m -0.48,-1.86 0.25,-0.62 c -0.66,-0.24 -1.3,-0.42 -1.92,-0.55 -0.06,0.2 -0.14,0.42 -0.23,0.67 0.56,0.08 1.2,0.24 1.9,0.5 z m 3.4,-4.65 0.63,-0.12 c -0.05,-0.68 -0.13,-1.3 -0.22,-1.84 l -0.72,0.13 c 0.12,0.54 0.22,1.15 0.31,1.83 z m -1.59,3.36 0.61,-0.06 c 0.04,-0.51 0.06,-0.98 0.05,-1.41 l -0.71,0.05 c 0.04,0.5 0.06,0.97 0.05,1.42 z m 10.1,-7.73 0.2,-0.69 c -0.48,-0.07 -0.92,-0.13 -1.32,-0.17 l 0.94,-1.01 -1.85,-1.73 -0.44,0.47 0.18,0.17 -1.04,1.12 -0.82,-0.76 1.81,-1.95 c -0.77,-0.59 -1.33,-1.01 -1.68,-1.25 -0.45,-0.3 -0.9,-0.21 -1.36,0.28 -0.2,0.22 -0.41,0.49 -0.63,0.8 0.18,0.22 0.34,0.41 0.46,0.59 0.22,-0.36 0.41,-0.64 0.57,-0.83 0.22,-0.26 0.42,-0.35 0.6,-0.26 0.31,0.18 0.69,0.44 1.13,0.78 l -1.33,1.44 -2.5,-2.34 -0.44,0.47 2.14,2 c -1.14,-0.11 -2.3,0 -3.47,0.36 0.04,0.24 0.07,0.48 0.08,0.72 1.22,-0.45 2.41,-0.64 3.56,-0.54 l -1.33,1.43 1.88,1.35 1.32,-1.42 0.82,0.76 -1.42,1.52 0.43,0.4 0.84,-0.91 c 0.14,0.39 0.24,0.81 0.32,1.24 l 0.61,-0.18 c -0.07,-0.45 -0.17,-0.87 -0.28,-1.27 l -0.59,0.16 0.97,-1.05 c 0.53,0.08 1.07,0.18 1.64,0.3 z m -8.89,1.28 c 1.13,0.2 2.19,0.6 3.19,1.18 l -0.8,0.86 0.46,0.43 0.81,-0.88 1.33,1.24 0.44,-0.47 -1.33,-1.24 0.7,-0.75 -0.45,-0.43 -0.71,0.76 -0.62,-0.58 0.37,-0.02 c -0.01,-0.44 -0.03,-0.9 -0.05,-1.37 l -0.64,0.04 c 0.06,0.47 0.1,0.85 0.11,1.15 l -3.8,-3.54 -0.43,0.47 3.43,3.2 c -0.91,-0.44 -1.71,-0.71 -2.39,-0.79 0.13,0.23 0.26,0.48 0.38,0.74 z m 7.85,-3.08 -1.05,1.12 -0.81,-0.76 1.04,-1.12 z m -4.59,0.78 1.04,-1.11 0.82,0.76 -0.95,1.02 z m 4.06,-5.89 0.43,0.4 3.8,-4.08 -0.42,-0.4 c -0.79,0 -1.58,0.12 -2.39,0.35 0.34,-0.86 0.86,-1.75 1.57,-2.66 L 354.92,284 c -0.77,1.09 -1.3,2.14 -1.59,3.14 -1.03,0.4 -2.07,0.98 -3.11,1.76 0.07,0.2 0.14,0.43 0.22,0.71 0.93,-0.74 1.84,-1.31 2.71,-1.7 -0.13,0.74 -0.12,1.47 0.03,2.16 z m 2.24,2.46 0.9,-0.97 0.55,0.51 0.46,-0.5 -0.55,-0.51 1.72,-1.84 0.56,0.51 0.46,-0.49 -0.56,-0.52 1.11,-1.18 -0.43,-0.4 -1.11,1.18 -1.25,-1.17 -0.46,0.5 0.23,0.21 -1.72,1.85 -0.23,-0.22 -0.46,0.49 1.25,1.17 -0.9,0.97 z m 3.31,-0.15 0.67,-0.26 c -0.09,-0.37 -0.21,-0.76 -0.37,-1.19 l 2.24,-2.4 -0.46,-0.42 -4.84,5.2 -1.96,-1.83 c -1.49,-1.39 -2.86,-2.13 -4.13,-2.23 0.04,0.24 0.07,0.5 0.09,0.78 1.04,0.07 2.23,0.73 3.6,1.99 l 2.38,2.22 2.52,-2.7 c 0.1,0.28 0.19,0.56 0.26,0.84 z m -2.98,-2.29 1.72,-1.84 0.6,0.57 -1.72,1.84 z m 0.6,-3.43 -2.17,2.33 c -0.05,-0.62 0.01,-1.26 0.18,-1.92 0.69,-0.24 1.35,-0.38 1.99,-0.41 z m 8.19,-1.8 2.68,-2.88 -5.44,-5.07 -0.48,0.52 0.63,0.59 -1.71,1.84 -0.63,-0.59 -0.49,0.52 z m 1.72,-2.81 -1.72,1.84 -3.85,-3.6 1.71,-1.83 z m -8.63,2.58 c 1.12,0.11 2.21,0.4 3.29,0.86 l -1.06,1.14 0.44,0.41 1.16,-1.24 1.03,0.96 c -0.37,0.29 -0.74,0.59 -1.11,0.89 0.11,0.18 0.22,0.36 0.32,0.57 0.94,-0.81 1.91,-1.55 2.89,-2.22 l -0.32,-0.57 c -0.41,0.29 -0.82,0.6 -1.24,0.91 l -1.11,-1.04 1.14,-1.21 -0.45,-0.42 -1.13,1.22 -0.84,-0.78 0.45,-0.02 c 0.02,-0.62 0.03,-1.24 0,-1.88 l -0.72,0.02 c 0.06,0.54 0.09,1.11 0.1,1.73 l -3.02,-2.83 -0.47,0.5 3.13,2.91 c -0.88,-0.34 -1.82,-0.57 -2.81,-0.68 0.11,0.23 0.22,0.48 0.33,0.77 z m 12.91,-5.19 2.99,-3.2 -1.99,-1.85 -0.44,0.47 0.19,0.18 -2.1,2.25 -0.18,-0.17 -0.44,0.48 z m -5.75,-0.3 c 0.37,-0.25 0.73,-0.48 1.08,-0.71 l 1.53,1.42 -0.81,0.86 0.47,0.44 0.8,-0.86 1.26,1.17 0.45,-0.48 -1.26,-1.17 0.8,-0.86 -0.47,-0.43 -0.8,0.85 -1.39,-1.3 c 0.33,-0.21 0.65,-0.4 0.96,-0.58 -0.19,-0.19 -0.33,-0.36 -0.45,-0.5 -0.29,0.18 -0.63,0.38 -1.01,0.61 l -1.96,-1.82 c -0.48,-0.45 -0.9,-0.49 -1.27,-0.11 -0.19,0.2 -0.4,0.43 -0.63,0.69 0.16,0.19 0.3,0.37 0.43,0.57 0.22,-0.3 0.39,-0.51 0.51,-0.64 0.17,-0.18 0.37,-0.16 0.6,0.05 l 1.73,1.61 c -0.33,0.19 -0.68,0.4 -1.05,0.62 z m 3.1,-1.68 3.46,-3.71 -2.35,-2.2 -0.45,0.48 1.92,1.79 -2.57,2.76 -1.94,-1.8 -0.44,0.47 z m 1.24,-2.79 c -0.54,-0.5 -1.02,-0.86 -1.42,-1.08 0.26,-1.09 0.47,-2.16 0.64,-3.21 l -0.78,-0.04 c -0.08,0.92 -0.24,1.93 -0.48,3.02 -0.98,-0.21 -2.08,0.11 -3.3,0.96 0.07,0.19 0.14,0.44 0.22,0.77 1.33,-1.07 2.47,-1.35 3.43,-0.86 0.3,0.15 0.71,0.47 1.22,0.94 z m 3.52,1.64 -2.1,2.25 -0.92,-0.87 2.09,-2.24 z m -4.06,-6.12 c 2.05,-1.11 3.73,-1.34 5.05,-0.69 l -2.61,2.79 0.5,0.47 2.7,-2.9 c 0.32,0.25 0.78,0.64 1.37,1.17 l -1.6,1.72 c -0.54,-0.14 -1.09,-0.24 -1.64,-0.29 0,0.19 -0.02,0.42 -0.07,0.7 1.12,0.08 2.22,0.39 3.28,0.92 l 0.32,-0.65 c -0.39,-0.18 -0.78,-0.34 -1.17,-0.47 l 1.38,-1.48 c 0.39,0.35 0.81,0.74 1.29,1.18 l 0.52,-0.56 c -0.48,-0.42 -0.91,-0.81 -1.3,-1.16 l 2.27,-2.44 -0.5,-0.46 -2.28,2.45 c -0.54,-0.48 -0.99,-0.87 -1.36,-1.18 l 2.66,-2.85 -0.49,-0.46 -2.62,2.8 c -0.7,-1.43 -0.55,-3.09 0.47,-4.98 -0.32,-0.03 -0.61,-0.06 -0.9,-0.1 -0.84,1.94 -0.92,3.62 -0.24,5.02 -1.31,-0.58 -3.03,-0.39 -5.15,0.58 0.03,0.2 0.07,0.49 0.12,0.87 z"
           style="fill:#1d1d1a;fill-opacity:1;fill-rule:nonzero;stroke:none"
           id="path301" /></g></g><g
       id="g303"
       transform="matrix(1.3162282,0,0,1.4427616,-104.45365,-139.38735)"><g
         id="g305"
         clip-path="url(#clipPath309-9)"><text
           transform="matrix(1,0,0,-1,196.49,234.74)"
           style="font-variant:normal;font-weight:normal;font-size:9.12px;font-family:'Microsoft YaHei';-inkscape-font-specification:MicrosoftYaHei;writing-mode:lr-tb;fill:#1d1d1a;fill-opacity:1;fill-rule:nonzero;stroke:none"
           id="text313"><tspan
             x="0 5.2804799 7.4419198"
             y="0"
             sodipodi:role="line"
             id="tspan311">2.</tspan></text></g></g><g
       id="g315"
       transform="matrix(1.3162282,0,0,1.4427616,-104.45365,-139.38735)"><g
         id="g317"
         clip-path="url(#clipPath321-5)"><text
           transform="matrix(1,0,0,-1,206.57,234.74)"
           style="font-variant:normal;font-weight:normal;font-size:9.12px;font-family:'Microsoft YaHei';-inkscape-font-specification:MicrosoftYaHei;writing-mode:lr-tb;fill:#1d1d1a;fill-opacity:1;fill-rule:nonzero;stroke:none"
           id="text325"><tspan
             x="0 9.1199999 18.24 27.360001 36.48 45.599998 54.720001 63.602879 72.722878 81.605759 90.725761"
             y="0"
             sodipodi:role="line"
             id="tspan323">交换加密的本地计算结果</tspan></text></g></g><g
       id="g327"
       transform="matrix(1.3162282,0,0,1.4427616,-104.45365,-139.38735)"><g
         id="g329"
         clip-path="url(#clipPath333-3)"><text
           transform="matrix(1,0,0,-1,234,159.46)"
           style="font-variant:normal;font-weight:normal;font-size:18.024px;font-family:'Microsoft YaHei';-inkscape-font-specification:MicrosoftYaHei;writing-mode:lr-tb;fill:#1d1d1a;fill-opacity:1;fill-rule:nonzero;stroke:none"
           id="text337"><tspan
             x="0 6.0200162 15.843096"
             y="0"
             sodipodi:role="line"
             id="tspan335">(a)</tspan></text></g></g><path
       d="m 522.01662,452.4662 c 0,9.40681 6.94969,17.0246 15.53149,17.0246 h 62.12596 c 8.58182,0 15.53149,-7.61777 15.53149,-17.0246 V 159.29705 c 0,-9.40681 -6.94967,-17.02459 -15.53149,-17.02459 h -62.12596 c -8.5818,0 -15.53149,7.61778 -15.53149,17.02459 z"
       style="fill:#99ccff;fill-opacity:1;fill-rule:evenodd;stroke:none;stroke-width:1.37805"
       id="path339" /><path
       d="m 522.01662,452.4662 c 0,9.40681 6.94969,17.0246 15.53149,17.0246 h 62.12596 c 8.58182,0 15.53149,-7.61777 15.53149,-17.0246 V 159.29705 c 0,-9.40681 -6.94967,-17.02459 -15.53149,-17.02459 h -62.12596 c -8.5818,0 -15.53149,7.61778 -15.53149,17.02459 z"
       style="fill:none;stroke:#424242;stroke-width:1.32292;stroke-linecap:butt;stroke-linejoin:miter;stroke-miterlimit:10;stroke-dasharray:none;stroke-opacity:1"
       id="path341" /><g
       id="g343"
       transform="matrix(1.3162282,0,0,1.4427616,-186.85118,-146.16447)"><g
         id="g345"
         clip-path="url(#clipPath349-4)"><text
           transform="matrix(1,0,0,-1,552,316.97)"
           style="font-variant:normal;font-weight:bold;font-size:16.08px;font-family:'Microsoft YaHei';-inkscape-font-specification:MicrosoftYaHei-Bold;writing-mode:lr-tb;fill:#000000;fill-opacity:1;fill-rule:nonzero;stroke:none"
           id="text353"><tspan
             x="0 16.08"
             y="0"
             sodipodi:role="line"
             id="tspan351">企业</tspan></text></g></g><g
       id="g355"
       transform="matrix(1.3162282,0,0,1.4427616,-186.85118,-146.16447)"><g
         id="g357"
         clip-path="url(#clipPath361-2)"><text
           transform="matrix(1,0,0,-1,584.16,316.97)"
           style="font-variant:normal;font-weight:bold;font-size:16.08px;font-family:'Microsoft YaHei';-inkscape-font-specification:MicrosoftYaHei-Bold;writing-mode:lr-tb;fill:#000000;fill-opacity:1;fill-rule:nonzero;stroke:none"
           id="text365"><tspan
             x="0"
             y="0"
             id="tspan363">A</tspan></text></g></g><g
       id="g367"
       transform="matrix(1.3162282,0,0,1.4427616,-186.85118,-146.16447)"><g
         id="g369"
         clip-path="url(#clipPath373-3)"><text
           transform="matrix(1,0,0,-1,551.76,297.77)"
           style="font-variant:normal;font-weight:bold;font-size:16.104px;font-family:'Microsoft YaHei';-inkscape-font-specification:MicrosoftYaHei-Bold;writing-mode:lr-tb;fill:#000000;fill-opacity:1;fill-rule:nonzero;stroke:none"
           id="text377"><tspan
             x="0 6.2399602"
             y="0"
             sodipodi:role="line"
             id="tspan375">(X</tspan></text></g></g><g
       id="g379"
       transform="matrix(1.3162282,0,0,1.4427616,-186.85118,-146.16447)"><g
         id="g381"
         clip-path="url(#clipPath385-7)"><text
           transform="matrix(1,0,0,-1,569.28,293.93)"
           style="font-variant:normal;font-weight:bold;font-size:10.584px;font-family:'Microsoft YaHei';-inkscape-font-specification:MicrosoftYaHei-Bold;writing-mode:lr-tb;fill:#000000;fill-opacity:1;fill-rule:nonzero;stroke:none"
           id="text389"><tspan
             x="0"
             y="0"
             id="tspan387">a</tspan></text></g></g><g
       id="g391"
       transform="matrix(1.3162282,0,0,1.4427616,-186.85118,-146.16447)"><g
         id="g393"
         clip-path="url(#clipPath397-7)"><text
           transform="matrix(1,0,0,-1,575.28,297.77)"
           style="font-variant:normal;font-weight:bold;font-size:16.104px;font-family:'Microsoft YaHei';-inkscape-font-specification:MicrosoftYaHei-Bold;writing-mode:lr-tb;fill:#000000;fill-opacity:1;fill-rule:nonzero;stroke:none"
           id="text401"><tspan
             x="0 4.6057439 14.880096"
             y="0"
             sodipodi:role="line"
             id="tspan399">,Y)</tspan></text></g></g><path
       d="m 857.81272,452.4662 c 0,9.40681 6.94969,17.0246 15.5315,17.0246 h 62.12597 c 8.5818,0 15.53148,-7.61777 15.53148,-17.0246 V 159.29705 c 0,-9.40681 -6.94968,-17.02459 -15.53148,-17.02459 h -62.12597 c -8.58181,0 -15.5315,7.61778 -15.5315,17.02459 z"
       style="fill:#92d050;fill-opacity:1;fill-rule:evenodd;stroke:none;stroke-width:1.37805"
       id="path403" /><path
       d="m 857.81272,452.4662 c 0,9.40681 6.94969,17.0246 15.5315,17.0246 h 62.12597 c 8.5818,0 15.53148,-7.61777 15.53148,-17.0246 V 159.29705 c 0,-9.40681 -6.94968,-17.02459 -15.53148,-17.02459 h -62.12597 c -8.58181,0 -15.5315,7.61778 -15.5315,17.02459 z"
       style="fill:none;stroke:#424242;stroke-width:1.32292;stroke-linecap:butt;stroke-linejoin:miter;stroke-miterlimit:10;stroke-dasharray:none;stroke-opacity:1"
       id="path405" /><g
       id="g407"
       transform="matrix(1.3162282,0,0,1.4427616,-186.85118,-146.16447)"><g
         id="g409"
         clip-path="url(#clipPath413-7)"><text
           transform="matrix(1,0,0,-1,807.65,307.37)"
           style="font-variant:normal;font-weight:bold;font-size:16.08px;font-family:'Microsoft YaHei';-inkscape-font-specification:MicrosoftYaHei-Bold;writing-mode:lr-tb;fill:#000000;fill-opacity:1;fill-rule:nonzero;stroke:none"
           id="text417"><tspan
             x="0 16.104"
             y="0"
             sodipodi:role="line"
             id="tspan415">企业</tspan></text></g></g><g
       id="g419"
       transform="matrix(1.3162282,0,0,1.4427616,-186.85118,-146.16447)"><g
         id="g421"
         clip-path="url(#clipPath425-6)"><text
           transform="matrix(1,0,0,-1,839.83,307.37)"
           style="font-variant:normal;font-weight:bold;font-size:16.08px;font-family:'Microsoft YaHei';-inkscape-font-specification:MicrosoftYaHei-Bold;writing-mode:lr-tb;fill:#000000;fill-opacity:1;fill-rule:nonzero;stroke:none"
           id="text429"><tspan
             x="0"
             y="0"
             id="tspan427">B</tspan></text></g></g><path
       d="m 615.20556,420.69659 235.94705,-1.97658 -0.0131,-1.44277 -235.93389,1.97659 z m 234.64399,1.63032 7.87104,-4.38599 -7.92369,-4.27058 z"
       style="fill:#5b9bd5;fill-opacity:1;fill-rule:nonzero;stroke:none;stroke-width:1.37805"
       id="path431" /><path
       d="M 857.72059,369.44969 H 621.7867 v -1.44275 h 235.93389 z m -234.61765,3.60692 -7.89738,-4.32829 7.89738,-4.32829 z"
       style="fill:#5b9bd5;fill-opacity:1;fill-rule:nonzero;stroke:none;stroke-width:1.37805"
       id="path433" /><path
       d="m 615.20556,306.42987 h 235.93389 v -1.44276 H 615.20556 Z m 234.61767,3.6069 7.89736,-4.32828 -7.89736,-4.32829 z"
       style="fill:#5b9bd5;fill-opacity:1;fill-rule:nonzero;stroke:none;stroke-width:1.37805"
       id="path435" /><path
       d="M 857.72059,243.75629 H 621.7867 v -1.44275 h 235.93389 z m -234.61765,3.60691 -7.89738,-4.32829 7.89738,-4.32828 z"
       style="fill:#5b9bd5;fill-opacity:1;fill-rule:nonzero;stroke:none;stroke-width:1.37805"
       id="path437" /><path
       d="M 615.20556,183.85285 H 851.13945 V 182.4101 H 615.20556 Z m 234.61767,3.6069 7.89736,-4.32827 -7.89736,-4.3283 z"
       style="fill:#5b9bd5;fill-opacity:1;fill-rule:nonzero;stroke:none;stroke-width:1.37805"
       id="path439" /><g
       id="g441"
       transform="matrix(1.3162282,0,0,1.4427616,-186.85118,-146.16447)"><g
         id="g443"
         clip-path="url(#clipPath447-3)"><text
           transform="matrix(1,0,0,-1,669.62,405.07)"
           style="font-variant:normal;font-weight:normal;font-size:9.12px;font-family:'Microsoft YaHei';-inkscape-font-specification:MicrosoftYaHei;writing-mode:lr-tb;fill:#1d1d1a;fill-opacity:1;fill-rule:nonzero;stroke:none"
           id="text451"><tspan
             x="0 5.2804799 7.4419198"
             y="0"
             sodipodi:role="line"
             id="tspan449">1.</tspan></text></g></g><g
       id="g453"
       transform="matrix(1.3162282,0,0,1.4427616,-186.85118,-146.16447)"><g
         id="g455"
         clip-path="url(#clipPath459-0)"><text
           transform="matrix(1,0,0,-1,679.7,405.07)"
           style="font-variant:normal;font-weight:normal;font-size:9.12px;font-family:'Microsoft YaHei';-inkscape-font-specification:MicrosoftYaHei;writing-mode:lr-tb;fill:#1d1d1a;fill-opacity:1;fill-rule:nonzero;stroke:none"
           id="text463"><tspan
             x="0 9.1199999 18.24 27.360001"
             y="0"
             sodipodi:role="line"
             id="tspan461">发送公钥</tspan></text></g></g><g
       id="g465"
       transform="matrix(1.3162282,0,0,1.4427616,-186.85118,-146.16447)"><g
         id="g467"
         clip-path="url(#clipPath471-8)"><text
           transform="matrix(1,0,0,-1,644.52,367.9)"
           style="font-variant:normal;font-weight:normal;font-size:9.12px;font-family:'Microsoft YaHei';-inkscape-font-specification:MicrosoftYaHei;writing-mode:lr-tb;fill:#1d1d1a;fill-opacity:1;fill-rule:nonzero;stroke:none"
           id="text475"><tspan
             x="0 5.2804799 7.4419198"
             y="0"
             sodipodi:role="line"
             id="tspan473">2.</tspan></text></g></g><g
       id="g477"
       transform="matrix(1.3162282,0,0,1.4427616,-186.85118,-146.16447)"><g
         id="g479"
         clip-path="url(#clipPath483-2)"><text
           transform="matrix(1,0,0,-1,654.6,367.9)"
           style="font-variant:normal;font-weight:normal;font-size:9.12px;font-family:'Microsoft YaHei';-inkscape-font-specification:MicrosoftYaHei;writing-mode:lr-tb;fill:#1d1d1a;fill-opacity:1;fill-rule:nonzero;stroke:none"
           id="text487"><tspan
             x="0 9.1199999 18.24 27.360001 36.48 45.599998 54.720001 63.602879 72.722878 81.605759 90.725761"
             y="0"
             sodipodi:role="line"
             id="tspan485">发送本地计算中间值结果</tspan></text></g></g><g
       id="g489"
       transform="matrix(1.3162282,0,0,1.4427616,-186.85118,-146.16447)"><g
         id="g491"
         clip-path="url(#clipPath495-5)"><text
           transform="matrix(1,0,0,-1,635.21,323.64)"
           style="font-variant:normal;font-weight:normal;font-size:9.12px;font-family:'Microsoft YaHei';-inkscape-font-specification:MicrosoftYaHei;writing-mode:lr-tb;fill:#1d1d1a;fill-opacity:1;fill-rule:nonzero;stroke:none"
           id="text499"><tspan
             x="0 5.2804799 7.4419198"
             y="0"
             sodipodi:role="line"
             id="tspan497">3.</tspan></text></g></g><g
       id="g501"
       transform="matrix(1.3162282,0,0,1.4427616,-186.85118,-146.16447)"><g
         id="g503"
         clip-path="url(#clipPath507-4)"><text
           transform="matrix(1,0,0,-1,645.29,323.64)"
           style="font-variant:normal;font-weight:normal;font-size:9.12px;font-family:'Microsoft YaHei';-inkscape-font-specification:MicrosoftYaHei;writing-mode:lr-tb;fill:#1d1d1a;fill-opacity:1;fill-rule:nonzero;stroke:none"
           id="text511"><tspan
             x="0 9.1199999 18.24 27.360001 36.48 45.599998 54.720001 63.602879 72.722878 81.605759 90.725761 99.608643"
             y="0"
             sodipodi:role="line"
             id="tspan509">本地计算后，发送加密差值</tspan></text></g></g><g
       id="g513"
       transform="matrix(1.3162282,0,0,1.4427616,-186.85118,-146.16447)"><g
         id="g515"
         clip-path="url(#clipPath519-0)"><text
           transform="matrix(1,0,0,-1,644.06,281.04)"
           style="font-variant:normal;font-weight:normal;font-size:9.12px;font-family:'Microsoft YaHei';-inkscape-font-specification:MicrosoftYaHei;writing-mode:lr-tb;fill:#1d1d1a;fill-opacity:1;fill-rule:nonzero;stroke:none"
           id="text523"><tspan
             x="0 5.2804799 7.4419198"
             y="0"
             sodipodi:role="line"
             id="tspan521">4.</tspan></text></g></g><g
       id="g525"
       transform="matrix(1.3162282,0,0,1.4427616,-186.85118,-146.16447)"><g
         id="g527"
         clip-path="url(#clipPath531-5)"><text
           transform="matrix(1,0,0,-1,654.14,281.04)"
           style="font-variant:normal;font-weight:normal;font-size:9.12px;font-family:'Microsoft YaHei';-inkscape-font-specification:MicrosoftYaHei;writing-mode:lr-tb;fill:#1d1d1a;fill-opacity:1;fill-rule:nonzero;stroke:none"
           id="text535"><tspan
             x="0 9.1199999 18.27648 27.396481 36.552959 45.672958 54.829441 63.73056 72.850563 81.779037"
             y="0"
             sodipodi:role="line"
             id="tspan533">发送本地计算加密梯度</tspan></text></g></g><g
       id="g537"
       transform="matrix(1.3162282,0,0,1.4427616,-186.85118,-146.16447)"><g
         id="g539"
         clip-path="url(#clipPath543-3)"><text
           transform="matrix(1,0,0,-1,632.11,235.39)"
           style="font-variant:normal;font-weight:normal;font-size:9.144px;font-family:'Microsoft YaHei';-inkscape-font-specification:MicrosoftYaHei;writing-mode:lr-tb;fill:#1d1d1a;fill-opacity:1;fill-rule:nonzero;stroke:none"
           id="text547"><tspan
             x="0 5.2760882 7.434072"
             y="0"
             sodipodi:role="line"
             id="tspan545">5.</tspan></text></g></g><g
       id="g549"
       transform="matrix(1.3162282,0,0,1.4427616,-186.85118,-146.16447)"><g
         id="g551"
         clip-path="url(#clipPath555-3)"><text
           transform="matrix(1,0,0,-1,642.19,235.39)"
           style="font-variant:normal;font-weight:normal;font-size:9.144px;font-family:'Microsoft YaHei';-inkscape-font-specification:MicrosoftYaHei;writing-mode:lr-tb;fill:#1d1d1a;fill-opacity:1;fill-rule:nonzero;stroke:none"
           id="text559"><tspan
             x="0 9.1440001 18.288 27.431999 36.576 45.720001 54.863998 63.770256 72.914253 81.820511 90.964516 99.870766 109.01477 117.92102"
             y="0"
             sodipodi:role="line"
             id="tspan557">发送解密梯度值，双方更新模型</tspan></text></g></g><g
       id="g561"
       transform="matrix(1.3162282,0,0,1.4427616,-186.85118,-146.16447)"><g
         id="g563"
         clip-path="url(#clipPath567-5)"><text
           transform="matrix(1,0,0,-1,690.58,159.46)"
           style="font-variant:normal;font-weight:normal;font-size:18.024px;font-family:'Microsoft YaHei';-inkscape-font-specification:MicrosoftYaHei;writing-mode:lr-tb;fill:#1d1d1a;fill-opacity:1;fill-rule:nonzero;stroke:none"
           id="text571"><tspan
             x="0 6.0200162 17.537352"
             y="0"
             sodipodi:role="line"
             id="tspan569">(b)</tspan></text></g></g></g></svg>
