<?xml version="1.0" encoding="UTF-8" standalone="no"?>
<!-- Created with Inkscape (http://www.inkscape.org/) -->

<svg
   version="1.1"
   id="svg2"
   xml:space="preserve"
   width="802.58173"
   height="562.29089"
   viewBox="0 0 802.58173 562.29089"
   sodipodi:docname="framework_architecture.svg"
   inkscape:version="1.1.1 (3bf5ae0d25, 2021-09-20)"
   xmlns:inkscape="http://www.inkscape.org/namespaces/inkscape"
   xmlns:sodipodi="http://sodipodi.sourceforge.net/DTD/sodipodi-0.dtd"
   xmlns="http://www.w3.org/2000/svg"
   xmlns:svg="http://www.w3.org/2000/svg"><defs
     id="defs6"><clipPath
       clipPathUnits="userSpaceOnUse"
       id="clipPath18"><path
         d="M 0,0.1636353 H 602.8364 V 423.00004 H 0 Z"
         id="path16" /></clipPath></defs><sodipodi:namedview
     id="namedview4"
     pagecolor="#ffffff"
     bordercolor="#666666"
     borderopacity="1.0"
     inkscape:pageshadow="2"
     inkscape:pageopacity="0.0"
     inkscape:pagecheckerboard="0"
     showgrid="false"
     fit-margin-top="0"
     fit-margin-left="0"
     fit-margin-right="0"
     fit-margin-bottom="0"
     inkscape:zoom="0.90143577"
     inkscape:cx="312.2796"
     inkscape:cy="237.39906"
     inkscape:window-width="1920"
     inkscape:window-height="1137"
     inkscape:window-x="1912"
     inkscape:window-y="-8"
     inkscape:window-maximized="1"
     inkscape:current-layer="g8"
     showborder="false" /><g
     id="g8"
     inkscape:groupmode="layer"
     inkscape:label="framework-architecture"
     transform="matrix(1.3333333,0,0,-1.3333333,-0.98791861,563.59385)"><g
       id="g10" /><g
       id="g22"><g
         id="g26"
         transform="matrix(7.874016e-5,0,0,-7.874016e-5,1.490939,421.9454)"><path
           d="M 0,0 H 7625541 V 5336771 H 0 Z"
           style="fill:none;stroke:#000000;stroke-width:19050;stroke-linecap:butt;stroke-linejoin:miter;stroke-miterlimit:8;stroke-dasharray:none;stroke-opacity:1"
           id="path28" /></g><path
         d="M 30.29094,406.4546 H 573.7818 v -51.491 H 30.29094 Z"
         style="fill:#deebf7;fill-opacity:1;fill-rule:nonzero;stroke:none"
         id="path30" /><g
         id="g32"
         transform="matrix(7.874016e-5,0,0,-7.874016e-5,30.29094,406.4546)"><path
           d="M 0,0 H 6902334 V 653935 H 0 Z"
           style="fill:none;stroke:#000000;stroke-width:19050;stroke-linecap:butt;stroke-linejoin:miter;stroke-miterlimit:8;stroke-dasharray:none;stroke-opacity:1"
           id="path34" /></g><g
         id="g36"
         transform="matrix(0.2181818,0,0,0.2181818,232.0853,-47.61816)"><text
           transform="matrix(1,0,0,-1,0,1938)"
           style="font-variant:normal;font-weight:normal;font-size:83px;font-family:STSongti-SC;-inkscape-font-specification:STSongti-SC-Regular;writing-mode:lr-tb;fill:#000000;fill-opacity:1;fill-rule:nonzero;stroke:none"
           id="text40"><tspan
             x="0 82.501991 165.00398"
             y="0"
             sodipodi:role="line"
             id="tspan38">编程接口</tspan></text></g><g
         id="g42"
         transform="matrix(0.2181818,0,0,0.2181818,304.0853,-47.61816)"><text
           transform="matrix(1,0,0,-1,0,1938)"
           style="font-variant:normal;font-weight:normal;font-size:83px;font-family:STSongti-SC;-inkscape-font-specification:STSongti-SC-Regular;writing-mode:lr-tb;fill:#000000;fill-opacity:1;fill-rule:nonzero;stroke:none"
           id="text46"><tspan
             x="0 82.501991"
             y="0"
             sodipodi:role="line"
             id="tspan44">（第</tspan></text></g><g
         id="g48"
         transform="matrix(0.2181818,0,0,0.2181818,340.0853,-47.61816)"><text
           transform="matrix(1,0,0,-1,0,1938)"
           style="font-variant:normal;font-weight:normal;font-size:83px;font-family:STSongti-SC;-inkscape-font-specification:STSongti-SC-Regular;writing-mode:lr-tb;fill:#000000;fill-opacity:1;fill-rule:nonzero;stroke:none"
           id="text52"><tspan
             x="0"
             y="0"
             id="tspan50">2</tspan></text></g><g
         id="g54"
         transform="matrix(0.2181818,0,0,0.2181818,348.5853,-47.61816)"><text
           transform="matrix(1,0,0,-1,0,1938)"
           style="font-variant:normal;font-weight:normal;font-size:83px;font-family:STSongti-SC;-inkscape-font-specification:STSongti-SC-Regular;writing-mode:lr-tb;fill:#000000;fill-opacity:1;fill-rule:nonzero;stroke:none"
           id="text58"><tspan
             x="0"
             y="0"
             id="tspan56">章</tspan></text></g><g
         id="g60"
         transform="matrix(0.2181818,0,0,0.2181818,366.5853,-47.61816)"><text
           transform="matrix(1,0,0,-1,0,1938)"
           style="font-variant:normal;font-weight:normal;font-size:83px;font-family:STSongti-SC;-inkscape-font-specification:STSongti-SC-Regular;writing-mode:lr-tb;fill:#000000;fill-opacity:1;fill-rule:nonzero;stroke:none"
           id="text64"><tspan
             x="0"
             y="0"
             id="tspan62">)</tspan></text></g><path
         d="M 30.29094,339.2546 H 573.7818 V 287.5454 H 30.29094 Z"
         style="fill:#deebf7;fill-opacity:1;fill-rule:nonzero;stroke:none"
         id="path66" /><g
         id="g68"
         transform="matrix(7.874016e-5,0,0,-7.874016e-5,30.29094,339.2546)"><path
           d="M 0,0 H 6902334 V 656706 H 0 Z"
           style="fill:none;stroke:#000000;stroke-width:19050;stroke-linecap:butt;stroke-linejoin:miter;stroke-miterlimit:8;stroke-dasharray:none;stroke-opacity:1"
           id="path70" /></g><g
         id="g72"
         transform="matrix(0.2181818,0,0,0.2181818,234.7103,-115.0363)"><text
           transform="matrix(1,0,0,-1,0,1938)"
           style="font-variant:normal;font-weight:normal;font-size:83px;font-family:STSongti-SC;-inkscape-font-specification:STSongti-SC-Regular;writing-mode:lr-tb;fill:#000000;fill-opacity:1;fill-rule:nonzero;stroke:none"
           id="text76"><tspan
             x="0 82.501991 165.00398"
             y="0"
             sodipodi:role="line"
             id="tspan74">计算图</tspan></text></g><g
         id="g78"
         transform="matrix(0.2181818,0,0,0.2181818,288.7103,-115.0363)"><text
           transform="matrix(1,0,0,-1,0,1938)"
           style="font-variant:normal;font-weight:normal;font-size:83px;font-family:STSongti-SC;-inkscape-font-specification:STSongti-SC-Regular;writing-mode:lr-tb;fill:#000000;fill-opacity:1;fill-rule:nonzero;stroke:none"
           id="text82"><tspan
             x="0"
             y="0"
             id="tspan80">（</tspan></text></g><g
         id="g84"
         transform="matrix(0.2181818,0,0,0.2181818,306.7103,-115.0363)"><text
           transform="matrix(1,0,0,-1,0,1938)"
           style="font-variant:normal;font-weight:normal;font-size:83px;font-family:STSongti-SC;-inkscape-font-specification:STSongti-SC-Regular;writing-mode:lr-tb;fill:#000000;fill-opacity:1;fill-rule:nonzero;stroke:none"
           id="text88"><tspan
             x="0"
             y="0"
             id="tspan86">第</tspan></text></g><g
         id="g90"
         transform="matrix(0.2181818,0,0,0.2181818,324.7103,-115.0363)"><text
           transform="matrix(1,0,0,-1,0,1938)"
           style="font-variant:normal;font-weight:normal;font-size:83px;font-family:STSongti-SC;-inkscape-font-specification:STSongti-SC-Regular;writing-mode:lr-tb;fill:#000000;fill-opacity:1;fill-rule:nonzero;stroke:none"
           id="text94"><tspan
             x="0"
             y="0"
             id="tspan92">3</tspan></text></g><g
         id="g96"
         transform="matrix(0.2181818,0,0,0.2181818,333.2103,-115.0363)"><text
           transform="matrix(1,0,0,-1,0,1938)"
           style="font-variant:normal;font-weight:normal;font-size:83px;font-family:STSongti-SC;-inkscape-font-specification:STSongti-SC-Regular;writing-mode:lr-tb;fill:#000000;fill-opacity:1;fill-rule:nonzero;stroke:none"
           id="text100"><tspan
             x="0 82.501991"
             y="0"
             sodipodi:role="line"
             id="tspan98">章）</tspan></text></g><path
         d="M 30.29094,113.4364 H 573.7818 V 61.72725 H 30.29094 Z"
         style="fill:#deebf7;fill-opacity:1;fill-rule:nonzero;stroke:none"
         id="path102" /><g
         id="g104"
         transform="matrix(7.874016e-5,0,0,-7.874016e-5,30.29094,113.4364)"><path
           d="M 0,0 H 6902334 V 656706 H 0 Z"
           style="fill:none;stroke:#000000;stroke-width:19050;stroke-linecap:butt;stroke-linejoin:miter;stroke-miterlimit:8;stroke-dasharray:none;stroke-opacity:1"
           id="path106" /></g><g
         id="g108"
         transform="matrix(0.2181818,0,0,0.2181818,216.7103,-340.8545)"><text
           transform="matrix(1,0,0,-1,0,1938)"
           style="font-variant:normal;font-weight:normal;font-size:83px;font-family:STSongti-SC;-inkscape-font-specification:STSongti-SC-Regular;writing-mode:lr-tb;fill:#000000;fill-opacity:1;fill-rule:nonzero;stroke:none"
           id="text112"><tspan
             x="0 82.501991 165.00398 247.50597 330.00797"
             y="0"
             sodipodi:role="line"
             id="tspan110">计算加速器</tspan></text></g><g
         id="g114"
         transform="matrix(0.2181818,0,0,0.2181818,306.7103,-340.8545)"><text
           transform="matrix(1,0,0,-1,0,1938)"
           style="font-variant:normal;font-weight:normal;font-size:83px;font-family:STSongti-SC;-inkscape-font-specification:STSongti-SC-Regular;writing-mode:lr-tb;fill:#000000;fill-opacity:1;fill-rule:nonzero;stroke:none"
           id="text118"><tspan
             x="0 82.501991"
             y="0"
             sodipodi:role="line"
             id="tspan116">（第</tspan></text></g><g
         id="g120"
         transform="matrix(0.2181818,0,0,0.2181818,342.7103,-340.8545)"><text
           transform="matrix(1,0,0,-1,0,1938)"
           style="font-variant:normal;font-weight:normal;font-size:83px;font-family:STSongti-SC;-inkscape-font-specification:STSongti-SC-Regular;writing-mode:lr-tb;fill:#000000;fill-opacity:1;fill-rule:nonzero;stroke:none"
           id="text124"><tspan
             x="0"
             y="0"
             id="tspan122">4</tspan></text></g><g
         id="g126"
         transform="matrix(0.2181818,0,0,0.2181818,351.2103,-340.8545)"><text
           transform="matrix(1,0,0,-1,0,1938)"
           style="font-variant:normal;font-weight:normal;font-size:83px;font-family:STSongti-SC;-inkscape-font-specification:STSongti-SC-Regular;writing-mode:lr-tb;fill:#000000;fill-opacity:1;fill-rule:nonzero;stroke:none"
           id="text130"><tspan
             x="0 82.501991"
             y="0"
             sodipodi:role="line"
             id="tspan128">章）</tspan></text></g><path
         d="M 30.29094,269.6546 H 224.0364 V 214.0182 H 30.29094 Z"
         style="fill:#deebf7;fill-opacity:1;fill-rule:nonzero;stroke:none"
         id="path132" /><g
         id="g134"
         transform="matrix(7.874016e-5,0,0,-7.874016e-5,30.29094,269.6546)"><path
           d="M 0,0 H 2460567 V 706582 H 0 Z"
           style="fill:none;stroke:#000000;stroke-width:19050;stroke-linecap:butt;stroke-linejoin:miter;stroke-miterlimit:8;stroke-dasharray:none;stroke-opacity:1"
           id="path136" /></g><g
         id="g138"
         transform="matrix(0.2181818,0,0,0.2181818,41.83455,-186.3818)"><text
           transform="matrix(1,0,0,-1,0,1938)"
           style="font-variant:normal;font-weight:normal;font-size:83px;font-family:STSongti-SC;-inkscape-font-specification:STSongti-SC-Regular;writing-mode:lr-tb;fill:#000000;fill-opacity:1;fill-rule:nonzero;stroke:none"
           id="text142"><tspan
             x="0 82.501991 165.00398 247.50597 330.00797"
             y="0"
             sodipodi:role="line"
             id="tspan140">编译器前端</tspan></text></g><g
         id="g144"
         transform="matrix(0.2181818,0,0,0.2181818,131.8346,-186.3818)"><text
           transform="matrix(1,0,0,-1,0,1938)"
           style="font-variant:normal;font-weight:normal;font-size:83px;font-family:STSongti-SC;-inkscape-font-specification:STSongti-SC-Regular;writing-mode:lr-tb;fill:#000000;fill-opacity:1;fill-rule:nonzero;stroke:none"
           id="text148"><tspan
             x="0 82.501991"
             y="0"
             sodipodi:role="line"
             id="tspan146">（第</tspan></text></g><g
         id="g150"
         transform="matrix(0.2181818,0,0,0.2181818,167.8345,-186.3818)"><text
           transform="matrix(1,0,0,-1,0,1938)"
           style="font-variant:normal;font-weight:normal;font-size:83px;font-family:STSongti-SC;-inkscape-font-specification:STSongti-SC-Regular;writing-mode:lr-tb;fill:#000000;fill-opacity:1;fill-rule:nonzero;stroke:none"
           id="text154"><tspan
             x="0"
             y="0"
             id="tspan152">5</tspan></text></g><g
         id="g156"
         transform="matrix(0.2181818,0,0,0.2181818,176.3345,-186.3818)"><text
           transform="matrix(1,0,0,-1,0,1938)"
           style="font-variant:normal;font-weight:normal;font-size:83px;font-family:STSongti-SC;-inkscape-font-specification:STSongti-SC-Regular;writing-mode:lr-tb;fill:#000000;fill-opacity:1;fill-rule:nonzero;stroke:none"
           id="text160"><tspan
             x="0 82.501991"
             y="0"
             sodipodi:role="line"
             id="tspan158">章）</tspan></text></g><path
         d="M 30.29094,199.6182 H 224.0364 V 131.3273 H 30.29094 Z"
         style="fill:#deebf7;fill-opacity:1;fill-rule:nonzero;stroke:none"
         id="path162" /><g
         id="g164"
         transform="matrix(7.874016e-5,0,0,-7.874016e-5,30.29094,199.6182)"><path
           d="M 0,0 H 2460567 V 867295 H 0 Z"
           style="fill:none;stroke:#000000;stroke-width:19050;stroke-linecap:butt;stroke-linejoin:miter;stroke-miterlimit:8;stroke-dasharray:none;stroke-opacity:1"
           id="path166" /></g><g
         id="g168"
         transform="matrix(0.2181818,0,0,0.2181818,41.83455,-262.7454)"><text
           transform="matrix(1,0,0,-1,0,1938)"
           style="font-variant:normal;font-weight:normal;font-size:83px;font-family:STSongti-SC;-inkscape-font-specification:STSongti-SC-Regular;writing-mode:lr-tb;fill:#000000;fill-opacity:1;fill-rule:nonzero;stroke:none"
           id="text172"><tspan
             x="0 82.501991 165.00398 247.50597 330.00797"
             y="0"
             sodipodi:role="line"
             id="tspan170">编译器后端</tspan></text></g><g
         id="g174"
         transform="matrix(0.2181818,0,0,0.2181818,131.8346,-262.7454)"><text
           transform="matrix(1,0,0,-1,0,1938)"
           style="font-variant:normal;font-weight:normal;font-size:83px;font-family:STSongti-SC;-inkscape-font-specification:STSongti-SC-Regular;writing-mode:lr-tb;fill:#000000;fill-opacity:1;fill-rule:nonzero;stroke:none"
           id="text178"><tspan
             x="0 82.501991"
             y="0"
             sodipodi:role="line"
             id="tspan176">（第</tspan></text></g><g
         id="g180"
         transform="matrix(0.2181818,0,0,0.2181818,167.8345,-262.7454)"><text
           transform="matrix(1,0,0,-1,0,1938)"
           style="font-variant:normal;font-weight:normal;font-size:83px;font-family:STSongti-SC;-inkscape-font-specification:STSongti-SC-Regular;writing-mode:lr-tb;fill:#000000;fill-opacity:1;fill-rule:nonzero;stroke:none"
           id="text184"><tspan
             x="0"
             y="0"
             id="tspan182">6</tspan></text></g><g
         id="g186"
         transform="matrix(0.2181818,0,0,0.2181818,176.3345,-262.7454)"><text
           transform="matrix(1,0,0,-1,0,1938)"
           style="font-variant:normal;font-weight:normal;font-size:83px;font-family:STSongti-SC;-inkscape-font-specification:STSongti-SC-Regular;writing-mode:lr-tb;fill:#000000;fill-opacity:1;fill-rule:nonzero;stroke:none"
           id="text190"><tspan
             x="0 82.501991"
             y="0"
             sodipodi:role="line"
             id="tspan188">章）</tspan></text></g><path
         d="m 248.4728,269.6546 h 92.9454 V 131.3273 h -92.9454 z"
         style="fill:#deebf7;fill-opacity:1;fill-rule:nonzero;stroke:none"
         id="path192" /><g
         id="g194"
         transform="matrix(7.874016e-5,0,0,-7.874016e-5,248.4728,269.6546)"><path
           d="M 0,0 H 1180407 V 1756757 H 0 Z"
           style="fill:none;stroke:#000000;stroke-width:19050;stroke-linecap:butt;stroke-linejoin:miter;stroke-miterlimit:8;stroke-dasharray:none;stroke-opacity:1"
           id="path196" /></g><g
         id="g198"
         transform="matrix(0.2181818,0,0,0.2181818,257.8756,-217.1454)"><text
           transform="matrix(1,0,0,-1,0,1938)"
           style="font-variant:normal;font-weight:normal;font-size:83px;font-family:STSongti-SC;-inkscape-font-specification:STSongti-SC-Regular;writing-mode:lr-tb;fill:#000000;fill-opacity:1;fill-rule:nonzero;stroke:none"
           id="text202"><tspan
             x="0 82.501991 165.00398 247.50597"
             y="0"
             sodipodi:role="line"
             id="tspan200">数据处理</tspan></text></g><g
         id="g204"
         transform="matrix(0.2181818,0,0,0.2181818,254.6256,-238.7454)"><text
           transform="matrix(1,0,0,-1,0,1938)"
           style="font-variant:normal;font-weight:normal;font-size:83px;font-family:STSongti-SC;-inkscape-font-specification:STSongti-SC-Regular;writing-mode:lr-tb;fill:#000000;fill-opacity:1;fill-rule:nonzero;stroke:none"
           id="text208"><tspan
             x="0"
             y="0"
             id="tspan206">（</tspan></text></g><g
         id="g210"
         transform="matrix(0.2181818,0,0,0.2181818,272.6256,-238.7454)"><text
           transform="matrix(1,0,0,-1,0,1938)"
           style="font-variant:normal;font-weight:normal;font-size:83px;font-family:STSongti-SC;-inkscape-font-specification:STSongti-SC-Regular;writing-mode:lr-tb;fill:#000000;fill-opacity:1;fill-rule:nonzero;stroke:none"
           id="text214"><tspan
             x="0"
             y="0"
             id="tspan212">第</tspan></text></g><g
         id="g216"
         transform="matrix(0.2181818,0,0,0.2181818,290.6256,-238.7454)"><text
           transform="matrix(1,0,0,-1,0,1938)"
           style="font-variant:normal;font-weight:normal;font-size:83px;font-family:STSongti-SC;-inkscape-font-specification:STSongti-SC-Regular;writing-mode:lr-tb;fill:#000000;fill-opacity:1;fill-rule:nonzero;stroke:none"
           id="text220"><tspan
             x="0"
             y="0"
             id="tspan218">7</tspan></text></g><g
         id="g222"
         transform="matrix(0.2181818,0,0,0.2181818,299.1256,-238.7454)"><text
           transform="matrix(1,0,0,-1,0,1938)"
           style="font-variant:normal;font-weight:normal;font-size:83px;font-family:STSongti-SC;-inkscape-font-specification:STSongti-SC-Regular;writing-mode:lr-tb;fill:#000000;fill-opacity:1;fill-rule:nonzero;stroke:none"
           id="text226"><tspan
             x="0 82.501991"
             y="0"
             sodipodi:role="line"
             id="tspan224">章）</tspan></text></g><path
         d="m 357.7818,267.9091 h 92.9454 V 131.3272 h -92.9454 z"
         style="fill:#deebf7;fill-opacity:1;fill-rule:nonzero;stroke:none"
         id="path228" /><g
         id="g230"
         transform="matrix(7.874016e-5,0,0,-7.874016e-5,357.7818,267.9091)"><path
           d="M 0,0 H 1180407 V 1734589 H 0 Z"
           style="fill:none;stroke:#000000;stroke-width:19050;stroke-linecap:butt;stroke-linejoin:miter;stroke-miterlimit:8;stroke-dasharray:none;stroke-opacity:1"
           id="path232" /></g><g
         id="g234"
         transform="matrix(0.2181818,0,0,0.2181818,367.2091,-217.8)"><text
           transform="matrix(1,0,0,-1,0,1938)"
           style="font-variant:normal;font-weight:normal;font-size:83px;font-family:STSongti-SC;-inkscape-font-specification:STSongti-SC-Regular;writing-mode:lr-tb;fill:#000000;fill-opacity:1;fill-rule:nonzero;stroke:none"
           id="text238"><tspan
             x="0 82.501991 165.00398 247.50597"
             y="0"
             sodipodi:role="line"
             id="tspan236">模型部署</tspan></text></g><g
         id="g240"
         transform="matrix(0.2181818,0,0,0.2181818,363.9591,-239.4)"><text
           transform="matrix(1,0,0,-1,0,1938)"
           style="font-variant:normal;font-weight:normal;font-size:83px;font-family:STSongti-SC;-inkscape-font-specification:STSongti-SC-Regular;writing-mode:lr-tb;fill:#000000;fill-opacity:1;fill-rule:nonzero;stroke:none"
           id="text244"><tspan
             x="0"
             y="0"
             id="tspan242">（</tspan></text></g><g
         id="g246"
         transform="matrix(0.2181818,0,0,0.2181818,381.9591,-239.4)"><text
           transform="matrix(1,0,0,-1,0,1938)"
           style="font-variant:normal;font-weight:normal;font-size:83px;font-family:STSongti-SC;-inkscape-font-specification:STSongti-SC-Regular;writing-mode:lr-tb;fill:#000000;fill-opacity:1;fill-rule:nonzero;stroke:none"
           id="text250"><tspan
             x="0"
             y="0"
             id="tspan248">第</tspan></text></g><g
         id="g252"
         transform="matrix(0.2181818,0,0,0.2181818,399.9591,-239.4)"><text
           transform="matrix(1,0,0,-1,0,1938)"
           style="font-variant:normal;font-weight:normal;font-size:83px;font-family:STSongti-SC;-inkscape-font-specification:STSongti-SC-Regular;writing-mode:lr-tb;fill:#000000;fill-opacity:1;fill-rule:nonzero;stroke:none"
           id="text256"><tspan
             x="0"
             y="0"
             id="tspan254">8</tspan></text></g><g
         id="g258"
         transform="matrix(0.2181818,0,0,0.2181818,408.4591,-239.4)"><text
           transform="matrix(1,0,0,-1,0,1938)"
           style="font-variant:normal;font-weight:normal;font-size:83px;font-family:STSongti-SC;-inkscape-font-specification:STSongti-SC-Regular;writing-mode:lr-tb;fill:#000000;fill-opacity:1;fill-rule:nonzero;stroke:none"
           id="text262"><tspan
             x="0 82.501991"
             y="0"
             sodipodi:role="line"
             id="tspan260">章）</tspan></text></g><path
         d="M 467.0909,267.9091 H 573.7818 V 131.3272 H 467.0909 Z"
         style="fill:#deebf7;fill-opacity:1;fill-rule:nonzero;stroke:none"
         id="path264" /><g
         id="g266"
         transform="matrix(7.874016e-5,0,0,-7.874016e-5,467.0909,267.9091)"><path
           d="M 0,0 H 1354974 V 1734589 H 0 Z"
           style="fill:none;stroke:#000000;stroke-width:19050;stroke-linecap:butt;stroke-linejoin:miter;stroke-miterlimit:8;stroke-dasharray:none;stroke-opacity:1"
           id="path268" /></g><g
         id="g270"
         transform="matrix(0.2181818,0,0,0.2181818,475.4181,-217.8)"><text
           transform="matrix(1,0,0,-1,0,1938)"
           style="font-variant:normal;font-weight:normal;font-size:83px;font-family:STSongti-SC;-inkscape-font-specification:STSongti-SC-Regular;writing-mode:lr-tb;fill:#000000;fill-opacity:1;fill-rule:nonzero;stroke:none"
           id="text274"><tspan
             x="0 82.501991 165.00398 247.50597 330.00797"
             y="0"
             sodipodi:role="line"
             id="tspan272">分布式训练</tspan></text></g><g
         id="g276"
         transform="matrix(0.2181818,0,0,0.2181818,480.1682,-239.4)"><text
           transform="matrix(1,0,0,-1,0,1938)"
           style="font-variant:normal;font-weight:normal;font-size:83px;font-family:STSongti-SC;-inkscape-font-specification:STSongti-SC-Regular;writing-mode:lr-tb;fill:#000000;fill-opacity:1;fill-rule:nonzero;stroke:none"
           id="text280"><tspan
             x="0"
             y="0"
             id="tspan278">（</tspan></text></g><g
         id="g282"
         transform="matrix(0.2181818,0,0,0.2181818,498.1682,-239.4)"><text
           transform="matrix(1,0,0,-1,0,1938)"
           style="font-variant:normal;font-weight:normal;font-size:83px;font-family:STSongti-SC;-inkscape-font-specification:STSongti-SC-Regular;writing-mode:lr-tb;fill:#000000;fill-opacity:1;fill-rule:nonzero;stroke:none"
           id="text286"><tspan
             x="0"
             y="0"
             id="tspan284">第</tspan></text></g><g
         id="g288"
         transform="matrix(0.2181818,0,0,0.2181818,516.1682,-239.4)"><text
           transform="matrix(1,0,0,-1,0,1938)"
           style="font-variant:normal;font-weight:normal;font-size:83px;font-family:STSongti-SC;-inkscape-font-specification:STSongti-SC-Regular;writing-mode:lr-tb;fill:#000000;fill-opacity:1;fill-rule:nonzero;stroke:none"
           id="text292"><tspan
             x="0"
             y="0"
             id="tspan290">9</tspan></text></g><g
         id="g294"
         transform="matrix(0.2181818,0,0,0.2181818,524.6681,-239.4)"><text
           transform="matrix(1,0,0,-1,0,1938)"
           style="font-variant:normal;font-weight:normal;font-size:83px;font-family:STSongti-SC;-inkscape-font-specification:STSongti-SC-Regular;writing-mode:lr-tb;fill:#000000;fill-opacity:1;fill-rule:nonzero;stroke:none"
           id="text298"><tspan
             x="0 82.501991"
             y="0"
             sodipodi:role="line"
             id="tspan296">章）</tspan></text></g><g
         id="g300"
         transform="matrix(0.2181818,0,0,0.2181818,241.3561,-401.9454)"><text
           transform="matrix(1,0,0,-1,0,1938)"
           style="font-variant:normal;font-weight:normal;font-size:83px;font-family:STSongti-SC;-inkscape-font-specification:STSongti-SC-Regular;writing-mode:lr-tb;fill:#000000;fill-opacity:1;fill-rule:nonzero;stroke:none"
           id="text304"><tspan
             x="0 82.501991 165.00398 247.50597 330.00797 412.50995"
             y="0"
             sodipodi:role="line"
             id="tspan302">机器学习系统</tspan></text></g></g></g></svg>
