<?xml version="1.0" encoding="UTF-8" standalone="no"?>
<!-- Created with Inkscape (http://www.inkscape.org/) -->

<svg
   version="1.1"
   id="svg915"
   xml:space="preserve"
   width="993.91998"
   height="272.47998"
   viewBox="0 0 993.91998 272.47998"
   xmlns="http://www.w3.org/2000/svg"
   xmlns:svg="http://www.w3.org/2000/svg"><defs
     id="defs919"><clipPath
       clipPathUnits="userSpaceOnUse"
       id="clipPath929"><path
         d="M 0,1.2207e-4 H 960 V 540.00012 H 0 Z"
         clip-rule="evenodd"
         id="path927" /></clipPath><clipPath
       clipPathUnits="userSpaceOnUse"
       id="clipPath943"><path
         d="M 1.4305e-5,0 H 960.00001 V 540 H 1.4305e-5 Z"
         clip-rule="evenodd"
         id="path941" /></clipPath><clipPath
       clipPathUnits="userSpaceOnUse"
       id="clipPath955"><path
         d="M 1.4305e-5,0 H 960.00001 V 540 H 1.4305e-5 Z"
         clip-rule="evenodd"
         id="path953" /></clipPath><clipPath
       clipPathUnits="userSpaceOnUse"
       id="clipPath971"><path
         d="M 1.4305e-5,0 H 960.00001 V 540 H 1.4305e-5 Z"
         clip-rule="evenodd"
         id="path969" /></clipPath><clipPath
       clipPathUnits="userSpaceOnUse"
       id="clipPath983"><path
         d="M 1.4305e-5,0 H 960.00001 V 540 H 1.4305e-5 Z"
         clip-rule="evenodd"
         id="path981" /></clipPath><clipPath
       clipPathUnits="userSpaceOnUse"
       id="clipPath999"><path
         d="M 1.4305e-5,0 H 960.00001 V 540 H 1.4305e-5 Z"
         clip-rule="evenodd"
         id="path997" /></clipPath><clipPath
       clipPathUnits="userSpaceOnUse"
       id="clipPath1011"><path
         d="M 1.4305e-5,0 H 960.00001 V 540 H 1.4305e-5 Z"
         clip-rule="evenodd"
         id="path1009" /></clipPath><clipPath
       clipPathUnits="userSpaceOnUse"
       id="clipPath1023"><path
         d="M 1.4305e-5,0 H 960.00001 V 540 H 1.4305e-5 Z"
         clip-rule="evenodd"
         id="path1021" /></clipPath><clipPath
       clipPathUnits="userSpaceOnUse"
       id="clipPath1039"><path
         d="M 1.4305e-5,0 H 960.00001 V 540 H 1.4305e-5 Z"
         clip-rule="evenodd"
         id="path1037" /></clipPath><clipPath
       clipPathUnits="userSpaceOnUse"
       id="clipPath1055"><path
         d="M 1.4305e-5,0 H 960.00001 V 540 H 1.4305e-5 Z"
         clip-rule="evenodd"
         id="path1053" /></clipPath><clipPath
       clipPathUnits="userSpaceOnUse"
       id="clipPath1071"><path
         d="M 1.4305e-5,0 H 960.00001 V 540 H 1.4305e-5 Z"
         clip-rule="evenodd"
         id="path1069" /></clipPath><clipPath
       clipPathUnits="userSpaceOnUse"
       id="clipPath1087"><path
         d="M 1.4305e-5,0 H 960.00001 V 540 H 1.4305e-5 Z"
         clip-rule="evenodd"
         id="path1085" /></clipPath><clipPath
       clipPathUnits="userSpaceOnUse"
       id="clipPath1099"><path
         d="M 1.4305e-5,0 H 960.00001 V 540 H 1.4305e-5 Z"
         clip-rule="evenodd"
         id="path1097" /></clipPath><clipPath
       clipPathUnits="userSpaceOnUse"
       id="clipPath1115"><path
         d="M 1.4305e-5,0 H 960.00001 V 540 H 1.4305e-5 Z"
         clip-rule="evenodd"
         id="path1113" /></clipPath><clipPath
       clipPathUnits="userSpaceOnUse"
       id="clipPath1127"><path
         d="M 1.4305e-5,0 H 960.00001 V 540 H 1.4305e-5 Z"
         clip-rule="evenodd"
         id="path1125" /></clipPath><clipPath
       clipPathUnits="userSpaceOnUse"
       id="clipPath1143"><path
         d="M 1.4305e-5,0 H 960.00001 V 540 H 1.4305e-5 Z"
         clip-rule="evenodd"
         id="path1141" /></clipPath><clipPath
       clipPathUnits="userSpaceOnUse"
       id="clipPath1155"><path
         d="M 1.4305e-5,0 H 960.00001 V 540 H 1.4305e-5 Z"
         clip-rule="evenodd"
         id="path1153" /></clipPath><clipPath
       clipPathUnits="userSpaceOnUse"
       id="clipPath1167"><path
         d="M 1.4305e-5,0 H 960.00001 V 540 H 1.4305e-5 Z"
         clip-rule="evenodd"
         id="path1165" /></clipPath><clipPath
       clipPathUnits="userSpaceOnUse"
       id="clipPath1195"><path
         d="M 1.4305e-5,0 H 960.00001 V 540 H 1.4305e-5 Z"
         clip-rule="evenodd"
         id="path1193" /></clipPath><clipPath
       clipPathUnits="userSpaceOnUse"
       id="clipPath1207"><path
         d="M 1.4305e-5,0 H 960.00001 V 540 H 1.4305e-5 Z"
         clip-rule="evenodd"
         id="path1205" /></clipPath></defs><g
     id="g921"
     transform="matrix(1.3333333,0,0,-1.3333333,-127.84,518.39999)"><path
       d="m 96.36,356.4 h 102.96 v 31.92 H 96.36 Z"
       style="fill:#ffffff;fill-opacity:1;fill-rule:evenodd;stroke:none"
       id="path933" /><path
       d="m 96.36,356.4 h 102.96 v 31.92 H 96.36 Z"
       style="fill:none;stroke:#000000;stroke-width:0.96;stroke-linecap:butt;stroke-linejoin:miter;stroke-miterlimit:10;stroke-dasharray:none;stroke-opacity:1"
       id="path935" /><g
       id="g937"><g
         id="g939"
         clip-path="url(#clipPath943)"><text
           transform="matrix(1,0,0,-1,109.3,367.39)"
           style="font-variant:normal;font-weight:normal;font-size:14.04px;font-family:'宋体';-inkscape-font-specification:'宋体';writing-mode:lr-tb;fill:#000000;fill-opacity:1;fill-rule:nonzero;stroke:none"
           id="text947"><tspan
             x="0 14.04 28.08 42.119999 56.16"
             y="0"
             id="tspan945">源程序语言</tspan></text></g></g><g
       id="g949"><g
         id="g951"
         clip-path="url(#clipPath955)"><text
           transform="matrix(1,0,0,-1,179.52,367.39)"
           style="font-variant:normal;font-weight:normal;font-size:14.04px;font-family:Calibri;-inkscape-font-specification:Calibri;writing-mode:lr-tb;fill:#000000;fill-opacity:1;fill-rule:nonzero;stroke:none"
           id="text959"><tspan
             x="0"
             y="0"
             id="tspan957">1</tspan></text></g></g><path
       d="m 96.36,283.92 h 102.96 v 31.8 H 96.36 Z"
       style="fill:#ffffff;fill-opacity:1;fill-rule:evenodd;stroke:none"
       id="path961" /><path
       d="m 96.36,283.92 h 102.96 v 31.8 H 96.36 Z"
       style="fill:none;stroke:#000000;stroke-width:0.96;stroke-linecap:butt;stroke-linejoin:miter;stroke-miterlimit:10;stroke-dasharray:none;stroke-opacity:1"
       id="path963" /><g
       id="g965"><g
         id="g967"
         clip-path="url(#clipPath971)"><text
           transform="matrix(1,0,0,-1,109.3,294.86)"
           style="font-variant:normal;font-weight:normal;font-size:14.04px;font-family:'宋体';-inkscape-font-specification:'宋体';writing-mode:lr-tb;fill:#000000;fill-opacity:1;fill-rule:nonzero;stroke:none"
           id="text975"><tspan
             x="0 14.04 28.08 42.119999 56.16"
             y="0"
             id="tspan973">源程序语言</tspan></text></g></g><g
       id="g977"><g
         id="g979"
         clip-path="url(#clipPath983)"><text
           transform="matrix(1,0,0,-1,179.52,294.86)"
           style="font-variant:normal;font-weight:normal;font-size:14.04px;font-family:Calibri;-inkscape-font-specification:Calibri;writing-mode:lr-tb;fill:#000000;fill-opacity:1;fill-rule:nonzero;stroke:none"
           id="text987"><tspan
             x="0"
             y="0"
             id="tspan985">2</tspan></text></g></g><path
       d="m 96.36,184.92 h 102.96 v 31.8 H 96.36 Z"
       style="fill:#ffffff;fill-opacity:1;fill-rule:evenodd;stroke:none"
       id="path989" /><path
       d="m 96.36,184.92 h 102.96 v 31.8 H 96.36 Z"
       style="fill:none;stroke:#000000;stroke-width:0.96;stroke-linecap:butt;stroke-linejoin:miter;stroke-miterlimit:10;stroke-dasharray:none;stroke-opacity:1"
       id="path991" /><g
       id="g993"><g
         id="g995"
         clip-path="url(#clipPath999)"><text
           transform="matrix(1,0,0,-1,106.78,195.82)"
           style="font-variant:normal;font-weight:normal;font-size:14.064px;font-family:'宋体';-inkscape-font-specification:'宋体';writing-mode:lr-tb;fill:#000000;fill-opacity:1;fill-rule:nonzero;stroke:none"
           id="text1003"><tspan
             x="0 14.04 28.08 42.119999 56.16"
             y="0"
             id="tspan1001">源程序语言</tspan></text></g></g><g
       id="g1005"><g
         id="g1007"
         clip-path="url(#clipPath1011)"><text
           transform="matrix(1,0,0,-1,176.98,195.82)"
           style="font-variant:normal;font-weight:normal;font-size:14.064px;font-family:Calibri;-inkscape-font-specification:Calibri;writing-mode:lr-tb;fill:#000000;fill-opacity:1;fill-rule:nonzero;stroke:none"
           id="text1015"><tspan
             x="0"
             y="0"
             id="tspan1013">M</tspan></text></g></g><g
       id="g1017"><g
         id="g1019"
         clip-path="url(#clipPath1023)"><text
           transform="matrix(1,0,0,-1,143.04,246.96)"
           style="font-variant:normal;font-weight:normal;font-size:14.04px;font-family:Calibri;-inkscape-font-specification:Calibri;writing-mode:lr-tb;fill:#000000;fill-opacity:1;fill-rule:nonzero;stroke:none"
           id="text1027"><tspan
             x="0"
             y="0"
             id="tspan1025">…</tspan></text></g></g><path
       d="m 277.92,252.12 h 96.24 v 31.8 h -96.24 z"
       style="fill:#ffffff;fill-opacity:1;fill-rule:evenodd;stroke:none"
       id="path1029" /><path
       d="m 277.92,252.12 h 96.24 v 31.8 h -96.24 z"
       style="fill:none;stroke:#000000;stroke-width:0.96;stroke-linecap:butt;stroke-linejoin:miter;stroke-miterlimit:10;stroke-dasharray:none;stroke-opacity:1"
       id="path1031" /><g
       id="g1033"><g
         id="g1035"
         clip-path="url(#clipPath1039)"><text
           transform="matrix(1,0,0,-1,312.05,263.04)"
           style="font-variant:normal;font-weight:normal;font-size:14.064px;font-family:'宋体';-inkscape-font-specification:'宋体';writing-mode:lr-tb;fill:#000000;fill-opacity:1;fill-rule:nonzero;stroke:none"
           id="text1043"><tspan
             x="0 14.04"
             y="0"
             id="tspan1041">前端</tspan></text></g></g><path
       d="m 417.12,251.16 h 96.24 v 31.8 h -96.24 z"
       style="fill:#ffffff;fill-opacity:1;fill-rule:evenodd;stroke:none"
       id="path1045" /><path
       d="m 417.12,251.16 h 96.24 v 31.8 h -96.24 z"
       style="fill:none;stroke:#000000;stroke-width:0.96;stroke-linecap:butt;stroke-linejoin:miter;stroke-miterlimit:10;stroke-dasharray:none;stroke-opacity:1"
       id="path1047" /><g
       id="g1049"><g
         id="g1051"
         clip-path="url(#clipPath1055)"><text
           transform="matrix(1,0,0,-1,444.19,262.08)"
           style="font-variant:normal;font-weight:normal;font-size:14.04px;font-family:'宋体';-inkscape-font-specification:'宋体';writing-mode:lr-tb;fill:#000000;fill-opacity:1;fill-rule:nonzero;stroke:none"
           id="text1059"><tspan
             x="0 14.04 28.08"
             y="0"
             id="tspan1057">优化器</tspan></text></g></g><path
       d="m 557.16,251.16 h 96.24 v 31.8 h -96.24 z"
       style="fill:#ffffff;fill-opacity:1;fill-rule:evenodd;stroke:none"
       id="path1061" /><path
       d="m 557.16,251.16 h 96.24 v 31.8 h -96.24 z"
       style="fill:none;stroke:#000000;stroke-width:0.96;stroke-linecap:butt;stroke-linejoin:miter;stroke-miterlimit:10;stroke-dasharray:none;stroke-opacity:1"
       id="path1063" /><g
       id="g1065"><g
         id="g1067"
         clip-path="url(#clipPath1071)"><text
           transform="matrix(1,0,0,-1,591.26,262.08)"
           style="font-variant:normal;font-weight:normal;font-size:14.04px;font-family:'宋体';-inkscape-font-specification:'宋体';writing-mode:lr-tb;fill:#000000;fill-opacity:1;fill-rule:nonzero;stroke:none"
           id="text1075"><tspan
             x="0 14.04"
             y="0"
             id="tspan1073">后端</tspan></text></g></g><path
       d="m 737.88,356.4 h 102.96 v 31.92 H 737.88 Z"
       style="fill:#ffffff;fill-opacity:1;fill-rule:evenodd;stroke:none"
       id="path1077" /><path
       d="m 737.88,356.4 h 102.96 v 31.92 H 737.88 Z"
       style="fill:none;stroke:#000000;stroke-width:0.96;stroke-linecap:butt;stroke-linejoin:miter;stroke-miterlimit:10;stroke-dasharray:none;stroke-opacity:1"
       id="path1079" /><g
       id="g1081"><g
         id="g1083"
         clip-path="url(#clipPath1087)"><text
           transform="matrix(1,0,0,-1,757.78,367.39)"
           style="font-variant:normal;font-weight:normal;font-size:14.04px;font-family:'宋体';-inkscape-font-specification:'宋体';writing-mode:lr-tb;fill:#000000;fill-opacity:1;fill-rule:nonzero;stroke:none"
           id="text1091"><tspan
             x="0 14.04 28.08 42.119999"
             y="0"
             id="tspan1089">目标机器</tspan></text></g></g><g
       id="g1093"><g
         id="g1095"
         clip-path="url(#clipPath1099)"><text
           transform="matrix(1,0,0,-1,813.94,367.39)"
           style="font-variant:normal;font-weight:normal;font-size:14.04px;font-family:Calibri;-inkscape-font-specification:Calibri;writing-mode:lr-tb;fill:#000000;fill-opacity:1;fill-rule:nonzero;stroke:none"
           id="text1103"><tspan
             x="0"
             y="0"
             id="tspan1101">1</tspan></text></g></g><path
       d="m 737.88,284.16 h 102.96 v 31.92 H 737.88 Z"
       style="fill:#ffffff;fill-opacity:1;fill-rule:evenodd;stroke:none"
       id="path1105" /><path
       d="m 737.88,284.16 h 102.96 v 31.92 H 737.88 Z"
       style="fill:none;stroke:#000000;stroke-width:0.96;stroke-linecap:butt;stroke-linejoin:miter;stroke-miterlimit:10;stroke-dasharray:none;stroke-opacity:1"
       id="path1107" /><g
       id="g1109"><g
         id="g1111"
         clip-path="url(#clipPath1115)"><text
           transform="matrix(1,0,0,-1,757.78,295.13)"
           style="font-variant:normal;font-weight:normal;font-size:14.04px;font-family:'宋体';-inkscape-font-specification:'宋体';writing-mode:lr-tb;fill:#000000;fill-opacity:1;fill-rule:nonzero;stroke:none"
           id="text1119"><tspan
             x="0 14.04 28.08 42.119999"
             y="0"
             id="tspan1117">目标机器</tspan></text></g></g><g
       id="g1121"><g
         id="g1123"
         clip-path="url(#clipPath1127)"><text
           transform="matrix(1,0,0,-1,813.94,295.13)"
           style="font-variant:normal;font-weight:normal;font-size:14.04px;font-family:Calibri;-inkscape-font-specification:Calibri;writing-mode:lr-tb;fill:#000000;fill-opacity:1;fill-rule:nonzero;stroke:none"
           id="text1131"><tspan
             x="0"
             y="0"
             id="tspan1129">2</tspan></text></g></g><path
       d="m 737.88,184.92 h 102.96 v 31.8 H 737.88 Z"
       style="fill:#ffffff;fill-opacity:1;fill-rule:evenodd;stroke:none"
       id="path1133" /><path
       d="m 737.88,184.92 h 102.96 v 31.8 H 737.88 Z"
       style="fill:none;stroke:#000000;stroke-width:0.96;stroke-linecap:butt;stroke-linejoin:miter;stroke-miterlimit:10;stroke-dasharray:none;stroke-opacity:1"
       id="path1135" /><g
       id="g1137"><g
         id="g1139"
         clip-path="url(#clipPath1143)"><text
           transform="matrix(1,0,0,-1,756.82,195.82)"
           style="font-variant:normal;font-weight:normal;font-size:14.064px;font-family:'宋体';-inkscape-font-specification:'宋体';writing-mode:lr-tb;fill:#000000;fill-opacity:1;fill-rule:nonzero;stroke:none"
           id="text1147"><tspan
             x="0 14.04 28.08 42.119999"
             y="0"
             id="tspan1145">目标机器</tspan></text></g></g><g
       id="g1149"><g
         id="g1151"
         clip-path="url(#clipPath1155)"><text
           transform="matrix(1,0,0,-1,812.98,195.82)"
           style="font-variant:normal;font-weight:normal;font-size:14.064px;font-family:Calibri;-inkscape-font-specification:Calibri;writing-mode:lr-tb;fill:#000000;fill-opacity:1;fill-rule:nonzero;stroke:none"
           id="text1159"><tspan
             x="0"
             y="0"
             id="tspan1157">N</tspan></text></g></g><g
       id="g1161"><g
         id="g1163"
         clip-path="url(#clipPath1167)"><text
           transform="matrix(1,0,0,-1,784.56,241.99)"
           style="font-variant:normal;font-weight:normal;font-size:14.04px;font-family:Calibri;-inkscape-font-specification:Calibri;writing-mode:lr-tb;fill:#000000;fill-opacity:1;fill-rule:nonzero;stroke:none"
           id="text1171"><tspan
             x="0"
             y="0"
             id="tspan1169">…</tspan></text></g></g><path
       d="m 199.32,300.38 h 39.76 v -32.34 l -0.5,0.5 h 34.27 v -1 h -34.77 v 32.34 l 0.5,-0.5 h -39.26 z m 72.53,-29.34 6,-3 -6,-3 z"
       style="fill:#000000;fill-opacity:1;fill-rule:nonzero;stroke:none"
       id="path1173" /><path
       d="m 374.17,268.46 37.93,-0.84 -0.02,-1 -37.93,0.84 z m 36.98,1.68 5.94,-3.13 -6.07,-2.87 z"
       style="fill:#000000;fill-opacity:1;fill-rule:nonzero;stroke:none"
       id="path1175" /><path
       d="m 513.36,267.62 h 38.69 v -1 h -38.69 z m 37.69,2.5 6,-3 -6,-3 z"
       style="fill:#000000;fill-opacity:1;fill-rule:nonzero;stroke:none"
       id="path1177" /><path
       d="m 653.4,266.58 h 37.63 v 33.54 l -0.5,-0.5 h 42.31 v 1 h -42.81 v -33.54 l 0.5,0.5 H 653.4 Z m 78.44,30.54 6,3 -6,3 z"
       style="fill:#000000;fill-opacity:1;fill-rule:nonzero;stroke:none"
       id="path1179" /><path
       d="m 653.4,259.34 h 23.83 v -58.5 l -0.5,0.5 h 56.16 v -1 h -56.66 v 58.5 l 0.5,-0.5 H 653.4 Z m 78.49,-55.5 6,-3 -6,-3 z"
       style="fill:#000000;fill-opacity:1;fill-rule:nonzero;stroke:none"
       id="path1181" /><path
       d="m 199.32,372.86 h 52.15 v -95.13 l -0.5,0.5 h 21.92 v -1 h -22.42 v 95.13 l 0.5,-0.5 h -51.65 z m 72.57,-92.13 6,-3 -6,-3 z"
       style="fill:#000000;fill-opacity:1;fill-rule:nonzero;stroke:none"
       id="path1183" /><path
       d="m 199.32,200.31 h 52.85 v 59.49 l -0.5,-0.5 h 21.18 v 1 h -21.68 v -59.49 l 0.5,0.5 h -52.35 z m 72.53,56.49 6,3 -6,3 z"
       style="fill:#000000;fill-opacity:1;fill-rule:nonzero;stroke:none"
       id="path1185" /><path
       d="m 653.4,275.91 h 21.37 v 92.49 l -0.5,-0.5 h 58.06 v 1 h -58.56 v -92.49 l 0.5,0.5 H 653.4 Z m 77.93,89.49 6,3 -6,3 z"
       style="fill:#000000;fill-opacity:1;fill-rule:nonzero;stroke:none"
       id="path1187" /><g
       id="g1189"><g
         id="g1191"
         clip-path="url(#clipPath1195)"><text
           transform="matrix(1,0,0,-1,390.12,275.09)"
           style="font-variant:normal;font-weight:normal;font-size:14.064px;font-family:Calibri;-inkscape-font-specification:Calibri;writing-mode:lr-tb;fill:#000000;fill-opacity:1;fill-rule:nonzero;stroke:none"
           id="text1199"><tspan
             x="0 3.4800279"
             y="0"
             id="tspan1197">IR</tspan></text></g></g><g
       id="g1201"><g
         id="g1203"
         clip-path="url(#clipPath1207)"><text
           transform="matrix(1,0,0,-1,529.73,273.79)"
           style="font-variant:normal;font-weight:normal;font-size:14.04px;font-family:Calibri;-inkscape-font-specification:Calibri;writing-mode:lr-tb;fill:#000000;fill-opacity:1;fill-rule:nonzero;stroke:none"
           id="text1211"><tspan
             x="0 3.47998"
             y="0"
             id="tspan1209">IR</tspan></text></g></g></g></svg>
