<?xml version="1.0" encoding="UTF-8" standalone="no"?>
<!-- Created with Inkscape (http://www.inkscape.org/) -->

<svg
   version="1.1"
   id="svg1251"
   xml:space="preserve"
   width="845.71997"
   height="453.86667"
   viewBox="0 0 845.71997 453.86667"
   sodipodi:docname="编译优化-pass结构.svg"
   inkscape:version="1.1.1 (c3084ef, 2021-09-22)"
   xmlns:inkscape="http://www.inkscape.org/namespaces/inkscape"
   xmlns:sodipodi="http://sodipodi.sourceforge.net/DTD/sodipodi-0.dtd"
   xmlns="http://www.w3.org/2000/svg"
   xmlns:svg="http://www.w3.org/2000/svg"><defs
     id="defs1255"><clipPath
       clipPathUnits="userSpaceOnUse"
       id="clipPath1265"><path
         d="M 0,1.2207e-4 H 960 V 540.00012 H 0 Z"
         clip-rule="evenodd"
         id="path1263" /></clipPath><clipPath
       clipPathUnits="userSpaceOnUse"
       id="clipPath1279"><path
         d="M 1.4305e-5,0 H 960.00001 V 540 H 1.4305e-5 Z"
         clip-rule="evenodd"
         id="path1277" /></clipPath><clipPath
       clipPathUnits="userSpaceOnUse"
       id="clipPath1291"><path
         d="M 1.4305e-5,0 H 960.00001 V 540 H 1.4305e-5 Z"
         clip-rule="evenodd"
         id="path1289" /></clipPath><clipPath
       clipPathUnits="userSpaceOnUse"
       id="clipPath1307"><path
         d="M 1.4305e-5,0 H 960.00001 V 540 H 1.4305e-5 Z"
         clip-rule="evenodd"
         id="path1305" /></clipPath><clipPath
       clipPathUnits="userSpaceOnUse"
       id="clipPath1319"><path
         d="M 1.4305e-5,0 H 960.00001 V 540 H 1.4305e-5 Z"
         clip-rule="evenodd"
         id="path1317" /></clipPath><clipPath
       clipPathUnits="userSpaceOnUse"
       id="clipPath1335"><path
         d="M 1.4305e-5,0 H 960.00001 V 540 H 1.4305e-5 Z"
         clip-rule="evenodd"
         id="path1333" /></clipPath><clipPath
       clipPathUnits="userSpaceOnUse"
       id="clipPath1347"><path
         d="M 1.4305e-5,0 H 960.00001 V 540 H 1.4305e-5 Z"
         clip-rule="evenodd"
         id="path1345" /></clipPath><clipPath
       clipPathUnits="userSpaceOnUse"
       id="clipPath1367"><path
         d="M 1.4305e-5,0 H 960.00001 V 540 H 1.4305e-5 Z"
         clip-rule="evenodd"
         id="path1365" /></clipPath><clipPath
       clipPathUnits="userSpaceOnUse"
       id="clipPath1379"><path
         d="M 1.4305e-5,0 H 960.00001 V 540 H 1.4305e-5 Z"
         clip-rule="evenodd"
         id="path1377" /></clipPath><clipPath
       clipPathUnits="userSpaceOnUse"
       id="clipPath1391"><path
         d="M 1.4305e-5,0 H 960.00001 V 540 H 1.4305e-5 Z"
         clip-rule="evenodd"
         id="path1389" /></clipPath><clipPath
       clipPathUnits="userSpaceOnUse"
       id="clipPath1403"><path
         d="M 1.4305e-5,0 H 960.00001 V 540 H 1.4305e-5 Z"
         clip-rule="evenodd"
         id="path1401" /></clipPath><clipPath
       clipPathUnits="userSpaceOnUse"
       id="clipPath1423"><path
         d="M 1.4305e-5,0 H 960.00001 V 540 H 1.4305e-5 Z"
         clip-rule="evenodd"
         id="path1421" /></clipPath><clipPath
       clipPathUnits="userSpaceOnUse"
       id="clipPath1435"><path
         d="M 1.4305e-5,0 H 960.00001 V 540 H 1.4305e-5 Z"
         clip-rule="evenodd"
         id="path1433" /></clipPath><clipPath
       clipPathUnits="userSpaceOnUse"
       id="clipPath1451"><path
         d="M 1.4305e-5,0 H 960.00001 V 540 H 1.4305e-5 Z"
         clip-rule="evenodd"
         id="path1449" /></clipPath><clipPath
       clipPathUnits="userSpaceOnUse"
       id="clipPath1463"><path
         d="M 1.4305e-5,0 H 960.00001 V 540 H 1.4305e-5 Z"
         clip-rule="evenodd"
         id="path1461" /></clipPath><clipPath
       clipPathUnits="userSpaceOnUse"
       id="clipPath1479"><path
         d="M 1.4305e-5,0 H 960.00001 V 540 H 1.4305e-5 Z"
         clip-rule="evenodd"
         id="path1477" /></clipPath><clipPath
       clipPathUnits="userSpaceOnUse"
       id="clipPath1491"><path
         d="M 1.4305e-5,0 H 960.00001 V 540 H 1.4305e-5 Z"
         clip-rule="evenodd"
         id="path1489" /></clipPath><clipPath
       clipPathUnits="userSpaceOnUse"
       id="clipPath1517"><path
         d="M 1.4305e-5,0 H 960.00001 V 540 H 1.4305e-5 Z"
         clip-rule="evenodd"
         id="path1515" /></clipPath><clipPath
       clipPathUnits="userSpaceOnUse"
       id="clipPath1529"><path
         d="M 1.4305e-5,0 H 960.00001 V 540 H 1.4305e-5 Z"
         clip-rule="evenodd"
         id="path1527" /></clipPath><clipPath
       clipPathUnits="userSpaceOnUse"
       id="clipPath1545"><path
         d="M 1.4305e-5,0 H 960.00001 V 540 H 1.4305e-5 Z"
         clip-rule="evenodd"
         id="path1543" /></clipPath><clipPath
       clipPathUnits="userSpaceOnUse"
       id="clipPath1557"><path
         d="M 1.4305e-5,0 H 960.00001 V 540 H 1.4305e-5 Z"
         clip-rule="evenodd"
         id="path1555" /></clipPath><clipPath
       clipPathUnits="userSpaceOnUse"
       id="clipPath1573"><path
         d="M 1.4305e-5,0 H 960.00001 V 540 H 1.4305e-5 Z"
         clip-rule="evenodd"
         id="path1571" /></clipPath><clipPath
       clipPathUnits="userSpaceOnUse"
       id="clipPath1585"><path
         d="M 1.4305e-5,0 H 960.00001 V 540 H 1.4305e-5 Z"
         clip-rule="evenodd"
         id="path1583" /></clipPath><clipPath
       clipPathUnits="userSpaceOnUse"
       id="clipPath1609"><path
         d="M 1.4305e-5,0 H 960.00001 V 540 H 1.4305e-5 Z"
         clip-rule="evenodd"
         id="path1607" /></clipPath><clipPath
       clipPathUnits="userSpaceOnUse"
       id="clipPath1621"><path
         d="M 1.4305e-5,0 H 960.00001 V 540 H 1.4305e-5 Z"
         clip-rule="evenodd"
         id="path1619" /></clipPath><clipPath
       clipPathUnits="userSpaceOnUse"
       id="clipPath1637"><path
         d="M 1.4305e-5,0 H 960.00001 V 540 H 1.4305e-5 Z"
         clip-rule="evenodd"
         id="path1635" /></clipPath><clipPath
       clipPathUnits="userSpaceOnUse"
       id="clipPath1649"><path
         d="M 1.4305e-5,0 H 960.00001 V 540 H 1.4305e-5 Z"
         clip-rule="evenodd"
         id="path1647" /></clipPath><clipPath
       clipPathUnits="userSpaceOnUse"
       id="clipPath1665"><path
         d="M 1.4305e-5,0 H 960.00001 V 540 H 1.4305e-5 Z"
         clip-rule="evenodd"
         id="path1663" /></clipPath><clipPath
       clipPathUnits="userSpaceOnUse"
       id="clipPath1677"><path
         d="M 1.4305e-5,0 H 960.00001 V 540 H 1.4305e-5 Z"
         clip-rule="evenodd"
         id="path1675" /></clipPath></defs><sodipodi:namedview
     id="namedview1253"
     pagecolor="#ffffff"
     bordercolor="#cccccc"
     borderopacity="1"
     inkscape:pageshadow="0"
     inkscape:pageopacity="1"
     inkscape:pagecheckerboard="0"
     showgrid="false"
     fit-margin-top="0"
     fit-margin-left="0"
     fit-margin-right="0"
     fit-margin-bottom="0"
     inkscape:zoom="0.95859375"
     inkscape:cx="402.67319"
     inkscape:cy="226.37327"
     inkscape:window-width="1792"
     inkscape:window-height="1092"
     inkscape:window-x="0"
     inkscape:window-y="28"
     inkscape:window-maximized="0"
     inkscape:current-layer="g1257" /><g
     id="g1257"
     inkscape:groupmode="layer"
     inkscape:label="编译优化-pass结构"
     transform="matrix(1.3333333,0,0,-1.3333333,-43.999999,636.26665)"><g
       id="g1259"><g
         id="g1261"
         clip-path="url(#clipPath1265)" /></g><path
       d="m 134.6,466.07 c 0,5.81 4.72,10.53 10.53,10.53 h 42.14 c 5.81,0 10.53,-4.72 10.53,-10.53 V 311.13 c 0,-5.81 -4.72,-10.53 -10.53,-10.53 h -42.14 c -5.81,0 -10.53,4.72 -10.53,10.53 z"
       style="fill:#f8cbad;fill-opacity:1;fill-rule:evenodd;stroke:none"
       id="path1269" /><path
       d="m 134.6,466.07 c 0,5.81 4.72,10.53 10.53,10.53 h 42.14 c 5.81,0 10.53,-4.72 10.53,-10.53 V 311.13 c 0,-5.81 -4.72,-10.53 -10.53,-10.53 h -42.14 c -5.81,0 -10.53,4.72 -10.53,10.53 z"
       style="fill:none;stroke:#000000;stroke-width:1.2;stroke-linecap:butt;stroke-linejoin:miter;stroke-miterlimit:10;stroke-dasharray:none;stroke-opacity:1"
       id="path1271" /><g
       id="g1273"><g
         id="g1275"
         clip-path="url(#clipPath1279)"><text
           transform="matrix(1,0,0,-1,149.95,393.5)"
           style="font-variant:normal;font-weight:normal;font-size:18.025px;font-family:Calibri;-inkscape-font-specification:Calibri;writing-mode:lr-tb;fill:#000000;fill-opacity:1;fill-rule:nonzero;stroke:none"
           id="text1283"><tspan
             x="0 8.7961998 17.574375 24.748325 31.922276"
             y="0"
             sodipodi:role="line"
             id="tspan1281">Pass </tspan></text></g></g><g
       id="g1285"><g
         id="g1287"
         clip-path="url(#clipPath1291)"><text
           transform="matrix(1,0,0,-1,160.75,371.88)"
           style="font-variant:normal;font-weight:normal;font-size:18.025px;font-family:Calibri;-inkscape-font-specification:Calibri;writing-mode:lr-tb;fill:#000000;fill-opacity:1;fill-rule:nonzero;stroke:none"
           id="text1295"><tspan
             x="0"
             y="0"
             id="tspan1293">A</tspan></text></g></g><path
       d="m 318.6,466.07 c 0,5.81 4.72,10.53 10.53,10.53 h 42.14 c 5.81,0 10.53,-4.72 10.53,-10.53 V 311.13 c 0,-5.81 -4.72,-10.53 -10.53,-10.53 h -42.14 c -5.81,0 -10.53,4.72 -10.53,10.53 z"
       style="fill:#ffff00;fill-opacity:1;fill-rule:evenodd;stroke:none"
       id="path1297" /><path
       d="m 318.6,466.07 c 0,5.81 4.72,10.53 10.53,10.53 h 42.14 c 5.81,0 10.53,-4.72 10.53,-10.53 V 311.13 c 0,-5.81 -4.72,-10.53 -10.53,-10.53 h -42.14 c -5.81,0 -10.53,4.72 -10.53,10.53 z"
       style="fill:none;stroke:#000000;stroke-width:1.2;stroke-linecap:butt;stroke-linejoin:miter;stroke-miterlimit:10;stroke-dasharray:none;stroke-opacity:1"
       id="path1299" /><g
       id="g1301"><g
         id="g1303"
         clip-path="url(#clipPath1307)"><text
           transform="matrix(1,0,0,-1,334.15,393.5)"
           style="font-variant:normal;font-weight:normal;font-size:18.025px;font-family:Calibri;-inkscape-font-specification:Calibri;writing-mode:lr-tb;fill:#000000;fill-opacity:1;fill-rule:nonzero;stroke:none"
           id="text1311"><tspan
             x="0 8.7961998 17.574375 24.748325 31.922276"
             y="0"
             sodipodi:role="line"
             id="tspan1309">Pass </tspan></text></g></g><g
       id="g1313"><g
         id="g1315"
         clip-path="url(#clipPath1319)"><text
           transform="matrix(1,0,0,-1,345.35,371.88)"
           style="font-variant:normal;font-weight:normal;font-size:18.025px;font-family:Calibri;-inkscape-font-specification:Calibri;writing-mode:lr-tb;fill:#000000;fill-opacity:1;fill-rule:nonzero;stroke:none"
           id="text1323"><tspan
             x="0"
             y="0"
             id="tspan1321">B</tspan></text></g></g><path
       d="m 503,466.13 c 0,5.78 4.69,10.47 10.47,10.47 h 41.86 c 5.78,0 10.47,-4.69 10.47,-10.47 V 311.07 c 0,-5.78 -4.69,-10.47 -10.47,-10.47 h -41.86 c -5.78,0 -10.47,4.69 -10.47,10.47 z"
       style="fill:#9dc3e6;fill-opacity:1;fill-rule:evenodd;stroke:none"
       id="path1325" /><path
       d="m 503,466.13 c 0,5.78 4.69,10.47 10.47,10.47 h 41.86 c 5.78,0 10.47,-4.69 10.47,-10.47 V 311.07 c 0,-5.78 -4.69,-10.47 -10.47,-10.47 h -41.86 c -5.78,0 -10.47,4.69 -10.47,10.47 z"
       style="fill:none;stroke:#000000;stroke-width:1.2;stroke-linecap:butt;stroke-linejoin:miter;stroke-miterlimit:10;stroke-dasharray:none;stroke-opacity:1"
       id="path1327" /><g
       id="g1329"><g
         id="g1331"
         clip-path="url(#clipPath1335)"><text
           transform="matrix(1,0,0,-1,518.35,393.5)"
           style="font-variant:normal;font-weight:normal;font-size:18.025px;font-family:Calibri;-inkscape-font-specification:Calibri;writing-mode:lr-tb;fill:#000000;fill-opacity:1;fill-rule:nonzero;stroke:none"
           id="text1339"><tspan
             x="0 8.7961998 17.574375 24.748325 31.922276"
             y="0"
             sodipodi:role="line"
             id="tspan1337">Pass </tspan></text></g></g><g
       id="g1341"><g
         id="g1343"
         clip-path="url(#clipPath1347)"><text
           transform="matrix(1,0,0,-1,529.55,371.88)"
           style="font-variant:normal;font-weight:normal;font-size:18.025px;font-family:Calibri;-inkscape-font-specification:Calibri;writing-mode:lr-tb;fill:#000000;fill-opacity:1;fill-rule:nonzero;stroke:none"
           id="text1351"><tspan
             x="0"
             y="0"
             id="tspan1349">C</tspan></text></g></g><path
       d="m 197.8,388.1 h 116.03 v 1 H 197.8 Z m 115.03,-2.5 6,3 -6,3 z"
       style="fill:#000000;fill-opacity:1;fill-rule:nonzero;stroke:none"
       id="path1353" /><path
       d="m 381.8,389.1 h 116.03 v -1 H 381.8 Z m 115.03,2.5 6,-3 -6,-3 z"
       style="fill:#000000;fill-opacity:1;fill-rule:nonzero;stroke:none"
       id="path1355" /><path
       d="m 33,389.1 h 96.49 v -1 H 33 Z m 95.49,2.5 6,-3 -6,-3 z"
       style="fill:#000000;fill-opacity:1;fill-rule:nonzero;stroke:none"
       id="path1357" /><path
       d="m 565.8,389.1 h 96.49 v -1 H 565.8 Z m 95.49,2.5 6,-3 -6,-3 z"
       style="fill:#000000;fill-opacity:1;fill-rule:nonzero;stroke:none"
       id="path1359" /><g
       id="g1361"><g
         id="g1363"
         clip-path="url(#clipPath1367)"><text
           transform="matrix(1,0,0,-1,69.225,397.38)"
           style="font-variant:normal;font-weight:normal;font-size:18.025px;font-family:Calibri;-inkscape-font-specification:Calibri;writing-mode:lr-tb;fill:#000000;fill-opacity:1;fill-rule:nonzero;stroke:none"
           id="text1371"><tspan
             x="0 4.4003"
             y="0"
             sodipodi:role="line"
             id="tspan1369">IR</tspan></text></g></g><g
       id="g1373"><g
         id="g1375"
         clip-path="url(#clipPath1379)"><text
           transform="matrix(1,0,0,-1,250.85,397.38)"
           style="font-variant:normal;font-weight:normal;font-size:18.025px;font-family:Calibri;-inkscape-font-specification:Calibri;writing-mode:lr-tb;fill:#000000;fill-opacity:1;fill-rule:nonzero;stroke:none"
           id="text1383"><tspan
             x="0 4.4003"
             y="0"
             sodipodi:role="line"
             id="tspan1381">IR</tspan></text></g></g><g
       id="g1385"><g
         id="g1387"
         clip-path="url(#clipPath1391)"><text
           transform="matrix(1,0,0,-1,435.03,397.38)"
           style="font-variant:normal;font-weight:normal;font-size:18.025px;font-family:Calibri;-inkscape-font-specification:Calibri;writing-mode:lr-tb;fill:#000000;fill-opacity:1;fill-rule:nonzero;stroke:none"
           id="text1395"><tspan
             x="0 4.4003"
             y="0"
             sodipodi:role="line"
             id="tspan1393">IR</tspan></text></g></g><g
       id="g1397"><g
         id="g1399"
         clip-path="url(#clipPath1403)"><text
           transform="matrix(1,0,0,-1,602.17,397.38)"
           style="font-variant:normal;font-weight:normal;font-size:18.025px;font-family:Calibri;-inkscape-font-specification:Calibri;writing-mode:lr-tb;fill:#000000;fill-opacity:1;fill-rule:nonzero;stroke:none"
           id="text1407"><tspan
             x="0 4.4003"
             y="0"
             sodipodi:role="line"
             id="tspan1405">IR</tspan></text></g></g><path
       d="m 515.4,252.8 h 9.5 v 30.6 h 19 v -30.6 h 9.5 l -19,-19 z"
       style="fill:#9dc3e6;fill-opacity:1;fill-rule:evenodd;stroke:none"
       id="path1409" /><path
       d="m 515.4,252.8 h 9.5 v 30.6 h 19 v -30.6 h 9.5 l -19,-19 z"
       style="fill:none;stroke:#000000;stroke-width:1.2;stroke-linecap:butt;stroke-linejoin:miter;stroke-miterlimit:10;stroke-dasharray:none;stroke-opacity:1"
       id="path1411" /><path
       d="m 460.6,212.13 c 0,2.69 2.18,4.87 4.87,4.87 h 19.46 c 2.69,0 4.87,-2.18 4.87,-4.87 v -69.86 c 0,-2.69 -2.18,-4.87 -4.87,-4.87 h -19.46 c -2.69,0 -4.87,2.18 -4.87,4.87 z"
       style="fill:#9dc3e6;fill-opacity:1;fill-rule:evenodd;stroke:none"
       id="path1413" /><path
       d="m 460.6,212.13 c 0,2.69 2.18,4.87 4.87,4.87 h 19.46 c 2.69,0 4.87,-2.18 4.87,-4.87 v -69.86 c 0,-2.69 -2.18,-4.87 -4.87,-4.87 h -19.46 c -2.69,0 -4.87,2.18 -4.87,4.87 z"
       style="fill:none;stroke:#000000;stroke-width:1.2;stroke-linecap:butt;stroke-linejoin:miter;stroke-miterlimit:10;stroke-dasharray:none;stroke-opacity:1"
       id="path1415" /><g
       id="g1417"><g
         id="g1419"
         clip-path="url(#clipPath1423)"><text
           transform="matrix(1,0,0,-1,470.5,181.78)"
           style="font-variant:normal;font-weight:normal;font-size:18px;font-family:Calibri;-inkscape-font-specification:Calibri;writing-mode:lr-tb;fill:#000000;fill-opacity:1;fill-rule:nonzero;stroke:none"
           id="text1427"><tspan
             x="0"
             y="0"
             id="tspan1425">C</tspan></text></g></g><g
       id="g1429"><g
         id="g1431"
         clip-path="url(#clipPath1435)"><text
           transform="matrix(1,0,0,-1,470.5,160.17)"
           style="font-variant:normal;font-weight:normal;font-size:18.025px;font-family:Calibri;-inkscape-font-specification:Calibri;writing-mode:lr-tb;fill:#000000;fill-opacity:1;fill-rule:nonzero;stroke:none"
           id="text1439"><tspan
             x="0"
             y="0"
             id="tspan1437">1</tspan></text></g></g><path
       d="m 523,212.13 c 0,2.69 2.18,4.87 4.87,4.87 h 19.46 c 2.69,0 4.87,-2.18 4.87,-4.87 v -69.86 c 0,-2.69 -2.18,-4.87 -4.87,-4.87 h -19.46 c -2.69,0 -4.87,2.18 -4.87,4.87 z"
       style="fill:#9dc3e6;fill-opacity:1;fill-rule:evenodd;stroke:none"
       id="path1441" /><path
       d="m 523,212.13 c 0,2.69 2.18,4.87 4.87,4.87 h 19.46 c 2.69,0 4.87,-2.18 4.87,-4.87 v -69.86 c 0,-2.69 -2.18,-4.87 -4.87,-4.87 h -19.46 c -2.69,0 -4.87,2.18 -4.87,4.87 z"
       style="fill:none;stroke:#000000;stroke-width:1.2;stroke-linecap:butt;stroke-linejoin:miter;stroke-miterlimit:10;stroke-dasharray:none;stroke-opacity:1"
       id="path1443" /><g
       id="g1445"><g
         id="g1447"
         clip-path="url(#clipPath1451)"><text
           transform="matrix(1,0,0,-1,532.72,181.78)"
           style="font-variant:normal;font-weight:normal;font-size:18px;font-family:Calibri;-inkscape-font-specification:Calibri;writing-mode:lr-tb;fill:#000000;fill-opacity:1;fill-rule:nonzero;stroke:none"
           id="text1455"><tspan
             x="0"
             y="0"
             id="tspan1453">C</tspan></text></g></g><g
       id="g1457"><g
         id="g1459"
         clip-path="url(#clipPath1463)"><text
           transform="matrix(1,0,0,-1,532.72,160.17)"
           style="font-variant:normal;font-weight:normal;font-size:18.025px;font-family:Calibri;-inkscape-font-specification:Calibri;writing-mode:lr-tb;fill:#000000;fill-opacity:1;fill-rule:nonzero;stroke:none"
           id="text1467"><tspan
             x="0"
             y="0"
             id="tspan1465">2</tspan></text></g></g><path
       d="m 584.6,212.13 c 0,2.69 2.18,4.87 4.87,4.87 h 19.46 c 2.69,0 4.87,-2.18 4.87,-4.87 v -69.86 c 0,-2.69 -2.18,-4.87 -4.87,-4.87 h -19.46 c -2.69,0 -4.87,2.18 -4.87,4.87 z"
       style="fill:#9dc3e6;fill-opacity:1;fill-rule:evenodd;stroke:none"
       id="path1469" /><path
       d="m 584.6,212.13 c 0,2.69 2.18,4.87 4.87,4.87 h 19.46 c 2.69,0 4.87,-2.18 4.87,-4.87 v -69.86 c 0,-2.69 -2.18,-4.87 -4.87,-4.87 h -19.46 c -2.69,0 -4.87,2.18 -4.87,4.87 z"
       style="fill:none;stroke:#000000;stroke-width:1.2;stroke-linecap:butt;stroke-linejoin:miter;stroke-miterlimit:10;stroke-dasharray:none;stroke-opacity:1"
       id="path1471" /><g
       id="g1473"><g
         id="g1475"
         clip-path="url(#clipPath1479)"><text
           transform="matrix(1,0,0,-1,594.63,181.78)"
           style="font-variant:normal;font-weight:normal;font-size:18px;font-family:Calibri;-inkscape-font-specification:Calibri;writing-mode:lr-tb;fill:#000000;fill-opacity:1;fill-rule:nonzero;stroke:none"
           id="text1483"><tspan
             x="0"
             y="0"
             id="tspan1481">C</tspan></text></g></g><g
       id="g1485"><g
         id="g1487"
         clip-path="url(#clipPath1491)"><text
           transform="matrix(1,0,0,-1,594.63,160.17)"
           style="font-variant:normal;font-weight:normal;font-size:18.025px;font-family:Calibri;-inkscape-font-specification:Calibri;writing-mode:lr-tb;fill:#000000;fill-opacity:1;fill-rule:nonzero;stroke:none"
           id="text1495"><tspan
             x="0"
             y="0"
             id="tspan1493">3</tspan></text></g></g><path
       d="m 489.8,177.5 h 28 v -1 h -28 z m 27,2.5 6,-3 -6,-3 z"
       style="fill:#000000;fill-opacity:1;fill-rule:nonzero;stroke:none"
       id="path1497" /><path
       d="m 552.2,176.5 h 27.72 v 1 H 552.2 Z m 26.72,-2.5 6,3 -6,3 z"
       style="fill:#000000;fill-opacity:1;fill-rule:nonzero;stroke:none"
       id="path1499" /><path
       d="m 613.8,177.5 h 18.14 v -1 H 613.8 Z m 17.14,2.5 6,-3 -6,-3 z"
       style="fill:#000000;fill-opacity:1;fill-rule:nonzero;stroke:none"
       id="path1501" /><path
       d="m 331.4,252.8 h 9.5 v 30.6 h 19 v -30.6 h 9.5 l -19,-19 z"
       style="fill:#ffff00;fill-opacity:1;fill-rule:evenodd;stroke:none"
       id="path1503" /><path
       d="m 331.4,252.8 h 9.5 v 30.6 h 19 v -30.6 h 9.5 l -19,-19 z"
       style="fill:none;stroke:#000000;stroke-width:1.2;stroke-linecap:butt;stroke-linejoin:miter;stroke-miterlimit:10;stroke-dasharray:none;stroke-opacity:1"
       id="path1505" /><path
       d="m 273.8,212.13 c 0,2.69 2.18,4.87 4.87,4.87 h 19.46 c 2.69,0 4.87,-2.18 4.87,-4.87 v -69.86 c 0,-2.69 -2.18,-4.87 -4.87,-4.87 h -19.46 c -2.69,0 -4.87,2.18 -4.87,4.87 z"
       style="fill:#ffff00;fill-opacity:1;fill-rule:evenodd;stroke:none"
       id="path1507" /><path
       d="m 273.8,212.13 c 0,2.69 2.18,4.87 4.87,4.87 h 19.46 c 2.69,0 4.87,-2.18 4.87,-4.87 v -69.86 c 0,-2.69 -2.18,-4.87 -4.87,-4.87 h -19.46 c -2.69,0 -4.87,2.18 -4.87,4.87 z"
       style="fill:none;stroke:#000000;stroke-width:1.2;stroke-linecap:butt;stroke-linejoin:miter;stroke-miterlimit:10;stroke-dasharray:none;stroke-opacity:1"
       id="path1509" /><g
       id="g1511"><g
         id="g1513"
         clip-path="url(#clipPath1517)"><text
           transform="matrix(1,0,0,-1,283.6,181.78)"
           style="font-variant:normal;font-weight:normal;font-size:18px;font-family:Calibri;-inkscape-font-specification:Calibri;writing-mode:lr-tb;fill:#000000;fill-opacity:1;fill-rule:nonzero;stroke:none"
           id="text1521"><tspan
             x="0"
             y="0"
             id="tspan1519">B</tspan></text></g></g><g
       id="g1523"><g
         id="g1525"
         clip-path="url(#clipPath1529)"><text
           transform="matrix(1,0,0,-1,283.6,160.17)"
           style="font-variant:normal;font-weight:normal;font-size:18.025px;font-family:Calibri;-inkscape-font-specification:Calibri;writing-mode:lr-tb;fill:#000000;fill-opacity:1;fill-rule:nonzero;stroke:none"
           id="text1533"><tspan
             x="0"
             y="0"
             id="tspan1531">1</tspan></text></g></g><path
       d="m 335.8,212.13 c 0,2.69 2.18,4.87 4.87,4.87 h 19.46 c 2.69,0 4.87,-2.18 4.87,-4.87 v -69.86 c 0,-2.69 -2.18,-4.87 -4.87,-4.87 h -19.46 c -2.69,0 -4.87,2.18 -4.87,4.87 z"
       style="fill:#ffff00;fill-opacity:1;fill-rule:evenodd;stroke:none"
       id="path1535" /><path
       d="m 335.8,212.13 c 0,2.69 2.18,4.87 4.87,4.87 h 19.46 c 2.69,0 4.87,-2.18 4.87,-4.87 v -69.86 c 0,-2.69 -2.18,-4.87 -4.87,-4.87 h -19.46 c -2.69,0 -4.87,2.18 -4.87,4.87 z"
       style="fill:none;stroke:#000000;stroke-width:1.2;stroke-linecap:butt;stroke-linejoin:miter;stroke-miterlimit:10;stroke-dasharray:none;stroke-opacity:1"
       id="path1537" /><g
       id="g1539"><g
         id="g1541"
         clip-path="url(#clipPath1545)"><text
           transform="matrix(1,0,0,-1,345.67,181.78)"
           style="font-variant:normal;font-weight:normal;font-size:18px;font-family:Calibri;-inkscape-font-specification:Calibri;writing-mode:lr-tb;fill:#000000;fill-opacity:1;fill-rule:nonzero;stroke:none"
           id="text1549"><tspan
             x="0"
             y="0"
             id="tspan1547">B</tspan></text></g></g><g
       id="g1551"><g
         id="g1553"
         clip-path="url(#clipPath1557)"><text
           transform="matrix(1,0,0,-1,345.67,160.17)"
           style="font-variant:normal;font-weight:normal;font-size:18.025px;font-family:Calibri;-inkscape-font-specification:Calibri;writing-mode:lr-tb;fill:#000000;fill-opacity:1;fill-rule:nonzero;stroke:none"
           id="text1561"><tspan
             x="0"
             y="0"
             id="tspan1559">2</tspan></text></g></g><path
       d="m 397.8,212.13 c 0,2.69 2.18,4.87 4.87,4.87 h 19.46 c 2.69,0 4.87,-2.18 4.87,-4.87 v -69.86 c 0,-2.69 -2.18,-4.87 -4.87,-4.87 h -19.46 c -2.69,0 -4.87,2.18 -4.87,4.87 z"
       style="fill:#ffff00;fill-opacity:1;fill-rule:evenodd;stroke:none"
       id="path1563" /><path
       d="m 397.8,212.13 c 0,2.69 2.18,4.87 4.87,4.87 h 19.46 c 2.69,0 4.87,-2.18 4.87,-4.87 v -69.86 c 0,-2.69 -2.18,-4.87 -4.87,-4.87 h -19.46 c -2.69,0 -4.87,2.18 -4.87,4.87 z"
       style="fill:none;stroke:#000000;stroke-width:1.2;stroke-linecap:butt;stroke-linejoin:miter;stroke-miterlimit:10;stroke-dasharray:none;stroke-opacity:1"
       id="path1565" /><g
       id="g1567"><g
         id="g1569"
         clip-path="url(#clipPath1573)"><text
           transform="matrix(1,0,0,-1,407.72,181.78)"
           style="font-variant:normal;font-weight:normal;font-size:18px;font-family:Calibri;-inkscape-font-specification:Calibri;writing-mode:lr-tb;fill:#000000;fill-opacity:1;fill-rule:nonzero;stroke:none"
           id="text1577"><tspan
             x="0"
             y="0"
             id="tspan1575">B</tspan></text></g></g><g
       id="g1579"><g
         id="g1581"
         clip-path="url(#clipPath1585)"><text
           transform="matrix(1,0,0,-1,407.72,160.17)"
           style="font-variant:normal;font-weight:normal;font-size:18.025px;font-family:Calibri;-inkscape-font-specification:Calibri;writing-mode:lr-tb;fill:#000000;fill-opacity:1;fill-rule:nonzero;stroke:none"
           id="text1589"><tspan
             x="0"
             y="0"
             id="tspan1587">3</tspan></text></g></g><path
       d="m 303,177.5 h 27.86 v -1 H 303 Z m 26.86,2.5 6,-3 -6,-3 z"
       style="fill:#000000;fill-opacity:1;fill-rule:nonzero;stroke:none"
       id="path1591" /><path
       d="m 365,176.5 h 27.86 v 1 H 365 Z m 26.86,-2.5 6,3 -6,3 z"
       style="fill:#000000;fill-opacity:1;fill-rule:nonzero;stroke:none"
       id="path1593" /><path
       d="m 147,253 h 9.6 v 30.4 h 19.2 V 253 h 9.6 l -19.2,-19.2 z"
       style="fill:#f8cbad;fill-opacity:1;fill-rule:evenodd;stroke:none"
       id="path1595" /><path
       d="m 147,253 h 9.6 v 30.4 h 19.2 V 253 h 9.6 l -19.2,-19.2 z"
       style="fill:none;stroke:#000000;stroke-width:1.2;stroke-linecap:butt;stroke-linejoin:miter;stroke-miterlimit:10;stroke-dasharray:none;stroke-opacity:1"
       id="path1597" /><path
       d="m 89.4,212.13 c 0,2.69 2.179,4.87 4.867,4.87 h 19.463 c 2.69,0 4.87,-2.18 4.87,-4.87 v -69.86 c 0,-2.69 -2.18,-4.87 -4.87,-4.87 H 94.267 c -2.688,0 -4.867,2.18 -4.867,4.87 z"
       style="fill:#f8cbad;fill-opacity:1;fill-rule:evenodd;stroke:none"
       id="path1599" /><path
       d="m 89.4,212.13 c 0,2.69 2.179,4.87 4.867,4.87 h 19.463 c 2.69,0 4.87,-2.18 4.87,-4.87 v -69.86 c 0,-2.69 -2.18,-4.87 -4.87,-4.87 H 94.267 c -2.688,0 -4.867,2.18 -4.867,4.87 z"
       style="fill:none;stroke:#000000;stroke-width:1.2;stroke-linecap:butt;stroke-linejoin:miter;stroke-miterlimit:10;stroke-dasharray:none;stroke-opacity:1"
       id="path1601" /><g
       id="g1603"><g
         id="g1605"
         clip-path="url(#clipPath1609)"><text
           transform="matrix(1,0,0,-1,98.875,181.78)"
           style="font-variant:normal;font-weight:normal;font-size:18px;font-family:Calibri;-inkscape-font-specification:Calibri;writing-mode:lr-tb;fill:#000000;fill-opacity:1;fill-rule:nonzero;stroke:none"
           id="text1613"><tspan
             x="0"
             y="0"
             id="tspan1611">A</tspan></text></g></g><g
       id="g1615"><g
         id="g1617"
         clip-path="url(#clipPath1621)"><text
           transform="matrix(1,0,0,-1,99.275,160.17)"
           style="font-variant:normal;font-weight:normal;font-size:18.025px;font-family:Calibri;-inkscape-font-specification:Calibri;writing-mode:lr-tb;fill:#000000;fill-opacity:1;fill-rule:nonzero;stroke:none"
           id="text1625"><tspan
             x="0"
             y="0"
             id="tspan1623">1</tspan></text></g></g><path
       d="m 151,212.13 c 0,2.69 2.18,4.87 4.87,4.87 h 19.46 c 2.69,0 4.87,-2.18 4.87,-4.87 v -69.86 c 0,-2.69 -2.18,-4.87 -4.87,-4.87 h -19.46 c -2.69,0 -4.87,2.18 -4.87,4.87 z"
       style="fill:#f8cbad;fill-opacity:1;fill-rule:evenodd;stroke:none"
       id="path1627" /><path
       d="m 151,212.13 c 0,2.69 2.18,4.87 4.87,4.87 h 19.46 c 2.69,0 4.87,-2.18 4.87,-4.87 v -69.86 c 0,-2.69 -2.18,-4.87 -4.87,-4.87 h -19.46 c -2.69,0 -4.87,2.18 -4.87,4.87 z"
       style="fill:none;stroke:#000000;stroke-width:1.2;stroke-linecap:butt;stroke-linejoin:miter;stroke-miterlimit:10;stroke-dasharray:none;stroke-opacity:1"
       id="path1629" /><g
       id="g1631"><g
         id="g1633"
         clip-path="url(#clipPath1637)"><text
           transform="matrix(1,0,0,-1,160.47,181.78)"
           style="font-variant:normal;font-weight:normal;font-size:18px;font-family:Calibri;-inkscape-font-specification:Calibri;writing-mode:lr-tb;fill:#000000;fill-opacity:1;fill-rule:nonzero;stroke:none"
           id="text1641"><tspan
             x="0"
             y="0"
             id="tspan1639">A</tspan></text></g></g><g
       id="g1643"><g
         id="g1645"
         clip-path="url(#clipPath1649)"><text
           transform="matrix(1,0,0,-1,160.88,160.17)"
           style="font-variant:normal;font-weight:normal;font-size:18.025px;font-family:Calibri;-inkscape-font-specification:Calibri;writing-mode:lr-tb;fill:#000000;fill-opacity:1;fill-rule:nonzero;stroke:none"
           id="text1653"><tspan
             x="0"
             y="0"
             id="tspan1651">2</tspan></text></g></g><path
       d="m 212.6,212.13 c 0,2.69 2.18,4.87 4.87,4.87 h 19.46 c 2.69,0 4.87,-2.18 4.87,-4.87 v -69.86 c 0,-2.69 -2.18,-4.87 -4.87,-4.87 h -19.46 c -2.69,0 -4.87,2.18 -4.87,4.87 z"
       style="fill:#f8cbad;fill-opacity:1;fill-rule:evenodd;stroke:none"
       id="path1655" /><path
       d="m 212.6,212.13 c 0,2.69 2.18,4.87 4.87,4.87 h 19.46 c 2.69,0 4.87,-2.18 4.87,-4.87 v -69.86 c 0,-2.69 -2.18,-4.87 -4.87,-4.87 h -19.46 c -2.69,0 -4.87,2.18 -4.87,4.87 z"
       style="fill:none;stroke:#000000;stroke-width:1.2;stroke-linecap:butt;stroke-linejoin:miter;stroke-miterlimit:10;stroke-dasharray:none;stroke-opacity:1"
       id="path1657" /><g
       id="g1659"><g
         id="g1661"
         clip-path="url(#clipPath1665)"><text
           transform="matrix(1,0,0,-1,222.08,181.78)"
           style="font-variant:normal;font-weight:normal;font-size:18px;font-family:Calibri;-inkscape-font-specification:Calibri;writing-mode:lr-tb;fill:#000000;fill-opacity:1;fill-rule:nonzero;stroke:none"
           id="text1669"><tspan
             x="0"
             y="0"
             id="tspan1667">A</tspan></text></g></g><g
       id="g1671"><g
         id="g1673"
         clip-path="url(#clipPath1677)"><text
           transform="matrix(1,0,0,-1,222.48,160.17)"
           style="font-variant:normal;font-weight:normal;font-size:18.025px;font-family:Calibri;-inkscape-font-specification:Calibri;writing-mode:lr-tb;fill:#000000;fill-opacity:1;fill-rule:nonzero;stroke:none"
           id="text1681"><tspan
             x="0"
             y="0"
             id="tspan1679">3</tspan></text></g></g><path
       d="M 118.6,177.5 H 146 v -1 h -27.4 z m 26.4,2.5 6,-3 -6,-3 z"
       style="fill:#000000;fill-opacity:1;fill-rule:nonzero;stroke:none"
       id="path1683" /><path
       d="m 180.2,177.5 h 27.4 v -1 h -27.4 z m 26.4,2.5 6,-3 -6,-3 z"
       style="fill:#000000;fill-opacity:1;fill-rule:nonzero;stroke:none"
       id="path1685" /><path
       d="m 66.6,177.5 h 18.137 v -1 H 66.6 Z m 17.137,2.5 6,-3 -6,-3 z"
       style="fill:#000000;fill-opacity:1;fill-rule:nonzero;stroke:none"
       id="path1687" /><path
       d="m 241.8,176.5 h 26.93 v 1 H 241.8 Z m 25.93,-2.5 6,3 -6,3 z"
       style="fill:#000000;fill-opacity:1;fill-rule:nonzero;stroke:none"
       id="path1689" /><path
       d="m 427,176.5 h 28.59 v 1 H 427 Z m 27.59,-2.5 6,3 -6,3 z"
       style="fill:#000000;fill-opacity:1;fill-rule:nonzero;stroke:none"
       id="path1691" /></g></svg>
