<?xml version="1.0" encoding="UTF-8" standalone="no"?>
<!-- Created with Inkscape (http://www.inkscape.org/) -->

<svg
   version="1.1"
   id="svg25"
   xml:space="preserve"
   width="972.79999"
   height="243.2"
   viewBox="0 0 972.79999 243.2"
   xmlns="http://www.w3.org/2000/svg"
   xmlns:svg="http://www.w3.org/2000/svg"><defs
     id="defs29"><clipPath
       clipPathUnits="userSpaceOnUse"
       id="clipPath39"><path
         d="M 0,1.2207e-4 H 960 V 540.00012 H 0 Z"
         clip-rule="evenodd"
         id="path37" /></clipPath><clipPath
       clipPathUnits="userSpaceOnUse"
       id="clipPath53"><path
         d="M 1.4305e-5,0 H 960.00001 V 540 H 1.4305e-5 Z"
         clip-rule="evenodd"
         id="path51" /></clipPath><clipPath
       clipPathUnits="userSpaceOnUse"
       id="clipPath65"><path
         d="M 1.4305e-5,0 H 960.00001 V 540 H 1.4305e-5 Z"
         clip-rule="evenodd"
         id="path63" /></clipPath><clipPath
       clipPathUnits="userSpaceOnUse"
       id="clipPath85"><path
         d="M 1.4305e-5,0 H 960.00001 V 540 H 1.4305e-5 Z"
         clip-rule="evenodd"
         id="path83" /></clipPath><clipPath
       clipPathUnits="userSpaceOnUse"
       id="clipPath97"><path
         d="M 1.4305e-5,0 H 960.00001 V 540 H 1.4305e-5 Z"
         clip-rule="evenodd"
         id="path95" /></clipPath><clipPath
       clipPathUnits="userSpaceOnUse"
       id="clipPath113"><path
         d="M 1.4305e-5,0 H 960.00001 V 540 H 1.4305e-5 Z"
         clip-rule="evenodd"
         id="path111" /></clipPath><clipPath
       clipPathUnits="userSpaceOnUse"
       id="clipPath125"><path
         d="M 1.4305e-5,0 H 960.00001 V 540 H 1.4305e-5 Z"
         clip-rule="evenodd"
         id="path123" /></clipPath><clipPath
       clipPathUnits="userSpaceOnUse"
       id="clipPath141"><path
         d="M 1.4305e-5,0 H 960.00001 V 540 H 1.4305e-5 Z"
         clip-rule="evenodd"
         id="path139" /></clipPath><clipPath
       clipPathUnits="userSpaceOnUse"
       id="clipPath153"><path
         d="M 1.4305e-5,0 H 960.00001 V 540 H 1.4305e-5 Z"
         clip-rule="evenodd"
         id="path151" /></clipPath></defs><g
     id="g31"
     transform="matrix(1.3333333,0,0,-1.3333333,-25.066666,641.06665)"><path
       d="m 19.4,452.87 c 0,15.09 12.238,27.33 27.334,27.33 H 156.07 c 15.09,0 27.33,-12.24 27.33,-27.33 V 326.33 C 183.4,311.24 171.16,299 156.07,299 H 46.734 C 31.638,299 19.4,311.24 19.4,326.33 Z"
       style="fill:#ffffff;fill-opacity:1;fill-rule:evenodd;stroke:none"
       id="path43" /><path
       d="m 19.4,452.87 c 0,15.09 12.238,27.33 27.334,27.33 H 156.07 c 15.09,0 27.33,-12.24 27.33,-27.33 V 326.33 C 183.4,311.24 171.16,299 156.07,299 H 46.734 C 31.638,299 19.4,311.24 19.4,326.33 Z"
       style="fill:none;stroke:#000000;stroke-width:1.2;stroke-linecap:butt;stroke-linejoin:miter;stroke-miterlimit:10;stroke-dasharray:none;stroke-opacity:1"
       id="path45" /><g
       id="g47"><g
         id="g49"
         clip-path="url(#clipPath53)"><text
           transform="matrix(1,0,0,-1,34.425,395.58)"
           style="font-variant:normal;font-weight:normal;font-size:24.025px;font-family:Consolas;-inkscape-font-specification:Consolas;writing-mode:lr-tb;fill:#000000;fill-opacity:1;fill-rule:nonzero;stroke:none"
           id="text57"><tspan
             x="0 13.19995 26.3999 39.59985 52.799801"
             y="0"
             id="tspan55">a = 2</tspan></text></g></g><g
       id="g59"><g
         id="g61"
         clip-path="url(#clipPath65)"><text
           transform="matrix(1,0,0,-1,34.425,366.75)"
           style="font-variant:normal;font-weight:normal;font-size:24.025px;font-family:Consolas;-inkscape-font-specification:Consolas;writing-mode:lr-tb;fill:#000000;fill-opacity:1;fill-rule:nonzero;stroke:none"
           id="text69"><tspan
             x="0 13.19995 26.3999 39.59985 52.799801 65.999748 79.199699 92.399651 105.5996"
             y="0"
             id="tspan67">b = a + 2</tspan></text></g></g><path
       d="m 205.4,400 h 52.8 v 10.6 l 21.2,-21.2 -21.2,-21.2 v 10.6 h -52.8 z"
       style="fill:#5b9bd5;fill-opacity:1;fill-rule:evenodd;stroke:none"
       id="path71" /><path
       d="m 205.4,400 h 52.8 v 10.6 l 21.2,-21.2 -21.2,-21.2 v 10.6 h -52.8 z"
       style="fill:none;stroke:#41719c;stroke-width:1.2;stroke-linecap:butt;stroke-linejoin:miter;stroke-miterlimit:10;stroke-dasharray:none;stroke-opacity:1"
       id="path73" /><path
       d="m 301.4,452.87 c 0,15.09 12.24,27.33 27.33,27.33 h 109.34 c 15.09,0 27.33,-12.24 27.33,-27.33 V 326.33 C 465.4,311.24 453.16,299 438.07,299 H 328.73 c -15.09,0 -27.33,12.24 -27.33,27.33 z"
       style="fill:#ffffff;fill-opacity:1;fill-rule:evenodd;stroke:none"
       id="path75" /><path
       d="m 301.4,452.87 c 0,15.09 12.24,27.33 27.33,27.33 h 109.34 c 15.09,0 27.33,-12.24 27.33,-27.33 V 326.33 C 465.4,311.24 453.16,299 438.07,299 H 328.73 c -15.09,0 -27.33,12.24 -27.33,27.33 z"
       style="fill:none;stroke:#000000;stroke-width:1.2;stroke-linecap:butt;stroke-linejoin:miter;stroke-miterlimit:10;stroke-dasharray:none;stroke-opacity:1"
       id="path77" /><g
       id="g79"><g
         id="g81"
         clip-path="url(#clipPath85)"><text
           transform="matrix(1,0,0,-1,316.7,395.58)"
           style="font-variant:normal;font-weight:normal;font-size:24.025px;font-family:Consolas;-inkscape-font-specification:Consolas;writing-mode:lr-tb;fill:#000000;fill-opacity:1;fill-rule:nonzero;stroke:none"
           id="text89"><tspan
             x="0 13.22495 26.4499 39.67485 52.899799"
             y="0"
             id="tspan87">a = 2</tspan></text></g></g><g
       id="g91"><g
         id="g93"
         clip-path="url(#clipPath97)"><text
           transform="matrix(1,0,0,-1,316.7,366.75)"
           style="font-variant:normal;font-weight:normal;font-size:24.025px;font-family:Consolas;-inkscape-font-specification:Consolas;writing-mode:lr-tb;fill:#000000;fill-opacity:1;fill-rule:nonzero;stroke:none"
           id="text101"><tspan
             x="0 13.22495 26.4499 39.67485 52.899799 66.124748 79.349701 92.574654 105.7996"
             y="0"
             id="tspan99">b = 2 + 2</tspan></text></g></g><path
       d="m 583.8,452.87 c 0,15.09 12.24,27.33 27.33,27.33 h 109.34 c 15.09,0 27.33,-12.24 27.33,-27.33 V 326.33 C 747.8,311.24 735.56,299 720.47,299 H 611.13 c -15.09,0 -27.33,12.24 -27.33,27.33 z"
       style="fill:#ffffff;fill-opacity:1;fill-rule:evenodd;stroke:none"
       id="path103" /><path
       d="m 583.8,452.87 c 0,15.09 12.24,27.33 27.33,27.33 h 109.34 c 15.09,0 27.33,-12.24 27.33,-27.33 V 326.33 C 747.8,311.24 735.56,299 720.47,299 H 611.13 c -15.09,0 -27.33,12.24 -27.33,27.33 z"
       style="fill:none;stroke:#000000;stroke-width:1.2;stroke-linecap:butt;stroke-linejoin:miter;stroke-miterlimit:10;stroke-dasharray:none;stroke-opacity:1"
       id="path105" /><g
       id="g107"><g
         id="g109"
         clip-path="url(#clipPath113)"><text
           transform="matrix(1,0,0,-1,599,395.58)"
           style="font-variant:normal;font-weight:normal;font-size:24.025px;font-family:Consolas;-inkscape-font-specification:Consolas;writing-mode:lr-tb;fill:#000000;fill-opacity:1;fill-rule:nonzero;stroke:none"
           id="text117"><tspan
             x="0 13.19995 26.3999 39.59985 52.799801"
             y="0"
             id="tspan115">a = 2</tspan></text></g></g><g
       id="g119"><g
         id="g121"
         clip-path="url(#clipPath125)"><text
           transform="matrix(1,0,0,-1,599,366.75)"
           style="font-variant:normal;font-weight:normal;font-size:24.025px;font-family:Consolas;-inkscape-font-specification:Consolas;writing-mode:lr-tb;fill:#000000;fill-opacity:1;fill-rule:nonzero;stroke:none"
           id="text129"><tspan
             x="0 13.19995 26.3999 39.59985 52.799801"
             y="0"
             id="tspan127">b = 4</tspan></text></g></g><path
       d="m 487.4,400 h 53.2 v 10.6 l 21.2,-21.2 -21.2,-21.2 v 10.6 h -53.2 z"
       style="fill:#5b9bd5;fill-opacity:1;fill-rule:evenodd;stroke:none"
       id="path131" /><path
       d="m 487.4,400 h 53.2 v 10.6 l 21.2,-21.2 -21.2,-21.2 v 10.6 h -53.2 z"
       style="fill:none;stroke:#41719c;stroke-width:1.2;stroke-linecap:butt;stroke-linejoin:miter;stroke-miterlimit:10;stroke-dasharray:none;stroke-opacity:1"
       id="path133" /><g
       id="g135"><g
         id="g137"
         clip-path="url(#clipPath141)"><text
           transform="matrix(1,0,0,-1,205.9,419.1)"
           style="font-variant:normal;font-weight:normal;font-size:18.025px;font-family:SimSun;-inkscape-font-specification:SimSun;writing-mode:lr-tb;fill:#000000;fill-opacity:1;fill-rule:nonzero;stroke:none"
           id="text145"><tspan
             x="0 18 36 54"
             y="0"
             id="tspan143">常量传播</tspan></text></g></g><g
       id="g147"><g
         id="g149"
         clip-path="url(#clipPath153)"><text
           transform="matrix(1,0,0,-1,488.17,417)"
           style="font-variant:normal;font-weight:normal;font-size:18.025px;font-family:SimSun;-inkscape-font-specification:SimSun;writing-mode:lr-tb;fill:#000000;fill-opacity:1;fill-rule:nonzero;stroke:none"
           id="text157"><tspan
             x="0 18.025 36.049999 54.075001"
             y="0"
             id="tspan155">常量折叠</tspan></text></g></g></g></svg>
