<?xml version="1.0" encoding="UTF-8" standalone="no"?>
<!-- Created with Inkscape (http://www.inkscape.org/) -->

<svg
   width="185.10585mm"
   height="116.63811mm"
   viewBox="0 0 185.10585 116.63811"
   version="1.1"
   id="svg5"
   inkscape:version="1.1.2 (1:1.1+202202050950+0a00cf5339)"
   sodipodi:docname="ch10-recommendation-models.svg"
   xmlns:inkscape="http://www.inkscape.org/namespaces/inkscape"
   xmlns:sodipodi="http://sodipodi.sourceforge.net/DTD/sodipodi-0.dtd"
   xmlns="http://www.w3.org/2000/svg"
   xmlns:svg="http://www.w3.org/2000/svg">
  <sodipodi:namedview
     id="namedview7"
     pagecolor="#ffffff"
     bordercolor="#666666"
     borderopacity="1.0"
     inkscape:pageshadow="2"
     inkscape:pageopacity="0.0"
     inkscape:pagecheckerboard="0"
     inkscape:document-units="mm"
     showgrid="false"
     fit-margin-top="0"
     fit-margin-left="0"
     fit-margin-right="0"
     fit-margin-bottom="0"
     inkscape:zoom="0.64052329"
     inkscape:cx="501.93335"
     inkscape:cy="434.80074"
     inkscape:window-width="1848"
     inkscape:window-height="1136"
     inkscape:window-x="72"
     inkscape:window-y="27"
     inkscape:window-maximized="1"
     inkscape:current-layer="g15" />
  <defs
     id="defs2">
    <clipPath
       clipPathUnits="userSpaceOnUse"
       id="clipPath25">
      <path
         d="M 0,0.1636355 H 536.9455 V 351.00004 H 0 Z"
         id="path23" />
    </clipPath>
  </defs>
  <g
     inkscape:label="Layer 1"
     inkscape:groupmode="layer"
     id="layer1"
     transform="translate(27.764827,-33.462145)">
    <g
       id="g15"
       inkscape:label="ch11-recommendation-models(1)"
       transform="matrix(0.35277777,0,0,-0.35277777,-27.90913,154.3432)">
      <g
         id="g17" />
      <g
         id="g29">
        <path
           d="M 70.29094,297.6909 H 300.6909 V 280.4546 H 70.29094 Z"
           style="fill:#fbe5d6;fill-opacity:1;fill-rule:nonzero;stroke:none"
           id="path31" />
        <g
           id="g33"
           transform="matrix(7.874016e-5,0,0,-7.874016e-5,70.29094,297.6909)">
          <path
             d="M 0,0 H 2926080 V 218902 H 0 Z"
             style="fill:none;stroke:#2f528f;stroke-width:12700;stroke-linecap:butt;stroke-linejoin:miter;stroke-miterlimit:8;stroke-dasharray:none;stroke-opacity:1"
             id="path35" />
        </g>
        <g
           id="g37"
           transform="matrix(0.2181818,0,0,0.2181818,383.0586,-67.03634)">
          <text
             transform="matrix(1,0,0,-1,0,1608)"
             style="font-variant:normal;font-weight:normal;font-size:73px;font-family:MicrosoftYaHei;-inkscape-font-specification:MicrosoftYaHei;writing-mode:lr-tb;fill:#000000;fill-opacity:1;fill-rule:nonzero;stroke:none"
             id="text41"><tspan
               x="0 73.335793 146.67159 220.00737"
               y="0"
               sodipodi:role="line"
               id="tspan39">交互历史</tspan></text>
        </g>
        <g
           id="g43"
           transform="matrix(0.2181818,0,0,0.2181818,447.0585,-67.03634)">
          <text
             transform="matrix(1,0,0,-1,0,1608)"
             style="font-variant:normal;font-weight:normal;font-size:73px;font-family:ArialMT;-inkscape-font-specification:ArialMT;writing-mode:lr-tb;fill:#000000;fill-opacity:1;fill-rule:nonzero;stroke:none"
             id="text47"><tspan
               x="0"
               y="0"
               id="tspan45">/</tspan></text>
        </g>
        <g
           id="g49"
           transform="matrix(0.2181818,0,0,0.2181818,451.5585,-67.03634)">
          <text
             transform="matrix(1,0,0,-1,0,1608)"
             style="font-variant:normal;font-weight:normal;font-size:73px;font-family:MicrosoftYaHei;-inkscape-font-specification:MicrosoftYaHei;writing-mode:lr-tb;fill:#000000;fill-opacity:1;fill-rule:nonzero;stroke:none"
             id="text53"><tspan
               x="0 73.335793 146.67159"
               y="0"
               sodipodi:role="line"
               id="tspan51">候选项</tspan></text>
        </g>
        <path
           d="m 190.1546,276.6364 v -13.0221 h -3 v 13.0221 z m 3,-11.522 -4.5,-9.0001 -4.5,9 z"
           style="fill:#4472c4;fill-opacity:1;fill-rule:nonzero;stroke:none"
           id="path55" />
        <path
           d="m 0.9090492,232.0903 c 0,14.0585 11.3966408,25.4551 25.4551008,25.4551 H 160.0358 c 14.0585,0 25.4551,-11.3966 25.4551,-25.4551 v -101.817 c 0,-14.0585 -11.3966,-25.4551 -25.4551,-25.4551 H 26.36415 c -14.05846,0 -25.4551008,11.3966 -25.4551008,25.4551 z"
           style="fill:#f8cbad;fill-opacity:1;fill-rule:evenodd;stroke:none"
           id="path57" />
        <g
           id="g59"
           transform="matrix(7.874016e-5,0,0,-7.874016e-5,0.9090492,257.5454)">
          <path
             d="M 0,323279.9 C 0,144737.4 144737.3,0 323279.8,0 H 2020910 c 178543,0 323280,144737.4 323280,323279.9 V 1616356 c 0,178543 -144737,323280 -323280,323280 H 323279.8 C 144737.3,1939636 0,1794899 0,1616356 Z"
             style="fill:none;stroke:#2f528f;stroke-width:12700;stroke-linecap:butt;stroke-linejoin:miter;stroke-miterlimit:8;stroke-dasharray:none;stroke-opacity:1"
             id="path61" />
        </g>
        <g
           id="g63"
           transform="matrix(0.2181818,0,0,0.2181818,50.81908,-165.4363)">
          <text
             transform="matrix(1,0,0,-1,0,1608)"
             style="font-variant:normal;font-weight:normal;font-size:73px;font-family:Calibri;-inkscape-font-specification:Calibri;writing-mode:lr-tb;fill:#000000;fill-opacity:1;fill-rule:nonzero;stroke:none"
             id="text67"><tspan
               x="0 37.237293 74.474586 111.71188 148.94917 211.37148 227.94977 259.42007 275.99835 313.23566 350.47296"
               y="0"
               sodipodi:role="line"
               id="tspan65">1000M x 100</tspan></text>
        </g>
        <g
           id="g69"
           transform="matrix(0.2181818,0,0,0.2181818,53.13408,-184.4182)">
          <text
             transform="matrix(1,0,0,-1,0,1608)"
             style="font-variant:normal;font-weight:normal;font-size:73px;font-family:DengXian;-inkscape-font-specification:DengXian-Regular;writing-mode:lr-tb;fill:#000000;fill-opacity:1;fill-rule:nonzero;stroke:none"
             id="text73"><tspan
               x="0 73.335793 146.67159 220.00737 293.34317"
               y="0"
               sodipodi:role="line"
               id="tspan71">用户嵌入表</tspan></text>
        </g>
        <path
           d="m 202.2909,250.8908 c 0,4.0368 3.2725,7.3092 7.3093,7.3092 h 157.527 c 4.0367,0 7.3092,-3.2724 7.3092,-7.3092 v -29.2361 c 0,-4.0368 -3.2725,-7.3093 -7.3092,-7.3093 h -157.527 c -4.0368,0 -7.3093,3.2725 -7.3093,7.3093 z"
           style="fill:#f8cbad;fill-opacity:1;fill-rule:evenodd;stroke:none"
           id="path75" />
        <g
           id="g77"
           transform="matrix(7.874016e-5,0,0,-7.874016e-5,202.2909,258.2)">
          <path
             d="M 0,92827.1 C 0,41560.11 41560.08,0 92827.03,0 H 2093420 c 51267,0 92827,41560.11 92827,92827.1 v 371298.8 c 0,51267 -41560,92827.1 -92827,92827.1 H 92827.03 C 41560.08,556953 0,515392.9 0,464125.9 Z"
             style="fill:none;stroke:#2f528f;stroke-width:12700;stroke-linecap:butt;stroke-linejoin:miter;stroke-miterlimit:8;stroke-dasharray:none;stroke-opacity:1"
             id="path79" />
        </g>
        <g
           id="g81"
           transform="matrix(0.2181818,0,0,0.2181818,254.1505,-110.2363)">
          <text
             transform="matrix(1,0,0,-1,0,1608)"
             style="font-variant:normal;font-weight:normal;font-size:73px;font-family:Calibri;-inkscape-font-specification:Calibri;writing-mode:lr-tb;fill:#000000;fill-opacity:1;fill-rule:nonzero;stroke:none"
             id="text85"><tspan
               x="0 37.237293 74.474586 136.89688 153.47517 184.94548 201.52377 238.76106 275.99835"
               y="0"
               sodipodi:role="line"
               id="tspan83">10M x 100</tspan></text>
        </g>
        <g
           id="g87"
           transform="matrix(0.2181818,0,0,0.2181818,248.3355,-129.2182)">
          <text
             transform="matrix(1,0,0,-1,0,1608)"
             style="font-variant:normal;font-weight:normal;font-size:73px;font-family:DengXian;-inkscape-font-specification:DengXian-Regular;writing-mode:lr-tb;fill:#000000;fill-opacity:1;fill-rule:nonzero;stroke:none"
             id="text91"><tspan
               x="0 73.335793 146.67159 220.00737 293.34317"
               y="0"
               sodipodi:role="line"
               id="tspan89">内容嵌入表</tspan></text>
        </g>
        <path
           d="m 202.2909,197.8726 c 0,4.0368 3.2725,7.3092 7.3093,7.3092 h 157.527 c 4.0367,0 7.3092,-3.2724 7.3092,-7.3092 v -29.2361 c 0,-4.0368 -3.2725,-7.3093 -7.3092,-7.3093 h -157.527 c -4.0368,0 -7.3093,3.2725 -7.3093,7.3093 z"
           style="fill:#f8cbad;fill-opacity:1;fill-rule:evenodd;stroke:none"
           id="path93" />
        <g
           id="g95"
           transform="matrix(7.874016e-5,0,0,-7.874016e-5,202.2909,205.1818)">
          <path
             d="M 0,92827.1 C 0,41560.11 41560.08,0 92827.03,0 H 2093420 c 51267,0 92827,41560.11 92827,92827.1 v 371298.8 c 0,51267 -41560,92827.1 -92827,92827.1 H 92827.03 C 41560.08,556953 0,515392.9 0,464125.9 Z"
             style="fill:none;stroke:#2f528f;stroke-width:12700;stroke-linecap:butt;stroke-linejoin:miter;stroke-miterlimit:8;stroke-dasharray:none;stroke-opacity:1"
             id="path97" />
        </g>
        <g
           id="g99"
           transform="matrix(0.2181818,0,0,0.2181818,224.3355,-172.8545)">
          <text
             transform="matrix(1,0,0,-1,0,1608)"
             style="font-variant:normal;font-weight:normal;font-size:73px;font-family:DengXian;-inkscape-font-specification:DengXian-Regular;writing-mode:lr-tb;fill:#000000;fill-opacity:1;fill-rule:nonzero;stroke:none"
             id="text103"><tspan
               x="0 73.335793 146.67159 220.00737 293.34317 366.67896 440.01474 513.35052"
               y="0"
               sodipodi:role="line"
               id="tspan101">用户上下文嵌入表</tspan></text>
        </g>
        <path
           d="m 202.2909,142.2362 c 0,4.0368 3.2725,7.3092 7.3093,7.3092 h 157.527 c 4.0367,0 7.3092,-3.2724 7.3092,-7.3092 V 113 c 0,-4.0368 -3.2725,-7.3092 -7.3092,-7.3092 h -157.527 c -4.0368,0 -7.3093,3.2724 -7.3093,7.3092 z"
           style="fill:#f8cbad;fill-opacity:1;fill-rule:evenodd;stroke:none"
           id="path105" />
        <g
           id="g107"
           transform="matrix(7.874016e-5,0,0,-7.874016e-5,202.2909,149.5454)">
          <path
             d="M 0,92827.33 C 0,41560.21 41560.08,0 92827.03,0 H 2093420 c 51267,0 92827,41560.21 92827,92827.33 V 464127.1 c 0,51267.1 -41560,92827.3 -92827,92827.3 H 92827.03 C 41560.08,556954.4 0,515394.2 0,464127.1 Z"
             style="fill:none;stroke:#2f528f;stroke-width:12700;stroke-linecap:butt;stroke-linejoin:miter;stroke-miterlimit:8;stroke-dasharray:none;stroke-opacity:1"
             id="path109" />
        </g>
        <g
           id="g111"
           transform="matrix(0.2181818,0,0,0.2181818,224.3355,-228.2727)">
          <text
             transform="matrix(1,0,0,-1,0,1608)"
             style="font-variant:normal;font-weight:normal;font-size:73px;font-family:DengXian;-inkscape-font-specification:DengXian-Regular;writing-mode:lr-tb;fill:#000000;fill-opacity:1;fill-rule:nonzero;stroke:none"
             id="text115"><tspan
               x="0 73.335793 146.67159 220.00737 293.34317 366.67896 440.01474 513.35052"
               y="0"
               sodipodi:role="line"
               id="tspan113">内容上下文嵌入表</tspan></text>
        </g>
        <path
           d="m 8.327238,87.50894 c 0,4.61922 3.744592,8.36383 8.363772,8.36383 H 362.1453 c 4.6192,0 8.3638,-3.74461 8.3638,-8.36383 V 54.05479 c 0,-4.61922 -3.7446,-8.36383 -8.3638,-8.36383 H 16.69101 c -4.61918,0 -8.363772,3.74461 -8.363772,8.36383 z"
           style="fill:#e7e6e6;fill-opacity:1;fill-rule:evenodd;stroke:none"
           id="path117" />
        <g
           id="g119"
           transform="matrix(7.874016e-5,0,0,-7.874016e-5,8.327238,95.87277)">
          <path
             d="M 0,106220.7 C 0,47556.62 47556.26,0 106219.9,0 H 4493489 c 58664,0 106220,47556.62 106220,106220.7 v 424867.6 c 0,58664.1 -47556,106220.7 -106220,106220.7 H 106219.9 C 47556.26,637309 0,589752.4 0,531088.3 Z"
             style="fill:none;stroke:#2f528f;stroke-width:12700;stroke-linecap:butt;stroke-linejoin:miter;stroke-miterlimit:8;stroke-dasharray:none;stroke-opacity:1"
             id="path121" />
        </g>
        <path
           d="M 39.09094,88.0182 H 339.7454 V 77.32725 H 39.09094 Z"
           style="fill:#ed7d31;fill-opacity:1;fill-rule:nonzero;stroke:none"
           id="path123" />
        <g
           id="g125"
           transform="matrix(7.874016e-5,0,0,-7.874016e-5,39.09094,88.0182)">
          <path
             d="M 0,0 H 3818312 V 135775 H 0 Z"
             style="fill:none;stroke:#2f528f;stroke-width:12700;stroke-linecap:butt;stroke-linejoin:miter;stroke-miterlimit:8;stroke-dasharray:none;stroke-opacity:1"
             id="path127" />
        </g>
        <path
           d="M 71.59999,67.07277 H 309.8546 V 56.38183 H 71.59999 Z"
           style="fill:#ed7d31;fill-opacity:1;fill-rule:nonzero;stroke:none"
           id="path129" />
        <g
           id="g131"
           transform="matrix(7.874016e-5,0,0,-7.874016e-5,71.59999,67.07277)">
          <path
             d="M 0,0 H 3025833 V 135775 H 0 Z"
             style="fill:none;stroke:#2f528f;stroke-width:12700;stroke-linecap:butt;stroke-linejoin:miter;stroke-miterlimit:8;stroke-dasharray:none;stroke-opacity:1"
             id="path133" />
        </g>
        <path
           d="m 110.8728,27.36363 h 156 V 12.52725 h -156 z"
           style="fill:#fbe5d6;fill-opacity:1;fill-rule:nonzero;stroke:none"
           id="path135" />
        <g
           id="g137"
           transform="matrix(7.874016e-5,0,0,-7.874016e-5,110.8728,27.36363)">
          <path
             d="M 0,0 H 1981200 V 188422 H 0 Z"
             style="fill:none;stroke:#2f528f;stroke-width:12700;stroke-linecap:butt;stroke-linejoin:miter;stroke-miterlimit:8;stroke-dasharray:none;stroke-opacity:1"
             id="path139" />
        </g>
        <path
           d="m 190.1542,48.66947 0.3528,-15.98875 -2.9993,-0.06618 -0.3528,15.98875 z m 3.319,-14.42294 -4.3004,-9.09708 -4.6974,8.89854 z"
           style="fill:#4472c4;fill-opacity:1;fill-rule:nonzero;stroke:none"
           id="path141" />
        <g
           id="g143"
           transform="matrix(0.2181818,0,0,0.2181818,408.9256,-336.4909)">
          <text
             transform="matrix(1,0,0,-1,0,1608)"
             style="font-variant:normal;font-weight:normal;font-size:73px;font-family:MicrosoftYaHei;-inkscape-font-specification:MicrosoftYaHei;writing-mode:lr-tb;fill:#000000;fill-opacity:1;fill-rule:nonzero;stroke:none"
             id="text147"><tspan
               x="0 73.335793 146.67159 220.00737"
               y="0"
               sodipodi:role="line"
               id="tspan145">推荐结果</tspan></text>
        </g>
        <g
           id="g149"
           transform="matrix(0.2181818,0,0,0.2181818,422.6449,-165.2182)">
          <text
             transform="matrix(1,0,0,-1,0,1608)"
             style="font-variant:normal;font-weight:normal;font-size:83px;font-family:MicrosoftYaHei;-inkscape-font-specification:MicrosoftYaHei;writing-mode:lr-tb;fill:#000000;fill-opacity:1;fill-rule:nonzero;stroke:none"
             id="text153"><tspan
               x="0 82.501991 165.00398"
               y="0"
               sodipodi:role="line"
               id="tspan151">嵌入表</tspan></text>
        </g>
        <g
           id="g155"
           transform="matrix(0.2181818,0,0,0.2181818,376.1449,-186.8182)">
          <text
             transform="matrix(1,0,0,-1,0,1608)"
             style="font-variant:normal;font-weight:normal;font-size:83px;font-family:ArialMT;-inkscape-font-specification:ArialMT;writing-mode:lr-tb;fill:#000000;fill-opacity:1;fill-rule:nonzero;stroke:none"
             id="text159"><tspan
               x="0 45.832596 91.665192 137.49779 178.76538 201.68997 265.86557 320.82816"
               y="0"
               sodipodi:role="line"
               id="tspan157">100s GB</tspan></text>
        </g>
        <g
           id="g161"
           transform="matrix(0.2181818,0,0,0.2181818,451.1449,-186.8182)">
          <text
             transform="matrix(1,0,0,-1,0,1608)"
             style="font-variant:normal;font-weight:normal;font-size:83px;font-family:ArialMT;-inkscape-font-specification:ArialMT;writing-mode:lr-tb;fill:#000000;fill-opacity:1;fill-rule:nonzero;stroke:none"
             id="text165"><tspan
               x="0"
               y="0"
               id="tspan163">–</tspan></text>
        </g>
        <g
           id="g167"
           transform="matrix(0.2181818,0,0,0.2181818,466.1449,-186.8182)">
          <text
             transform="matrix(1,0,0,-1,0,1608)"
             style="font-variant:normal;font-weight:normal;font-size:83px;font-family:ArialMT;-inkscape-font-specification:ArialMT;writing-mode:lr-tb;fill:#000000;fill-opacity:1;fill-rule:nonzero;stroke:none"
             id="text171"><tspan
               x="0 45.832596 91.665192 132.93279 155.85738 206.25497"
               y="0"
               sodipodi:role="line"
               id="tspan169">10s TB</tspan></text>
        </g>
        <g
           id="g173"
           transform="matrix(0.2181818,0,0,0.2181818,396.9702,-275.1818)">
          <text
             transform="matrix(1,0,0,-1,0,1608)"
             style="font-variant:normal;font-weight:normal;font-size:83px;font-family:MicrosoftYaHei;-inkscape-font-specification:MicrosoftYaHei;writing-mode:lr-tb;fill:#000000;fill-opacity:1;fill-rule:nonzero;stroke:none"
             id="text177"><tspan
               x="0 82.501991 165.00398 247.50597 330.00797 412.50995"
               y="0"
               sodipodi:role="line"
               id="tspan175">深度神经网络</tspan></text>
        </g>
        <g
           id="g179"
           transform="matrix(0.2181818,0,0,0.2181818,375.9702,-296.7818)">
          <text
             transform="matrix(1,0,0,-1,0,1608)"
             style="font-variant:normal;font-weight:normal;font-size:83px;font-family:ArialMT;-inkscape-font-specification:ArialMT;writing-mode:lr-tb;fill:#000000;fill-opacity:1;fill-rule:nonzero;stroke:none"
             id="text183"><tspan
               x="0 45.832596 91.665192 132.93279 155.85738 220.03297 274.99557"
               y="0"
               sodipodi:role="line"
               id="tspan181">10s GB</tspan></text>
        </g>
        <g
           id="g185"
           transform="matrix(0.2181818,0,0,0.2181818,440.9702,-296.7818)">
          <text
             transform="matrix(1,0,0,-1,0,1608)"
             style="font-variant:normal;font-weight:normal;font-size:83px;font-family:ArialMT;-inkscape-font-specification:ArialMT;writing-mode:lr-tb;fill:#000000;fill-opacity:1;fill-rule:nonzero;stroke:none"
             id="text189"><tspan
               x="0"
               y="0"
               id="tspan187">–</tspan></text>
        </g>
        <g
           id="g191"
           transform="matrix(0.2181818,0,0,0.2181818,455.9702,-296.7818)">
          <text
             transform="matrix(1,0,0,-1,0,1608)"
             style="font-variant:normal;font-weight:normal;font-size:83px;font-family:ArialMT;-inkscape-font-specification:ArialMT;writing-mode:lr-tb;fill:#000000;fill-opacity:1;fill-rule:nonzero;stroke:none"
             id="text195"><tspan
               x="0 45.832596 91.665192 137.49779 178.76538 201.68997 265.86557"
               y="0"
               sodipodi:role="line"
               id="tspan193">100s GB</tspan></text>
        </g>
        <g
           id="g197"
           transform="matrix(0.2181818,0,0,0.2181818,109.7371,-25.36362)">
          <text
             transform="matrix(1,0,0,-1,0,1608)"
             style="font-variant:normal;font-weight:bold;font-size:92px;font-family:MicrosoftYaHei;-inkscape-font-specification:MicrosoftYaHei-Bold;writing-mode:lr-tb;fill:#000000;fill-opacity:1;fill-rule:nonzero;stroke:none"
             id="text201"><tspan
               x="0 91.668793 183.33759 275.00638 366.67517 458.34396 550.01276 641.68152"
               y="0"
               sodipodi:role="line"
               id="tspan199">深度学习推荐模型</tspan></text>
        </g>
      </g>
    </g>
  </g>
</svg>
