<?xml version="1.0" encoding="UTF-8" standalone="no"?>
<!-- Created with Inkscape (http://www.inkscape.org/) -->

<svg
   version="1.1"
   id="svg2"
   xml:space="preserve"
   width="1210.6666"
   height="389.91666"
   viewBox="0 0 1210.6666 389.91665"
   sodipodi:docname="ch10-single-vs-multi.svg"
   inkscape:version="1.1.1 (3bf5ae0d25, 2021-09-20)"
   xmlns:inkscape="http://www.inkscape.org/namespaces/inkscape"
   xmlns:sodipodi="http://sodipodi.sourceforge.net/DTD/sodipodi-0.dtd"
   xmlns="http://www.w3.org/2000/svg"
   xmlns:svg="http://www.w3.org/2000/svg"><defs
     id="defs6"><clipPath
       clipPathUnits="userSpaceOnUse"
       id="clipPath18"><path
         d="M 0,0 H 914 V 310 H 0 Z"
         id="path16" /></clipPath></defs><sodipodi:namedview
     id="namedview4"
     pagecolor="#ffffff"
     bordercolor="#666666"
     borderopacity="1.0"
     inkscape:pageshadow="2"
     inkscape:pageopacity="0.0"
     inkscape:pagecheckerboard="0"
     showgrid="false"
     fit-margin-top="0"
     fit-margin-left="0"
     fit-margin-right="0"
     fit-margin-bottom="0"
     inkscape:zoom="0.53460062"
     inkscape:cx="416.19854"
     inkscape:cy="192.66719"
     inkscape:window-width="1920"
     inkscape:window-height="1137"
     inkscape:window-x="1912"
     inkscape:window-y="-8"
     inkscape:window-maximized="1"
     inkscape:current-layer="g8" /><g
     id="g8"
     inkscape:groupmode="layer"
     inkscape:label="ch10-single-vs-multi"
     transform="matrix(1.3333333,0,0,-1.3333333,-7.999998,407.99999)"><g
       id="g10" /><g
       id="g22"><path
         d="m 6.5,224.6663 c 0,7.0879 5.74582,12.8337 12.83364,12.8337 H 167.6664 c 7.0878,0 12.8336,-5.7458 12.8336,-12.8337 V 173.3336 C 180.5,166.2458 174.7542,160.5 167.6664,160.5 H 19.33364 C 12.24582,160.5 6.5,166.2458 6.5,173.3336 Z"
         style="fill:#e7e6e6;fill-opacity:1;fill-rule:nonzero;stroke:none"
         id="path24" /><g
         id="g26"
         transform="matrix(7.874016e-5,0,0,-7.874016e-5,6.5,237.5)"><path
           d="M 0,162987.4 C 0,72971.93 72971.88,0 162987.3,0 H 2046813 c 90015,0 162987,72971.93 162987,162987.4 v 651925.3 c 0,90015.4 -72972,162987.3 -162987,162987.3 H 162987.3 C 72971.88,977900 0,904928.1 0,814912.7 Z"
           style="fill:none;stroke:#000000;stroke-width:12700;stroke-linecap:butt;stroke-linejoin:miter;stroke-miterlimit:8;stroke-dasharray:50800, 38100;stroke-dashoffset:0;stroke-opacity:1"
           id="path28" /></g><path
         d="m 6.5,305.5 h 174 v -30 H 6.5 Z"
         style="fill:#9dc3e6;fill-opacity:1;fill-rule:nonzero;stroke:none"
         id="path30" /><g
         id="g32"
         transform="matrix(7.874016e-5,0,0,-7.874016e-5,6.5,305.5)"><path
           d="M 0,0 H 2209800 V 381000 H 0 Z"
           style="fill:none;stroke:#000000;stroke-width:12700;stroke-linecap:butt;stroke-linejoin:miter;stroke-miterlimit:8;stroke-dasharray:none;stroke-opacity:1"
           id="path34" /></g><path
         d="m 544.5,305.5 h 57 v -31 h -57 z"
         style="fill:#9dc3e6;fill-opacity:1;fill-rule:nonzero;stroke:none"
         id="path36" /><g
         id="g38"
         transform="matrix(7.874016e-5,0,0,-7.874016e-5,544.5,305.5)"><path
           d="M 0,0 H 723900 V 393700 H 0 Z"
           style="fill:none;stroke:#000000;stroke-width:12700;stroke-linecap:butt;stroke-linejoin:miter;stroke-miterlimit:8;stroke-dasharray:none;stroke-opacity:1"
           id="path40" /></g><path
         d="m 605.5,305.5 h 57 v -31 h -57 z"
         style="fill:#9dc3e6;fill-opacity:1;fill-rule:nonzero;stroke:none"
         id="path42" /><g
         id="g44"
         transform="matrix(7.874016e-5,0,0,-7.874016e-5,605.5,305.5)"><path
           d="M 0,0 H 723900 V 393700 H 0 Z"
           style="fill:none;stroke:#000000;stroke-width:12700;stroke-linecap:butt;stroke-linejoin:miter;stroke-miterlimit:8;stroke-dasharray:none;stroke-opacity:1"
           id="path46" /></g><path
         d="m 6.5,119.5 h 174 v -30 H 6.5 Z"
         style="fill:#afabab;fill-opacity:1;fill-rule:nonzero;stroke:none"
         id="path48" /><g
         id="g50"
         transform="matrix(7.874016e-5,0,0,-7.874016e-5,6.5,119.5)"><path
           d="M 0,0 H 2209800 V 381000 H 0 Z"
           style="fill:none;stroke:#000000;stroke-width:12700;stroke-linecap:butt;stroke-linejoin:miter;stroke-miterlimit:8;stroke-dasharray:none;stroke-opacity:1"
           id="path52" /></g><g
         id="g54"
         transform="translate(53.74378,-116)"><text
           transform="matrix(1,0,0,-1,0,310)"
           style="font-variant:normal;font-weight:normal;font-size:18px;font-family:STSongti-TC;-inkscape-font-specification:STSongti-TC-Regular;writing-mode:lr-tb;fill:#000000;fill-opacity:1;fill-rule:nonzero;stroke:none"
           id="text58"><tspan
             x="0 18 36 54"
             y="0"
             sodipodi:role="line"
             id="tspan56">计算节点</tspan></text></g><g
         id="g60"
         transform="translate(72.88779,-23)"><text
           transform="matrix(1,0,0,-1,0,310)"
           style="font-variant:normal;font-weight:normal;font-size:18px;font-family:STSongti-TC;-inkscape-font-specification:STSongti-TC-Regular;writing-mode:lr-tb;fill:#000000;fill-opacity:1;fill-rule:nonzero;stroke:none"
           id="text64"><tspan
             x="0 18"
             y="0"
             sodipodi:role="line"
             id="tspan62">输入</tspan></text></g><g
         id="g66"
         transform="translate(66.13496,-210)"><text
           transform="matrix(1,0,0,-1,0,310)"
           style="font-variant:normal;font-weight:normal;font-size:18px;font-family:STSongti-TC;-inkscape-font-specification:STSongti-TC-Regular;writing-mode:lr-tb;fill:#000000;fill-opacity:1;fill-rule:nonzero;stroke:none"
           id="text70"><tspan
             x="0 18"
             y="0"
             sodipodi:role="line"
             id="tspan68">输出</tspan></text></g><path
         d="M 97.25,275 V 262.0899 H 102 L 92.5,237 83,262.0899 h 4.75 V 275 Z"
         style="fill:#4472c4;fill-opacity:1;fill-rule:nonzero;stroke:none"
         id="path72" /><path
         d="M 97.25,160 V 146.0898 H 102 L 92.5,121 83,146.0898 h 4.75 V 160 Z"
         style="fill:#4472c4;fill-opacity:1;fill-rule:nonzero;stroke:none"
         id="path74" /><g
         id="g76"
         transform="translate(12.7774,-293)"><text
           transform="matrix(1,0,0,-1,0,310)"
           style="font-variant:normal;font-weight:normal;font-size:20px;font-family:STSongti-TC;-inkscape-font-specification:STSongti-TC-Regular;writing-mode:lr-tb;fill:#000000;fill-opacity:1;fill-rule:nonzero;stroke:none"
           id="text80"><tspan
             x="0"
             y="0"
             id="tspan78">（</tspan></text></g><g
         id="g82"
         transform="translate(32.7774,-293)"><text
           transform="matrix(1,0,0,-1,0,310)"
           style="font-variant:normal;font-weight:normal;font-size:20px;font-family:STSongti-TC;-inkscape-font-specification:STSongti-TC-Regular;writing-mode:lr-tb;fill:#000000;fill-opacity:1;fill-rule:nonzero;stroke:none"
           id="text86"><tspan
             x="0"
             y="0"
             id="tspan84">a</tspan></text></g><g
         id="g88"
         transform="translate(42.7774,-293)"><text
           transform="matrix(1,0,0,-1,0,310)"
           style="font-variant:normal;font-weight:normal;font-size:20px;font-family:STSongti-TC;-inkscape-font-specification:STSongti-TC-Regular;writing-mode:lr-tb;fill:#000000;fill-opacity:1;fill-rule:nonzero;stroke:none"
           id="text92"><tspan
             x="0"
             y="0"
             id="tspan90">）</tspan></text></g><g
         id="g94"
         transform="translate(62.7774,-293)"><text
           transform="matrix(1,0,0,-1,0,310)"
           style="font-variant:normal;font-weight:normal;font-size:20px;font-family:STSongti-TC;-inkscape-font-specification:STSongti-TC-Regular;writing-mode:lr-tb;fill:#000000;fill-opacity:1;fill-rule:nonzero;stroke:none"
           id="text98"><tspan
             x="0 20 40 60 80"
             y="0"
             sodipodi:role="line"
             id="tspan96">单节点执⾏</tspan></text></g><path
         d="m 357.5,222.6663 c 0,7.0879 5.7458,12.8337 12.8336,12.8337 h 148.3328 c 7.0878,0 12.8336,-5.7458 12.8336,-12.8337 V 171.3336 C 531.5,164.2458 525.7542,158.5 518.6664,158.5 H 370.3336 c -7.0878,0 -12.8336,5.7458 -12.8336,12.8336 z"
         style="fill:#e7e6e6;fill-opacity:1;fill-rule:nonzero;stroke:none"
         id="path100" /><g
         id="g102"
         transform="matrix(7.874016e-5,0,0,-7.874016e-5,357.5,235.5)"><path
           d="M 0,162987.4 C 0,72971.93 72971.88,0 162987.3,0 H 2046813 c 90015,0 162987,72971.93 162987,162987.4 v 651925.3 c 0,90015.4 -72972,162987.3 -162987,162987.3 H 162987.3 C 72971.88,977900 0,904928.1 0,814912.7 Z"
           style="fill:none;stroke:#000000;stroke-width:12700;stroke-linecap:butt;stroke-linejoin:miter;stroke-miterlimit:8;stroke-dasharray:50800, 38100;stroke-dashoffset:0;stroke-opacity:1"
           id="path104" /></g><g
         id="g106"
         transform="translate(400.5202,-118)"><text
           transform="matrix(1,0,0,-1,0,310)"
           style="font-variant:normal;font-weight:normal;font-size:18px;font-family:STSongti-TC;-inkscape-font-specification:STSongti-TC-Regular;writing-mode:lr-tb;fill:#000000;fill-opacity:1;fill-rule:nonzero;stroke:none"
           id="text110"><tspan
             x="0 18 36 54"
             y="0"
             sodipodi:role="line"
             id="tspan108">计算节点</tspan></text></g><g
         id="g112"
         transform="translate(477.5202,-118)"><text
           transform="matrix(1,0,0,-1,0,310)"
           style="font-variant:normal;font-weight:normal;font-size:18px;font-family:STSongti-TC;-inkscape-font-specification:STSongti-TC-Regular;writing-mode:lr-tb;fill:#000000;fill-opacity:1;fill-rule:nonzero;stroke:none"
           id="text116"><tspan
             x="0"
             y="0"
             id="tspan114">1</tspan></text></g><path
         d="m 549.5,222.6663 c 0,7.0879 5.7458,12.8337 12.8336,12.8337 h 148.3328 c 7.0878,0 12.8336,-5.7458 12.8336,-12.8337 V 171.3336 C 723.5,164.2458 717.7542,158.5 710.6664,158.5 H 562.3336 c -7.0878,0 -12.8336,5.7458 -12.8336,12.8336 z"
         style="fill:#e7e6e6;fill-opacity:1;fill-rule:nonzero;stroke:none"
         id="path118" /><g
         id="g120"
         transform="matrix(7.874016e-5,0,0,-7.874016e-5,549.5,235.5)"><path
           d="M 0,162987.4 C 0,72971.93 72971.88,0 162987.3,0 H 2046813 c 90015,0 162987,72971.93 162987,162987.4 v 651925.3 c 0,90015.4 -72972,162987.3 -162987,162987.3 H 162987.3 C 72971.88,977900 0,904928.1 0,814912.7 Z"
           style="fill:none;stroke:#000000;stroke-width:12700;stroke-linecap:butt;stroke-linejoin:miter;stroke-miterlimit:8;stroke-dasharray:50800, 38100;stroke-dashoffset:0;stroke-opacity:1"
           id="path122" /></g><path
         d="m 666.5,305.5 h 58 v -30 h -58 z"
         style="fill:#9dc3e6;fill-opacity:1;fill-rule:nonzero;stroke:none"
         id="path124" /><g
         id="g126"
         transform="matrix(7.874016e-5,0,0,-7.874016e-5,666.5,305.5)"><path
           d="M 0,0 H 736600 V 381000 H 0 Z"
           style="fill:none;stroke:#000000;stroke-width:12700;stroke-linecap:butt;stroke-linejoin:miter;stroke-miterlimit:8;stroke-dasharray:none;stroke-opacity:1"
           id="path128" /></g><g
         id="g130"
         transform="translate(591.9943,-119)"><text
           transform="matrix(1,0,0,-1,0,310)"
           style="font-variant:normal;font-weight:normal;font-size:18px;font-family:STSongti-TC;-inkscape-font-specification:STSongti-TC-Regular;writing-mode:lr-tb;fill:#000000;fill-opacity:1;fill-rule:nonzero;stroke:none"
           id="text134"><tspan
             x="0 18 36 54"
             y="0"
             sodipodi:role="line"
             id="tspan132">计算节点</tspan></text></g><g
         id="g136"
         transform="translate(668.9943,-119)"><text
           transform="matrix(1,0,0,-1,0,310)"
           style="font-variant:normal;font-weight:normal;font-size:18px;font-family:STSongti-TC;-inkscape-font-specification:STSongti-TC-Regular;writing-mode:lr-tb;fill:#000000;fill-opacity:1;fill-rule:nonzero;stroke:none"
           id="text140"><tspan
             x="0"
             y="0"
             id="tspan138">2</tspan></text></g><path
         d="m 739.5,222.6663 c 0,7.0879 5.7458,12.8337 12.8336,12.8337 h 148.3328 c 7.0878,0 12.8336,-5.7458 12.8336,-12.8337 V 171.3336 C 913.5,164.2458 907.7542,158.5 900.6664,158.5 H 752.3336 c -7.0878,0 -12.8336,5.7458 -12.8336,12.8336 z"
         style="fill:#e7e6e6;fill-opacity:1;fill-rule:nonzero;stroke:none"
         id="path142" /><g
         id="g144"
         transform="matrix(7.874016e-5,0,0,-7.874016e-5,739.5,235.5)"><path
           d="M 0,162987.4 C 0,72971.93 72971.88,0 162987.3,0 H 2046813 c 90015,0 162987,72971.93 162987,162987.4 v 651925.3 c 0,90015.4 -72972,162987.3 -162987,162987.3 H 162987.3 C 72971.88,977900 0,904928.1 0,814912.7 Z"
           style="fill:none;stroke:#000000;stroke-width:12700;stroke-linecap:butt;stroke-linejoin:miter;stroke-miterlimit:8;stroke-dasharray:50800, 38100;stroke-dashoffset:0;stroke-opacity:1"
           id="path146" /></g><g
         id="g148"
         transform="translate(784.5895,-120)"><text
           transform="matrix(1,0,0,-1,0,310)"
           style="font-variant:normal;font-weight:normal;font-size:18px;font-family:STSongti-TC;-inkscape-font-specification:STSongti-TC-Regular;writing-mode:lr-tb;fill:#000000;fill-opacity:1;fill-rule:nonzero;stroke:none"
           id="text152"><tspan
             x="0 18 36 54"
             y="0"
             sodipodi:role="line"
             id="tspan150">计算节点</tspan></text></g><g
         id="g154"
         transform="translate(861.5895,-120)"><text
           transform="matrix(1,0,0,-1,0,310)"
           style="font-variant:normal;font-weight:normal;font-size:18px;font-family:STSongti-TC;-inkscape-font-specification:STSongti-TC-Regular;writing-mode:lr-tb;fill:#000000;fill-opacity:1;fill-rule:nonzero;stroke:none"
           id="text158"><tspan
             x="0"
             y="0"
             id="tspan156">3</tspan></text></g><path
         d="m 541.5,109.5 h 58 v -30 h -58 z"
         style="fill:#afabab;fill-opacity:1;fill-rule:nonzero;stroke:none"
         id="path160" /><g
         id="g162"
         transform="matrix(7.874016e-5,0,0,-7.874016e-5,541.5,109.5)"><path
           d="M 0,0 H 736600 V 381000 H 0 Z"
           style="fill:none;stroke:#000000;stroke-width:12700;stroke-linecap:butt;stroke-linejoin:miter;stroke-miterlimit:8;stroke-dasharray:none;stroke-opacity:1"
           id="path164" /></g><path
         d="m 603.5,109.5 h 57 v -30 h -57 z"
         style="fill:#afabab;fill-opacity:1;fill-rule:nonzero;stroke:none"
         id="path166" /><g
         id="g168"
         transform="matrix(7.874016e-5,0,0,-7.874016e-5,603.5,109.5)"><path
           d="M 0,0 H 723900 V 381000 H 0 Z"
           style="fill:none;stroke:#000000;stroke-width:12700;stroke-linecap:butt;stroke-linejoin:miter;stroke-miterlimit:8;stroke-dasharray:none;stroke-opacity:1"
           id="path170" /></g><path
         d="m 664.5,110.5 h 57 v -31 h -57 z"
         style="fill:#afabab;fill-opacity:1;fill-rule:nonzero;stroke:none"
         id="path172" /><g
         id="g174"
         transform="matrix(7.874016e-5,0,0,-7.874016e-5,664.5,110.5)"><path
           d="M 0,0 H 723900 V 393700 H 0 Z"
           style="fill:none;stroke:#000000;stroke-width:12700;stroke-linecap:butt;stroke-linejoin:miter;stroke-miterlimit:8;stroke-dasharray:none;stroke-opacity:1"
           id="path176" /></g><path
         d="m 543.5989,265.8866 -16.202,-13.1273 3.0251,-3.7336 -25.7713,-8.5115 13.671,23.446 3.0251,-3.7336 16.202,13.1273 z"
         style="fill:#4472c4;fill-opacity:1;fill-rule:nonzero;stroke:none"
         id="path178" /><path
         d="M 637.25,273 V 259.0898 H 642 L 632.5,234 623,259.0898 h 4.75 V 273 Z"
         style="fill:#4472c4;fill-opacity:1;fill-rule:nonzero;stroke:none"
         id="path180" /><path
         d="m 729.2845,272.8375 15.5861,-12.7986 3.0495,3.7137 13.517,-23.5351 -25.715,8.6803 3.0495,3.7137 -15.5861,12.7986 z"
         style="fill:#4472c4;fill-opacity:1;fill-rule:nonzero;stroke:none"
         id="path182" /><g
         id="g184"
         transform="translate(456.0262,-26)"><text
           transform="matrix(1,0,0,-1,0,310)"
           style="font-variant:normal;font-weight:normal;font-size:18px;font-family:STSongti-TC;-inkscape-font-specification:STSongti-TC-Regular;writing-mode:lr-tb;fill:#000000;fill-opacity:1;fill-rule:nonzero;stroke:none"
           id="text188"><tspan
             x="0 18 36 54"
             y="0"
             sodipodi:role="line"
             id="tspan186">切分输入</tspan></text></g><path
         d="m 512.5196,152.6016 14.7431,-14.7469 3.3983,3.3974 11.1488,-24.745 -24.742,11.1553 3.3983,3.3974 -14.7431,14.747 z"
         style="fill:#4472c4;fill-opacity:1;fill-rule:nonzero;stroke:none"
         id="path190" /><path
         d="M 636.25,154 V 141.0899 H 641 L 631.5,116 622,141.0899 h 4.75 V 154 Z"
         style="fill:#4472c4;fill-opacity:1;fill-rule:nonzero;stroke:none"
         id="path192" /><path
         d="m 759.1565,146.595 -13.9554,-14.5595 3.4691,-3.3251 -24.5018,-11.6736 10.6255,24.9742 3.4691,-3.3252 13.9554,14.5594 z"
         style="fill:#4472c4;fill-opacity:1;fill-rule:nonzero;stroke:none"
         id="path194" /><g
         id="g196"
         transform="translate(454.8528,-223)"><text
           transform="matrix(1,0,0,-1,0,310)"
           style="font-variant:normal;font-weight:normal;font-size:18px;font-family:STSongti-TC;-inkscape-font-specification:STSongti-TC-Regular;writing-mode:lr-tb;fill:#000000;fill-opacity:1;fill-rule:nonzero;stroke:none"
           id="text200"><tspan
             x="0 18 36 54"
             y="0"
             sodipodi:role="line"
             id="tspan198">合并输出</tspan></text></g><g
         id="g202"
         transform="translate(500.6803,-293)"><text
           transform="matrix(1,0,0,-1,0,310)"
           style="font-variant:normal;font-weight:normal;font-size:20px;font-family:STSongti-TC;-inkscape-font-specification:STSongti-TC-Regular;writing-mode:lr-tb;fill:#000000;fill-opacity:1;fill-rule:nonzero;stroke:none"
           id="text206"><tspan
             x="0"
             y="0"
             id="tspan204">（</tspan></text></g><g
         id="g208"
         transform="translate(520.6803,-293)"><text
           transform="matrix(1,0,0,-1,0,310)"
           style="font-variant:normal;font-weight:normal;font-size:20px;font-family:STSongti-TC;-inkscape-font-specification:STSongti-TC-Regular;writing-mode:lr-tb;fill:#000000;fill-opacity:1;fill-rule:nonzero;stroke:none"
           id="text212"><tspan
             x="0"
             y="0"
             id="tspan210">b</tspan></text></g><g
         id="g214"
         transform="translate(530.6803,-293)"><text
           transform="matrix(1,0,0,-1,0,310)"
           style="font-variant:normal;font-weight:normal;font-size:20px;font-family:STSongti-TC;-inkscape-font-specification:STSongti-TC-Regular;writing-mode:lr-tb;fill:#000000;fill-opacity:1;fill-rule:nonzero;stroke:none"
           id="text218"><tspan
             x="0"
             y="0"
             id="tspan216">）</tspan></text></g><g
         id="g220"
         transform="translate(550.6803,-293)"><text
           transform="matrix(1,0,0,-1,0,310)"
           style="font-variant:normal;font-weight:normal;font-size:20px;font-family:STSongti-TC;-inkscape-font-specification:STSongti-TC-Regular;writing-mode:lr-tb;fill:#000000;fill-opacity:1;fill-rule:nonzero;stroke:none"
           id="text224"><tspan
             x="0 20 40 60 80 100 120 140"
             y="0"
             sodipodi:role="line"
             id="tspan222">分布式多节点执⾏</tspan></text></g><g
         id="g226"
         transform="translate(269.4391,-117)"><text
           transform="matrix(1,0,0,-1,0,310)"
           style="font-variant:normal;font-weight:normal;font-size:18px;font-family:STSongti-TC;-inkscape-font-specification:STSongti-TC-Regular;writing-mode:lr-tb;fill:#000000;fill-opacity:1;fill-rule:nonzero;stroke:none"
           id="text230"><tspan
             x="0 18 36 54"
             y="0"
             sodipodi:role="line"
             id="tspan228">并⾏计算</tspan></text></g></g></g></svg>
