<?xml version="1.0" encoding="UTF-8" standalone="no"?>
<!-- Created with Inkscape (http://www.inkscape.org/) -->

<svg
   version="1.1"
   id="svg2"
   xml:space="preserve"
   width="1052.9974"
   height="346.66837"
   viewBox="0 0 1052.9975 346.66837"
   sodipodi:docname="ch10-single-node.svg"
   inkscape:version="1.1.1 (3bf5ae0d25, 2021-09-20)"
   xmlns:inkscape="http://www.inkscape.org/namespaces/inkscape"
   xmlns:sodipodi="http://sodipodi.sourceforge.net/DTD/sodipodi-0.dtd"
   xmlns="http://www.w3.org/2000/svg"
   xmlns:svg="http://www.w3.org/2000/svg"><defs
     id="defs6"><clipPath
       clipPathUnits="userSpaceOnUse"
       id="clipPath18"><path
         d="M 0,0 H 802 V 260 H 0 Z"
         id="path16" /></clipPath></defs><sodipodi:namedview
     id="namedview4"
     pagecolor="#ffffff"
     bordercolor="#666666"
     borderopacity="1.0"
     inkscape:pageshadow="2"
     inkscape:pageopacity="0.0"
     inkscape:pagecheckerboard="0"
     showgrid="false"
     inkscape:zoom="0.85170225"
     inkscape:cx="554.77134"
     inkscape:cy="187.85908"
     inkscape:window-width="1920"
     inkscape:window-height="1137"
     inkscape:window-x="1912"
     inkscape:window-y="-8"
     inkscape:window-maximized="1"
     inkscape:current-layer="g8"
     fit-margin-top="0"
     fit-margin-left="0"
     fit-margin-right="0"
     fit-margin-bottom="0" /><g
     id="g8"
     inkscape:groupmode="layer"
     inkscape:label="ch10-single-node"
     transform="matrix(1.3333333,0,0,-1.3333333,-16.336198,346.66818)"><g
       id="g10" /><g
       id="g22"><path
         d="m 82.5,216.3324 c 0,23.8408 19.3268,43.1676 43.1675,43.1676 h 632.665 c 23.8407,0 43.1675,-19.3268 43.1675,-43.1676 V 43.66758 C 801.5,19.82678 782.1732,0.4999909 758.3325,0.4999909 H 125.6675 C 101.8268,0.4999909 82.5,19.82678 82.5,43.66758 Z"
         style="fill:#e7e6e6;fill-opacity:1;fill-rule:nonzero;stroke:none"
         id="path24" /><g
         id="g26"
         transform="matrix(7.874016e-5,0,0,-7.874016e-5,82.5,259.5)"><path
           d="M 0,548228.3 C 0,245450.2 245449.8,0 548227.5,0 H 8583072 c 302778,0 548228,245450.2 548228,548228.3 V 2741072 c 0,302778 -245450,548228 -548228,548228 H 548227.5 C 245449.8,3289300 0,3043850 0,2741072 Z"
           style="fill:none;stroke:#000000;stroke-width:12700;stroke-linecap:butt;stroke-linejoin:miter;stroke-miterlimit:8;stroke-dasharray:50800, 38100;stroke-dashoffset:0;stroke-opacity:1"
           id="path28" /></g><path
         d="m 491.5,204.5 h 72 v -138 h -72 z"
         style="fill:#a9d18e;fill-opacity:1;fill-rule:nonzero;stroke:none"
         id="path30" /><g
         id="g32"
         transform="matrix(7.874016e-5,0,0,-7.874016e-5,491.5,204.5)"><path
           d="M 0,0 H 914400 V 1752600 H 0 Z"
           style="fill:none;stroke:#000000;stroke-width:12700;stroke-linecap:butt;stroke-linejoin:miter;stroke-miterlimit:8;stroke-dasharray:none;stroke-opacity:1"
           id="path34" /></g><path
         d="m 653.5,205.5 h 72 v -138 h -72 z"
         style="fill:#a9d18e;fill-opacity:1;fill-rule:nonzero;stroke:none"
         id="path36" /><g
         id="g38"
         transform="matrix(7.874016e-5,0,0,-7.874016e-5,653.5,205.5)"><path
           d="M 0,0 H 914400 V 1752600 H 0 Z"
           style="fill:none;stroke:#000000;stroke-width:12700;stroke-linecap:butt;stroke-linejoin:miter;stroke-miterlimit:8;stroke-dasharray:none;stroke-opacity:1"
           id="path40" /></g><path
         d="m 330.5,204.5 h 72 v -138 h -72 z"
         style="fill:#a9d18e;fill-opacity:1;fill-rule:nonzero;stroke:none"
         id="path42" /><g
         id="g44"
         transform="matrix(7.874016e-5,0,0,-7.874016e-5,330.5,204.5)"><path
           d="M 0,0 H 914400 V 1752600 H 0 Z"
           style="fill:none;stroke:#000000;stroke-width:12700;stroke-linecap:butt;stroke-linejoin:miter;stroke-miterlimit:8;stroke-dasharray:none;stroke-opacity:1"
           id="path46" /></g><path
         d="m 108.5,204.5 h 72 v -138 h -72 z"
         style="fill:#9dc3e6;fill-opacity:1;fill-rule:nonzero;stroke:none"
         id="path48" /><g
         id="g50"
         transform="matrix(7.874016e-5,0,0,-7.874016e-5,108.5,204.5)"><path
           d="M 0,0 H 914400 V 1752600 H 0 Z"
           style="fill:none;stroke:#000000;stroke-width:12700;stroke-linecap:butt;stroke-linejoin:miter;stroke-miterlimit:8;stroke-dasharray:none;stroke-opacity:1"
           id="path52" /></g><g
         id="g54"
         transform="translate(345.5718,-125)"><text
           transform="matrix(1,0,0,-1,0,260)"
           style="font-variant:normal;font-weight:normal;font-size:18px;font-family:STSongti-SC;-inkscape-font-specification:STSongti-SC-Regular;writing-mode:lr-tb;fill:#000000;fill-opacity:1;fill-rule:nonzero;stroke:none"
           id="text58"><tspan
             x="0 18"
             y="0"
             sodipodi:role="line"
             id="tspan56">算⼦</tspan></text></g><g
         id="g60"
         transform="translate(381.5718,-125)"><text
           transform="matrix(1,0,0,-1,0,260)"
           style="font-variant:normal;font-weight:normal;font-size:18px;font-family:STSongti-SC;-inkscape-font-specification:STSongti-SC-Regular;writing-mode:lr-tb;fill:#000000;fill-opacity:1;fill-rule:nonzero;stroke:none"
           id="text64"><tspan
             x="0"
             y="0"
             id="tspan62">1</tspan></text></g><g
         id="g66"
         transform="translate(331.5718,-147)"><text
           transform="matrix(1,0,0,-1,0,260)"
           style="font-variant:normal;font-weight:normal;font-size:18px;font-family:STSongti-SC;-inkscape-font-specification:STSongti-SC-Regular;writing-mode:lr-tb;fill:#000000;fill-opacity:1;fill-rule:nonzero;stroke:none"
           id="text70"><tspan
             x="0 18 36 54"
             y="0"
             sodipodi:role="line"
             id="tspan68">（参数）</tspan></text></g><g
         id="g72"
         transform="translate(505.8641,-125)"><text
           transform="matrix(1,0,0,-1,0,260)"
           style="font-variant:normal;font-weight:normal;font-size:18px;font-family:STSongti-SC;-inkscape-font-specification:STSongti-SC-Regular;writing-mode:lr-tb;fill:#000000;fill-opacity:1;fill-rule:nonzero;stroke:none"
           id="text76"><tspan
             x="0 18"
             y="0"
             sodipodi:role="line"
             id="tspan74">算⼦</tspan></text></g><g
         id="g78"
         transform="translate(541.8641,-125)"><text
           transform="matrix(1,0,0,-1,0,260)"
           style="font-variant:normal;font-weight:normal;font-size:18px;font-family:STSongti-SC;-inkscape-font-specification:STSongti-SC-Regular;writing-mode:lr-tb;fill:#000000;fill-opacity:1;fill-rule:nonzero;stroke:none"
           id="text82"><tspan
             x="0"
             y="0"
             id="tspan80">2</tspan></text></g><g
         id="g84"
         transform="translate(491.8641,-147)"><text
           transform="matrix(1,0,0,-1,0,260)"
           style="font-variant:normal;font-weight:normal;font-size:18px;font-family:STSongti-SC;-inkscape-font-specification:STSongti-SC-Regular;writing-mode:lr-tb;fill:#000000;fill-opacity:1;fill-rule:nonzero;stroke:none"
           id="text88"><tspan
             x="0 18 36 54"
             y="0"
             sodipodi:role="line"
             id="tspan86">（参数）</tspan></text></g><g
         id="g90"
         transform="translate(665.4562,-125)"><text
           transform="matrix(1,0,0,-1,0,260)"
           style="font-variant:normal;font-weight:normal;font-size:18px;font-family:STSongti-SC;-inkscape-font-specification:STSongti-SC-Regular;writing-mode:lr-tb;fill:#000000;fill-opacity:1;fill-rule:nonzero;stroke:none"
           id="text94"><tspan
             x="0 18"
             y="0"
             sodipodi:role="line"
             id="tspan92">算⼦</tspan></text></g><g
         id="g96"
         transform="translate(701.4562,-125)"><text
           transform="matrix(1,0,0,-1,0,260)"
           style="font-variant:normal;font-weight:normal;font-size:18px;font-family:STSongti-SC;-inkscape-font-specification:STSongti-SC-Regular;writing-mode:lr-tb;fill:#000000;fill-opacity:1;fill-rule:nonzero;stroke:none"
           id="text100"><tspan
             x="0"
             y="0"
             id="tspan98">3</tspan></text></g><g
         id="g102"
         transform="translate(651.4562,-147)"><text
           transform="matrix(1,0,0,-1,0,260)"
           style="font-variant:normal;font-weight:normal;font-size:18px;font-family:STSongti-SC;-inkscape-font-specification:STSongti-SC-Regular;writing-mode:lr-tb;fill:#000000;fill-opacity:1;fill-rule:nonzero;stroke:none"
           id="text106"><tspan
             x="0 18 36 54"
             y="0"
             sodipodi:role="line"
             id="tspan104">（参数）</tspan></text></g><g
         id="g108"
         transform="translate(488.5967,-34)"><text
           transform="matrix(1,0,0,-1,0,260)"
           style="font-variant:normal;font-weight:bold;font-size:20px;font-family:STSongti-SC;-inkscape-font-specification:STSongti-SC-Bold;writing-mode:lr-tb;fill:#000000;fill-opacity:1;fill-rule:nonzero;stroke:none"
           id="text112"><tspan
             x="0 20"
             y="0"
             sodipodi:role="line"
             id="tspan110">程序</tspan></text></g><g
         id="g114"
         transform="translate(210.1814,-64)"><text
           transform="matrix(1,0,0,-1,0,260)"
           style="font-variant:normal;font-weight:normal;font-size:18px;font-family:STSongti-SC;-inkscape-font-specification:STSongti-SC-Regular;writing-mode:lr-tb;fill:#000000;fill-opacity:1;fill-rule:nonzero;stroke:none"
           id="text118"><tspan
             x="0 18"
             y="0"
             sodipodi:role="line"
             id="tspan116">前向</tspan></text></g><g
         id="g120"
         transform="translate(601.0888,-184)"><text
           transform="matrix(1,0,0,-1,0,260)"
           style="font-variant:normal;font-weight:normal;font-size:18px;font-family:STSongti-SC;-inkscape-font-specification:STSongti-SC-Regular;writing-mode:lr-tb;fill:#000000;fill-opacity:1;fill-rule:nonzero;stroke:none"
           id="text124"><tspan
             x="0 18"
             y="0"
             sodipodi:role="line"
             id="tspan122">反向</tspan></text></g><g
         id="g126"
         transform="translate(123.1056,-132)"><text
           transform="matrix(1,0,0,-1,0,260)"
           style="font-variant:normal;font-weight:bold;font-size:20px;font-family:STSongti-SC;-inkscape-font-specification:STSongti-SC-Bold;writing-mode:lr-tb;fill:#000000;fill-opacity:1;fill-rule:nonzero;stroke:none"
           id="text130"><tspan
             x="0 20"
             y="0"
             sodipodi:role="line"
             id="tspan128">数据</tspan></text></g><g
         id="g132"
         transform="translate(11.86543,-140)"><text
           transform="matrix(1,0,0,-1,0,260)"
           style="font-variant:normal;font-weight:normal;font-size:18px;font-family:STSongti-SC;-inkscape-font-specification:STSongti-SC-Regular;writing-mode:lr-tb;fill:#000000;fill-opacity:1;fill-rule:nonzero;stroke:none"
           id="text136"><tspan
             x="0 18"
             y="0"
             sodipodi:role="line"
             id="tspan134">设备</tspan></text></g><g
         id="g138"
         transform="translate(47.86543,-140)"><text
           transform="matrix(1,0,0,-1,0,260)"
           style="font-variant:normal;font-weight:normal;font-size:18px;font-family:STSongti-SC;-inkscape-font-specification:STSongti-SC-Regular;writing-mode:lr-tb;fill:#000000;fill-opacity:1;fill-rule:nonzero;stroke:none"
           id="text142"><tspan
             x="0"
             y="0"
             id="tspan140">1</tspan></text></g><path
         d="m 180.5,181.75 129.4448,-1e-4 v -4.5 L 180.5,177.25 Z m 127.1948,4.4999 13.5,-6.75 -13.5,-6.75 z"
         style="fill:#4472c4;fill-opacity:1;fill-rule:nonzero;stroke:none"
         id="path144" /><path
         d="m 402.5,181.75 75.7035,-1e-4 v -4.5 L 402.5,177.25 Z m 73.4535,4.4999 13.5,-6.75 -13.5,-6.75 z"
         style="fill:#4472c4;fill-opacity:1;fill-rule:nonzero;stroke:none"
         id="path146" /><path
         d="m 563.5,180.75 78.6561,-1e-4 v -4.5 L 563.5,176.25 Z m 76.4061,4.4999 13.5,-6.75 -13.5,-6.75 z"
         style="fill:#4472c4;fill-opacity:1;fill-rule:nonzero;stroke:none"
         id="path148" /><path
         d="m 653.3761,100.7499 -77.6501,-0.80835 0.0469,-4.49976 77.65,0.80833 z m -75.4471,3.7148 -13.429,-6.89013 13.5696,-6.60911 z"
         style="fill:#4472c4;fill-opacity:1;fill-rule:nonzero;stroke:none"
         id="path150" /><path
         d="m 491.2052,99.75 -77.4552,-7e-5 v -4.5 l 77.4552,7e-5 z M 416,104.2499 402.5,97.49992 416,90.74993 Z"
         style="fill:#4472c4;fill-opacity:1;fill-rule:nonzero;stroke:none"
         id="path152" /><path
         d="m 319.5,56.5 h 93 v -37 h -93 z"
         style="fill:#afabab;fill-opacity:1;fill-rule:nonzero;stroke:none"
         id="path154" /><g
         id="g156"
         transform="matrix(7.874016e-5,0,0,-7.874016e-5,319.5,56.5)"><path
           d="M 0,0 H 1181100 V 469900 H 0 Z"
           style="fill:none;stroke:#000000;stroke-width:12700;stroke-linecap:butt;stroke-linejoin:miter;stroke-miterlimit:8;stroke-dasharray:none;stroke-opacity:1"
           id="path158" /></g><g
         id="g160"
         transform="translate(343.4833,-226)"><text
           transform="matrix(1,0,0,-1,0,260)"
           style="font-variant:normal;font-weight:normal;font-size:18px;font-family:STSongti-SC;-inkscape-font-specification:STSongti-SC-Regular;writing-mode:lr-tb;fill:#000000;fill-opacity:1;fill-rule:nonzero;stroke:none"
           id="text164"><tspan
             x="0 18"
             y="0"
             sodipodi:role="line"
             id="tspan162">梯度</tspan></text></g><g
         id="g166"
         transform="translate(379.4833,-226)"><text
           transform="matrix(1,0,0,-1,0,260)"
           style="font-variant:normal;font-weight:normal;font-size:18px;font-family:STSongti-SC;-inkscape-font-specification:STSongti-SC-Regular;writing-mode:lr-tb;fill:#000000;fill-opacity:1;fill-rule:nonzero;stroke:none"
           id="text170"><tspan
             x="0"
             y="0"
             id="tspan168">1</tspan></text></g><path
         d="m 478.5,56.5 h 93 v -37 h -93 z"
         style="fill:#afabab;fill-opacity:1;fill-rule:nonzero;stroke:none"
         id="path172" /><g
         id="g174"
         transform="matrix(7.874016e-5,0,0,-7.874016e-5,478.5,56.5)"><path
           d="M 0,0 H 1181100 V 469900 H 0 Z"
           style="fill:none;stroke:#000000;stroke-width:12700;stroke-linecap:butt;stroke-linejoin:miter;stroke-miterlimit:8;stroke-dasharray:none;stroke-opacity:1"
           id="path176" /></g><g
         id="g178"
         transform="translate(504.7962,-227)"><text
           transform="matrix(1,0,0,-1,0,260)"
           style="font-variant:normal;font-weight:normal;font-size:18px;font-family:STSongti-SC;-inkscape-font-specification:STSongti-SC-Regular;writing-mode:lr-tb;fill:#000000;fill-opacity:1;fill-rule:nonzero;stroke:none"
           id="text182"><tspan
             x="0 18"
             y="0"
             sodipodi:role="line"
             id="tspan180">梯度</tspan></text></g><g
         id="g184"
         transform="translate(540.7962,-227)"><text
           transform="matrix(1,0,0,-1,0,260)"
           style="font-variant:normal;font-weight:normal;font-size:18px;font-family:STSongti-SC;-inkscape-font-specification:STSongti-SC-Regular;writing-mode:lr-tb;fill:#000000;fill-opacity:1;fill-rule:nonzero;stroke:none"
           id="text188"><tspan
             x="0"
             y="0"
             id="tspan186">2</tspan></text></g><path
         d="m 640.5,57.5 h 93 v -37 h -93 z"
         style="fill:#afabab;fill-opacity:1;fill-rule:nonzero;stroke:none"
         id="path190" /><g
         id="g192"
         transform="matrix(7.874016e-5,0,0,-7.874016e-5,640.5,57.5)"><path
           d="M 0,0 H 1181100 V 469900 H 0 Z"
           style="fill:none;stroke:#000000;stroke-width:12700;stroke-linecap:butt;stroke-linejoin:miter;stroke-miterlimit:8;stroke-dasharray:none;stroke-opacity:1"
           id="path194" /></g><g
         id="g196"
         transform="translate(664.2755,-227)"><text
           transform="matrix(1,0,0,-1,0,260)"
           style="font-variant:normal;font-weight:normal;font-size:18px;font-family:STSongti-SC;-inkscape-font-specification:STSongti-SC-Regular;writing-mode:lr-tb;fill:#000000;fill-opacity:1;fill-rule:nonzero;stroke:none"
           id="text200"><tspan
             x="0 18"
             y="0"
             sodipodi:role="line"
             id="tspan198">梯度</tspan></text></g><g
         id="g202"
         transform="translate(700.2755,-227)"><text
           transform="matrix(1,0,0,-1,0,260)"
           style="font-variant:normal;font-weight:normal;font-size:18px;font-family:STSongti-SC;-inkscape-font-specification:STSongti-SC-Regular;writing-mode:lr-tb;fill:#000000;fill-opacity:1;fill-rule:nonzero;stroke:none"
           id="text206"><tspan
             x="0"
             y="0"
             id="tspan204">3</tspan></text></g></g></g></svg>
