<?xml version="1.0" encoding="UTF-8" standalone="no"?>
<!-- Created with Inkscape (http://www.inkscape.org/) -->

<svg
   version="1.1"
   id="svg2"
   xml:space="preserve"
   width="997.37134"
   height="451.50781"
   viewBox="0 0 997.37134 451.50781"
   sodipodi:docname="ch10-model-parallel-inter-op.svg"
   inkscape:version="1.1.1 (3bf5ae0d25, 2021-09-20)"
   xmlns:inkscape="http://www.inkscape.org/namespaces/inkscape"
   xmlns:sodipodi="http://sodipodi.sourceforge.net/DTD/sodipodi-0.dtd"
   xmlns="http://www.w3.org/2000/svg"
   xmlns:svg="http://www.w3.org/2000/svg"><defs
     id="defs6"><clipPath
       clipPathUnits="userSpaceOnUse"
       id="clipPath18"><path
         d="M 0,0 H 783 V 361 H 0 Z"
         id="path16" /></clipPath></defs><sodipodi:namedview
     id="namedview4"
     pagecolor="#ffffff"
     bordercolor="#666666"
     borderopacity="1.0"
     inkscape:pageshadow="2"
     inkscape:pageopacity="0.0"
     inkscape:pagecheckerboard="0"
     showgrid="false"
     fit-margin-top="0"
     fit-margin-left="0"
     fit-margin-right="0"
     fit-margin-bottom="0"
     inkscape:zoom="0.64319923"
     inkscape:cx="647.5443"
     inkscape:cy="250.31124"
     inkscape:window-width="1920"
     inkscape:window-height="1137"
     inkscape:window-x="1912"
     inkscape:window-y="-8"
     inkscape:window-maximized="1"
     inkscape:current-layer="g8" /><g
     id="g8"
     inkscape:groupmode="layer"
     inkscape:label="ch10-model-parallel-inter-op"
     transform="matrix(1.3333333,0,0,-1.3333333,-15.269851,470.8815)"><g
       id="g10" /><g
       id="g22"><path
         d="m 77.5,304.3327 c 0,11.6904 9.4769,21.1673 21.16725,21.1673 H 628.3328 c 11.6903,0 21.1672,-9.4769 21.1672,-21.1673 V 219.6673 C 649.5,207.9769 640.0231,198.5 628.3328,198.5 H 98.66725 C 86.9769,198.5 77.5,207.9769 77.5,219.6673 Z"
         style="fill:#e7e6e6;fill-opacity:1;fill-rule:nonzero;stroke:none"
         id="path24" /><g
         id="g26"
         transform="matrix(7.874016e-5,0,0,-7.874016e-5,77.5,325.5)"><path
           d="M 0,268824.6 C 0,120356.9 120356.7,0 268824.1,0 H 6995576 c 148467,0 268824,120356.9 268824,268824.6 V 1344075 c 0,148468 -120357,268825 -268824,268825 H 268824.1 C 120356.7,1612900 0,1492543 0,1344075 Z"
           style="fill:none;stroke:#000000;stroke-width:12700;stroke-linecap:butt;stroke-linejoin:miter;stroke-miterlimit:8;stroke-dasharray:50800, 38100;stroke-dashoffset:0;stroke-opacity:1"
           id="path28" /></g><path
         d="m 100.5,308.5 h 72 v -93 h -72 z"
         style="fill:#ffffff;fill-opacity:1;fill-rule:nonzero;stroke:none"
         id="path30" /><g
         id="g32"
         transform="matrix(7.874016e-5,0,0,-7.874016e-5,100.5,308.5)"><path
           d="M 0,0 H 914400 V 1181100 H 0 Z"
           style="fill:none;stroke:#000000;stroke-width:12700;stroke-linecap:butt;stroke-linejoin:miter;stroke-miterlimit:8;stroke-dasharray:none;stroke-opacity:1"
           id="path34" /></g><g
         id="g36"
         transform="translate(11.06567,-104)"><text
           transform="matrix(1,0,0,-1,0,361)"
           style="font-variant:normal;font-weight:normal;font-size:18px;font-family:STSongti-SC;-inkscape-font-specification:STSongti-SC-Regular;writing-mode:lr-tb;fill:#000000;fill-opacity:1;fill-rule:nonzero;stroke:none"
           id="text40"><tspan
             x="0 18"
             y="0"
             sodipodi:role="line"
             id="tspan38">设备</tspan></text></g><g
         id="g42"
         transform="translate(47.06567,-104)"><text
           transform="matrix(1,0,0,-1,0,361)"
           style="font-variant:normal;font-weight:normal;font-size:18px;font-family:STSongti-SC;-inkscape-font-specification:STSongti-SC-Regular;writing-mode:lr-tb;fill:#000000;fill-opacity:1;fill-rule:nonzero;stroke:none"
           id="text46"><tspan
             x="0"
             y="0"
             id="tspan44">1</tspan></text></g><path
         d="m 77.5,138.8331 c 0,11.414 9.25285,20.6669 20.66682,20.6669 H 628.8332 c 11.414,0 20.6668,-9.2529 20.6668,-20.6669 V 56.16687 C 649.5,44.75287 640.2472,35.5 628.8332,35.5 H 98.16682 C 86.75285,35.5 77.5,44.75287 77.5,56.16687 Z"
         style="fill:#e7e6e6;fill-opacity:1;fill-rule:nonzero;stroke:none"
         id="path48" /><g
         id="g50"
         transform="matrix(7.874016e-5,0,0,-7.874016e-5,77.5,159.5)"><path
           d="M 0,262469.3 C 0,117511.5 117511.2,0 262468.6,0 H 7001932 c 144957,0 262468,117511.5 262468,262469.3 V 1312331 c 0,144958 -117511,262469 -262468,262469 H 262468.6 C 117511.2,1574800 0,1457289 0,1312331 Z"
           style="fill:none;stroke:#000000;stroke-width:12700;stroke-linecap:butt;stroke-linejoin:miter;stroke-miterlimit:8;stroke-dasharray:50800, 38100;stroke-dashoffset:0;stroke-opacity:1"
           id="path52" /></g><g
         id="g54"
         transform="translate(11.06567,-267)"><text
           transform="matrix(1,0,0,-1,0,361)"
           style="font-variant:normal;font-weight:normal;font-size:18px;font-family:STSongti-SC;-inkscape-font-specification:STSongti-SC-Regular;writing-mode:lr-tb;fill:#000000;fill-opacity:1;fill-rule:nonzero;stroke:none"
           id="text58"><tspan
             x="0 18"
             y="0"
             sodipodi:role="line"
             id="tspan56">设备</tspan></text></g><g
         id="g60"
         transform="translate(47.06567,-267)"><text
           transform="matrix(1,0,0,-1,0,361)"
           style="font-variant:normal;font-weight:normal;font-size:18px;font-family:STSongti-SC;-inkscape-font-specification:STSongti-SC-Regular;writing-mode:lr-tb;fill:#000000;fill-opacity:1;fill-rule:nonzero;stroke:none"
           id="text64"><tspan
             x="0"
             y="0"
             id="tspan62">2</tspan></text></g><path
         d="m 100.5,309.5 h 72 v -94 h -72 z"
         style="fill:#9dc3e6;fill-opacity:1;fill-rule:nonzero;stroke:none"
         id="path66" /><g
         id="g68"
         transform="matrix(7.874016e-5,0,0,-7.874016e-5,100.5,309.5)"><path
           d="M 0,0 H 914400 V 1193800 H 0 Z"
           style="fill:none;stroke:#000000;stroke-width:12700;stroke-linecap:butt;stroke-linejoin:miter;stroke-miterlimit:8;stroke-dasharray:none;stroke-opacity:1"
           id="path70" /></g><g
         id="g72"
         transform="translate(117.6847,-103)"><text
           transform="matrix(1,0,0,-1,0,361)"
           style="font-variant:normal;font-weight:normal;font-size:18px;font-family:STSongti-SC;-inkscape-font-specification:STSongti-SC-Regular;writing-mode:lr-tb;fill:#000000;fill-opacity:1;fill-rule:nonzero;stroke:none"
           id="text76"><tspan
             x="0 18"
             y="0"
             sodipodi:role="line"
             id="tspan74">数据</tspan></text></g><path
         d="m 259.5,308.5 h 357 v -93 h -357 z"
         style="fill:#a9d18e;fill-opacity:1;fill-rule:nonzero;stroke:none"
         id="path78" /><g
         id="g80"
         transform="matrix(7.874016e-5,0,0,-7.874016e-5,259.5,308.5)"><path
           d="M 0,0 H 4533900 V 1181100 H 0 Z"
           style="fill:none;stroke:#000000;stroke-width:12700;stroke-linecap:butt;stroke-linejoin:miter;stroke-miterlimit:8;stroke-dasharray:none;stroke-opacity:1"
           id="path82" /></g><g
         id="g84"
         transform="translate(415.6091,-103)"><text
           transform="matrix(1,0,0,-1,0,361)"
           style="font-variant:normal;font-weight:normal;font-size:18px;font-family:STSongti-SC;-inkscape-font-specification:STSongti-SC-Regular;writing-mode:lr-tb;fill:#000000;fill-opacity:1;fill-rule:nonzero;stroke:none"
           id="text88"><tspan
             x="0 18"
             y="0"
             sodipodi:role="line"
             id="tspan86">算⼦</tspan></text></g><g
         id="g90"
         transform="translate(451.6091,-103)"><text
           transform="matrix(1,0,0,-1,0,361)"
           style="font-variant:normal;font-weight:normal;font-size:18px;font-family:STSongti-SC;-inkscape-font-specification:STSongti-SC-Regular;writing-mode:lr-tb;fill:#000000;fill-opacity:1;fill-rule:nonzero;stroke:none"
           id="text94"><tspan
             x="0"
             y="0"
             id="tspan92">1</tspan></text></g><path
         d="m 259.5,145.5 h 359 v -91 h -359 z"
         style="fill:#a9d18e;fill-opacity:1;fill-rule:nonzero;stroke:none"
         id="path96" /><g
         id="g98"
         transform="matrix(7.874016e-5,0,0,-7.874016e-5,259.5,145.5)"><path
           d="M 0,0 H 4559300 V 1155700 H 0 Z"
           style="fill:none;stroke:#000000;stroke-width:12700;stroke-linecap:butt;stroke-linejoin:miter;stroke-miterlimit:8;stroke-dasharray:none;stroke-opacity:1"
           id="path100" /></g><g
         id="g102"
         transform="translate(414.8385,-270)"><text
           transform="matrix(1,0,0,-1,0,361)"
           style="font-variant:normal;font-weight:normal;font-size:18px;font-family:STSongti-SC;-inkscape-font-specification:STSongti-SC-Regular;writing-mode:lr-tb;fill:#000000;fill-opacity:1;fill-rule:nonzero;stroke:none"
           id="text106"><tspan
             x="0 18"
             y="0"
             sodipodi:role="line"
             id="tspan104">算⼦</tspan></text></g><g
         id="g108"
         transform="translate(450.8385,-270)"><text
           transform="matrix(1,0,0,-1,0,361)"
           style="font-variant:normal;font-weight:normal;font-size:18px;font-family:STSongti-SC;-inkscape-font-specification:STSongti-SC-Regular;writing-mode:lr-tb;fill:#000000;fill-opacity:1;fill-rule:nonzero;stroke:none"
           id="text112"><tspan
             x="0"
             y="0"
             id="tspan110">2</tspan></text></g><path
         d="m 172.5062,264.75 75.6872,-0.2098 -0.0125,-4.5 -75.6871,0.2098 z m 73.4497,4.2964 13.4813,-6.7874 -13.5187,-6.7126 z"
         style="fill:#4472c4;fill-opacity:1;fill-rule:nonzero;stroke:none"
         id="path114" /><path
         d="M 618.1843,265.75 H 670.75 V 172.5607 H 207.5 l 2.2497,2.2891 1.3598,-78.31075 -2.2497,2.21095 h 37.7058 v -4.5 h -39.9171 l -1.4379,82.8107 H 668.5 l -2.25,-2.25 V 263.5 l 2.25,-2.25 h -50.3157 z m -373.8687,-162.5 13.5,-6.75 -13.5,-6.75 z"
         style="fill:#4472c4;fill-opacity:1;fill-rule:nonzero;stroke:none"
         id="path116" /><g
         id="g118"
         transform="translate(699.2319,-84)"><text
           transform="matrix(1,0,0,-1,0,361)"
           style="font-variant:normal;font-weight:normal;font-size:18px;font-family:STSongti-SC;-inkscape-font-specification:STSongti-SC-Regular;writing-mode:lr-tb;fill:#000000;fill-opacity:1;fill-rule:nonzero;stroke:none"
           id="text122"><tspan
             x="0 9 16.992001 27"
             y="0"
             sodipodi:role="line"
             id="tspan120">Send</tspan></text></g><g
         id="g124"
         transform="translate(663.2319,-106)"><text
           transform="matrix(1,0,0,-1,0,361)"
           style="font-variant:normal;font-weight:normal;font-size:18px;font-family:STSongti-SC;-inkscape-font-specification:STSongti-SC-Regular;writing-mode:lr-tb;fill:#000000;fill-opacity:1;fill-rule:nonzero;stroke:none"
           id="text128"><tspan
             x="0 18 36 54 72 90"
             y="0"
             sodipodi:role="line"
             id="tspan126">（发送数据）</tspan></text></g><g
         id="g130"
         transform="translate(130.2561,-195)"><text
           transform="matrix(1,0,0,-1,0,361)"
           style="font-variant:normal;font-weight:normal;font-size:18px;font-family:STSongti-SC;-inkscape-font-specification:STSongti-SC-Regular;writing-mode:lr-tb;fill:#000000;fill-opacity:1;fill-rule:nonzero;stroke:none"
           id="text134"><tspan
             x="0 10.9998 18.993601 25.9974 33.991199 38.997002 46.990799"
             y="0"
             sodipodi:role="line"
             id="tspan132">Receive</tspan></text></g><g
         id="g136"
         transform="translate(103.2561,-217)"><text
           transform="matrix(1,0,0,-1,0,361)"
           style="font-variant:normal;font-weight:normal;font-size:18px;font-family:STSongti-SC;-inkscape-font-specification:STSongti-SC-Regular;writing-mode:lr-tb;fill:#000000;fill-opacity:1;fill-rule:nonzero;stroke:none"
           id="text140"><tspan
             x="0 18 36 54 72 90"
             y="0"
             sodipodi:role="line"
             id="tspan138">（接收数据）</tspan></text></g><g
         id="g142"
         transform="translate(358.2626,-344)"><text
           transform="matrix(1,0,0,-1,0,361)"
           style="font-variant:normal;font-weight:normal;font-size:18px;font-family:STSongti-SC;-inkscape-font-specification:STSongti-SC-Regular;writing-mode:lr-tb;fill:#000000;fill-opacity:1;fill-rule:nonzero;stroke:none"
           id="text146"><tspan
             x="0 18 36 54"
             y="0"
             sodipodi:role="line"
             id="tspan144">程序分区</tspan></text></g><g
         id="g148"
         transform="translate(430.2626,-344)"><text
           transform="matrix(1,0,0,-1,0,361)"
           style="font-variant:normal;font-weight:normal;font-size:18px;font-family:STSongti-SC;-inkscape-font-specification:STSongti-SC-Regular;writing-mode:lr-tb;fill:#000000;fill-opacity:1;fill-rule:nonzero;stroke:none"
           id="text152"><tspan
             x="0"
             y="0"
             id="tspan150">2</tspan></text></g><g
         id="g154"
         transform="translate(358.2625,-23)"><text
           transform="matrix(1,0,0,-1,0,361)"
           style="font-variant:normal;font-weight:normal;font-size:18px;font-family:STSongti-SC;-inkscape-font-specification:STSongti-SC-Regular;writing-mode:lr-tb;fill:#000000;fill-opacity:1;fill-rule:nonzero;stroke:none"
           id="text158"><tspan
             x="0 18 36 54"
             y="0"
             sodipodi:role="line"
             id="tspan156">程序分区</tspan></text></g><g
         id="g160"
         transform="translate(430.2625,-23)"><text
           transform="matrix(1,0,0,-1,0,361)"
           style="font-variant:normal;font-weight:normal;font-size:18px;font-family:STSongti-SC;-inkscape-font-specification:STSongti-SC-Regular;writing-mode:lr-tb;fill:#000000;fill-opacity:1;fill-rule:nonzero;stroke:none"
           id="text164"><tspan
             x="0"
             y="0"
             id="tspan162">1</tspan></text></g></g></g></svg>
