<?xml version="1.0" encoding="UTF-8" standalone="no"?>
<!-- Created with Inkscape (http://www.inkscape.org/) -->

<svg
   version="1.1"
   id="svg2"
   xml:space="preserve"
   width="1090.656"
   height="313.41534"
   viewBox="0 0 1090.656 313.41534"
   sodipodi:docname="ch10-pipeline-parallel.svg"
   inkscape:version="1.1.1 (3bf5ae0d25, 2021-09-20)"
   xmlns:inkscape="http://www.inkscape.org/namespaces/inkscape"
   xmlns:sodipodi="http://sodipodi.sourceforge.net/DTD/sodipodi-0.dtd"
   xmlns="http://www.w3.org/2000/svg"
   xmlns:svg="http://www.w3.org/2000/svg"><defs
     id="defs6"><clipPath
       clipPathUnits="userSpaceOnUse"
       id="clipPath18"><path
         d="M 0,0 H 833 V 256 H 0 Z"
         id="path16" /></clipPath></defs><sodipodi:namedview
     id="namedview4"
     pagecolor="#ffffff"
     bordercolor="#666666"
     borderopacity="1.0"
     inkscape:pageshadow="2"
     inkscape:pageopacity="0.0"
     inkscape:pagecheckerboard="0"
     showgrid="false"
     fit-margin-top="0"
     fit-margin-left="0"
     fit-margin-right="0"
     fit-margin-bottom="0"
     inkscape:zoom="0.83401244"
     inkscape:cx="489.80085"
     inkscape:cy="182.25148"
     inkscape:window-width="1920"
     inkscape:window-height="1137"
     inkscape:window-x="1912"
     inkscape:window-y="-8"
     inkscape:window-maximized="1"
     inkscape:current-layer="g8" /><g
     id="g8"
     inkscape:groupmode="layer"
     inkscape:label="ch10-pipeline-parallel"
     transform="matrix(1.3333333,0,0,-1.3333333,-16.010641,330.62369)"><g
       id="g10" /><g
       id="g22"><path
         d="m 186,90 h 56 V 57 h -56 z"
         style="fill:#bdd7ee;fill-opacity:1;fill-rule:nonzero;stroke:none"
         id="path24" /><g
         id="g26"
         transform="translate(205.7981,-188)"><text
           transform="matrix(1,0,0,-1,0,256)"
           style="font-variant:normal;font-weight:normal;font-size:18px;font-family:STSongti-SC;-inkscape-font-specification:STSongti-SC-Regular;writing-mode:lr-tb;fill:#000000;fill-opacity:1;fill-rule:nonzero;stroke:none"
           id="text30"><tspan
             x="0"
             y="0"
             id="tspan28">F</tspan></text></g><g
         id="g32"
         transform="translate(215.7981,-191)"><text
           transform="matrix(1,0,0,-1,0,256)"
           style="font-variant:normal;font-weight:normal;font-size:12px;font-family:STSongti-SC;-inkscape-font-specification:STSongti-SC-Regular;writing-mode:lr-tb;fill:#000000;fill-opacity:1;fill-rule:nonzero;stroke:none"
           id="text36"><tspan
             x="0"
             y="0"
             id="tspan34">0</tspan></text></g><path
         d="m 241,123 h 57 V 90 h -57 z"
         style="fill:#bdd7ee;fill-opacity:1;fill-rule:nonzero;stroke:none"
         id="path38" /><g
         id="g40"
         transform="translate(261.4467,-155)"><text
           transform="matrix(1,0,0,-1,0,256)"
           style="font-variant:normal;font-weight:normal;font-size:18px;font-family:STSongti-SC;-inkscape-font-specification:STSongti-SC-Regular;writing-mode:lr-tb;fill:#000000;fill-opacity:1;fill-rule:nonzero;stroke:none"
           id="text44"><tspan
             x="0"
             y="0"
             id="tspan42">F</tspan></text></g><g
         id="g46"
         transform="translate(271.4467,-158)"><text
           transform="matrix(1,0,0,-1,0,256)"
           style="font-variant:normal;font-weight:normal;font-size:12px;font-family:STSongti-SC;-inkscape-font-specification:STSongti-SC-Regular;writing-mode:lr-tb;fill:#000000;fill-opacity:1;fill-rule:nonzero;stroke:none"
           id="text50"><tspan
             x="0"
             y="0"
             id="tspan48">1</tspan></text></g><path
         d="m 298,157 h 56 v -33 h -56 z"
         style="fill:#bdd7ee;fill-opacity:1;fill-rule:nonzero;stroke:none"
         id="path52" /><g
         id="g54"
         transform="translate(318.0303,-121)"><text
           transform="matrix(1,0,0,-1,0,256)"
           style="font-variant:normal;font-weight:normal;font-size:18px;font-family:STSongti-SC;-inkscape-font-specification:STSongti-SC-Regular;writing-mode:lr-tb;fill:#000000;fill-opacity:1;fill-rule:nonzero;stroke:none"
           id="text58"><tspan
             x="0"
             y="0"
             id="tspan56">F</tspan></text></g><g
         id="g60"
         transform="translate(328.0303,-124)"><text
           transform="matrix(1,0,0,-1,0,256)"
           style="font-variant:normal;font-weight:normal;font-size:12px;font-family:STSongti-SC;-inkscape-font-specification:STSongti-SC-Regular;writing-mode:lr-tb;fill:#000000;fill-opacity:1;fill-rule:nonzero;stroke:none"
           id="text64"><tspan
             x="0"
             y="0"
             id="tspan62">2</tspan></text></g><path
         d="m 354,191 h 57 v -34 h -57 z"
         style="fill:#bdd7ee;fill-opacity:1;fill-rule:nonzero;stroke:none"
         id="path66" /><g
         id="g68"
         transform="translate(374.6138,-87)"><text
           transform="matrix(1,0,0,-1,0,256)"
           style="font-variant:normal;font-weight:normal;font-size:18px;font-family:STSongti-SC;-inkscape-font-specification:STSongti-SC-Regular;writing-mode:lr-tb;fill:#000000;fill-opacity:1;fill-rule:nonzero;stroke:none"
           id="text72"><tspan
             x="0"
             y="0"
             id="tspan70">F</tspan></text></g><g
         id="g74"
         transform="translate(384.6138,-90)"><text
           transform="matrix(1,0,0,-1,0,256)"
           style="font-variant:normal;font-weight:normal;font-size:12px;font-family:STSongti-SC;-inkscape-font-specification:STSongti-SC-Regular;writing-mode:lr-tb;fill:#000000;fill-opacity:1;fill-rule:nonzero;stroke:none"
           id="text78"><tspan
             x="0"
             y="0"
             id="tspan76">3</tspan></text></g><path
         d="m 470,191 h 62 v -34 h -62 z"
         style="fill:#afabab;fill-opacity:1;fill-rule:nonzero;stroke:none"
         id="path80" /><g
         id="g82"
         transform="translate(491.7736,-87)"><text
           transform="matrix(1,0,0,-1,0,256)"
           style="font-variant:normal;font-weight:normal;font-size:18px;font-family:STSongti-SC;-inkscape-font-specification:STSongti-SC-Regular;writing-mode:lr-tb;fill:#000000;fill-opacity:1;fill-rule:nonzero;stroke:none"
           id="text86"><tspan
             x="0"
             y="0"
             id="tspan84">B</tspan></text></g><g
         id="g88"
         transform="translate(502.7736,-90)"><text
           transform="matrix(1,0,0,-1,0,256)"
           style="font-variant:normal;font-weight:normal;font-size:12px;font-family:STSongti-SC;-inkscape-font-specification:STSongti-SC-Regular;writing-mode:lr-tb;fill:#000000;fill-opacity:1;fill-rule:nonzero;stroke:none"
           id="text92"><tspan
             x="0"
             y="0"
             id="tspan90">3</tspan></text></g><path
         d="m 532,157 h 75 v -33 h -75 z"
         style="fill:#afabab;fill-opacity:1;fill-rule:nonzero;stroke:none"
         id="path94" /><g
         id="g96"
         transform="translate(560.2103,-121)"><text
           transform="matrix(1,0,0,-1,0,256)"
           style="font-variant:normal;font-weight:normal;font-size:18px;font-family:STSongti-SC;-inkscape-font-specification:STSongti-SC-Regular;writing-mode:lr-tb;fill:#000000;fill-opacity:1;fill-rule:nonzero;stroke:none"
           id="text100"><tspan
             x="0"
             y="0"
             id="tspan98">B</tspan></text></g><g
         id="g102"
         transform="translate(571.2103,-124)"><text
           transform="matrix(1,0,0,-1,0,256)"
           style="font-variant:normal;font-weight:normal;font-size:12px;font-family:STSongti-SC;-inkscape-font-specification:STSongti-SC-Regular;writing-mode:lr-tb;fill:#000000;fill-opacity:1;fill-rule:nonzero;stroke:none"
           id="text106"><tspan
             x="0"
             y="0"
             id="tspan104">2</tspan></text></g><path
         d="m 607,123 h 74 V 90 h -74 z"
         style="fill:#afabab;fill-opacity:1;fill-rule:nonzero;stroke:none"
         id="path108" /><g
         id="g110"
         transform="translate(634.7817,-155)"><text
           transform="matrix(1,0,0,-1,0,256)"
           style="font-variant:normal;font-weight:normal;font-size:18px;font-family:STSongti-SC;-inkscape-font-specification:STSongti-SC-Regular;writing-mode:lr-tb;fill:#000000;fill-opacity:1;fill-rule:nonzero;stroke:none"
           id="text114"><tspan
             x="0"
             y="0"
             id="tspan112">B</tspan></text></g><g
         id="g116"
         transform="translate(645.7817,-158)"><text
           transform="matrix(1,0,0,-1,0,256)"
           style="font-variant:normal;font-weight:normal;font-size:12px;font-family:STSongti-SC;-inkscape-font-specification:STSongti-SC-Regular;writing-mode:lr-tb;fill:#000000;fill-opacity:1;fill-rule:nonzero;stroke:none"
           id="text120"><tspan
             x="0"
             y="0"
             id="tspan118">1</tspan></text></g><path
         d="m 681,90 h 75 V 57 h -75 z"
         style="fill:#afabab;fill-opacity:1;fill-rule:nonzero;stroke:none"
         id="path122" /><g
         id="g124"
         transform="translate(709.3531,-188)"><text
           transform="matrix(1,0,0,-1,0,256)"
           style="font-variant:normal;font-weight:normal;font-size:18px;font-family:STSongti-SC;-inkscape-font-specification:STSongti-SC-Regular;writing-mode:lr-tb;fill:#000000;fill-opacity:1;fill-rule:nonzero;stroke:none"
           id="text128"><tspan
             x="0"
             y="0"
             id="tspan126">B</tspan></text></g><g
         id="g130"
         transform="translate(720.3531,-191)"><text
           transform="matrix(1,0,0,-1,0,256)"
           style="font-variant:normal;font-weight:normal;font-size:12px;font-family:STSongti-SC;-inkscape-font-specification:STSongti-SC-Regular;writing-mode:lr-tb;fill:#000000;fill-opacity:1;fill-rule:nonzero;stroke:none"
           id="text134"><tspan
             x="0"
             y="0"
             id="tspan132">0</tspan></text></g><path
         d="m 242,90 h 57 V 57 h -57 z"
         style="fill:#deebf7;fill-opacity:1;fill-rule:nonzero;stroke:none"
         id="path136" /><g
         id="g138"
         transform="translate(262.0973,-188)"><text
           transform="matrix(1,0,0,-1,0,256)"
           style="font-variant:normal;font-weight:normal;font-size:18px;font-family:STSongti-SC;-inkscape-font-specification:STSongti-SC-Regular;writing-mode:lr-tb;fill:#000000;fill-opacity:1;fill-rule:nonzero;stroke:none"
           id="text142"><tspan
             x="0"
             y="0"
             id="tspan140">F</tspan></text></g><g
         id="g144"
         transform="translate(272.0973,-191)"><text
           transform="matrix(1,0,0,-1,0,256)"
           style="font-variant:normal;font-weight:normal;font-size:12px;font-family:STSongti-SC;-inkscape-font-specification:STSongti-SC-Regular;writing-mode:lr-tb;fill:#000000;fill-opacity:1;fill-rule:nonzero;stroke:none"
           id="text148"><tspan
             x="0"
             y="0"
             id="tspan146">0</tspan></text></g><path
         d="m 299,123 h 56 V 90 h -56 z"
         style="fill:#deebf7;fill-opacity:1;fill-rule:nonzero;stroke:none"
         id="path150" /><g
         id="g152"
         transform="translate(318.7902,-155)"><text
           transform="matrix(1,0,0,-1,0,256)"
           style="font-variant:normal;font-weight:normal;font-size:18px;font-family:STSongti-SC;-inkscape-font-specification:STSongti-SC-Regular;writing-mode:lr-tb;fill:#000000;fill-opacity:1;fill-rule:nonzero;stroke:none"
           id="text156"><tspan
             x="0"
             y="0"
             id="tspan154">F</tspan></text></g><g
         id="g158"
         transform="translate(328.7902,-158)"><text
           transform="matrix(1,0,0,-1,0,256)"
           style="font-variant:normal;font-weight:normal;font-size:12px;font-family:STSongti-SC;-inkscape-font-specification:STSongti-SC-Regular;writing-mode:lr-tb;fill:#000000;fill-opacity:1;fill-rule:nonzero;stroke:none"
           id="text162"><tspan
             x="0"
             y="0"
             id="tspan160">1</tspan></text></g><path
         d="m 354,157 h 57 v -33 h -57 z"
         style="fill:#deebf7;fill-opacity:1;fill-rule:nonzero;stroke:none"
         id="path164" /><g
         id="g166"
         transform="translate(374.6138,-121)"><text
           transform="matrix(1,0,0,-1,0,256)"
           style="font-variant:normal;font-weight:normal;font-size:18px;font-family:STSongti-SC;-inkscape-font-specification:STSongti-SC-Regular;writing-mode:lr-tb;fill:#000000;fill-opacity:1;fill-rule:nonzero;stroke:none"
           id="text170"><tspan
             x="0"
             y="0"
             id="tspan168">F</tspan></text></g><g
         id="g172"
         transform="translate(384.6138,-124)"><text
           transform="matrix(1,0,0,-1,0,256)"
           style="font-variant:normal;font-weight:normal;font-size:12px;font-family:STSongti-SC;-inkscape-font-specification:STSongti-SC-Regular;writing-mode:lr-tb;fill:#000000;fill-opacity:1;fill-rule:nonzero;stroke:none"
           id="text176"><tspan
             x="0"
             y="0"
             id="tspan174">2</tspan></text></g><path
         d="m 412,191 h 56 v -34 h -56 z"
         style="fill:#deebf7;fill-opacity:1;fill-rule:nonzero;stroke:none"
         id="path178" /><g
         id="g180"
         transform="translate(431.8127,-87)"><text
           transform="matrix(1,0,0,-1,0,256)"
           style="font-variant:normal;font-weight:normal;font-size:18px;font-family:STSongti-SC;-inkscape-font-specification:STSongti-SC-Regular;writing-mode:lr-tb;fill:#000000;fill-opacity:1;fill-rule:nonzero;stroke:none"
           id="text184"><tspan
             x="0"
             y="0"
             id="tspan182">F</tspan></text></g><g
         id="g186"
         transform="translate(441.8127,-90)"><text
           transform="matrix(1,0,0,-1,0,256)"
           style="font-variant:normal;font-weight:normal;font-size:12px;font-family:STSongti-SC;-inkscape-font-specification:STSongti-SC-Regular;writing-mode:lr-tb;fill:#000000;fill-opacity:1;fill-rule:nonzero;stroke:none"
           id="text190"><tspan
             x="0"
             y="0"
             id="tspan188">3</tspan></text></g><path
         d="m 532,191 h 74 v -34 h -74 z"
         style="fill:#d0cece;fill-opacity:1;fill-rule:nonzero;stroke:none"
         id="path192" /><g
         id="g194"
         transform="translate(559.7794,-87)"><text
           transform="matrix(1,0,0,-1,0,256)"
           style="font-variant:normal;font-weight:normal;font-size:18px;font-family:STSongti-SC;-inkscape-font-specification:STSongti-SC-Regular;writing-mode:lr-tb;fill:#000000;fill-opacity:1;fill-rule:nonzero;stroke:none"
           id="text198"><tspan
             x="0"
             y="0"
             id="tspan196">B</tspan></text></g><g
         id="g200"
         transform="translate(570.7794,-90)"><text
           transform="matrix(1,0,0,-1,0,256)"
           style="font-variant:normal;font-weight:normal;font-size:12px;font-family:STSongti-SC;-inkscape-font-specification:STSongti-SC-Regular;writing-mode:lr-tb;fill:#000000;fill-opacity:1;fill-rule:nonzero;stroke:none"
           id="text204"><tspan
             x="0"
             y="0"
             id="tspan202">3</tspan></text></g><path
         d="m 607,157 h 74 v -33 h -74 z"
         style="fill:#d0cece;fill-opacity:1;fill-rule:nonzero;stroke:none"
         id="path206" /><g
         id="g208"
         transform="translate(634.7817,-121)"><text
           transform="matrix(1,0,0,-1,0,256)"
           style="font-variant:normal;font-weight:normal;font-size:18px;font-family:STSongti-SC;-inkscape-font-specification:STSongti-SC-Regular;writing-mode:lr-tb;fill:#000000;fill-opacity:1;fill-rule:nonzero;stroke:none"
           id="text212"><tspan
             x="0"
             y="0"
             id="tspan210">B</tspan></text></g><g
         id="g214"
         transform="translate(645.7817,-124)"><text
           transform="matrix(1,0,0,-1,0,256)"
           style="font-variant:normal;font-weight:normal;font-size:12px;font-family:STSongti-SC;-inkscape-font-specification:STSongti-SC-Regular;writing-mode:lr-tb;fill:#000000;fill-opacity:1;fill-rule:nonzero;stroke:none"
           id="text218"><tspan
             x="0"
             y="0"
             id="tspan216">2</tspan></text></g><path
         d="m 680,123 h 75 V 90 h -75 z"
         style="fill:#d0cece;fill-opacity:1;fill-rule:nonzero;stroke:none"
         id="path220" /><g
         id="g222"
         transform="translate(708.7025,-155)"><text
           transform="matrix(1,0,0,-1,0,256)"
           style="font-variant:normal;font-weight:normal;font-size:18px;font-family:STSongti-SC;-inkscape-font-specification:STSongti-SC-Regular;writing-mode:lr-tb;fill:#000000;fill-opacity:1;fill-rule:nonzero;stroke:none"
           id="text226"><tspan
             x="0"
             y="0"
             id="tspan224">B</tspan></text></g><g
         id="g228"
         transform="translate(719.7025,-158)"><text
           transform="matrix(1,0,0,-1,0,256)"
           style="font-variant:normal;font-weight:normal;font-size:12px;font-family:STSongti-SC;-inkscape-font-specification:STSongti-SC-Regular;writing-mode:lr-tb;fill:#000000;fill-opacity:1;fill-rule:nonzero;stroke:none"
           id="text232"><tspan
             x="0"
             y="0"
             id="tspan230">1</tspan></text></g><path
         d="m 756,90 h 74 V 57 h -74 z"
         style="fill:#d0cece;fill-opacity:1;fill-rule:nonzero;stroke:none"
         id="path234" /><g
         id="g236"
         transform="translate(783.9246,-188)"><text
           transform="matrix(1,0,0,-1,0,256)"
           style="font-variant:normal;font-weight:normal;font-size:18px;font-family:STSongti-SC;-inkscape-font-specification:STSongti-SC-Regular;writing-mode:lr-tb;fill:#000000;fill-opacity:1;fill-rule:nonzero;stroke:none"
           id="text240"><tspan
             x="0"
             y="0"
             id="tspan238">B</tspan></text></g><g
         id="g242"
         transform="translate(794.9246,-191)"><text
           transform="matrix(1,0,0,-1,0,256)"
           style="font-variant:normal;font-weight:normal;font-size:12px;font-family:STSongti-SC;-inkscape-font-specification:STSongti-SC-Regular;writing-mode:lr-tb;fill:#000000;fill-opacity:1;fill-rule:nonzero;stroke:none"
           id="text246"><tspan
             x="0"
             y="0"
             id="tspan244">0</tspan></text></g><g
         id="g248"
         transform="translate(76.85417,-189)"><text
           transform="matrix(1,0,0,-1,0,256)"
           style="font-variant:normal;font-weight:normal;font-size:18px;font-family:STSongti-SC;-inkscape-font-specification:STSongti-SC-Regular;writing-mode:lr-tb;fill:#000000;fill-opacity:1;fill-rule:nonzero;stroke:none"
           id="text252"><tspan
             x="0 18"
             y="0"
             sodipodi:role="line"
             id="tspan250">设备</tspan></text></g><g
         id="g254"
         transform="translate(112.8542,-189)"><text
           transform="matrix(1,0,0,-1,0,256)"
           style="font-variant:normal;font-weight:normal;font-size:18px;font-family:STSongti-SC;-inkscape-font-specification:STSongti-SC-Regular;writing-mode:lr-tb;fill:#000000;fill-opacity:1;fill-rule:nonzero;stroke:none"
           id="text258"><tspan
             x="0"
             y="0"
             id="tspan256">1</tspan></text></g><g
         id="g260"
         transform="translate(76.85417,-155)"><text
           transform="matrix(1,0,0,-1,0,256)"
           style="font-variant:normal;font-weight:normal;font-size:18px;font-family:STSongti-SC;-inkscape-font-specification:STSongti-SC-Regular;writing-mode:lr-tb;fill:#000000;fill-opacity:1;fill-rule:nonzero;stroke:none"
           id="text264"><tspan
             x="0 18"
             y="0"
             sodipodi:role="line"
             id="tspan262">设备</tspan></text></g><g
         id="g266"
         transform="translate(112.8542,-155)"><text
           transform="matrix(1,0,0,-1,0,256)"
           style="font-variant:normal;font-weight:normal;font-size:18px;font-family:STSongti-SC;-inkscape-font-specification:STSongti-SC-Regular;writing-mode:lr-tb;fill:#000000;fill-opacity:1;fill-rule:nonzero;stroke:none"
           id="text270"><tspan
             x="0"
             y="0"
             id="tspan268">2</tspan></text></g><g
         id="g272"
         transform="translate(76.87843,-120)"><text
           transform="matrix(1,0,0,-1,0,256)"
           style="font-variant:normal;font-weight:normal;font-size:18px;font-family:STSongti-SC;-inkscape-font-specification:STSongti-SC-Regular;writing-mode:lr-tb;fill:#000000;fill-opacity:1;fill-rule:nonzero;stroke:none"
           id="text276"><tspan
             x="0 18"
             y="0"
             sodipodi:role="line"
             id="tspan274">设备</tspan></text></g><g
         id="g278"
         transform="translate(112.8784,-120)"><text
           transform="matrix(1,0,0,-1,0,256)"
           style="font-variant:normal;font-weight:normal;font-size:18px;font-family:STSongti-SC;-inkscape-font-specification:STSongti-SC-Regular;writing-mode:lr-tb;fill:#000000;fill-opacity:1;fill-rule:nonzero;stroke:none"
           id="text282"><tspan
             x="0"
             y="0"
             id="tspan280">3</tspan></text></g><g
         id="g284"
         transform="translate(76.85417,-86)"><text
           transform="matrix(1,0,0,-1,0,256)"
           style="font-variant:normal;font-weight:normal;font-size:18px;font-family:STSongti-SC;-inkscape-font-specification:STSongti-SC-Regular;writing-mode:lr-tb;fill:#000000;fill-opacity:1;fill-rule:nonzero;stroke:none"
           id="text288"><tspan
             x="0 18"
             y="0"
             sodipodi:role="line"
             id="tspan286">设备</tspan></text></g><g
         id="g290"
         transform="translate(112.8542,-86)"><text
           transform="matrix(1,0,0,-1,0,256)"
           style="font-variant:normal;font-weight:normal;font-size:18px;font-family:STSongti-SC;-inkscape-font-specification:STSongti-SC-Regular;writing-mode:lr-tb;fill:#000000;fill-opacity:1;fill-rule:nonzero;stroke:none"
           id="text294"><tspan
             x="0"
             y="0"
             id="tspan292">4</tspan></text></g><g
         id="g296"
         transform="translate(69.05582,-240)"><text
           transform="matrix(1,0,0,-1,0,256)"
           style="font-variant:normal;font-weight:normal;font-size:18px;font-family:STSongti-SC;-inkscape-font-specification:STSongti-SC-Regular;writing-mode:lr-tb;fill:#000000;fill-opacity:1;fill-rule:nonzero;stroke:none"
           id="text300"><tspan
             x="0 18 36 54 72 90"
             y="0"
             sodipodi:role="line"
             id="tspan298">将数据切分为</tspan></text></g><g
         id="g302"
         transform="translate(177.0558,-240)"><text
           transform="matrix(1,0,0,-1,0,256)"
           style="font-variant:normal;font-weight:bold;font-size:18px;font-family:STSongti-SC;-inkscape-font-specification:STSongti-SC-Bold;writing-mode:lr-tb;fill:#000000;fill-opacity:1;fill-rule:nonzero;stroke:none"
           id="text306"><tspan
             x="0 18 36"
             y="0"
             sodipodi:role="line"
             id="tspan304">微批次</tspan></text></g><g
         id="g308"
         transform="translate(231.0558,-240)"><text
           transform="matrix(1,0,0,-1,0,256)"
           style="font-variant:normal;font-weight:normal;font-size:18px;font-family:STSongti-SC;-inkscape-font-specification:STSongti-SC-Regular;writing-mode:lr-tb;fill:#000000;fill-opacity:1;fill-rule:nonzero;stroke:none"
           id="text312"><tspan
             x="0"
             y="0"
             id="tspan310">（</tspan></text></g><g
         id="g314"
         transform="translate(249.0558,-240)"><text
           transform="matrix(1,0,0,-1,0,256)"
           style="font-variant:normal;font-weight:normal;font-size:18px;font-family:STSongti-SC;-inkscape-font-specification:STSongti-SC-Regular;writing-mode:lr-tb;fill:#000000;fill-opacity:1;fill-rule:nonzero;stroke:none"
           id="text318"><tspan
             x="0 14.9994 20.008801 27.016199 34.023602"
             y="0"
             sodipodi:role="line"
             id="tspan316">Micro</tspan></text></g><g
         id="g320"
         transform="translate(292.0558,-240)"><text
           transform="matrix(1,0,0,-1,0,256)"
           style="font-variant:normal;font-weight:normal;font-size:18px;font-family:STSongti-SC;-inkscape-font-specification:STSongti-SC-Regular;writing-mode:lr-tb;fill:#000000;fill-opacity:1;fill-rule:nonzero;stroke:none"
           id="text324"><tspan
             x="0"
             y="0"
             id="tspan322">-</tspan></text></g><g
         id="g326"
         transform="translate(298.0558,-240)"><text
           transform="matrix(1,0,0,-1,0,256)"
           style="font-variant:normal;font-weight:normal;font-size:18px;font-family:STSongti-SC;-inkscape-font-specification:STSongti-SC-Regular;writing-mode:lr-tb;fill:#000000;fill-opacity:1;fill-rule:nonzero;stroke:none"
           id="text330"><tspan
             x="0 9 18 23.993999 30.996"
             y="0"
             sodipodi:role="line"
             id="tspan328">batch</tspan></text></g><g
         id="g332"
         transform="translate(339.0558,-240)"><text
           transform="matrix(1,0,0,-1,0,256)"
           style="font-variant:normal;font-weight:normal;font-size:18px;font-family:STSongti-SC;-inkscape-font-specification:STSongti-SC-Regular;writing-mode:lr-tb;fill:#000000;fill-opacity:1;fill-rule:nonzero;stroke:none"
           id="text336"><tspan
             x="0 18 36 54 72 90 108"
             y="0"
             sodipodi:role="line"
             id="tspan334">）来构建流⽔线</tspan></text></g><path
         d="m 182,215.125 639.0713,-1e-4 v -2.25 L 182,212.875 Z m 637.9462,2.2499 6.75,-3.375 -6.75,-3.375 z"
         style="fill:#000000;fill-opacity:1;fill-rule:nonzero;stroke:none"
         id="path338" /><g
         id="g340"
         transform="translate(781.6303,-23)"><text
           transform="matrix(1,0,0,-1,0,256)"
           style="font-variant:normal;font-weight:normal;font-size:18px;font-family:STSongti-SC;-inkscape-font-specification:STSongti-SC-Regular;writing-mode:lr-tb;fill:#000000;fill-opacity:1;fill-rule:nonzero;stroke:none"
           id="text344"><tspan
             x="0 18"
             y="0"
             sodipodi:role="line"
             id="tspan342">时间</tspan></text></g><g
         id="g346"
         transform="translate(182.8676,-77)"><text
           transform="matrix(1,0,0,-1,0,256)"
           style="font-variant:normal;font-weight:normal;font-size:18px;font-family:STSongti-SC;-inkscape-font-specification:STSongti-SC-Regular;writing-mode:lr-tb;fill:#000000;fill-opacity:1;fill-rule:nonzero;stroke:none"
           id="text350"><tspan
             x="0 18 36 54"
             y="0"
             sodipodi:role="line"
             id="tspan348">前向计算</tspan></text></g><g
         id="g352"
         transform="translate(715.5527,-75)"><text
           transform="matrix(1,0,0,-1,0,256)"
           style="font-variant:normal;font-weight:normal;font-size:18px;font-family:STSongti-SC;-inkscape-font-specification:STSongti-SC-Regular;writing-mode:lr-tb;fill:#000000;fill-opacity:1;fill-rule:nonzero;stroke:none"
           id="text356"><tspan
             x="0 18 36 54"
             y="0"
             sodipodi:role="line"
             id="tspan354">后向计算</tspan></text></g><path
         d="m 36.5,183.5 h 25 v -16 h -25 z"
         style="fill:#a9d18e;fill-opacity:1;fill-rule:nonzero;stroke:none"
         id="path358" /><g
         id="g360"
         transform="matrix(7.874016e-5,0,0,-7.874016e-5,36.5,183.5)"><path
           d="M 0,0 H 317500 V 203200 H 0 Z"
           style="fill:none;stroke:#2f528f;stroke-width:12700;stroke-linecap:butt;stroke-linejoin:miter;stroke-miterlimit:8;stroke-dasharray:none;stroke-opacity:1"
           id="path362" /></g><path
         d="m 36.5,146.5 h 25 v -16 h -25 z"
         style="fill:#a9d18e;fill-opacity:1;fill-rule:nonzero;stroke:none"
         id="path364" /><g
         id="g366"
         transform="matrix(7.874016e-5,0,0,-7.874016e-5,36.5,146.5)"><path
           d="M 0,0 H 317500 V 203200 H 0 Z"
           style="fill:none;stroke:#2f528f;stroke-width:12700;stroke-linecap:butt;stroke-linejoin:miter;stroke-miterlimit:8;stroke-dasharray:none;stroke-opacity:1"
           id="path368" /></g><path
         d="m 36.5,114.5 h 25 v -16 h -25 z"
         style="fill:#a9d18e;fill-opacity:1;fill-rule:nonzero;stroke:none"
         id="path370" /><g
         id="g372"
         transform="matrix(7.874016e-5,0,0,-7.874016e-5,36.5,114.5)"><path
           d="M 0,0 H 317500 V 203200 H 0 Z"
           style="fill:none;stroke:#2f528f;stroke-width:12700;stroke-linecap:butt;stroke-linejoin:miter;stroke-miterlimit:8;stroke-dasharray:none;stroke-opacity:1"
           id="path374" /></g><path
         d="m 36.5,79.5 h 25 v -16 h -25 z"
         style="fill:#a9d18e;fill-opacity:1;fill-rule:nonzero;stroke:none"
         id="path376" /><g
         id="g378"
         transform="matrix(7.874016e-5,0,0,-7.874016e-5,36.5,79.5)"><path
           d="M 0,0 H 317500 V 203200 H 0 Z"
           style="fill:none;stroke:#2f528f;stroke-width:12700;stroke-linecap:butt;stroke-linejoin:miter;stroke-miterlimit:8;stroke-dasharray:none;stroke-opacity:1"
           id="path380" /></g><g
         id="g382"
         transform="translate(11.8322,-49)"><text
           transform="matrix(1,0,0,-1,0,256)"
           style="font-variant:normal;font-weight:normal;font-size:18px;font-family:STSongti-SC;-inkscape-font-specification:STSongti-SC-Regular;writing-mode:lr-tb;fill:#000000;fill-opacity:1;fill-rule:nonzero;stroke:none"
           id="text386"><tspan
             x="0 18 36 54"
             y="0"
             sodipodi:role="line"
             id="tspan384">模型分区</tspan></text></g><g
         id="g388"
         transform="matrix(7.874016e-5,0,0,-7.874016e-5,168.5,98.5)"><path
           d="M 0,105834.6 C 0,47383.77 47383.72,0 105834.5,0 H 1646765 c 58451,0 105835,47383.77 105835,105834.6 v 423330.8 c 0,58450.8 -47384,105834.6 -105835,105834.6 H 105834.5 C 47383.72,635000 0,587616.2 0,529165.4 Z"
           style="fill:none;stroke:#c00000;stroke-width:38100;stroke-linecap:butt;stroke-linejoin:miter;stroke-miterlimit:8;stroke-dasharray:114300, 38100;stroke-dashoffset:0;stroke-opacity:1"
           id="path390" /></g><path
         d="m 49.125,79.82118 6e-5,13.55382 -2.25,1e-5 -6e-5,-13.55382 z M 51.37505,92.24999 48.00008,99 44.62505,92.25002 Z"
         style="fill:#4472c4;fill-opacity:1;fill-rule:nonzero;stroke:none"
         id="path392" /><path
         d="m 46.87508,114.5194 -5e-5,10.8556 h 2.25 l 5e-5,-10.8555 z M 44.62503,124.25 48,131 l 3.37503,-6.75 z"
         style="fill:#4472c4;fill-opacity:1;fill-rule:nonzero;stroke:none"
         id="path394" /><path
         d="m 49.125,147.0624 6e-5,15.3126 h -2.25 l -6e-5,-15.3126 z m 2.25005,14.1876 -3.37497,6.75 -3.37503,-6.75 z"
         style="fill:#4472c4;fill-opacity:1;fill-rule:nonzero;stroke:none"
         id="path396" /><g
         id="g398"
         transform="matrix(7.874016e-5,0,0,-7.874016e-5,453.5,201.5)"><path
           d="M 0,107952 C 0,48331.76 48331.76,0 107952,0 h 1003296 c 59620,0 107952,48331.76 107952,107952 v 431796 c 0,59620.3 -48332,107952 -107952,107952 H 107952 C 48331.76,647700 0,599368.3 0,539748 Z"
           style="fill:none;stroke:#c00000;stroke-width:38100;stroke-linecap:butt;stroke-linejoin:miter;stroke-miterlimit:8;stroke-dasharray:114300, 38100;stroke-dashoffset:0;stroke-opacity:1"
           id="path400" /></g><g
         id="g402"
         transform="translate(362.4592,-24)"><text
           transform="matrix(1,0,0,-1,0,256)"
           style="font-variant:normal;font-weight:bold;font-size:18px;font-family:STSongti-SC;-inkscape-font-specification:STSongti-SC-Bold;writing-mode:lr-tb;fill:#000000;fill-opacity:1;fill-rule:nonzero;stroke:none"
           id="text406"><tspan
             x="0 18 36 54"
             y="0"
             sodipodi:role="line"
             id="tspan404">重新计算</tspan></text></g><g
         id="g408"
         transform="translate(434.4592,-24)"><text
           transform="matrix(1,0,0,-1,0,256)"
           style="font-variant:normal;font-weight:normal;font-size:18px;font-family:STSongti-SC;-inkscape-font-specification:STSongti-SC-Regular;writing-mode:lr-tb;fill:#000000;fill-opacity:1;fill-rule:nonzero;stroke:none"
           id="text412"><tspan
             x="0 18 36 54 72 90 108 126 144 162"
             y="0"
             sodipodi:role="line"
             id="tspan410">激活值来减少内存开销</tspan></text></g></g></g></svg>
