<?xml version="1.0" encoding="UTF-8" standalone="no"?>
<!-- Created with Inkscape (http://www.inkscape.org/) -->

<svg
   version="1.1"
   id="svg2"
   xml:space="preserve"
   width="560.59259"
   height="321.81696"
   viewBox="0 0 560.59259 321.81696"
   sodipodi:docname="ch10-parameter-servers.svg"
   inkscape:version="1.1.1 (3bf5ae0d25, 2021-09-20)"
   xmlns:inkscape="http://www.inkscape.org/namespaces/inkscape"
   xmlns:sodipodi="http://sodipodi.sourceforge.net/DTD/sodipodi-0.dtd"
   xmlns="http://www.w3.org/2000/svg"
   xmlns:svg="http://www.w3.org/2000/svg"><defs
     id="defs6"><clipPath
       clipPathUnits="userSpaceOnUse"
       id="clipPath18"><path
         d="M 0,0.1090903 H 444 V 257.99999 H 0 Z"
         id="path16" /></clipPath></defs><sodipodi:namedview
     id="namedview4"
     pagecolor="#ffffff"
     bordercolor="#666666"
     borderopacity="1.0"
     inkscape:pageshadow="2"
     inkscape:pageopacity="0.0"
     inkscape:pagecheckerboard="0"
     showgrid="false"
     fit-margin-top="0"
     fit-margin-left="0"
     fit-margin-right="0"
     fit-margin-bottom="0"
     inkscape:zoom="1.0450581"
     inkscape:cx="157.40751"
     inkscape:cy="152.14465"
     inkscape:window-width="1920"
     inkscape:window-height="1137"
     inkscape:window-x="1912"
     inkscape:window-y="-8"
     inkscape:window-maximized="1"
     inkscape:current-layer="g8" /><g
     id="g8"
     inkscape:groupmode="layer"
     inkscape:label="ch10-parameter-servers"
     transform="matrix(1.3333333,0,0,-1.3333333,-15.941313,343.12426)"><g
       id="g10" /><g
       id="g22"><path
         d="m 57.36361,245.0179 c 0,6.1858 5.01452,11.2003 11.20025,11.2003 H 185.3634 c 6.1857,0 11.2002,-5.0145 11.2002,-11.2003 v -44.7994 c 0,-6.1858 -5.0145,-11.2003 -11.2002,-11.2003 H 68.56386 c -6.18573,0 -11.20025,5.0145 -11.20025,11.2003 z"
         style="fill:#deebf7;fill-opacity:1;fill-rule:evenodd;stroke:none"
         id="path24" /><g
         id="g26"
         transform="matrix(7.874016e-5,0,0,-7.874016e-5,57.36361,256.2182)"><path
           d="M 0,142243.2 C 0,63684.46 63684.39,0 142243.1,0 H 1625597 c 78559,0 142243,63684.46 142243,142243.2 v 568953.6 c 0,78558.8 -63684,142243.2 -142243,142243.2 H 142243.1 C 63684.39,853440 0,789755.6 0,711196.8 Z"
           style="fill:none;stroke:#000000;stroke-width:28575;stroke-linecap:butt;stroke-linejoin:miter;stroke-miterlimit:8;stroke-dasharray:none;stroke-opacity:1"
           id="path28" /></g><g
         id="g30"
         transform="matrix(0.2181818,0,0,0.2181818,77.67966,-40.69089)"><text
           transform="matrix(1,0,0,-1,0,1182)"
           style="font-variant:normal;font-weight:normal;font-size:83px;font-family:STSongti-SC;-inkscape-font-specification:STSongti-SC-Regular;writing-mode:lr-tb;fill:#000000;fill-opacity:1;fill-rule:nonzero;stroke:none"
           id="text34"><tspan
             x="0 82.501991 165.00398 247.50597 330.00797"
             y="0"
             sodipodi:role="line"
             id="tspan32">参数服务器</tspan></text></g><g
         id="g36"
         transform="matrix(0.2181818,0,0,0.2181818,167.6797,-40.69089)"><text
           transform="matrix(1,0,0,-1,0,1182)"
           style="font-variant:normal;font-weight:normal;font-size:83px;font-family:STSongti-SC;-inkscape-font-specification:STSongti-SC-Regular;writing-mode:lr-tb;fill:#000000;fill-opacity:1;fill-rule:nonzero;stroke:none"
           id="text40"><tspan
             x="0"
             y="0"
             id="tspan38">1</tspan></text></g><path
         d="m 253.5091,245.0179 c 0,6.1858 5.0145,11.2003 11.2002,11.2003 H 381.727 c 6.1857,0 11.2002,-5.0145 11.2002,-11.2003 v -44.7994 c 0,-6.1858 -5.0145,-11.2003 -11.2002,-11.2003 H 264.7093 c -6.1857,0 -11.2002,5.0145 -11.2002,11.2003 z"
         style="fill:#deebf7;fill-opacity:1;fill-rule:evenodd;stroke:none"
         id="path42" /><g
         id="g44"
         transform="matrix(7.874016e-5,0,0,-7.874016e-5,253.5091,256.2182)"><path
           d="M 0,142243.6 C 0,63684.61 63684.51,0 142243.3,0 H 1628368 c 78559,0 142243,63684.61 142243,142243.6 v 568952.9 c 0,78558.9 -63684,142243.5 -142243,142243.5 H 142243.3 C 63684.51,853440 0,789755.4 0,711196.5 Z"
           style="fill:none;stroke:#000000;stroke-width:28575;stroke-linecap:butt;stroke-linejoin:miter;stroke-miterlimit:8;stroke-dasharray:none;stroke-opacity:1"
           id="path46" /></g><g
         id="g48"
         transform="matrix(0.2181818,0,0,0.2181818,273.9655,-40.69089)"><text
           transform="matrix(1,0,0,-1,0,1182)"
           style="font-variant:normal;font-weight:normal;font-size:83px;font-family:STSongti-SC;-inkscape-font-specification:STSongti-SC-Regular;writing-mode:lr-tb;fill:#000000;fill-opacity:1;fill-rule:nonzero;stroke:none"
           id="text52"><tspan
             x="0 82.501991 165.00398 247.50597 330.00797"
             y="0"
             sodipodi:role="line"
             id="tspan50">参数服务器</tspan></text></g><g
         id="g54"
         transform="matrix(0.2181818,0,0,0.2181818,363.9655,-40.69089)"><text
           transform="matrix(1,0,0,-1,0,1182)"
           style="font-variant:normal;font-weight:normal;font-size:83px;font-family:STSongti-SC;-inkscape-font-specification:STSongti-SC-Regular;writing-mode:lr-tb;fill:#000000;fill-opacity:1;fill-rule:nonzero;stroke:none"
           id="text58"><tspan
             x="0"
             y="0"
             id="tspan56">2</tspan></text></g><path
         d="m 57.36361,115.1634 c 0,6.2058 5.03081,11.2366 11.23663,11.2366 H 185.327 c 6.2058,0 11.2366,-5.0308 11.2366,-11.2366 V 70.21846 c 0,-6.20582 -5.0308,-11.23664 -11.2366,-11.23664 H 68.60024 c -6.20582,0 -11.23663,5.03082 -11.23663,11.23664 z"
         style="fill:#e2f0d9;fill-opacity:1;fill-rule:evenodd;stroke:none"
         id="path60" /><g
         id="g62"
         transform="matrix(7.874016e-5,0,0,-7.874016e-5,57.36361,126.4)"><path
           d="M 0,142705.4 C 0,63891.38 63891.27,0 142705.1,0 H 1625135 c 78814,0 142705,63891.38 142705,142705.4 v 570800.2 c 0,78814 -63891,142705.4 -142705,142705.4 H 142705.1 C 63891.27,856211 0,792319.6 0,713505.6 Z"
           style="fill:none;stroke:#000000;stroke-width:28575;stroke-linecap:butt;stroke-linejoin:miter;stroke-miterlimit:8;stroke-dasharray:none;stroke-opacity:1"
           id="path64" /></g><g
         id="g66"
         transform="matrix(0.2181818,0,0,0.2181818,77.67974,-170.7273)"><text
           transform="matrix(1,0,0,-1,0,1182)"
           style="font-variant:normal;font-weight:normal;font-size:83px;font-family:STSongti-SC;-inkscape-font-specification:STSongti-SC-Regular;writing-mode:lr-tb;fill:#000000;fill-opacity:1;fill-rule:nonzero;stroke:none"
           id="text70"><tspan
             x="0 82.501991 165.00398 247.50597 330.00797"
             y="0"
             sodipodi:role="line"
             id="tspan68">训练服务器</tspan></text></g><g
         id="g72"
         transform="matrix(0.2181818,0,0,0.2181818,167.6797,-170.7273)"><text
           transform="matrix(1,0,0,-1,0,1182)"
           style="font-variant:normal;font-weight:normal;font-size:83px;font-family:STSongti-SC;-inkscape-font-specification:STSongti-SC-Regular;writing-mode:lr-tb;fill:#000000;fill-opacity:1;fill-rule:nonzero;stroke:none"
           id="text76"><tspan
             x="0"
             y="0"
             id="tspan74">1</tspan></text></g><path
         d="m 253.5091,115.1634 c 0,6.2058 5.0307,11.2366 11.2365,11.2366 h 116.9451 c 6.2058,0 11.2365,-5.0308 11.2365,-11.2366 V 70.21839 c 0,-6.20579 -5.0307,-11.23657 -11.2365,-11.23657 H 264.7456 c -6.2058,0 -11.2365,5.03078 -11.2365,11.23657 z"
         style="fill:#e2f0d9;fill-opacity:1;fill-rule:evenodd;stroke:none"
         id="path78" /><g
         id="g80"
         transform="matrix(7.874016e-5,0,0,-7.874016e-5,253.5091,126.4)"><path
           d="M 0,142704.4 C 0,63890.94 63890.84,0 142704.2,0 H 1627907 c 78813,0 142704,63890.94 142704,142704.4 v 570802.2 c 0,78813.4 -63891,142704.4 -142704,142704.4 H 142704.2 C 63890.84,856211 0,792320 0,713506.6 Z"
           style="fill:none;stroke:#000000;stroke-width:28575;stroke-linecap:butt;stroke-linejoin:miter;stroke-miterlimit:8;stroke-dasharray:none;stroke-opacity:1"
           id="path82" /></g><g
         id="g84"
         transform="matrix(0.2181818,0,0,0.2181818,273.9655,-170.7273)"><text
           transform="matrix(1,0,0,-1,0,1182)"
           style="font-variant:normal;font-weight:normal;font-size:83px;font-family:STSongti-SC;-inkscape-font-specification:STSongti-SC-Regular;writing-mode:lr-tb;fill:#000000;fill-opacity:1;fill-rule:nonzero;stroke:none"
           id="text88"><tspan
             x="0 82.501991 165.00398 247.50597 330.00797"
             y="0"
             sodipodi:role="line"
             id="tspan86">训练服务器</tspan></text></g><g
         id="g90"
         transform="matrix(0.2181818,0,0,0.2181818,363.9655,-170.7273)"><text
           transform="matrix(1,0,0,-1,0,1182)"
           style="font-variant:normal;font-weight:normal;font-size:83px;font-family:STSongti-SC;-inkscape-font-specification:STSongti-SC-Regular;writing-mode:lr-tb;fill:#000000;fill-opacity:1;fill-rule:nonzero;stroke:none"
           id="text94"><tspan
             x="0"
             y="0"
             id="tspan92">2</tspan></text></g><path
         d="m 100.8159,189.4546 1e-4,-57.1161 h -2.24999 l -8e-5,57.1161 z m 2.2501,-55.991 -3.37499,-6.75 -3.37501,6.7499 z"
         style="fill:#000000;fill-opacity:1;fill-rule:nonzero;stroke:none"
         id="path96" /><path
         d="m 141.1114,126.3258 v 57.5038 h 2.25 v -57.5038 z m -2.25,56.3788 3.375,6.75 3.375,-6.75 z"
         style="fill:#000000;fill-opacity:1;fill-rule:nonzero;stroke:none"
         id="path98" /><path
         d="m 299.4611,190.5282 -191.0289,-59.7925 0.6721,-2.1473 191.0289,59.7925 z m -190.6274,-57.3093 -5.4337,-5.2372 7.45,-1.2046 z"
         style="fill:#000000;fill-opacity:1;fill-rule:nonzero;stroke:none"
         id="path100" /><path
         d="m 142.5686,125.2512 198.839,61.4672 -0.6645,2.1497 -198.839,-61.4673 z m 198.4288,58.9854 5.4521,5.218 -7.4457,1.2309 z"
         style="fill:#000000;fill-opacity:1;fill-rule:nonzero;stroke:none"
         id="path102" /><path
         d="m 301.325,189.4546 1e-4,-57.1161 h -2.25 l -1e-4,57.1161 z m 2.2501,-55.991 -3.375,-6.75 -3.375,6.7499 z"
         style="fill:#000000;fill-opacity:1;fill-rule:nonzero;stroke:none"
         id="path104" /><path
         d="m 100.464,190.0916 189.3526,-59.4015 -0.6734,-2.1468 -189.3527,59.4015 z m 188.9528,-56.9179 5.4303,-5.2407 -7.4508,-1.1998 z"
         style="fill:#000000;fill-opacity:1;fill-rule:nonzero;stroke:none"
         id="path106" /><path
         d="m 347.7977,126.7135 10e-5,57.1161 h -2.25 l -10e-5,-57.1161 z m 2.2501,55.9911 -3.375,6.75 -3.375,-6.75 z"
         style="fill:#000000;fill-opacity:1;fill-rule:nonzero;stroke:none"
         id="path108" /><path
         d="m 345.959,125.6382 -198.6768,61.0879 0.6613,2.1507 198.6767,-61.088 z m -198.2626,58.6066 -5.46,5.2098 7.4438,1.2421 z"
         style="fill:#000000;fill-opacity:1;fill-rule:nonzero;stroke:none"
         id="path110" /><g
         id="g112"
         transform="matrix(0.2181818,0,0,0.2181818,11.7084,-104.6182)"><text
           transform="matrix(1,0,0,-1,0,1182)"
           style="font-variant:normal;font-weight:normal;font-size:83px;font-family:STSongti-SC;-inkscape-font-specification:STSongti-SC-Regular;writing-mode:lr-tb;fill:#000000;fill-opacity:1;fill-rule:nonzero;stroke:none"
           id="text116"><tspan
             x="0 82.501991 165.00398 247.50597"
             y="0"
             sodipodi:role="line"
             id="tspan114">拉取参数</tspan></text></g><g
         id="g118"
         transform="matrix(0.2181818,0,0,0.2181818,360.3608,-106.8)"><text
           transform="matrix(1,0,0,-1,0,1182)"
           style="font-variant:normal;font-weight:normal;font-size:83px;font-family:STSongti-SC;-inkscape-font-specification:STSongti-SC-Regular;writing-mode:lr-tb;fill:#000000;fill-opacity:1;fill-rule:nonzero;stroke:none"
           id="text122"><tspan
             x="0 82.501991 165.00398 247.50597"
             y="0"
             sodipodi:role="line"
             id="tspan120">推送参数</tspan></text></g><path
         d="m 126.275,53.79316 v -13.5 h 198.5357 v 12.5 h -2.25 v -11.375 l 1.125,1.125 H 127.4 l 1.125,-1.125 v 12.375 z m 4.5,-1.125 -3.375,6.75 -3.375,-6.75 z m 196.2857,-1 -3.375,6.75 -3.375,-6.75 z"
         style="fill:#4472c4;fill-opacity:1;fill-rule:nonzero;stroke:none"
         id="path124" /><g
         id="g126"
         transform="matrix(0.2181818,0,0,0.2181818,190.1605,-241.6363)"><text
           transform="matrix(1,0,0,-1,0,1182)"
           style="font-variant:normal;font-weight:normal;font-size:83px;font-family:STSongti-SC;-inkscape-font-specification:STSongti-SC-Regular;writing-mode:lr-tb;fill:#000000;fill-opacity:1;fill-rule:nonzero;stroke:none"
           id="text130"><tspan
             x="0 56.149494 78.51799 100.88649 130.64198 166.12448 208.49597 251.44847 285.27097"
             y="0"
             sodipodi:role="line"
             id="tspan128">Allreduce</tspan></text></g></g></g></svg>
