<?xml version="1.0" encoding="UTF-8" standalone="no"?>
<!-- Created with Inkscape (http://www.inkscape.org/) -->

<svg
   version="1.1"
   id="svg2"
   xml:space="preserve"
   width="1205.1733"
   height="196.77014"
   viewBox="0 0 1205.1733 196.77014"
   sodipodi:docname="ch04-graph_23.svg"
   inkscape:version="1.1.2 (b8e25be833, 2022-02-05)"
   xmlns:inkscape="http://www.inkscape.org/namespaces/inkscape"
   xmlns:sodipodi="http://sodipodi.sourceforge.net/DTD/sodipodi-0.dtd"
   xmlns="http://www.w3.org/2000/svg"
   xmlns:svg="http://www.w3.org/2000/svg"><defs
     id="defs6"><clipPath
       clipPathUnits="userSpaceOnUse"
       id="clipPath16"><path
         d="M 0,1.2207e-4 H 960 V 540.00012 H 0 Z"
         clip-rule="evenodd"
         id="path14" /></clipPath><clipPath
       clipPathUnits="userSpaceOnUse"
       id="clipPath30"><path
         d="M 1.4305e-5,0 H 960.00001 V 540 H 1.4305e-5 Z"
         clip-rule="evenodd"
         id="path28" /></clipPath><clipPath
       clipPathUnits="userSpaceOnUse"
       id="clipPath42"><path
         d="M 1.4305e-5,0 H 960.00001 V 540 H 1.4305e-5 Z"
         clip-rule="evenodd"
         id="path40" /></clipPath><clipPath
       clipPathUnits="userSpaceOnUse"
       id="clipPath58"><path
         d="M 1.4305e-5,0 H 960.00001 V 540 H 1.4305e-5 Z"
         clip-rule="evenodd"
         id="path56" /></clipPath><clipPath
       clipPathUnits="userSpaceOnUse"
       id="clipPath76"><path
         d="M 1.4305e-5,0 H 960.00001 V 540 H 1.4305e-5 Z"
         clip-rule="evenodd"
         id="path74" /></clipPath><clipPath
       clipPathUnits="userSpaceOnUse"
       id="clipPath88"><path
         d="M 1.4305e-5,0 H 960.00001 V 540 H 1.4305e-5 Z"
         clip-rule="evenodd"
         id="path86" /></clipPath><clipPath
       clipPathUnits="userSpaceOnUse"
       id="clipPath104"><path
         d="M 1.4305e-5,0 H 960.00001 V 540 H 1.4305e-5 Z"
         clip-rule="evenodd"
         id="path102" /></clipPath><clipPath
       clipPathUnits="userSpaceOnUse"
       id="clipPath116"><path
         d="M 1.4305e-5,0 H 960.00001 V 540 H 1.4305e-5 Z"
         clip-rule="evenodd"
         id="path114" /></clipPath><clipPath
       clipPathUnits="userSpaceOnUse"
       id="clipPath134"><path
         d="M 1.4305e-5,0 H 960.00001 V 540 H 1.4305e-5 Z"
         clip-rule="evenodd"
         id="path132" /></clipPath><clipPath
       clipPathUnits="userSpaceOnUse"
       id="clipPath150"><path
         d="M 1.4305e-5,0 H 960.00001 V 540 H 1.4305e-5 Z"
         clip-rule="evenodd"
         id="path148" /></clipPath><clipPath
       clipPathUnits="userSpaceOnUse"
       id="clipPath166"><path
         d="M 1.4305e-5,0 H 960.00001 V 540 H 1.4305e-5 Z"
         clip-rule="evenodd"
         id="path164" /></clipPath></defs><sodipodi:namedview
     id="namedview4"
     pagecolor="#ffffff"
     bordercolor="#666666"
     borderopacity="1.0"
     inkscape:pageshadow="2"
     inkscape:pageopacity="0.0"
     inkscape:pagecheckerboard="0"
     showgrid="false"
     fit-margin-top="0"
     fit-margin-left="0"
     fit-margin-right="0"
     fit-margin-bottom="0"
     inkscape:zoom="0.88014498"
     inkscape:cx="611.83102"
     inkscape:cy="96.574998"
     inkscape:window-width="2560"
     inkscape:window-height="1377"
     inkscape:window-x="-8"
     inkscape:window-y="-8"
     inkscape:window-maximized="1"
     inkscape:current-layer="g8" /><g
     id="g8"
     inkscape:groupmode="layer"
     inkscape:label="ch04-graph_23"
     transform="matrix(1.3333333,0,0,-1.3333333,-7.1733332,458.70611)"><g
       id="g20"><path
         d="m 188.1,318.68 c 0,13.38 10.84,24.22 24.22,24.22 h 132.52 c 13.38,0 24.22,-10.84 24.22,-24.22 V 221.8 c 0,-13.38 -10.84,-24.22 -24.22,-24.22 H 212.32 c -13.38,0 -24.22,10.84 -24.22,24.22 z"
         style="fill:none;stroke:#2f528f;stroke-width:2.25;stroke-linecap:butt;stroke-linejoin:miter;stroke-miterlimit:10;stroke-dasharray:6.75, 2.25;stroke-dashoffset:0;stroke-opacity:1"
         id="path22" /></g><g
       id="g24"><g
         id="g26"
         clip-path="url(#clipPath30)"><text
           transform="matrix(1,0,0,-1,402.5,305.93)"
           style="font-variant:normal;font-weight:normal;font-size:18px;font-family:DengXian;-inkscape-font-specification:DengXian;writing-mode:lr-tb;fill:#000000;fill-opacity:1;fill-rule:nonzero;stroke:none"
           id="text34"><tspan
             x="0 18"
             y="0"
             sodipodi:role="line"
             id="tspan32">抽象</tspan></text></g></g><g
       id="g36"><g
         id="g38"
         clip-path="url(#clipPath42)"><text
           transform="matrix(1,0,0,-1,393.5,284.33)"
           style="font-variant:normal;font-weight:normal;font-size:18.024px;font-family:DengXian;-inkscape-font-specification:DengXian;writing-mode:lr-tb;fill:#000000;fill-opacity:1;fill-rule:nonzero;stroke:none"
           id="text46"><tspan
             x="0 18 36"
             y="0"
             sodipodi:role="line"
             id="tspan44">语法树</tspan></text></g></g><path
       d="m 5.88,289.43 c 0,1.33 1.0789,2.41 2.4097,2.41 H 155.39 c 1.33,0 2.41,-1.08 2.41,-2.41 v -38.02 c 0,-1.33 -1.08,-2.41 -2.41,-2.41 H 8.2897 C 6.9589,249 5.88,250.08 5.88,251.41 Z"
       style="fill:#dae3f3;fill-opacity:1;fill-rule:evenodd;stroke:none"
       id="path48" /><path
       d="m 5.88,289.43 c 0,1.33 1.0789,2.41 2.4097,2.41 H 155.39 c 1.33,0 2.41,-1.08 2.41,-2.41 v -38.02 c 0,-1.33 -1.08,-2.41 -2.41,-2.41 H 8.2897 C 6.9589,249 5.88,250.08 5.88,251.41 Z"
       style="fill:none;stroke:#404040;stroke-width:1;stroke-linecap:butt;stroke-linejoin:round;stroke-miterlimit:10;stroke-dasharray:none;stroke-opacity:1"
       id="path50" /><g
       id="g52"><g
         id="g54"
         clip-path="url(#clipPath58)"><text
           transform="matrix(1,0,0,-1,36.768,264.38)"
           style="font-variant:normal;font-weight:normal;font-size:18.024px;font-family:DengXian;-inkscape-font-specification:DengXian;writing-mode:lr-tb;fill:#000000;fill-opacity:1;fill-rule:nonzero;stroke:none"
           id="text62"><tspan
             x="0 18 36 54 72"
             y="0"
             sodipodi:role="line"
             id="tspan60">动态图代码</tspan></text></g></g><path
       d="m 157.87,271.17 25.25,-0.21 -0.02,-1.5 -25.25,0.21 z m 24.26,2.05 5.98,-3.05 -6.02,-2.95 z"
       style="fill:#000000;fill-opacity:1;fill-rule:nonzero;stroke:none"
       id="path64" /><path
       d="m 202.56,319.91 c 0,1.33 1.08,2.41 2.41,2.41 h 147.1 c 1.33,0 2.41,-1.08 2.41,-2.41 v -38.02 c 0,-1.33 -1.08,-2.41 -2.41,-2.41 h -147.1 c -1.33,0 -2.41,1.08 -2.41,2.41 z"
       style="fill:#dae3f3;fill-opacity:1;fill-rule:evenodd;stroke:none"
       id="path66" /><path
       d="m 202.56,319.91 c 0,1.33 1.08,2.41 2.41,2.41 h 147.1 c 1.33,0 2.41,-1.08 2.41,-2.41 v -38.02 c 0,-1.33 -1.08,-2.41 -2.41,-2.41 h -147.1 c -1.33,0 -2.41,1.08 -2.41,2.41 z"
       style="fill:none;stroke:#404040;stroke-width:1;stroke-linecap:butt;stroke-linejoin:round;stroke-miterlimit:10;stroke-dasharray:none;stroke-opacity:1"
       id="path68" /><g
       id="g70"><g
         id="g72"
         clip-path="url(#clipPath76)"><text
           transform="matrix(1,0,0,-1,260.54,305.69)"
           style="font-variant:normal;font-weight:normal;font-size:18px;font-family:DengXian;-inkscape-font-specification:DengXian;writing-mode:lr-tb;fill:#000000;fill-opacity:1;fill-rule:nonzero;stroke:none"
           id="text80"><tspan
             x="0 18"
             y="0"
             sodipodi:role="line"
             id="tspan78">分词</tspan></text></g></g><g
       id="g82"><g
         id="g84"
         clip-path="url(#clipPath88)"><text
           transform="matrix(1,0,0,-1,242.52,284.09)"
           style="font-variant:normal;font-weight:normal;font-size:18.024px;font-family:DengXian;-inkscape-font-specification:DengXian;writing-mode:lr-tb;fill:#000000;fill-opacity:1;fill-rule:nonzero;stroke:none"
           id="text92"><tspan
             x="0 18 36 54"
             y="0"
             sodipodi:role="line"
             id="tspan90">词法分析</tspan></text></g></g><path
       d="m 202.56,254.5 c 0,1.34 1.08,2.42 2.42,2.42 h 147.08 c 1.34,0 2.42,-1.08 2.42,-2.42 v -38.24 c 0,-1.34 -1.08,-2.42 -2.42,-2.42 H 204.98 c -1.34,0 -2.42,1.08 -2.42,2.42 z"
       style="fill:#dae3f3;fill-opacity:1;fill-rule:evenodd;stroke:none"
       id="path94" /><path
       d="m 202.56,254.5 c 0,1.34 1.08,2.42 2.42,2.42 h 147.08 c 1.34,0 2.42,-1.08 2.42,-2.42 v -38.24 c 0,-1.34 -1.08,-2.42 -2.42,-2.42 H 204.98 c -1.34,0 -2.42,1.08 -2.42,2.42 z"
       style="fill:none;stroke:#404040;stroke-width:1;stroke-linecap:butt;stroke-linejoin:round;stroke-miterlimit:10;stroke-dasharray:none;stroke-opacity:1"
       id="path96" /><g
       id="g98"><g
         id="g100"
         clip-path="url(#clipPath104)"><text
           transform="matrix(1,0,0,-1,260.54,240.1)"
           style="font-variant:normal;font-weight:normal;font-size:18px;font-family:DengXian;-inkscape-font-specification:DengXian;writing-mode:lr-tb;fill:#000000;fill-opacity:1;fill-rule:nonzero;stroke:none"
           id="text108"><tspan
             x="0 18"
             y="0"
             sodipodi:role="line"
             id="tspan106">解析</tspan></text></g></g><g
       id="g110"><g
         id="g112"
         clip-path="url(#clipPath116)"><text
           transform="matrix(1,0,0,-1,242.52,218.5)"
           style="font-variant:normal;font-weight:normal;font-size:18px;font-family:DengXian;-inkscape-font-specification:DengXian;writing-mode:lr-tb;fill:#000000;fill-opacity:1;fill-rule:nonzero;stroke:none"
           id="text120"><tspan
             x="0 18 36 54"
             y="0"
             sodipodi:role="line"
             id="tspan118">语法分析</tspan></text></g></g><path
       d="m 369.06,269.42 91.63,0.24 -0.01,1.5 -91.62,-0.24 z m 90.63,-2.02 5.99,3.02 -6,2.98 z"
       style="fill:#000000;fill-opacity:1;fill-rule:nonzero;stroke:none"
       id="path122" /><path
       d="m 465.6,289.43 c 0,1.33 1.08,2.41 2.41,2.41 h 120.58 c 1.33,0 2.41,-1.08 2.41,-2.41 v -38.02 c 0,-1.33 -1.08,-2.41 -2.41,-2.41 H 468.01 c -1.33,0 -2.41,1.08 -2.41,2.41 z"
       style="fill:#dae3f3;fill-opacity:1;fill-rule:evenodd;stroke:none"
       id="path124" /><path
       d="m 465.6,289.43 c 0,1.33 1.08,2.41 2.41,2.41 h 120.58 c 1.33,0 2.41,-1.08 2.41,-2.41 v -38.02 c 0,-1.33 -1.08,-2.41 -2.41,-2.41 H 468.01 c -1.33,0 -2.41,1.08 -2.41,2.41 z"
       style="fill:none;stroke:#404040;stroke-width:1;stroke-linecap:butt;stroke-linejoin:round;stroke-miterlimit:10;stroke-dasharray:none;stroke-opacity:1"
       id="path126" /><g
       id="g128"><g
         id="g130"
         clip-path="url(#clipPath134)"><text
           transform="matrix(1,0,0,-1,483.36,264.38)"
           style="font-variant:normal;font-weight:normal;font-size:18.024px;font-family:DengXian;-inkscape-font-specification:DengXian;writing-mode:lr-tb;fill:#000000;fill-opacity:1;fill-rule:nonzero;stroke:none"
           id="text138"><tspan
             x="0 18 36 54 72"
             y="0"
             sodipodi:role="line"
             id="tspan136">语法树转写</tspan></text></g></g><path
       d="m 630.96,289.43 c 0,1.33 1.08,2.41 2.41,2.41 h 117.1 c 1.33,0 2.41,-1.08 2.41,-2.41 v -38.02 c 0,-1.33 -1.08,-2.41 -2.41,-2.41 h -117.1 c -1.33,0 -2.41,1.08 -2.41,2.41 z"
       style="fill:#dae3f3;fill-opacity:1;fill-rule:evenodd;stroke:none"
       id="path140" /><path
       d="m 630.96,289.43 c 0,1.33 1.08,2.41 2.41,2.41 h 117.1 c 1.33,0 2.41,-1.08 2.41,-2.41 v -38.02 c 0,-1.33 -1.08,-2.41 -2.41,-2.41 h -117.1 c -1.33,0 -2.41,1.08 -2.41,2.41 z"
       style="fill:none;stroke:#404040;stroke-width:1;stroke-linecap:butt;stroke-linejoin:round;stroke-miterlimit:10;stroke-dasharray:none;stroke-opacity:1"
       id="path142" /><g
       id="g144"><g
         id="g146"
         clip-path="url(#clipPath150)"><text
           transform="matrix(1,0,0,-1,646.97,264.38)"
           style="font-variant:normal;font-weight:normal;font-size:18.024px;font-family:DengXian;-inkscape-font-specification:DengXian;writing-mode:lr-tb;fill:#000000;fill-opacity:1;fill-rule:nonzero;stroke:none"
           id="text154"><tspan
             x="0 18 36 54 72"
             y="0"
             sodipodi:role="line"
             id="tspan152">静态图代码</tspan></text></g></g><path
       d="m 792.84,289.43 c 0,1.33 1.08,2.41 2.41,2.41 h 111.1 c 1.33,0 2.41,-1.08 2.41,-2.41 v -38.02 c 0,-1.33 -1.08,-2.41 -2.41,-2.41 h -111.1 c -1.33,0 -2.41,1.08 -2.41,2.41 z"
       style="fill:#dae3f3;fill-opacity:1;fill-rule:evenodd;stroke:none"
       id="path156" /><path
       d="m 792.84,289.43 c 0,1.33 1.08,2.41 2.41,2.41 h 111.1 c 1.33,0 2.41,-1.08 2.41,-2.41 v -38.02 c 0,-1.33 -1.08,-2.41 -2.41,-2.41 h -111.1 c -1.33,0 -2.41,1.08 -2.41,2.41 z"
       style="fill:none;stroke:#404040;stroke-width:1;stroke-linecap:butt;stroke-linejoin:round;stroke-miterlimit:10;stroke-dasharray:none;stroke-opacity:1"
       id="path158" /><g
       id="g160"><g
         id="g162"
         clip-path="url(#clipPath166)"><text
           transform="matrix(1,0,0,-1,814.85,264.38)"
           style="font-variant:normal;font-weight:normal;font-size:18.024px;font-family:DengXian;-inkscape-font-specification:DengXian;writing-mode:lr-tb;fill:#000000;fill-opacity:1;fill-rule:nonzero;stroke:none"
           id="text170"><tspan
             x="0 18 36 54"
             y="0"
             sodipodi:role="line"
             id="tspan168">静态生成</tspan></text></g></g><path
       d="m 591.06,271.17 h 35 v -1.5 h -35 z m 34,2.25 6,-3 -6,-3 z"
       style="fill:#000000;fill-opacity:1;fill-rule:nonzero;stroke:none"
       id="path172" /><path
       d="m 752.94,271.17 h 35 v -1.5 h -35 z m 34,2.25 6,-3 -6,-3 z"
       style="fill:#000000;fill-opacity:1;fill-rule:nonzero;stroke:none"
       id="path174" /></g></svg>
