<?xml version="1.0" encoding="UTF-8" standalone="no"?>
<!-- Created with Inkscape (http://www.inkscape.org/) -->

<svg
   version="1.1"
   id="svg2046"
   xml:space="preserve"
   width="948.76947"
   height="504.62665"
   viewBox="0 0 948.76947 504.62665"
   sodipodi:docname="dag.svg"
   inkscape:version="1.1.1 (3bf5ae0d25, 2021-09-20)"
   xmlns:inkscape="http://www.inkscape.org/namespaces/inkscape"
   xmlns:sodipodi="http://sodipodi.sourceforge.net/DTD/sodipodi-0.dtd"
   xmlns="http://www.w3.org/2000/svg"
   xmlns:svg="http://www.w3.org/2000/svg"><defs
     id="defs2050"><clipPath
       clipPathUnits="userSpaceOnUse"
       id="clipPath2060"><path
         d="M 0,1.2207e-4 H 960 V 540.00012 H 0 Z"
         clip-rule="evenodd"
         id="path2058" /></clipPath><clipPath
       clipPathUnits="userSpaceOnUse"
       id="clipPath2078"><path
         d="M 1.4305e-5,0 H 960.00001 V 540 H 1.4305e-5 Z"
         clip-rule="evenodd"
         id="path2076" /></clipPath><clipPath
       clipPathUnits="userSpaceOnUse"
       id="clipPath2096"><path
         d="M 1.4305e-5,0 H 960.00001 V 540 H 1.4305e-5 Z"
         clip-rule="evenodd"
         id="path2094" /></clipPath><clipPath
       clipPathUnits="userSpaceOnUse"
       id="clipPath2114"><path
         d="M 1.4305e-5,0 H 960.00001 V 540 H 1.4305e-5 Z"
         clip-rule="evenodd"
         id="path2112" /></clipPath><clipPath
       clipPathUnits="userSpaceOnUse"
       id="clipPath2134"><path
         d="M 1.4305e-5,0 H 960.00001 V 540 H 1.4305e-5 Z"
         clip-rule="evenodd"
         id="path2132" /></clipPath><clipPath
       clipPathUnits="userSpaceOnUse"
       id="clipPath2146"><path
         d="M 1.4305e-5,0 H 960.00001 V 540 H 1.4305e-5 Z"
         clip-rule="evenodd"
         id="path2144" /></clipPath><clipPath
       clipPathUnits="userSpaceOnUse"
       id="clipPath2168"><path
         d="M 1.4305e-5,0 H 960.00001 V 540 H 1.4305e-5 Z"
         clip-rule="evenodd"
         id="path2166" /></clipPath><clipPath
       clipPathUnits="userSpaceOnUse"
       id="clipPath2182"><path
         d="M 1.4305e-5,0 H 960.00001 V 540 H 1.4305e-5 Z"
         clip-rule="evenodd"
         id="path2180" /></clipPath><clipPath
       clipPathUnits="userSpaceOnUse"
       id="clipPath2206"><path
         d="M 1.4305e-5,0 H 960.00001 V 540 H 1.4305e-5 Z"
         clip-rule="evenodd"
         id="path2204" /></clipPath><clipPath
       clipPathUnits="userSpaceOnUse"
       id="clipPath2218"><path
         d="M 1.4305e-5,0 H 960.00001 V 540 H 1.4305e-5 Z"
         clip-rule="evenodd"
         id="path2216" /></clipPath><clipPath
       clipPathUnits="userSpaceOnUse"
       id="clipPath2234"><path
         d="M 1.4305e-5,0 H 960.00001 V 540 H 1.4305e-5 Z"
         clip-rule="evenodd"
         id="path2232" /></clipPath><clipPath
       clipPathUnits="userSpaceOnUse"
       id="clipPath2246"><path
         d="M 1.4305e-5,0 H 960.00001 V 540 H 1.4305e-5 Z"
         clip-rule="evenodd"
         id="path2244" /></clipPath><clipPath
       clipPathUnits="userSpaceOnUse"
       id="clipPath2258"><path
         d="M 1.4305e-5,0 H 960.00001 V 540 H 1.4305e-5 Z"
         clip-rule="evenodd"
         id="path2256" /></clipPath><clipPath
       clipPathUnits="userSpaceOnUse"
       id="clipPath2270"><path
         d="M 1.4305e-5,0 H 960.00001 V 540 H 1.4305e-5 Z"
         clip-rule="evenodd"
         id="path2268" /></clipPath><clipPath
       clipPathUnits="userSpaceOnUse"
       id="clipPath2290"><path
         d="M 1.4305e-5,0 H 960.00001 V 540 H 1.4305e-5 Z"
         clip-rule="evenodd"
         id="path2288" /></clipPath><clipPath
       clipPathUnits="userSpaceOnUse"
       id="clipPath2308"><path
         d="M 1.4305e-5,0 H 960.00001 V 540 H 1.4305e-5 Z"
         clip-rule="evenodd"
         id="path2306" /></clipPath><clipPath
       clipPathUnits="userSpaceOnUse"
       id="clipPath2320"><path
         d="M 1.4305e-5,0 H 960.00001 V 540 H 1.4305e-5 Z"
         clip-rule="evenodd"
         id="path2318" /></clipPath><clipPath
       clipPathUnits="userSpaceOnUse"
       id="clipPath2332"><path
         d="M 1.4305e-5,0 H 960.00001 V 540 H 1.4305e-5 Z"
         clip-rule="evenodd"
         id="path2330" /></clipPath><clipPath
       clipPathUnits="userSpaceOnUse"
       id="clipPath2350"><path
         d="M 1.4305e-5,0 H 960.00001 V 540 H 1.4305e-5 Z"
         clip-rule="evenodd"
         id="path2348" /></clipPath><clipPath
       clipPathUnits="userSpaceOnUse"
       id="clipPath2366"><path
         d="M 1.4305e-5,0 H 960.00001 V 540 H 1.4305e-5 Z"
         clip-rule="evenodd"
         id="path2364" /></clipPath><clipPath
       clipPathUnits="userSpaceOnUse"
       id="clipPath2382"><path
         d="M 1.4305e-5,0 H 960.00001 V 540 H 1.4305e-5 Z"
         clip-rule="evenodd"
         id="path2380" /></clipPath><clipPath
       clipPathUnits="userSpaceOnUse"
       id="clipPath2394"><path
         d="M 1.4305e-5,0 H 960.00001 V 540 H 1.4305e-5 Z"
         clip-rule="evenodd"
         id="path2392" /></clipPath><clipPath
       clipPathUnits="userSpaceOnUse"
       id="clipPath2414"><path
         d="M 1.4305e-5,0 H 960.00001 V 540 H 1.4305e-5 Z"
         clip-rule="evenodd"
         id="path2412" /></clipPath><clipPath
       clipPathUnits="userSpaceOnUse"
       id="clipPath2430"><path
         d="M 1.4305e-5,0 H 960.00001 V 540 H 1.4305e-5 Z"
         clip-rule="evenodd"
         id="path2428" /></clipPath><clipPath
       clipPathUnits="userSpaceOnUse"
       id="clipPath2448"><path
         d="M 1.4305e-5,0 H 960.00001 V 540 H 1.4305e-5 Z"
         clip-rule="evenodd"
         id="path2446" /></clipPath><clipPath
       clipPathUnits="userSpaceOnUse"
       id="clipPath2460"><path
         d="M 1.4305e-5,0 H 960.00001 V 540 H 1.4305e-5 Z"
         clip-rule="evenodd"
         id="path2458" /></clipPath><clipPath
       clipPathUnits="userSpaceOnUse"
       id="clipPath2472"><path
         d="M 1.4305e-5,0 H 960.00001 V 540 H 1.4305e-5 Z"
         clip-rule="evenodd"
         id="path2470" /></clipPath><clipPath
       clipPathUnits="userSpaceOnUse"
       id="clipPath2490"><path
         d="M 1.4305e-5,0 H 960.00001 V 540 H 1.4305e-5 Z"
         clip-rule="evenodd"
         id="path2488" /></clipPath><clipPath
       clipPathUnits="userSpaceOnUse"
       id="clipPath2502"><path
         d="M 1.4305e-5,0 H 960.00001 V 540 H 1.4305e-5 Z"
         clip-rule="evenodd"
         id="path2500" /></clipPath><clipPath
       clipPathUnits="userSpaceOnUse"
       id="clipPath2522"><path
         d="M 1.4305e-5,0 H 960.00001 V 540 H 1.4305e-5 Z"
         clip-rule="evenodd"
         id="path2520" /></clipPath><clipPath
       clipPathUnits="userSpaceOnUse"
       id="clipPath2534"><path
         d="M 1.4305e-5,0 H 960.00001 V 540 H 1.4305e-5 Z"
         clip-rule="evenodd"
         id="path2532" /></clipPath><clipPath
       clipPathUnits="userSpaceOnUse"
       id="clipPath2546"><path
         d="M 1.4305e-5,0 H 960.00001 V 540 H 1.4305e-5 Z"
         clip-rule="evenodd"
         id="path2544" /></clipPath><clipPath
       clipPathUnits="userSpaceOnUse"
       id="clipPath2558"><path
         d="M 1.4305e-5,0 H 960.00001 V 540 H 1.4305e-5 Z"
         clip-rule="evenodd"
         id="path2556" /></clipPath><clipPath
       clipPathUnits="userSpaceOnUse"
       id="clipPath2570"><path
         d="M 1.4305e-5,0 H 960.00001 V 540 H 1.4305e-5 Z"
         clip-rule="evenodd"
         id="path2568" /></clipPath><clipPath
       clipPathUnits="userSpaceOnUse"
       id="clipPath2582"><path
         d="M 1.4305e-5,0 H 960.00001 V 540 H 1.4305e-5 Z"
         clip-rule="evenodd"
         id="path2580" /></clipPath><clipPath
       clipPathUnits="userSpaceOnUse"
       id="clipPath2594"><path
         d="M 1.4305e-5,0 H 960.00001 V 540 H 1.4305e-5 Z"
         clip-rule="evenodd"
         id="path2592" /></clipPath><clipPath
       clipPathUnits="userSpaceOnUse"
       id="clipPath2610"><path
         d="M 1.4305e-5,0 H 960.00001 V 540 H 1.4305e-5 Z"
         clip-rule="evenodd"
         id="path2608" /></clipPath></defs><sodipodi:namedview
     id="namedview2048"
     pagecolor="#ffffff"
     bordercolor="#666666"
     borderopacity="1.0"
     inkscape:pageshadow="2"
     inkscape:pageopacity="0.0"
     inkscape:pagecheckerboard="0"
     showgrid="false"
     fit-margin-top="0"
     fit-margin-left="0"
     fit-margin-right="0"
     fit-margin-bottom="0"
     inkscape:zoom="1.321875"
     inkscape:cx="474.32624"
     inkscape:cy="233.38061"
     inkscape:window-width="2560"
     inkscape:window-height="1361"
     inkscape:window-x="-9"
     inkscape:window-y="-9"
     inkscape:window-maximized="1"
     inkscape:current-layer="g2052" /><g
     id="g2052"
     inkscape:groupmode="layer"
     inkscape:label="dag"
     transform="matrix(1.3333333,0,0,-1.3333333,-165.96,594.03999)"><path
       d="m 125.22,357 c 0,5.07 4.11,9.18 9.18,9.18 h 244.8 c 5.07,0 9.18,-4.11 9.18,-9.18 v -36.72 c 0,-5.07 -4.11,-9.18 -9.18,-9.18 H 134.4 c -5.07,0 -9.18,4.11 -9.18,9.18 z"
       style="fill:none;stroke:#4472c4;stroke-width:1.5;stroke-linecap:butt;stroke-linejoin:miter;stroke-miterlimit:10;stroke-dasharray:none;stroke-opacity:1"
       id="path2066" /><path
       d="m 125.22,435.6 c 0,5.07 4.11,9.18 9.18,9.18 h 244.8 c 5.07,0 9.18,-4.11 9.18,-9.18 v -36.72 c 0,-5.07 -4.11,-9.18 -9.18,-9.18 H 134.4 c -5.07,0 -9.18,4.11 -9.18,9.18 z"
       style="fill:none;stroke:#4472c4;stroke-width:1.5;stroke-linecap:butt;stroke-linejoin:miter;stroke-miterlimit:10;stroke-dasharray:none;stroke-opacity:1"
       id="path2070" /><g
       id="g2072"><g
         id="g2074"
         clip-path="url(#clipPath2078)"><text
           transform="matrix(1,0,0,-1,146.5,410.11)"
           style="font-variant:normal;font-weight:normal;font-size:20.064px;font-family:'Microsoft YaHei';-inkscape-font-specification:MicrosoftYaHei;writing-mode:lr-tb;fill:#000000;fill-opacity:1;fill-rule:nonzero;stroke:none"
           id="text2082"><tspan
             x="0 20.040001 40.080002 60.119999 80.160004 100.2 120.24 140.28 160.32001 180.36 200.39999"
             y="0"
             sodipodi:role="line"
             id="tspan2080">前端编程语言：构建模型</tspan></text></g></g><g
       id="g2086"><path
         d="m 138.66,351.46 c 0,3.56 2.88,6.44 6.44,6.44 h 95.6 c 3.56,0 6.44,-2.88 6.44,-6.44 V 325.7 c 0,-3.56 -2.88,-6.44 -6.44,-6.44 h -95.6 c -3.56,0 -6.44,2.88 -6.44,6.44 z"
         style="fill:none;stroke:#4472c4;stroke-width:1.5;stroke-linecap:butt;stroke-linejoin:miter;stroke-miterlimit:10;stroke-dasharray:4.5, 1.5;stroke-dashoffset:0;stroke-opacity:1"
         id="path2088" /></g><g
       id="g2090"><g
         id="g2092"
         clip-path="url(#clipPath2096)"><text
           transform="matrix(1,0,0,-1,152.76,331.42)"
           style="font-variant:normal;font-weight:normal;font-size:20.04px;font-family:'Microsoft YaHei';-inkscape-font-specification:MicrosoftYaHei;writing-mode:lr-tb;fill:#000000;fill-opacity:1;fill-rule:nonzero;stroke:none"
           id="text2100"><tspan
             x="0 20.040001 40.080002 60.119999"
             y="0"
             sodipodi:role="line"
             id="tspan2098">前向计算</tspan></text></g></g><g
       id="g2104"><path
         d="m 260.58,351.46 c 0,3.56 2.88,6.44 6.44,6.44 h 103.52 c 3.56,0 6.44,-2.88 6.44,-6.44 V 325.7 c 0,-3.56 -2.88,-6.44 -6.44,-6.44 H 267.02 c -3.56,0 -6.44,2.88 -6.44,6.44 z"
         style="fill:none;stroke:#4472c4;stroke-width:1.5;stroke-linecap:butt;stroke-linejoin:miter;stroke-miterlimit:10;stroke-dasharray:4.5, 1.5;stroke-dashoffset:0;stroke-opacity:1"
         id="path2106" /></g><g
       id="g2108"><g
         id="g2110"
         clip-path="url(#clipPath2114)"><text
           transform="matrix(1,0,0,-1,278.62,331.42)"
           style="font-variant:normal;font-weight:normal;font-size:20.04px;font-family:'Microsoft YaHei';-inkscape-font-specification:MicrosoftYaHei;writing-mode:lr-tb;fill:#000000;fill-opacity:1;fill-rule:nonzero;stroke:none"
           id="text2118"><tspan
             x="0 20.040001 40.080002 60.119999"
             y="0"
             sodipodi:role="line"
             id="tspan2116">自动微分</tspan></text></g></g><path
       d="m 241.92,378 h 6.06 v 11.76 H 260.1 V 378 h 6.06 l -12.12,-11.76 z"
       style="fill:#b4c7e7;fill-opacity:1;fill-rule:evenodd;stroke:none"
       id="path2120" /><path
       d="m 241.92,378 h 6.06 v 11.76 H 260.1 V 378 h 6.06 l -12.12,-11.76 z"
       style="fill:none;stroke:#2f528f;stroke-width:1;stroke-linecap:butt;stroke-linejoin:miter;stroke-miterlimit:10;stroke-dasharray:none;stroke-opacity:1"
       id="path2122" /><path
       d="m 125.22,278.28 c 0,5.07 4.11,9.18 9.18,9.18 h 244.8 c 5.07,0 9.18,-4.11 9.18,-9.18 v -36.72 c 0,-5.07 -4.11,-9.18 -9.18,-9.18 H 134.4 c -5.07,0 -9.18,4.11 -9.18,9.18 z"
       style="fill:#dae3f3;fill-opacity:1;fill-rule:evenodd;stroke:none"
       id="path2124" /><path
       d="m 125.22,278.28 c 0,5.07 4.11,9.18 9.18,9.18 h 244.8 c 5.07,0 9.18,-4.11 9.18,-9.18 v -36.72 c 0,-5.07 -4.11,-9.18 -9.18,-9.18 H 134.4 c -5.07,0 -9.18,4.11 -9.18,9.18 z"
       style="fill:none;stroke:#4472c4;stroke-width:1.5;stroke-linecap:butt;stroke-linejoin:miter;stroke-miterlimit:10;stroke-dasharray:none;stroke-opacity:1"
       id="path2126" /><g
       id="g2128"><g
         id="g2130"
         clip-path="url(#clipPath2134)"><text
           transform="matrix(1,0,0,-1,166.54,264.74)"
           style="font-variant:normal;font-weight:normal;font-size:20.064px;font-family:'Microsoft YaHei';-inkscape-font-specification:MicrosoftYaHei;writing-mode:lr-tb;fill:#000000;fill-opacity:1;fill-rule:nonzero;stroke:none"
           id="text2138"><tspan
             x="0 20.040001 40.080002 60.119999 80.160004 100.2 120.24 140.28 160.32001"
             y="0"
             sodipodi:role="line"
             id="tspan2136">模型高级中间表示：</tspan></text></g></g><g
       id="g2140"><g
         id="g2142"
         clip-path="url(#clipPath2146)"><text
           transform="matrix(1,0,0,-1,226.68,240.72)"
           style="font-variant:normal;font-weight:normal;font-size:20.04px;font-family:'Microsoft YaHei';-inkscape-font-specification:MicrosoftYaHei;writing-mode:lr-tb;fill:#000000;fill-opacity:1;fill-rule:nonzero;stroke:none"
           id="text2150"><tspan
             x="0 20.040001 40.080002"
             y="0"
             sodipodi:role="line"
             id="tspan2148">计算图</tspan></text></g></g><path
       d="m 241.92,299.34 h 6.06 v 11.82 h 12.12 v -11.82 h 6.06 l -12.12,-11.82 z"
       style="fill:#b4c7e7;fill-opacity:1;fill-rule:evenodd;stroke:none"
       id="path2152" /><path
       d="m 241.92,299.34 h 6.06 v 11.82 h 12.12 v -11.82 h 6.06 l -12.12,-11.82 z"
       style="fill:none;stroke:#2f528f;stroke-width:1;stroke-linecap:butt;stroke-linejoin:miter;stroke-miterlimit:10;stroke-dasharray:none;stroke-opacity:1"
       id="path2154" /><path
       d="m 243.36,220.68 h 6.06 v 11.76 h 12.12 v -11.76 h 6.06 l -12.12,-11.76 z"
       style="fill:#b4c7e7;fill-opacity:1;fill-rule:evenodd;stroke:none"
       id="path2156" /><path
       d="m 243.36,220.68 h 6.06 v 11.76 h 12.12 v -11.76 h 6.06 l -12.12,-11.76 z"
       style="fill:none;stroke:#2f528f;stroke-width:1;stroke-linecap:butt;stroke-linejoin:miter;stroke-miterlimit:10;stroke-dasharray:none;stroke-opacity:1"
       id="path2158" /><path
       d="m 125.22,198.72 c 0,5.07 4.11,9.18 9.18,9.18 h 244.8 c 5.07,0 9.18,-4.11 9.18,-9.18 V 162 c 0,-5.07 -4.11,-9.18 -9.18,-9.18 H 134.4 c -5.07,0 -9.18,4.11 -9.18,9.18 z"
       style="fill:none;stroke:#4472c4;stroke-width:1.5;stroke-linecap:butt;stroke-linejoin:miter;stroke-miterlimit:10;stroke-dasharray:none;stroke-opacity:1"
       id="path2160" /><g
       id="g2162"><g
         id="g2164"
         clip-path="url(#clipPath2168)"><text
           transform="matrix(1,0,0,-1,196.54,173.16)"
           style="font-variant:normal;font-weight:normal;font-size:20.04px;font-family:'Microsoft YaHei';-inkscape-font-specification:MicrosoftYaHei;writing-mode:lr-tb;fill:#000000;fill-opacity:1;fill-rule:nonzero;stroke:none"
           id="text2172"><tspan
             x="0 20.063999 40.127998 60.192001 80.255997 100.32"
             y="0"
             sodipodi:role="line"
             id="tspan2170">图优化与编译</tspan></text></g></g><path
       d="m 125.22,124.08 c 0,5.07 4.11,9.18 9.18,9.18 h 244.8 c 5.07,0 9.18,-4.11 9.18,-9.18 V 87.36 c 0,-5.07 -4.11,-9.18 -9.18,-9.18 H 134.4 c -5.07,0 -9.18,4.11 -9.18,9.18 z"
       style="fill:none;stroke:#4472c4;stroke-width:1.5;stroke-linecap:butt;stroke-linejoin:miter;stroke-miterlimit:10;stroke-dasharray:none;stroke-opacity:1"
       id="path2174" /><g
       id="g2176"><g
         id="g2178"
         clip-path="url(#clipPath2182)"><text
           transform="matrix(1,0,0,-1,216.6,98.472)"
           style="font-variant:normal;font-weight:normal;font-size:20.04px;font-family:'Microsoft YaHei';-inkscape-font-specification:MicrosoftYaHei;writing-mode:lr-tb;fill:#000000;fill-opacity:1;fill-rule:nonzero;stroke:none"
           id="text2186"><tspan
             x="0 20.040001 40.080002 60.119999"
             y="0"
             sodipodi:role="line"
             id="tspan2184">计算硬件</tspan></text></g></g><path
       d="m 243.36,143.34 h 6.06 v 11.82 h 12.12 v -11.82 h 6.06 l -12.12,-11.82 z"
       style="fill:#b4c7e7;fill-opacity:1;fill-rule:evenodd;stroke:none"
       id="path2188" /><path
       d="m 243.36,143.34 h 6.06 v 11.82 h 12.12 v -11.82 h 6.06 l -12.12,-11.82 z"
       style="fill:none;stroke:#2f528f;stroke-width:1;stroke-linecap:butt;stroke-linejoin:miter;stroke-miterlimit:10;stroke-dasharray:none;stroke-opacity:1"
       id="path2190" /><path
       d="m 388.32,268.41 h 17.34 v 6.87 L 419.4,261.54 405.66,247.8 v 6.87 h -17.34 z"
       style="fill:#4472c4;fill-opacity:1;fill-rule:evenodd;stroke:none"
       id="path2192" /><path
       d="m 388.32,268.41 h 17.34 v 6.87 L 419.4,261.54 405.66,247.8 v 6.87 h -17.34 z"
       style="fill:none;stroke:#2f528f;stroke-width:1;stroke-linecap:butt;stroke-linejoin:miter;stroke-miterlimit:10;stroke-dasharray:none;stroke-opacity:1"
       id="path2194" /><path
       d="m 449.64,87.9 h 7.77 v 356.82 h 15.54 V 87.9 h 7.77 L 465.18,72.36 Z"
       style="fill:#8faadc;fill-opacity:1;fill-rule:evenodd;stroke:none"
       id="path2196" /><path
       d="m 449.64,87.9 h 7.77 v 356.82 h 15.54 V 87.9 h 7.77 L 465.18,72.36 Z"
       style="fill:none;stroke:#b4c7e7;stroke-width:1;stroke-linecap:butt;stroke-linejoin:miter;stroke-miterlimit:10;stroke-dasharray:none;stroke-opacity:1"
       id="path2198" /><g
       id="g2200"><g
         id="g2202"
         clip-path="url(#clipPath2206)"><text
           transform="matrix(1,0,0,-1,457.06,266.69)"
           style="font-variant:normal;font-weight:normal;font-size:18.024px;font-family:'Microsoft YaHei';-inkscape-font-specification:MicrosoftYaHei;writing-mode:lr-tb;fill:#000000;fill-opacity:1;fill-rule:nonzero;stroke:none"
           id="text2210"><tspan
             x="0"
             y="0"
             id="tspan2208">前</tspan></text></g></g><g
       id="g2212"><g
         id="g2214"
         clip-path="url(#clipPath2218)"><text
           transform="matrix(1,0,0,-1,457.06,245.06)"
           style="font-variant:normal;font-weight:normal;font-size:18px;font-family:'Microsoft YaHei';-inkscape-font-specification:MicrosoftYaHei;writing-mode:lr-tb;fill:#000000;fill-opacity:1;fill-rule:nonzero;stroke:none"
           id="text2222"><tspan
             x="0"
             y="0"
             id="tspan2220">向</tspan></text></g></g><path
       d="m 834.84,424.5 h -7.77 V 67.56 H 811.52 V 424.5 h -7.77 l 15.55,15.54 z"
       style="fill:#8faadc;fill-opacity:1;fill-rule:evenodd;stroke:none"
       id="path2224" /><path
       d="m 834.84,424.5 h -7.77 V 67.56 H 811.52 V 424.5 h -7.77 l 15.55,15.54 z"
       style="fill:none;stroke:#b4c7e7;stroke-width:1;stroke-linecap:butt;stroke-linejoin:miter;stroke-miterlimit:10;stroke-dasharray:none;stroke-opacity:1"
       id="path2226" /><g
       id="g2228"><g
         id="g2230"
         clip-path="url(#clipPath2234)"><text
           transform="matrix(1,0,0,-1,808.66,273.1)"
           style="font-variant:normal;font-weight:normal;font-size:18.024px;font-family:'Microsoft YaHei';-inkscape-font-specification:MicrosoftYaHei;writing-mode:lr-tb;fill:#000000;fill-opacity:1;fill-rule:nonzero;stroke:none"
           id="text2238"><tspan
             x="0"
             y="0"
             id="tspan2236">反</tspan></text></g></g><g
       id="g2240"><g
         id="g2242"
         clip-path="url(#clipPath2246)"><text
           transform="matrix(1,0,0,-1,808.66,251.47)"
           style="font-variant:normal;font-weight:normal;font-size:18px;font-family:'Microsoft YaHei';-inkscape-font-specification:MicrosoftYaHei;writing-mode:lr-tb;fill:#000000;fill-opacity:1;fill-rule:nonzero;stroke:none"
           id="text2250"><tspan
             x="0"
             y="0"
             id="tspan2248">向</tspan></text></g></g><g
       id="g2252"><g
         id="g2254"
         clip-path="url(#clipPath2258)"><text
           transform="matrix(1,0,0,-1,526.94,373.15)"
           style="font-style:italic;font-variant:normal;font-weight:bold;font-size:18px;font-family:'Times New Roman';-inkscape-font-specification:TimesNewRomanPS-BoldItalicMT;writing-mode:lr-tb;fill:#000000;fill-opacity:1;fill-rule:nonzero;stroke:none"
           id="text2262"><tspan
             x="0"
             y="0"
             id="tspan2260">W</tspan></text></g></g><g
       id="g2264"><g
         id="g2266"
         clip-path="url(#clipPath2270)"><text
           transform="matrix(1,0,0,-1,542.93,368.71)"
           style="font-style:italic;font-variant:normal;font-weight:bold;font-size:12px;font-family:'Times New Roman';-inkscape-font-specification:TimesNewRomanPS-BoldItalicMT;writing-mode:lr-tb;fill:#000000;fill-opacity:1;fill-rule:nonzero;stroke:none"
           id="text2274"><tspan
             x="0"
             y="0"
             id="tspan2272">1</tspan></text></g></g><path
       d="m 488.31,365.73 16.72,-24.49 -1.86,-1.27 -16.72,24.5 z m 17.94,-22.29 1.02,-7.48 -6.59,3.67 z"
       style="fill:#000000;fill-opacity:1;fill-rule:nonzero;stroke:none"
       id="path2276" /><path
       d="m 538.3,365.72 -16.33,-24.46 1.87,-1.25 16.34,24.47 z m -17.58,-22.27 -0.94,-7.49 6.56,3.74 z"
       style="fill:#000000;fill-opacity:1;fill-rule:nonzero;stroke:none"
       id="path2278" /><path
       d="m 496.77263,323.38426 c 0,8.81 7.15,15.96 15.96,15.96 8.81,0 15.96,-7.15 15.96,-15.96 0,-8.81 -7.15,-15.96 -15.96,-15.96 -8.81,0 -15.96,7.15 -15.96,15.96 z"
       style="fill:none;stroke:#000000;stroke-width:2.25;stroke-linecap:butt;stroke-linejoin:miter;stroke-miterlimit:10;stroke-dasharray:none;stroke-opacity:1"
       id="path2282" /><g
       id="g2284"><g
         id="g2286"
         clip-path="url(#clipPath2290)"><text
           transform="matrix(1,0,0,-1,505.32,308.26)"
           style="font-variant:normal;font-weight:normal;font-size:32.04px;font-family:'Times New Roman';-inkscape-font-specification:TimesNewRomanPSMT;writing-mode:lr-tb;fill:#000000;fill-opacity:1;fill-rule:nonzero;stroke:none"
           id="text2294"><tspan
             x="0"
             y="0"
             id="tspan2292">*</tspan></text></g></g><path
       d="m 514.37,304.5 4.65,-13.98 -2.13,-0.71 -4.66,13.97 z m 6.43,-12.21 -1.07,-7.47 -5.33,5.34 z"
       style="fill:#000000;fill-opacity:1;fill-rule:nonzero;stroke:none"
       id="path2296" /><path
       d="m 510.66,267.14738 c 0,11.07 8.97,20.04 20.04,20.04 11.07,0 20.04,-8.97 20.04,-20.04 0,-11.07 -8.97,-20.04 -20.04,-20.04 -11.07,0 -20.04,8.97 -20.04,20.04 z"
       style="fill:none;stroke:#000000;stroke-width:2.25;stroke-linecap:butt;stroke-linejoin:miter;stroke-miterlimit:10;stroke-dasharray:none;stroke-opacity:1"
       id="path2300" /><g
       id="g2302"><g
         id="g2304"
         clip-path="url(#clipPath2308)"><text
           transform="matrix(1,0,0,-1,514.51,261.55)"
           style="font-variant:normal;font-weight:normal;font-size:14.04px;font-family:'Times New Roman';-inkscape-font-specification:TimesNewRomanPSMT;writing-mode:lr-tb;fill:#000000;fill-opacity:1;fill-rule:nonzero;stroke:none"
           id="text2312"><tspan
             x="0 9.3646803 15.59844 24.12072"
             y="0"
             sodipodi:role="line"
             id="tspan2310">ReLU</tspan></text></g></g><g
       id="g2314"><g
         id="g2316"
         clip-path="url(#clipPath2320)"><text
           transform="matrix(1,0,0,-1,571.34,261.05)"
           style="font-style:italic;font-variant:normal;font-weight:bold;font-size:18px;font-family:'Times New Roman';-inkscape-font-specification:TimesNewRomanPS-BoldItalicMT;writing-mode:lr-tb;fill:#000000;fill-opacity:1;fill-rule:nonzero;stroke:none"
           id="text2324"><tspan
             x="0"
             y="0"
             id="tspan2322">W</tspan></text></g></g><g
       id="g2326"><g
         id="g2328"
         clip-path="url(#clipPath2332)"><text
           transform="matrix(1,0,0,-1,587.3,256.61)"
           style="font-style:italic;font-variant:normal;font-weight:bold;font-size:12px;font-family:'Times New Roman';-inkscape-font-specification:TimesNewRomanPS-BoldItalicMT;writing-mode:lr-tb;fill:#000000;fill-opacity:1;fill-rule:nonzero;stroke:none"
           id="text2336"><tspan
             x="0"
             y="0"
             id="tspan2334">2</tspan></text></g></g><path
       d="m 581.5,253.62 -15.28,-24.38 1.9,-1.19 15.29,24.37 z m -16.59,-22.23 -0.73,-7.51 6.45,3.92 z"
       style="fill:#000000;fill-opacity:1;fill-rule:nonzero;stroke:none"
       id="path2338" /><path
       d="m 540.03787,206.76525 c 0,8.81 7.15,15.96 15.96,15.96 8.81,0 15.96,-7.15 15.96,-15.96 0,-8.81 -7.15,-15.96 -15.96,-15.96 -8.81,0 -15.96,7.15 -15.96,15.96 z"
       style="fill:none;stroke:#000000;stroke-width:2.25;stroke-linecap:butt;stroke-linejoin:miter;stroke-miterlimit:10;stroke-dasharray:none;stroke-opacity:1"
       id="path2342" /><g
       id="g2344"
       transform="translate(-1.7021377,-6.2410739)"><g
         id="g2346"
         clip-path="url(#clipPath2350)"><text
           transform="matrix(1,0,0,-1,549.7,196.15)"
           style="font-variant:normal;font-weight:normal;font-size:32.04px;font-family:'Times New Roman';-inkscape-font-specification:TimesNewRomanPSMT;writing-mode:lr-tb;fill:#000000;fill-opacity:1;fill-rule:nonzero;stroke:none"
           id="text2354"><tspan
             x="0"
             y="0"
             id="tspan2352">*</tspan></text></g></g><path
       d="m 531.58,247.24 15.47,-19.65 -1.77,-1.39 -15.46,19.64 z m 16.54,-17.37 1.52,-7.4 -6.83,3.22 z"
       style="fill:#000000;fill-opacity:1;fill-rule:nonzero;stroke:none"
       id="path2356" /><path
       d="m 561.8,190.33 12.97,-23.42 -1.97,-1.09 -12.96,23.42 z m 14.4,-21.35 0.31,-7.54 -6.22,4.27 z"
       style="fill:#000000;fill-opacity:1;fill-rule:nonzero;stroke:none"
       id="path2358" /><g
       id="g2360"><g
         id="g2362"
         clip-path="url(#clipPath2366)"><text
           transform="matrix(1,0,0,-1,482.16,371.57)"
           style="font-style:italic;font-variant:normal;font-weight:bold;font-size:18px;font-family:'Times New Roman';-inkscape-font-specification:TimesNewRomanPS-BoldItalicMT;writing-mode:lr-tb;fill:#000000;fill-opacity:1;fill-rule:nonzero;stroke:none"
           id="text2370"><tspan
             x="0"
             y="0"
             id="tspan2368">X</tspan></text></g></g><path
       d="m 544.56,145.7 h 26.67 v -1 h -26.67 z m 25.67,2.5 6,-3 -6,-3 z"
       style="fill:#4472c4;fill-opacity:1;fill-rule:nonzero;stroke:none"
       id="path2372" /><path
       d="m 544.56,103.46 h 26.67 v -1 h -26.67 z m 25.67,2.5 6,-3 -6,-3 z"
       style="fill:#4472c4;fill-opacity:1;fill-rule:nonzero;stroke:none"
       id="path2374" /><g
       id="g2376"><g
         id="g2378"
         clip-path="url(#clipPath2382)"><text
           transform="matrix(1,0,0,-1,499.1,139.63)"
           style="font-variant:normal;font-weight:normal;font-size:18px;font-family:'Microsoft YaHei';-inkscape-font-specification:MicrosoftYaHei;writing-mode:lr-tb;fill:#000000;fill-opacity:1;fill-rule:nonzero;stroke:none"
           id="text2386"><tspan
             x="0 18"
             y="0"
             sodipodi:role="line"
             id="tspan2384">预测</tspan></text></g></g><g
       id="g2388"><g
         id="g2390"
         clip-path="url(#clipPath2394)"><text
           transform="matrix(1,0,0,-1,500.02,98.592)"
           style="font-variant:normal;font-weight:normal;font-size:18px;font-family:'Microsoft YaHei';-inkscape-font-specification:MicrosoftYaHei;writing-mode:lr-tb;fill:#000000;fill-opacity:1;fill-rule:nonzero;stroke:none"
           id="text2398"><tspan
             x="0 18"
             y="0"
             sodipodi:role="line"
             id="tspan2396">标签</tspan></text></g></g><path
       d="m 596.02,94.572 27.6,14.228 -1.03,2 -27.61,-14.228 z m 27.63,11.718 4.46,6.09 -7.55,-0.09 z"
       style="fill:#000000;fill-opacity:1;fill-rule:nonzero;stroke:none"
       id="path2400" /><path
       d="m 599.03,142.41 26.2,-14.14 -1.07,-1.98 -26.19,14.14 z m 26.28,-11.63 4.33,-6.17 -7.54,0.23 z"
       style="fill:#000000;fill-opacity:1;fill-rule:nonzero;stroke:none"
       id="path2402" /><path
       d="m 629.1,121.26 c 0,10.67 8.68,19.32 19.38,19.32 10.7,0 19.38,-8.65 19.38,-19.32 0,-10.67 -8.68,-19.32 -19.38,-19.32 -10.7,0 -19.38,8.65 -19.38,19.32 z"
       style="fill:none;stroke:#000000;stroke-width:2.25;stroke-linecap:butt;stroke-linejoin:miter;stroke-miterlimit:10;stroke-dasharray:none;stroke-opacity:1"
       id="path2406" /><g
       id="g2408"><g
         id="g2410"
         clip-path="url(#clipPath2414)"><text
           transform="matrix(1,0,0,-1,633.12,115.75)"
           style="font-variant:normal;font-weight:normal;font-size:18px;font-family:'Times New Roman';-inkscape-font-specification:TimesNewRomanPSMT;writing-mode:lr-tb;fill:#000000;fill-opacity:1;fill-rule:nonzero;stroke:none"
           id="text2418"><tspan
             x="0 5.0040002 14.004 21.006001"
             y="0"
             sodipodi:role="line"
             id="tspan2416">loss</tspan></text></g></g><path
       d="m 687.33263,172.62525 c 0,8.78 7.15,15.9 15.96,15.9 8.81,0 15.96,-7.12 15.96,-15.9 0,-8.78 -7.15,-15.9 -15.96,-15.9 -8.81,0 -15.96,7.12 -15.96,15.9 z"
       style="fill:none;stroke:#000000;stroke-width:2.25;stroke-linecap:butt;stroke-linejoin:miter;stroke-miterlimit:10;stroke-dasharray:none;stroke-opacity:1"
       id="path2422" /><g
       id="g2424"><g
         id="g2426"
         clip-path="url(#clipPath2430)"><text
           transform="matrix(1,0,0,-1,692.62,167.09)"
           style="font-variant:normal;font-weight:normal;font-size:18px;font-family:'Times New Roman';-inkscape-font-specification:TimesNewRomanPSMT;writing-mode:lr-tb;fill:#000000;fill-opacity:1;fill-rule:nonzero;stroke:none"
           id="text2434"><tspan
             x="0 9"
             y="0"
             sodipodi:role="line"
             id="tspan2432">*g</tspan></text></g></g><path
       d="m 592.87,260.31 92.43,-72.45 -0.62,-0.79 -92.43,72.46 z m 93.19,-69.86 2.87,-6.07 -6.58,1.34 z"
       style="fill:#4472c4;fill-opacity:1;fill-rule:nonzero;stroke:none"
       id="path2436" /><path
       d="m 674.06,122.06 26.83,31.72 -0.77,0.64 -26.82,-31.72 z m 28.09,29.34 1.58,6.52 -6.16,-2.64 z"
       style="fill:#4472c4;fill-opacity:1;fill-rule:nonzero;stroke:none"
       id="path2438" /><path
       d="m 715.33,187.88 -21.69,37.23 0.87,0.5 21.68,-37.23 z m -23.34,35.11 -0.43,6.69 5.61,-3.67 z"
       style="fill:#4472c4;fill-opacity:1;fill-rule:nonzero;stroke:none"
       id="path2440" /><g
       id="g2442"><g
         id="g2444"
         clip-path="url(#clipPath2448)"><text
           transform="matrix(0.94869278,0,-0.31619931,-0.94869278,666.17,259.46)"
           style="font-variant:normal;font-weight:normal;font-size:18.9735px;font-family:'Cambria Math';-inkscape-font-specification:CambriaMath;writing-mode:lr-tb;fill:#000000;fill-opacity:1;fill-rule:nonzero;stroke:none"
           id="text2452"><tspan
             x="0"
             y="0"
             id="tspan2450">∇</tspan></text></g></g><g
       id="g2454"><g
         id="g2456"
         clip-path="url(#clipPath2460)"><text
           transform="matrix(1,0,0,-1,681.41,259.46)"
           style="font-style:italic;font-variant:normal;font-weight:bold;font-size:18px;font-family:'Times New Roman';-inkscape-font-specification:TimesNewRomanPS-BoldItalicMT;writing-mode:lr-tb;fill:#000000;fill-opacity:1;fill-rule:nonzero;stroke:none"
           id="text2464"><tspan
             x="0"
             y="0"
             id="tspan2462">W</tspan></text></g></g><g
       id="g2466"><g
         id="g2468"
         clip-path="url(#clipPath2472)"><text
           transform="matrix(1,0,0,-1,697.39,255.02)"
           style="font-style:italic;font-variant:normal;font-weight:bold;font-size:12px;font-family:'Times New Roman';-inkscape-font-specification:TimesNewRomanPS-BoldItalicMT;writing-mode:lr-tb;fill:#000000;fill-opacity:1;fill-rule:nonzero;stroke:none"
           id="text2476"><tspan
             x="0"
             y="0"
             id="tspan2474">2</tspan></text></g></g><path
       d="m 716.08,187.82 33.28,43 -0.79,0.61 -33.29,-42.99 z m 34.65,40.68 1.3,6.58 -6.05,-2.91 z"
       style="fill:#4472c4;fill-opacity:1;fill-rule:nonzero;stroke:none"
       id="path2478" /><path
       d="m 727.02,260.1 c 0,13.85 11.23,25.08 25.08,25.08 13.85,0 25.08,-11.23 25.08,-25.08 0,-13.85 -11.23,-25.08 -25.08,-25.08 -13.85,0 -25.08,11.23 -25.08,25.08 z"
       style="fill:none;stroke:#000000;stroke-width:2.25;stroke-linecap:butt;stroke-linejoin:miter;stroke-miterlimit:10;stroke-dasharray:none;stroke-opacity:1"
       id="path2482" /><g
       id="g2484"><g
         id="g2486"
         clip-path="url(#clipPath2490)"><text
           transform="matrix(0.94869278,0,-0.31619931,-0.94869278,728.54,254.81)"
           style="font-variant:normal;font-weight:normal;font-size:14.7993px;font-family:'Cambria Math';-inkscape-font-specification:CambriaMath;writing-mode:lr-tb;fill:#000000;fill-opacity:1;fill-rule:nonzero;stroke:none"
           id="text2494"><tspan
             x="0"
             y="0"
             id="tspan2492">∇</tspan></text></g></g><g
       id="g2496"><g
         id="g2498"
         clip-path="url(#clipPath2502)"><text
           transform="matrix(1,0,0,-1,740.42,254.81)"
           style="font-variant:normal;font-weight:normal;font-size:14.04px;font-family:'Times New Roman';-inkscape-font-specification:TimesNewRomanPSMT;writing-mode:lr-tb;fill:#000000;fill-opacity:1;fill-rule:nonzero;stroke:none"
           id="text2506"><tspan
             x="0 9.3646803 15.59844 24.12072"
             y="0"
             sodipodi:role="line"
             id="tspan2504">ReLU</tspan></text></g></g><path
       d="m 499.92,378.61 242.83,-60.22 -0.24,-0.98 -242.83,60.22 z m 242.46,-57.56 5.1,-4.35 -6.54,-1.47 z"
       style="fill:#4472c4;fill-opacity:1;fill-rule:nonzero;stroke:none"
       id="path2508" /><path
       d="m 547.59,378.36 195.22,-59.75 -0.29,-0.95 -195.23,59.74 z m 194.99,-57.06 4.86,-4.63 -6.61,-1.11 z"
       style="fill:#4472c4;fill-opacity:1;fill-rule:nonzero;stroke:none"
       id="path2510" /><path
       d="m 765.64,332.38 -39.27,28.93 0.59,0.81 39.28,-28.94 z m -39.95,26.33 -3.05,5.97 6.61,-1.14 z"
       style="fill:#4472c4;fill-opacity:1;fill-rule:nonzero;stroke:none"
       id="path2512" /><path
       d="m 766.64,333.59 15.19,29.07 -0.89,0.46 -15.18,-29.07 z m 16.94,27.02 0.12,6.71 -5.44,-3.93 z"
       style="fill:#4472c4;fill-opacity:1;fill-rule:nonzero;stroke:none"
       id="path2514" /><g
       id="g2516"><g
         id="g2518"
         clip-path="url(#clipPath2522)"><text
           transform="matrix(0.94869278,0,-0.31619931,-0.94869278,705.96,372.65)"
           style="font-variant:normal;font-weight:normal;font-size:18.9735px;font-family:'Cambria Math';-inkscape-font-specification:CambriaMath;writing-mode:lr-tb;fill:#000000;fill-opacity:1;fill-rule:nonzero;stroke:none"
           id="text2526"><tspan
             x="0"
             y="0"
             id="tspan2524">∇</tspan></text></g></g><g
       id="g2528"><g
         id="g2530"
         clip-path="url(#clipPath2534)"><text
           transform="matrix(1,0,0,-1,716.64,372.65)"
           style="font-style:italic;font-variant:normal;font-weight:bold;font-size:18px;font-family:'Times New Roman';-inkscape-font-specification:TimesNewRomanPS-BoldItalicMT;writing-mode:lr-tb;fill:#000000;fill-opacity:1;fill-rule:nonzero;stroke:none"
           id="text2538"><tspan
             x="0"
             y="0"
             id="tspan2536">X</tspan></text></g></g><g
       id="g2540"><g
         id="g2542"
         clip-path="url(#clipPath2546)"><text
           transform="matrix(0.94869278,0,-0.31619931,-0.94869278,760.51,372.65)"
           style="font-variant:normal;font-weight:normal;font-size:18.9735px;font-family:'Cambria Math';-inkscape-font-specification:CambriaMath;writing-mode:lr-tb;fill:#000000;fill-opacity:1;fill-rule:nonzero;stroke:none"
           id="text2550"><tspan
             x="0"
             y="0"
             id="tspan2548">∇</tspan></text></g></g><g
       id="g2552"><g
         id="g2554"
         clip-path="url(#clipPath2558)"><text
           transform="matrix(1,0,0,-1,771.19,372.65)"
           style="font-style:italic;font-variant:normal;font-weight:bold;font-size:18px;font-family:'Times New Roman';-inkscape-font-specification:TimesNewRomanPS-BoldItalicMT;writing-mode:lr-tb;fill:#000000;fill-opacity:1;fill-rule:nonzero;stroke:none"
           id="text2562"><tspan
             x="0"
             y="0"
             id="tspan2560">W</tspan></text></g></g><g
       id="g2564"><g
         id="g2566"
         clip-path="url(#clipPath2570)"><text
           transform="matrix(1,0,0,-1,787.15,368.21)"
           style="font-style:italic;font-variant:normal;font-weight:bold;font-size:12px;font-family:'Times New Roman';-inkscape-font-specification:TimesNewRomanPS-BoldItalicMT;writing-mode:lr-tb;fill:#000000;fill-opacity:1;fill-rule:nonzero;stroke:none"
           id="text2574"><tspan
             x="0"
             y="0"
             id="tspan2572">1</tspan></text></g></g><g
       id="g2576"><g
         id="g2578"
         clip-path="url(#clipPath2582)"><text
           transform="matrix(1,0,0,-1,574.58,86.688)"
           style="font-style:italic;font-variant:normal;font-weight:bold;font-size:18px;font-family:'Times New Roman';-inkscape-font-specification:TimesNewRomanPS-BoldItalicMT;writing-mode:lr-tb;fill:#000000;fill-opacity:1;fill-rule:nonzero;stroke:none"
           id="text2586"><tspan
             x="0 8.04"
             y="0"
             sodipodi:role="line"
             id="tspan2584">y′</tspan></text></g></g><g
       id="g2588"><g
         id="g2590"
         clip-path="url(#clipPath2594)"><text
           transform="matrix(1,0,0,-1,584.45,136.08)"
           style="font-style:italic;font-variant:normal;font-weight:bold;font-size:20.04px;font-family:'Times New Roman';-inkscape-font-specification:TimesNewRomanPS-BoldItalicMT;writing-mode:lr-tb;fill:#000000;fill-opacity:1;fill-rule:nonzero;stroke:none"
           id="text2598"><tspan
             x="0"
             y="0"
             id="tspan2596">y</tspan></text></g></g><path
       d="m 747.48,316.7 c 0,8.81 7.15,15.96 15.96,15.96 8.81,0 15.96,-7.15 15.96,-15.96 0,-8.81 -7.15,-15.96 -15.96,-15.96 -8.81,0 -15.96,7.15 -15.96,15.96 z"
       style="fill:none;stroke:#000000;stroke-width:2.25;stroke-linecap:butt;stroke-linejoin:miter;stroke-miterlimit:10;stroke-dasharray:none;stroke-opacity:1"
       id="path2602" /><g
       id="g2604"><g
         id="g2606"
         clip-path="url(#clipPath2610)"><text
           transform="matrix(1,0,0,-1,754.78,310.13)"
           style="font-variant:normal;font-weight:normal;font-size:18px;font-family:'Times New Roman';-inkscape-font-specification:TimesNewRomanPSMT;writing-mode:lr-tb;fill:#000000;fill-opacity:1;fill-rule:nonzero;stroke:none"
           id="text2614"><tspan
             x="0 9"
             y="0"
             sodipodi:role="line"
             id="tspan2612">*g</tspan></text></g></g><path
       d="m 752.45,284.9 6.06,8.46 -0.81,0.59 -6.07,-8.47 z m 7.51,6.2 1.05,6.62 -5.93,-3.13 z"
       style="fill:#4472c4;fill-opacity:1;fill-rule:nonzero;stroke:none"
       id="path2616" /></g></svg>
