<?xml version="1.0" encoding="UTF-8" standalone="no"?>
<!-- Created with Inkscape (http://www.inkscape.org/) -->

<svg
   version="1.1"
   id="svg2"
   xml:space="preserve"
   width="836.44507"
   height="330.06665"
   viewBox="0 0 836.44507 330.06665"
   sodipodi:docname="ch04-graph_33.svg"
   inkscape:version="1.1.2 (b8e25be833, 2022-02-05)"
   xmlns:inkscape="http://www.inkscape.org/namespaces/inkscape"
   xmlns:sodipodi="http://sodipodi.sourceforge.net/DTD/sodipodi-0.dtd"
   xmlns="http://www.w3.org/2000/svg"
   xmlns:svg="http://www.w3.org/2000/svg"><defs
     id="defs6"><clipPath
       clipPathUnits="userSpaceOnUse"
       id="clipPath16"><path
         d="M 0,1.2207e-4 H 960 V 540.00012 H 0 Z"
         clip-rule="evenodd"
         id="path14" /></clipPath><clipPath
       clipPathUnits="userSpaceOnUse"
       id="clipPath26"><path
         d="M 1.4305e-5,0 H 960.00001 V 540 H 1.4305e-5 Z"
         clip-rule="evenodd"
         id="path24" /></clipPath><clipPath
       clipPathUnits="userSpaceOnUse"
       id="clipPath38"><path
         d="M 1.4305e-5,0 H 960.00001 V 540 H 1.4305e-5 Z"
         clip-rule="evenodd"
         id="path36" /></clipPath><clipPath
       clipPathUnits="userSpaceOnUse"
       id="clipPath50"><path
         d="M 1.4305e-5,0 H 960.00001 V 540 H 1.4305e-5 Z"
         clip-rule="evenodd"
         id="path48" /></clipPath><clipPath
       clipPathUnits="userSpaceOnUse"
       id="clipPath62"><path
         d="M 1.4305e-5,0 H 960.00001 V 540 H 1.4305e-5 Z"
         clip-rule="evenodd"
         id="path60" /></clipPath><clipPath
       clipPathUnits="userSpaceOnUse"
       id="clipPath74"><path
         d="M 1.4305e-5,0 H 960.00001 V 540 H 1.4305e-5 Z"
         clip-rule="evenodd"
         id="path72" /></clipPath><clipPath
       clipPathUnits="userSpaceOnUse"
       id="clipPath86"><path
         d="M 1.4305e-5,0 H 960.00001 V 540 H 1.4305e-5 Z"
         clip-rule="evenodd"
         id="path84" /></clipPath><clipPath
       clipPathUnits="userSpaceOnUse"
       id="clipPath98"><path
         d="M 1.4305e-5,0 H 960.00001 V 540 H 1.4305e-5 Z"
         clip-rule="evenodd"
         id="path96" /></clipPath><clipPath
       clipPathUnits="userSpaceOnUse"
       id="clipPath110"><path
         d="M 1.4305e-5,0 H 960.00001 V 540 H 1.4305e-5 Z"
         clip-rule="evenodd"
         id="path108" /></clipPath><clipPath
       clipPathUnits="userSpaceOnUse"
       id="clipPath122"><path
         d="M 1.4305e-5,0 H 960.00001 V 540 H 1.4305e-5 Z"
         clip-rule="evenodd"
         id="path120" /></clipPath><clipPath
       clipPathUnits="userSpaceOnUse"
       id="clipPath134"><path
         d="M 1.4305e-5,0 H 960.00001 V 540 H 1.4305e-5 Z"
         clip-rule="evenodd"
         id="path132" /></clipPath><clipPath
       clipPathUnits="userSpaceOnUse"
       id="clipPath146"><path
         d="M 1.4305e-5,0 H 960.00001 V 540 H 1.4305e-5 Z"
         clip-rule="evenodd"
         id="path144" /></clipPath><clipPath
       clipPathUnits="userSpaceOnUse"
       id="clipPath158"><path
         d="M 1.4305e-5,0 H 960.00001 V 540 H 1.4305e-5 Z"
         clip-rule="evenodd"
         id="path156" /></clipPath><clipPath
       clipPathUnits="userSpaceOnUse"
       id="clipPath170"><path
         d="M 1.4305e-5,0 H 960.00001 V 540 H 1.4305e-5 Z"
         clip-rule="evenodd"
         id="path168" /></clipPath><clipPath
       clipPathUnits="userSpaceOnUse"
       id="clipPath182"><path
         d="M 1.4305e-5,0 H 960.00001 V 540 H 1.4305e-5 Z"
         clip-rule="evenodd"
         id="path180" /></clipPath><clipPath
       clipPathUnits="userSpaceOnUse"
       id="clipPath194"><path
         d="M 1.4305e-5,0 H 960.00001 V 540 H 1.4305e-5 Z"
         clip-rule="evenodd"
         id="path192" /></clipPath><clipPath
       clipPathUnits="userSpaceOnUse"
       id="clipPath206"><path
         d="M 1.4305e-5,0 H 960.00001 V 540 H 1.4305e-5 Z"
         clip-rule="evenodd"
         id="path204" /></clipPath><clipPath
       clipPathUnits="userSpaceOnUse"
       id="clipPath218"><path
         d="M 1.4305e-5,0 H 960.00001 V 540 H 1.4305e-5 Z"
         clip-rule="evenodd"
         id="path216" /></clipPath><clipPath
       clipPathUnits="userSpaceOnUse"
       id="clipPath230"><path
         d="M 1.4305e-5,0 H 960.00001 V 540 H 1.4305e-5 Z"
         clip-rule="evenodd"
         id="path228" /></clipPath><clipPath
       clipPathUnits="userSpaceOnUse"
       id="clipPath242"><path
         d="M 1.4305e-5,0 H 960.00001 V 540 H 1.4305e-5 Z"
         clip-rule="evenodd"
         id="path240" /></clipPath><clipPath
       clipPathUnits="userSpaceOnUse"
       id="clipPath254"><path
         d="M 1.4305e-5,0 H 960.00001 V 540 H 1.4305e-5 Z"
         clip-rule="evenodd"
         id="path252" /></clipPath><clipPath
       clipPathUnits="userSpaceOnUse"
       id="clipPath266"><path
         d="M 1.4305e-5,0 H 960.00001 V 540 H 1.4305e-5 Z"
         clip-rule="evenodd"
         id="path264" /></clipPath><clipPath
       clipPathUnits="userSpaceOnUse"
       id="clipPath278"><path
         d="M 1.4305e-5,0 H 960.00001 V 540 H 1.4305e-5 Z"
         clip-rule="evenodd"
         id="path276" /></clipPath><clipPath
       clipPathUnits="userSpaceOnUse"
       id="clipPath290"><path
         d="M 1.4305e-5,0 H 960.00001 V 540 H 1.4305e-5 Z"
         clip-rule="evenodd"
         id="path288" /></clipPath><clipPath
       clipPathUnits="userSpaceOnUse"
       id="clipPath302"><path
         d="M 1.4305e-5,0 H 960.00001 V 540 H 1.4305e-5 Z"
         clip-rule="evenodd"
         id="path300" /></clipPath><clipPath
       clipPathUnits="userSpaceOnUse"
       id="clipPath336"><path
         d="M 1.4305e-5,0 H 960.00001 V 540 H 1.4305e-5 Z"
         clip-rule="evenodd"
         id="path334" /></clipPath><clipPath
       clipPathUnits="userSpaceOnUse"
       id="clipPath348"><path
         d="M 1.4305e-5,0 H 960.00001 V 540 H 1.4305e-5 Z"
         clip-rule="evenodd"
         id="path346" /></clipPath><clipPath
       clipPathUnits="userSpaceOnUse"
       id="clipPath360"><path
         d="M 1.4305e-5,0 H 960.00001 V 540 H 1.4305e-5 Z"
         clip-rule="evenodd"
         id="path358" /></clipPath><clipPath
       clipPathUnits="userSpaceOnUse"
       id="clipPath376"><path
         d="M 1.4305e-5,0 H 960.00001 V 540 H 1.4305e-5 Z"
         clip-rule="evenodd"
         id="path374" /></clipPath><clipPath
       clipPathUnits="userSpaceOnUse"
       id="clipPath388"><path
         d="M 1.4305e-5,0 H 960.00001 V 540 H 1.4305e-5 Z"
         clip-rule="evenodd"
         id="path386" /></clipPath><clipPath
       clipPathUnits="userSpaceOnUse"
       id="clipPath404"><path
         d="M 1.4305e-5,0 H 960.00001 V 540 H 1.4305e-5 Z"
         clip-rule="evenodd"
         id="path402" /></clipPath><clipPath
       clipPathUnits="userSpaceOnUse"
       id="clipPath416"><path
         d="M 1.4305e-5,0 H 960.00001 V 540 H 1.4305e-5 Z"
         clip-rule="evenodd"
         id="path414" /></clipPath><clipPath
       clipPathUnits="userSpaceOnUse"
       id="clipPath428"><path
         d="M 1.4305e-5,0 H 960.00001 V 540 H 1.4305e-5 Z"
         clip-rule="evenodd"
         id="path426" /></clipPath><clipPath
       clipPathUnits="userSpaceOnUse"
       id="clipPath444"><path
         d="M 1.4305e-5,0 H 960.00001 V 540 H 1.4305e-5 Z"
         clip-rule="evenodd"
         id="path442" /></clipPath><clipPath
       clipPathUnits="userSpaceOnUse"
       id="clipPath456"><path
         d="M 1.4305e-5,0 H 960.00001 V 540 H 1.4305e-5 Z"
         clip-rule="evenodd"
         id="path454" /></clipPath><clipPath
       clipPathUnits="userSpaceOnUse"
       id="clipPath472"><path
         d="M 1.4305e-5,0 H 960.00001 V 540 H 1.4305e-5 Z"
         clip-rule="evenodd"
         id="path470" /></clipPath><clipPath
       clipPathUnits="userSpaceOnUse"
       id="clipPath484"><path
         d="M 1.4305e-5,0 H 960.00001 V 540 H 1.4305e-5 Z"
         clip-rule="evenodd"
         id="path482" /></clipPath><clipPath
       clipPathUnits="userSpaceOnUse"
       id="clipPath496"><path
         d="M 1.4305e-5,0 H 960.00001 V 540 H 1.4305e-5 Z"
         clip-rule="evenodd"
         id="path494" /></clipPath><clipPath
       clipPathUnits="userSpaceOnUse"
       id="clipPath512"><path
         d="M 1.4305e-5,0 H 960.00001 V 540 H 1.4305e-5 Z"
         clip-rule="evenodd"
         id="path510" /></clipPath><clipPath
       clipPathUnits="userSpaceOnUse"
       id="clipPath524"><path
         d="M 1.4305e-5,0 H 960.00001 V 540 H 1.4305e-5 Z"
         clip-rule="evenodd"
         id="path522" /></clipPath><clipPath
       clipPathUnits="userSpaceOnUse"
       id="clipPath540"><path
         d="M 1.4305e-5,0 H 960.00001 V 540 H 1.4305e-5 Z"
         clip-rule="evenodd"
         id="path538" /></clipPath></defs><sodipodi:namedview
     id="namedview4"
     pagecolor="#ffffff"
     bordercolor="#666666"
     borderopacity="1.0"
     inkscape:pageshadow="2"
     inkscape:pageopacity="0.0"
     inkscape:pagecheckerboard="0"
     showgrid="false"
     fit-margin-top="0"
     fit-margin-left="0"
     fit-margin-right="0"
     fit-margin-bottom="0"
     inkscape:zoom="1.193895"
     inkscape:cx="435.96799"
     inkscape:cy="170.0317"
     inkscape:window-width="2560"
     inkscape:window-height="1377"
     inkscape:window-x="-8"
     inkscape:window-y="-8"
     inkscape:window-maximized="1"
     inkscape:current-layer="g8" /><g
     id="g8"
     inkscape:groupmode="layer"
     inkscape:label="ch04-graph_33"
     transform="matrix(1.3333333,0,0,-1.3333333,-143.19687,575.47999)"><g
       id="g20"><g
         id="g22"
         clip-path="url(#clipPath26)"><text
           transform="matrix(1,0,0,-1,106.8,371.16)"
           style="font-variant:normal;font-weight:normal;font-size:18px;font-family:'Times New Roman';-inkscape-font-specification:TimesNewRomanPSMT;writing-mode:lr-tb;fill:#0070c0;fill-opacity:1;fill-rule:nonzero;stroke:none"
           id="text30"><tspan
             x="0 9 16.992001"
             y="0"
             sodipodi:role="line"
             id="tspan28">def</tspan></text></g></g><g
       id="g32"><g
         id="g34"
         clip-path="url(#clipPath38)"><text
           transform="matrix(1,0,0,-1,134.3,371.16)"
           style="font-variant:normal;font-weight:normal;font-size:18px;font-family:'Times New Roman';-inkscape-font-specification:TimesNewRomanPSMT;writing-mode:lr-tb;fill:#000000;fill-opacity:1;fill-rule:nonzero;stroke:none"
           id="text42"><tspan
             x="0 13.914 22.914 31.914 39.905998 44.981998"
             y="0"
             sodipodi:role="line"
             id="tspan40">model(</tspan></text></g></g><g
       id="g44"><g
         id="g46"
         clip-path="url(#clipPath50)"><text
           transform="matrix(1,0,0,-1,185.3,371.16)"
           style="font-variant:normal;font-weight:normal;font-size:18px;font-family:'Times New Roman';-inkscape-font-specification:TimesNewRomanPSMT;writing-mode:lr-tb;fill:#000000;fill-opacity:1;fill-rule:nonzero;stroke:none"
           id="text54"><tspan
             x="0"
             y="0"
             id="tspan52">X</tspan></text></g></g><g
       id="g56"><g
         id="g58"
         clip-path="url(#clipPath62)"><text
           transform="matrix(1,0,0,-1,198.26,371.16)"
           style="font-variant:normal;font-weight:normal;font-size:18px;font-family:'Times New Roman';-inkscape-font-specification:TimesNewRomanPSMT;writing-mode:lr-tb;fill:#000000;fill-opacity:1;fill-rule:nonzero;stroke:none"
           id="text66"><tspan
             x="0 4.5359998 8.9820004 14.976 19.98 28.044001 37.043999 43.037998 48.042"
             y="0"
             sodipodi:role="line"
             id="tspan64">, flag): </tspan></text></g></g><g
       id="g68"><g
         id="g70"
         clip-path="url(#clipPath74)"><text
           transform="matrix(1,0,0,-1,133.82,349.56)"
           style="font-variant:normal;font-weight:normal;font-size:18px;font-family:'Times New Roman';-inkscape-font-specification:TimesNewRomanPSMT;writing-mode:lr-tb;fill:#000000;fill-opacity:1;fill-rule:nonzero;stroke:none"
           id="text78"><tspan
             x="0 5.0040002 10.998 15.498 21.492001 26.496 34.542 43.542 53.694 62.694 67.769997"
             y="0"
             sodipodi:role="line"
             id="tspan76">if flag&gt;0: </tspan></text></g></g><g
       id="g80"><g
         id="g82"
         clip-path="url(#clipPath86)"><text
           transform="matrix(1,0,0,-1,160.1,327.96)"
           style="font-variant:normal;font-weight:normal;font-size:18.024px;font-family:'Times New Roman';-inkscape-font-specification:TimesNewRomanPSMT;writing-mode:lr-tb;fill:#000000;fill-opacity:1;fill-rule:nonzero;stroke:none"
           id="text90"><tspan
             x="0"
             y="0"
             id="tspan88">Y</tspan></text></g></g><g
       id="g92"><g
         id="g94"
         clip-path="url(#clipPath98)"><text
           transform="matrix(1,0,0,-1,177.02,327.96)"
           style="font-variant:normal;font-weight:normal;font-size:18.024px;font-family:'Times New Roman';-inkscape-font-specification:TimesNewRomanPSMT;writing-mode:lr-tb;fill:#000000;fill-opacity:1;fill-rule:nonzero;stroke:none"
           id="text102"><tspan
             x="0 10.165536 14.671536 28.568041 36.570698 41.635441 55.549969 64.561966 69.572639 75.574631 92.517189 101.52919 106.03519"
             y="0"
             sodipodi:role="line"
             id="tspan100">= matmul(W1, </tspan></text></g></g><g
       id="g104"><g
         id="g106"
         clip-path="url(#clipPath110)"><text
           transform="matrix(1,0,0,-1,287.66,327.96)"
           style="font-variant:normal;font-weight:normal;font-size:18.024px;font-family:'Times New Roman';-inkscape-font-specification:TimesNewRomanPSMT;writing-mode:lr-tb;fill:#000000;fill-opacity:1;fill-rule:nonzero;stroke:none"
           id="text114"><tspan
             x="0"
             y="0"
             id="tspan112">X</tspan></text></g></g><g
       id="g116"><g
         id="g118"
         clip-path="url(#clipPath122)"><text
           transform="matrix(1,0,0,-1,300.62,327.96)"
           style="font-variant:normal;font-weight:normal;font-size:18.024px;font-family:'Times New Roman';-inkscape-font-specification:TimesNewRomanPSMT;writing-mode:lr-tb;fill:#000000;fill-opacity:1;fill-rule:nonzero;stroke:none"
           id="text126"><tspan
             x="0 6.0019922"
             y="0"
             sodipodi:role="line"
             id="tspan124">) </tspan></text></g></g><g
       id="g128"><g
         id="g130"
         clip-path="url(#clipPath134)"><text
           transform="matrix(1,0,0,-1,133.82,306.34)"
           style="font-variant:normal;font-weight:normal;font-size:18px;font-family:'Times New Roman';-inkscape-font-specification:TimesNewRomanPSMT;writing-mode:lr-tb;fill:#000000;fill-opacity:1;fill-rule:nonzero;stroke:none"
           id="text138"><tspan
             x="0 7.9920001 13.068 20.07 28.062 33.066002"
             y="0"
             sodipodi:role="line"
             id="tspan136">else: </tspan></text></g></g><g
       id="g140"><g
         id="g142"
         clip-path="url(#clipPath146)"><text
           transform="matrix(1,0,0,-1,160.1,284.74)"
           style="font-variant:normal;font-weight:normal;font-size:18px;font-family:'Times New Roman';-inkscape-font-specification:TimesNewRomanPSMT;writing-mode:lr-tb;fill:#000000;fill-opacity:1;fill-rule:nonzero;stroke:none"
           id="text150"><tspan
             x="0"
             y="0"
             id="tspan148">Y</tspan></text></g></g><g
       id="g152"><g
         id="g154"
         clip-path="url(#clipPath158)"><text
           transform="matrix(1,0,0,-1,177.02,284.74)"
           style="font-variant:normal;font-weight:normal;font-size:18px;font-family:'Times New Roman';-inkscape-font-specification:TimesNewRomanPSMT;writing-mode:lr-tb;fill:#000000;fill-opacity:1;fill-rule:nonzero;stroke:none"
           id="text162"><tspan
             x="0 10.152 14.652 28.566 36.557999 41.633999 55.548 64.547997 69.552002 75.545998 92.538002 101.538 106.038"
             y="0"
             sodipodi:role="line"
             id="tspan160">= matmul(W2, </tspan></text></g></g><g
       id="g164"><g
         id="g166"
         clip-path="url(#clipPath170)"><text
           transform="matrix(1,0,0,-1,287.66,284.74)"
           style="font-variant:normal;font-weight:normal;font-size:18px;font-family:'Times New Roman';-inkscape-font-specification:TimesNewRomanPSMT;writing-mode:lr-tb;fill:#000000;fill-opacity:1;fill-rule:nonzero;stroke:none"
           id="text174"><tspan
             x="0"
             y="0"
             id="tspan172">X</tspan></text></g></g><g
       id="g176"><g
         id="g178"
         clip-path="url(#clipPath182)"><text
           transform="matrix(1,0,0,-1,300.62,284.74)"
           style="font-variant:normal;font-weight:normal;font-size:18px;font-family:'Times New Roman';-inkscape-font-specification:TimesNewRomanPSMT;writing-mode:lr-tb;fill:#000000;fill-opacity:1;fill-rule:nonzero;stroke:none"
           id="text186"><tspan
             x="0 5.994"
             y="0"
             sodipodi:role="line"
             id="tspan184">) </tspan></text></g></g><g
       id="g188"><g
         id="g190"
         clip-path="url(#clipPath194)"><text
           transform="matrix(1,0,0,-1,133.1,263.14)"
           style="font-variant:normal;font-weight:normal;font-size:18px;font-family:'Times New Roman';-inkscape-font-specification:TimesNewRomanPSMT;writing-mode:lr-tb;fill:#000000;fill-opacity:1;fill-rule:nonzero;stroke:none"
           id="text198"><tspan
             x="0"
             y="0"
             id="tspan196">Y</tspan></text></g></g><g
       id="g200"><g
         id="g202"
         clip-path="url(#clipPath206)"><text
           transform="matrix(1,0,0,-1,150.02,263.14)"
           style="font-variant:normal;font-weight:normal;font-size:18px;font-family:'Times New Roman';-inkscape-font-specification:TimesNewRomanPSMT;writing-mode:lr-tb;fill:#000000;fill-opacity:1;fill-rule:nonzero;stroke:none"
           id="text210"><tspan
             x="0 10.2"
             y="0"
             sodipodi:role="line"
             id="tspan208">= </tspan></text></g></g><g
       id="g212"><g
         id="g214"
         clip-path="url(#clipPath218)"><text
           transform="matrix(1,0,0,-1,163.94,263.14)"
           style="font-variant:normal;font-weight:normal;font-size:18px;font-family:'Times New Roman';-inkscape-font-specification:TimesNewRomanPSMT;writing-mode:lr-tb;fill:#000000;fill-opacity:1;fill-rule:nonzero;stroke:none"
           id="text222"><tspan
             x="0"
             y="0"
             id="tspan220">Y</tspan></text></g></g><g
       id="g224"><g
         id="g226"
         clip-path="url(#clipPath230)"><text
           transform="matrix(1,0,0,-1,180.74,263.14)"
           style="font-variant:normal;font-weight:normal;font-size:18px;font-family:'Times New Roman';-inkscape-font-specification:TimesNewRomanPSMT;writing-mode:lr-tb;fill:#000000;fill-opacity:1;fill-rule:nonzero;stroke:none"
           id="text234"><tspan
             x="0 10.152 14.652 23.652"
             y="0"
             sodipodi:role="line"
             id="tspan232">+ b </tspan></text></g></g><g
       id="g236"><g
         id="g238"
         clip-path="url(#clipPath242)"><text
           transform="matrix(1,0,0,-1,133.1,241.54)"
           style="font-variant:normal;font-weight:normal;font-size:18px;font-family:'Times New Roman';-inkscape-font-specification:TimesNewRomanPSMT;writing-mode:lr-tb;fill:#000000;fill-opacity:1;fill-rule:nonzero;stroke:none"
           id="text246"><tspan
             x="0"
             y="0"
             id="tspan244">Y</tspan></text></g></g><g
       id="g248"><g
         id="g250"
         clip-path="url(#clipPath254)"><text
           transform="matrix(1,0,0,-1,150.02,241.54)"
           style="font-variant:normal;font-weight:normal;font-size:18px;font-family:'Times New Roman';-inkscape-font-specification:TimesNewRomanPSMT;writing-mode:lr-tb;fill:#000000;fill-opacity:1;fill-rule:nonzero;stroke:none"
           id="text258"><tspan
             x="0 10.152 14.652 20.646 28.638 33.695999 42.695999"
             y="0"
             sodipodi:role="line"
             id="tspan256">= relu(</tspan></text></g></g><g
       id="g260"><g
         id="g262"
         clip-path="url(#clipPath266)"><text
           transform="matrix(1,0,0,-1,198.74,241.54)"
           style="font-variant:normal;font-weight:normal;font-size:18px;font-family:'Times New Roman';-inkscape-font-specification:TimesNewRomanPSMT;writing-mode:lr-tb;fill:#000000;fill-opacity:1;fill-rule:nonzero;stroke:none"
           id="text270"><tspan
             x="0"
             y="0"
             id="tspan268">Y</tspan></text></g></g><g
       id="g272"><g
         id="g274"
         clip-path="url(#clipPath278)"><text
           transform="matrix(1,0,0,-1,211.7,241.54)"
           style="font-variant:normal;font-weight:normal;font-size:18px;font-family:'Times New Roman';-inkscape-font-specification:TimesNewRomanPSMT;writing-mode:lr-tb;fill:#000000;fill-opacity:1;fill-rule:nonzero;stroke:none"
           id="text282"><tspan
             x="0 5.994"
             y="0"
             sodipodi:role="line"
             id="tspan280">) </tspan></text></g></g><g
       id="g284"><g
         id="g286"
         clip-path="url(#clipPath290)"><text
           transform="matrix(1,0,0,-1,133.82,219.94)"
           style="font-variant:normal;font-weight:normal;font-size:18.024px;font-family:'Times New Roman';-inkscape-font-specification:TimesNewRomanPSMT;writing-mode:lr-tb;fill:#0070c0;fill-opacity:1;fill-rule:nonzero;stroke:none"
           id="text294"><tspan
             x="0 6.0019922 14.004648 19.069391 28.081392 34.083385"
             y="0"
             sodipodi:role="line"
             id="tspan292">return</tspan></text></g></g><g
       id="g296"><g
         id="g298"
         clip-path="url(#clipPath302)"><text
           transform="matrix(1,0,0,-1,180.62,219.94)"
           style="font-variant:normal;font-weight:normal;font-size:18.024px;font-family:'Times New Roman';-inkscape-font-specification:TimesNewRomanPSMT;writing-mode:lr-tb;fill:#000000;fill-opacity:1;fill-rule:nonzero;stroke:none"
           id="text306"><tspan
             x="0"
             y="0"
             id="tspan304">Y</tspan></text></g></g><path
       d="m 310.38,334.36 h 54.56 v 68.3 l -0.75,-0.75 h 48.82 v 1.5 h -49.57 v -68.3 l 0.75,0.75 h -53.81 z m 101.63,65.3 6,3 -6,3 z"
       style="fill:#000000;fill-opacity:1;fill-rule:nonzero;stroke:none"
       id="path308" /><g
       id="g310"><path
         d="m 417.9,423.54 c 0,4.04 3.28,7.32 7.32,7.32 h 301.44 c 4.04,0 7.32,-3.28 7.32,-7.32 v -29.28 c 0,-4.04 -3.28,-7.32 -7.32,-7.32 H 425.22 c -4.04,0 -7.32,3.28 -7.32,7.32 z"
         style="fill:none;stroke:#000000;stroke-width:1.5;stroke-linecap:butt;stroke-linejoin:miter;stroke-miterlimit:10;stroke-dasharray:1.5, 1.5;stroke-dashoffset:0;stroke-opacity:1"
         id="path312" /></g><g
       id="g314"><path
         d="m 417.9,348.92 c 0,4.03 3.27,7.3 7.3,7.3 h 301.48 c 4.03,0 7.3,-3.27 7.3,-7.3 v -29.2 c 0,-4.03 -3.27,-7.3 -7.3,-7.3 H 425.2 c -4.03,0 -7.3,3.27 -7.3,7.3 z"
         style="fill:none;stroke:#000000;stroke-width:1.5;stroke-linecap:butt;stroke-linejoin:miter;stroke-miterlimit:10;stroke-dasharray:1.5, 1.5;stroke-dashoffset:0;stroke-opacity:1"
         id="path316" /></g><g
       id="g318"><path
         d="m 417.9,277.02 c 0,4.04 3.28,7.32 7.32,7.32 h 301.44 c 4.04,0 7.32,-3.28 7.32,-7.32 v -29.28 c 0,-4.04 -3.28,-7.32 -7.32,-7.32 H 425.22 c -4.04,0 -7.32,3.28 -7.32,7.32 z"
         style="fill:none;stroke:#000000;stroke-width:1.5;stroke-linecap:butt;stroke-linejoin:miter;stroke-miterlimit:10;stroke-dasharray:1.5, 1.5;stroke-dashoffset:0;stroke-opacity:1"
         id="path320" /></g><path
       d="m 220.86,269.14 h 159.82 v 65.12 l -0.75,-0.75 H 413 v 1.5 h -33.82 v -65.12 l 0.75,0.75 H 220.86 Z m 191.14,62.12 6,3 -6,3 z"
       style="fill:#000000;fill-opacity:1;fill-rule:nonzero;stroke:none"
       id="path322" /><path
       d="M 220.86,242.88 H 385.5 v 19.5 l -0.75,-0.75 H 413 v 1.5 h -29 v -19.5 l 0.75,0.75 H 220.86 Z m 191.14,16.5 6,3 -6,3 z"
       style="fill:#000000;fill-opacity:1;fill-rule:nonzero;stroke:none"
       id="path324" /><path
       d="m 427.68,419.26 c 0,0.81 0.65,1.46 1.46,1.46 h 128.6 c 0.81,0 1.46,-0.65 1.46,-1.46 v -23 c 0,-0.81 -0.65,-1.46 -1.46,-1.46 h -128.6 c -0.81,0 -1.46,0.65 -1.46,1.46 z"
       style="fill:#dae3f3;fill-opacity:1;fill-rule:evenodd;stroke:none"
       id="path326" /><path
       d="m 427.68,419.26 c 0,0.81 0.65,1.46 1.46,1.46 h 128.6 c 0.81,0 1.46,-0.65 1.46,-1.46 v -23 c 0,-0.81 -0.65,-1.46 -1.46,-1.46 h -128.6 c -0.81,0 -1.46,0.65 -1.46,1.46 z"
       style="fill:none;stroke:#404040;stroke-width:1;stroke-linecap:butt;stroke-linejoin:round;stroke-miterlimit:10;stroke-dasharray:none;stroke-opacity:1"
       id="path328" /><g
       id="g330"><g
         id="g332"
         clip-path="url(#clipPath336)"><text
           transform="matrix(1,0,0,-1,439.1,403.61)"
           style="font-variant:normal;font-weight:normal;font-size:12px;font-family:DengXian;-inkscape-font-specification:DengXian;writing-mode:lr-tb;fill:#000000;fill-opacity:1;fill-rule:nonzero;stroke:none"
           id="text340"><tspan
             x="0 12 24 36"
             y="0"
             sodipodi:role="line"
             id="tspan338">运行前向</tspan></text></g></g><g
       id="g342"><g
         id="g344"
         clip-path="url(#clipPath348)"><text
           transform="matrix(1,0,0,-1,487.1,403.61)"
           style="font-variant:normal;font-weight:normal;font-size:12px;font-family:'Times New Roman';-inkscape-font-specification:TimesNewRomanPSMT;writing-mode:lr-tb;fill:#000000;fill-opacity:1;fill-rule:nonzero;stroke:none"
           id="text352"><tspan
             x="0 9.3360004 14.664 18 27.336 33.335999"
             y="0"
             sodipodi:role="line"
             id="tspan350">matmul</tspan></text></g></g><g
       id="g354"><g
         id="g356"
         clip-path="url(#clipPath360)"><text
           transform="matrix(1,0,0,-1,523.82,403.61)"
           style="font-variant:normal;font-weight:normal;font-size:12px;font-family:DengXian;-inkscape-font-specification:DengXian;writing-mode:lr-tb;fill:#000000;fill-opacity:1;fill-rule:nonzero;stroke:none"
           id="text364"><tspan
             x="0 12"
             y="0"
             sodipodi:role="line"
             id="tspan362">算子</tspan></text></g></g><path
       d="m 589.8,419.26 c 0,0.81 0.65,1.46 1.46,1.46 h 128.6 c 0.81,0 1.46,-0.65 1.46,-1.46 v -23 c 0,-0.81 -0.65,-1.46 -1.46,-1.46 h -128.6 c -0.81,0 -1.46,0.65 -1.46,1.46 z"
       style="fill:#dae3f3;fill-opacity:1;fill-rule:evenodd;stroke:none"
       id="path366" /><path
       d="m 589.8,419.26 c 0,0.81 0.65,1.46 1.46,1.46 h 128.6 c 0.81,0 1.46,-0.65 1.46,-1.46 v -23 c 0,-0.81 -0.65,-1.46 -1.46,-1.46 h -128.6 c -0.81,0 -1.46,0.65 -1.46,1.46 z"
       style="fill:none;stroke:#404040;stroke-width:1;stroke-linecap:butt;stroke-linejoin:round;stroke-miterlimit:10;stroke-dasharray:none;stroke-opacity:1"
       id="path368" /><g
       id="g370"><g
         id="g372"
         clip-path="url(#clipPath376)"><text
           transform="matrix(1,0,0,-1,601.25,403.61)"
           style="font-variant:normal;font-weight:normal;font-size:12px;font-family:'Times New Roman';-inkscape-font-specification:TimesNewRomanPSMT;writing-mode:lr-tb;fill:#000000;fill-opacity:1;fill-rule:nonzero;stroke:none"
           id="text380"><tspan
             x="0 9.3360004 14.664 18 27.336 33.335999"
             y="0"
             sodipodi:role="line"
             id="tspan378">matmul</tspan></text></g></g><g
       id="g382"><g
         id="g384"
         clip-path="url(#clipPath388)"><text
           transform="matrix(1,0,0,-1,637.97,403.61)"
           style="font-variant:normal;font-weight:normal;font-size:12px;font-family:DengXian;-inkscape-font-specification:DengXian;writing-mode:lr-tb;fill:#000000;fill-opacity:1;fill-rule:nonzero;stroke:none"
           id="text392"><tspan
             x="0 12 24 36 48 60"
             y="0"
             sodipodi:role="line"
             id="tspan390">算子反向计算</tspan></text></g></g><path
       d="m 427.68,345.58 c 0,0.81 0.65,1.46 1.46,1.46 h 128.6 c 0.81,0 1.46,-0.65 1.46,-1.46 v -23 c 0,-0.81 -0.65,-1.46 -1.46,-1.46 h -128.6 c -0.81,0 -1.46,0.65 -1.46,1.46 z"
       style="fill:#dae3f3;fill-opacity:1;fill-rule:evenodd;stroke:none"
       id="path394" /><path
       d="m 427.68,345.58 c 0,0.81 0.65,1.46 1.46,1.46 h 128.6 c 0.81,0 1.46,-0.65 1.46,-1.46 v -23 c 0,-0.81 -0.65,-1.46 -1.46,-1.46 h -128.6 c -0.81,0 -1.46,0.65 -1.46,1.46 z"
       style="fill:none;stroke:#404040;stroke-width:1;stroke-linecap:butt;stroke-linejoin:round;stroke-miterlimit:10;stroke-dasharray:none;stroke-opacity:1"
       id="path396" /><g
       id="g398"><g
         id="g400"
         clip-path="url(#clipPath404)"><text
           transform="matrix(1,0,0,-1,448.82,329.9)"
           style="font-variant:normal;font-weight:normal;font-size:12px;font-family:DengXian;-inkscape-font-specification:DengXian;writing-mode:lr-tb;fill:#000000;fill-opacity:1;fill-rule:nonzero;stroke:none"
           id="text408"><tspan
             x="0 12 24 36"
             y="0"
             sodipodi:role="line"
             id="tspan406">运行前向</tspan></text></g></g><g
       id="g410"><g
         id="g412"
         clip-path="url(#clipPath416)"><text
           transform="matrix(1,0,0,-1,496.82,329.9)"
           style="font-variant:normal;font-weight:normal;font-size:12px;font-family:'Times New Roman';-inkscape-font-specification:TimesNewRomanPSMT;writing-mode:lr-tb;fill:#000000;fill-opacity:1;fill-rule:nonzero;stroke:none"
           id="text420"><tspan
             x="0 5.2800002 11.28"
             y="0"
             sodipodi:role="line"
             id="tspan418">add</tspan></text></g></g><g
       id="g422"><g
         id="g424"
         clip-path="url(#clipPath428)"><text
           transform="matrix(1,0,0,-1,514.1,329.9)"
           style="font-variant:normal;font-weight:normal;font-size:12px;font-family:DengXian;-inkscape-font-specification:DengXian;writing-mode:lr-tb;fill:#000000;fill-opacity:1;fill-rule:nonzero;stroke:none"
           id="text432"><tspan
             x="0 12"
             y="0"
             sodipodi:role="line"
             id="tspan430">算子</tspan></text></g></g><path
       d="m 589.8,344.98 c 0,0.8 0.66,1.46 1.46,1.46 h 128.6 c 0.8,0 1.46,-0.66 1.46,-1.46 v -23.12 c 0,-0.8 -0.66,-1.46 -1.46,-1.46 h -128.6 c -0.8,0 -1.46,0.66 -1.46,1.46 z"
       style="fill:#dae3f3;fill-opacity:1;fill-rule:evenodd;stroke:none"
       id="path434" /><path
       d="m 589.8,344.98 c 0,0.8 0.66,1.46 1.46,1.46 h 128.6 c 0.8,0 1.46,-0.66 1.46,-1.46 v -23.12 c 0,-0.8 -0.66,-1.46 -1.46,-1.46 h -128.6 c -0.8,0 -1.46,0.66 -1.46,1.46 z"
       style="fill:none;stroke:#404040;stroke-width:1;stroke-linecap:butt;stroke-linejoin:round;stroke-miterlimit:10;stroke-dasharray:none;stroke-opacity:1"
       id="path436" /><g
       id="g438"><g
         id="g440"
         clip-path="url(#clipPath444)"><text
           transform="matrix(1,0,0,-1,610.97,329.28)"
           style="font-variant:normal;font-weight:normal;font-size:12px;font-family:'Times New Roman';-inkscape-font-specification:TimesNewRomanPSMT;writing-mode:lr-tb;fill:#000000;fill-opacity:1;fill-rule:nonzero;stroke:none"
           id="text448"><tspan
             x="0 5.2800002 11.28"
             y="0"
             sodipodi:role="line"
             id="tspan446">add</tspan></text></g></g><g
       id="g450"><g
         id="g452"
         clip-path="url(#clipPath456)"><text
           transform="matrix(1,0,0,-1,628.25,329.28)"
           style="font-variant:normal;font-weight:normal;font-size:12px;font-family:DengXian;-inkscape-font-specification:DengXian;writing-mode:lr-tb;fill:#000000;fill-opacity:1;fill-rule:nonzero;stroke:none"
           id="text460"><tspan
             x="0 12 24 36 48 60"
             y="0"
             sodipodi:role="line"
             id="tspan458">算子反向计算</tspan></text></g></g><path
       d="m 427.68,273.94 c 0,0.81 0.65,1.46 1.46,1.46 h 128.6 c 0.81,0 1.46,-0.65 1.46,-1.46 v -23 c 0,-0.81 -0.65,-1.46 -1.46,-1.46 h -128.6 c -0.81,0 -1.46,0.65 -1.46,1.46 z"
       style="fill:#dae3f3;fill-opacity:1;fill-rule:evenodd;stroke:none"
       id="path462" /><path
       d="m 427.68,273.94 c 0,0.81 0.65,1.46 1.46,1.46 h 128.6 c 0.81,0 1.46,-0.65 1.46,-1.46 v -23 c 0,-0.81 -0.65,-1.46 -1.46,-1.46 h -128.6 c -0.81,0 -1.46,0.65 -1.46,1.46 z"
       style="fill:none;stroke:#404040;stroke-width:1;stroke-linecap:butt;stroke-linejoin:round;stroke-miterlimit:10;stroke-dasharray:none;stroke-opacity:1"
       id="path464" /><g
       id="g466"><g
         id="g468"
         clip-path="url(#clipPath472)"><text
           transform="matrix(1,0,0,-1,442.94,258.29)"
           style="font-variant:normal;font-weight:normal;font-size:12px;font-family:DengXian;-inkscape-font-specification:DengXian;writing-mode:lr-tb;fill:#000000;fill-opacity:1;fill-rule:nonzero;stroke:none"
           id="text476"><tspan
             x="0 12 24 36"
             y="0"
             sodipodi:role="line"
             id="tspan474">运行前向</tspan></text></g></g><g
       id="g478"><g
         id="g480"
         clip-path="url(#clipPath484)"><text
           transform="matrix(1,0,0,-1,490.94,258.29)"
           style="font-variant:normal;font-weight:normal;font-size:12px;font-family:'Times New Roman';-inkscape-font-specification:TimesNewRomanPSMT;writing-mode:lr-tb;fill:#000000;fill-opacity:1;fill-rule:nonzero;stroke:none"
           id="text488"><tspan
             x="0 8.0279999 13.308 20.388"
             y="0"
             sodipodi:role="line"
             id="tspan486">ReLU</tspan></text></g></g><g
       id="g490"><g
         id="g492"
         clip-path="url(#clipPath496)"><text
           transform="matrix(1,0,0,-1,519.98,258.29)"
           style="font-variant:normal;font-weight:normal;font-size:12px;font-family:DengXian;-inkscape-font-specification:DengXian;writing-mode:lr-tb;fill:#000000;fill-opacity:1;fill-rule:nonzero;stroke:none"
           id="text500"><tspan
             x="0 12"
             y="0"
             sodipodi:role="line"
             id="tspan498">算子</tspan></text></g></g><path
       d="m 589.8,272.26 c 0,0.81 0.65,1.46 1.46,1.46 h 128.6 c 0.81,0 1.46,-0.65 1.46,-1.46 v -23 c 0,-0.81 -0.65,-1.46 -1.46,-1.46 h -128.6 c -0.81,0 -1.46,0.65 -1.46,1.46 z"
       style="fill:#dae3f3;fill-opacity:1;fill-rule:evenodd;stroke:none"
       id="path502" /><path
       d="m 589.8,272.26 c 0,0.81 0.65,1.46 1.46,1.46 h 128.6 c 0.81,0 1.46,-0.65 1.46,-1.46 v -23 c 0,-0.81 -0.65,-1.46 -1.46,-1.46 h -128.6 c -0.81,0 -1.46,0.65 -1.46,1.46 z"
       style="fill:none;stroke:#404040;stroke-width:1;stroke-linecap:butt;stroke-linejoin:round;stroke-miterlimit:10;stroke-dasharray:none;stroke-opacity:1"
       id="path504" /><g
       id="g506"><g
         id="g508"
         clip-path="url(#clipPath512)"><text
           transform="matrix(1,0,0,-1,605.09,256.61)"
           style="font-variant:normal;font-weight:normal;font-size:12px;font-family:'Times New Roman';-inkscape-font-specification:TimesNewRomanPSMT;writing-mode:lr-tb;fill:#000000;fill-opacity:1;fill-rule:nonzero;stroke:none"
           id="text516"><tspan
             x="0 8.0279999 13.308 20.388"
             y="0"
             sodipodi:role="line"
             id="tspan514">ReLU</tspan></text></g></g><g
       id="g518"><g
         id="g520"
         clip-path="url(#clipPath524)"><text
           transform="matrix(1,0,0,-1,634.13,256.61)"
           style="font-variant:normal;font-weight:normal;font-size:12px;font-family:DengXian;-inkscape-font-specification:DengXian;writing-mode:lr-tb;fill:#000000;fill-opacity:1;fill-rule:nonzero;stroke:none"
           id="text528"><tspan
             x="0 12 24 36 48 60"
             y="0"
             sodipodi:role="line"
             id="tspan526">算子反向计算</tspan></text></g></g><path
       d="m 589.8,209.02 c 0,0.81 0.65,1.46 1.46,1.46 h 128.6 c 0.81,0 1.46,-0.65 1.46,-1.46 v -23 c 0,-0.81 -0.65,-1.46 -1.46,-1.46 h -128.6 c -0.81,0 -1.46,0.65 -1.46,1.46 z"
       style="fill:#dae3f3;fill-opacity:1;fill-rule:evenodd;stroke:none"
       id="path530" /><path
       d="m 589.8,209.02 c 0,0.81 0.65,1.46 1.46,1.46 h 128.6 c 0.81,0 1.46,-0.65 1.46,-1.46 v -23 c 0,-0.81 -0.65,-1.46 -1.46,-1.46 h -128.6 c -0.81,0 -1.46,0.65 -1.46,1.46 z"
       style="fill:none;stroke:#404040;stroke-width:1;stroke-linecap:butt;stroke-linejoin:round;stroke-miterlimit:10;stroke-dasharray:none;stroke-opacity:1"
       id="path532" /><g
       id="g534"><g
         id="g536"
         clip-path="url(#clipPath540)"><text
           transform="matrix(1,0,0,-1,619.61,193.44)"
           style="font-variant:normal;font-weight:normal;font-size:12px;font-family:DengXian;-inkscape-font-specification:DengXian;writing-mode:lr-tb;fill:#000000;fill-opacity:1;fill-rule:nonzero;stroke:none"
           id="text544"><tspan
             x="0 12 24 36 48 60"
             y="0"
             sodipodi:role="line"
             id="tspan542">梯度反向计算</tspan></text></g></g><path
       d="m 488.64,368.58 h 2.37 v 11.46 h 4.74 v -11.46 h 2.37 l -4.74,-4.74 z"
       style="fill:#4472c4;fill-opacity:1;fill-rule:evenodd;stroke:none"
       id="path546" /><path
       d="m 488.64,368.58 h 2.37 v 11.46 h 4.74 v -11.46 h 2.37 l -4.74,-4.74 z"
       style="fill:none;stroke:#2f528f;stroke-width:1;stroke-linecap:butt;stroke-linejoin:miter;stroke-miterlimit:8;stroke-dasharray:none;stroke-opacity:1"
       id="path548" /><path
       d="m 488.64,293.46 h 2.37 v 11.46 h 4.74 v -11.46 h 2.37 l -4.74,-4.74 z"
       style="fill:#4472c4;fill-opacity:1;fill-rule:evenodd;stroke:none"
       id="path550" /><path
       d="m 488.64,293.46 h 2.37 v 11.46 h 4.74 v -11.46 h 2.37 l -4.74,-4.74 z"
       style="fill:none;stroke:#2f528f;stroke-width:1;stroke-linecap:butt;stroke-linejoin:miter;stroke-miterlimit:8;stroke-dasharray:none;stroke-opacity:1"
       id="path552" /><path
       d="m 660.36,375.24 h -2.4 v -11.4 h -4.8 v 11.4 h -2.4 l 4.8,4.8 z"
       style="fill:#4472c4;fill-opacity:1;fill-rule:evenodd;stroke:none"
       id="path554" /><path
       d="m 660.36,375.24 h -2.4 v -11.4 h -4.8 v 11.4 h -2.4 l 4.8,4.8 z"
       style="fill:none;stroke:#2f528f;stroke-width:1;stroke-linecap:butt;stroke-linejoin:miter;stroke-miterlimit:8;stroke-dasharray:none;stroke-opacity:1"
       id="path556" /><path
       d="m 660.36,300.72 h -2.4 v -11.4 h -4.8 v 11.4 h -2.4 l 4.8,4.8 z"
       style="fill:#4472c4;fill-opacity:1;fill-rule:evenodd;stroke:none"
       id="path558" /><path
       d="m 660.36,300.72 h -2.4 v -11.4 h -4.8 v 11.4 h -2.4 l 4.8,4.8 z"
       style="fill:none;stroke:#2f528f;stroke-width:1;stroke-linecap:butt;stroke-linejoin:miter;stroke-miterlimit:8;stroke-dasharray:none;stroke-opacity:1"
       id="path560" /><path
       d="m 660.36,230.76 h -2.4 v -11.4 h -4.8 v 11.4 h -2.4 l 4.8,4.8 z"
       style="fill:#4472c4;fill-opacity:1;fill-rule:evenodd;stroke:none"
       id="path562" /><path
       d="m 660.36,230.76 h -2.4 v -11.4 h -4.8 v 11.4 h -2.4 l 4.8,4.8 z"
       style="fill:none;stroke:#2f528f;stroke-width:1;stroke-linecap:butt;stroke-linejoin:miter;stroke-miterlimit:8;stroke-dasharray:none;stroke-opacity:1"
       id="path564" /></g></svg>
