<?xml version="1.0" encoding="UTF-8" standalone="no"?>
<!-- Created with Inkscape (http://www.inkscape.org/) -->

<svg
   version="1.1"
   id="svg6600"
   xml:space="preserve"
   width="853.45892"
   height="442.77332"
   viewBox="0 0 853.45892 442.77332"
   sodipodi:docname="if.svg"
   inkscape:version="1.1.1 (3bf5ae0d25, 2021-09-20)"
   xmlns:inkscape="http://www.inkscape.org/namespaces/inkscape"
   xmlns:sodipodi="http://sodipodi.sourceforge.net/DTD/sodipodi-0.dtd"
   xmlns="http://www.w3.org/2000/svg"
   xmlns:svg="http://www.w3.org/2000/svg"><defs
     id="defs6604"><clipPath
       clipPathUnits="userSpaceOnUse"
       id="clipPath6614"><path
         d="M 0,1.2207e-4 H 960 V 540.00012 H 0 Z"
         clip-rule="evenodd"
         id="path6612" /></clipPath><clipPath
       clipPathUnits="userSpaceOnUse"
       id="clipPath6632"><path
         d="M 1.4305e-5,0 H 960.00001 V 540 H 1.4305e-5 Z"
         clip-rule="evenodd"
         id="path6630" /></clipPath><clipPath
       clipPathUnits="userSpaceOnUse"
       id="clipPath6644"><path
         d="M 1.4305e-5,0 H 960.00001 V 540 H 1.4305e-5 Z"
         clip-rule="evenodd"
         id="path6642" /></clipPath><clipPath
       clipPathUnits="userSpaceOnUse"
       id="clipPath6656"><path
         d="M 1.4305e-5,0 H 960.00001 V 540 H 1.4305e-5 Z"
         clip-rule="evenodd"
         id="path6654" /></clipPath><clipPath
       clipPathUnits="userSpaceOnUse"
       id="clipPath6672"><path
         d="M 1.4305e-5,0 H 960.00001 V 540 H 1.4305e-5 Z"
         clip-rule="evenodd"
         id="path6670" /></clipPath><clipPath
       clipPathUnits="userSpaceOnUse"
       id="clipPath6684"><path
         d="M 1.4305e-5,0 H 960.00001 V 540 H 1.4305e-5 Z"
         clip-rule="evenodd"
         id="path6682" /></clipPath><clipPath
       clipPathUnits="userSpaceOnUse"
       id="clipPath6698"><path
         d="M 1.4305e-5,0 H 960.00001 V 540 H 1.4305e-5 Z"
         clip-rule="evenodd"
         id="path6696" /></clipPath><clipPath
       clipPathUnits="userSpaceOnUse"
       id="clipPath6714"><path
         d="M 1.4305e-5,0 H 960.00001 V 540 H 1.4305e-5 Z"
         clip-rule="evenodd"
         id="path6712" /></clipPath><clipPath
       clipPathUnits="userSpaceOnUse"
       id="clipPath6730"><path
         d="M 1.4305e-5,0 H 960.00001 V 540 H 1.4305e-5 Z"
         clip-rule="evenodd"
         id="path6728" /></clipPath><clipPath
       clipPathUnits="userSpaceOnUse"
       id="clipPath6744"><path
         d="M 1.4305e-5,0 H 960.00001 V 540 H 1.4305e-5 Z"
         clip-rule="evenodd"
         id="path6742" /></clipPath><clipPath
       clipPathUnits="userSpaceOnUse"
       id="clipPath6762"><path
         d="M 1.4305e-5,0 H 960.00001 V 540 H 1.4305e-5 Z"
         clip-rule="evenodd"
         id="path6760" /></clipPath><clipPath
       clipPathUnits="userSpaceOnUse"
       id="clipPath6774"><path
         d="M 1.4305e-5,0 H 960.00001 V 540 H 1.4305e-5 Z"
         clip-rule="evenodd"
         id="path6772" /></clipPath><clipPath
       clipPathUnits="userSpaceOnUse"
       id="clipPath6786"><path
         d="M 1.4305e-5,0 H 960.00001 V 540 H 1.4305e-5 Z"
         clip-rule="evenodd"
         id="path6784" /></clipPath><clipPath
       clipPathUnits="userSpaceOnUse"
       id="clipPath6798"><path
         d="M 1.4305e-5,0 H 960.00001 V 540 H 1.4305e-5 Z"
         clip-rule="evenodd"
         id="path6796" /></clipPath><clipPath
       clipPathUnits="userSpaceOnUse"
       id="clipPath6816"><path
         d="M 1.4305e-5,0 H 960.00001 V 540 H 1.4305e-5 Z"
         clip-rule="evenodd"
         id="path6814" /></clipPath><clipPath
       clipPathUnits="userSpaceOnUse"
       id="clipPath6830"><path
         d="M 1.4305e-5,0 H 960.00001 V 540 H 1.4305e-5 Z"
         clip-rule="evenodd"
         id="path6828" /></clipPath><clipPath
       clipPathUnits="userSpaceOnUse"
       id="clipPath6842"><path
         d="M 1.4305e-5,0 H 960.00001 V 540 H 1.4305e-5 Z"
         clip-rule="evenodd"
         id="path6840" /></clipPath><clipPath
       clipPathUnits="userSpaceOnUse"
       id="clipPath6856"><path
         d="M 1.4305e-5,0 H 960.00001 V 540 H 1.4305e-5 Z"
         clip-rule="evenodd"
         id="path6854" /></clipPath><clipPath
       clipPathUnits="userSpaceOnUse"
       id="clipPath6868"><path
         d="M 1.4305e-5,0 H 960.00001 V 540 H 1.4305e-5 Z"
         clip-rule="evenodd"
         id="path6866" /></clipPath><clipPath
       clipPathUnits="userSpaceOnUse"
       id="clipPath6880"><path
         d="M 1.4305e-5,0 H 960.00001 V 540 H 1.4305e-5 Z"
         clip-rule="evenodd"
         id="path6878" /></clipPath><clipPath
       clipPathUnits="userSpaceOnUse"
       id="clipPath6892"><path
         d="M 1.4305e-5,0 H 960.00001 V 540 H 1.4305e-5 Z"
         clip-rule="evenodd"
         id="path6890" /></clipPath><clipPath
       clipPathUnits="userSpaceOnUse"
       id="clipPath6908"><path
         d="M 1.4305e-5,0 H 960.00001 V 540 H 1.4305e-5 Z"
         clip-rule="evenodd"
         id="path6906" /></clipPath><clipPath
       clipPathUnits="userSpaceOnUse"
       id="clipPath6924"><path
         d="M 1.4305e-5,0 H 960.00001 V 540 H 1.4305e-5 Z"
         clip-rule="evenodd"
         id="path6922" /></clipPath><clipPath
       clipPathUnits="userSpaceOnUse"
       id="clipPath6938"><path
         d="M 1.4305e-5,0 H 960.00001 V 540 H 1.4305e-5 Z"
         clip-rule="evenodd"
         id="path6936" /></clipPath><clipPath
       clipPathUnits="userSpaceOnUse"
       id="clipPath6950"><path
         d="M 1.4305e-5,0 H 960.00001 V 540 H 1.4305e-5 Z"
         clip-rule="evenodd"
         id="path6948" /></clipPath><clipPath
       clipPathUnits="userSpaceOnUse"
       id="clipPath6962"><path
         d="M 1.4305e-5,0 H 960.00001 V 540 H 1.4305e-5 Z"
         clip-rule="evenodd"
         id="path6960" /></clipPath><clipPath
       clipPathUnits="userSpaceOnUse"
       id="clipPath6974"><path
         d="M 1.4305e-5,0 H 960.00001 V 540 H 1.4305e-5 Z"
         clip-rule="evenodd"
         id="path6972" /></clipPath><clipPath
       clipPathUnits="userSpaceOnUse"
       id="clipPath6992"><path
         d="M 1.4305e-5,0 H 960.00001 V 540 H 1.4305e-5 Z"
         clip-rule="evenodd"
         id="path6990" /></clipPath><clipPath
       clipPathUnits="userSpaceOnUse"
       id="clipPath7008"><path
         d="M 1.4305e-5,0 H 960.00001 V 540 H 1.4305e-5 Z"
         clip-rule="evenodd"
         id="path7006" /></clipPath><clipPath
       clipPathUnits="userSpaceOnUse"
       id="clipPath7020"><path
         d="M 1.4305e-5,0 H 960.00001 V 540 H 1.4305e-5 Z"
         clip-rule="evenodd"
         id="path7018" /></clipPath><clipPath
       clipPathUnits="userSpaceOnUse"
       id="clipPath7036"><path
         d="M 1.4305e-5,0 H 960.00001 V 540 H 1.4305e-5 Z"
         clip-rule="evenodd"
         id="path7034" /></clipPath><clipPath
       clipPathUnits="userSpaceOnUse"
       id="clipPath7048"><path
         d="M 1.4305e-5,0 H 960.00001 V 540 H 1.4305e-5 Z"
         clip-rule="evenodd"
         id="path7046" /></clipPath></defs><sodipodi:namedview
     id="namedview6602"
     pagecolor="#ffffff"
     bordercolor="#666666"
     borderopacity="1.0"
     inkscape:pageshadow="2"
     inkscape:pageopacity="0.0"
     inkscape:pagecheckerboard="0"
     showgrid="false"
     fit-margin-top="0"
     fit-margin-left="0"
     fit-margin-right="0"
     fit-margin-bottom="0"
     inkscape:zoom="1.321875"
     inkscape:cx="487.94326"
     inkscape:cy="249.26714"
     inkscape:window-width="2560"
     inkscape:window-height="1361"
     inkscape:window-x="-9"
     inkscape:window-y="-9"
     inkscape:window-maximized="1"
     inkscape:current-layer="g6606" /><g
     id="g6606"
     inkscape:groupmode="layer"
     inkscape:label="if"
     transform="matrix(1.3333333,0,0,-1.3333333,-152.15052,609.46665)"><path
       d="m 280.18,388.5 v -36.64 h -2.25 v 36.64 z m 2.25,-35.51 -3.37,-6.75 -3.38,6.75 z"
       style="fill:#000000;fill-opacity:1;fill-rule:nonzero;stroke:none"
       id="path6618" /><path
       d="m 265.66,316.83 -23.23,-39.34 1.94,-1.14 23.23,39.34 z m -24.59,-37.23 -0.53,-7.52 6.34,4.09 z"
       style="fill:#000000;fill-opacity:1;fill-rule:nonzero;stroke:none"
       id="path6620" /><path
       d="m 263.1,330.3 c 0,8.81 7.15,15.96 15.96,15.96 8.81,0 15.96,-7.15 15.96,-15.96 0,-8.81 -7.15,-15.96 -15.96,-15.96 -8.81,0 -15.96,7.15 -15.96,15.96 z"
       style="fill:none;stroke:#000000;stroke-width:2.25;stroke-linecap:butt;stroke-linejoin:miter;stroke-miterlimit:10;stroke-dasharray:none;stroke-opacity:1"
       id="path6624" /><g
       id="g6626"><g
         id="g6628"
         clip-path="url(#clipPath6632)"><text
           transform="matrix(1,0,0,-1,275.09,325.51)"
           style="font-variant:normal;font-weight:bold;font-size:12.96px;font-family:'Times New Roman';-inkscape-font-specification:TimesNewRomanPS-BoldMT;writing-mode:lr-tb;fill:#000000;fill-opacity:1;fill-rule:nonzero;stroke:none"
           id="text6636"><tspan
             x="0 3.5999999"
             y="0"
             sodipodi:role="line"
             id="tspan6634">if</tspan></text></g></g><g
       id="g6638"><g
         id="g6640"
         clip-path="url(#clipPath6644)"><text
           transform="matrix(1,0,0,-1,273.77,399.41)"
           style="font-style:italic;font-variant:normal;font-weight:bold;font-size:18px;font-family:'Times New Roman';-inkscape-font-specification:TimesNewRomanPS-BoldItalicMT;writing-mode:lr-tb;fill:#000000;fill-opacity:1;fill-rule:nonzero;stroke:none"
           id="text6648"><tspan
             x="0"
             y="0"
             id="tspan6646">A</tspan></text></g></g><g
       id="g6650"><g
         id="g6652"
         clip-path="url(#clipPath6656)"><text
           transform="matrix(1,0,0,-1,221.02,172.49)"
           style="font-style:italic;font-variant:normal;font-weight:bold;font-size:20.04px;font-family:'Times New Roman';-inkscape-font-specification:TimesNewRomanPS-BoldItalicMT;writing-mode:lr-tb;fill:#000000;fill-opacity:1;fill-rule:nonzero;stroke:none"
           id="text6660"><tspan
             x="0"
             y="0"
             id="tspan6658">Y</tspan></text></g></g><path
       d="m 214.14,258.06 c 0,8.81 7.15,15.96 15.96,15.96 8.81,0 15.96,-7.15 15.96,-15.96 0,-8.81 -7.15,-15.96 -15.96,-15.96 -8.81,0 -15.96,7.15 -15.96,15.96 z"
       style="fill:none;stroke:#000000;stroke-width:2.25;stroke-linecap:butt;stroke-linejoin:miter;stroke-miterlimit:10;stroke-dasharray:none;stroke-opacity:1"
       id="path6664" /><g
       id="g6666"
       transform="translate(-1.4305e-5,-4.499939)"><g
         id="g6668"
         clip-path="url(#clipPath6672)"><text
           transform="matrix(1,0,0,-1,222.07,246.26)"
           style="font-variant:normal;font-weight:normal;font-size:32.04px;font-family:'Times New Roman';-inkscape-font-specification:TimesNewRomanPSMT;writing-mode:lr-tb;fill:#000000;fill-opacity:1;fill-rule:nonzero;stroke:none"
           id="text6676"><tspan
             x="0"
             y="0"
             id="tspan6674">*</tspan></text></g></g><g
       id="g6678"><g
         id="g6680"
         clip-path="url(#clipPath6684)"><text
           transform="matrix(1,0,0,-1,495.67,225.74)"
           style="font-variant:normal;font-weight:bold;font-size:18px;font-family:'Times New Roman';-inkscape-font-specification:TimesNewRomanPS-BoldMT;writing-mode:lr-tb;fill:#000000;fill-opacity:1;fill-rule:nonzero;stroke:none"
           id="text6688"><tspan
             x="0 10.674 18.666 28.674"
             y="0"
             sodipodi:role="line"
             id="tspan6686">True</tspan></text></g></g><path
       d="m 188.91,314.98 27.62,-40.38 -1.86,-1.27 -27.62,40.37 z m 28.84,-38.18 1.03,-7.48 -6.6,3.67 z"
       style="fill:#000000;fill-opacity:1;fill-rule:nonzero;stroke:none"
       id="path6690" /><g
       id="g6692"><g
         id="g6694"
         clip-path="url(#clipPath6698)"><text
           transform="matrix(1,0,0,-1,174.89,322.2)"
           style="font-style:italic;font-variant:normal;font-weight:bold;font-size:18.024px;font-family:'Times New Roman';-inkscape-font-specification:TimesNewRomanPS-BoldItalicMT;writing-mode:lr-tb;fill:#000000;fill-opacity:1;fill-rule:nonzero;stroke:none"
           id="text6702"><tspan
             x="0"
             y="0"
             id="tspan6700">B</tspan></text></g></g><path
       d="m 231.22,242.1 0.01,-36.64 h -2.25 l -0.01,36.64 z m 2.26,-35.51 -3.38,-6.75 -3.37,6.75 z"
       style="fill:#000000;fill-opacity:1;fill-rule:nonzero;stroke:none"
       id="path6704" /><path
       d="m 292.51,314.91 1.14,-1.93 -1.93,-1.15 -1.15,1.94 z m 2.29,-3.87 1.15,-1.93 -1.94,-1.15 -1.14,1.94 z m 2.3,-3.87 1.14,-1.93 -1.93,-1.15 -1.15,1.93 z m 2.29,-3.87 1.15,-1.94 -1.94,-1.14 -1.15,1.93 z m 2.29,-3.87 1.15,-1.94 -1.94,-1.14 -1.14,1.93 z m 2.3,-3.87 1.14,-1.94 -1.93,-1.15 -1.15,1.94 z m 2.29,-3.87 1.15,-1.94 -1.94,-1.15 -1.14,1.94 z m 2.3,-3.88 1.14,-1.93 -1.93,-1.15 -1.15,1.94 z m 2.29,-3.87 1.15,-1.93 -1.94,-1.15 -1.15,1.94 z m 2.29,-3.87 1.15,-1.93 -1.94,-1.15 -1.14,1.93 z m 2.9,-0.47 0.53,-7.52 -6.34,4.08 z"
       style="fill:#000000;fill-opacity:1;fill-rule:nonzero;stroke:none"
       id="path6706" /><g
       id="g6708"><g
         id="g6710"
         clip-path="url(#clipPath6714)"><text
           transform="matrix(1,0,0,-1,313.51,299.83)"
           style="font-variant:normal;font-weight:bold;font-size:18px;font-family:'Times New Roman';-inkscape-font-specification:TimesNewRomanPS-BoldMT;writing-mode:lr-tb;fill:#000000;fill-opacity:1;fill-rule:nonzero;stroke:none"
           id="text6718"><tspan
             x="0 10.998 19.997999 25.056 32.057999"
             y="0"
             sodipodi:role="line"
             id="tspan6716">False</tspan></text></g></g><path
       d="m 311.22,258.06 c 0,8.81 7.15,15.96 15.96,15.96 8.81,0 15.96,-7.15 15.96,-15.96 0,-8.81 -7.15,-15.96 -15.96,-15.96 -8.81,0 -15.96,7.15 -15.96,15.96 z"
       style="fill:none;stroke:#000000;stroke-width:2.25;stroke-linecap:butt;stroke-linejoin:miter;stroke-miterlimit:10;stroke-dasharray:none;stroke-opacity:1"
       id="path6722" /><g
       id="g6724"
       transform="translate(-1.4305e-5,-2.999939)"><g
         id="g6726"
         clip-path="url(#clipPath6730)"><text
           transform="matrix(1,0,0,-1,319.13,246.26)"
           style="font-variant:normal;font-weight:normal;font-size:32.04px;font-family:'Times New Roman';-inkscape-font-specification:TimesNewRomanPSMT;writing-mode:lr-tb;fill:#000000;fill-opacity:1;fill-rule:nonzero;stroke:none"
           id="text6734"><tspan
             x="0"
             y="0"
             id="tspan6732">*</tspan></text></g></g><path
       d="m 369.8,315 -1.31,-1.83 1.82,-1.31 1.32,1.82 z m -2.62,-3.66 -1.31,-1.83 1.82,-1.31 1.31,1.83 z m -2.63,-3.66 -1.31,-1.83 1.83,-1.31 1.31,1.83 z m -2.62,-3.66 -1.31,-1.83 1.83,-1.31 1.31,1.83 z m -2.62,-3.66 -1.31,-1.83 1.83,-1.31 1.31,1.83 z m -2.62,-3.66 -1.31,-1.82 1.83,-1.32 1.31,1.83 z m -2.62,-3.65 -1.31,-1.83 1.83,-1.31 1.31,1.83 z m -2.62,-3.66 -1.31,-1.83 1.83,-1.31 1.31,1.83 z m -2.62,-3.66 -1.31,-1.83 1.83,-1.31 1.31,1.83 z m -2.62,-3.66 -1.31,-1.83 1.83,-1.31 1.31,1.83 z m -2.62,-3.66 -1.31,-1.83 1.83,-1.31 1.31,1.83 z m -2.62,-3.66 -0.15,-0.2 1.83,-1.31 0.15,0.2 z m -1.32,2.02 -1.19,-7.45 6.67,3.52 z"
       style="fill:#000000;fill-opacity:1;fill-rule:nonzero;stroke:none"
       id="path6736" /><g
       id="g6738"><g
         id="g6740"
         clip-path="url(#clipPath6744)"><text
           transform="matrix(1,0,0,-1,374.9,323.59)"
           style="font-style:italic;font-variant:normal;font-weight:bold;font-size:18px;font-family:'Times New Roman';-inkscape-font-specification:TimesNewRomanPS-BoldItalicMT;writing-mode:lr-tb;fill:#000000;fill-opacity:1;fill-rule:nonzero;stroke:none"
           id="text6748"><tspan
             x="0"
             y="0"
             id="tspan6746">C</tspan></text></g></g><path
       d="m 328.42,242.1 v -2.25 h -2.25 v 2.25 z m 0,-4.5 v -2.25 h -2.25 v 2.25 z m 0,-4.5 v -2.25 h -2.25 v 2.25 z m 0,-4.5 v -2.25 h -2.25 v 2.25 z m 0,-4.5 v -2.25 h -2.25 v 2.25 z m 0,-4.5 v -2.25 h -2.25 v 2.25 z m 0,-4.5 v -2.25 h -2.25 v 2.25 z m 0,-4.5 v -2.25 h -2.25 v 2.25 z m 0,-4.5 v -0.64 h -2.25 v 0.64 z m 2.25,0.49 -3.37,-6.75 -3.38,6.75 z"
       style="fill:#000000;fill-opacity:1;fill-rule:nonzero;stroke:none"
       id="path6750" /><path
       d="m 115.32,142.44 h 7.8 V 456.6 h 15.6 V 142.44 h 7.8 l -15.6,-15.6 z"
       style="fill:#8faadc;fill-opacity:1;fill-rule:evenodd;stroke:none"
       id="path6752" /><path
       d="m 115.32,142.44 h 7.8 V 456.6 h 15.6 V 142.44 h 7.8 l -15.6,-15.6 z"
       style="fill:none;stroke:#b4c7e7;stroke-width:1;stroke-linecap:butt;stroke-linejoin:miter;stroke-miterlimit:10;stroke-dasharray:none;stroke-opacity:1"
       id="path6754" /><g
       id="g6756"><g
         id="g6758"
         clip-path="url(#clipPath6762)"><text
           transform="matrix(1,0,0,-1,122.78,279.05)"
           style="font-variant:normal;font-weight:normal;font-size:18px;font-family:DengXian;-inkscape-font-specification:DengXian;writing-mode:lr-tb;fill:#000000;fill-opacity:1;fill-rule:nonzero;stroke:none"
           id="text6766"><tspan
             x="0"
             y="0"
             id="tspan6764">前</tspan></text></g></g><g
       id="g6768"><g
         id="g6770"
         clip-path="url(#clipPath6774)"><text
           transform="matrix(1,0,0,-1,122.78,257.33)"
           style="font-variant:normal;font-weight:normal;font-size:18.024px;font-family:DengXian;-inkscape-font-specification:DengXian;writing-mode:lr-tb;fill:#000000;fill-opacity:1;fill-rule:nonzero;stroke:none"
           id="text6778"><tspan
             x="0"
             y="0"
             id="tspan6776">向</tspan></text></g></g><g
       id="g6780"><g
         id="g6782"
         clip-path="url(#clipPath6786)"><text
           transform="matrix(0.94869278,0,-0.31619931,-0.94869278,461.88,203.23)"
           style="font-variant:normal;font-weight:normal;font-size:21.1238px;font-family:'Cambria Math';-inkscape-font-specification:CambriaMath;writing-mode:lr-tb;fill:#000000;fill-opacity:1;fill-rule:nonzero;stroke:none"
           id="text6790"><tspan
             x="0"
             y="0"
             id="tspan6788">∇</tspan></text></g></g><g
       id="g6792"><g
         id="g6794"
         clip-path="url(#clipPath6798)"><text
           transform="matrix(1,0,0,-1,478.44,203.23)"
           style="font-style:italic;font-variant:normal;font-weight:bold;font-size:20.04px;font-family:'Times New Roman';-inkscape-font-specification:TimesNewRomanPS-BoldItalicMT;writing-mode:lr-tb;fill:#000000;fill-opacity:1;fill-rule:nonzero;stroke:none"
           id="text6802"><tspan
             x="0"
             y="0"
             id="tspan6800">Y</tspan></text></g></g><path
       d="m 480.06,234.39 21.54,35.44 -1.92,1.17 -21.54,-35.45 z m 22.88,33.31 0.62,7.52 -6.39,-4.02 z"
       style="fill:#000000;fill-opacity:1;fill-rule:nonzero;stroke:none"
       id="path6804" /><path
       d="m 496.5,292.74 c 0,8.81 7.15,15.96 15.96,15.96 8.81,0 15.96,-7.15 15.96,-15.96 0,-8.81 -7.15,-15.96 -15.96,-15.96 -8.81,0 -15.96,7.15 -15.96,15.96 z"
       style="fill:none;stroke:#000000;stroke-width:2.25;stroke-linecap:butt;stroke-linejoin:miter;stroke-miterlimit:10;stroke-dasharray:none;stroke-opacity:1"
       id="path6808" /><g
       id="g6810"><g
         id="g6812"
         clip-path="url(#clipPath6816)"><text
           transform="matrix(1,0,0,-1,501.24,286.1)"
           style="font-variant:normal;font-weight:normal;font-size:18px;font-family:'Times New Roman';-inkscape-font-specification:TimesNewRomanPSMT;writing-mode:lr-tb;fill:#000000;fill-opacity:1;fill-rule:nonzero;stroke:none"
           id="text6820"><tspan
             x="0 9"
             y="0"
             sodipodi:role="line"
             id="tspan6818">*g</tspan></text></g></g><path
       d="m 500.19,306.45 -24.66,33.42 1.82,1.33 24.66,-33.42 z m -25.8,31.17 -1.29,7.44 6.72,-3.43 z"
       style="fill:#000000;fill-opacity:1;fill-rule:nonzero;stroke:none"
       id="path6822" /><g
       id="g6824"><g
         id="g6826"
         clip-path="url(#clipPath6830)"><text
           transform="matrix(0.94869278,0,-0.31619931,-0.94869278,460.97,348.07)"
           style="font-variant:normal;font-weight:normal;font-size:18.9735px;font-family:'Cambria Math';-inkscape-font-specification:CambriaMath;writing-mode:lr-tb;fill:#000000;fill-opacity:1;fill-rule:nonzero;stroke:none"
           id="text6834"><tspan
             x="0"
             y="0"
             id="tspan6832">∇</tspan></text></g></g><g
       id="g6836"><g
         id="g6838"
         clip-path="url(#clipPath6842)"><text
           transform="matrix(1,0,0,-1,471.67,348.07)"
           style="font-style:italic;font-variant:normal;font-weight:bold;font-size:18px;font-family:'Times New Roman';-inkscape-font-specification:TimesNewRomanPS-BoldItalicMT;writing-mode:lr-tb;fill:#000000;fill-opacity:1;fill-rule:nonzero;stroke:none"
           id="text6846"><tspan
             x="0"
             y="0"
             id="tspan6844">B</tspan></text></g></g><path
       d="m 525.32,306.33 26.76,31.9 -1.72,1.44 -26.76,-31.89 z m 27.76,29.59 1.76,7.34 -6.93,-3 z"
       style="fill:#000000;fill-opacity:1;fill-rule:nonzero;stroke:none"
       id="path6848" /><g
       id="g6850"><g
         id="g6852"
         clip-path="url(#clipPath6856)"><text
           transform="matrix(0.94869278,0,-0.31619931,-0.94869278,545.26,351.5)"
           style="font-variant:normal;font-weight:normal;font-size:18.9988px;font-family:'Cambria Math';-inkscape-font-specification:CambriaMath;writing-mode:lr-tb;fill:#000000;fill-opacity:1;fill-rule:nonzero;stroke:none"
           id="text6860"><tspan
             x="0"
             y="0"
             id="tspan6858">∇</tspan></text></g></g><g
       id="g6862"><g
         id="g6864"
         clip-path="url(#clipPath6868)"><text
           transform="matrix(1,0,0,-1,559.78,351.5)"
           style="font-style:italic;font-variant:normal;font-weight:bold;font-size:18.024px;font-family:'Times New Roman';-inkscape-font-specification:TimesNewRomanPS-BoldItalicMT;writing-mode:lr-tb;fill:#000000;fill-opacity:1;fill-rule:nonzero;stroke:none"
           id="text6872"><tspan
             x="0"
             y="0"
             id="tspan6870">A</tspan></text></g></g><g
       id="g6874"><g
         id="g6876"
         clip-path="url(#clipPath6880)"><text
           transform="matrix(1,0,0,-1,316.1,172.49)"
           style="font-style:italic;font-variant:normal;font-weight:bold;font-size:20.04px;font-family:'Times New Roman';-inkscape-font-specification:TimesNewRomanPS-BoldItalicMT;writing-mode:lr-tb;fill:#000000;fill-opacity:1;fill-rule:nonzero;stroke:none"
           id="text6884"><tspan
             x="0"
             y="0"
             id="tspan6882">Y</tspan></text></g></g><g
       id="g6886"><g
         id="g6888"
         clip-path="url(#clipPath6892)"><text
           transform="matrix(1,0,0,-1,328.46,172.49)"
           style="font-style:italic;font-variant:normal;font-weight:bold;font-size:20.04px;font-family:'Times New Roman';-inkscape-font-specification:TimesNewRomanPS-BoldItalicMT;writing-mode:lr-tb;fill:#000000;fill-opacity:1;fill-rule:nonzero;stroke:none"
           id="text6896"><tspan
             x="0"
             y="0"
             id="tspan6894">′</tspan></text></g></g><path
       d="m 544.26,207.66 c 0,8.81 7.15,15.96 15.96,15.96 8.81,0 15.96,-7.15 15.96,-15.96 0,-8.81 -7.15,-15.96 -15.96,-15.96 -8.81,0 -15.96,7.15 -15.96,15.96 z"
       style="fill:none;stroke:#000000;stroke-width:2.25;stroke-linecap:butt;stroke-linejoin:miter;stroke-miterlimit:10;stroke-dasharray:none;stroke-opacity:1"
       id="path6900" /><g
       id="g6902"><g
         id="g6904"
         clip-path="url(#clipPath6908)"><text
           transform="matrix(1,0,0,-1,556.27,202.8)"
           style="font-variant:normal;font-weight:bold;font-size:12.96px;font-family:'Times New Roman';-inkscape-font-specification:TimesNewRomanPS-BoldMT;writing-mode:lr-tb;fill:#000000;fill-opacity:1;fill-rule:nonzero;stroke:none"
           id="text6912"><tspan
             x="0 3.5999999"
             y="0"
             sodipodi:role="line"
             id="tspan6910">if</tspan></text></g></g><path
       d="m 561.34,151.95 v 34.13 h -2.25 v -34.13 z m 2.25,33 -3.37,6.75 -3.38,-6.75 z"
       style="fill:#000000;fill-opacity:1;fill-rule:nonzero;stroke:none"
       id="path6914" /><path
       d="m 547.93,218.3 -33.43,53.12 1.91,1.2 33.43,-53.12 z m -34.73,50.97 -0.74,7.51 6.45,-3.92 z"
       style="fill:#000000;fill-opacity:1;fill-rule:nonzero;stroke:none"
       id="path6916" /><g
       id="g6918"><g
         id="g6920"
         clip-path="url(#clipPath6924)"><text
           transform="matrix(1,0,0,-1,209.9,298.39)"
           style="font-variant:normal;font-weight:bold;font-size:18px;font-family:'Times New Roman';-inkscape-font-specification:TimesNewRomanPS-BoldMT;writing-mode:lr-tb;fill:#000000;fill-opacity:1;fill-rule:nonzero;stroke:none"
           id="text6928"><tspan
             x="0 10.674 18.666 28.674"
             y="0"
             sodipodi:role="line"
             id="tspan6926">True</tspan></text></g></g><path
       d="m 572.48,218.38 1.11,1.95 -1.95,1.12 -1.12,-1.96 z m 2.23,3.9 1.12,1.95 -1.95,1.12 -1.12,-1.95 z m 2.24,3.91 1.12,1.95 -1.96,1.12 -1.12,-1.96 z m 2.23,3.9 1.12,1.95 -1.95,1.12 -1.12,-1.95 z m 2.24,3.91 1.12,1.95 -1.96,1.12 -1.11,-1.96 z m 2.23,3.9 1.12,1.95 -1.95,1.12 -1.12,-1.95 z m 2.24,3.91 1.12,1.95 -1.96,1.12 -1.11,-1.95 z m 2.24,3.9 1.11,1.96 -1.95,1.11 -1.12,-1.95 z m 2.23,3.91 1.12,1.95 -1.95,1.12 -1.12,-1.95 z m 2.24,3.9 1.11,1.96 -1.95,1.11 -1.12,-1.95 z m 2.23,3.91 1.12,1.95 -1.95,1.12 -1.12,-1.95 z m 2.24,3.9 1.12,1.96 -1.96,1.12 -1.11,-1.96 z m 2.23,3.91 1.12,1.95 -1.95,1.12 -1.12,-1.95 z m 3.31,1.25 0.42,7.53 -6.28,-4.18 z"
       style="fill:#000000;fill-opacity:1;fill-rule:nonzero;stroke:none"
       id="path6930" /><g
       id="g6932"><g
         id="g6934"
         clip-path="url(#clipPath6938)"><text
           transform="matrix(1,0,0,-1,593.88,227.9)"
           style="font-variant:normal;font-weight:bold;font-size:18px;font-family:'Times New Roman';-inkscape-font-specification:TimesNewRomanPS-BoldMT;writing-mode:lr-tb;fill:#000000;fill-opacity:1;fill-rule:nonzero;stroke:none"
           id="text6942"><tspan
             x="0 10.998 19.997999 25.056 32.057999"
             y="0"
             sodipodi:role="line"
             id="tspan6940">False</tspan></text></g></g><g
       id="g6944"><g
         id="g6946"
         clip-path="url(#clipPath6950)"><text
           transform="matrix(0.94869278,0,-0.31619931,-0.94869278,635.35,203.26)"
           style="font-variant:normal;font-weight:normal;font-size:21.1238px;font-family:'Cambria Math';-inkscape-font-specification:CambriaMath;writing-mode:lr-tb;fill:#000000;fill-opacity:1;fill-rule:nonzero;stroke:none"
           id="text6954"><tspan
             x="0"
             y="0"
             id="tspan6952">∇</tspan></text></g></g><g
       id="g6956"><g
         id="g6958"
         clip-path="url(#clipPath6962)"><text
           transform="matrix(1,0,0,-1,647.23,203.26)"
           style="font-style:italic;font-variant:normal;font-weight:bold;font-size:20.04px;font-family:'Times New Roman';-inkscape-font-specification:TimesNewRomanPS-BoldItalicMT;writing-mode:lr-tb;fill:#000000;fill-opacity:1;fill-rule:nonzero;stroke:none"
           id="text6966"><tspan
             x="0"
             y="0"
             id="tspan6964">Y</tspan></text></g></g><g
       id="g6968"><g
         id="g6970"
         clip-path="url(#clipPath6974)"><text
           transform="matrix(1,0,0,-1,659.59,203.26)"
           style="font-style:italic;font-variant:normal;font-weight:bold;font-size:20.04px;font-family:'Times New Roman';-inkscape-font-specification:TimesNewRomanPS-BoldItalicMT;writing-mode:lr-tb;fill:#000000;fill-opacity:1;fill-rule:nonzero;stroke:none"
           id="text6978"><tspan
             x="0"
             y="0"
             id="tspan6976">′</tspan></text></g></g><path
       d="m 656.49,225.41 -1.58,1.6 1.6,1.59 1.58,-1.6 z m -3.16,3.2 -1.58,1.6 1.6,1.59 1.58,-1.6 z m -3.16,3.2 -1.58,1.6 1.6,1.59 1.58,-1.6 z m -3.17,3.2 -1.58,1.6 1.6,1.59 1.58,-1.6 z m -3.16,3.2 -1.58,1.6 1.6,1.59 1.58,-1.6 z m -3.16,3.2 -1.59,1.6 1.6,1.59 1.59,-1.6 z m -3.17,3.2 -1.58,1.6 1.6,1.59 1.58,-1.6 z m -3.16,3.2 -1.58,1.6 1.6,1.59 1.58,-1.6 z m -3.17,3.2 -1.58,1.6 1.6,1.59 1.58,-1.6 z m -3.16,3.2 -1.58,1.6 1.6,1.59 1.58,-1.6 z m -3.16,3.2 -1.59,1.6 1.6,1.59 1.59,-1.6 z m -3.17,3.2 -1.58,1.6 1.6,1.59 1.58,-1.6 z m -3.16,3.2 -1.58,1.6 1.6,1.59 1.58,-1.6 z m -3.17,3.2 -1.58,1.6 1.6,1.59 1.58,-1.6 z m -2.99,-0.16 -2.35,7.17 7.15,-2.43 z"
       style="fill:#000000;fill-opacity:1;fill-rule:nonzero;stroke:none"
       id="path6980" /><path
       d="m 594.13347,289.90653 c 0,8.81 7.15,15.96 15.96,15.96 8.81,0 15.96,-7.15 15.96,-15.96 0,-8.81 -7.15,-15.96 -15.96,-15.96 -8.81,0 -15.96,7.15 -15.96,15.96 z"
       style="fill:none;stroke:#000000;stroke-width:2.25;stroke-linecap:butt;stroke-linejoin:miter;stroke-miterlimit:10;stroke-dasharray:none;stroke-opacity:1"
       id="path6984" /><g
       id="g6986"><g
         id="g6988"
         clip-path="url(#clipPath6992)"><text
           transform="matrix(1,0,0,-1,602.42,282.79)"
           style="font-variant:normal;font-weight:normal;font-size:18px;font-family:'Times New Roman';-inkscape-font-specification:TimesNewRomanPSMT;writing-mode:lr-tb;fill:#000000;fill-opacity:1;fill-rule:nonzero;stroke:none"
           id="text6996"><tspan
             x="0 9"
             y="0"
             sodipodi:role="line"
             id="tspan6994">*g</tspan></text></g></g><path
       d="m 598.01,304.79 -1.32,1.82 1.82,1.32 1.32,-1.82 z m -2.64,3.64 -1.32,1.82 1.82,1.32 1.32,-1.82 z m -2.64,3.64 -1.32,1.82 1.82,1.32 1.32,-1.82 z m -2.64,3.64 -1.32,1.83 1.82,1.32 1.32,-1.82 z m -2.64,3.65 -1.33,1.82 1.83,1.32 1.32,-1.82 z m -2.65,3.64 -1.32,1.82 1.82,1.32 1.33,-1.82 z m -2.64,3.64 -1.32,1.82 1.82,1.33 1.32,-1.83 z m -2.64,3.65 -1.32,1.82 1.82,1.32 1.32,-1.82 z m -2.64,3.64 -1.32,1.82 1.82,1.32 1.32,-1.82 z m -2.64,3.64 -0.35,0.48 1.82,1.32 0.35,-0.48 z m -1.51,-1.76 -1.23,7.45 6.69,-3.48 z"
       style="fill:#000000;fill-opacity:1;fill-rule:nonzero;stroke:none"
       id="path6998" /><path
       d="m 627.06,303.38 1.18,1.92 -1.92,1.17 -1.18,-1.91 z m 2.35,3.84 1.18,1.91 -1.92,1.18 -1.17,-1.92 z m 2.36,3.83 1.17,1.92 -1.91,1.17 -1.18,-1.91 z m 2.35,3.84 1.18,1.91 -1.92,1.18 -1.18,-1.92 z m 2.36,3.83 1.17,1.92 -1.91,1.17 -1.18,-1.91 z m 2.35,3.84 1.18,1.91 -1.92,1.18 -1.18,-1.92 z m 2.35,3.83 1.18,1.92 -1.92,1.17 -1.17,-1.91 z m 2.36,3.84 1.18,1.91 -1.92,1.18 -1.18,-1.92 z m 2.35,3.83 1.18,1.92 -1.92,1.18 -1.18,-1.92 z m 2.36,3.84 1.17,1.91 -1.91,1.18 -1.18,-1.92 z m 2.71,0.12 0.66,7.52 -6.41,-3.99 z"
       style="fill:#000000;fill-opacity:1;fill-rule:nonzero;stroke:none"
       id="path7000" /><g
       id="g7002"><g
         id="g7004"
         clip-path="url(#clipPath7008)"><text
           transform="matrix(0.94869278,0,-0.31619931,-0.94869278,635.35,348.07)"
           style="font-variant:normal;font-weight:normal;font-size:18.9735px;font-family:'Cambria Math';-inkscape-font-specification:CambriaMath;writing-mode:lr-tb;fill:#000000;fill-opacity:1;fill-rule:nonzero;stroke:none"
           id="text7012"><tspan
             x="0"
             y="0"
             id="tspan7010">∇</tspan></text></g></g><g
       id="g7014"><g
         id="g7016"
         clip-path="url(#clipPath7020)"><text
           transform="matrix(1,0,0,-1,646.03,348.07)"
           style="font-style:italic;font-variant:normal;font-weight:bold;font-size:18px;font-family:'Times New Roman';-inkscape-font-specification:TimesNewRomanPS-BoldItalicMT;writing-mode:lr-tb;fill:#000000;fill-opacity:1;fill-rule:nonzero;stroke:none"
           id="text7024"><tspan
             x="0"
             y="0"
             id="tspan7022">C</tspan></text></g></g><path
       d="m 753,439.68 h -7.8 V 125.52 h -15.6 v 314.16 h -7.8 l 15.6,15.6 z"
       style="fill:#8faadc;fill-opacity:1;fill-rule:evenodd;stroke:none"
       id="path7026" /><path
       d="m 753,439.68 h -7.8 V 125.52 h -15.6 v 314.16 h -7.8 l 15.6,15.6 z"
       style="fill:none;stroke:#b4c7e7;stroke-width:1;stroke-linecap:butt;stroke-linejoin:miter;stroke-miterlimit:10;stroke-dasharray:none;stroke-opacity:1"
       id="path7028" /><g
       id="g7030"><g
         id="g7032"
         clip-path="url(#clipPath7036)"><text
           transform="matrix(1,0,0,-1,726.74,288.79)"
           style="font-variant:normal;font-weight:normal;font-size:18.024px;font-family:DengXian;-inkscape-font-specification:DengXian;writing-mode:lr-tb;fill:#000000;fill-opacity:1;fill-rule:nonzero;stroke:none"
           id="text7040"><tspan
             x="0"
             y="0"
             id="tspan7038">反</tspan></text></g></g><g
       id="g7042"><g
         id="g7044"
         clip-path="url(#clipPath7048)"><text
           transform="matrix(1,0,0,-1,726.74,267.05)"
           style="font-variant:normal;font-weight:normal;font-size:18px;font-family:DengXian;-inkscape-font-specification:DengXian;writing-mode:lr-tb;fill:#000000;fill-opacity:1;fill-rule:nonzero;stroke:none"
           id="text7052"><tspan
             x="0"
             y="0"
             id="tspan7050">向</tspan></text></g></g></g></svg>
