<?xml version="1.0" encoding="UTF-8" standalone="no"?>
<!-- Created with Inkscape (http://www.inkscape.org/) -->

<svg
   version="1.1"
   id="svg2"
   xml:space="preserve"
   width="800.31769"
   height="275.66666"
   viewBox="0 0 800.31768 275.66666"
   sodipodi:docname="ch04-graph_19.svg"
   inkscape:version="1.1.2 (b8e25be833, 2022-02-05)"
   xmlns:inkscape="http://www.inkscape.org/namespaces/inkscape"
   xmlns:sodipodi="http://sodipodi.sourceforge.net/DTD/sodipodi-0.dtd"
   xmlns="http://www.w3.org/2000/svg"
   xmlns:svg="http://www.w3.org/2000/svg"><defs
     id="defs6"><clipPath
       clipPathUnits="userSpaceOnUse"
       id="clipPath16"><path
         d="M 0,1.2207e-4 H 960 V 540.00012 H 0 Z"
         clip-rule="evenodd"
         id="path14" /></clipPath><clipPath
       clipPathUnits="userSpaceOnUse"
       id="clipPath28"><path
         d="M 1.4305e-5,0 H 960.00001 V 540 H 1.4305e-5 Z"
         clip-rule="evenodd"
         id="path26" /></clipPath><clipPath
       clipPathUnits="userSpaceOnUse"
       id="clipPath42"><path
         d="M 1.4305e-5,0 H 960.00001 V 540 H 1.4305e-5 Z"
         clip-rule="evenodd"
         id="path40" /></clipPath><clipPath
       clipPathUnits="userSpaceOnUse"
       id="clipPath56"><path
         d="M 1.4305e-5,0 H 960.00001 V 540 H 1.4305e-5 Z"
         clip-rule="evenodd"
         id="path54" /></clipPath><clipPath
       clipPathUnits="userSpaceOnUse"
       id="clipPath72"><path
         d="M 1.4305e-5,0 H 960.00001 V 540 H 1.4305e-5 Z"
         clip-rule="evenodd"
         id="path70" /></clipPath><clipPath
       clipPathUnits="userSpaceOnUse"
       id="clipPath88"><path
         d="M 1.4305e-5,0 H 960.00001 V 540 H 1.4305e-5 Z"
         clip-rule="evenodd"
         id="path86" /></clipPath><clipPath
       clipPathUnits="userSpaceOnUse"
       id="clipPath106"><path
         d="M 1.4305e-5,0 H 960.00001 V 540 H 1.4305e-5 Z"
         clip-rule="evenodd"
         id="path104" /></clipPath><clipPath
       clipPathUnits="userSpaceOnUse"
       id="clipPath118"><path
         d="M 1.4305e-5,0 H 960.00001 V 540 H 1.4305e-5 Z"
         clip-rule="evenodd"
         id="path116" /></clipPath><clipPath
       clipPathUnits="userSpaceOnUse"
       id="clipPath130"><path
         d="M 1.4305e-5,0 H 960.00001 V 540 H 1.4305e-5 Z"
         clip-rule="evenodd"
         id="path128" /></clipPath><clipPath
       clipPathUnits="userSpaceOnUse"
       id="clipPath146"><path
         d="M 1.4305e-5,0 H 960.00001 V 540 H 1.4305e-5 Z"
         clip-rule="evenodd"
         id="path144" /></clipPath><clipPath
       clipPathUnits="userSpaceOnUse"
       id="clipPath158"><path
         d="M 1.4305e-5,0 H 960.00001 V 540 H 1.4305e-5 Z"
         clip-rule="evenodd"
         id="path156" /></clipPath><clipPath
       clipPathUnits="userSpaceOnUse"
       id="clipPath170"><path
         d="M 1.4305e-5,0 H 960.00001 V 540 H 1.4305e-5 Z"
         clip-rule="evenodd"
         id="path168" /></clipPath><clipPath
       clipPathUnits="userSpaceOnUse"
       id="clipPath188"><path
         d="M 1.4305e-5,0 H 960.00001 V 540 H 1.4305e-5 Z"
         clip-rule="evenodd"
         id="path186" /></clipPath><clipPath
       clipPathUnits="userSpaceOnUse"
       id="clipPath200"><path
         d="M 1.4305e-5,0 H 960.00001 V 540 H 1.4305e-5 Z"
         clip-rule="evenodd"
         id="path198" /></clipPath><clipPath
       clipPathUnits="userSpaceOnUse"
       id="clipPath212"><path
         d="M 1.4305e-5,0 H 960.00001 V 540 H 1.4305e-5 Z"
         clip-rule="evenodd"
         id="path210" /></clipPath><clipPath
       clipPathUnits="userSpaceOnUse"
       id="clipPath228"><path
         d="M 1.4305e-5,0 H 960.00001 V 540 H 1.4305e-5 Z"
         clip-rule="evenodd"
         id="path226" /></clipPath><clipPath
       clipPathUnits="userSpaceOnUse"
       id="clipPath240"><path
         d="M 1.4305e-5,0 H 960.00001 V 540 H 1.4305e-5 Z"
         clip-rule="evenodd"
         id="path238" /></clipPath><clipPath
       clipPathUnits="userSpaceOnUse"
       id="clipPath252"><path
         d="M 1.4305e-5,0 H 960.00001 V 540 H 1.4305e-5 Z"
         clip-rule="evenodd"
         id="path250" /></clipPath></defs><sodipodi:namedview
     id="namedview4"
     pagecolor="#ffffff"
     bordercolor="#666666"
     borderopacity="1.0"
     inkscape:pageshadow="2"
     inkscape:pageopacity="0.0"
     inkscape:pagecheckerboard="0"
     showgrid="false"
     fit-margin-top="0"
     fit-margin-left="0"
     fit-margin-right="0"
     fit-margin-bottom="0"
     inkscape:zoom="1.2067845"
     inkscape:cx="409.76662"
     inkscape:cy="149.15671"
     inkscape:window-width="2560"
     inkscape:window-height="1377"
     inkscape:window-x="-8"
     inkscape:window-y="-8"
     inkscape:window-maximized="1"
     inkscape:current-layer="g8" /><g
     id="g8"
     inkscape:groupmode="layer"
     inkscape:label="ch04-graph_19"
     transform="matrix(1.3333333,0,0,-1.3333333,-81.082284,530.67999)"><path
       d="m 90.417,299.76 44.523,-20.85 -0.96,-2.03 -44.517,20.84 z m 44.453,-18.33 4.69,-5.92 -7.55,-0.19 z"
       style="fill:#000000;fill-opacity:1;fill-rule:nonzero;stroke:none"
       id="path20" /><g
       id="g22"><g
         id="g24"
         clip-path="url(#clipPath28)"><text
           transform="matrix(1,0,0,-1,172.75,278.26)"
           style="font-style:italic;font-variant:normal;font-weight:bold;font-size:20.04px;font-family:'Times New Roman';-inkscape-font-specification:TimesNewRomanPS-BoldItalicMT;writing-mode:lr-tb;fill:#000000;fill-opacity:1;fill-rule:nonzero;stroke:none"
           id="text32"><tspan
             x="0"
             y="0"
             id="tspan30">Y</tspan></text></g></g><path
       d="m 95.018,233.01 34.612,23.81 -1.28,1.86 -34.608,-23.81 z m 34.952,21.32 3.65,6.61 -7.47,-1.05 z"
       style="fill:#000000;fill-opacity:1;fill-rule:nonzero;stroke:none"
       id="path34" /><g
       id="g36"><g
         id="g38"
         clip-path="url(#clipPath42)"><text
           transform="matrix(1,0,0,-1,76.68,292.25)"
           style="font-style:italic;font-variant:normal;font-weight:bold;font-size:18px;font-family:'Times New Roman';-inkscape-font-specification:TimesNewRomanPS-BoldItalicMT;writing-mode:lr-tb;fill:#000000;fill-opacity:1;fill-rule:nonzero;stroke:none"
           id="text46"><tspan
             x="0"
             y="0"
             id="tspan44">W</tspan></text></g></g><path
       d="m 164.7,269.99 h 27.18 v -2.25 H 164.7 Z m 26.05,2.25 6.75,-3.38 -6.75,-3.37 z"
       style="fill:#000000;fill-opacity:1;fill-rule:nonzero;stroke:none"
       id="path48" /><g
       id="g50"><g
         id="g52"
         clip-path="url(#clipPath56)"><text
           transform="matrix(1,0,0,-1,76.68,227.47)"
           style="font-style:italic;font-variant:normal;font-weight:bold;font-size:18px;font-family:'Times New Roman';-inkscape-font-specification:TimesNewRomanPS-BoldItalicMT;writing-mode:lr-tb;fill:#000000;fill-opacity:1;fill-rule:nonzero;stroke:none"
           id="text60"><tspan
             x="0"
             y="0"
             id="tspan58">A</tspan></text></g></g><path
       d="m 138.54,268.86 c 0,7.09 5.86,12.84 13.08,12.84 7.22,0 13.08,-5.75 13.08,-12.84 0,-7.09 -5.86,-12.84 -13.08,-12.84 -7.22,0 -13.08,5.75 -13.08,12.84 z"
       style="fill:#ffffff;fill-opacity:1;fill-rule:evenodd;stroke:none"
       id="path62" /><path
       d="m 138.54,268.86 c 0,7.09 5.86,12.84 13.08,12.84 7.22,0 13.08,-5.75 13.08,-12.84 0,-7.09 -5.86,-12.84 -13.08,-12.84 -7.22,0 -13.08,5.75 -13.08,12.84 z"
       style="fill:none;stroke:#000000;stroke-width:2.25;stroke-linecap:butt;stroke-linejoin:miter;stroke-miterlimit:10;stroke-dasharray:none;stroke-opacity:1"
       id="path64" /><g
       id="g66"><g
         id="g68"
         clip-path="url(#clipPath72)"><text
           transform="matrix(1,0,0,-1,145.06,258.19)"
           style="font-variant:normal;font-weight:normal;font-size:32.064px;font-family:DengXian;-inkscape-font-specification:DengXian;writing-mode:lr-tb;fill:#000000;fill-opacity:1;fill-rule:nonzero;stroke:none"
           id="text76"><tspan
             x="0"
             y="0"
             id="tspan74">*</tspan></text></g></g><path
       d="m 196.74,269.7 c 0,11.07 9,20.04 20.1,20.04 11.1,0 20.1,-8.97 20.1,-20.04 0,-11.07 -9,-20.04 -20.1,-20.04 -11.1,0 -20.1,8.97 -20.1,20.04 z"
       style="fill:#ffffff;fill-opacity:1;fill-rule:evenodd;stroke:none"
       id="path78" /><path
       d="m 196.74,269.7 c 0,11.07 9,20.04 20.1,20.04 11.1,0 20.1,-8.97 20.1,-20.04 0,-11.07 -9,-20.04 -20.1,-20.04 -11.1,0 -20.1,8.97 -20.1,20.04 z"
       style="fill:none;stroke:#000000;stroke-width:2.25;stroke-linecap:butt;stroke-linejoin:miter;stroke-miterlimit:10;stroke-dasharray:none;stroke-opacity:1"
       id="path80" /><g
       id="g82"><g
         id="g84"
         clip-path="url(#clipPath88)"><text
           transform="matrix(1,0,0,-1,200.59,264.62)"
           style="font-variant:normal;font-weight:normal;font-size:14.04px;font-family:'Times New Roman';-inkscape-font-specification:TimesNewRomanPSMT;writing-mode:lr-tb;fill:#000000;fill-opacity:1;fill-rule:nonzero;stroke:none"
           id="text92"><tspan
             x="0 9.3646803 15.59844 24.12072"
             y="0"
             sodipodi:role="line"
             id="tspan90">ReLU</tspan></text></g></g><path
       d="m 236.94,269.99 h 27.18 v -2.25 h -27.18 z m 26.05,2.25 6.75,-3.38 -6.75,-3.37 z"
       style="fill:#000000;fill-opacity:1;fill-rule:nonzero;stroke:none"
       id="path94" /><path
       d="m 497.34,319.08 c 0,13.02 10.56,23.58 23.58,23.58 v 0 c 13.02,0 23.58,-10.56 23.58,-23.58 V 218.64 c 0,-13.02 -10.56,-23.58 -23.58,-23.58 v 0 c -13.02,0 -23.58,10.56 -23.58,23.58 z"
       style="fill:#b4c7e7;fill-opacity:1;fill-rule:evenodd;stroke:none"
       id="path96" /><path
       d="m 497.34,319.08 c 0,13.02 10.56,23.58 23.58,23.58 v 0 c 13.02,0 23.58,-10.56 23.58,-23.58 V 218.64 c 0,-13.02 -10.56,-23.58 -23.58,-23.58 v 0 c -13.02,0 -23.58,10.56 -23.58,23.58 z"
       style="fill:none;stroke:#000000;stroke-width:1.5;stroke-linecap:butt;stroke-linejoin:miter;stroke-miterlimit:10;stroke-dasharray:none;stroke-opacity:1"
       id="path98" /><g
       id="g100"><g
         id="g102"
         clip-path="url(#clipPath106)"><text
           transform="matrix(1,0,0,-1,504.84,297.19)"
           style="font-variant:normal;font-weight:normal;font-size:32.04px;font-family:DengXian;-inkscape-font-specification:DengXian;writing-mode:lr-tb;fill:#000000;fill-opacity:1;fill-rule:nonzero;stroke:none"
           id="text110"><tspan
             x="0"
             y="0"
             id="tspan108">图</tspan></text></g></g><g
       id="g112"><g
         id="g114"
         clip-path="url(#clipPath118)"><text
           transform="matrix(1,0,0,-1,504.84,258.79)"
           style="font-variant:normal;font-weight:normal;font-size:32.064px;font-family:DengXian;-inkscape-font-specification:DengXian;writing-mode:lr-tb;fill:#000000;fill-opacity:1;fill-rule:nonzero;stroke:none"
           id="text122"><tspan
             x="0"
             y="0"
             id="tspan120">优</tspan></text></g></g><g
       id="g124"><g
         id="g126"
         clip-path="url(#clipPath130)"><text
           transform="matrix(1,0,0,-1,504.84,220.37)"
           style="font-variant:normal;font-weight:normal;font-size:32.04px;font-family:DengXian;-inkscape-font-specification:DengXian;writing-mode:lr-tb;fill:#000000;fill-opacity:1;fill-rule:nonzero;stroke:none"
           id="text134"><tspan
             x="0"
             y="0"
             id="tspan132">化</tspan></text></g></g><path
       d="m 613.14,319.08 c 0,13.02 10.56,23.58 23.58,23.58 v 0 c 13.02,0 23.58,-10.56 23.58,-23.58 V 218.64 c 0,-13.02 -10.56,-23.58 -23.58,-23.58 v 0 c -13.02,0 -23.58,10.56 -23.58,23.58 z"
       style="fill:#b4c7e7;fill-opacity:1;fill-rule:evenodd;stroke:none"
       id="path136" /><path
       d="m 613.14,319.08 c 0,13.02 10.56,23.58 23.58,23.58 v 0 c 13.02,0 23.58,-10.56 23.58,-23.58 V 218.64 c 0,-13.02 -10.56,-23.58 -23.58,-23.58 v 0 c -13.02,0 -23.58,10.56 -23.58,23.58 z"
       style="fill:none;stroke:#000000;stroke-width:1.5;stroke-linecap:butt;stroke-linejoin:miter;stroke-miterlimit:10;stroke-dasharray:none;stroke-opacity:1"
       id="path138" /><g
       id="g140"><g
         id="g142"
         clip-path="url(#clipPath146)"><text
           transform="matrix(1,0,0,-1,620.76,277.94)"
           style="font-variant:normal;font-weight:normal;font-size:32.04px;font-family:DengXian;-inkscape-font-specification:DengXian;writing-mode:lr-tb;fill:#000000;fill-opacity:1;fill-rule:nonzero;stroke:none"
           id="text150"><tspan
             x="0"
             y="0"
             id="tspan148">执</tspan></text></g></g><g
       id="g152"><g
         id="g154"
         clip-path="url(#clipPath158)"><text
           transform="matrix(1,0,0,-1,620.76,239.52)"
           style="font-variant:normal;font-weight:normal;font-size:32.04px;font-family:DengXian;-inkscape-font-specification:DengXian;writing-mode:lr-tb;fill:#000000;fill-opacity:1;fill-rule:nonzero;stroke:none"
           id="text162"><tspan
             x="0"
             y="0"
             id="tspan160">行</tspan></text></g></g><g
       id="g164"><g
         id="g166"
         clip-path="url(#clipPath170)"><text
           transform="matrix(1,0,0,-1,125.09,342.77)"
           style="font-variant:normal;font-weight:normal;font-size:20.04px;font-family:DengXian;-inkscape-font-specification:DengXian;writing-mode:lr-tb;fill:#000000;fill-opacity:1;fill-rule:nonzero;stroke:none"
           id="text174"><tspan
             x="0 20.040001 40.080002 60.119999"
             y="0"
             sodipodi:role="line"
             id="tspan172">前端定义</tspan></text></g></g><path
       d="m 328.5,351.3 h 146.76 v 45.96 H 328.5 Z"
       style="fill:#ffffff;fill-opacity:1;fill-rule:evenodd;stroke:none"
       id="path176" /><g
       id="g178"><path
         d="m 328.5,351.3 h 146.76 v 45.96 H 328.5 Z"
         style="fill:none;stroke:#ffffff;stroke-width:1.5;stroke-linecap:butt;stroke-linejoin:miter;stroke-miterlimit:10;stroke-dasharray:4.5, 1.5;stroke-dashoffset:0;stroke-opacity:1"
         id="path180" /></g><g
       id="g182"><g
         id="g184"
         clip-path="url(#clipPath188)"><text
           transform="matrix(1,0,0,-1,341.71,367.68)"
           style="font-variant:normal;font-weight:normal;font-size:20.04px;font-family:DengXian;-inkscape-font-specification:DengXian;writing-mode:lr-tb;fill:#000000;fill-opacity:1;fill-rule:nonzero;stroke:none"
           id="text192"><tspan
             x="0 20.040001 40.080002 60.119999 80.160004 100.2"
             y="0"
             sodipodi:role="line"
             id="tspan190">特殊数据结构</tspan></text></g></g><g
       id="g194"><g
         id="g196"
         clip-path="url(#clipPath200)"><text
           transform="matrix(1,0,0,-1,299.78,233.78)"
           style="font-variant:normal;font-weight:normal;font-size:20.04px;font-family:DengXian;-inkscape-font-specification:DengXian;writing-mode:lr-tb;fill:#000000;fill-opacity:1;fill-rule:nonzero;stroke:none"
           id="text204"><tspan
             x="0 20.063999"
             y="0"
             sodipodi:role="line"
             id="tspan202">重构</tspan></text></g></g><g
       id="g206"><g
         id="g208"
         clip-path="url(#clipPath212)"><text
           transform="matrix(1,0,0,-1,300.79,285.12)"
           style="font-variant:normal;font-weight:normal;font-size:20.04px;font-family:DengXian;-inkscape-font-specification:DengXian;writing-mode:lr-tb;fill:#000000;fill-opacity:1;fill-rule:nonzero;stroke:none"
           id="text216"><tspan
             x="0 20.040001"
             y="0"
             sodipodi:role="line"
             id="tspan214">分析</tspan></text></g></g><path
       d="m 367.56,342.04 c 0,2.23 1.81,4.04 4.04,4.04 h 63.8 c 2.23,0 4.04,-1.81 4.04,-4.04 V 195.8 c 0,-2.23 -1.81,-4.04 -4.04,-4.04 h -63.8 c -2.23,0 -4.04,1.81 -4.04,4.04 z"
       style="fill:#b3e0b4;fill-opacity:1;fill-rule:evenodd;stroke:none"
       id="path218" /><path
       d="m 367.56,342.04 c 0,2.23 1.81,4.04 4.04,4.04 h 63.8 c 2.23,0 4.04,-1.81 4.04,-4.04 V 195.8 c 0,-2.23 -1.81,-4.04 -4.04,-4.04 h -63.8 c -2.23,0 -4.04,1.81 -4.04,4.04 z"
       style="fill:none;stroke:#404040;stroke-width:1;stroke-linecap:butt;stroke-linejoin:round;stroke-miterlimit:10;stroke-dasharray:none;stroke-opacity:1"
       id="path220" /><g
       id="g222"><g
         id="g224"
         clip-path="url(#clipPath228)"><text
           transform="matrix(1,0,0,-1,379.44,289.63)"
           style="font-variant:normal;font-weight:normal;font-size:24px;font-family:DengXian;-inkscape-font-specification:DengXian;writing-mode:lr-tb;fill:#000000;fill-opacity:1;fill-rule:nonzero;stroke:none"
           id="text232"><tspan
             x="0 24"
             y="0"
             sodipodi:role="line"
             id="tspan230">静态</tspan></text></g></g><g
       id="g234"><g
         id="g236"
         clip-path="url(#clipPath240)"><text
           transform="matrix(1,0,0,-1,379.44,260.83)"
           style="font-variant:normal;font-weight:normal;font-size:24px;font-family:DengXian;-inkscape-font-specification:DengXian;writing-mode:lr-tb;fill:#000000;fill-opacity:1;fill-rule:nonzero;stroke:none"
           id="text244"><tspan
             x="0 24"
             y="0"
             sodipodi:role="line"
             id="tspan242">计算</tspan></text></g></g><g
       id="g246"><g
         id="g248"
         clip-path="url(#clipPath252)"><text
           transform="matrix(1,0,0,-1,391.44,232.01)"
           style="font-variant:normal;font-weight:normal;font-size:24px;font-family:DengXian;-inkscape-font-specification:DengXian;writing-mode:lr-tb;fill:#000000;fill-opacity:1;fill-rule:nonzero;stroke:none"
           id="text256"><tspan
             x="0"
             y="0"
             id="tspan254">图</tspan></text></g></g><g
       id="g258"><path
         d="m 61.32,321 c 0,3.64 2.956,6.6 6.601,6.6 H 267.84 c 3.64,0 6.6,-2.96 6.6,-6.6 V 216.84 c 0,-3.64 -2.96,-6.6 -6.6,-6.6 H 67.921 c -3.645,0 -6.601,2.96 -6.601,6.6 z"
         style="fill:none;stroke:#4472c4;stroke-width:1;stroke-linecap:butt;stroke-linejoin:round;stroke-miterlimit:10;stroke-dasharray:3, 1;stroke-dashoffset:0;stroke-opacity:1"
         id="path260" /></g><path
       d="m 274.5,269.61 h 88.06 v -1.5 H 274.5 Z m 87.06,2.25 6,-3 -6,-3 z"
       style="fill:#000000;fill-opacity:1;fill-rule:nonzero;stroke:none"
       id="path262" /><path
       d="m 439.5,269.61 h 49.02 v -1.5 H 439.5 Z m 48.02,2.25 6,-3 -6,-3 z"
       style="fill:#000000;fill-opacity:1;fill-rule:nonzero;stroke:none"
       id="path264" /><path
       d="m 548.34,268.09 50.19,0.13 v 1.5 l -50.19,-0.13 z m 49.2,-2.13 5.99,3.02 -6.01,2.98 z"
       style="fill:#000000;fill-opacity:1;fill-rule:nonzero;stroke:none"
       id="path266" /></g></svg>
