<?xml version="1.0" encoding="UTF-8" standalone="no"?>
<!-- Created with Inkscape (http://www.inkscape.org/) -->

<svg
   version="1.1"
   id="svg18699"
   xml:space="preserve"
   width="1157.36"
   height="298.00821"
   viewBox="0 0 1157.36 298.00821"
   sodipodi:docname="unroll.svg"
   inkscape:version="1.1.1 (3bf5ae0d25, 2021-09-20)"
   xmlns:inkscape="http://www.inkscape.org/namespaces/inkscape"
   xmlns:sodipodi="http://sodipodi.sourceforge.net/DTD/sodipodi-0.dtd"
   xmlns="http://www.w3.org/2000/svg"
   xmlns:svg="http://www.w3.org/2000/svg"><defs
     id="defs18703"><clipPath
       clipPathUnits="userSpaceOnUse"
       id="clipPath18713"><path
         d="M 0,1.2207e-4 H 960 V 540.00012 H 0 Z"
         clip-rule="evenodd"
         id="path18711" /></clipPath><clipPath
       clipPathUnits="userSpaceOnUse"
       id="clipPath18727"><path
         d="M 1.4305e-5,0 H 960.00001 V 540 H 1.4305e-5 Z"
         clip-rule="evenodd"
         id="path18725" /></clipPath><clipPath
       clipPathUnits="userSpaceOnUse"
       id="clipPath18741"><path
         d="M 1.4305e-5,0 H 960.00001 V 540 H 1.4305e-5 Z"
         clip-rule="evenodd"
         id="path18739" /></clipPath><clipPath
       clipPathUnits="userSpaceOnUse"
       id="clipPath18755"><path
         d="M 1.4305e-5,0 H 960.00001 V 540 H 1.4305e-5 Z"
         clip-rule="evenodd"
         id="path18753" /></clipPath><clipPath
       clipPathUnits="userSpaceOnUse"
       id="clipPath18771"><path
         d="M 1.4305e-5,0 H 960.00001 V 540 H 1.4305e-5 Z"
         clip-rule="evenodd"
         id="path18769" /></clipPath><clipPath
       clipPathUnits="userSpaceOnUse"
       id="clipPath18785"><path
         d="M 1.4305e-5,0 H 960.00001 V 540 H 1.4305e-5 Z"
         clip-rule="evenodd"
         id="path18783" /></clipPath><clipPath
       clipPathUnits="userSpaceOnUse"
       id="clipPath18797"><path
         d="M 1.4305e-5,0 H 960.00001 V 540 H 1.4305e-5 Z"
         clip-rule="evenodd"
         id="path18795" /></clipPath><clipPath
       clipPathUnits="userSpaceOnUse"
       id="clipPath18809"><path
         d="M 1.4305e-5,0 H 960.00001 V 540 H 1.4305e-5 Z"
         clip-rule="evenodd"
         id="path18807" /></clipPath><clipPath
       clipPathUnits="userSpaceOnUse"
       id="clipPath18829"><path
         d="M 1.4305e-5,0 H 960.00001 V 540 H 1.4305e-5 Z"
         clip-rule="evenodd"
         id="path18827" /></clipPath><clipPath
       clipPathUnits="userSpaceOnUse"
       id="clipPath18845"><path
         d="M 1.4305e-5,0 H 960.00001 V 540 H 1.4305e-5 Z"
         clip-rule="evenodd"
         id="path18843" /></clipPath><clipPath
       clipPathUnits="userSpaceOnUse"
       id="clipPath18859"><path
         d="M 1.4305e-5,0 H 960.00001 V 540 H 1.4305e-5 Z"
         clip-rule="evenodd"
         id="path18857" /></clipPath><clipPath
       clipPathUnits="userSpaceOnUse"
       id="clipPath18873"><path
         d="M 1.4305e-5,0 H 960.00001 V 540 H 1.4305e-5 Z"
         clip-rule="evenodd"
         id="path18871" /></clipPath><clipPath
       clipPathUnits="userSpaceOnUse"
       id="clipPath18889"><path
         d="M 1.4305e-5,0 H 960.00001 V 540 H 1.4305e-5 Z"
         clip-rule="evenodd"
         id="path18887" /></clipPath><clipPath
       clipPathUnits="userSpaceOnUse"
       id="clipPath18905"><path
         d="M 1.4305e-5,0 H 960.00001 V 540 H 1.4305e-5 Z"
         clip-rule="evenodd"
         id="path18903" /></clipPath><clipPath
       clipPathUnits="userSpaceOnUse"
       id="clipPath18919"><path
         d="M 1.4305e-5,0 H 960.00001 V 540 H 1.4305e-5 Z"
         clip-rule="evenodd"
         id="path18917" /></clipPath><clipPath
       clipPathUnits="userSpaceOnUse"
       id="clipPath18933"><path
         d="M 1.4305e-5,0 H 960.00001 V 540 H 1.4305e-5 Z"
         clip-rule="evenodd"
         id="path18931" /></clipPath><clipPath
       clipPathUnits="userSpaceOnUse"
       id="clipPath18949"><path
         d="M 1.4305e-5,0 H 960.00001 V 540 H 1.4305e-5 Z"
         clip-rule="evenodd"
         id="path18947" /></clipPath><clipPath
       clipPathUnits="userSpaceOnUse"
       id="clipPath18965"><path
         d="M 1.4305e-5,0 H 960.00001 V 540 H 1.4305e-5 Z"
         clip-rule="evenodd"
         id="path18963" /></clipPath><clipPath
       clipPathUnits="userSpaceOnUse"
       id="clipPath18979"><path
         d="M 1.4305e-5,0 H 960.00001 V 540 H 1.4305e-5 Z"
         clip-rule="evenodd"
         id="path18977" /></clipPath><clipPath
       clipPathUnits="userSpaceOnUse"
       id="clipPath18993"><path
         d="M 1.4305e-5,0 H 960.00001 V 540 H 1.4305e-5 Z"
         clip-rule="evenodd"
         id="path18991" /></clipPath><clipPath
       clipPathUnits="userSpaceOnUse"
       id="clipPath19009"><path
         d="M 1.4305e-5,0 H 960.00001 V 540 H 1.4305e-5 Z"
         clip-rule="evenodd"
         id="path19007" /></clipPath></defs><sodipodi:namedview
     id="namedview18701"
     pagecolor="#ffffff"
     bordercolor="#666666"
     borderopacity="1.0"
     inkscape:pageshadow="2"
     inkscape:pageopacity="0.0"
     inkscape:pagecheckerboard="0"
     showgrid="false"
     fit-margin-top="0"
     fit-margin-left="0"
     fit-margin-right="0"
     fit-margin-bottom="0"
     inkscape:zoom="1.321875"
     inkscape:cx="583.26241"
     inkscape:cy="159.2435"
     inkscape:window-width="2560"
     inkscape:window-height="1361"
     inkscape:window-x="-9"
     inkscape:window-y="-9"
     inkscape:window-maximized="1"
     inkscape:current-layer="g18705" /><g
     id="g18705"
     inkscape:groupmode="layer"
     inkscape:label="unroll"
     transform="matrix(1.3333333,0,0,-1.3333333,-56.479999,519.40212)"><path
       d="m 43.86,297.94 c 0,11.11 9.008,20.12 20.12,20.12 H 199.3 c 11.11,0 20.12,-9.01 20.12,-20.12 v -80.48 c 0,-11.11 -9.01,-20.12 -20.12,-20.12 H 63.98 c -11.112,0 -20.12,9.01 -20.12,20.12 z"
       style="fill:none;stroke:#2f528f;stroke-width:3;stroke-linecap:butt;stroke-linejoin:miter;stroke-miterlimit:10;stroke-dasharray:none;stroke-opacity:1"
       id="path18717" /><path
       d="m 76.977,299.76 44.523,-20.85 -0.96,-2.03 -44.517,20.84 z m 44.453,-18.33 4.69,-5.92 -7.55,-0.19 z"
       style="fill:#000000;fill-opacity:1;fill-rule:nonzero;stroke:none"
       id="path18719" /><g
       id="g18721"><g
         id="g18723"
         clip-path="url(#clipPath18727)"><text
           transform="matrix(1,0,0,-1,186.46,274.37)"
           style="font-style:italic;font-variant:normal;font-weight:bold;font-size:20.04px;font-family:'Times New Roman';-inkscape-font-specification:TimesNewRomanPS-BoldItalicMT;writing-mode:lr-tb;fill:#000000;fill-opacity:1;fill-rule:nonzero;stroke:none"
           id="text18731"><tspan
             x="0"
             y="0"
             id="tspan18729">Y</tspan></text></g></g><path
       d="m 81.578,233.01 34.612,23.81 -1.28,1.86 -34.608,-23.81 z m 34.952,21.32 3.65,6.61 -7.47,-1.05 z"
       style="fill:#000000;fill-opacity:1;fill-rule:nonzero;stroke:none"
       id="path18733" /><g
       id="g18735"><g
         id="g18737"
         clip-path="url(#clipPath18741)"><text
           transform="matrix(1,0,0,-1,63.168,292.25)"
           style="font-style:italic;font-variant:normal;font-weight:bold;font-size:18px;font-family:'Times New Roman';-inkscape-font-specification:TimesNewRomanPS-BoldItalicMT;writing-mode:lr-tb;fill:#000000;fill-opacity:1;fill-rule:nonzero;stroke:none"
           id="text18745"><tspan
             x="0"
             y="0"
             id="tspan18743">W</tspan></text></g></g><path
       d="m 151.26,269.99 81.25,-0.01 v -2.25 l -81.25,0.01 z m 80.13,2.24 6.75,-3.37 -6.75,-3.38 z"
       style="fill:#000000;fill-opacity:1;fill-rule:nonzero;stroke:none"
       id="path18747" /><g
       id="g18749"><g
         id="g18751"
         clip-path="url(#clipPath18755)"><text
           transform="matrix(1,0,0,-1,63.168,227.47)"
           style="font-style:italic;font-variant:normal;font-weight:bold;font-size:18px;font-family:'Times New Roman';-inkscape-font-specification:TimesNewRomanPS-BoldItalicMT;writing-mode:lr-tb;fill:#000000;fill-opacity:1;fill-rule:nonzero;stroke:none"
           id="text18759"><tspan
             x="0"
             y="0"
             id="tspan18757">X</tspan></text></g></g><path
       d="m 125.1,268.86 c 0,7.09 5.86,12.84 13.08,12.84 7.22,0 13.08,-5.75 13.08,-12.84 0,-7.09 -5.86,-12.84 -13.08,-12.84 -7.22,0 -13.08,5.75 -13.08,12.84 z"
       style="fill:none;stroke:#000000;stroke-width:2.25;stroke-linecap:butt;stroke-linejoin:miter;stroke-miterlimit:10;stroke-dasharray:none;stroke-opacity:1"
       id="path18763" /><g
       id="g18765"
       transform="translate(-0.56737555,-5.1063876)"><g
         id="g18767"
         clip-path="url(#clipPath18771)"><text
           transform="matrix(1,0,0,-1,130.13,257.09)"
           style="font-variant:normal;font-weight:normal;font-size:32.04px;font-family:'Times New Roman';-inkscape-font-specification:TimesNewRomanPSMT;writing-mode:lr-tb;fill:#000000;fill-opacity:1;fill-rule:nonzero;stroke:none"
           id="text18775"><tspan
             x="0"
             y="0"
             id="tspan18773">*</tspan></text></g></g><path
       d="m 151.21,268.11 h 18 l -0.75,0.75 v -58.35 l 0.75,0.75 H 66.18 l 0.75,-0.75 v 3.88 h -1.5 v -4.63 h 104.53 v 59.85 h -18.75 z m -82.03,-54.72 -3,6 -3,-6 z"
       style="fill:#4472c4;fill-opacity:1;fill-rule:nonzero;stroke:none"
       id="path18777" /><g
       id="g18779"><g
         id="g18781"
         clip-path="url(#clipPath18785)"><text
           transform="matrix(1,0,0,-1,98.688,168.48)"
           style="font-variant:normal;font-weight:normal;font-size:18px;font-family:'Microsoft YaHei';-inkscape-font-specification:MicrosoftYaHei;writing-mode:lr-tb;fill:#000000;fill-opacity:1;fill-rule:nonzero;stroke:none"
           id="text18789"><tspan
             x="0 18"
             y="0"
             sodipodi:role="line"
             id="tspan18787">循环</tspan></text></g></g><g
       id="g18791"><g
         id="g18793"
         clip-path="url(#clipPath18797)"><text
           transform="matrix(1,0,0,-1,134.69,168.48)"
           style="font-variant:normal;font-weight:normal;font-size:18px;font-family:'Times New Roman';-inkscape-font-specification:TimesNewRomanPSMT;writing-mode:lr-tb;fill:#000000;fill-opacity:1;fill-rule:nonzero;stroke:none"
           id="text18801"><tspan
             x="0"
             y="0"
             id="tspan18799">3</tspan></text></g></g><g
       id="g18803"><g
         id="g18805"
         clip-path="url(#clipPath18809)"><text
           transform="matrix(1,0,0,-1,143.71,168.48)"
           style="font-variant:normal;font-weight:normal;font-size:18px;font-family:'Microsoft YaHei';-inkscape-font-specification:MicrosoftYaHei;writing-mode:lr-tb;fill:#000000;fill-opacity:1;fill-rule:nonzero;stroke:none"
           id="text18813"><tspan
             x="0"
             y="0"
             id="tspan18811">次</tspan></text></g></g><path
       d="m 253.68,262.5 h 15.84 v 6.42 l 12.84,-12.84 -12.84,-12.84 v 6.42 h -15.84 z"
       style="fill:#4472c4;fill-opacity:1;fill-rule:evenodd;stroke:none"
       id="path18815" /><path
       d="m 253.68,262.5 h 15.84 v 6.42 l 12.84,-12.84 -12.84,-12.84 v 6.42 h -15.84 z"
       style="fill:none;stroke:#2f528f;stroke-width:1;stroke-linecap:butt;stroke-linejoin:miter;stroke-miterlimit:10;stroke-dasharray:none;stroke-opacity:1"
       id="path18817" /><path
       d="m 314.52,359.16 h 562.2 v 5.28 l 10.56,-10.56 -10.56,-10.56 v 5.28 h -562.2 z"
       style="fill:#4472c4;fill-opacity:1;fill-rule:evenodd;stroke:none"
       id="path18819" /><path
       d="m 314.52,359.16 h 562.2 v 5.28 l 10.56,-10.56 -10.56,-10.56 v 5.28 h -562.2 z"
       style="fill:none;stroke:#2f528f;stroke-width:1;stroke-linecap:butt;stroke-linejoin:miter;stroke-miterlimit:10;stroke-dasharray:none;stroke-opacity:1"
       id="path18821" /><g
       id="g18823"><g
         id="g18825"
         clip-path="url(#clipPath18829)"><text
           transform="matrix(1,0,0,-1,581.59,375.41)"
           style="font-variant:normal;font-weight:normal;font-size:18px;font-family:'Microsoft YaHei';-inkscape-font-specification:MicrosoftYaHei;writing-mode:lr-tb;fill:#000000;fill-opacity:1;fill-rule:nonzero;stroke:none"
           id="text18833"><tspan
             x="0 18"
             y="0"
             sodipodi:role="line"
             id="tspan18831">展开</tspan></text></g></g><path
       d="m 302.34,301.18 c 0,11.11 9.01,20.12 20.12,20.12 h 135.32 c 11.11,0 20.12,-9.01 20.12,-20.12 V 220.7 c 0,-11.11 -9.01,-20.12 -20.12,-20.12 H 322.46 c -11.11,0 -20.12,9.01 -20.12,20.12 z"
       style="fill:none;stroke:#2f528f;stroke-width:3;stroke-linecap:butt;stroke-linejoin:miter;stroke-miterlimit:10;stroke-dasharray:none;stroke-opacity:1"
       id="path18835" /><path
       d="m 335.46,303 44.52,-20.85 -0.96,-2.03 -44.52,20.84 z m 44.45,-18.33 4.69,-5.92 -7.55,-0.19 z"
       style="fill:#000000;fill-opacity:1;fill-rule:nonzero;stroke:none"
       id="path18837" /><g
       id="g18839"><g
         id="g18841"
         clip-path="url(#clipPath18845)"><text
           transform="matrix(1,0,0,-1,445.01,277.63)"
           style="font-style:italic;font-variant:normal;font-weight:bold;font-size:20.04px;font-family:'Times New Roman';-inkscape-font-specification:TimesNewRomanPS-BoldItalicMT;writing-mode:lr-tb;fill:#000000;fill-opacity:1;fill-rule:nonzero;stroke:none"
           id="text18849"><tspan
             x="0"
             y="0"
             id="tspan18847">Y</tspan></text></g></g><path
       d="m 340.06,236.25 34.61,23.81 -1.28,1.86 -34.61,-23.81 z m 34.95,21.32 3.65,6.61 -7.47,-1.05 z"
       style="fill:#000000;fill-opacity:1;fill-rule:nonzero;stroke:none"
       id="path18851" /><g
       id="g18853"><g
         id="g18855"
         clip-path="url(#clipPath18859)"><text
           transform="matrix(1,0,0,-1,321.72,295.51)"
           style="font-style:italic;font-variant:normal;font-weight:bold;font-size:18px;font-family:'Times New Roman';-inkscape-font-specification:TimesNewRomanPS-BoldItalicMT;writing-mode:lr-tb;fill:#000000;fill-opacity:1;fill-rule:nonzero;stroke:none"
           id="text18863"><tspan
             x="0"
             y="0"
             id="tspan18861">W</tspan></text></g></g><path
       d="m 410.03,273.19 107.59,-28.64 -0.57,-2.17 -107.6,28.63 z m 107.09,-26.17 5.65,-5 -7.39,-1.52 z"
       style="fill:#000000;fill-opacity:1;fill-rule:nonzero;stroke:none"
       id="path18865" /><g
       id="g18867"><g
         id="g18869"
         clip-path="url(#clipPath18873)"><text
           transform="matrix(1,0,0,-1,321.72,230.74)"
           style="font-style:italic;font-variant:normal;font-weight:bold;font-size:18px;font-family:'Times New Roman';-inkscape-font-specification:TimesNewRomanPS-BoldItalicMT;writing-mode:lr-tb;fill:#000000;fill-opacity:1;fill-rule:nonzero;stroke:none"
           id="text18877"><tspan
             x="0"
             y="0"
             id="tspan18875">X</tspan></text></g></g><path
       d="m 383.58,272.16 c 0,7.12 5.86,12.9 13.08,12.9 7.22,0 13.08,-5.78 13.08,-12.9 0,-7.12 -5.86,-12.9 -13.08,-12.9 -7.22,0 -13.08,5.78 -13.08,12.9 z"
       style="fill:none;stroke:#000000;stroke-width:2.25;stroke-linecap:butt;stroke-linejoin:miter;stroke-miterlimit:10;stroke-dasharray:none;stroke-opacity:1"
       id="path18881" /><g
       id="g18883"
       transform="translate(-2.1276594e-7,-3.9716295)"><g
         id="g18885"
         clip-path="url(#clipPath18889)"><text
           transform="matrix(1,0,0,-1,388.68,260.38)"
           style="font-variant:normal;font-weight:normal;font-size:32.064px;font-family:'Times New Roman';-inkscape-font-specification:TimesNewRomanPSMT;writing-mode:lr-tb;fill:#000000;fill-opacity:1;fill-rule:nonzero;stroke:none"
           id="text18893"><tspan
             x="0"
             y="0"
             id="tspan18891">*</tspan></text></g></g><path
       d="m 510.54,305.98 c 0,11.11 9.01,20.12 20.12,20.12 H 666.1 c 11.11,0 20.12,-9.01 20.12,-20.12 V 225.5 c 0,-11.11 -9.01,-20.12 -20.12,-20.12 H 530.66 c -11.11,0 -20.12,9.01 -20.12,20.12 z"
       style="fill:none;stroke:#2f528f;stroke-width:3;stroke-linecap:butt;stroke-linejoin:miter;stroke-miterlimit:10;stroke-dasharray:none;stroke-opacity:1"
       id="path18895" /><path
       d="m 543.66,307.8 44.52,-20.85 -0.96,-2.03 -44.52,20.84 z m 44.45,-18.33 4.69,-5.92 -7.55,-0.19 z"
       style="fill:#000000;fill-opacity:1;fill-rule:nonzero;stroke:none"
       id="path18897" /><g
       id="g18899"><g
         id="g18901"
         clip-path="url(#clipPath18905)"><text
           transform="matrix(1,0,0,-1,653.3,282.48)"
           style="font-style:italic;font-variant:normal;font-weight:bold;font-size:20.04px;font-family:'Times New Roman';-inkscape-font-specification:TimesNewRomanPS-BoldItalicMT;writing-mode:lr-tb;fill:#000000;fill-opacity:1;fill-rule:nonzero;stroke:none"
           id="text18909"><tspan
             x="0"
             y="0"
             id="tspan18907">Y</tspan></text></g></g><path
       d="m 548.38,241.17 34.61,23.81 -1.28,1.86 -34.61,-23.81 z m 34.95,21.32 3.65,6.61 -7.47,-1.05 z"
       style="fill:#000000;fill-opacity:1;fill-rule:nonzero;stroke:none"
       id="path18911" /><g
       id="g18913"><g
         id="g18915"
         clip-path="url(#clipPath18919)"><text
           transform="matrix(1,0,0,-1,530.02,300.36)"
           style="font-style:italic;font-variant:normal;font-weight:bold;font-size:18px;font-family:'Times New Roman';-inkscape-font-specification:TimesNewRomanPS-BoldItalicMT;writing-mode:lr-tb;fill:#000000;fill-opacity:1;fill-rule:nonzero;stroke:none"
           id="text18923"><tspan
             x="0"
             y="0"
             id="tspan18921">W</tspan></text></g></g><path
       d="m 618.4,278.09 104.83,-33.05 -0.68,-2.15 -104.83,33.06 z m 104.44,-30.57 5.42,-5.24 -7.45,-1.19 z"
       style="fill:#000000;fill-opacity:1;fill-rule:nonzero;stroke:none"
       id="path18925" /><g
       id="g18927"><g
         id="g18929"
         clip-path="url(#clipPath18933)"><text
           transform="matrix(1,0,0,-1,530.02,235.58)"
           style="font-style:italic;font-variant:normal;font-weight:bold;font-size:18px;font-family:'Times New Roman';-inkscape-font-specification:TimesNewRomanPS-BoldItalicMT;writing-mode:lr-tb;fill:#000000;fill-opacity:1;fill-rule:nonzero;stroke:none"
           id="text18937"><tspan
             x="0"
             y="0"
             id="tspan18935">X</tspan></text></g></g><path
       d="m 591.9,276.96 c 0,7.12 5.86,12.9 13.08,12.9 7.22,0 13.08,-5.78 13.08,-12.9 0,-7.12 -5.86,-12.9 -13.08,-12.9 -7.22,0 -13.08,5.78 -13.08,12.9 z"
       style="fill:none;stroke:#000000;stroke-width:2.25;stroke-linecap:butt;stroke-linejoin:miter;stroke-miterlimit:10;stroke-dasharray:none;stroke-opacity:1"
       id="path18941" /><g
       id="g18943"
       transform="translate(3.7588656e-7,-3.4042536)"><g
         id="g18945"
         clip-path="url(#clipPath18949)"><text
           transform="matrix(1,0,0,-1,596.98,265.22)"
           style="font-variant:normal;font-weight:normal;font-size:32.064px;font-family:'Times New Roman';-inkscape-font-specification:TimesNewRomanPSMT;writing-mode:lr-tb;fill:#000000;fill-opacity:1;fill-rule:nonzero;stroke:none"
           id="text18953"><tspan
             x="0"
             y="0"
             id="tspan18951">*</tspan></text></g></g><path
       d="m 715.98,306.22 c 0,11.11 9.01,20.12 20.12,20.12 h 135.44 c 11.11,0 20.12,-9.01 20.12,-20.12 v -80.48 c 0,-11.11 -9.01,-20.12 -20.12,-20.12 H 736.1 c -11.11,0 -20.12,9.01 -20.12,20.12 z"
       style="fill:none;stroke:#2f528f;stroke-width:3;stroke-linecap:butt;stroke-linejoin:miter;stroke-miterlimit:10;stroke-dasharray:none;stroke-opacity:1"
       id="path18955" /><path
       d="m 749.1,308.04 44.52,-20.85 -0.96,-2.03 -44.52,20.84 z m 44.45,-18.33 4.69,-5.92 -7.55,-0.19 z"
       style="fill:#000000;fill-opacity:1;fill-rule:nonzero;stroke:none"
       id="path18957" /><g
       id="g18959"><g
         id="g18961"
         clip-path="url(#clipPath18965)"><text
           transform="matrix(1,0,0,-1,858.77,282.67)"
           style="font-style:italic;font-variant:normal;font-weight:bold;font-size:20.04px;font-family:'Times New Roman';-inkscape-font-specification:TimesNewRomanPS-BoldItalicMT;writing-mode:lr-tb;fill:#000000;fill-opacity:1;fill-rule:nonzero;stroke:none"
           id="text18969"><tspan
             x="0"
             y="0"
             id="tspan18967">Y</tspan></text></g></g><path
       d="m 753.82,241.29 34.61,23.81 -1.28,1.86 -34.61,-23.81 z m 34.95,21.32 3.65,6.61 -7.47,-1.05 z"
       style="fill:#000000;fill-opacity:1;fill-rule:nonzero;stroke:none"
       id="path18971" /><g
       id="g18973"><g
         id="g18975"
         clip-path="url(#clipPath18979)"><text
           transform="matrix(1,0,0,-1,735.48,300.55)"
           style="font-style:italic;font-variant:normal;font-weight:bold;font-size:18px;font-family:'Times New Roman';-inkscape-font-specification:TimesNewRomanPS-BoldItalicMT;writing-mode:lr-tb;fill:#000000;fill-opacity:1;fill-rule:nonzero;stroke:none"
           id="text18983"><tspan
             x="0"
             y="0"
             id="tspan18981">W</tspan></text></g></g><path
       d="m 823.5,278.27 81.25,-0.01 v -2.25 l -81.25,0.01 z m 80.13,2.24 6.75,-3.37 -6.75,-3.38 z"
       style="fill:#000000;fill-opacity:1;fill-rule:nonzero;stroke:none"
       id="path18985" /><g
       id="g18987"><g
         id="g18989"
         clip-path="url(#clipPath18993)"><text
           transform="matrix(1,0,0,-1,735.48,235.78)"
           style="font-style:italic;font-variant:normal;font-weight:bold;font-size:18.024px;font-family:'Times New Roman';-inkscape-font-specification:TimesNewRomanPS-BoldItalicMT;writing-mode:lr-tb;fill:#000000;fill-opacity:1;fill-rule:nonzero;stroke:none"
           id="text18997"><tspan
             x="0"
             y="0"
             id="tspan18995">X</tspan></text></g></g><path
       d="m 797.34,277.2 c 0,7.12 5.86,12.9 13.08,12.9 7.22,0 13.08,-5.78 13.08,-12.9 0,-7.12 -5.86,-12.9 -13.08,-12.9 -7.22,0 -13.08,5.78 -13.08,12.9 z"
       style="fill:none;stroke:#000000;stroke-width:2.25;stroke-linecap:butt;stroke-linejoin:miter;stroke-miterlimit:10;stroke-dasharray:none;stroke-opacity:1"
       id="path19001" /><g
       id="g19003"
       transform="translate(-1.1347518,-5.6737595)"><g
         id="g19005"
         clip-path="url(#clipPath19009)"><text
           transform="matrix(1,0,0,-1,802.44,265.39)"
           style="font-variant:normal;font-weight:normal;font-size:32.04px;font-family:'Times New Roman';-inkscape-font-specification:TimesNewRomanPSMT;writing-mode:lr-tb;fill:#000000;fill-opacity:1;fill-rule:nonzero;stroke:none"
           id="text19013"><tspan
             x="0"
             y="0"
             id="tspan19011">*</tspan></text></g></g></g></svg>
