<?xml version="1.0" encoding="utf-8"?>
<!-- Generator: Adobe Illustrator 22.1.0, SVG Export Plug-In . SVG Version: 6.00 Build 0)  -->
<svg version="1.1"
	 id="svg55" inkscape:version="1.1.2 (1:1.1+202202050950+0a00cf5339)" sodipodi:docname="tensor_core.svg" xmlns:inkscape="http://www.inkscape.org/namespaces/inkscape" xmlns:sodipodi="http://sodipodi.sourceforge.net/DTD/sodipodi-0.dtd" xmlns:svg="http://www.w3.org/2000/svg"
	 xmlns="http://www.w3.org/2000/svg" xmlns:xlink="http://www.w3.org/1999/xlink" x="0px" y="0px" viewBox="0 0 1024 254"
	 style="enable-background:new 0 0 1024 254;" xml:space="preserve">
<style type="text/css">
	.st0{fill:#B3E0B4;stroke:#505050;stroke-miterlimit:10;}
	.st1{enable-background:new    ;}
	.st2{fill:#DEEBF7;stroke:#505050;stroke-miterlimit:10;}
	.st3{fill:#FFF2CC;stroke:#505050;stroke-miterlimit:10;}
	.st4{fill:#505050;}
</style>
<sodipodi:namedview  bordercolor="#666666" borderopacity="1.0" fit-margin-bottom="0" fit-margin-left="0" fit-margin-right="0" fit-margin-top="0" id="namedview57" inkscape:current-layer="g61" inkscape:cx="296.55291" inkscape:cy="166.90887" inkscape:pagecheckerboard="0" inkscape:pageopacity="0.0" inkscape:pageshadow="2" inkscape:window-height="1016" inkscape:window-maximized="1" inkscape:window-width="1848" inkscape:window-x="72" inkscape:window-y="27" inkscape:zoom="1.5966797" pagecolor="#ffffff" showgrid="false">
	</sodipodi:namedview>
<g>
	<path class="st0" d="M248.5,60.5H207c-2.2,0-4-1.8-4-4V15c0-2.2,1.8-4,4-4h41.5c2.2,0,4,1.8,4,4v41.5
		C252.5,58.7,250.7,60.5,248.5,60.5z"/>
	<g class="st1">
		<path d="M211.4,42.1l5.5-14.3h2l5.9,14.3h-2.2l-1.7-4.3h-6l-1.6,4.3H211.4z M215.5,36.2h4.9l-1.5-4c-0.5-1.2-0.8-2.2-1-3
			c-0.2,0.9-0.4,1.8-0.8,2.7L215.5,36.2z"/>
	</g>
	<g class="st1">
		<path d="M225.3,37.2c0-1.2,0.1-2.1,0.4-2.9c0.2-0.7,0.6-1.3,1.1-1.7s1.1-0.6,1.8-0.6c0.5,0,1,0.1,1.4,0.3c0.4,0.2,0.7,0.5,1,0.9
			c0.3,0.4,0.5,0.9,0.6,1.5c0.2,0.6,0.2,1.4,0.2,2.4c0,1.2-0.1,2.1-0.4,2.8c-0.2,0.7-0.6,1.3-1.1,1.7c-0.5,0.4-1.1,0.6-1.8,0.6
			c-1,0-1.7-0.3-2.3-1C225.6,40.4,225.3,39.1,225.3,37.2z M226.6,37.2c0,1.6,0.2,2.7,0.6,3.3c0.4,0.5,0.9,0.8,1.4,0.8s1-0.3,1.4-0.8
			s0.6-1.6,0.6-3.3c0-1.6-0.2-2.7-0.6-3.3s-0.9-0.8-1.4-0.8c-0.6,0-1,0.2-1.4,0.7C226.8,34.4,226.6,35.5,226.6,37.2z"/>
	</g>
	<g class="st1">
		<path d="M235.3,44.4l-0.2-0.3c1.1-0.9,1.3-1.2,1.3-1.9c0-0.3-0.1-0.4-0.3-0.4c-0.8,0.1-1.2-0.6-0.8-1.1c0.3-0.5,1-0.4,1.4,0
			C237.7,41.8,236.9,43.5,235.3,44.4z"/>
	</g>
	<g class="st1">
		<path d="M238.7,37.2c0-1.2,0.1-2.1,0.4-2.9c0.2-0.7,0.6-1.3,1.1-1.7s1.1-0.6,1.8-0.6c0.5,0,1,0.1,1.4,0.3c0.4,0.2,0.7,0.5,1,0.9
			c0.3,0.4,0.5,0.9,0.6,1.5c0.2,0.6,0.2,1.4,0.2,2.4c0,1.2-0.1,2.1-0.4,2.8c-0.2,0.7-0.6,1.3-1.1,1.7c-0.5,0.4-1.1,0.6-1.8,0.6
			c-1,0-1.7-0.3-2.3-1C239,40.4,238.7,39.1,238.7,37.2z M240,37.2c0,1.6,0.2,2.7,0.6,3.3c0.4,0.5,0.9,0.8,1.4,0.8s1-0.3,1.4-0.8
			s0.6-1.6,0.6-3.3c0-1.6-0.2-2.7-0.6-3.3s-0.9-0.8-1.4-0.8c-0.6,0-1,0.2-1.4,0.7C240.2,34.4,240,35.5,240,37.2z"/>
	</g>
</g>
<g>
	<path class="st0" d="M248.5,111.5H207c-2.2,0-4-1.8-4-4V66c0-2.2,1.8-4,4-4h41.5c2.2,0,4,1.8,4,4v41.5
		C252.5,109.7,250.7,111.5,248.5,111.5z"/>
	<g class="st1">
		<path d="M211.4,93.1l5.5-14.3h2l5.9,14.3h-2.2l-1.7-4.3h-6l-1.6,4.3H211.4z M215.5,87.2h4.9l-1.5-4c-0.5-1.2-0.8-2.2-1-3
			c-0.2,0.9-0.4,1.8-0.8,2.7L215.5,87.2z"/>
	</g>
	<g class="st1">
		<path d="M230,93.1h-1.2v-7.8c-0.3,0.3-0.7,0.6-1.2,0.8s-0.9,0.5-1.3,0.6v-1.2c0.7-0.3,1.3-0.7,1.8-1.2s0.9-0.9,1.1-1.3h0.8V93.1z"
			/>
	</g>
	<g class="st1">
		<path d="M235.3,95.4l-0.2-0.3c1.1-0.9,1.3-1.2,1.3-1.9c0-0.3-0.1-0.4-0.3-0.4c-0.8,0.1-1.2-0.6-0.8-1.1c0.3-0.5,1-0.4,1.4,0
			C237.7,92.8,236.9,94.5,235.3,95.4z"/>
	</g>
	<g class="st1">
		<path d="M238.7,88.2c0-1.2,0.1-2.1,0.4-2.9c0.2-0.7,0.6-1.3,1.1-1.7s1.1-0.6,1.8-0.6c0.5,0,1,0.1,1.4,0.3c0.4,0.2,0.7,0.5,1,0.9
			c0.3,0.4,0.5,0.9,0.6,1.5c0.2,0.6,0.2,1.4,0.2,2.4c0,1.2-0.1,2.1-0.4,2.8c-0.2,0.7-0.6,1.3-1.1,1.7c-0.5,0.4-1.1,0.6-1.8,0.6
			c-1,0-1.7-0.3-2.3-1C239,91.4,238.7,90.1,238.7,88.2z M240,88.2c0,1.6,0.2,2.7,0.6,3.3c0.4,0.5,0.9,0.8,1.4,0.8s1-0.3,1.4-0.8
			s0.6-1.6,0.6-3.3c0-1.6-0.2-2.7-0.6-3.3s-0.9-0.8-1.4-0.8c-0.6,0-1,0.2-1.4,0.7C240.2,85.4,240,86.5,240,88.2z"/>
	</g>
</g>
<g>
	<path class="st0" d="M300,60.5h-41.5c-2.2,0-4-1.8-4-4V15c0-2.2,1.8-4,4-4H300c2.2,0,4,1.8,4,4v41.5C304,58.7,302.2,60.5,300,60.5z
		"/>
	<g class="st1">
		<path d="M262.9,42.1l5.5-14.3h2l5.9,14.3h-2.2l-1.7-4.3h-6l-1.6,4.3H262.9z M267,36.2h4.9l-1.5-4c-0.5-1.2-0.8-2.2-1-3
			c-0.2,0.9-0.4,1.8-0.8,2.7L267,36.2z"/>
	</g>
	<g class="st1">
		<path d="M276.8,37.2c0-1.2,0.1-2.1,0.4-2.9c0.2-0.7,0.6-1.3,1.1-1.7s1.1-0.6,1.8-0.6c0.5,0,1,0.1,1.4,0.3c0.4,0.2,0.7,0.5,1,0.9
			c0.3,0.4,0.5,0.9,0.6,1.5c0.2,0.6,0.2,1.4,0.2,2.4c0,1.2-0.1,2.1-0.4,2.8c-0.2,0.7-0.6,1.3-1.1,1.7c-0.5,0.4-1.1,0.6-1.8,0.6
			c-1,0-1.7-0.3-2.3-1C277.1,40.4,276.8,39.1,276.8,37.2z M278.1,37.2c0,1.6,0.2,2.7,0.6,3.3c0.4,0.5,0.9,0.8,1.4,0.8s1-0.3,1.4-0.8
			s0.6-1.6,0.6-3.3c0-1.6-0.2-2.7-0.6-3.3s-0.9-0.8-1.4-0.8c-0.6,0-1,0.2-1.4,0.7C278.3,34.4,278.1,35.5,278.1,37.2z"/>
	</g>
	<g class="st1">
		<path d="M286.8,44.4l-0.2-0.3c1.1-0.9,1.3-1.2,1.3-1.9c0-0.3-0.1-0.4-0.3-0.4c-0.8,0.1-1.2-0.6-0.8-1.1c0.3-0.5,1-0.4,1.4,0
			C289.2,41.8,288.4,43.5,286.8,44.4z"/>
	</g>
	<g class="st1">
		<path d="M294.8,41.1h-1.2v-7.8c-0.3,0.3-0.7,0.6-1.2,0.8s-0.9,0.5-1.3,0.6v-1.2c0.7-0.3,1.3-0.7,1.8-1.2s0.9-0.9,1.1-1.3h0.8V41.1
			z"/>
	</g>
</g>
<g>
	<path class="st0" d="M351.5,61.3H310c-2.2,0-4-1.8-4-4V15.8c0-2.2,1.8-4,4-4h41.5c2.2,0,4,1.8,4,4v41.5
		C355.5,59.5,353.7,61.3,351.5,61.3z"/>
	<g class="st1">
		<path d="M314.4,42.9l5.5-14.3h2l5.9,14.3h-2.2l-1.7-4.3h-6l-1.6,4.3H314.4z M318.5,37h4.9l-1.5-4c-0.5-1.2-0.8-2.2-1-3
			c-0.2,0.9-0.4,1.8-0.8,2.7L318.5,37z"/>
	</g>
	<g class="st1">
		<path d="M328.3,37.9c0-1.2,0.1-2.1,0.4-2.9c0.2-0.7,0.6-1.3,1.1-1.7s1.1-0.6,1.8-0.6c0.5,0,1,0.1,1.4,0.3c0.4,0.2,0.7,0.5,1,0.9
			c0.3,0.4,0.5,0.9,0.6,1.5c0.2,0.6,0.2,1.4,0.2,2.4c0,1.2-0.1,2.1-0.4,2.8c-0.2,0.7-0.6,1.3-1.1,1.7c-0.5,0.4-1.1,0.6-1.8,0.6
			c-1,0-1.7-0.3-2.3-1C328.6,41.2,328.3,39.8,328.3,37.9z M329.6,37.9c0,1.6,0.2,2.7,0.6,3.3c0.4,0.5,0.9,0.8,1.4,0.8s1-0.3,1.4-0.8
			s0.6-1.6,0.6-3.3c0-1.6-0.2-2.7-0.6-3.3s-0.9-0.8-1.4-0.8c-0.6,0-1,0.2-1.4,0.7C329.8,35.2,329.6,36.3,329.6,37.9z"/>
	</g>
	<g class="st1">
		<path d="M338.3,45.2l-0.2-0.3c1.1-0.9,1.3-1.2,1.3-1.9c0-0.3-0.1-0.4-0.3-0.4c-0.8,0.1-1.2-0.6-0.8-1.1c0.3-0.5,1-0.4,1.4,0
			C340.7,42.5,339.9,44.2,338.3,45.2z"/>
	</g>
	<g class="st1">
		<path d="M348.2,40.7v1.2h-6.6c0-0.3,0-0.6,0.1-0.9c0.2-0.5,0.4-0.9,0.8-1.3s0.9-0.9,1.6-1.5c1.1-0.9,1.8-1.6,2.2-2.1
			c0.4-0.5,0.6-1,0.6-1.5c0-0.5-0.2-0.9-0.5-1.2c-0.3-0.3-0.8-0.5-1.4-0.5c-0.6,0-1.1,0.2-1.4,0.5s-0.5,0.8-0.5,1.5l-1.3-0.1
			c0.1-0.9,0.4-1.7,1-2.2c0.6-0.5,1.3-0.7,2.3-0.7c1,0,1.7,0.3,2.3,0.8s0.8,1.2,0.8,2c0,0.4-0.1,0.8-0.2,1.2s-0.4,0.8-0.8,1.2
			s-1,1-1.9,1.8c-0.7,0.6-1.2,1-1.4,1.3c-0.2,0.2-0.4,0.4-0.5,0.7H348.2z"/>
	</g>
</g>
<g>
	<path class="st0" d="M403,60.5h-41.5c-2.2,0-4-1.8-4-4V15c0-2.2,1.8-4,4-4H403c2.2,0,4,1.8,4,4v41.5C407,58.7,405.2,60.5,403,60.5z
		"/>
	<g class="st1">
		<path d="M365.9,42.1l5.5-14.3h2l5.9,14.3h-2.2l-1.7-4.3h-6l-1.6,4.3H365.9z M370,36.2h4.9l-1.5-4c-0.5-1.2-0.8-2.2-1-3
			c-0.2,0.9-0.4,1.8-0.8,2.7L370,36.2z"/>
	</g>
	<g class="st1">
		<path d="M379.8,37.2c0-1.2,0.1-2.1,0.4-2.9c0.2-0.7,0.6-1.3,1.1-1.7s1.1-0.6,1.8-0.6c0.5,0,1,0.1,1.4,0.3c0.4,0.2,0.7,0.5,1,0.9
			c0.3,0.4,0.5,0.9,0.6,1.5c0.2,0.6,0.2,1.4,0.2,2.4c0,1.2-0.1,2.1-0.4,2.8c-0.2,0.7-0.6,1.3-1.1,1.7c-0.5,0.4-1.1,0.6-1.8,0.6
			c-1,0-1.7-0.3-2.3-1C380.1,40.4,379.8,39.1,379.8,37.2z M381.1,37.2c0,1.6,0.2,2.7,0.6,3.3c0.4,0.5,0.9,0.8,1.4,0.8s1-0.3,1.4-0.8
			s0.6-1.6,0.6-3.3c0-1.6-0.2-2.7-0.6-3.3s-0.9-0.8-1.4-0.8c-0.6,0-1,0.2-1.4,0.7C381.3,34.4,381.1,35.5,381.1,37.2z"/>
	</g>
	<g class="st1">
		<path d="M389.8,44.4l-0.2-0.3c1.1-0.9,1.3-1.2,1.3-1.9c0-0.3-0.1-0.4-0.3-0.4c-0.8,0.1-1.2-0.6-0.8-1.1c0.3-0.5,1-0.4,1.4,0
			C392.2,41.8,391.4,43.5,389.8,44.4z"/>
	</g>
	<g class="st1">
		<path d="M393.2,38.5l1.2-0.2c0.1,0.7,0.4,1.2,0.7,1.5c0.3,0.3,0.8,0.5,1.2,0.5c0.6,0,1.1-0.2,1.5-0.6s0.6-0.9,0.6-1.5
			c0-0.6-0.2-1-0.6-1.4c-0.4-0.4-0.8-0.6-1.4-0.6c-0.2,0-0.5,0-0.9,0.1l0.1-1.1c0.1,0,0.1,0,0.2,0c0.5,0,1-0.1,1.4-0.4
			s0.6-0.7,0.6-1.3c0-0.5-0.2-0.8-0.5-1.1s-0.7-0.4-1.2-0.4c-0.5,0-0.9,0.2-1.2,0.5s-0.5,0.8-0.6,1.4l-1.2-0.2
			c0.2-0.8,0.5-1.5,1-1.9c0.5-0.5,1.2-0.7,2-0.7c0.5,0,1.1,0.1,1.5,0.4c0.5,0.2,0.8,0.6,1.1,1s0.4,0.8,0.4,1.3
			c0,0.4-0.1,0.8-0.3,1.2s-0.6,0.6-1,0.8c0.6,0.1,1.1,0.4,1.4,0.9c0.3,0.4,0.5,1,0.5,1.6c0,0.9-0.3,1.6-1,2.2
			c-0.6,0.6-1.4,0.9-2.4,0.9c-0.9,0-1.6-0.3-2.2-0.8S393.3,39.3,393.2,38.5z"/>
	</g>
</g>
<g>
	<path class="st0" d="M300,111.5h-41.5c-2.2,0-4-1.8-4-4V66c0-2.2,1.8-4,4-4H300c2.2,0,4,1.8,4,4v41.5
		C304,109.7,302.2,111.5,300,111.5z"/>
	<g class="st1">
		<path d="M262.9,93.1l5.5-14.3h2l5.9,14.3h-2.2l-1.7-4.3h-6l-1.6,4.3H262.9z M267,87.2h4.9l-1.5-4c-0.5-1.2-0.8-2.2-1-3
			c-0.2,0.9-0.4,1.8-0.8,2.7L267,87.2z"/>
	</g>
	<g class="st1">
		<path d="M281.5,93.1h-1.2v-7.8c-0.3,0.3-0.7,0.6-1.2,0.8s-0.9,0.5-1.3,0.6v-1.2c0.7-0.3,1.3-0.7,1.8-1.2s0.9-0.9,1.1-1.3h0.8V93.1
			z"/>
	</g>
	<g class="st1">
		<path d="M286.8,95.4l-0.2-0.3c1.1-0.9,1.3-1.2,1.3-1.9c0-0.3-0.1-0.4-0.3-0.4c-0.8,0.1-1.2-0.6-0.8-1.1c0.3-0.5,1-0.4,1.4,0
			C289.2,92.8,288.4,94.5,286.8,95.4z"/>
	</g>
	<g class="st1">
		<path d="M294.8,93.1h-1.2v-7.8c-0.3,0.3-0.7,0.6-1.2,0.8s-0.9,0.5-1.3,0.6v-1.2c0.7-0.3,1.3-0.7,1.8-1.2s0.9-0.9,1.1-1.3h0.8V93.1
			z"/>
	</g>
</g>
<g>
	<path class="st0" d="M351.5,112.3H310c-2.2,0-4-1.8-4-4V66.8c0-2.2,1.8-4,4-4h41.5c2.2,0,4,1.8,4,4v41.5
		C355.5,110.4,353.7,112.3,351.5,112.3z"/>
	<g class="st1">
		<path d="M314.4,93.9l5.5-14.3h2l5.9,14.3h-2.2l-1.7-4.3h-6l-1.6,4.3H314.4z M318.5,88h4.9l-1.5-4c-0.5-1.2-0.8-2.2-1-3
			c-0.2,0.9-0.4,1.8-0.8,2.7L318.5,88z"/>
	</g>
	<g class="st1">
		<path d="M333,93.9h-1.2V86c-0.3,0.3-0.7,0.6-1.2,0.8s-0.9,0.5-1.3,0.6v-1.2c0.7-0.3,1.3-0.7,1.8-1.2s0.9-0.9,1.1-1.3h0.8V93.9z"/>
	</g>
	<g class="st1">
		<path d="M338.3,96.2l-0.2-0.3c1.1-0.9,1.3-1.2,1.3-1.9c0-0.3-0.1-0.4-0.3-0.4c-0.8,0.1-1.2-0.6-0.8-1.1c0.3-0.5,1-0.4,1.4,0
			C340.7,93.5,339.9,95.2,338.3,96.2z"/>
	</g>
	<g class="st1">
		<path d="M348.2,92.7v1.2h-6.6c0-0.3,0-0.6,0.1-0.9c0.2-0.5,0.4-0.9,0.8-1.3s0.9-0.9,1.6-1.5c1.1-0.9,1.8-1.6,2.2-2.1
			c0.4-0.5,0.6-1,0.6-1.5c0-0.5-0.2-0.9-0.5-1.2c-0.3-0.3-0.8-0.5-1.4-0.5c-0.6,0-1.1,0.2-1.4,0.5s-0.5,0.8-0.5,1.5l-1.3-0.1
			c0.1-0.9,0.4-1.7,1-2.2c0.6-0.5,1.3-0.7,2.3-0.7c1,0,1.7,0.3,2.3,0.8s0.8,1.2,0.8,2c0,0.4-0.1,0.8-0.2,1.2s-0.4,0.8-0.8,1.2
			s-1,1-1.9,1.8c-0.7,0.6-1.2,1-1.4,1.3c-0.2,0.2-0.4,0.4-0.5,0.7H348.2z"/>
	</g>
</g>
<g>
	<path class="st0" d="M403,111.5h-41.5c-2.2,0-4-1.8-4-4V66c0-2.2,1.8-4,4-4H403c2.2,0,4,1.8,4,4v41.5
		C407,109.7,405.2,111.5,403,111.5z"/>
	<g class="st1">
		<path d="M365.9,93.1l5.5-14.3h2l5.9,14.3h-2.2l-1.7-4.3h-6l-1.6,4.3H365.9z M370,87.2h4.9l-1.5-4c-0.5-1.2-0.8-2.2-1-3
			c-0.2,0.9-0.4,1.8-0.8,2.7L370,87.2z"/>
	</g>
	<g class="st1">
		<path d="M384.5,93.1h-1.2v-7.8c-0.3,0.3-0.7,0.6-1.2,0.8s-0.9,0.5-1.3,0.6v-1.2c0.7-0.3,1.3-0.7,1.8-1.2s0.9-0.9,1.1-1.3h0.8V93.1
			z"/>
	</g>
	<g class="st1">
		<path d="M389.8,95.4l-0.2-0.3c1.1-0.9,1.3-1.2,1.3-1.9c0-0.3-0.1-0.4-0.3-0.4c-0.8,0.1-1.2-0.6-0.8-1.1c0.3-0.5,1-0.4,1.4,0
			C392.2,92.8,391.4,94.5,389.8,95.4z"/>
	</g>
	<g class="st1">
		<path d="M393.2,90.5l1.2-0.2c0.1,0.7,0.4,1.2,0.7,1.5c0.3,0.3,0.8,0.5,1.2,0.5c0.6,0,1.1-0.2,1.5-0.6s0.6-0.9,0.6-1.5
			c0-0.6-0.2-1-0.6-1.4c-0.4-0.4-0.8-0.6-1.4-0.6c-0.2,0-0.5,0-0.9,0.1l0.1-1.1c0.1,0,0.1,0,0.2,0c0.5,0,1-0.1,1.4-0.4
			s0.6-0.7,0.6-1.3c0-0.5-0.2-0.8-0.5-1.1s-0.7-0.4-1.2-0.4c-0.5,0-0.9,0.2-1.2,0.5s-0.5,0.8-0.6,1.4l-1.2-0.2
			c0.2-0.8,0.5-1.5,1-1.9c0.5-0.5,1.2-0.7,2-0.7c0.5,0,1.1,0.1,1.5,0.4c0.5,0.2,0.8,0.6,1.1,1s0.4,0.8,0.4,1.3
			c0,0.4-0.1,0.8-0.3,1.2s-0.6,0.6-1,0.8c0.6,0.1,1.1,0.4,1.4,0.9c0.3,0.4,0.5,1,0.5,1.6c0,0.9-0.3,1.6-1,2.2
			c-0.6,0.6-1.4,0.9-2.4,0.9c-0.9,0-1.6-0.3-2.2-0.8S393.3,91.3,393.2,90.5z"/>
	</g>
</g>
<g>
	<path class="st0" d="M248.5,162.5H207c-2.2,0-4-1.8-4-4V117c0-2.2,1.8-4,4-4h41.5c2.2,0,4,1.8,4,4v41.5
		C252.5,160.7,250.7,162.5,248.5,162.5z"/>
	<g class="st1">
		<path d="M211.4,144.1l5.5-14.3h2l5.9,14.3h-2.2l-1.7-4.3h-6l-1.6,4.3H211.4z M215.5,138.2h4.9l-1.5-4c-0.5-1.2-0.8-2.2-1-3
			c-0.2,0.9-0.4,1.8-0.8,2.7L215.5,138.2z"/>
	</g>
	<g class="st1">
		<path d="M231.8,142.9v1.2h-6.6c0-0.3,0-0.6,0.1-0.9c0.2-0.5,0.4-0.9,0.8-1.3s0.9-0.9,1.6-1.5c1.1-0.9,1.8-1.6,2.2-2.1
			c0.4-0.5,0.6-1,0.6-1.5c0-0.5-0.2-0.9-0.5-1.2c-0.3-0.3-0.8-0.5-1.4-0.5c-0.6,0-1.1,0.2-1.4,0.5s-0.5,0.8-0.5,1.5l-1.3-0.1
			c0.1-0.9,0.4-1.7,1-2.2c0.6-0.5,1.3-0.7,2.3-0.7c1,0,1.7,0.3,2.3,0.8s0.8,1.2,0.8,2c0,0.4-0.1,0.8-0.2,1.2s-0.4,0.8-0.8,1.2
			s-1,1-1.9,1.8c-0.7,0.6-1.2,1-1.4,1.3c-0.2,0.2-0.4,0.4-0.5,0.7H231.8z"/>
	</g>
	<g class="st1">
		<path d="M235.3,146.4l-0.2-0.3c1.1-0.9,1.3-1.2,1.3-1.9c0-0.3-0.1-0.4-0.3-0.4c-0.8,0.1-1.2-0.6-0.8-1.1c0.3-0.5,1-0.4,1.4,0
			C237.7,143.8,236.9,145.5,235.3,146.4z"/>
	</g>
	<g class="st1">
		<path d="M238.7,139.2c0-1.2,0.1-2.1,0.4-2.9c0.2-0.7,0.6-1.3,1.1-1.7s1.1-0.6,1.8-0.6c0.5,0,1,0.1,1.4,0.3c0.4,0.2,0.7,0.5,1,0.9
			c0.3,0.4,0.5,0.9,0.6,1.5c0.2,0.6,0.2,1.4,0.2,2.4c0,1.2-0.1,2.1-0.4,2.8c-0.2,0.7-0.6,1.3-1.1,1.7c-0.5,0.4-1.1,0.6-1.8,0.6
			c-1,0-1.7-0.3-2.3-1C239,142.4,238.7,141.1,238.7,139.2z M240,139.2c0,1.6,0.2,2.7,0.6,3.3c0.4,0.5,0.9,0.8,1.4,0.8s1-0.3,1.4-0.8
			s0.6-1.6,0.6-3.3c0-1.6-0.2-2.7-0.6-3.3s-0.9-0.8-1.4-0.8c-0.6,0-1,0.2-1.4,0.7C240.2,136.4,240,137.5,240,139.2z"/>
	</g>
</g>
<g>
	<path class="st0" d="M299.5,162.5H258c-2.2,0-4-1.8-4-4V117c0-2.2,1.8-4,4-4h41.5c2.2,0,4,1.8,4,4v41.5
		C303.5,160.7,301.7,162.5,299.5,162.5z"/>
	<g class="st1">
		<path d="M262.4,144.1l5.5-14.3h2l5.9,14.3h-2.2l-1.7-4.3h-6l-1.6,4.3H262.4z M266.5,138.2h4.9l-1.5-4c-0.5-1.2-0.8-2.2-1-3
			c-0.2,0.9-0.4,1.8-0.8,2.7L266.5,138.2z"/>
	</g>
	<g class="st1">
		<path d="M282.8,142.9v1.2h-6.6c0-0.3,0-0.6,0.1-0.9c0.2-0.5,0.4-0.9,0.8-1.3s0.9-0.9,1.6-1.5c1.1-0.9,1.8-1.6,2.2-2.1
			c0.4-0.5,0.6-1,0.6-1.5c0-0.5-0.2-0.9-0.5-1.2c-0.3-0.3-0.8-0.5-1.4-0.5c-0.6,0-1.1,0.2-1.4,0.5s-0.5,0.8-0.5,1.5l-1.3-0.1
			c0.1-0.9,0.4-1.7,1-2.2c0.6-0.5,1.3-0.7,2.3-0.7c1,0,1.7,0.3,2.3,0.8s0.8,1.2,0.8,2c0,0.4-0.1,0.8-0.2,1.2s-0.4,0.8-0.8,1.2
			s-1,1-1.9,1.8c-0.7,0.6-1.2,1-1.4,1.3c-0.2,0.2-0.4,0.4-0.5,0.7H282.8z"/>
	</g>
	<g class="st1">
		<path d="M286.3,146.4l-0.2-0.3c1.1-0.9,1.3-1.2,1.3-1.9c0-0.3-0.1-0.4-0.3-0.4c-0.8,0.1-1.2-0.6-0.8-1.1c0.3-0.5,1-0.4,1.4,0
			C288.7,143.8,287.9,145.5,286.3,146.4z"/>
	</g>
	<g class="st1">
		<path d="M294.3,144.1h-1.2v-7.8c-0.3,0.3-0.7,0.6-1.2,0.8s-0.9,0.5-1.3,0.6v-1.2c0.7-0.3,1.3-0.7,1.8-1.2s0.9-0.9,1.1-1.3h0.8
			V144.1z"/>
	</g>
</g>
<g>
	<path class="st0" d="M351,163.3h-41.5c-2.2,0-4-1.8-4-4v-41.5c0-2.2,1.8-4,4-4H351c2.2,0,4,1.8,4,4v41.5
		C355,161.4,353.2,163.3,351,163.3z"/>
	<g class="st1">
		<path d="M313.9,144.9l5.5-14.3h2l5.9,14.3h-2.2l-1.7-4.3h-6l-1.6,4.3H313.9z M318,139h4.9l-1.5-4c-0.5-1.2-0.8-2.2-1-3
			c-0.2,0.9-0.4,1.8-0.8,2.7L318,139z"/>
	</g>
	<g class="st1">
		<path d="M334.3,143.7v1.2h-6.6c0-0.3,0-0.6,0.1-0.9c0.2-0.5,0.4-0.9,0.8-1.3s0.9-0.9,1.6-1.5c1.1-0.9,1.8-1.6,2.2-2.1
			c0.4-0.5,0.6-1,0.6-1.5c0-0.5-0.2-0.9-0.5-1.2c-0.3-0.3-0.8-0.5-1.4-0.5c-0.6,0-1.1,0.2-1.4,0.5s-0.5,0.8-0.5,1.5l-1.3-0.1
			c0.1-0.9,0.4-1.7,1-2.2c0.6-0.5,1.3-0.7,2.3-0.7c1,0,1.7,0.3,2.3,0.8s0.8,1.2,0.8,2c0,0.4-0.1,0.8-0.2,1.2s-0.4,0.8-0.8,1.2
			s-1,1-1.9,1.8c-0.7,0.6-1.2,1-1.4,1.3c-0.2,0.2-0.4,0.4-0.5,0.7H334.3z"/>
	</g>
	<g class="st1">
		<path d="M337.8,147.2l-0.2-0.3c1.1-0.9,1.3-1.2,1.3-1.9c0-0.3-0.1-0.4-0.3-0.4c-0.8,0.1-1.2-0.6-0.8-1.1c0.3-0.5,1-0.4,1.4,0
			C340.2,144.5,339.4,146.2,337.8,147.2z"/>
	</g>
	<g class="st1">
		<path d="M347.7,143.7v1.2H341c0-0.3,0-0.6,0.1-0.9c0.2-0.5,0.4-0.9,0.8-1.3s0.9-0.9,1.6-1.5c1.1-0.9,1.8-1.6,2.2-2.1
			c0.4-0.5,0.6-1,0.6-1.5c0-0.5-0.2-0.9-0.5-1.2c-0.3-0.3-0.8-0.5-1.4-0.5c-0.6,0-1.1,0.2-1.4,0.5s-0.5,0.8-0.5,1.5l-1.3-0.1
			c0.1-0.9,0.4-1.7,1-2.2c0.6-0.5,1.3-0.7,2.3-0.7c1,0,1.7,0.3,2.3,0.8s0.8,1.2,0.8,2c0,0.4-0.1,0.8-0.2,1.2s-0.4,0.8-0.8,1.2
			s-1,1-1.9,1.8c-0.7,0.6-1.2,1-1.4,1.3c-0.2,0.2-0.4,0.4-0.5,0.7H347.7z"/>
	</g>
</g>
<g>
	<path class="st0" d="M402.5,162.5H361c-2.2,0-4-1.8-4-4V117c0-2.2,1.8-4,4-4h41.5c2.2,0,4,1.8,4,4v41.5
		C406.5,160.7,404.7,162.5,402.5,162.5z"/>
	<g class="st1">
		<path d="M365.4,144.1l5.5-14.3h2l5.9,14.3h-2.2l-1.7-4.3h-6l-1.6,4.3H365.4z M369.5,138.2h4.9l-1.5-4c-0.5-1.2-0.8-2.2-1-3
			c-0.2,0.9-0.4,1.8-0.8,2.7L369.5,138.2z"/>
	</g>
	<g class="st1">
		<path d="M385.8,142.9v1.2h-6.6c0-0.3,0-0.6,0.1-0.9c0.2-0.5,0.4-0.9,0.8-1.3s0.9-0.9,1.6-1.5c1.1-0.9,1.8-1.6,2.2-2.1
			c0.4-0.5,0.6-1,0.6-1.5c0-0.5-0.2-0.9-0.5-1.2c-0.3-0.3-0.8-0.5-1.4-0.5c-0.6,0-1.1,0.2-1.4,0.5s-0.5,0.8-0.5,1.5l-1.3-0.1
			c0.1-0.9,0.4-1.7,1-2.2c0.6-0.5,1.3-0.7,2.3-0.7c1,0,1.7,0.3,2.3,0.8s0.8,1.2,0.8,2c0,0.4-0.1,0.8-0.2,1.2s-0.4,0.8-0.8,1.2
			s-1,1-1.9,1.8c-0.7,0.6-1.2,1-1.4,1.3c-0.2,0.2-0.4,0.4-0.5,0.7H385.8z"/>
	</g>
	<g class="st1">
		<path d="M389.3,146.4l-0.2-0.3c1.1-0.9,1.3-1.2,1.3-1.9c0-0.3-0.1-0.4-0.3-0.4c-0.8,0.1-1.2-0.6-0.8-1.1c0.3-0.5,1-0.4,1.4,0
			C391.7,143.8,390.9,145.5,389.3,146.4z"/>
	</g>
	<g class="st1">
		<path d="M392.7,141.5l1.2-0.2c0.1,0.7,0.4,1.2,0.7,1.5c0.3,0.3,0.8,0.5,1.2,0.5c0.6,0,1.1-0.2,1.5-0.6s0.6-0.9,0.6-1.5
			c0-0.6-0.2-1-0.6-1.4c-0.4-0.4-0.8-0.6-1.4-0.6c-0.2,0-0.5,0-0.9,0.1l0.1-1.1c0.1,0,0.1,0,0.2,0c0.5,0,1-0.1,1.4-0.4
			s0.6-0.7,0.6-1.3c0-0.5-0.2-0.8-0.5-1.1s-0.7-0.4-1.2-0.4c-0.5,0-0.9,0.2-1.2,0.5s-0.5,0.8-0.6,1.4l-1.2-0.2
			c0.2-0.8,0.5-1.5,1-1.9c0.5-0.5,1.2-0.7,2-0.7c0.5,0,1.1,0.1,1.5,0.4c0.5,0.2,0.8,0.6,1.1,1s0.4,0.8,0.4,1.3
			c0,0.4-0.1,0.8-0.3,1.2s-0.6,0.6-1,0.8c0.6,0.1,1.1,0.4,1.4,0.9c0.3,0.4,0.5,1,0.5,1.6c0,0.9-0.3,1.6-1,2.2
			c-0.6,0.6-1.4,0.9-2.4,0.9c-0.9,0-1.6-0.3-2.2-0.8S392.8,142.3,392.7,141.5z"/>
	</g>
</g>
<g>
	<path class="st0" d="M402.5,213.5H361c-2.2,0-4-1.8-4-4V168c0-2.2,1.8-4,4-4h41.5c2.2,0,4,1.8,4,4v41.5
		C406.5,211.7,404.7,213.5,402.5,213.5z"/>
	<g class="st1">
		<path d="M365.4,195.1l5.5-14.3h2l5.9,14.3h-2.2l-1.7-4.3h-6l-1.6,4.3H365.4z M369.5,189.2h4.9l-1.5-4c-0.5-1.2-0.8-2.2-1-3
			c-0.2,0.9-0.4,1.8-0.8,2.7L369.5,189.2z"/>
	</g>
	<g class="st1">
		<path d="M379.3,192.5l1.2-0.2c0.1,0.7,0.4,1.2,0.7,1.5c0.3,0.3,0.8,0.5,1.2,0.5c0.6,0,1.1-0.2,1.5-0.6s0.6-0.9,0.6-1.5
			c0-0.6-0.2-1-0.6-1.4c-0.4-0.4-0.8-0.6-1.4-0.6c-0.2,0-0.5,0-0.9,0.1l0.1-1.1c0.1,0,0.1,0,0.2,0c0.5,0,1-0.1,1.4-0.4
			s0.6-0.7,0.6-1.3c0-0.5-0.2-0.8-0.5-1.1s-0.7-0.4-1.2-0.4c-0.5,0-0.9,0.2-1.2,0.5s-0.5,0.8-0.6,1.4l-1.2-0.2
			c0.2-0.8,0.5-1.5,1-1.9c0.5-0.5,1.2-0.7,2-0.7c0.5,0,1.1,0.1,1.5,0.4c0.5,0.2,0.8,0.6,1.1,1s0.4,0.8,0.4,1.3
			c0,0.4-0.1,0.8-0.3,1.2s-0.6,0.6-1,0.8c0.6,0.1,1.1,0.4,1.4,0.9c0.3,0.4,0.5,1,0.5,1.6c0,0.9-0.3,1.6-1,2.2
			c-0.6,0.6-1.4,0.9-2.4,0.9c-0.9,0-1.6-0.3-2.2-0.8S379.4,193.3,379.3,192.5z"/>
	</g>
	<g class="st1">
		<path d="M389.3,197.4l-0.2-0.3c1.1-0.9,1.3-1.2,1.3-1.9c0-0.3-0.1-0.4-0.3-0.4c-0.8,0.1-1.2-0.6-0.8-1.1c0.3-0.5,1-0.4,1.4,0
			C391.7,194.8,390.9,196.5,389.3,197.4z"/>
	</g>
	<g class="st1">
		<path d="M392.7,192.5l1.2-0.2c0.1,0.7,0.4,1.2,0.7,1.5c0.3,0.3,0.8,0.5,1.2,0.5c0.6,0,1.1-0.2,1.5-0.6s0.6-0.9,0.6-1.5
			c0-0.6-0.2-1-0.6-1.4c-0.4-0.4-0.8-0.6-1.4-0.6c-0.2,0-0.5,0-0.9,0.1l0.1-1.1c0.1,0,0.1,0,0.2,0c0.5,0,1-0.1,1.4-0.4
			s0.6-0.7,0.6-1.3c0-0.5-0.2-0.8-0.5-1.1s-0.7-0.4-1.2-0.4c-0.5,0-0.9,0.2-1.2,0.5s-0.5,0.8-0.6,1.4l-1.2-0.2
			c0.2-0.8,0.5-1.5,1-1.9c0.5-0.5,1.2-0.7,2-0.7c0.5,0,1.1,0.1,1.5,0.4c0.5,0.2,0.8,0.6,1.1,1s0.4,0.8,0.4,1.3
			c0,0.4-0.1,0.8-0.3,1.2s-0.6,0.6-1,0.8c0.6,0.1,1.1,0.4,1.4,0.9c0.3,0.4,0.5,1,0.5,1.6c0,0.9-0.3,1.6-1,2.2
			c-0.6,0.6-1.4,0.9-2.4,0.9c-0.9,0-1.6-0.3-2.2-0.8S392.8,193.3,392.7,192.5z"/>
	</g>
</g>
<g>
	<path class="st0" d="M351,214.3h-41.5c-2.2,0-4-1.8-4-4v-41.5c0-2.2,1.8-4,4-4H351c2.2,0,4,1.8,4,4v41.5
		C355,212.4,353.2,214.3,351,214.3z"/>
	<g class="st1">
		<path d="M313.9,195.9l5.5-14.3h2l5.9,14.3h-2.2l-1.7-4.3h-6l-1.6,4.3H313.9z M318,190h4.9l-1.5-4c-0.5-1.2-0.8-2.2-1-3
			c-0.2,0.9-0.4,1.8-0.8,2.7L318,190z"/>
	</g>
	<g class="st1">
		<path d="M327.8,193.2l1.2-0.2c0.1,0.7,0.4,1.2,0.7,1.5c0.3,0.3,0.8,0.5,1.2,0.5c0.6,0,1.1-0.2,1.5-0.6s0.6-0.9,0.6-1.5
			c0-0.6-0.2-1-0.6-1.4c-0.4-0.4-0.8-0.6-1.4-0.6c-0.2,0-0.5,0-0.9,0.1l0.1-1.1c0.1,0,0.1,0,0.2,0c0.5,0,1-0.1,1.4-0.4
			s0.6-0.7,0.6-1.3c0-0.5-0.2-0.8-0.5-1.1s-0.7-0.4-1.2-0.4c-0.5,0-0.9,0.2-1.2,0.5s-0.5,0.8-0.6,1.4l-1.2-0.2
			c0.2-0.8,0.5-1.5,1-1.9c0.5-0.5,1.2-0.7,2-0.7c0.5,0,1.1,0.1,1.5,0.4c0.5,0.2,0.8,0.6,1.1,1s0.4,0.8,0.4,1.3
			c0,0.4-0.1,0.8-0.3,1.2s-0.6,0.6-1,0.8c0.6,0.1,1.1,0.4,1.4,0.9c0.3,0.4,0.5,1,0.5,1.6c0,0.9-0.3,1.6-1,2.2
			c-0.6,0.6-1.4,0.9-2.4,0.9c-0.9,0-1.6-0.3-2.2-0.8S327.9,194.1,327.8,193.2z"/>
	</g>
	<g class="st1">
		<path d="M337.8,198.2l-0.2-0.3c1.1-0.9,1.3-1.2,1.3-1.9c0-0.3-0.1-0.4-0.3-0.4c-0.8,0.1-1.2-0.6-0.8-1.1c0.3-0.5,1-0.4,1.4,0
			C340.2,195.5,339.4,197.2,337.8,198.2z"/>
	</g>
	<g class="st1">
		<path d="M347.7,194.7v1.2H341c0-0.3,0-0.6,0.1-0.9c0.2-0.5,0.4-0.9,0.8-1.3s0.9-0.9,1.6-1.5c1.1-0.9,1.8-1.6,2.2-2.1
			c0.4-0.5,0.6-1,0.6-1.5c0-0.5-0.2-0.9-0.5-1.2c-0.3-0.3-0.8-0.5-1.4-0.5c-0.6,0-1.1,0.2-1.4,0.5s-0.5,0.8-0.5,1.5l-1.3-0.1
			c0.1-0.9,0.4-1.7,1-2.2c0.6-0.5,1.3-0.7,2.3-0.7c1,0,1.7,0.3,2.3,0.8s0.8,1.2,0.8,2c0,0.4-0.1,0.8-0.2,1.2s-0.4,0.8-0.8,1.2
			s-1,1-1.9,1.8c-0.7,0.6-1.2,1-1.4,1.3c-0.2,0.2-0.4,0.4-0.5,0.7H347.7z"/>
	</g>
</g>
<g>
	<path class="st0" d="M299.5,213.5H258c-2.2,0-4-1.8-4-4V168c0-2.2,1.8-4,4-4h41.5c2.2,0,4,1.8,4,4v41.5
		C303.5,211.7,301.7,213.5,299.5,213.5z"/>
	<g class="st1">
		<path d="M262.4,195.1l5.5-14.3h2l5.9,14.3h-2.2l-1.7-4.3h-6l-1.6,4.3H262.4z M266.5,189.2h4.9l-1.5-4c-0.5-1.2-0.8-2.2-1-3
			c-0.2,0.9-0.4,1.8-0.8,2.7L266.5,189.2z"/>
	</g>
	<g class="st1">
		<path d="M276.3,192.5l1.2-0.2c0.1,0.7,0.4,1.2,0.7,1.5c0.3,0.3,0.8,0.5,1.2,0.5c0.6,0,1.1-0.2,1.5-0.6s0.6-0.9,0.6-1.5
			c0-0.6-0.2-1-0.6-1.4c-0.4-0.4-0.8-0.6-1.4-0.6c-0.2,0-0.5,0-0.9,0.1l0.1-1.1c0.1,0,0.1,0,0.2,0c0.5,0,1-0.1,1.4-0.4
			s0.6-0.7,0.6-1.3c0-0.5-0.2-0.8-0.5-1.1s-0.7-0.4-1.2-0.4c-0.5,0-0.9,0.2-1.2,0.5s-0.5,0.8-0.6,1.4l-1.2-0.2
			c0.2-0.8,0.5-1.5,1-1.9c0.5-0.5,1.2-0.7,2-0.7c0.5,0,1.1,0.1,1.5,0.4c0.5,0.2,0.8,0.6,1.1,1s0.4,0.8,0.4,1.3
			c0,0.4-0.1,0.8-0.3,1.2s-0.6,0.6-1,0.8c0.6,0.1,1.1,0.4,1.4,0.9c0.3,0.4,0.5,1,0.5,1.6c0,0.9-0.3,1.6-1,2.2
			c-0.6,0.6-1.4,0.9-2.4,0.9c-0.9,0-1.6-0.3-2.2-0.8S276.4,193.3,276.3,192.5z"/>
	</g>
	<g class="st1">
		<path d="M286.3,197.4l-0.2-0.3c1.1-0.9,1.3-1.2,1.3-1.9c0-0.3-0.1-0.4-0.3-0.4c-0.8,0.1-1.2-0.6-0.8-1.1c0.3-0.5,1-0.4,1.4,0
			C288.7,194.8,287.9,196.5,286.3,197.4z"/>
	</g>
	<g class="st1">
		<path d="M294.3,195.1h-1.2v-7.8c-0.3,0.3-0.7,0.6-1.2,0.8s-0.9,0.5-1.3,0.6v-1.2c0.7-0.3,1.3-0.7,1.8-1.2s0.9-0.9,1.1-1.3h0.8
			V195.1z"/>
	</g>
</g>
<g>
	<path class="st0" d="M248.5,213.5H207c-2.2,0-4-1.8-4-4V168c0-2.2,1.8-4,4-4h41.5c2.2,0,4,1.8,4,4v41.5
		C252.5,211.7,250.7,213.5,248.5,213.5z"/>
	<g class="st1">
		<path d="M211.4,195.1l5.5-14.3h2l5.9,14.3h-2.2l-1.7-4.3h-6l-1.6,4.3H211.4z M215.5,189.2h4.9l-1.5-4c-0.5-1.2-0.8-2.2-1-3
			c-0.2,0.9-0.4,1.8-0.8,2.7L215.5,189.2z"/>
	</g>
	<g class="st1">
		<path d="M225.3,192.5l1.2-0.2c0.1,0.7,0.4,1.2,0.7,1.5c0.3,0.3,0.8,0.5,1.2,0.5c0.6,0,1.1-0.2,1.5-0.6s0.6-0.9,0.6-1.5
			c0-0.6-0.2-1-0.6-1.4c-0.4-0.4-0.8-0.6-1.4-0.6c-0.2,0-0.5,0-0.9,0.1l0.1-1.1c0.1,0,0.1,0,0.2,0c0.5,0,1-0.1,1.4-0.4
			s0.6-0.7,0.6-1.3c0-0.5-0.2-0.8-0.5-1.1s-0.7-0.4-1.2-0.4c-0.5,0-0.9,0.2-1.2,0.5s-0.5,0.8-0.6,1.4l-1.2-0.2
			c0.2-0.8,0.5-1.5,1-1.9c0.5-0.5,1.2-0.7,2-0.7c0.5,0,1.1,0.1,1.5,0.4c0.5,0.2,0.8,0.6,1.1,1s0.4,0.8,0.4,1.3
			c0,0.4-0.1,0.8-0.3,1.2s-0.6,0.6-1,0.8c0.6,0.1,1.1,0.4,1.4,0.9c0.3,0.4,0.5,1,0.5,1.6c0,0.9-0.3,1.6-1,2.2
			c-0.6,0.6-1.4,0.9-2.4,0.9c-0.9,0-1.6-0.3-2.2-0.8S225.4,193.3,225.3,192.5z"/>
	</g>
	<g class="st1">
		<path d="M235.3,197.4l-0.2-0.3c1.1-0.9,1.3-1.2,1.3-1.9c0-0.3-0.1-0.4-0.3-0.4c-0.8,0.1-1.2-0.6-0.8-1.1c0.3-0.5,1-0.4,1.4,0
			C237.7,194.8,236.9,196.5,235.3,197.4z"/>
	</g>
	<g class="st1">
		<path d="M238.7,190.2c0-1.2,0.1-2.1,0.4-2.9c0.2-0.7,0.6-1.3,1.1-1.7s1.1-0.6,1.8-0.6c0.5,0,1,0.1,1.4,0.3c0.4,0.2,0.7,0.5,1,0.9
			c0.3,0.4,0.5,0.9,0.6,1.5c0.2,0.6,0.2,1.4,0.2,2.4c0,1.2-0.1,2.1-0.4,2.8c-0.2,0.7-0.6,1.3-1.1,1.7c-0.5,0.4-1.1,0.6-1.8,0.6
			c-1,0-1.7-0.3-2.3-1C239,193.4,238.7,192.1,238.7,190.2z M240,190.2c0,1.6,0.2,2.7,0.6,3.3c0.4,0.5,0.9,0.8,1.4,0.8s1-0.3,1.4-0.8
			s0.6-1.6,0.6-3.3c0-1.6-0.2-2.7-0.6-3.3s-0.9-0.8-1.4-0.8c-0.6,0-1,0.2-1.4,0.7C240.2,187.4,240,188.5,240,190.2z"/>
	</g>
</g>
<g class="st1">
	<path d="M278.5,242.4v-14.3h9.7v1.7h-7.8v4.4h6.7v1.7h-6.7v6.5H278.5z"/>
	<path d="M290.6,242.4v-14.3h5.4c1,0,1.7,0,2.2,0.1c0.7,0.1,1.3,0.3,1.8,0.7s0.9,0.8,1.1,1.4s0.4,1.2,0.4,2c0,1.2-0.4,2.2-1.2,3.1
		s-2.2,1.3-4.2,1.3h-3.7v5.8H290.6z M292.5,234.9h3.7c1.2,0,2.1-0.2,2.6-0.7s0.8-1.1,0.8-1.9c0-0.6-0.2-1.1-0.5-1.5
		s-0.7-0.7-1.2-0.8c-0.3-0.1-0.9-0.1-1.8-0.1h-3.7V234.9z"/>
	<path d="M309.9,242.4h-1.8v-11.2c-0.4,0.4-1,0.8-1.7,1.2s-1.3,0.7-1.9,0.9v-1.7c1-0.5,1.8-1,2.6-1.7s1.3-1.3,1.6-1.9h1.1V242.4z"/>
	<path d="M323.5,231.6l-1.7,0.1c-0.2-0.7-0.4-1.2-0.7-1.5c-0.5-0.5-1.1-0.8-1.8-0.8c-0.6,0-1.1,0.2-1.5,0.5c-0.6,0.4-1,1-1.3,1.8
		s-0.5,1.9-0.5,3.3c0.4-0.6,0.9-1.1,1.6-1.4s1.3-0.5,1.9-0.5c1.2,0,2.2,0.4,3,1.3s1.2,2,1.2,3.3c0,0.9-0.2,1.7-0.6,2.5
		s-0.9,1.4-1.6,1.8s-1.4,0.6-2.3,0.6c-1.5,0-2.7-0.5-3.6-1.6s-1.4-2.9-1.4-5.3c0-2.8,0.5-4.8,1.5-6c0.9-1.1,2.1-1.6,3.6-1.6
		c1.1,0,2,0.3,2.8,0.9S323.3,230.4,323.5,231.6z M316.3,237.7c0,0.6,0.1,1.2,0.4,1.7s0.6,1,1.1,1.3s0.9,0.4,1.5,0.4
		c0.7,0,1.4-0.3,1.9-0.9s0.8-1.4,0.8-2.4c0-1-0.3-1.8-0.8-2.3s-1.2-0.9-2-0.9c-0.8,0-1.5,0.3-2,0.9S316.3,236.8,316.3,237.7z"/>
</g>
<g class="st1">
	<path d="M548.7,242.4v-14.3h9.7v1.7h-7.8v4.4h6.7v1.7h-6.7v6.5H548.7z"/>
	<path d="M560.8,242.4v-14.3h5.4c1,0,1.7,0,2.2,0.1c0.7,0.1,1.3,0.3,1.8,0.7c0.5,0.3,0.9,0.8,1.1,1.4c0.3,0.6,0.4,1.2,0.4,2
		c0,1.2-0.4,2.2-1.2,3.1c-0.8,0.8-2.2,1.3-4.2,1.3h-3.7v5.8H560.8z M562.7,234.9h3.7c1.2,0,2.1-0.2,2.6-0.7c0.5-0.5,0.8-1.1,0.8-1.9
		c0-0.6-0.2-1.1-0.5-1.5s-0.7-0.7-1.2-0.8c-0.3-0.1-0.9-0.1-1.8-0.1h-3.7V234.9z"/>
	<path d="M580,242.4h-1.8v-11.2c-0.4,0.4-1,0.8-1.7,1.2c-0.7,0.4-1.3,0.7-1.9,0.9v-1.7c1-0.5,1.8-1,2.6-1.7c0.7-0.7,1.3-1.3,1.6-1.9
		h1.1V242.4z"/>
	<path d="M593.7,231.6l-1.7,0.1c-0.2-0.7-0.4-1.2-0.7-1.5c-0.5-0.5-1.1-0.8-1.8-0.8c-0.6,0-1.1,0.2-1.5,0.5c-0.6,0.4-1,1-1.3,1.8
		c-0.3,0.8-0.5,1.9-0.5,3.3c0.4-0.6,0.9-1.1,1.6-1.4c0.6-0.3,1.3-0.5,1.9-0.5c1.2,0,2.2,0.4,3,1.3c0.8,0.9,1.2,2,1.2,3.3
		c0,0.9-0.2,1.7-0.6,2.5c-0.4,0.8-0.9,1.4-1.6,1.8c-0.7,0.4-1.4,0.6-2.3,0.6c-1.5,0-2.7-0.5-3.6-1.6c-0.9-1.1-1.4-2.9-1.4-5.3
		c0-2.8,0.5-4.8,1.5-6c0.9-1.1,2.1-1.6,3.6-1.6c1.1,0,2,0.3,2.8,0.9C593.1,229.6,593.5,230.4,593.7,231.6z M586.5,237.7
		c0,0.6,0.1,1.2,0.4,1.7c0.3,0.6,0.6,1,1.1,1.3c0.5,0.3,0.9,0.4,1.5,0.4c0.7,0,1.4-0.3,1.9-0.9c0.5-0.6,0.8-1.4,0.8-2.4
		c0-1-0.3-1.8-0.8-2.3s-1.2-0.9-2-0.9c-0.8,0-1.5,0.3-2,0.9C586.8,236.1,586.5,236.8,586.5,237.7z"/>
</g>
<g class="st1">
	<path d="M808.5,241.4v-14.3h9.7v1.7h-7.8v4.4h6.7v1.7h-6.7v6.5H808.5z"/>
	<path d="M820.7,241.4v-14.3h5.4c1,0,1.7,0,2.2,0.1c0.7,0.1,1.3,0.3,1.8,0.7c0.5,0.3,0.9,0.8,1.1,1.4c0.3,0.6,0.4,1.2,0.4,2
		c0,1.2-0.4,2.2-1.2,3.1c-0.8,0.8-2.2,1.3-4.2,1.3h-3.7v5.8H820.7z M822.5,233.9h3.7c1.2,0,2.1-0.2,2.6-0.7c0.5-0.5,0.8-1.1,0.8-1.9
		c0-0.6-0.2-1.1-0.5-1.5s-0.7-0.7-1.2-0.8c-0.3-0.1-0.9-0.1-1.8-0.1h-3.7V233.9z"/>
	<path d="M839.9,241.4h-1.8v-11.2c-0.4,0.4-1,0.8-1.7,1.2c-0.7,0.4-1.3,0.7-1.9,0.9v-1.7c1-0.5,1.8-1,2.6-1.7
		c0.7-0.7,1.3-1.3,1.6-1.9h1.1V241.4z"/>
	<path d="M853.5,230.6l-1.7,0.1c-0.2-0.7-0.4-1.2-0.7-1.5c-0.5-0.5-1.1-0.8-1.8-0.8c-0.6,0-1.1,0.2-1.5,0.5c-0.6,0.4-1,1-1.3,1.8
		c-0.3,0.8-0.5,1.9-0.5,3.3c0.4-0.6,0.9-1.1,1.6-1.4c0.6-0.3,1.3-0.5,1.9-0.5c1.2,0,2.2,0.4,3,1.3c0.8,0.9,1.2,2,1.2,3.3
		c0,0.9-0.2,1.7-0.6,2.5c-0.4,0.8-0.9,1.4-1.6,1.8c-0.7,0.4-1.4,0.6-2.3,0.6c-1.5,0-2.7-0.5-3.6-1.6c-0.9-1.1-1.4-2.9-1.4-5.3
		c0-2.8,0.5-4.8,1.5-6c0.9-1.1,2.1-1.6,3.6-1.6c1.1,0,2,0.3,2.8,0.9C852.9,228.6,853.4,229.4,853.5,230.6z M846.3,236.7
		c0,0.6,0.1,1.2,0.4,1.7c0.3,0.6,0.6,1,1.1,1.3c0.5,0.3,0.9,0.4,1.5,0.4c0.7,0,1.4-0.3,1.9-0.9c0.5-0.6,0.8-1.4,0.8-2.4
		c0-1-0.3-1.8-0.8-2.3s-1.2-0.9-2-0.9c-0.8,0-1.5,0.3-2,0.9C846.6,235.1,846.3,235.8,846.3,236.7z"/>
	<path d="M861.2,234.4c0-2.4,0.6-4.2,1.9-5.6c1.3-1.3,2.9-2,4.9-2c1.3,0,2.5,0.3,3.6,0.9c1.1,0.6,1.9,1.5,2.4,2.6s0.8,2.4,0.8,3.8
		c0,1.5-0.3,2.8-0.9,3.9s-1.4,2-2.5,2.6s-2.2,0.9-3.5,0.9c-1.3,0-2.6-0.3-3.6-1c-1.1-0.7-1.9-1.5-2.4-2.7S861.2,235.7,861.2,234.4z
		 M863.2,234.4c0,1.7,0.5,3.1,1.4,4.1s2.1,1.5,3.5,1.5c1.4,0,2.6-0.5,3.5-1.5c0.9-1,1.4-2.4,1.4-4.3c0-1.2-0.2-2.2-0.6-3.1
		c-0.4-0.9-1-1.5-1.7-2c-0.8-0.5-1.6-0.7-2.6-0.7c-1.3,0-2.5,0.5-3.5,1.4S863.2,232.3,863.2,234.4z"/>
	<path d="M877.4,241.4v-14.3h6.3c1.3,0,2.2,0.1,2.9,0.4s1.2,0.7,1.6,1.4c0.4,0.7,0.6,1.4,0.6,2.2c0,1-0.3,1.9-1,2.6
		c-0.7,0.7-1.7,1.1-3,1.3c0.5,0.2,0.9,0.5,1.1,0.7c0.6,0.5,1.1,1.1,1.6,1.9l2.5,3.9h-2.4l-1.9-3c-0.6-0.9-1-1.5-1.4-2
		c-0.4-0.5-0.7-0.8-1-1s-0.6-0.3-0.9-0.4c-0.2,0-0.6-0.1-1.1-0.1h-2.2v6.4H877.4z M879.3,233.4h4.1c0.9,0,1.5-0.1,2-0.3
		s0.9-0.5,1.1-0.9s0.4-0.8,0.4-1.3c0-0.7-0.2-1.2-0.7-1.7c-0.5-0.4-1.3-0.7-2.3-0.7h-4.5V233.4z"/>
	<path d="M897.4,241.4v-14.3h9.7v1.7h-7.8v4.4h6.7v1.7h-6.7v6.5H897.4z"/>
	<path d="M909.6,241.4v-14.3h5.4c1,0,1.7,0,2.2,0.1c0.7,0.1,1.3,0.3,1.8,0.7c0.5,0.3,0.9,0.8,1.1,1.4c0.3,0.6,0.4,1.2,0.4,2
		c0,1.2-0.4,2.2-1.2,3.1c-0.8,0.8-2.2,1.3-4.2,1.3h-3.7v5.8H909.6z M911.5,233.9h3.7c1.2,0,2.1-0.2,2.6-0.7c0.5-0.5,0.8-1.1,0.8-1.9
		c0-0.6-0.2-1.1-0.5-1.5s-0.7-0.7-1.2-0.8c-0.3-0.1-0.9-0.1-1.8-0.1h-3.7V233.9z"/>
	<path d="M922.2,237.6l1.8-0.2c0.2,1,0.5,1.7,1,2.2c0.5,0.4,1.1,0.7,1.8,0.7c0.8,0,1.5-0.3,2.1-0.9c0.6-0.6,0.9-1.3,0.9-2.1
		c0-0.8-0.3-1.5-0.8-2s-1.2-0.8-2-0.8c-0.3,0-0.7,0.1-1.2,0.2l0.2-1.5c0.1,0,0.2,0,0.3,0c0.7,0,1.4-0.2,2-0.6c0.6-0.4,0.9-1,0.9-1.8
		c0-0.6-0.2-1.2-0.7-1.6c-0.4-0.4-1-0.6-1.7-0.6c-0.7,0-1.3,0.2-1.7,0.6c-0.5,0.4-0.7,1.1-0.9,1.9l-1.8-0.3c0.2-1.2,0.7-2.1,1.5-2.7
		s1.7-1,2.8-1c0.8,0,1.5,0.2,2.2,0.5c0.7,0.3,1.2,0.8,1.5,1.4c0.3,0.6,0.5,1.2,0.5,1.8c0,0.6-0.2,1.2-0.5,1.7s-0.8,0.9-1.5,1.2
		c0.8,0.2,1.5,0.6,2,1.2s0.7,1.4,0.7,2.3c0,1.3-0.5,2.3-1.4,3.2c-0.9,0.9-2.1,1.3-3.5,1.3c-1.3,0-2.3-0.4-3.1-1.1
		S922.3,238.8,922.2,237.6z"/>
	<path d="M942.6,239.7v1.7h-9.5c0-0.4,0.1-0.8,0.2-1.2c0.2-0.6,0.6-1.3,1.2-1.9c0.5-0.6,1.3-1.3,2.3-2.2c1.6-1.3,2.6-2.3,3.2-3
		s0.8-1.5,0.8-2.1c0-0.7-0.2-1.3-0.7-1.8s-1.1-0.7-1.9-0.7c-0.8,0-1.5,0.3-2,0.8s-0.8,1.2-0.8,2.1l-1.8-0.2c0.1-1.3,0.6-2.4,1.4-3.1
		c0.8-0.7,1.9-1.1,3.3-1.1c1.4,0,2.5,0.4,3.3,1.1s1.2,1.7,1.2,2.8c0,0.6-0.1,1.1-0.4,1.7s-0.6,1.1-1.2,1.7c-0.5,0.6-1.4,1.5-2.7,2.5
		c-1.1,0.9-1.7,1.5-2,1.8c-0.3,0.3-0.5,0.6-0.7,1H942.6z"/>
</g>
<g class="st1">
	<path d="M19.6,241.4v-14.3h9.7v1.7h-7.8v4.4h6.7v1.7h-6.7v6.5H19.6z"/>
	<path d="M31.8,241.4v-14.3h5.4c1,0,1.7,0,2.2,0.1c0.7,0.1,1.3,0.3,1.8,0.7s0.9,0.8,1.1,1.4s0.4,1.2,0.4,2c0,1.2-0.4,2.2-1.2,3.1
		s-2.2,1.3-4.2,1.3h-3.7v5.8H31.8z M33.7,233.9h3.7c1.2,0,2.1-0.2,2.6-0.7s0.8-1.1,0.8-1.9c0-0.6-0.2-1.1-0.5-1.5s-0.7-0.7-1.2-0.8
		c-0.3-0.1-0.9-0.1-1.8-0.1h-3.7V233.9z"/>
	<path d="M51,241.4h-1.8v-11.2c-0.4,0.4-1,0.8-1.7,1.2s-1.3,0.7-1.9,0.9v-1.7c1-0.5,1.8-1,2.6-1.7s1.3-1.3,1.6-1.9H51V241.4z"/>
	<path d="M64.6,230.6l-1.7,0.1c-0.2-0.7-0.4-1.2-0.7-1.5c-0.5-0.5-1.1-0.8-1.8-0.8c-0.6,0-1.1,0.2-1.5,0.5c-0.6,0.4-1,1-1.3,1.8
		s-0.5,1.9-0.5,3.3c0.4-0.6,0.9-1.1,1.6-1.4s1.3-0.5,1.9-0.5c1.2,0,2.2,0.4,3,1.3s1.2,2,1.2,3.3c0,0.9-0.2,1.7-0.6,2.5
		s-0.9,1.4-1.6,1.8s-1.4,0.6-2.3,0.6c-1.5,0-2.7-0.5-3.6-1.6s-1.4-2.9-1.4-5.3c0-2.8,0.5-4.8,1.5-6c0.9-1.1,2.1-1.6,3.6-1.6
		c1.1,0,2,0.3,2.8,0.9S64.5,229.4,64.6,230.6z M57.5,236.7c0,0.6,0.1,1.2,0.4,1.7s0.6,1,1.1,1.3s0.9,0.4,1.5,0.4
		c0.7,0,1.4-0.3,1.9-0.9s0.8-1.4,0.8-2.4c0-1-0.3-1.8-0.8-2.3s-1.2-0.9-2-0.9c-0.8,0-1.5,0.3-2,0.9S57.5,235.8,57.5,236.7z"/>
	<path d="M72,236.2c0-1.9,0.5-3.3,1.6-4.3c0.9-0.8,2-1.2,3.3-1.2c1.4,0,2.6,0.5,3.5,1.4s1.4,2.2,1.4,3.9c0,1.3-0.2,2.4-0.6,3.1
		s-1,1.4-1.7,1.8s-1.6,0.6-2.5,0.6c-1.5,0-2.6-0.5-3.5-1.4S72,237.9,72,236.2z M73.8,236.2c0,1.3,0.3,2.3,0.9,3s1.3,1,2.2,1
		c0.9,0,1.6-0.3,2.2-1s0.9-1.7,0.9-3c0-1.3-0.3-2.3-0.9-2.9s-1.3-1-2.2-1c-0.9,0-1.6,0.3-2.2,1S73.8,234.9,73.8,236.2z"/>
	<path d="M83.8,241.4V231h1.6v1.6c0.4-0.7,0.8-1.2,1.1-1.5s0.7-0.4,1.1-0.4c0.6,0,1.2,0.2,1.8,0.6l-0.6,1.6
		c-0.4-0.3-0.9-0.4-1.3-0.4c-0.4,0-0.7,0.1-1,0.3s-0.5,0.6-0.7,1c-0.2,0.6-0.3,1.3-0.3,2.1v5.4H83.8z"/>
	<path d="M96.3,241.4v-14.3h9.7v1.7h-7.8v4.4h6.7v1.7h-6.7v6.5H96.3z"/>
	<path d="M108.5,241.4v-14.3h5.4c1,0,1.7,0,2.2,0.1c0.7,0.1,1.3,0.3,1.8,0.7s0.9,0.8,1.1,1.4s0.4,1.2,0.4,2c0,1.2-0.4,2.2-1.2,3.1
		s-2.2,1.3-4.2,1.3h-3.7v5.8H108.5z M110.4,233.9h3.7c1.2,0,2.1-0.2,2.6-0.7s0.8-1.1,0.8-1.9c0-0.6-0.2-1.1-0.5-1.5
		s-0.7-0.7-1.2-0.8c-0.3-0.1-0.9-0.1-1.8-0.1h-3.7V233.9z"/>
	<path d="M121.1,237.6l1.8-0.2c0.2,1,0.5,1.7,1,2.2s1.1,0.7,1.8,0.7c0.8,0,1.5-0.3,2.1-0.9s0.9-1.3,0.9-2.1c0-0.8-0.3-1.5-0.8-2
		s-1.2-0.8-2-0.8c-0.3,0-0.7,0.1-1.2,0.2l0.2-1.5c0.1,0,0.2,0,0.3,0c0.7,0,1.4-0.2,2-0.6s0.9-1,0.9-1.8c0-0.6-0.2-1.2-0.7-1.6
		s-1-0.6-1.7-0.6c-0.7,0-1.3,0.2-1.7,0.6s-0.7,1.1-0.9,1.9l-1.8-0.3c0.2-1.2,0.7-2.1,1.5-2.7s1.7-1,2.8-1c0.8,0,1.5,0.2,2.2,0.5
		s1.2,0.8,1.5,1.4s0.5,1.2,0.5,1.8c0,0.6-0.2,1.2-0.5,1.7s-0.8,0.9-1.5,1.2c0.8,0.2,1.5,0.6,2,1.2s0.7,1.4,0.7,2.3
		c0,1.3-0.5,2.3-1.4,3.2s-2.1,1.3-3.5,1.3c-1.3,0-2.3-0.4-3.1-1.1S121.2,238.8,121.1,237.6z"/>
	<path d="M141.4,239.7v1.7H132c0-0.4,0.1-0.8,0.2-1.2c0.2-0.6,0.6-1.3,1.2-1.9s1.3-1.3,2.3-2.2c1.6-1.3,2.6-2.3,3.2-3
		s0.8-1.5,0.8-2.1c0-0.7-0.2-1.3-0.7-1.8s-1.1-0.7-1.9-0.7c-0.8,0-1.5,0.3-2,0.8s-0.8,1.2-0.8,2.1l-1.8-0.2c0.1-1.3,0.6-2.4,1.4-3.1
		s1.9-1.1,3.3-1.1c1.4,0,2.5,0.4,3.3,1.1s1.2,1.7,1.2,2.8c0,0.6-0.1,1.1-0.4,1.7s-0.6,1.1-1.2,1.7s-1.4,1.5-2.7,2.5
		c-1.1,0.9-1.7,1.5-2,1.8s-0.5,0.6-0.7,1H141.4z"/>
</g>
<g class="st1">
	<path d="M59.8,135V83.5h17.8c4,0,7.1,0.2,9.2,0.7c3,0.7,5.5,1.9,7.6,3.7c2.7,2.3,4.8,5.2,6.1,8.8c1.3,3.6,2,7.7,2,12.3
		c0,3.9-0.5,7.4-1.4,10.4s-2.1,5.5-3.5,7.5c-1.4,2-3,3.5-4.7,4.7c-1.7,1.1-3.8,2-6.2,2.6c-2.4,0.6-5.2,0.9-8.3,0.9H59.8z
		 M66.6,128.9h11c3.4,0,6.1-0.3,8-0.9s3.5-1.5,4.6-2.7c1.6-1.6,2.9-3.8,3.8-6.5c0.9-2.7,1.4-6,1.4-9.9c0-5.4-0.9-9.5-2.7-12.4
		c-1.8-2.9-3.9-4.8-6.5-5.8c-1.8-0.7-4.8-1.1-8.8-1.1H66.6V128.9z"/>
</g>
<g class="st1">
	<path d="M133.5,107.9v-7.6h30v7.6H133.5z M133.5,120.9v-7.6h30v7.6H133.5z"/>
</g>
<g>
	<path class="st2" d="M515,60.5h-41.5c-2.2,0-4-1.8-4-4V15c0-2.2,1.8-4,4-4H515c2.2,0,4,1.8,4,4v41.5C519,58.7,517.2,60.5,515,60.5z
		"/>
	<g class="st1">
		<path d="M479.4,42.1V27.8h5.4c1.1,0,2,0.1,2.6,0.4s1.2,0.7,1.6,1.3s0.6,1.2,0.6,1.9c0,0.6-0.2,1.2-0.5,1.7s-0.8,1-1.5,1.3
			c0.9,0.3,1.5,0.7,2,1.3s0.7,1.3,0.7,2.2c0,0.7-0.1,1.3-0.4,1.9s-0.6,1-1,1.3s-0.9,0.5-1.6,0.7s-1.4,0.2-2.3,0.2H479.4z
			 M481.3,33.8h3.1c0.8,0,1.4-0.1,1.8-0.2c0.5-0.1,0.8-0.4,1.1-0.7s0.4-0.7,0.4-1.3c0-0.5-0.1-0.9-0.3-1.3s-0.6-0.6-1-0.7
			s-1.1-0.2-2.2-0.2h-2.9V33.8z M481.3,40.4h3.6c0.6,0,1,0,1.3-0.1c0.4-0.1,0.8-0.2,1.1-0.4s0.5-0.4,0.7-0.8s0.3-0.8,0.3-1.2
			c0-0.5-0.1-1-0.4-1.4s-0.7-0.7-1.1-0.8s-1.2-0.2-2.1-0.2h-3.3V40.4z"/>
	</g>
	<g class="st1">
		<path d="M491.8,37.2c0-1.2,0.1-2.1,0.4-2.9c0.2-0.7,0.6-1.3,1.1-1.7s1.1-0.6,1.8-0.6c0.5,0,1,0.1,1.4,0.3c0.4,0.2,0.7,0.5,1,0.9
			c0.3,0.4,0.5,0.9,0.6,1.5c0.2,0.6,0.2,1.4,0.2,2.4c0,1.2-0.1,2.1-0.4,2.8c-0.2,0.7-0.6,1.3-1.1,1.7c-0.5,0.4-1.1,0.6-1.8,0.6
			c-1,0-1.7-0.3-2.3-1C492.1,40.4,491.8,39.1,491.8,37.2z M493.1,37.2c0,1.6,0.2,2.7,0.6,3.3c0.4,0.5,0.9,0.8,1.4,0.8s1-0.3,1.4-0.8
			s0.6-1.6,0.6-3.3c0-1.6-0.2-2.7-0.6-3.3s-0.9-0.8-1.4-0.8c-0.6,0-1,0.2-1.4,0.7C493.3,34.4,493.1,35.5,493.1,37.2z"/>
	</g>
	<g class="st1">
		<path d="M501.8,44.4l-0.2-0.3c1.1-0.9,1.3-1.2,1.3-1.9c0-0.3-0.1-0.4-0.3-0.4c-0.8,0.1-1.2-0.6-0.8-1.1c0.3-0.5,1-0.4,1.4,0
			C504.2,41.8,503.4,43.5,501.8,44.4z"/>
	</g>
	<g class="st1">
		<path d="M505.2,37.2c0-1.2,0.1-2.1,0.4-2.9c0.2-0.7,0.6-1.3,1.1-1.7s1.1-0.6,1.8-0.6c0.5,0,1,0.1,1.4,0.3c0.4,0.2,0.7,0.5,1,0.9
			c0.3,0.4,0.5,0.9,0.6,1.5c0.2,0.6,0.2,1.4,0.2,2.4c0,1.2-0.1,2.1-0.4,2.8c-0.2,0.7-0.6,1.3-1.1,1.7c-0.5,0.4-1.1,0.6-1.8,0.6
			c-1,0-1.7-0.3-2.3-1C505.5,40.4,505.2,39.1,505.2,37.2z M506.5,37.2c0,1.6,0.2,2.7,0.6,3.3c0.4,0.5,0.9,0.8,1.4,0.8s1-0.3,1.4-0.8
			s0.6-1.6,0.6-3.3c0-1.6-0.2-2.7-0.6-3.3s-0.9-0.8-1.4-0.8c-0.6,0-1,0.2-1.4,0.7C506.7,34.4,506.5,35.5,506.5,37.2z"/>
	</g>
</g>
<g>
	<path class="st3" d="M816,60.5h-41.5c-2.2,0-4-1.8-4-4V15c0-2.2,1.8-4,4-4H816c2.2,0,4,1.8,4,4v41.5C820,58.7,818.2,60.5,816,60.5z
		"/>
	<g class="st1">
		<path d="M790.1,37.1l1.9,0.5c-0.4,1.6-1.1,2.7-2.1,3.6c-1,0.8-2.3,1.2-3.8,1.2c-1.5,0-2.8-0.3-3.8-0.9s-1.7-1.5-2.2-2.7
			c-0.5-1.2-0.8-2.5-0.8-3.8c0-1.5,0.3-2.8,0.9-3.9c0.6-1.1,1.4-2,2.4-2.5c1.1-0.6,2.2-0.9,3.5-0.9c1.4,0,2.6,0.4,3.6,1.1
			s1.7,1.8,2,3.1l-1.9,0.4c-0.3-1-0.8-1.8-1.4-2.3c-0.6-0.5-1.4-0.7-2.4-0.7c-1.1,0-2,0.3-2.8,0.8c-0.7,0.5-1.3,1.2-1.6,2.1
			c-0.3,0.9-0.4,1.8-0.4,2.7c0,1.2,0.2,2.3,0.5,3.2c0.4,0.9,0.9,1.6,1.7,2c0.7,0.4,1.6,0.7,2.4,0.7c1.1,0,2-0.3,2.7-0.9
			C789.4,39.2,789.9,38.3,790.1,37.1z"/>
	</g>
	<g class="st1">
		<path d="M793.4,37.2c0-1.2,0.1-2.1,0.4-2.9c0.2-0.7,0.6-1.3,1.1-1.7c0.5-0.4,1.1-0.6,1.8-0.6c0.5,0,1,0.1,1.4,0.3
			c0.4,0.2,0.7,0.5,1,0.9c0.3,0.4,0.5,0.9,0.6,1.5c0.2,0.6,0.2,1.4,0.2,2.4c0,1.2-0.1,2.1-0.4,2.8c-0.2,0.7-0.6,1.3-1.1,1.7
			c-0.5,0.4-1.1,0.6-1.8,0.6c-1,0-1.7-0.3-2.3-1C793.7,40.4,793.4,39.1,793.4,37.2z M794.6,37.2c0,1.6,0.2,2.7,0.6,3.3
			c0.4,0.5,0.9,0.8,1.4,0.8s1-0.3,1.4-0.8c0.4-0.5,0.6-1.6,0.6-3.3c0-1.6-0.2-2.7-0.6-3.3c-0.4-0.5-0.9-0.8-1.4-0.8
			c-0.6,0-1,0.2-1.4,0.7C794.8,34.4,794.6,35.5,794.6,37.2z"/>
	</g>
	<g class="st1">
		<path d="M803.4,44.4l-0.2-0.3c1.1-0.9,1.3-1.2,1.3-1.9c0-0.3-0.1-0.4-0.3-0.4c-0.8,0.1-1.2-0.6-0.8-1.1c0.3-0.5,1-0.4,1.4,0
			C805.8,41.8,805,43.5,803.4,44.4z"/>
	</g>
	<g class="st1">
		<path d="M806.2,37.2c0-1.2,0.1-2.1,0.4-2.9c0.2-0.7,0.6-1.3,1.1-1.7c0.5-0.4,1.1-0.6,1.8-0.6c0.5,0,1,0.1,1.4,0.3
			c0.4,0.2,0.7,0.5,1,0.9c0.3,0.4,0.5,0.9,0.6,1.5c0.2,0.6,0.2,1.4,0.2,2.4c0,1.2-0.1,2.1-0.4,2.8c-0.2,0.7-0.6,1.3-1.1,1.7
			c-0.5,0.4-1.1,0.6-1.8,0.6c-1,0-1.7-0.3-2.3-1C806.5,40.4,806.2,39.1,806.2,37.2z M807.5,37.2c0,1.6,0.2,2.7,0.6,3.3
			c0.4,0.5,0.9,0.8,1.4,0.8c0.6,0,1-0.3,1.4-0.8c0.4-0.5,0.6-1.6,0.6-3.3c0-1.6-0.2-2.7-0.6-3.3c-0.4-0.5-0.9-0.8-1.4-0.8
			c-0.6,0-1,0.2-1.4,0.7C807.7,34.4,807.5,35.5,807.5,37.2z"/>
	</g>
</g>
<g>
	<path class="st3" d="M868,60.5h-41.5c-2.2,0-4-1.8-4-4V15c0-2.2,1.8-4,4-4H868c2.2,0,4,1.8,4,4v41.5C872,58.7,870.2,60.5,868,60.5z
		"/>
	<g class="st1">
		<path d="M842.1,37.1l1.9,0.5c-0.4,1.6-1.1,2.7-2.1,3.6c-1,0.8-2.3,1.2-3.8,1.2c-1.5,0-2.8-0.3-3.8-0.9s-1.7-1.5-2.2-2.7
			c-0.5-1.2-0.8-2.5-0.8-3.8c0-1.5,0.3-2.8,0.9-3.9c0.6-1.1,1.4-2,2.4-2.5c1.1-0.6,2.2-0.9,3.5-0.9c1.4,0,2.6,0.4,3.6,1.1
			s1.7,1.8,2,3.1l-1.9,0.4c-0.3-1-0.8-1.8-1.4-2.3c-0.6-0.5-1.4-0.7-2.4-0.7c-1.1,0-2,0.3-2.8,0.8c-0.7,0.5-1.3,1.2-1.6,2.1
			c-0.3,0.9-0.4,1.8-0.4,2.7c0,1.2,0.2,2.3,0.5,3.2c0.4,0.9,0.9,1.6,1.7,2c0.7,0.4,1.6,0.7,2.4,0.7c1.1,0,2-0.3,2.7-0.9
			C841.4,39.2,841.9,38.3,842.1,37.1z"/>
	</g>
	<g class="st1">
		<path d="M845.4,37.2c0-1.2,0.1-2.1,0.4-2.9c0.2-0.7,0.6-1.3,1.1-1.7c0.5-0.4,1.1-0.6,1.8-0.6c0.5,0,1,0.1,1.4,0.3
			c0.4,0.2,0.7,0.5,1,0.9c0.3,0.4,0.5,0.9,0.6,1.5c0.2,0.6,0.2,1.4,0.2,2.4c0,1.2-0.1,2.1-0.4,2.8c-0.2,0.7-0.6,1.3-1.1,1.7
			c-0.5,0.4-1.1,0.6-1.8,0.6c-1,0-1.7-0.3-2.3-1C845.7,40.4,845.4,39.1,845.4,37.2z M846.6,37.2c0,1.6,0.2,2.7,0.6,3.3
			c0.4,0.5,0.9,0.8,1.4,0.8s1-0.3,1.4-0.8c0.4-0.5,0.6-1.6,0.6-3.3c0-1.6-0.2-2.7-0.6-3.3c-0.4-0.5-0.9-0.8-1.4-0.8
			c-0.6,0-1,0.2-1.4,0.7C846.8,34.4,846.6,35.5,846.6,37.2z"/>
	</g>
	<g class="st1">
		<path d="M855.4,44.4l-0.2-0.3c1.1-0.9,1.3-1.2,1.3-1.9c0-0.3-0.1-0.4-0.3-0.4c-0.8,0.1-1.2-0.6-0.8-1.1c0.3-0.5,1-0.4,1.4,0
			C857.8,41.8,857,43.5,855.4,44.4z"/>
	</g>
	<g class="st1">
		<path d="M862.8,42.1h-1.2v-7.8c-0.3,0.3-0.7,0.6-1.2,0.8c-0.5,0.3-0.9,0.5-1.3,0.6v-1.2c0.7-0.3,1.3-0.7,1.8-1.2
			c0.5-0.5,0.9-0.9,1.1-1.3h0.8V42.1z"/>
	</g>
</g>
<g>
	<path class="st3" d="M920,60.5h-41.5c-2.2,0-4-1.8-4-4V15c0-2.2,1.8-4,4-4H920c2.2,0,4,1.8,4,4v41.5C924,58.7,922.2,60.5,920,60.5z
		"/>
	<g class="st1">
		<path d="M894.1,37.1l1.9,0.5c-0.4,1.6-1.1,2.7-2.1,3.6c-1,0.8-2.3,1.2-3.8,1.2c-1.5,0-2.8-0.3-3.8-0.9s-1.7-1.5-2.2-2.7
			c-0.5-1.2-0.8-2.5-0.8-3.8c0-1.5,0.3-2.8,0.9-3.9c0.6-1.1,1.4-2,2.4-2.5c1.1-0.6,2.2-0.9,3.5-0.9c1.4,0,2.6,0.4,3.6,1.1
			s1.7,1.8,2,3.1l-1.9,0.4c-0.3-1-0.8-1.8-1.4-2.3c-0.6-0.5-1.4-0.7-2.4-0.7c-1.1,0-2,0.3-2.8,0.8c-0.7,0.5-1.3,1.2-1.6,2.1
			c-0.3,0.9-0.4,1.8-0.4,2.7c0,1.2,0.2,2.3,0.5,3.2c0.4,0.9,0.9,1.6,1.7,2c0.7,0.4,1.6,0.7,2.4,0.7c1.1,0,2-0.3,2.7-0.9
			C893.4,39.2,893.9,38.3,894.1,37.1z"/>
	</g>
	<g class="st1">
		<path d="M897.4,37.2c0-1.2,0.1-2.1,0.4-2.9c0.2-0.7,0.6-1.3,1.1-1.7c0.5-0.4,1.1-0.6,1.8-0.6c0.5,0,1,0.1,1.4,0.3
			c0.4,0.2,0.7,0.5,1,0.9c0.3,0.4,0.5,0.9,0.6,1.5c0.2,0.6,0.2,1.4,0.2,2.4c0,1.2-0.1,2.1-0.4,2.8c-0.2,0.7-0.6,1.3-1.1,1.7
			c-0.5,0.4-1.1,0.6-1.8,0.6c-1,0-1.7-0.3-2.3-1C897.7,40.4,897.4,39.1,897.4,37.2z M898.6,37.2c0,1.6,0.2,2.7,0.6,3.3
			c0.4,0.5,0.9,0.8,1.4,0.8s1-0.3,1.4-0.8c0.4-0.5,0.6-1.6,0.6-3.3c0-1.6-0.2-2.7-0.6-3.3c-0.4-0.5-0.9-0.8-1.4-0.8
			c-0.6,0-1,0.2-1.4,0.7C898.8,34.4,898.6,35.5,898.6,37.2z"/>
	</g>
	<g class="st1">
		<path d="M907.4,44.4l-0.2-0.3c1.1-0.9,1.3-1.2,1.3-1.9c0-0.3-0.1-0.4-0.3-0.4c-0.8,0.1-1.2-0.6-0.8-1.1c0.3-0.5,1-0.4,1.4,0
			C909.8,41.8,909,43.5,907.4,44.4z"/>
	</g>
	<g class="st1">
		<path d="M916.7,40.9v1.2H910c0-0.3,0-0.6,0.1-0.9c0.2-0.5,0.4-0.9,0.8-1.3c0.4-0.4,0.9-0.9,1.6-1.5c1.1-0.9,1.8-1.6,2.2-2.1
			c0.4-0.5,0.6-1,0.6-1.5c0-0.5-0.2-0.9-0.5-1.2c-0.3-0.3-0.8-0.5-1.4-0.5c-0.6,0-1.1,0.2-1.4,0.5s-0.5,0.8-0.5,1.5l-1.3-0.1
			c0.1-0.9,0.4-1.7,1-2.2c0.6-0.5,1.3-0.7,2.3-0.7c1,0,1.7,0.3,2.3,0.8s0.8,1.2,0.8,2c0,0.4-0.1,0.8-0.2,1.2s-0.4,0.8-0.8,1.2
			c-0.4,0.4-1,1-1.9,1.8c-0.7,0.6-1.2,1-1.4,1.3c-0.2,0.2-0.4,0.4-0.5,0.7H916.7z"/>
	</g>
</g>
<g>
	<path class="st3" d="M972,60.5h-41.5c-2.2,0-4-1.8-4-4V15c0-2.2,1.8-4,4-4H972c2.2,0,4,1.8,4,4v41.5C976,58.7,974.2,60.5,972,60.5z
		"/>
	<g class="st1">
		<path d="M946.1,37.1l1.9,0.5c-0.4,1.6-1.1,2.7-2.1,3.6c-1,0.8-2.3,1.2-3.8,1.2c-1.5,0-2.8-0.3-3.8-0.9s-1.7-1.5-2.2-2.7
			c-0.5-1.2-0.8-2.5-0.8-3.8c0-1.5,0.3-2.8,0.9-3.9c0.6-1.1,1.4-2,2.4-2.5c1.1-0.6,2.2-0.9,3.5-0.9c1.4,0,2.6,0.4,3.6,1.1
			s1.7,1.8,2,3.1l-1.9,0.4c-0.3-1-0.8-1.8-1.4-2.3c-0.6-0.5-1.4-0.7-2.4-0.7c-1.1,0-2,0.3-2.8,0.8c-0.7,0.5-1.3,1.2-1.6,2.1
			c-0.3,0.9-0.4,1.8-0.4,2.7c0,1.2,0.2,2.3,0.5,3.2c0.4,0.9,0.9,1.6,1.7,2c0.7,0.4,1.6,0.7,2.4,0.7c1.1,0,2-0.3,2.7-0.9
			C945.4,39.2,945.9,38.3,946.1,37.1z"/>
	</g>
	<g class="st1">
		<path d="M949.4,37.2c0-1.2,0.1-2.1,0.4-2.9c0.2-0.7,0.6-1.3,1.1-1.7c0.5-0.4,1.1-0.6,1.8-0.6c0.5,0,1,0.1,1.4,0.3
			c0.4,0.2,0.7,0.5,1,0.9c0.3,0.4,0.5,0.9,0.6,1.5c0.2,0.6,0.2,1.4,0.2,2.4c0,1.2-0.1,2.1-0.4,2.8c-0.2,0.7-0.6,1.3-1.1,1.7
			c-0.5,0.4-1.1,0.6-1.8,0.6c-1,0-1.7-0.3-2.3-1C949.7,40.4,949.4,39.1,949.4,37.2z M950.6,37.2c0,1.6,0.2,2.7,0.6,3.3
			c0.4,0.5,0.9,0.8,1.4,0.8s1-0.3,1.4-0.8c0.4-0.5,0.6-1.6,0.6-3.3c0-1.6-0.2-2.7-0.6-3.3c-0.4-0.5-0.9-0.8-1.4-0.8
			c-0.6,0-1,0.2-1.4,0.7C950.8,34.4,950.6,35.5,950.6,37.2z"/>
	</g>
	<g class="st1">
		<path d="M959.4,44.4l-0.2-0.3c1.1-0.9,1.3-1.2,1.3-1.9c0-0.3-0.1-0.4-0.3-0.4c-0.8,0.1-1.2-0.6-0.8-1.1c0.3-0.5,1-0.4,1.4,0
			C961.8,41.8,961,43.5,959.4,44.4z"/>
	</g>
	<g class="st1">
		<path d="M962.2,39.5l1.2-0.2c0.1,0.7,0.4,1.2,0.7,1.5c0.3,0.3,0.8,0.5,1.2,0.5c0.6,0,1.1-0.2,1.5-0.6c0.4-0.4,0.6-0.9,0.6-1.5
			c0-0.6-0.2-1-0.6-1.4c-0.4-0.4-0.8-0.6-1.4-0.6c-0.2,0-0.5,0-0.9,0.1l0.1-1.1c0.1,0,0.1,0,0.2,0c0.5,0,1-0.1,1.4-0.4
			c0.4-0.3,0.6-0.7,0.6-1.3c0-0.5-0.2-0.8-0.5-1.1c-0.3-0.3-0.7-0.4-1.2-0.4c-0.5,0-0.9,0.2-1.2,0.5c-0.3,0.3-0.5,0.8-0.6,1.4
			l-1.2-0.2c0.2-0.8,0.5-1.5,1-1.9c0.5-0.5,1.2-0.7,2-0.7c0.5,0,1.1,0.1,1.5,0.4c0.5,0.2,0.8,0.6,1.1,1c0.2,0.4,0.4,0.8,0.4,1.3
			c0,0.4-0.1,0.8-0.3,1.2s-0.6,0.6-1,0.8c0.6,0.1,1.1,0.4,1.4,0.9c0.3,0.4,0.5,1,0.5,1.6c0,0.9-0.3,1.6-1,2.2
			c-0.6,0.6-1.4,0.9-2.4,0.9c-0.9,0-1.6-0.3-2.2-0.8S962.3,40.3,962.2,39.5z"/>
	</g>
</g>
<g>
	<path class="st3" d="M816,112.5h-41.5c-2.2,0-4-1.8-4-4V67c0-2.2,1.8-4,4-4H816c2.2,0,4,1.8,4,4v41.5
		C820,110.7,818.2,112.5,816,112.5z"/>
	<g class="st1">
		<path d="M790.1,89.1l1.9,0.5c-0.4,1.6-1.1,2.7-2.1,3.6c-1,0.8-2.3,1.2-3.8,1.2c-1.5,0-2.8-0.3-3.8-0.9s-1.7-1.5-2.2-2.7
			c-0.5-1.2-0.8-2.5-0.8-3.8c0-1.5,0.3-2.8,0.9-3.9c0.6-1.1,1.4-2,2.4-2.5c1.1-0.6,2.2-0.9,3.5-0.9c1.4,0,2.6,0.4,3.6,1.1
			s1.7,1.8,2,3.1l-1.9,0.4c-0.3-1-0.8-1.8-1.4-2.3c-0.6-0.5-1.4-0.7-2.4-0.7c-1.1,0-2,0.3-2.8,0.8c-0.7,0.5-1.3,1.2-1.6,2.1
			c-0.3,0.9-0.4,1.8-0.4,2.7c0,1.2,0.2,2.3,0.5,3.2c0.4,0.9,0.9,1.6,1.7,2c0.7,0.4,1.6,0.7,2.4,0.7c1.1,0,2-0.3,2.7-0.9
			C789.4,91.2,789.9,90.3,790.1,89.1z"/>
	</g>
	<g class="st1">
		<path d="M798,94.1h-1.2v-7.8c-0.3,0.3-0.7,0.6-1.2,0.8c-0.5,0.3-0.9,0.5-1.3,0.6v-1.2c0.7-0.3,1.3-0.7,1.8-1.2s0.9-0.9,1.1-1.3
			h0.8V94.1z"/>
	</g>
	<g class="st1">
		<path d="M803.4,96.4l-0.2-0.3c1.1-0.9,1.3-1.2,1.3-1.9c0-0.3-0.1-0.4-0.3-0.4c-0.8,0.1-1.2-0.6-0.8-1.1c0.3-0.5,1-0.4,1.4,0
			C805.8,93.8,805,95.5,803.4,96.4z"/>
	</g>
	<g class="st1">
		<path d="M806.2,89.2c0-1.2,0.1-2.1,0.4-2.9c0.2-0.7,0.6-1.3,1.1-1.7c0.5-0.4,1.1-0.6,1.8-0.6c0.5,0,1,0.1,1.4,0.3
			c0.4,0.2,0.7,0.5,1,0.9c0.3,0.4,0.5,0.9,0.6,1.5c0.2,0.6,0.2,1.4,0.2,2.4c0,1.2-0.1,2.1-0.4,2.8c-0.2,0.7-0.6,1.3-1.1,1.7
			c-0.5,0.4-1.1,0.6-1.8,0.6c-1,0-1.7-0.3-2.3-1C806.5,92.4,806.2,91.1,806.2,89.2z M807.5,89.2c0,1.6,0.2,2.7,0.6,3.3
			c0.4,0.5,0.9,0.8,1.4,0.8c0.6,0,1-0.3,1.4-0.8c0.4-0.5,0.6-1.6,0.6-3.3c0-1.6-0.2-2.7-0.6-3.3c-0.4-0.5-0.9-0.8-1.4-0.8
			c-0.6,0-1,0.2-1.4,0.7C807.7,86.4,807.5,87.5,807.5,89.2z"/>
	</g>
</g>
<g>
	<path class="st3" d="M816,164.5h-41.5c-2.2,0-4-1.8-4-4V119c0-2.2,1.8-4,4-4H816c2.2,0,4,1.8,4,4v41.5
		C820,162.7,818.2,164.5,816,164.5z"/>
	<g class="st1">
		<path d="M790.1,141.1l1.9,0.5c-0.4,1.6-1.1,2.7-2.1,3.6c-1,0.8-2.3,1.2-3.8,1.2c-1.5,0-2.8-0.3-3.8-0.9s-1.7-1.5-2.2-2.7
			c-0.5-1.2-0.8-2.5-0.8-3.8c0-1.5,0.3-2.8,0.9-3.9c0.6-1.1,1.4-2,2.4-2.5c1.1-0.6,2.2-0.9,3.5-0.9c1.4,0,2.6,0.4,3.6,1.1
			s1.7,1.8,2,3.1l-1.9,0.4c-0.3-1-0.8-1.8-1.4-2.3c-0.6-0.5-1.4-0.7-2.4-0.7c-1.1,0-2,0.3-2.8,0.8c-0.7,0.5-1.3,1.2-1.6,2.1
			c-0.3,0.9-0.4,1.8-0.4,2.7c0,1.2,0.2,2.3,0.5,3.2c0.4,0.9,0.9,1.6,1.7,2c0.7,0.4,1.6,0.7,2.4,0.7c1.1,0,2-0.3,2.7-0.9
			C789.4,143.2,789.9,142.3,790.1,141.1z"/>
	</g>
	<g class="st1">
		<path d="M799.8,144.9v1.2h-6.6c0-0.3,0-0.6,0.1-0.9c0.2-0.5,0.4-0.9,0.8-1.3c0.4-0.4,0.9-0.9,1.6-1.5c1.1-0.9,1.8-1.6,2.2-2.1
			c0.4-0.5,0.6-1,0.6-1.5c0-0.5-0.2-0.9-0.5-1.2c-0.3-0.3-0.8-0.5-1.4-0.5c-0.6,0-1.1,0.2-1.4,0.5s-0.5,0.8-0.5,1.5l-1.3-0.1
			c0.1-0.9,0.4-1.7,1-2.2c0.6-0.5,1.3-0.7,2.3-0.7c1,0,1.7,0.3,2.3,0.8s0.8,1.2,0.8,2c0,0.4-0.1,0.8-0.2,1.2s-0.4,0.8-0.8,1.2
			c-0.4,0.4-1,1-1.9,1.8c-0.7,0.6-1.2,1-1.4,1.3c-0.2,0.2-0.4,0.4-0.5,0.7H799.8z"/>
	</g>
	<g class="st1">
		<path d="M803.4,148.4l-0.2-0.3c1.1-0.9,1.3-1.2,1.3-1.9c0-0.3-0.1-0.4-0.3-0.4c-0.8,0.1-1.2-0.6-0.8-1.1c0.3-0.5,1-0.4,1.4,0
			C805.8,145.8,805,147.5,803.4,148.4z"/>
	</g>
	<g class="st1">
		<path d="M806.2,141.2c0-1.2,0.1-2.1,0.4-2.9c0.2-0.7,0.6-1.3,1.1-1.7c0.5-0.4,1.1-0.6,1.8-0.6c0.5,0,1,0.1,1.4,0.3
			c0.4,0.2,0.7,0.5,1,0.9c0.3,0.4,0.5,0.9,0.6,1.5c0.2,0.6,0.2,1.4,0.2,2.4c0,1.2-0.1,2.1-0.4,2.8c-0.2,0.7-0.6,1.3-1.1,1.7
			c-0.5,0.4-1.1,0.6-1.8,0.6c-1,0-1.7-0.3-2.3-1C806.5,144.4,806.2,143.1,806.2,141.2z M807.5,141.2c0,1.6,0.2,2.7,0.6,3.3
			c0.4,0.5,0.9,0.8,1.4,0.8c0.6,0,1-0.3,1.4-0.8c0.4-0.5,0.6-1.6,0.6-3.3c0-1.6-0.2-2.7-0.6-3.3c-0.4-0.5-0.9-0.8-1.4-0.8
			c-0.6,0-1,0.2-1.4,0.7C807.7,138.4,807.5,139.5,807.5,141.2z"/>
	</g>
</g>
<g>
	<path class="st3" d="M816,216.5h-41.5c-2.2,0-4-1.8-4-4V171c0-2.2,1.8-4,4-4H816c2.2,0,4,1.8,4,4v41.5
		C820,214.7,818.2,216.5,816,216.5z"/>
	<g class="st1">
		<path d="M790.1,193.1l1.9,0.5c-0.4,1.6-1.1,2.7-2.1,3.6c-1,0.8-2.3,1.2-3.8,1.2c-1.5,0-2.8-0.3-3.8-0.9s-1.7-1.5-2.2-2.7
			c-0.5-1.2-0.8-2.5-0.8-3.8c0-1.5,0.3-2.8,0.9-3.9c0.6-1.1,1.4-2,2.4-2.5c1.1-0.6,2.2-0.9,3.5-0.9c1.4,0,2.6,0.4,3.6,1.1
			s1.7,1.8,2,3.1l-1.9,0.4c-0.3-1-0.8-1.8-1.4-2.3c-0.6-0.5-1.4-0.7-2.4-0.7c-1.1,0-2,0.3-2.8,0.8c-0.7,0.5-1.3,1.2-1.6,2.1
			c-0.3,0.9-0.4,1.8-0.4,2.7c0,1.2,0.2,2.3,0.5,3.2c0.4,0.9,0.9,1.6,1.7,2c0.7,0.4,1.6,0.7,2.4,0.7c1.1,0,2-0.3,2.7-0.9
			C789.4,195.2,789.9,194.3,790.1,193.1z"/>
	</g>
	<g class="st1">
		<path d="M793.4,195.5l1.2-0.2c0.1,0.7,0.4,1.2,0.7,1.5c0.3,0.3,0.8,0.5,1.2,0.5c0.6,0,1.1-0.2,1.5-0.6c0.4-0.4,0.6-0.9,0.6-1.5
			c0-0.6-0.2-1-0.6-1.4c-0.4-0.4-0.8-0.6-1.4-0.6c-0.2,0-0.5,0-0.9,0.1l0.1-1.1c0.1,0,0.1,0,0.2,0c0.5,0,1-0.1,1.4-0.4
			s0.6-0.7,0.6-1.3c0-0.5-0.2-0.8-0.5-1.1s-0.7-0.4-1.2-0.4c-0.5,0-0.9,0.2-1.2,0.5s-0.5,0.8-0.6,1.4l-1.2-0.2
			c0.2-0.8,0.5-1.5,1-1.9c0.5-0.5,1.2-0.7,2-0.7c0.5,0,1,0.1,1.5,0.4c0.5,0.2,0.8,0.6,1.1,1c0.2,0.4,0.4,0.8,0.4,1.3
			c0,0.4-0.1,0.8-0.3,1.2s-0.6,0.6-1,0.8c0.6,0.1,1.1,0.4,1.4,0.9c0.3,0.4,0.5,1,0.5,1.6c0,0.9-0.3,1.6-1,2.2
			c-0.6,0.6-1.4,0.9-2.4,0.9c-0.9,0-1.6-0.3-2.2-0.8C793.8,197,793.5,196.3,793.4,195.5z"/>
	</g>
	<g class="st1">
		<path d="M803.4,200.4l-0.2-0.3c1.1-0.9,1.3-1.2,1.3-1.9c0-0.3-0.1-0.4-0.3-0.4c-0.8,0.1-1.2-0.6-0.8-1.1c0.3-0.5,1-0.4,1.4,0
			C805.8,197.8,805,199.5,803.4,200.4z"/>
	</g>
	<g class="st1">
		<path d="M806.2,193.2c0-1.2,0.1-2.1,0.4-2.9c0.2-0.7,0.6-1.3,1.1-1.7c0.5-0.4,1.1-0.6,1.8-0.6c0.5,0,1,0.1,1.4,0.3
			c0.4,0.2,0.7,0.5,1,0.9c0.3,0.4,0.5,0.9,0.6,1.5c0.2,0.6,0.2,1.4,0.2,2.4c0,1.2-0.1,2.1-0.4,2.8c-0.2,0.7-0.6,1.3-1.1,1.7
			c-0.5,0.4-1.1,0.6-1.8,0.6c-1,0-1.7-0.3-2.3-1C806.5,196.4,806.2,195.1,806.2,193.2z M807.5,193.2c0,1.6,0.2,2.7,0.6,3.3
			c0.4,0.5,0.9,0.8,1.4,0.8c0.6,0,1-0.3,1.4-0.8c0.4-0.5,0.6-1.6,0.6-3.3c0-1.6-0.2-2.7-0.6-3.3c-0.4-0.5-0.9-0.8-1.4-0.8
			c-0.6,0-1,0.2-1.4,0.7C807.7,190.4,807.5,191.5,807.5,193.2z"/>
	</g>
</g>
<g>
	<path class="st3" d="M868,216.5h-41.5c-2.2,0-4-1.8-4-4V171c0-2.2,1.8-4,4-4H868c2.2,0,4,1.8,4,4v41.5
		C872,214.7,870.2,216.5,868,216.5z"/>
	<g class="st1">
		<path d="M842.1,193.1l1.9,0.5c-0.4,1.6-1.1,2.7-2.1,3.6c-1,0.8-2.3,1.2-3.8,1.2c-1.5,0-2.8-0.3-3.8-0.9s-1.7-1.5-2.2-2.7
			c-0.5-1.2-0.8-2.5-0.8-3.8c0-1.5,0.3-2.8,0.9-3.9c0.6-1.1,1.4-2,2.4-2.5c1.1-0.6,2.2-0.9,3.5-0.9c1.4,0,2.6,0.4,3.6,1.1
			s1.7,1.8,2,3.1l-1.9,0.4c-0.3-1-0.8-1.8-1.4-2.3c-0.6-0.5-1.4-0.7-2.4-0.7c-1.1,0-2,0.3-2.8,0.8c-0.7,0.5-1.3,1.2-1.6,2.1
			c-0.3,0.9-0.4,1.8-0.4,2.7c0,1.2,0.2,2.3,0.5,3.2c0.4,0.9,0.9,1.6,1.7,2c0.7,0.4,1.6,0.7,2.4,0.7c1.1,0,2-0.3,2.7-0.9
			C841.4,195.2,841.9,194.3,842.1,193.1z"/>
	</g>
	<g class="st1">
		<path d="M845.4,195.5l1.2-0.2c0.1,0.7,0.4,1.2,0.7,1.5c0.3,0.3,0.8,0.5,1.2,0.5c0.6,0,1.1-0.2,1.5-0.6c0.4-0.4,0.6-0.9,0.6-1.5
			c0-0.6-0.2-1-0.6-1.4c-0.4-0.4-0.8-0.6-1.4-0.6c-0.2,0-0.5,0-0.9,0.1l0.1-1.1c0.1,0,0.1,0,0.2,0c0.5,0,1-0.1,1.4-0.4
			s0.6-0.7,0.6-1.3c0-0.5-0.2-0.8-0.5-1.1s-0.7-0.4-1.2-0.4c-0.5,0-0.9,0.2-1.2,0.5s-0.5,0.8-0.6,1.4l-1.2-0.2
			c0.2-0.8,0.5-1.5,1-1.9c0.5-0.5,1.2-0.7,2-0.7c0.5,0,1,0.1,1.5,0.4c0.5,0.2,0.8,0.6,1.1,1c0.2,0.4,0.4,0.8,0.4,1.3
			c0,0.4-0.1,0.8-0.3,1.2s-0.6,0.6-1,0.8c0.6,0.1,1.1,0.4,1.4,0.9c0.3,0.4,0.5,1,0.5,1.6c0,0.9-0.3,1.6-1,2.2
			c-0.6,0.6-1.4,0.9-2.4,0.9c-0.9,0-1.6-0.3-2.2-0.8C845.8,197,845.5,196.3,845.4,195.5z"/>
	</g>
	<g class="st1">
		<path d="M855.4,200.4l-0.2-0.3c1.1-0.9,1.3-1.2,1.3-1.9c0-0.3-0.1-0.4-0.3-0.4c-0.8,0.1-1.2-0.6-0.8-1.1c0.3-0.5,1-0.4,1.4,0
			C857.8,197.8,857,199.5,855.4,200.4z"/>
	</g>
	<g class="st1">
		<path d="M862.8,198.1h-1.2v-7.8c-0.3,0.3-0.7,0.6-1.2,0.8c-0.5,0.3-0.9,0.5-1.3,0.6v-1.2c0.7-0.3,1.3-0.7,1.8-1.2
			c0.5-0.5,0.9-0.9,1.1-1.3h0.8V198.1z"/>
	</g>
</g>
<g>
	<path class="st3" d="M920,216.5h-41.5c-2.2,0-4-1.8-4-4V171c0-2.2,1.8-4,4-4H920c2.2,0,4,1.8,4,4v41.5
		C924,214.7,922.2,216.5,920,216.5z"/>
	<g class="st1">
		<path d="M894.1,193.1l1.9,0.5c-0.4,1.6-1.1,2.7-2.1,3.6c-1,0.8-2.3,1.2-3.8,1.2c-1.5,0-2.8-0.3-3.8-0.9s-1.7-1.5-2.2-2.7
			c-0.5-1.2-0.8-2.5-0.8-3.8c0-1.5,0.3-2.8,0.9-3.9c0.6-1.1,1.4-2,2.4-2.5c1.1-0.6,2.2-0.9,3.5-0.9c1.4,0,2.6,0.4,3.6,1.1
			s1.7,1.8,2,3.1l-1.9,0.4c-0.3-1-0.8-1.8-1.4-2.3c-0.6-0.5-1.4-0.7-2.4-0.7c-1.1,0-2,0.3-2.8,0.8c-0.7,0.5-1.3,1.2-1.6,2.1
			c-0.3,0.9-0.4,1.8-0.4,2.7c0,1.2,0.2,2.3,0.5,3.2c0.4,0.9,0.9,1.6,1.7,2c0.7,0.4,1.6,0.7,2.4,0.7c1.1,0,2-0.3,2.7-0.9
			C893.4,195.2,893.9,194.3,894.1,193.1z"/>
	</g>
	<g class="st1">
		<path d="M897.4,195.5l1.2-0.2c0.1,0.7,0.4,1.2,0.7,1.5c0.3,0.3,0.8,0.5,1.2,0.5c0.6,0,1.1-0.2,1.5-0.6c0.4-0.4,0.6-0.9,0.6-1.5
			c0-0.6-0.2-1-0.6-1.4c-0.4-0.4-0.8-0.6-1.4-0.6c-0.2,0-0.5,0-0.9,0.1l0.1-1.1c0.1,0,0.1,0,0.2,0c0.5,0,1-0.1,1.4-0.4
			s0.6-0.7,0.6-1.3c0-0.5-0.2-0.8-0.5-1.1s-0.7-0.4-1.2-0.4c-0.5,0-0.9,0.2-1.2,0.5s-0.5,0.8-0.6,1.4l-1.2-0.2
			c0.2-0.8,0.5-1.5,1-1.9c0.5-0.5,1.2-0.7,2-0.7c0.5,0,1,0.1,1.5,0.4c0.5,0.2,0.8,0.6,1.1,1c0.2,0.4,0.4,0.8,0.4,1.3
			c0,0.4-0.1,0.8-0.3,1.2s-0.6,0.6-1,0.8c0.6,0.1,1.1,0.4,1.4,0.9c0.3,0.4,0.5,1,0.5,1.6c0,0.9-0.3,1.6-1,2.2
			c-0.6,0.6-1.4,0.9-2.4,0.9c-0.9,0-1.6-0.3-2.2-0.8C897.8,197,897.5,196.3,897.4,195.5z"/>
	</g>
	<g class="st1">
		<path d="M907.4,200.4l-0.2-0.3c1.1-0.9,1.3-1.2,1.3-1.9c0-0.3-0.1-0.4-0.3-0.4c-0.8,0.1-1.2-0.6-0.8-1.1c0.3-0.5,1-0.4,1.4,0
			C909.8,197.8,909,199.5,907.4,200.4z"/>
	</g>
	<g class="st1">
		<path d="M916.7,196.9v1.2H910c0-0.3,0-0.6,0.1-0.9c0.2-0.5,0.4-0.9,0.8-1.3c0.4-0.4,0.9-0.9,1.6-1.5c1.1-0.9,1.8-1.6,2.2-2.1
			c0.4-0.5,0.6-1,0.6-1.5c0-0.5-0.2-0.9-0.5-1.2c-0.3-0.3-0.8-0.5-1.4-0.5c-0.6,0-1.1,0.2-1.4,0.5s-0.5,0.8-0.5,1.5l-1.3-0.1
			c0.1-0.9,0.4-1.7,1-2.2c0.6-0.5,1.3-0.7,2.3-0.7c1,0,1.7,0.3,2.3,0.8s0.8,1.2,0.8,2c0,0.4-0.1,0.8-0.2,1.2s-0.4,0.8-0.8,1.2
			c-0.4,0.4-1,1-1.9,1.8c-0.7,0.6-1.2,1-1.4,1.3c-0.2,0.2-0.4,0.4-0.5,0.7H916.7z"/>
	</g>
</g>
<g>
	<path class="st3" d="M972,216.5h-41.5c-2.2,0-4-1.8-4-4V171c0-2.2,1.8-4,4-4H972c2.2,0,4,1.8,4,4v41.5
		C976,214.7,974.2,216.5,972,216.5z"/>
	<g class="st1">
		<path d="M946.1,193.1l1.9,0.5c-0.4,1.6-1.1,2.7-2.1,3.6c-1,0.8-2.3,1.2-3.8,1.2c-1.5,0-2.8-0.3-3.8-0.9s-1.7-1.5-2.2-2.7
			c-0.5-1.2-0.8-2.5-0.8-3.8c0-1.5,0.3-2.8,0.9-3.9c0.6-1.1,1.4-2,2.4-2.5c1.1-0.6,2.2-0.9,3.5-0.9c1.4,0,2.6,0.4,3.6,1.1
			s1.7,1.8,2,3.1l-1.9,0.4c-0.3-1-0.8-1.8-1.4-2.3c-0.6-0.5-1.4-0.7-2.4-0.7c-1.1,0-2,0.3-2.8,0.8c-0.7,0.5-1.3,1.2-1.6,2.1
			c-0.3,0.9-0.4,1.8-0.4,2.7c0,1.2,0.2,2.3,0.5,3.2c0.4,0.9,0.9,1.6,1.7,2c0.7,0.4,1.6,0.7,2.4,0.7c1.1,0,2-0.3,2.7-0.9
			C945.4,195.2,945.9,194.3,946.1,193.1z"/>
	</g>
	<g class="st1">
		<path d="M949.4,195.5l1.2-0.2c0.1,0.7,0.4,1.2,0.7,1.5c0.3,0.3,0.8,0.5,1.2,0.5c0.6,0,1.1-0.2,1.5-0.6c0.4-0.4,0.6-0.9,0.6-1.5
			c0-0.6-0.2-1-0.6-1.4c-0.4-0.4-0.8-0.6-1.4-0.6c-0.2,0-0.5,0-0.9,0.1l0.1-1.1c0.1,0,0.1,0,0.2,0c0.5,0,1-0.1,1.4-0.4
			s0.6-0.7,0.6-1.3c0-0.5-0.2-0.8-0.5-1.1s-0.7-0.4-1.2-0.4c-0.5,0-0.9,0.2-1.2,0.5s-0.5,0.8-0.6,1.4l-1.2-0.2
			c0.2-0.8,0.5-1.5,1-1.9c0.5-0.5,1.2-0.7,2-0.7c0.5,0,1,0.1,1.5,0.4c0.5,0.2,0.8,0.6,1.1,1c0.2,0.4,0.4,0.8,0.4,1.3
			c0,0.4-0.1,0.8-0.3,1.2s-0.6,0.6-1,0.8c0.6,0.1,1.1,0.4,1.4,0.9c0.3,0.4,0.5,1,0.5,1.6c0,0.9-0.3,1.6-1,2.2
			c-0.6,0.6-1.4,0.9-2.4,0.9c-0.9,0-1.6-0.3-2.2-0.8C949.8,197,949.5,196.3,949.4,195.5z"/>
	</g>
	<g class="st1">
		<path d="M959.4,200.4l-0.2-0.3c1.1-0.9,1.3-1.2,1.3-1.9c0-0.3-0.1-0.4-0.3-0.4c-0.8,0.1-1.2-0.6-0.8-1.1c0.3-0.5,1-0.4,1.4,0
			C961.8,197.8,961,199.5,959.4,200.4z"/>
	</g>
	<g class="st1">
		<path d="M962.2,195.5l1.2-0.2c0.1,0.7,0.4,1.2,0.7,1.5c0.3,0.3,0.8,0.5,1.2,0.5c0.6,0,1.1-0.2,1.5-0.6c0.4-0.4,0.6-0.9,0.6-1.5
			c0-0.6-0.2-1-0.6-1.4c-0.4-0.4-0.8-0.6-1.4-0.6c-0.2,0-0.5,0-0.9,0.1l0.1-1.1c0.1,0,0.1,0,0.2,0c0.5,0,1-0.1,1.4-0.4
			c0.4-0.3,0.6-0.7,0.6-1.3c0-0.5-0.2-0.8-0.5-1.1c-0.3-0.3-0.7-0.4-1.2-0.4c-0.5,0-0.9,0.2-1.2,0.5c-0.3,0.3-0.5,0.8-0.6,1.4
			l-1.2-0.2c0.2-0.8,0.5-1.5,1-1.9c0.5-0.5,1.2-0.7,2-0.7c0.5,0,1.1,0.1,1.5,0.4c0.5,0.2,0.8,0.6,1.1,1c0.2,0.4,0.4,0.8,0.4,1.3
			c0,0.4-0.1,0.8-0.3,1.2s-0.6,0.6-1,0.8c0.6,0.1,1.1,0.4,1.4,0.9c0.3,0.4,0.5,1,0.5,1.6c0,0.9-0.3,1.6-1,2.2
			c-0.6,0.6-1.4,0.9-2.4,0.9c-0.9,0-1.6-0.3-2.2-0.8S962.3,196.3,962.2,195.5z"/>
	</g>
</g>
<g>
	<path class="st3" d="M868,164.5h-41.5c-2.2,0-4-1.8-4-4V119c0-2.2,1.8-4,4-4H868c2.2,0,4,1.8,4,4v41.5
		C872,162.7,870.2,164.5,868,164.5z"/>
	<g class="st1">
		<path d="M842.1,141.1l1.9,0.5c-0.4,1.6-1.1,2.7-2.1,3.6c-1,0.8-2.3,1.2-3.8,1.2c-1.5,0-2.8-0.3-3.8-0.9s-1.7-1.5-2.2-2.7
			c-0.5-1.2-0.8-2.5-0.8-3.8c0-1.5,0.3-2.8,0.9-3.9c0.6-1.1,1.4-2,2.4-2.5c1.1-0.6,2.2-0.9,3.5-0.9c1.4,0,2.6,0.4,3.6,1.1
			s1.7,1.8,2,3.1l-1.9,0.4c-0.3-1-0.8-1.8-1.4-2.3c-0.6-0.5-1.4-0.7-2.4-0.7c-1.1,0-2,0.3-2.8,0.8c-0.7,0.5-1.3,1.2-1.6,2.1
			c-0.3,0.9-0.4,1.8-0.4,2.7c0,1.2,0.2,2.3,0.5,3.2c0.4,0.9,0.9,1.6,1.7,2c0.7,0.4,1.6,0.7,2.4,0.7c1.1,0,2-0.3,2.7-0.9
			C841.4,143.2,841.9,142.3,842.1,141.1z"/>
	</g>
	<g class="st1">
		<path d="M851.8,144.9v1.2h-6.6c0-0.3,0-0.6,0.1-0.9c0.2-0.5,0.4-0.9,0.8-1.3c0.4-0.4,0.9-0.9,1.6-1.5c1.1-0.9,1.8-1.6,2.2-2.1
			c0.4-0.5,0.6-1,0.6-1.5c0-0.5-0.2-0.9-0.5-1.2c-0.3-0.3-0.8-0.5-1.4-0.5c-0.6,0-1.1,0.2-1.4,0.5s-0.5,0.8-0.5,1.5l-1.3-0.1
			c0.1-0.9,0.4-1.7,1-2.2c0.6-0.5,1.3-0.7,2.3-0.7c1,0,1.7,0.3,2.3,0.8s0.8,1.2,0.8,2c0,0.4-0.1,0.8-0.2,1.2s-0.4,0.8-0.8,1.2
			c-0.4,0.4-1,1-1.9,1.8c-0.7,0.6-1.2,1-1.4,1.3c-0.2,0.2-0.4,0.4-0.5,0.7H851.8z"/>
	</g>
	<g class="st1">
		<path d="M855.4,148.4l-0.2-0.3c1.1-0.9,1.3-1.2,1.3-1.9c0-0.3-0.1-0.4-0.3-0.4c-0.8,0.1-1.2-0.6-0.8-1.1c0.3-0.5,1-0.4,1.4,0
			C857.8,145.8,857,147.5,855.4,148.4z"/>
	</g>
	<g class="st1">
		<path d="M862.8,146.1h-1.2v-7.8c-0.3,0.3-0.7,0.6-1.2,0.8c-0.5,0.3-0.9,0.5-1.3,0.6v-1.2c0.7-0.3,1.3-0.7,1.8-1.2
			c0.5-0.5,0.9-0.9,1.1-1.3h0.8V146.1z"/>
	</g>
</g>
<g>
	<path class="st3" d="M920,164.5h-41.5c-2.2,0-4-1.8-4-4V119c0-2.2,1.8-4,4-4H920c2.2,0,4,1.8,4,4v41.5
		C924,162.7,922.2,164.5,920,164.5z"/>
	<g class="st1">
		<path d="M894.1,141.1l1.9,0.5c-0.4,1.6-1.1,2.7-2.1,3.6c-1,0.8-2.3,1.2-3.8,1.2c-1.5,0-2.8-0.3-3.8-0.9s-1.7-1.5-2.2-2.7
			c-0.5-1.2-0.8-2.5-0.8-3.8c0-1.5,0.3-2.8,0.9-3.9c0.6-1.1,1.4-2,2.4-2.5c1.1-0.6,2.2-0.9,3.5-0.9c1.4,0,2.6,0.4,3.6,1.1
			s1.7,1.8,2,3.1l-1.9,0.4c-0.3-1-0.8-1.8-1.4-2.3c-0.6-0.5-1.4-0.7-2.4-0.7c-1.1,0-2,0.3-2.8,0.8c-0.7,0.5-1.3,1.2-1.6,2.1
			c-0.3,0.9-0.4,1.8-0.4,2.7c0,1.2,0.2,2.3,0.5,3.2c0.4,0.9,0.9,1.6,1.7,2c0.7,0.4,1.6,0.7,2.4,0.7c1.1,0,2-0.3,2.7-0.9
			C893.4,143.2,893.9,142.3,894.1,141.1z"/>
	</g>
	<g class="st1">
		<path d="M903.8,144.9v1.2h-6.6c0-0.3,0-0.6,0.1-0.9c0.2-0.5,0.4-0.9,0.8-1.3c0.4-0.4,0.9-0.9,1.6-1.5c1.1-0.9,1.8-1.6,2.2-2.1
			c0.4-0.5,0.6-1,0.6-1.5c0-0.5-0.2-0.9-0.5-1.2c-0.3-0.3-0.8-0.5-1.4-0.5c-0.6,0-1.1,0.2-1.4,0.5s-0.5,0.8-0.5,1.5l-1.3-0.1
			c0.1-0.9,0.4-1.7,1-2.2c0.6-0.5,1.3-0.7,2.3-0.7c1,0,1.7,0.3,2.3,0.8s0.8,1.2,0.8,2c0,0.4-0.1,0.8-0.2,1.2s-0.4,0.8-0.8,1.2
			c-0.4,0.4-1,1-1.9,1.8c-0.7,0.6-1.2,1-1.4,1.3c-0.2,0.2-0.4,0.4-0.5,0.7H903.8z"/>
	</g>
	<g class="st1">
		<path d="M907.4,148.4l-0.2-0.3c1.1-0.9,1.3-1.2,1.3-1.9c0-0.3-0.1-0.4-0.3-0.4c-0.8,0.1-1.2-0.6-0.8-1.1c0.3-0.5,1-0.4,1.4,0
			C909.8,145.8,909,147.5,907.4,148.4z"/>
	</g>
	<g class="st1">
		<path d="M916.7,144.9v1.2H910c0-0.3,0-0.6,0.1-0.9c0.2-0.5,0.4-0.9,0.8-1.3c0.4-0.4,0.9-0.9,1.6-1.5c1.1-0.9,1.8-1.6,2.2-2.1
			c0.4-0.5,0.6-1,0.6-1.5c0-0.5-0.2-0.9-0.5-1.2c-0.3-0.3-0.8-0.5-1.4-0.5c-0.6,0-1.1,0.2-1.4,0.5s-0.5,0.8-0.5,1.5l-1.3-0.1
			c0.1-0.9,0.4-1.7,1-2.2c0.6-0.5,1.3-0.7,2.3-0.7c1,0,1.7,0.3,2.3,0.8s0.8,1.2,0.8,2c0,0.4-0.1,0.8-0.2,1.2s-0.4,0.8-0.8,1.2
			c-0.4,0.4-1,1-1.9,1.8c-0.7,0.6-1.2,1-1.4,1.3c-0.2,0.2-0.4,0.4-0.5,0.7H916.7z"/>
	</g>
</g>
<g>
	<path class="st3" d="M972,164.5h-41.5c-2.2,0-4-1.8-4-4V119c0-2.2,1.8-4,4-4H972c2.2,0,4,1.8,4,4v41.5
		C976,162.7,974.2,164.5,972,164.5z"/>
	<g class="st1">
		<path d="M946.1,141.1l1.9,0.5c-0.4,1.6-1.1,2.7-2.1,3.6c-1,0.8-2.3,1.2-3.8,1.2c-1.5,0-2.8-0.3-3.8-0.9s-1.7-1.5-2.2-2.7
			c-0.5-1.2-0.8-2.5-0.8-3.8c0-1.5,0.3-2.8,0.9-3.9c0.6-1.1,1.4-2,2.4-2.5c1.1-0.6,2.2-0.9,3.5-0.9c1.4,0,2.6,0.4,3.6,1.1
			s1.7,1.8,2,3.1l-1.9,0.4c-0.3-1-0.8-1.8-1.4-2.3c-0.6-0.5-1.4-0.7-2.4-0.7c-1.1,0-2,0.3-2.8,0.8c-0.7,0.5-1.3,1.2-1.6,2.1
			c-0.3,0.9-0.4,1.8-0.4,2.7c0,1.2,0.2,2.3,0.5,3.2c0.4,0.9,0.9,1.6,1.7,2c0.7,0.4,1.6,0.7,2.4,0.7c1.1,0,2-0.3,2.7-0.9
			C945.4,143.2,945.9,142.3,946.1,141.1z"/>
	</g>
	<g class="st1">
		<path d="M955.8,144.9v1.2h-6.6c0-0.3,0-0.6,0.1-0.9c0.2-0.5,0.4-0.9,0.8-1.3c0.4-0.4,0.9-0.9,1.6-1.5c1.1-0.9,1.8-1.6,2.2-2.1
			c0.4-0.5,0.6-1,0.6-1.5c0-0.5-0.2-0.9-0.5-1.2c-0.3-0.3-0.8-0.5-1.4-0.5c-0.6,0-1.1,0.2-1.4,0.5s-0.5,0.8-0.5,1.5l-1.3-0.1
			c0.1-0.9,0.4-1.7,1-2.2c0.6-0.5,1.3-0.7,2.3-0.7c1,0,1.7,0.3,2.3,0.8s0.8,1.2,0.8,2c0,0.4-0.1,0.8-0.2,1.2s-0.4,0.8-0.8,1.2
			c-0.4,0.4-1,1-1.9,1.8c-0.7,0.6-1.2,1-1.4,1.3c-0.2,0.2-0.4,0.4-0.5,0.7H955.8z"/>
	</g>
	<g class="st1">
		<path d="M959.4,148.4l-0.2-0.3c1.1-0.9,1.3-1.2,1.3-1.9c0-0.3-0.1-0.4-0.3-0.4c-0.8,0.1-1.2-0.6-0.8-1.1c0.3-0.5,1-0.4,1.4,0
			C961.8,145.8,961,147.5,959.4,148.4z"/>
	</g>
	<g class="st1">
		<path d="M962.2,143.5l1.2-0.2c0.1,0.7,0.4,1.2,0.7,1.5c0.3,0.3,0.8,0.5,1.2,0.5c0.6,0,1.1-0.2,1.5-0.6c0.4-0.4,0.6-0.9,0.6-1.5
			c0-0.6-0.2-1-0.6-1.4c-0.4-0.4-0.8-0.6-1.4-0.6c-0.2,0-0.5,0-0.9,0.1l0.1-1.1c0.1,0,0.1,0,0.2,0c0.5,0,1-0.1,1.4-0.4
			c0.4-0.3,0.6-0.7,0.6-1.3c0-0.5-0.2-0.8-0.5-1.1c-0.3-0.3-0.7-0.4-1.2-0.4c-0.5,0-0.9,0.2-1.2,0.5c-0.3,0.3-0.5,0.8-0.6,1.4
			l-1.2-0.2c0.2-0.8,0.5-1.5,1-1.9c0.5-0.5,1.2-0.7,2-0.7c0.5,0,1.1,0.1,1.5,0.4c0.5,0.2,0.8,0.6,1.1,1c0.2,0.4,0.4,0.8,0.4,1.3
			c0,0.4-0.1,0.8-0.3,1.2s-0.6,0.6-1,0.8c0.6,0.1,1.1,0.4,1.4,0.9c0.3,0.4,0.5,1,0.5,1.6c0,0.9-0.3,1.6-1,2.2
			c-0.6,0.6-1.4,0.9-2.4,0.9c-0.9,0-1.6-0.3-2.2-0.8S962.3,144.3,962.2,143.5z"/>
	</g>
</g>
<g>
	<path class="st3" d="M868,112.5h-41.5c-2.2,0-4-1.8-4-4V67c0-2.2,1.8-4,4-4H868c2.2,0,4,1.8,4,4v41.5
		C872,110.7,870.2,112.5,868,112.5z"/>
	<g class="st1">
		<path d="M842.1,89.1l1.9,0.5c-0.4,1.6-1.1,2.7-2.1,3.6c-1,0.8-2.3,1.2-3.8,1.2c-1.5,0-2.8-0.3-3.8-0.9s-1.7-1.5-2.2-2.7
			c-0.5-1.2-0.8-2.5-0.8-3.8c0-1.5,0.3-2.8,0.9-3.9c0.6-1.1,1.4-2,2.4-2.5c1.1-0.6,2.2-0.9,3.5-0.9c1.4,0,2.6,0.4,3.6,1.1
			s1.7,1.8,2,3.1l-1.9,0.4c-0.3-1-0.8-1.8-1.4-2.3c-0.6-0.5-1.4-0.7-2.4-0.7c-1.1,0-2,0.3-2.8,0.8c-0.7,0.5-1.3,1.2-1.6,2.1
			c-0.3,0.9-0.4,1.8-0.4,2.7c0,1.2,0.2,2.3,0.5,3.2c0.4,0.9,0.9,1.6,1.7,2c0.7,0.4,1.6,0.7,2.4,0.7c1.1,0,2-0.3,2.7-0.9
			C841.4,91.2,841.9,90.3,842.1,89.1z"/>
	</g>
	<g class="st1">
		<path d="M850,94.1h-1.2v-7.8c-0.3,0.3-0.7,0.6-1.2,0.8c-0.5,0.3-0.9,0.5-1.3,0.6v-1.2c0.7-0.3,1.3-0.7,1.8-1.2s0.9-0.9,1.1-1.3
			h0.8V94.1z"/>
	</g>
	<g class="st1">
		<path d="M855.4,96.4l-0.2-0.3c1.1-0.9,1.3-1.2,1.3-1.9c0-0.3-0.1-0.4-0.3-0.4c-0.8,0.1-1.2-0.6-0.8-1.1c0.3-0.5,1-0.4,1.4,0
			C857.8,93.8,857,95.5,855.4,96.4z"/>
	</g>
	<g class="st1">
		<path d="M862.8,94.1h-1.2v-7.8c-0.3,0.3-0.7,0.6-1.2,0.8c-0.5,0.3-0.9,0.5-1.3,0.6v-1.2c0.7-0.3,1.3-0.7,1.8-1.2
			c0.5-0.5,0.9-0.9,1.1-1.3h0.8V94.1z"/>
	</g>
</g>
<g>
	<path class="st3" d="M920,112.5h-41.5c-2.2,0-4-1.8-4-4V67c0-2.2,1.8-4,4-4H920c2.2,0,4,1.8,4,4v41.5
		C924,110.7,922.2,112.5,920,112.5z"/>
	<g class="st1">
		<path d="M894.1,89.1l1.9,0.5c-0.4,1.6-1.1,2.7-2.1,3.6c-1,0.8-2.3,1.2-3.8,1.2c-1.5,0-2.8-0.3-3.8-0.9s-1.7-1.5-2.2-2.7
			c-0.5-1.2-0.8-2.5-0.8-3.8c0-1.5,0.3-2.8,0.9-3.9c0.6-1.1,1.4-2,2.4-2.5c1.1-0.6,2.2-0.9,3.5-0.9c1.4,0,2.6,0.4,3.6,1.1
			s1.7,1.8,2,3.1l-1.9,0.4c-0.3-1-0.8-1.8-1.4-2.3c-0.6-0.5-1.4-0.7-2.4-0.7c-1.1,0-2,0.3-2.8,0.8c-0.7,0.5-1.3,1.2-1.6,2.1
			c-0.3,0.9-0.4,1.8-0.4,2.7c0,1.2,0.2,2.3,0.5,3.2c0.4,0.9,0.9,1.6,1.7,2c0.7,0.4,1.6,0.7,2.4,0.7c1.1,0,2-0.3,2.7-0.9
			C893.4,91.2,893.9,90.3,894.1,89.1z"/>
	</g>
	<g class="st1">
		<path d="M902,94.1h-1.2v-7.8c-0.3,0.3-0.7,0.6-1.2,0.8c-0.5,0.3-0.9,0.5-1.3,0.6v-1.2c0.7-0.3,1.3-0.7,1.8-1.2s0.9-0.9,1.1-1.3
			h0.8V94.1z"/>
	</g>
	<g class="st1">
		<path d="M907.4,96.4l-0.2-0.3c1.1-0.9,1.3-1.2,1.3-1.9c0-0.3-0.1-0.4-0.3-0.4c-0.8,0.1-1.2-0.6-0.8-1.1c0.3-0.5,1-0.4,1.4,0
			C909.8,93.8,909,95.5,907.4,96.4z"/>
	</g>
	<g class="st1">
		<path d="M916.7,92.9v1.2H910c0-0.3,0-0.6,0.1-0.9c0.2-0.5,0.4-0.9,0.8-1.3c0.4-0.4,0.9-0.9,1.6-1.5c1.1-0.9,1.8-1.6,2.2-2.1
			c0.4-0.5,0.6-1,0.6-1.5c0-0.5-0.2-0.9-0.5-1.2c-0.3-0.3-0.8-0.5-1.4-0.5c-0.6,0-1.1,0.2-1.4,0.5s-0.5,0.8-0.5,1.5l-1.3-0.1
			c0.1-0.9,0.4-1.7,1-2.2c0.6-0.5,1.3-0.7,2.3-0.7c1,0,1.7,0.3,2.3,0.8s0.8,1.2,0.8,2c0,0.4-0.1,0.8-0.2,1.2s-0.4,0.8-0.8,1.2
			c-0.4,0.4-1,1-1.9,1.8c-0.7,0.6-1.2,1-1.4,1.3c-0.2,0.2-0.4,0.4-0.5,0.7H916.7z"/>
	</g>
</g>
<g>
	<path class="st3" d="M972,112.5h-41.5c-2.2,0-4-1.8-4-4V67c0-2.2,1.8-4,4-4H972c2.2,0,4,1.8,4,4v41.5
		C976,110.7,974.2,112.5,972,112.5z"/>
	<g class="st1">
		<path d="M946.1,89.1l1.9,0.5c-0.4,1.6-1.1,2.7-2.1,3.6c-1,0.8-2.3,1.2-3.8,1.2c-1.5,0-2.8-0.3-3.8-0.9s-1.7-1.5-2.2-2.7
			c-0.5-1.2-0.8-2.5-0.8-3.8c0-1.5,0.3-2.8,0.9-3.9c0.6-1.1,1.4-2,2.4-2.5c1.1-0.6,2.2-0.9,3.5-0.9c1.4,0,2.6,0.4,3.6,1.1
			s1.7,1.8,2,3.1l-1.9,0.4c-0.3-1-0.8-1.8-1.4-2.3c-0.6-0.5-1.4-0.7-2.4-0.7c-1.1,0-2,0.3-2.8,0.8c-0.7,0.5-1.3,1.2-1.6,2.1
			c-0.3,0.9-0.4,1.8-0.4,2.7c0,1.2,0.2,2.3,0.5,3.2c0.4,0.9,0.9,1.6,1.7,2c0.7,0.4,1.6,0.7,2.4,0.7c1.1,0,2-0.3,2.7-0.9
			C945.4,91.2,945.9,90.3,946.1,89.1z"/>
	</g>
	<g class="st1">
		<path d="M954,94.1h-1.2v-7.8c-0.3,0.3-0.7,0.6-1.2,0.8c-0.5,0.3-0.9,0.5-1.3,0.6v-1.2c0.7-0.3,1.3-0.7,1.8-1.2s0.9-0.9,1.1-1.3
			h0.8V94.1z"/>
	</g>
	<g class="st1">
		<path d="M959.4,96.4l-0.2-0.3c1.1-0.9,1.3-1.2,1.3-1.9c0-0.3-0.1-0.4-0.3-0.4c-0.8,0.1-1.2-0.6-0.8-1.1c0.3-0.5,1-0.4,1.4,0
			C961.8,93.8,961,95.5,959.4,96.4z"/>
	</g>
	<g class="st1">
		<path d="M962.2,91.5l1.2-0.2c0.1,0.7,0.4,1.2,0.7,1.5c0.3,0.3,0.8,0.5,1.2,0.5c0.6,0,1.1-0.2,1.5-0.6c0.4-0.4,0.6-0.9,0.6-1.5
			c0-0.6-0.2-1-0.6-1.4c-0.4-0.4-0.8-0.6-1.4-0.6c-0.2,0-0.5,0-0.9,0.1l0.1-1.1c0.1,0,0.1,0,0.2,0c0.5,0,1-0.1,1.4-0.4
			c0.4-0.3,0.6-0.7,0.6-1.3c0-0.5-0.2-0.8-0.5-1.1c-0.3-0.3-0.7-0.4-1.2-0.4c-0.5,0-0.9,0.2-1.2,0.5c-0.3,0.3-0.5,0.8-0.6,1.4
			l-1.2-0.2c0.2-0.8,0.5-1.5,1-1.9c0.5-0.5,1.2-0.7,2-0.7c0.5,0,1.1,0.1,1.5,0.4c0.5,0.2,0.8,0.6,1.1,1c0.2,0.4,0.4,0.8,0.4,1.3
			c0,0.4-0.1,0.8-0.3,1.2s-0.6,0.6-1,0.8c0.6,0.1,1.1,0.4,1.4,0.9c0.3,0.4,0.5,1,0.5,1.6c0,0.9-0.3,1.6-1,2.2
			c-0.6,0.6-1.4,0.9-2.4,0.9c-0.9,0-1.6-0.3-2.2-0.8S962.3,92.3,962.2,91.5z"/>
	</g>
</g>
<g>
	<path class="st2" d="M515,112.5h-41.5c-2.2,0-4-1.8-4-4V67c0-2.2,1.8-4,4-4H515c2.2,0,4,1.8,4,4v41.5
		C519,110.7,517.2,112.5,515,112.5z"/>
	<g class="st1">
		<path d="M479.4,94.1V79.8h5.4c1.1,0,2,0.1,2.6,0.4s1.2,0.7,1.6,1.3s0.6,1.2,0.6,1.9c0,0.6-0.2,1.2-0.5,1.7s-0.8,1-1.5,1.3
			c0.9,0.3,1.5,0.7,2,1.3s0.7,1.3,0.7,2.2c0,0.7-0.1,1.3-0.4,1.9s-0.6,1-1,1.3s-0.9,0.5-1.6,0.7s-1.4,0.2-2.3,0.2H479.4z
			 M481.3,85.8h3.1c0.8,0,1.4-0.1,1.8-0.2c0.5-0.1,0.8-0.4,1.1-0.7s0.4-0.7,0.4-1.3c0-0.5-0.1-0.9-0.3-1.3s-0.6-0.6-1-0.7
			s-1.1-0.2-2.2-0.2h-2.9V85.8z M481.3,92.4h3.6c0.6,0,1,0,1.3-0.1c0.4-0.1,0.8-0.2,1.1-0.4s0.5-0.4,0.7-0.8s0.3-0.8,0.3-1.2
			c0-0.5-0.1-1-0.4-1.4s-0.7-0.7-1.1-0.8s-1.2-0.2-2.1-0.2h-3.3V92.4z"/>
	</g>
	<g class="st1">
		<path d="M496.5,94.1h-1.2v-7.8c-0.3,0.3-0.7,0.6-1.2,0.8s-0.9,0.5-1.3,0.6v-1.2c0.7-0.3,1.3-0.7,1.8-1.2s0.9-0.9,1.1-1.3h0.8V94.1
			z"/>
	</g>
	<g class="st1">
		<path d="M501.8,96.4l-0.2-0.3c1.1-0.9,1.3-1.2,1.3-1.9c0-0.3-0.1-0.4-0.3-0.4c-0.8,0.1-1.2-0.6-0.8-1.1c0.3-0.5,1-0.4,1.4,0
			C504.2,93.8,503.4,95.5,501.8,96.4z"/>
	</g>
	<g class="st1">
		<path d="M505.2,89.2c0-1.2,0.1-2.1,0.4-2.9c0.2-0.7,0.6-1.3,1.1-1.7s1.1-0.6,1.8-0.6c0.5,0,1,0.1,1.4,0.3c0.4,0.2,0.7,0.5,1,0.9
			c0.3,0.4,0.5,0.9,0.6,1.5c0.2,0.6,0.2,1.4,0.2,2.4c0,1.2-0.1,2.1-0.4,2.8c-0.2,0.7-0.6,1.3-1.1,1.7c-0.5,0.4-1.1,0.6-1.8,0.6
			c-1,0-1.7-0.3-2.3-1C505.5,92.4,505.2,91.1,505.2,89.2z M506.5,89.2c0,1.6,0.2,2.7,0.6,3.3c0.4,0.5,0.9,0.8,1.4,0.8s1-0.3,1.4-0.8
			s0.6-1.6,0.6-3.3c0-1.6-0.2-2.7-0.6-3.3s-0.9-0.8-1.4-0.8c-0.6,0-1,0.2-1.4,0.7C506.7,86.4,506.5,87.5,506.5,89.2z"/>
	</g>
</g>
<g>
	<path class="st2" d="M515,164.5h-41.5c-2.2,0-4-1.8-4-4V119c0-2.2,1.8-4,4-4H515c2.2,0,4,1.8,4,4v41.5
		C519,162.7,517.2,164.5,515,164.5z"/>
	<g class="st1">
		<path d="M479.4,146.1v-14.3h5.4c1.1,0,2,0.1,2.6,0.4s1.2,0.7,1.6,1.3s0.6,1.2,0.6,1.9c0,0.6-0.2,1.2-0.5,1.7s-0.8,1-1.5,1.3
			c0.9,0.3,1.5,0.7,2,1.3s0.7,1.3,0.7,2.2c0,0.7-0.1,1.3-0.4,1.9s-0.6,1-1,1.3s-0.9,0.5-1.6,0.7s-1.4,0.2-2.3,0.2H479.4z
			 M481.3,137.8h3.1c0.8,0,1.4-0.1,1.8-0.2c0.5-0.1,0.8-0.4,1.1-0.7s0.4-0.7,0.4-1.3c0-0.5-0.1-0.9-0.3-1.3s-0.6-0.6-1-0.7
			s-1.1-0.2-2.2-0.2h-2.9V137.8z M481.3,144.4h3.6c0.6,0,1,0,1.3-0.1c0.4-0.1,0.8-0.2,1.1-0.4s0.5-0.4,0.7-0.8s0.3-0.8,0.3-1.2
			c0-0.5-0.1-1-0.4-1.4s-0.7-0.7-1.1-0.8s-1.2-0.2-2.1-0.2h-3.3V144.4z"/>
	</g>
	<g class="st1">
		<path d="M498.3,144.9v1.2h-6.6c0-0.3,0-0.6,0.1-0.9c0.2-0.5,0.4-0.9,0.8-1.3s0.9-0.9,1.6-1.5c1.1-0.9,1.8-1.6,2.2-2.1
			c0.4-0.5,0.6-1,0.6-1.5c0-0.5-0.2-0.9-0.5-1.2c-0.3-0.3-0.8-0.5-1.4-0.5c-0.6,0-1.1,0.2-1.4,0.5s-0.5,0.8-0.5,1.5l-1.3-0.1
			c0.1-0.9,0.4-1.7,1-2.2c0.6-0.5,1.3-0.7,2.3-0.7c1,0,1.7,0.3,2.3,0.8s0.8,1.2,0.8,2c0,0.4-0.1,0.8-0.2,1.2s-0.4,0.8-0.8,1.2
			s-1,1-1.9,1.8c-0.7,0.6-1.2,1-1.4,1.3c-0.2,0.2-0.4,0.4-0.5,0.7H498.3z"/>
	</g>
	<g class="st1">
		<path d="M501.8,148.4l-0.2-0.3c1.1-0.9,1.3-1.2,1.3-1.9c0-0.3-0.1-0.4-0.3-0.4c-0.8,0.1-1.2-0.6-0.8-1.1c0.3-0.5,1-0.4,1.4,0
			C504.2,145.8,503.4,147.5,501.8,148.4z"/>
	</g>
	<g class="st1">
		<path d="M505.2,141.2c0-1.2,0.1-2.1,0.4-2.9c0.2-0.7,0.6-1.3,1.1-1.7s1.1-0.6,1.8-0.6c0.5,0,1,0.1,1.4,0.3c0.4,0.2,0.7,0.5,1,0.9
			c0.3,0.4,0.5,0.9,0.6,1.5c0.2,0.6,0.2,1.4,0.2,2.4c0,1.2-0.1,2.1-0.4,2.8c-0.2,0.7-0.6,1.3-1.1,1.7c-0.5,0.4-1.1,0.6-1.8,0.6
			c-1,0-1.7-0.3-2.3-1C505.5,144.4,505.2,143.1,505.2,141.2z M506.5,141.2c0,1.6,0.2,2.7,0.6,3.3c0.4,0.5,0.9,0.8,1.4,0.8
			s1-0.3,1.4-0.8s0.6-1.6,0.6-3.3c0-1.6-0.2-2.7-0.6-3.3s-0.9-0.8-1.4-0.8c-0.6,0-1,0.2-1.4,0.7
			C506.7,138.4,506.5,139.5,506.5,141.2z"/>
	</g>
</g>
<g>
	<path class="st2" d="M515,216.5h-41.5c-2.2,0-4-1.8-4-4V171c0-2.2,1.8-4,4-4H515c2.2,0,4,1.8,4,4v41.5
		C519,214.7,517.2,216.5,515,216.5z"/>
	<g class="st1">
		<path d="M479.4,198.1v-14.3h5.4c1.1,0,2,0.1,2.6,0.4s1.2,0.7,1.6,1.3s0.6,1.2,0.6,1.9c0,0.6-0.2,1.2-0.5,1.7s-0.8,1-1.5,1.3
			c0.9,0.3,1.5,0.7,2,1.3s0.7,1.3,0.7,2.2c0,0.7-0.1,1.3-0.4,1.9s-0.6,1-1,1.3s-0.9,0.5-1.6,0.7s-1.4,0.2-2.3,0.2H479.4z
			 M481.3,189.8h3.1c0.8,0,1.4-0.1,1.8-0.2c0.5-0.1,0.8-0.4,1.1-0.7s0.4-0.7,0.4-1.3c0-0.5-0.1-0.9-0.3-1.3s-0.6-0.6-1-0.7
			s-1.1-0.2-2.2-0.2h-2.9V189.8z M481.3,196.4h3.6c0.6,0,1,0,1.3-0.1c0.4-0.1,0.8-0.2,1.1-0.4s0.5-0.4,0.7-0.8s0.3-0.8,0.3-1.2
			c0-0.5-0.1-1-0.4-1.4s-0.7-0.7-1.1-0.8s-1.2-0.2-2.1-0.2h-3.3V196.4z"/>
	</g>
	<g class="st1">
		<path d="M498.3,196.9v1.2h-6.6c0-0.3,0-0.6,0.1-0.9c0.2-0.5,0.4-0.9,0.8-1.3s0.9-0.9,1.6-1.5c1.1-0.9,1.8-1.6,2.2-2.1
			c0.4-0.5,0.6-1,0.6-1.5c0-0.5-0.2-0.9-0.5-1.2c-0.3-0.3-0.8-0.5-1.4-0.5c-0.6,0-1.1,0.2-1.4,0.5s-0.5,0.8-0.5,1.5l-1.3-0.1
			c0.1-0.9,0.4-1.7,1-2.2c0.6-0.5,1.3-0.7,2.3-0.7c1,0,1.7,0.3,2.3,0.8s0.8,1.2,0.8,2c0,0.4-0.1,0.8-0.2,1.2s-0.4,0.8-0.8,1.2
			s-1,1-1.9,1.8c-0.7,0.6-1.2,1-1.4,1.3c-0.2,0.2-0.4,0.4-0.5,0.7H498.3z"/>
	</g>
	<g class="st1">
		<path d="M501.8,200.4l-0.2-0.3c1.1-0.9,1.3-1.2,1.3-1.9c0-0.3-0.1-0.4-0.3-0.4c-0.8,0.1-1.2-0.6-0.8-1.1c0.3-0.5,1-0.4,1.4,0
			C504.2,197.8,503.4,199.5,501.8,200.4z"/>
	</g>
	<g class="st1">
		<path d="M505.2,193.2c0-1.2,0.1-2.1,0.4-2.9c0.2-0.7,0.6-1.3,1.1-1.7s1.1-0.6,1.8-0.6c0.5,0,1,0.1,1.4,0.3c0.4,0.2,0.7,0.5,1,0.9
			c0.3,0.4,0.5,0.9,0.6,1.5c0.2,0.6,0.2,1.4,0.2,2.4c0,1.2-0.1,2.1-0.4,2.8c-0.2,0.7-0.6,1.3-1.1,1.7c-0.5,0.4-1.1,0.6-1.8,0.6
			c-1,0-1.7-0.3-2.3-1C505.5,196.4,505.2,195.1,505.2,193.2z M506.5,193.2c0,1.6,0.2,2.7,0.6,3.3c0.4,0.5,0.9,0.8,1.4,0.8
			s1-0.3,1.4-0.8s0.6-1.6,0.6-3.3c0-1.6-0.2-2.7-0.6-3.3s-0.9-0.8-1.4-0.8c-0.6,0-1,0.2-1.4,0.7
			C506.7,190.4,506.5,191.5,506.5,193.2z"/>
	</g>
</g>
<g>
	<path class="st2" d="M567,216.5h-41.5c-2.2,0-4-1.8-4-4V171c0-2.2,1.8-4,4-4H567c2.2,0,4,1.8,4,4v41.5
		C571,214.7,569.2,216.5,567,216.5z"/>
	<g class="st1">
		<path d="M531.4,198.1v-14.3h5.4c1.1,0,2,0.1,2.6,0.4c0.7,0.3,1.2,0.7,1.6,1.3c0.4,0.6,0.6,1.2,0.6,1.9c0,0.6-0.2,1.2-0.5,1.7
			s-0.8,1-1.5,1.3c0.9,0.3,1.5,0.7,2,1.3c0.5,0.6,0.7,1.3,0.7,2.2c0,0.7-0.1,1.3-0.4,1.9s-0.6,1-1,1.3c-0.4,0.3-0.9,0.5-1.6,0.7
			c-0.6,0.2-1.4,0.2-2.3,0.2H531.4z M533.3,189.8h3.1c0.8,0,1.4-0.1,1.8-0.2c0.5-0.1,0.8-0.4,1.1-0.7s0.4-0.7,0.4-1.3
			c0-0.5-0.1-0.9-0.3-1.3c-0.2-0.4-0.6-0.6-1-0.7c-0.4-0.1-1.1-0.2-2.2-0.2h-2.9V189.8z M533.3,196.4h3.6c0.6,0,1,0,1.3-0.1
			c0.4-0.1,0.8-0.2,1.1-0.4s0.5-0.4,0.7-0.8c0.2-0.3,0.3-0.8,0.3-1.2c0-0.5-0.1-1-0.4-1.4s-0.7-0.7-1.1-0.8
			c-0.5-0.2-1.2-0.2-2.1-0.2h-3.3V196.4z"/>
	</g>
	<g class="st1">
		<path d="M550.3,196.9v1.2h-6.6c0-0.3,0-0.6,0.1-0.9c0.2-0.5,0.4-0.9,0.8-1.3c0.4-0.4,0.9-0.9,1.6-1.5c1.1-0.9,1.8-1.6,2.2-2.1
			c0.4-0.5,0.6-1,0.6-1.5c0-0.5-0.2-0.9-0.5-1.2c-0.3-0.3-0.8-0.5-1.4-0.5c-0.6,0-1.1,0.2-1.4,0.5s-0.5,0.8-0.5,1.5l-1.3-0.1
			c0.1-0.9,0.4-1.7,1-2.2c0.6-0.5,1.3-0.7,2.3-0.7c1,0,1.7,0.3,2.3,0.8s0.8,1.2,0.8,2c0,0.4-0.1,0.8-0.2,1.2s-0.4,0.8-0.8,1.2
			c-0.4,0.4-1,1-1.9,1.8c-0.7,0.6-1.2,1-1.4,1.3c-0.2,0.2-0.4,0.4-0.5,0.7H550.3z"/>
	</g>
	<g class="st1">
		<path d="M553.8,200.4l-0.2-0.3c1.1-0.9,1.3-1.2,1.3-1.9c0-0.3-0.1-0.4-0.3-0.4c-0.8,0.1-1.2-0.6-0.8-1.1c0.3-0.5,1-0.4,1.4,0
			C556.2,197.8,555.4,199.5,553.8,200.4z"/>
	</g>
	<g class="st1">
		<path d="M561.8,198.1h-1.2v-7.8c-0.3,0.3-0.7,0.6-1.2,0.8c-0.5,0.3-0.9,0.5-1.3,0.6v-1.2c0.7-0.3,1.3-0.7,1.8-1.2
			c0.5-0.5,0.9-0.9,1.1-1.3h0.8V198.1z"/>
	</g>
</g>
<g>
	<path class="st2" d="M619,216.5h-41.5c-2.2,0-4-1.8-4-4V171c0-2.2,1.8-4,4-4H619c2.2,0,4,1.8,4,4v41.5
		C623,214.7,621.2,216.5,619,216.5z"/>
	<g class="st1">
		<path d="M583.4,198.1v-14.3h5.4c1.1,0,2,0.1,2.6,0.4c0.7,0.3,1.2,0.7,1.6,1.3c0.4,0.6,0.6,1.2,0.6,1.9c0,0.6-0.2,1.2-0.5,1.7
			s-0.8,1-1.5,1.3c0.9,0.3,1.5,0.7,2,1.3c0.5,0.6,0.7,1.3,0.7,2.2c0,0.7-0.1,1.3-0.4,1.9s-0.6,1-1,1.3c-0.4,0.3-0.9,0.5-1.6,0.7
			c-0.6,0.2-1.4,0.2-2.3,0.2H583.4z M585.3,189.8h3.1c0.8,0,1.4-0.1,1.8-0.2c0.5-0.1,0.8-0.4,1.1-0.7s0.4-0.7,0.4-1.3
			c0-0.5-0.1-0.9-0.3-1.3c-0.2-0.4-0.6-0.6-1-0.7c-0.4-0.1-1.1-0.2-2.2-0.2h-2.9V189.8z M585.3,196.4h3.6c0.6,0,1,0,1.3-0.1
			c0.4-0.1,0.8-0.2,1.1-0.4s0.5-0.4,0.7-0.8c0.2-0.3,0.3-0.8,0.3-1.2c0-0.5-0.1-1-0.4-1.4s-0.7-0.7-1.1-0.8
			c-0.5-0.2-1.2-0.2-2.1-0.2h-3.3V196.4z"/>
	</g>
	<g class="st1">
		<path d="M602.3,196.9v1.2h-6.6c0-0.3,0-0.6,0.1-0.9c0.2-0.5,0.4-0.9,0.8-1.3c0.4-0.4,0.9-0.9,1.6-1.5c1.1-0.9,1.8-1.6,2.2-2.1
			c0.4-0.5,0.6-1,0.6-1.5c0-0.5-0.2-0.9-0.5-1.2c-0.3-0.3-0.8-0.5-1.4-0.5c-0.6,0-1.1,0.2-1.4,0.5s-0.5,0.8-0.5,1.5l-1.3-0.1
			c0.1-0.9,0.4-1.7,1-2.2c0.6-0.5,1.3-0.7,2.3-0.7c1,0,1.7,0.3,2.3,0.8s0.8,1.2,0.8,2c0,0.4-0.1,0.8-0.2,1.2s-0.4,0.8-0.8,1.2
			c-0.4,0.4-1,1-1.9,1.8c-0.7,0.6-1.2,1-1.4,1.3c-0.2,0.2-0.4,0.4-0.5,0.7H602.3z"/>
	</g>
	<g class="st1">
		<path d="M605.8,200.4l-0.2-0.3c1.1-0.9,1.3-1.2,1.3-1.9c0-0.3-0.1-0.4-0.3-0.4c-0.8,0.1-1.2-0.6-0.8-1.1c0.3-0.5,1-0.4,1.4,0
			C608.2,197.8,607.4,199.5,605.8,200.4z"/>
	</g>
	<g class="st1">
		<path d="M615.7,196.9v1.2H609c0-0.3,0-0.6,0.1-0.9c0.2-0.5,0.4-0.9,0.8-1.3c0.4-0.4,0.9-0.9,1.6-1.5c1.1-0.9,1.8-1.6,2.2-2.1
			c0.4-0.5,0.6-1,0.6-1.5c0-0.5-0.2-0.9-0.5-1.2c-0.3-0.3-0.8-0.5-1.4-0.5c-0.6,0-1.1,0.2-1.4,0.5s-0.5,0.8-0.5,1.5l-1.3-0.1
			c0.1-0.9,0.4-1.7,1-2.2c0.6-0.5,1.3-0.7,2.3-0.7c1,0,1.7,0.3,2.3,0.8s0.8,1.2,0.8,2c0,0.4-0.1,0.8-0.2,1.2s-0.4,0.8-0.8,1.2
			c-0.4,0.4-1,1-1.9,1.8c-0.7,0.6-1.2,1-1.4,1.3c-0.2,0.2-0.4,0.4-0.5,0.7H615.7z"/>
	</g>
</g>
<g>
	<path class="st2" d="M671,216.5h-41.5c-2.2,0-4-1.8-4-4V171c0-2.2,1.8-4,4-4H671c2.2,0,4,1.8,4,4v41.5
		C675,214.7,673.2,216.5,671,216.5z"/>
	<g class="st1">
		<path d="M635.4,198.1v-14.3h5.4c1.1,0,2,0.1,2.6,0.4c0.7,0.3,1.2,0.7,1.6,1.3c0.4,0.6,0.6,1.2,0.6,1.9c0,0.6-0.2,1.2-0.5,1.7
			s-0.8,1-1.5,1.3c0.9,0.3,1.5,0.7,2,1.3c0.5,0.6,0.7,1.3,0.7,2.2c0,0.7-0.1,1.3-0.4,1.9s-0.6,1-1,1.3c-0.4,0.3-0.9,0.5-1.6,0.7
			c-0.6,0.2-1.4,0.2-2.3,0.2H635.4z M637.3,189.8h3.1c0.8,0,1.4-0.1,1.8-0.2c0.5-0.1,0.8-0.4,1.1-0.7s0.4-0.7,0.4-1.3
			c0-0.5-0.1-0.9-0.3-1.3c-0.2-0.4-0.6-0.6-1-0.7c-0.4-0.1-1.1-0.2-2.2-0.2h-2.9V189.8z M637.3,196.4h3.6c0.6,0,1,0,1.3-0.1
			c0.4-0.1,0.8-0.2,1.1-0.4s0.5-0.4,0.7-0.8c0.2-0.3,0.3-0.8,0.3-1.2c0-0.5-0.1-1-0.4-1.4s-0.7-0.7-1.1-0.8
			c-0.5-0.2-1.2-0.2-2.1-0.2h-3.3V196.4z"/>
	</g>
	<g class="st1">
		<path d="M654.3,196.9v1.2h-6.6c0-0.3,0-0.6,0.1-0.9c0.2-0.5,0.4-0.9,0.8-1.3c0.4-0.4,0.9-0.9,1.6-1.5c1.1-0.9,1.8-1.6,2.2-2.1
			c0.4-0.5,0.6-1,0.6-1.5c0-0.5-0.2-0.9-0.5-1.2c-0.3-0.3-0.8-0.5-1.4-0.5c-0.6,0-1.1,0.2-1.4,0.5s-0.5,0.8-0.5,1.5l-1.3-0.1
			c0.1-0.9,0.4-1.7,1-2.2c0.6-0.5,1.3-0.7,2.3-0.7c1,0,1.7,0.3,2.3,0.8s0.8,1.2,0.8,2c0,0.4-0.1,0.8-0.2,1.2s-0.4,0.8-0.8,1.2
			c-0.4,0.4-1,1-1.9,1.8c-0.7,0.6-1.2,1-1.4,1.3c-0.2,0.2-0.4,0.4-0.5,0.7H654.3z"/>
	</g>
	<g class="st1">
		<path d="M657.8,200.4l-0.2-0.3c1.1-0.9,1.3-1.2,1.3-1.9c0-0.3-0.1-0.4-0.3-0.4c-0.8,0.1-1.2-0.6-0.8-1.1c0.3-0.5,1-0.4,1.4,0
			C660.2,197.8,659.4,199.5,657.8,200.4z"/>
	</g>
	<g class="st1">
		<path d="M661.2,195.5l1.2-0.2c0.1,0.7,0.4,1.2,0.7,1.5c0.3,0.3,0.8,0.5,1.2,0.5c0.6,0,1.1-0.2,1.5-0.6c0.4-0.4,0.6-0.9,0.6-1.5
			c0-0.6-0.2-1-0.6-1.4c-0.4-0.4-0.8-0.6-1.4-0.6c-0.2,0-0.5,0-0.9,0.1l0.1-1.1c0.1,0,0.1,0,0.2,0c0.5,0,1-0.1,1.4-0.4
			c0.4-0.3,0.6-0.7,0.6-1.3c0-0.5-0.2-0.8-0.5-1.1c-0.3-0.3-0.7-0.4-1.2-0.4c-0.5,0-0.9,0.2-1.2,0.5c-0.3,0.3-0.5,0.8-0.6,1.4
			l-1.2-0.2c0.2-0.8,0.5-1.5,1-1.9c0.5-0.5,1.2-0.7,2-0.7c0.5,0,1.1,0.1,1.5,0.4c0.5,0.2,0.8,0.6,1.1,1c0.2,0.4,0.4,0.8,0.4,1.3
			c0,0.4-0.1,0.8-0.3,1.2s-0.6,0.6-1,0.8c0.6,0.1,1.1,0.4,1.4,0.9c0.3,0.4,0.5,1,0.5,1.6c0,0.9-0.3,1.6-1,2.2
			c-0.6,0.6-1.4,0.9-2.4,0.9c-0.9,0-1.6-0.3-2.2-0.8S661.3,196.3,661.2,195.5z"/>
	</g>
</g>
<g>
	<path class="st2" d="M567,164.5h-41.5c-2.2,0-4-1.8-4-4V119c0-2.2,1.8-4,4-4H567c2.2,0,4,1.8,4,4v41.5
		C571,162.7,569.2,164.5,567,164.5z"/>
	<g class="st1">
		<path d="M531.4,146.1v-14.3h5.4c1.1,0,2,0.1,2.6,0.4c0.7,0.3,1.2,0.7,1.6,1.3c0.4,0.6,0.6,1.2,0.6,1.9c0,0.6-0.2,1.2-0.5,1.7
			s-0.8,1-1.5,1.3c0.9,0.3,1.5,0.7,2,1.3c0.5,0.6,0.7,1.3,0.7,2.2c0,0.7-0.1,1.3-0.4,1.9s-0.6,1-1,1.3c-0.4,0.3-0.9,0.5-1.6,0.7
			c-0.6,0.2-1.4,0.2-2.3,0.2H531.4z M533.3,137.8h3.1c0.8,0,1.4-0.1,1.8-0.2c0.5-0.1,0.8-0.4,1.1-0.7s0.4-0.7,0.4-1.3
			c0-0.5-0.1-0.9-0.3-1.3c-0.2-0.4-0.6-0.6-1-0.7c-0.4-0.1-1.1-0.2-2.2-0.2h-2.9V137.8z M533.3,144.4h3.6c0.6,0,1,0,1.3-0.1
			c0.4-0.1,0.8-0.2,1.1-0.4s0.5-0.4,0.7-0.8c0.2-0.3,0.3-0.8,0.3-1.2c0-0.5-0.1-1-0.4-1.4s-0.7-0.7-1.1-0.8
			c-0.5-0.2-1.2-0.2-2.1-0.2h-3.3V144.4z"/>
	</g>
	<g class="st1">
		<path d="M550.3,144.9v1.2h-6.6c0-0.3,0-0.6,0.1-0.9c0.2-0.5,0.4-0.9,0.8-1.3c0.4-0.4,0.9-0.9,1.6-1.5c1.1-0.9,1.8-1.6,2.2-2.1
			c0.4-0.5,0.6-1,0.6-1.5c0-0.5-0.2-0.9-0.5-1.2c-0.3-0.3-0.8-0.5-1.4-0.5c-0.6,0-1.1,0.2-1.4,0.5s-0.5,0.8-0.5,1.5l-1.3-0.1
			c0.1-0.9,0.4-1.7,1-2.2c0.6-0.5,1.3-0.7,2.3-0.7c1,0,1.7,0.3,2.3,0.8s0.8,1.2,0.8,2c0,0.4-0.1,0.8-0.2,1.2s-0.4,0.8-0.8,1.2
			c-0.4,0.4-1,1-1.9,1.8c-0.7,0.6-1.2,1-1.4,1.3c-0.2,0.2-0.4,0.4-0.5,0.7H550.3z"/>
	</g>
	<g class="st1">
		<path d="M553.8,148.4l-0.2-0.3c1.1-0.9,1.3-1.2,1.3-1.9c0-0.3-0.1-0.4-0.3-0.4c-0.8,0.1-1.2-0.6-0.8-1.1c0.3-0.5,1-0.4,1.4,0
			C556.2,145.8,555.4,147.5,553.8,148.4z"/>
	</g>
	<g class="st1">
		<path d="M561.8,146.1h-1.2v-7.8c-0.3,0.3-0.7,0.6-1.2,0.8c-0.5,0.3-0.9,0.5-1.3,0.6v-1.2c0.7-0.3,1.3-0.7,1.8-1.2
			c0.5-0.5,0.9-0.9,1.1-1.3h0.8V146.1z"/>
	</g>
</g>
<g>
	<path class="st2" d="M619,164.5h-41.5c-2.2,0-4-1.8-4-4V119c0-2.2,1.8-4,4-4H619c2.2,0,4,1.8,4,4v41.5
		C623,162.7,621.2,164.5,619,164.5z"/>
	<g class="st1">
		<path d="M583.4,146.1v-14.3h5.4c1.1,0,2,0.1,2.6,0.4c0.7,0.3,1.2,0.7,1.6,1.3c0.4,0.6,0.6,1.2,0.6,1.9c0,0.6-0.2,1.2-0.5,1.7
			s-0.8,1-1.5,1.3c0.9,0.3,1.5,0.7,2,1.3c0.5,0.6,0.7,1.3,0.7,2.2c0,0.7-0.1,1.3-0.4,1.9s-0.6,1-1,1.3c-0.4,0.3-0.9,0.5-1.6,0.7
			c-0.6,0.2-1.4,0.2-2.3,0.2H583.4z M585.3,137.8h3.1c0.8,0,1.4-0.1,1.8-0.2c0.5-0.1,0.8-0.4,1.1-0.7s0.4-0.7,0.4-1.3
			c0-0.5-0.1-0.9-0.3-1.3c-0.2-0.4-0.6-0.6-1-0.7c-0.4-0.1-1.1-0.2-2.2-0.2h-2.9V137.8z M585.3,144.4h3.6c0.6,0,1,0,1.3-0.1
			c0.4-0.1,0.8-0.2,1.1-0.4s0.5-0.4,0.7-0.8c0.2-0.3,0.3-0.8,0.3-1.2c0-0.5-0.1-1-0.4-1.4s-0.7-0.7-1.1-0.8
			c-0.5-0.2-1.2-0.2-2.1-0.2h-3.3V144.4z"/>
	</g>
	<g class="st1">
		<path d="M602.3,144.9v1.2h-6.6c0-0.3,0-0.6,0.1-0.9c0.2-0.5,0.4-0.9,0.8-1.3c0.4-0.4,0.9-0.9,1.6-1.5c1.1-0.9,1.8-1.6,2.2-2.1
			c0.4-0.5,0.6-1,0.6-1.5c0-0.5-0.2-0.9-0.5-1.2c-0.3-0.3-0.8-0.5-1.4-0.5c-0.6,0-1.1,0.2-1.4,0.5s-0.5,0.8-0.5,1.5l-1.3-0.1
			c0.1-0.9,0.4-1.7,1-2.2c0.6-0.5,1.3-0.7,2.3-0.7c1,0,1.7,0.3,2.3,0.8s0.8,1.2,0.8,2c0,0.4-0.1,0.8-0.2,1.2s-0.4,0.8-0.8,1.2
			c-0.4,0.4-1,1-1.9,1.8c-0.7,0.6-1.2,1-1.4,1.3c-0.2,0.2-0.4,0.4-0.5,0.7H602.3z"/>
	</g>
	<g class="st1">
		<path d="M605.8,148.4l-0.2-0.3c1.1-0.9,1.3-1.2,1.3-1.9c0-0.3-0.1-0.4-0.3-0.4c-0.8,0.1-1.2-0.6-0.8-1.1c0.3-0.5,1-0.4,1.4,0
			C608.2,145.8,607.4,147.5,605.8,148.4z"/>
	</g>
	<g class="st1">
		<path d="M615.7,144.9v1.2H609c0-0.3,0-0.6,0.1-0.9c0.2-0.5,0.4-0.9,0.8-1.3c0.4-0.4,0.9-0.9,1.6-1.5c1.1-0.9,1.8-1.6,2.2-2.1
			c0.4-0.5,0.6-1,0.6-1.5c0-0.5-0.2-0.9-0.5-1.2c-0.3-0.3-0.8-0.5-1.4-0.5c-0.6,0-1.1,0.2-1.4,0.5s-0.5,0.8-0.5,1.5l-1.3-0.1
			c0.1-0.9,0.4-1.7,1-2.2c0.6-0.5,1.3-0.7,2.3-0.7c1,0,1.7,0.3,2.3,0.8s0.8,1.2,0.8,2c0,0.4-0.1,0.8-0.2,1.2s-0.4,0.8-0.8,1.2
			c-0.4,0.4-1,1-1.9,1.8c-0.7,0.6-1.2,1-1.4,1.3c-0.2,0.2-0.4,0.4-0.5,0.7H615.7z"/>
	</g>
</g>
<g>
	<path class="st2" d="M671,164.5h-41.5c-2.2,0-4-1.8-4-4V119c0-2.2,1.8-4,4-4H671c2.2,0,4,1.8,4,4v41.5
		C675,162.7,673.2,164.5,671,164.5z"/>
	<g class="st1">
		<path d="M635.4,146.1v-14.3h5.4c1.1,0,2,0.1,2.6,0.4c0.7,0.3,1.2,0.7,1.6,1.3c0.4,0.6,0.6,1.2,0.6,1.9c0,0.6-0.2,1.2-0.5,1.7
			s-0.8,1-1.5,1.3c0.9,0.3,1.5,0.7,2,1.3c0.5,0.6,0.7,1.3,0.7,2.2c0,0.7-0.1,1.3-0.4,1.9s-0.6,1-1,1.3c-0.4,0.3-0.9,0.5-1.6,0.7
			c-0.6,0.2-1.4,0.2-2.3,0.2H635.4z M637.3,137.8h3.1c0.8,0,1.4-0.1,1.8-0.2c0.5-0.1,0.8-0.4,1.1-0.7s0.4-0.7,0.4-1.3
			c0-0.5-0.1-0.9-0.3-1.3c-0.2-0.4-0.6-0.6-1-0.7c-0.4-0.1-1.1-0.2-2.2-0.2h-2.9V137.8z M637.3,144.4h3.6c0.6,0,1,0,1.3-0.1
			c0.4-0.1,0.8-0.2,1.1-0.4s0.5-0.4,0.7-0.8c0.2-0.3,0.3-0.8,0.3-1.2c0-0.5-0.1-1-0.4-1.4s-0.7-0.7-1.1-0.8
			c-0.5-0.2-1.2-0.2-2.1-0.2h-3.3V144.4z"/>
	</g>
	<g class="st1">
		<path d="M654.3,144.9v1.2h-6.6c0-0.3,0-0.6,0.1-0.9c0.2-0.5,0.4-0.9,0.8-1.3c0.4-0.4,0.9-0.9,1.6-1.5c1.1-0.9,1.8-1.6,2.2-2.1
			c0.4-0.5,0.6-1,0.6-1.5c0-0.5-0.2-0.9-0.5-1.2c-0.3-0.3-0.8-0.5-1.4-0.5c-0.6,0-1.1,0.2-1.4,0.5s-0.5,0.8-0.5,1.5l-1.3-0.1
			c0.1-0.9,0.4-1.7,1-2.2c0.6-0.5,1.3-0.7,2.3-0.7c1,0,1.7,0.3,2.3,0.8s0.8,1.2,0.8,2c0,0.4-0.1,0.8-0.2,1.2s-0.4,0.8-0.8,1.2
			c-0.4,0.4-1,1-1.9,1.8c-0.7,0.6-1.2,1-1.4,1.3c-0.2,0.2-0.4,0.4-0.5,0.7H654.3z"/>
	</g>
	<g class="st1">
		<path d="M657.8,148.4l-0.2-0.3c1.1-0.9,1.3-1.2,1.3-1.9c0-0.3-0.1-0.4-0.3-0.4c-0.8,0.1-1.2-0.6-0.8-1.1c0.3-0.5,1-0.4,1.4,0
			C660.2,145.8,659.4,147.5,657.8,148.4z"/>
	</g>
	<g class="st1">
		<path d="M661.2,143.5l1.2-0.2c0.1,0.7,0.4,1.2,0.7,1.5c0.3,0.3,0.8,0.5,1.2,0.5c0.6,0,1.1-0.2,1.5-0.6c0.4-0.4,0.6-0.9,0.6-1.5
			c0-0.6-0.2-1-0.6-1.4c-0.4-0.4-0.8-0.6-1.4-0.6c-0.2,0-0.5,0-0.9,0.1l0.1-1.1c0.1,0,0.1,0,0.2,0c0.5,0,1-0.1,1.4-0.4
			c0.4-0.3,0.6-0.7,0.6-1.3c0-0.5-0.2-0.8-0.5-1.1c-0.3-0.3-0.7-0.4-1.2-0.4c-0.5,0-0.9,0.2-1.2,0.5c-0.3,0.3-0.5,0.8-0.6,1.4
			l-1.2-0.2c0.2-0.8,0.5-1.5,1-1.9c0.5-0.5,1.2-0.7,2-0.7c0.5,0,1.1,0.1,1.5,0.4c0.5,0.2,0.8,0.6,1.1,1c0.2,0.4,0.4,0.8,0.4,1.3
			c0,0.4-0.1,0.8-0.3,1.2s-0.6,0.6-1,0.8c0.6,0.1,1.1,0.4,1.4,0.9c0.3,0.4,0.5,1,0.5,1.6c0,0.9-0.3,1.6-1,2.2
			c-0.6,0.6-1.4,0.9-2.4,0.9c-0.9,0-1.6-0.3-2.2-0.8S661.3,144.3,661.2,143.5z"/>
	</g>
</g>
<g>
	<path class="st2" d="M567,112.5h-41.5c-2.2,0-4-1.8-4-4V67c0-2.2,1.8-4,4-4H567c2.2,0,4,1.8,4,4v41.5
		C571,110.7,569.2,112.5,567,112.5z"/>
	<g class="st1">
		<path d="M531.4,94.1V79.8h5.4c1.1,0,2,0.1,2.6,0.4c0.7,0.3,1.2,0.7,1.6,1.3c0.4,0.6,0.6,1.2,0.6,1.9c0,0.6-0.2,1.2-0.5,1.7
			s-0.8,1-1.5,1.3c0.9,0.3,1.5,0.7,2,1.3c0.5,0.6,0.7,1.3,0.7,2.2c0,0.7-0.1,1.3-0.4,1.9s-0.6,1-1,1.3c-0.4,0.3-0.9,0.5-1.6,0.7
			c-0.6,0.2-1.4,0.2-2.3,0.2H531.4z M533.3,85.8h3.1c0.8,0,1.4-0.1,1.8-0.2c0.5-0.1,0.8-0.4,1.1-0.7s0.4-0.7,0.4-1.3
			c0-0.5-0.1-0.9-0.3-1.3c-0.2-0.4-0.6-0.6-1-0.7c-0.4-0.1-1.1-0.2-2.2-0.2h-2.9V85.8z M533.3,92.4h3.6c0.6,0,1,0,1.3-0.1
			c0.4-0.1,0.8-0.2,1.1-0.4s0.5-0.4,0.7-0.8c0.2-0.3,0.3-0.8,0.3-1.2c0-0.5-0.1-1-0.4-1.4s-0.7-0.7-1.1-0.8
			c-0.5-0.2-1.2-0.2-2.1-0.2h-3.3V92.4z"/>
	</g>
	<g class="st1">
		<path d="M548.5,94.1h-1.2v-7.8c-0.3,0.3-0.7,0.6-1.2,0.8c-0.5,0.3-0.9,0.5-1.3,0.6v-1.2c0.7-0.3,1.3-0.7,1.8-1.2
			c0.5-0.5,0.9-0.9,1.1-1.3h0.8V94.1z"/>
	</g>
	<g class="st1">
		<path d="M553.8,96.4l-0.2-0.3c1.1-0.9,1.3-1.2,1.3-1.9c0-0.3-0.1-0.4-0.3-0.4c-0.8,0.1-1.2-0.6-0.8-1.1c0.3-0.5,1-0.4,1.4,0
			C556.2,93.8,555.4,95.5,553.8,96.4z"/>
	</g>
	<g class="st1">
		<path d="M561.8,94.1h-1.2v-7.8c-0.3,0.3-0.7,0.6-1.2,0.8c-0.5,0.3-0.9,0.5-1.3,0.6v-1.2c0.7-0.3,1.3-0.7,1.8-1.2
			c0.5-0.5,0.9-0.9,1.1-1.3h0.8V94.1z"/>
	</g>
</g>
<g>
	<path class="st2" d="M619,112.3h-41.5c-2.2,0-4-1.8-4-4V66.8c0-2.2,1.8-4,4-4H619c2.2,0,4,1.8,4,4v41.5
		C623,110.4,621.2,112.3,619,112.3z"/>
	<g class="st1">
		<path d="M583.4,93.9V79.6h5.4c1.1,0,2,0.1,2.6,0.4c0.7,0.3,1.2,0.7,1.6,1.3c0.4,0.6,0.6,1.2,0.6,1.9c0,0.6-0.2,1.2-0.5,1.7
			s-0.8,1-1.5,1.3c0.9,0.3,1.5,0.7,2,1.3c0.5,0.6,0.7,1.3,0.7,2.2c0,0.7-0.1,1.3-0.4,1.9s-0.6,1-1,1.3c-0.4,0.3-0.9,0.5-1.6,0.7
			c-0.6,0.2-1.4,0.2-2.3,0.2H583.4z M585.3,85.6h3.1c0.8,0,1.4-0.1,1.8-0.2c0.5-0.1,0.8-0.4,1.1-0.7s0.4-0.7,0.4-1.3
			c0-0.5-0.1-0.9-0.3-1.3c-0.2-0.4-0.6-0.6-1-0.7c-0.4-0.1-1.1-0.2-2.2-0.2h-2.9V85.6z M585.3,92.2h3.6c0.6,0,1,0,1.3-0.1
			c0.4-0.1,0.8-0.2,1.1-0.4s0.5-0.4,0.7-0.8c0.2-0.3,0.3-0.8,0.3-1.2c0-0.5-0.1-1-0.4-1.4s-0.7-0.7-1.1-0.8
			c-0.5-0.2-1.2-0.2-2.1-0.2h-3.3V92.2z"/>
	</g>
	<g class="st1">
		<path d="M600.5,93.9h-1.2V86c-0.3,0.3-0.7,0.6-1.2,0.8c-0.5,0.3-0.9,0.5-1.3,0.6v-1.2c0.7-0.3,1.3-0.7,1.8-1.2
			c0.5-0.5,0.9-0.9,1.1-1.3h0.8V93.9z"/>
	</g>
	<g class="st1">
		<path d="M605.8,96.2l-0.2-0.3c1.1-0.9,1.3-1.2,1.3-1.9c0-0.3-0.1-0.4-0.3-0.4c-0.8,0.1-1.2-0.6-0.8-1.1c0.3-0.5,1-0.4,1.4,0
			C608.2,93.5,607.4,95.2,605.8,96.2z"/>
	</g>
	<g class="st1">
		<path d="M615.7,92.7v1.2H609c0-0.3,0-0.6,0.1-0.9c0.2-0.5,0.4-0.9,0.8-1.3c0.4-0.4,0.9-0.9,1.6-1.5c1.1-0.9,1.8-1.6,2.2-2.1
			c0.4-0.5,0.6-1,0.6-1.5c0-0.5-0.2-0.9-0.5-1.2c-0.3-0.3-0.8-0.5-1.4-0.5c-0.6,0-1.1,0.2-1.4,0.5s-0.5,0.8-0.5,1.5l-1.3-0.1
			c0.1-0.9,0.4-1.7,1-2.2c0.6-0.5,1.3-0.7,2.3-0.7c1,0,1.7,0.3,2.3,0.8s0.8,1.2,0.8,2c0,0.4-0.1,0.8-0.2,1.2s-0.4,0.8-0.8,1.2
			c-0.4,0.4-1,1-1.9,1.8c-0.7,0.6-1.2,1-1.4,1.3c-0.2,0.2-0.4,0.4-0.5,0.7H615.7z"/>
	</g>
</g>
<g>
	<path class="st2" d="M671,112.3h-41.5c-2.2,0-4-1.8-4-4V66.8c0-2.2,1.8-4,4-4H671c2.2,0,4,1.8,4,4v41.5
		C675,110.4,673.2,112.3,671,112.3z"/>
	<g class="st1">
		<path d="M635.4,93.9V79.6h5.4c1.1,0,2,0.1,2.6,0.4c0.7,0.3,1.2,0.7,1.6,1.3c0.4,0.6,0.6,1.2,0.6,1.9c0,0.6-0.2,1.2-0.5,1.7
			s-0.8,1-1.5,1.3c0.9,0.3,1.5,0.7,2,1.3c0.5,0.6,0.7,1.3,0.7,2.2c0,0.7-0.1,1.3-0.4,1.9s-0.6,1-1,1.3c-0.4,0.3-0.9,0.5-1.6,0.7
			c-0.6,0.2-1.4,0.2-2.3,0.2H635.4z M637.3,85.6h3.1c0.8,0,1.4-0.1,1.8-0.2c0.5-0.1,0.8-0.4,1.1-0.7s0.4-0.7,0.4-1.3
			c0-0.5-0.1-0.9-0.3-1.3c-0.2-0.4-0.6-0.6-1-0.7c-0.4-0.1-1.1-0.2-2.2-0.2h-2.9V85.6z M637.3,92.2h3.6c0.6,0,1,0,1.3-0.1
			c0.4-0.1,0.8-0.2,1.1-0.4s0.5-0.4,0.7-0.8c0.2-0.3,0.3-0.8,0.3-1.2c0-0.5-0.1-1-0.4-1.4s-0.7-0.7-1.1-0.8
			c-0.5-0.2-1.2-0.2-2.1-0.2h-3.3V92.2z"/>
	</g>
	<g class="st1">
		<path d="M652.5,93.9h-1.2V86c-0.3,0.3-0.7,0.6-1.2,0.8c-0.5,0.3-0.9,0.5-1.3,0.6v-1.2c0.7-0.3,1.3-0.7,1.8-1.2
			c0.5-0.5,0.9-0.9,1.1-1.3h0.8V93.9z"/>
	</g>
	<g class="st1">
		<path d="M657.8,96.2l-0.2-0.3c1.1-0.9,1.3-1.2,1.3-1.9c0-0.3-0.1-0.4-0.3-0.4c-0.8,0.1-1.2-0.6-0.8-1.1c0.3-0.5,1-0.4,1.4,0
			C660.2,93.5,659.4,95.2,657.8,96.2z"/>
	</g>
	<g class="st1">
		<path d="M661.2,91.2l1.2-0.2c0.1,0.7,0.4,1.2,0.7,1.5c0.3,0.3,0.8,0.5,1.2,0.5c0.6,0,1.1-0.2,1.5-0.6c0.4-0.4,0.6-0.9,0.6-1.5
			c0-0.6-0.2-1-0.6-1.4c-0.4-0.4-0.8-0.6-1.4-0.6c-0.2,0-0.5,0-0.9,0.1l0.1-1.1c0.1,0,0.1,0,0.2,0c0.5,0,1-0.1,1.4-0.4
			c0.4-0.3,0.6-0.7,0.6-1.3c0-0.5-0.2-0.8-0.5-1.1c-0.3-0.3-0.7-0.4-1.2-0.4c-0.5,0-0.9,0.2-1.2,0.5c-0.3,0.3-0.5,0.8-0.6,1.4
			l-1.2-0.2c0.2-0.8,0.5-1.5,1-1.9c0.5-0.5,1.2-0.7,2-0.7c0.5,0,1.1,0.1,1.5,0.4c0.5,0.2,0.8,0.6,1.1,1c0.2,0.4,0.4,0.8,0.4,1.3
			c0,0.4-0.1,0.8-0.3,1.2s-0.6,0.6-1,0.8c0.6,0.1,1.1,0.4,1.4,0.9c0.3,0.4,0.5,1,0.5,1.6c0,0.9-0.3,1.6-1,2.2
			c-0.6,0.6-1.4,0.9-2.4,0.9c-0.9,0-1.6-0.3-2.2-0.8S661.3,92.1,661.2,91.2z"/>
	</g>
</g>
<g>
	<path class="st2" d="M567,60.5h-41.5c-2.2,0-4-1.8-4-4V15c0-2.2,1.8-4,4-4H567c2.2,0,4,1.8,4,4v41.5C571,58.7,569.2,60.5,567,60.5z
		"/>
	<g class="st1">
		<path d="M531.4,42.1V27.8h5.4c1.1,0,2,0.1,2.6,0.4c0.7,0.3,1.2,0.7,1.6,1.3c0.4,0.6,0.6,1.2,0.6,1.9c0,0.6-0.2,1.2-0.5,1.7
			s-0.8,1-1.5,1.3c0.9,0.3,1.5,0.7,2,1.3c0.5,0.6,0.7,1.3,0.7,2.2c0,0.7-0.1,1.3-0.4,1.9s-0.6,1-1,1.3c-0.4,0.3-0.9,0.5-1.6,0.7
			c-0.6,0.2-1.4,0.2-2.3,0.2H531.4z M533.3,33.8h3.1c0.8,0,1.4-0.1,1.8-0.2c0.5-0.1,0.8-0.4,1.1-0.7s0.4-0.7,0.4-1.3
			c0-0.5-0.1-0.9-0.3-1.3c-0.2-0.4-0.6-0.6-1-0.7c-0.4-0.1-1.1-0.2-2.2-0.2h-2.9V33.8z M533.3,40.4h3.6c0.6,0,1,0,1.3-0.1
			c0.4-0.1,0.8-0.2,1.1-0.4s0.5-0.4,0.7-0.8c0.2-0.3,0.3-0.8,0.3-1.2c0-0.5-0.1-1-0.4-1.4s-0.7-0.7-1.1-0.8
			c-0.5-0.2-1.2-0.2-2.1-0.2h-3.3V40.4z"/>
	</g>
	<g class="st1">
		<path d="M543.8,37.2c0-1.2,0.1-2.1,0.4-2.9c0.2-0.7,0.6-1.3,1.1-1.7c0.5-0.4,1.1-0.6,1.8-0.6c0.5,0,1,0.1,1.4,0.3
			c0.4,0.2,0.7,0.5,1,0.9c0.3,0.4,0.5,0.9,0.6,1.5c0.2,0.6,0.2,1.4,0.2,2.4c0,1.2-0.1,2.1-0.4,2.8c-0.2,0.7-0.6,1.3-1.1,1.7
			c-0.5,0.4-1.1,0.6-1.8,0.6c-1,0-1.7-0.3-2.3-1C544.1,40.4,543.8,39.1,543.8,37.2z M545.1,37.2c0,1.6,0.2,2.7,0.6,3.3
			c0.4,0.5,0.9,0.8,1.4,0.8c0.6,0,1-0.3,1.4-0.8c0.4-0.5,0.6-1.6,0.6-3.3c0-1.6-0.2-2.7-0.6-3.3c-0.4-0.5-0.9-0.8-1.4-0.8
			c-0.6,0-1,0.2-1.4,0.7C545.3,34.4,545.1,35.5,545.1,37.2z"/>
	</g>
	<g class="st1">
		<path d="M553.8,44.4l-0.2-0.3c1.1-0.9,1.3-1.2,1.3-1.9c0-0.3-0.1-0.4-0.3-0.4c-0.8,0.1-1.2-0.6-0.8-1.1c0.3-0.5,1-0.4,1.4,0
			C556.2,41.8,555.4,43.5,553.8,44.4z"/>
	</g>
	<g class="st1">
		<path d="M561.8,42.1h-1.2v-7.8c-0.3,0.3-0.7,0.6-1.2,0.8c-0.5,0.3-0.9,0.5-1.3,0.6v-1.2c0.7-0.3,1.3-0.7,1.8-1.2
			c0.5-0.5,0.9-0.9,1.1-1.3h0.8V42.1z"/>
	</g>
</g>
<g>
	<path class="st2" d="M619,60.5h-41.5c-2.2,0-4-1.8-4-4V15c0-2.2,1.8-4,4-4H619c2.2,0,4,1.8,4,4v41.5C623,58.7,621.2,60.5,619,60.5z
		"/>
	<g class="st1">
		<path d="M583.4,42.1V27.8h5.4c1.1,0,2,0.1,2.6,0.4c0.7,0.3,1.2,0.7,1.6,1.3c0.4,0.6,0.6,1.2,0.6,1.9c0,0.6-0.2,1.2-0.5,1.7
			s-0.8,1-1.5,1.3c0.9,0.3,1.5,0.7,2,1.3c0.5,0.6,0.7,1.3,0.7,2.2c0,0.7-0.1,1.3-0.4,1.9s-0.6,1-1,1.3c-0.4,0.3-0.9,0.5-1.6,0.7
			c-0.6,0.2-1.4,0.2-2.3,0.2H583.4z M585.3,33.8h3.1c0.8,0,1.4-0.1,1.8-0.2c0.5-0.1,0.8-0.4,1.1-0.7s0.4-0.7,0.4-1.3
			c0-0.5-0.1-0.9-0.3-1.3c-0.2-0.4-0.6-0.6-1-0.7c-0.4-0.1-1.1-0.2-2.2-0.2h-2.9V33.8z M585.3,40.4h3.6c0.6,0,1,0,1.3-0.1
			c0.4-0.1,0.8-0.2,1.1-0.4s0.5-0.4,0.7-0.8c0.2-0.3,0.3-0.8,0.3-1.2c0-0.5-0.1-1-0.4-1.4s-0.7-0.7-1.1-0.8
			c-0.5-0.2-1.2-0.2-2.1-0.2h-3.3V40.4z"/>
	</g>
	<g class="st1">
		<path d="M595.8,37.2c0-1.2,0.1-2.1,0.4-2.9c0.2-0.7,0.6-1.3,1.1-1.7c0.5-0.4,1.1-0.6,1.8-0.6c0.5,0,1,0.1,1.4,0.3
			c0.4,0.2,0.7,0.5,1,0.9c0.3,0.4,0.5,0.9,0.6,1.5c0.2,0.6,0.2,1.4,0.2,2.4c0,1.2-0.1,2.1-0.4,2.8c-0.2,0.7-0.6,1.3-1.1,1.7
			c-0.5,0.4-1.1,0.6-1.8,0.6c-1,0-1.7-0.3-2.3-1C596.1,40.4,595.8,39.1,595.8,37.2z M597.1,37.2c0,1.6,0.2,2.7,0.6,3.3
			c0.4,0.5,0.9,0.8,1.4,0.8c0.6,0,1-0.3,1.4-0.8c0.4-0.5,0.6-1.6,0.6-3.3c0-1.6-0.2-2.7-0.6-3.3c-0.4-0.5-0.9-0.8-1.4-0.8
			c-0.6,0-1,0.2-1.4,0.7C597.3,34.4,597.1,35.5,597.1,37.2z"/>
	</g>
	<g class="st1">
		<path d="M605.8,44.4l-0.2-0.3c1.1-0.9,1.3-1.2,1.3-1.9c0-0.3-0.1-0.4-0.3-0.4c-0.8,0.1-1.2-0.6-0.8-1.1c0.3-0.5,1-0.4,1.4,0
			C608.2,41.8,607.4,43.5,605.8,44.4z"/>
	</g>
	<g class="st1">
		<path d="M615.7,40.9v1.2H609c0-0.3,0-0.6,0.1-0.9c0.2-0.5,0.4-0.9,0.8-1.3c0.4-0.4,0.9-0.9,1.6-1.5c1.1-0.9,1.8-1.6,2.2-2.1
			c0.4-0.5,0.6-1,0.6-1.5c0-0.5-0.2-0.9-0.5-1.2c-0.3-0.3-0.8-0.5-1.4-0.5c-0.6,0-1.1,0.2-1.4,0.5s-0.5,0.8-0.5,1.5l-1.3-0.1
			c0.1-0.9,0.4-1.7,1-2.2c0.6-0.5,1.3-0.7,2.3-0.7c1,0,1.7,0.3,2.3,0.8s0.8,1.2,0.8,2c0,0.4-0.1,0.8-0.2,1.2s-0.4,0.8-0.8,1.2
			c-0.4,0.4-1,1-1.9,1.8c-0.7,0.6-1.2,1-1.4,1.3c-0.2,0.2-0.4,0.4-0.5,0.7H615.7z"/>
	</g>
</g>
<g>
	<path class="st2" d="M671,60.5h-41.5c-2.2,0-4-1.8-4-4V15c0-2.2,1.8-4,4-4H671c2.2,0,4,1.8,4,4v41.5C675,58.7,673.2,60.5,671,60.5z
		"/>
	<g class="st1">
		<path d="M635.4,42.1V27.8h5.4c1.1,0,2,0.1,2.6,0.4c0.7,0.3,1.2,0.7,1.6,1.3c0.4,0.6,0.6,1.2,0.6,1.9c0,0.6-0.2,1.2-0.5,1.7
			s-0.8,1-1.5,1.3c0.9,0.3,1.5,0.7,2,1.3c0.5,0.6,0.7,1.3,0.7,2.2c0,0.7-0.1,1.3-0.4,1.9s-0.6,1-1,1.3c-0.4,0.3-0.9,0.5-1.6,0.7
			c-0.6,0.2-1.4,0.2-2.3,0.2H635.4z M637.3,33.8h3.1c0.8,0,1.4-0.1,1.8-0.2c0.5-0.1,0.8-0.4,1.1-0.7s0.4-0.7,0.4-1.3
			c0-0.5-0.1-0.9-0.3-1.3c-0.2-0.4-0.6-0.6-1-0.7c-0.4-0.1-1.1-0.2-2.2-0.2h-2.9V33.8z M637.3,40.4h3.6c0.6,0,1,0,1.3-0.1
			c0.4-0.1,0.8-0.2,1.1-0.4s0.5-0.4,0.7-0.8c0.2-0.3,0.3-0.8,0.3-1.2c0-0.5-0.1-1-0.4-1.4s-0.7-0.7-1.1-0.8
			c-0.5-0.2-1.2-0.2-2.1-0.2h-3.3V40.4z"/>
	</g>
	<g class="st1">
		<path d="M647.8,37.2c0-1.2,0.1-2.1,0.4-2.9c0.2-0.7,0.6-1.3,1.1-1.7c0.5-0.4,1.1-0.6,1.8-0.6c0.5,0,1,0.1,1.4,0.3
			c0.4,0.2,0.7,0.5,1,0.9c0.3,0.4,0.5,0.9,0.6,1.5c0.2,0.6,0.2,1.4,0.2,2.4c0,1.2-0.1,2.1-0.4,2.8c-0.2,0.7-0.6,1.3-1.1,1.7
			c-0.5,0.4-1.1,0.6-1.8,0.6c-1,0-1.7-0.3-2.3-1C648.1,40.4,647.8,39.1,647.8,37.2z M649.1,37.2c0,1.6,0.2,2.7,0.6,3.3
			c0.4,0.5,0.9,0.8,1.4,0.8c0.6,0,1-0.3,1.4-0.8c0.4-0.5,0.6-1.6,0.6-3.3c0-1.6-0.2-2.7-0.6-3.3c-0.4-0.5-0.9-0.8-1.4-0.8
			c-0.6,0-1,0.2-1.4,0.7C649.3,34.4,649.1,35.5,649.1,37.2z"/>
	</g>
	<g class="st1">
		<path d="M657.8,44.4l-0.2-0.3c1.1-0.9,1.3-1.2,1.3-1.9c0-0.3-0.1-0.4-0.3-0.4c-0.8,0.1-1.2-0.6-0.8-1.1c0.3-0.5,1-0.4,1.4,0
			C660.2,41.8,659.4,43.5,657.8,44.4z"/>
	</g>
	<g class="st1">
		<path d="M661.2,39.5l1.2-0.2c0.1,0.7,0.4,1.2,0.7,1.5c0.3,0.3,0.8,0.5,1.2,0.5c0.6,0,1.1-0.2,1.5-0.6c0.4-0.4,0.6-0.9,0.6-1.5
			c0-0.6-0.2-1-0.6-1.4c-0.4-0.4-0.8-0.6-1.4-0.6c-0.2,0-0.5,0-0.9,0.1l0.1-1.1c0.1,0,0.1,0,0.2,0c0.5,0,1-0.1,1.4-0.4
			c0.4-0.3,0.6-0.7,0.6-1.3c0-0.5-0.2-0.8-0.5-1.1c-0.3-0.3-0.7-0.4-1.2-0.4c-0.5,0-0.9,0.2-1.2,0.5c-0.3,0.3-0.5,0.8-0.6,1.4
			l-1.2-0.2c0.2-0.8,0.5-1.5,1-1.9c0.5-0.5,1.2-0.7,2-0.7c0.5,0,1.1,0.1,1.5,0.4c0.5,0.2,0.8,0.6,1.1,1c0.2,0.4,0.4,0.8,0.4,1.3
			c0,0.4-0.1,0.8-0.3,1.2s-0.6,0.6-1,0.8c0.6,0.1,1.1,0.4,1.4,0.9c0.3,0.4,0.5,1,0.5,1.6c0,0.9-0.3,1.6-1,2.2
			c-0.6,0.6-1.4,0.9-2.4,0.9c-0.9,0-1.6-0.3-2.2-0.8S661.3,40.3,661.2,39.5z"/>
	</g>
</g>
<g class="st1">
	<path d="M718.5,130.4v-16.9h-16.8v-7.1h16.8V89.7h7.1v16.8h16.8v7.1h-16.8v16.9H718.5z"/>
</g>
<polygon class="st4" points="197.2,16.1 197.2,11.4 185.7,11.4 181.7,11.4 181.7,16.1 181.7,208 181.7,212.7 185.7,212.7 
	197.2,212.7 197.2,208 185.7,208 185.7,16.1 "/>
<polygon class="st4" points="412.7,16.1 412.7,11.4 424.1,11.4 428.2,11.4 428.2,16.1 428.2,208 428.2,212.7 424.1,212.7 
	412.7,212.7 412.7,208 424.1,208 424.1,16.1 "/>
<polygon class="st4" points="466.2,18.1 466.2,13.4 454.7,13.4 450.7,13.4 450.7,18.1 450.7,210 450.7,214.7 454.7,214.7 
	466.2,214.7 466.2,210 454.7,210 454.7,18.1 "/>
<polygon class="st4" points="677.7,18.1 677.7,13.4 689.1,13.4 693.2,13.4 693.2,18.1 693.2,210 693.2,214.7 689.1,214.7 
	677.7,214.7 677.7,210 689.1,210 689.1,18.1 "/>
<polygon class="st4" points="767.2,18.1 767.2,13.4 755.7,13.4 751.7,13.4 751.7,18.1 751.7,210 751.7,214.7 755.7,214.7 
	767.2,214.7 767.2,210 755.7,210 755.7,18.1 "/>
<polygon class="st4" points="980.7,18.1 980.7,13.4 992.1,13.4 996.2,13.4 996.2,18.1 996.2,210 996.2,214.7 992.1,214.7 
	980.7,214.7 980.7,210 992.1,210 992.1,18.1 "/>
</svg>
