<?xml version="1.0" encoding="UTF-8" standalone="no"?>
<!-- Created with Inkscape (http://www.inkscape.org/) -->

<svg
   version="1.1"
   id="svg9"
   xml:space="preserve"
   width="1076.6566"
   height="282.29837"
   viewBox="0 0 1076.6566 282.29837"
   sodipodi:docname="MLIR-Lowing.svg"
   inkscape:version="1.1.2 (b8e25be833, 2022-02-05)"
   xmlns:inkscape="http://www.inkscape.org/namespaces/inkscape"
   xmlns:sodipodi="http://sodipodi.sourceforge.net/DTD/sodipodi-0.dtd"
   xmlns="http://www.w3.org/2000/svg"
   xmlns:svg="http://www.w3.org/2000/svg"><defs
     id="defs13"><clipPath
       clipPathUnits="userSpaceOnUse"
       id="clipPath25"><path
         d="M 0,0 H 960 V 540 H 0 Z"
         id="path23" /></clipPath><clipPath
       clipPathUnits="userSpaceOnUse"
       id="clipPath41"><path
         d="M 0,0 H 960 V 540 H 0 Z"
         id="path39" /></clipPath><clipPath
       clipPathUnits="userSpaceOnUse"
       id="clipPath61"><path
         d="M 0,0 H 960 V 540 H 0 Z"
         id="path59" /></clipPath><clipPath
       clipPathUnits="userSpaceOnUse"
       id="clipPath79"><path
         d="M 0,0 H 960 V 540 H 0 Z"
         id="path77" /></clipPath><clipPath
       clipPathUnits="userSpaceOnUse"
       id="clipPath99"><path
         d="M 0,0 H 960 V 540 H 0 Z"
         id="path97" /></clipPath><clipPath
       clipPathUnits="userSpaceOnUse"
       id="clipPath189"><path
         d="M 0,0 H 960 V 540 H 0 Z"
         id="path187" /></clipPath></defs><sodipodi:namedview
     id="namedview11"
     pagecolor="#ffffff"
     bordercolor="#666666"
     borderopacity="1.0"
     inkscape:pageshadow="2"
     inkscape:pageopacity="0.0"
     inkscape:pagecheckerboard="0"
     showgrid="false"
     fit-margin-top="0"
     fit-margin-left="0"
     fit-margin-right="0"
     fit-margin-bottom="0"
     inkscape:zoom="0.821875"
     inkscape:cx="588.89734"
     inkscape:cy="153.91635"
     inkscape:window-width="1920"
     inkscape:window-height="1001"
     inkscape:window-x="-9"
     inkscape:window-y="-9"
     inkscape:window-maximized="1"
     inkscape:current-layer="g15" /><g
     id="g15"
     inkscape:groupmode="layer"
     inkscape:label="MLSYS图书配图"
     transform="matrix(1.3333333,0,0,-1.3333333,-51.363199,514.55999)"><g
       id="g19"><g
         id="g21"
         clip-path="url(#clipPath25)"><g
           id="g27"
           transform="translate(98.64,378.7198)"><path
             d="m 0,0 c 0,3.711 3.009,6.72 6.72,6.72 h 87 c 3.711,0 6.72,-3.009 6.72,-6.72 v -26.88 c 0,-3.711 -3.009,-6.72 -6.72,-6.72 h -87 C 3.009,-33.6 0,-30.591 0,-26.88 Z"
             style="fill:#b4c7e7;fill-opacity:1;fill-rule:evenodd;stroke:#000000;stroke-width:0.96;stroke-linecap:butt;stroke-linejoin:miter;stroke-miterlimit:8;stroke-dasharray:none;stroke-opacity:1"
             id="path29" /></g></g></g><text
       transform="matrix(1,0,0,-1,110.6881,360.6019)"
       style="font-variant:normal;font-weight:bold;font-stretch:normal;font-size:14.04px;font-family:Calibri;-inkscape-font-specification:Calibri-Bold;writing-mode:lr-tb;fill:#1d1d1a;fill-opacity:1;fill-rule:nonzero;stroke:none"
       id="text33"><tspan
         x="0 6.600204 11.51982 16.560181 24.12072 30.000671 34.920288 42.480827 47.400444 54.480816 61.920612 64.686493 68.405685"
         y="0"
         sodipodi:role="line"
         id="tspan31">Structured IR</tspan></text><g
       id="g35"><g
         id="g37"
         clip-path="url(#clipPath41)"><g
           id="g43"
           transform="translate(347.64,378.7199)"><path
             d="M 0,0 C 0,3.711 3.009,6.72 6.72,6.72 H 119.4 c 3.711,0 6.72,-3.009 6.72,-6.72 v -26.88 c 0,-3.711 -3.009,-6.72 -6.72,-6.72 H 6.72 C 3.009,-33.6 0,-30.591 0,-26.88 Z"
             style="fill:#b4c7e7;fill-opacity:1;fill-rule:evenodd;stroke:none"
             id="path45" /></g><g
           id="g47"
           transform="translate(347.64,378.7199)"><path
             d="M 0,0 C 0,3.711 3.009,6.72 6.72,6.72 H 119.4 c 3.711,0 6.72,-3.009 6.72,-6.72 v -26.88 c 0,-3.711 -3.009,-6.72 -6.72,-6.72 H 6.72 C 3.009,-33.6 0,-30.591 0,-26.88 Z"
             style="fill:none;stroke:#000000;stroke-width:0.96;stroke-linecap:butt;stroke-linejoin:miter;stroke-miterlimit:8;stroke-dasharray:none;stroke-opacity:1"
             id="path49" /></g></g></g><text
       transform="matrix(1,0,0,-1,356.8255,360.602)"
       style="font-variant:normal;font-weight:bold;font-stretch:normal;font-size:14.04px;font-family:Calibri;-inkscape-font-specification:Calibri-Bold;writing-mode:lr-tb;fill:#1d1d1a;fill-opacity:1;fill-rule:nonzero;stroke:none"
       id="text53"><tspan
         x="0 6.9596281 10.441548 13.923468 21.002436 28.443636 31.202496 37.8027 42.722317 47.762676 55.323215 61.203167 66.122787 73.683327 78.602943 85.683311 93.242447 96.008331 99.728928"
         y="0"
         sodipodi:role="line"
         id="tspan51">Tiled Structured IR</tspan></text><g
       id="g55"><g
         id="g57"
         clip-path="url(#clipPath61)"><g
           id="g63"
           transform="translate(655.08,378.7199)"><path
             d="M 0,0 C 0,3.711 3.009,6.72 6.72,6.72 H 119.4 c 3.711,0 6.72,-3.009 6.72,-6.72 v -26.88 c 0,-3.711 -3.009,-6.72 -6.72,-6.72 H 6.72 C 3.009,-33.6 0,-30.591 0,-26.88 Z"
             style="fill:#b4c7e7;fill-opacity:1;fill-rule:evenodd;stroke:#000000;stroke-width:0.96;stroke-linecap:butt;stroke-linejoin:miter;stroke-miterlimit:8;stroke-dasharray:none;stroke-opacity:1"
             id="path65" /></g></g></g><text
       transform="matrix(1,0,0,-1,671.9785,368.997)"
       style="font-variant:normal;font-weight:bold;font-stretch:normal;font-size:14.04px;font-family:Calibri;-inkscape-font-specification:Calibri-Bold;writing-mode:lr-tb;fill:#1d1d1a;fill-opacity:1;fill-rule:nonzero;stroke:none"
       id="text71"><tspan
         x="0 6.96384 10.444356 13.923468 20.999628 28.439425 31.205303 38.764439 45.840599 51.723358 56.523636 64.082771 69.123131 72.602242 77.88269 84.842316 92.395836"
         y="0"
         sodipodi:role="line"
         id="tspan67">Tiled Vectorized </tspan><tspan
         x="8.04492 14.645124 19.564739 24.605101 32.165642 38.045593 42.965206 50.525749 55.445366 62.525738 69.96553 72.731415 76.450607"
         y="16.80588"
         sodipodi:role="line"
         id="tspan69">Structured IR</tspan></text><g
       id="g73"><g
         id="g75"
         clip-path="url(#clipPath79)"><g
           id="g81"
           transform="translate(235.68,231.8399)"><path
             d="M 0,0 C 0,3.711 3.009,6.72 6.72,6.72 H 119.4 c 3.711,0 6.72,-3.009 6.72,-6.72 v -26.88 c 0,-3.711 -3.009,-6.72 -6.72,-6.72 H 6.72 C 3.009,-33.6 0,-30.591 0,-26.88 Z"
             style="fill:#b4c7e7;fill-opacity:1;fill-rule:evenodd;stroke:none"
             id="path83" /></g><g
           id="g85"
           transform="translate(235.68,231.8399)"><path
             d="M 0,0 C 0,3.711 3.009,6.72 6.72,6.72 H 119.4 c 3.711,0 6.72,-3.009 6.72,-6.72 v -26.88 c 0,-3.711 -3.009,-6.72 -6.72,-6.72 H 6.72 C 3.009,-33.6 0,-30.591 0,-26.88 Z"
             style="fill:none;stroke:#000000;stroke-width:0.96;stroke-linecap:butt;stroke-linejoin:miter;stroke-miterlimit:8;stroke-dasharray:none;stroke-opacity:1"
             id="path87" /></g></g></g><text
       transform="matrix(1,0,0,-1,253.3397,213.7398)"
       style="font-variant:normal;font-weight:bold;font-stretch:normal;font-size:14.04px;font-family:Calibri;-inkscape-font-specification:Calibri-Bold;writing-mode:lr-tb;fill:#1d1d1a;fill-opacity:1;fill-rule:nonzero;stroke:none"
       id="text91"><tspan
         x="0 5.879952 13.439088 20.999628 28.439425 34.079292 37.083851 44.04348 47.16317 54.723709 61.79987 67.682625 72.482903 80.043442 84.963058"
         y="0"
         sodipodi:role="line"
         id="tspan89">Loops + Vectors</tspan></text><g
       id="g93"><g
         id="g95"
         clip-path="url(#clipPath99)"><g
           id="g101"
           transform="translate(545.76,231.8399)"><path
             d="M 0,0 C 0,3.711 3.009,6.72 6.72,6.72 H 119.4 c 3.711,0 6.72,-3.009 6.72,-6.72 v -26.88 c 0,-3.711 -3.009,-6.72 -6.72,-6.72 H 6.72 C 3.009,-33.6 0,-30.591 0,-26.88 Z"
             style="fill:#b4c7e7;fill-opacity:1;fill-rule:evenodd;stroke:#000000;stroke-width:0.96;stroke-linecap:butt;stroke-linejoin:miter;stroke-miterlimit:8;stroke-dasharray:none;stroke-opacity:1"
             id="path103" /></g></g></g><text
       transform="matrix(1,0,0,-1,556.0552,213.7398)"
       style="font-variant:normal;font-weight:bold;font-stretch:normal;font-size:14.04px;font-family:Calibri;-inkscape-font-specification:Calibri-Bold;writing-mode:lr-tb;fill:#1d1d1a;fill-opacity:1;fill-rule:nonzero;stroke:none"
       id="text107"><tspan
         x="0 8.8802996 16.439436 21.957155 26.876772 29.881332 39.00312 47.525398 53.408161 59.29092 66.367081 69.846191 76.922356 81.601883 88.442169 93.121704 100.68224"
         y="0"
         sodipodi:role="line"
         id="tspan105">Host /Accelerator</tspan></text><path
       d="m 235.68,385.44 h 69.24 v -40.32 h -69.24 z"
       style="fill:#ffffff;fill-opacity:1;fill-rule:evenodd;stroke:none"
       id="path109" /><path
       d="m 235.68,385.44 h 69.24 v -40.32 h -69.24 z"
       style="fill:none;stroke:#4472c4;stroke-width:0.96;stroke-linecap:butt;stroke-linejoin:miter;stroke-miterlimit:8;stroke-dasharray:none;stroke-opacity:1"
       id="path111" /><text
       transform="matrix(1,0,0,-1,259.9256,368.047)"
       style="font-variant:normal;font-weight:bold;font-stretch:normal;font-size:12px;font-family:Arial;-inkscape-font-specification:Arial-BoldMT;writing-mode:lr-tb;fill:#1d1d1a;fill-opacity:1;fill-rule:nonzero;stroke:none"
       id="text117"><tspan
         x="0 7.0799999 10.44 13.8"
         y="0"
         sodipodi:role="line"
         id="tspan113">Tile</tspan><tspan
         x="-3.72 3.5999999 10.92 17.639999"
         y="14.4"
         sodipodi:role="line"
         id="tspan115">Fuse</tspan></text><g
       id="g119"
       transform="translate(199.08,365.2799)"><path
         d="M 0,0 H 31.537"
         style="fill:none;stroke:#000000;stroke-width:1;stroke-linecap:butt;stroke-linejoin:miter;stroke-miterlimit:8;stroke-dasharray:none;stroke-opacity:1"
         id="path121" /></g><g
       id="g123"
       transform="translate(229.6167,362.2797)"><path
         d="M 0,0 6,3 0,6 Z"
         style="fill:#000000;fill-opacity:1;fill-rule:evenodd;stroke:none"
         id="path125" /></g><g
       id="g127"
       transform="translate(304.92,365.28)"><path
         d="M 0,0 H 37.758"
         style="fill:none;stroke:#000000;stroke-width:1;stroke-linecap:butt;stroke-linejoin:miter;stroke-miterlimit:8;stroke-dasharray:none;stroke-opacity:1"
         id="path129" /></g><g
       id="g131"
       transform="translate(341.6783,368.2802)"><path
         d="M 0,0 6,-3 0,-6 Z"
         style="fill:#000000;fill-opacity:1;fill-rule:evenodd;stroke:none"
         id="path133" /></g><path
       d="m 539.64,385.44 h 69.24 v -40.32 h -69.24 z"
       style="fill:#ffffff;fill-opacity:1;fill-rule:evenodd;stroke:#4472c4;stroke-width:0.96;stroke-linecap:butt;stroke-linejoin:miter;stroke-miterlimit:8;stroke-dasharray:none;stroke-opacity:1"
       id="path135" /><text
       transform="matrix(1,0,0,-1,548.1714,360.847)"
       style="font-variant:normal;font-weight:bold;font-stretch:normal;font-size:12px;font-family:Arial;-inkscape-font-specification:Arial-BoldMT;writing-mode:lr-tb;fill:#1d1d1a;fill-opacity:1;fill-rule:nonzero;stroke:none"
       id="text139"><tspan
         x="0 6.48 13.2 19.92 23.879999 31.200001 35.880001 39.240002 45.240002"
         y="0"
         sodipodi:role="line"
         id="tspan137">vectorize</tspan></text><path
       d="m 98.64,238.56 h 69.24 V 198.24 H 98.64 Z"
       style="fill:#ffffff;fill-opacity:1;fill-rule:evenodd;stroke:#4472c4;stroke-width:0.96;stroke-linecap:butt;stroke-linejoin:miter;stroke-miterlimit:8;stroke-dasharray:none;stroke-opacity:1"
       id="path141" /><text
       transform="matrix(1,0,0,-1,107.5698,213.9848)"
       style="font-variant:normal;font-weight:bold;font-stretch:normal;font-size:12px;font-family:Arial;-inkscape-font-specification:Arial-BoldMT;writing-mode:lr-tb;fill:#1d1d1a;fill-opacity:1;fill-rule:nonzero;stroke:none"
       id="text145"><tspan
         x="0 8.6400003 15.96 19.92 23.879999 30.6 35.279999 38.639999 44.639999"
         y="0"
         sodipodi:role="line"
         id="tspan143">Bufferize</tspan></text><path
       d="m 422.04,238.56 h 69.24 v -40.32 h -69.24 z"
       style="fill:#ffffff;fill-opacity:1;fill-rule:evenodd;stroke:#4472c4;stroke-width:0.96;stroke-linecap:butt;stroke-linejoin:miter;stroke-miterlimit:8;stroke-dasharray:none;stroke-opacity:1"
       id="path147" /><text
       transform="matrix(1,0,0,-1,438.8395,221.1848)"
       style="font-variant:normal;font-weight:bold;font-stretch:normal;font-size:12px;font-family:Arial;-inkscape-font-specification:Arial-BoldMT;writing-mode:lr-tb;fill:#1d1d1a;fill-opacity:1;fill-rule:nonzero;stroke:none"
       id="text153"><tspan
         x="0 8.2799997 15 21.360001 28.68"
         y="0"
         sodipodi:role="line"
         id="tspan149">Async</tspan><tspan
         x="-7.6799998 0.95999998 4.3200002 11.04 18.360001 25.08 29.040001 35.759998"
         y="14.4"
         sodipodi:role="line"
         id="tspan151">Dispatch</tspan></text><text
       transform="matrix(1,0,0,-1,718.4329,213.7421)"
       style="font-variant:normal;font-weight:300;font-stretch:normal;font-size:14.04px;font-family:'Footlight MT Light';-inkscape-font-specification:FootlightMTLight;writing-mode:lr-tb;fill:#000000;fill-opacity:1;fill-rule:nonzero;stroke:none"
       id="text157"><tspan
         x="0 7.320456 14.157936 17.639856 25.200396 29.040337 36.840961 43.439758 49.081032 55.681236 59.163155 68.036438 71.518356 78.2379 85.197525 91.317566 97.558342 105.35757 109.439 113.27893 120.11641"
         y="0"
         sodipodi:role="line"
         id="tspan155">To Binary &amp; Execution</tspan></text><g
       id="g159"
       transform="translate(473.76,365.2799)"><path
         d="M 0,0 H 60.847"
         style="fill:none;stroke:#000000;stroke-width:1;stroke-linecap:butt;stroke-linejoin:miter;stroke-miterlimit:8;stroke-dasharray:none;stroke-opacity:1"
         id="path161" /></g><g
       id="g163"
       transform="translate(533.6069,362.2797)"><path
         d="M 0,0 6,3 0,6 Z"
         style="fill:#000000;fill-opacity:1;fill-rule:evenodd;stroke:none"
         id="path165" /></g><g
       id="g167"
       transform="translate(671.88,218.3999)"><path
         d="M 0,0 H 34.33"
         style="fill:none;stroke:#000000;stroke-width:1;stroke-linecap:butt;stroke-linejoin:miter;stroke-miterlimit:8;stroke-dasharray:none;stroke-opacity:1"
         id="path169" /></g><g
       id="g171"
       transform="translate(705.21,215.3997)"><path
         d="M 0,0 6,3 0,6 Z"
         style="fill:#000000;fill-opacity:1;fill-rule:evenodd;stroke:none"
         id="path173" /></g><g
       id="g175"
       transform="translate(608.88,365.28)"><path
         d="M 0,0 H 41.268"
         style="fill:none;stroke:#000000;stroke-width:1;stroke-linecap:butt;stroke-linejoin:miter;stroke-miterlimit:8;stroke-dasharray:none;stroke-opacity:1"
         id="path177" /></g><g
       id="g179"
       transform="translate(649.148,368.2802)"><path
         d="M 0,0 6,-3 0,-6 Z"
         style="fill:#000000;fill-opacity:1;fill-rule:evenodd;stroke:none"
         id="path181" /></g><g
       id="g183"><g
         id="g185"
         clip-path="url(#clipPath189)"><g
           id="g191"
           transform="translate(781.2254,365.28)"><path
             d="m 0,0 c 30.467,0 60.934,-18.358 60.934,-36.716 0,-18.358 -200.784,-36.715 -401.568,-36.715 -200.785,0 -401.569,-18.358 -401.569,-36.716 0,-17.33 26.564,-34.659 54.615,-36.546"
             style="fill:none;stroke:#000000;stroke-width:1;stroke-linecap:butt;stroke-linejoin:miter;stroke-miterlimit:8;stroke-dasharray:none;stroke-opacity:1"
             id="path193" /></g><g
           id="g195"
           transform="translate(92.5417,215.6229)"><path
             d="M 0,0 6.098,2.795 0.203,5.997 Z"
             style="fill:#000000;fill-opacity:1;fill-rule:evenodd;stroke:none"
             id="path197" /></g></g></g><g
       id="g199"
       transform="translate(167.88,218.4)"><path
         d="M 0,0 H 62.748"
         style="fill:none;stroke:#000000;stroke-width:1;stroke-linecap:butt;stroke-linejoin:miter;stroke-miterlimit:8;stroke-dasharray:none;stroke-opacity:1"
         id="path201" /></g><g
       id="g203"
       transform="translate(229.6284,221.4002)"><path
         d="M 0,0 6,-3 0,-6 Z"
         style="fill:#000000;fill-opacity:1;fill-rule:evenodd;stroke:none"
         id="path205" /></g><g
       id="g207"
       transform="translate(361.8,218.4)"><path
         d="M 0,0 H 55.241"
         style="fill:none;stroke:#000000;stroke-width:1;stroke-linecap:butt;stroke-linejoin:miter;stroke-miterlimit:8;stroke-dasharray:none;stroke-opacity:1"
         id="path209" /></g><g
       id="g211"
       transform="translate(416.0408,221.4002)"><path
         d="M 0,0 6,-3 0,-6 Z"
         style="fill:#000000;fill-opacity:1;fill-rule:evenodd;stroke:none"
         id="path213" /></g><g
       id="g215"
       transform="translate(491.28,218.3999)"><path
         d="M 0,0 H 49.557"
         style="fill:none;stroke:#000000;stroke-width:1;stroke-linecap:butt;stroke-linejoin:miter;stroke-miterlimit:8;stroke-dasharray:none;stroke-opacity:1"
         id="path217" /></g><g
       id="g219"
       transform="translate(539.8367,215.3997)"><path
         d="M 0,0 6,3 0,6 Z"
         style="fill:#000000;fill-opacity:1;fill-rule:evenodd;stroke:none"
         id="path221" /></g><text
       transform="matrix(1,0,0,-1,209.5216,328.1949)"
       style="font-variant:normal;font-weight:normal;font-stretch:normal;font-size:10.56px;font-family:Arial;-inkscape-font-specification:ArialMT;writing-mode:lr-tb;fill:#000000;fill-opacity:1;fill-rule:nonzero;stroke:none"
       id="text227"><tspan
         x="0 5.8819199 8.2822084 14.164128 20.046047 22.446337 28.328257 31.207968 37.687584 43.569504 49.451424 54.73037 60.612289 64.091805 66.96096 74.040382 79.320381 84.722878 92.400002 94.797119 100.67799 103.0751 108.95491 114.23491 316.19809 322.6777 328.5596 334.44153 339.72049 345.60239 349.08298 351.96268 359.04318 364.92508 370.20508 373.08481 378.96671 382.44623 385.08624 392.76654 395.16681 401.04874 403.44797 409.3299 414.60989"
         y="0"
         sodipodi:role="line"
         id="tspan223">Linalg/Tensor/ScfDialectTensor/Vector Dialect</tspan><tspan
         x="-126.10752 -119.0281 -113.14618 -107.86617 -104.98647 -99.104546 -95.625023 -92.748482 -83.983681 -78.103874 -69.223969 -65.744446 -59.863583 -54.352322 -46.675201 -44.27808 -38.397217 -36.000095 -30.120289 -24.840288 147.00575 152.88768 158.76961 165.85008 174.6096 177.48932 185.64902 192.72951 200.40979 203.04979 210.72902 213.12932 219.01123 221.41151 227.29344 232.57344"
         y="153.86977"
         sodipodi:role="line"
         id="tspan225">Vector/MemrefDialectLLVM/GPU Dialect</tspan></text></g></svg>
