<?xml version="1.0" encoding="UTF-8" standalone="no"?>
<!-- Created with Inkscape (http://www.inkscape.org/) -->

<svg
   version="1.1"
   id="svg498"
   xml:space="preserve"
   width="738.88"
   height="485.27985"
   viewBox="0 0 738.88 485.27985"
   sodipodi:docname="TBE.svg"
   inkscape:version="1.1.2 (b8e25be833, 2022-02-05)"
   xmlns:inkscape="http://www.inkscape.org/namespaces/inkscape"
   xmlns:sodipodi="http://sodipodi.sourceforge.net/DTD/sodipodi-0.dtd"
   xmlns="http://www.w3.org/2000/svg"
   xmlns:svg="http://www.w3.org/2000/svg"><defs
     id="defs502"><clipPath
       clipPathUnits="userSpaceOnUse"
       id="clipPath526"><path
         d="M 0,0 H 960 V 540 H 0 Z"
         id="path524" /></clipPath><clipPath
       clipPathUnits="userSpaceOnUse"
       id="clipPath542"><path
         d="M 0,0 H 960 V 540 H 0 Z"
         id="path540" /></clipPath><clipPath
       clipPathUnits="userSpaceOnUse"
       id="clipPath564"><path
         d="M 0,0 H 960 V 540 H 0 Z"
         id="path562" /></clipPath><clipPath
       clipPathUnits="userSpaceOnUse"
       id="clipPath580"><path
         d="M 0,0 H 960 V 540 H 0 Z"
         id="path578" /></clipPath><clipPath
       clipPathUnits="userSpaceOnUse"
       id="clipPath596"><path
         d="M 0,0 H 960 V 540 H 0 Z"
         id="path594" /></clipPath><clipPath
       clipPathUnits="userSpaceOnUse"
       id="clipPath614"><path
         d="M 0,0 H 960 V 540 H 0 Z"
         id="path612" /></clipPath><clipPath
       clipPathUnits="userSpaceOnUse"
       id="clipPath630"><path
         d="M 0,0 H 960 V 540 H 0 Z"
         id="path628" /></clipPath><clipPath
       clipPathUnits="userSpaceOnUse"
       id="clipPath694"><path
         d="M 0,0 H 960 V 540 H 0 Z"
         id="path692" /></clipPath><clipPath
       clipPathUnits="userSpaceOnUse"
       id="clipPath710"><path
         d="M 0,0 H 960 V 540 H 0 Z"
         id="path708" /></clipPath><clipPath
       clipPathUnits="userSpaceOnUse"
       id="clipPath728"><path
         d="M 0,0 H 960 V 540 H 0 Z"
         id="path726" /></clipPath><clipPath
       clipPathUnits="userSpaceOnUse"
       id="clipPath746"><path
         d="M 0,0 H 960 V 540 H 0 Z"
         id="path744" /></clipPath></defs><sodipodi:namedview
     id="namedview500"
     pagecolor="#ffffff"
     bordercolor="#666666"
     borderopacity="1.0"
     inkscape:pageshadow="2"
     inkscape:pageopacity="0.0"
     inkscape:pagecheckerboard="0"
     showgrid="false"
     fit-margin-top="0"
     fit-margin-left="0"
     fit-margin-right="0"
     fit-margin-bottom="0"
     inkscape:zoom="0.93203125"
     inkscape:cx="9.6563286"
     inkscape:cy="261.25733"
     inkscape:window-width="1920"
     inkscape:window-height="1001"
     inkscape:window-x="-9"
     inkscape:window-y="-9"
     inkscape:window-maximized="1"
     inkscape:current-layer="g504" /><g
     id="g504"
     inkscape:groupmode="layer"
     inkscape:label="MLSYS图书配图"
     transform="matrix(1.3333333,0,0,-1.3333333,-279.35999,621.75985)"><path
       d="M 360.12,166.56 H 599.88 V 102.84 H 360.12 Z"
       style="fill:#f2f2f2;fill-opacity:1;fill-rule:evenodd;stroke:#7f7f7f;stroke-width:0.96;stroke-linecap:butt;stroke-linejoin:miter;stroke-miterlimit:8;stroke-dasharray:3.84, 2.88;stroke-dashoffset:0;stroke-opacity:1"
       id="path508" /><text
       transform="matrix(1,0,0,-1,367.3101,153.1982)"
       style="font-variant:normal;font-weight:normal;font-stretch:normal;font-size:9.96px;font-family:Arial;-inkscape-font-specification:ArialMT;writing-mode:lr-tb;fill:#1d1d1a;fill-opacity:1;fill-rule:nonzero;stroke:none"
       id="text512"><tspan
         x="0 7.2000842 12.717924 18.235764 20.99568 23.156004 31.675789"
         y="0"
         sodipodi:role="line"
         id="tspan510">Runtime</tspan></text><path
       d="M 360.12,312.36 H 599.88 V 184.92 H 360.12 Z"
       style="fill:#f2f2f2;fill-opacity:1;fill-rule:evenodd;stroke:#7f7f7f;stroke-width:0.96;stroke-linecap:butt;stroke-linejoin:miter;stroke-miterlimit:8;stroke-dasharray:3.84, 2.88;stroke-dashoffset:0;stroke-opacity:1"
       id="path514" /><text
       transform="matrix(1,0,0,-1,367.3101,299.0229)"
       style="font-variant:normal;font-weight:normal;font-stretch:normal;font-size:9.96px;font-family:Arial;-inkscape-font-specification:ArialMT;writing-mode:lr-tb;fill:#1d1d1a;fill-opacity:1;fill-rule:nonzero;stroke:none"
       id="text518"><tspan
         x="0 7.2000842 12.717924 21.237707 26.755548 32.273388 35.034302 40.552139 43.072021 48.589859 54.1077 59.625542 61.785866 67.303703 72.821541"
         y="0"
         sodipodi:role="line"
         id="tspan516">Compute engines</tspan></text><g
       id="g520"><g
         id="g522"
         clip-path="url(#clipPath526)"><g
           id="g528"
           transform="translate(330.24,461.5399)"><path
             d="m 0,0 c 0,2.64 2.14,4.78 4.78,4.78 h 79.96 c 2.64,0 4.78,-2.14 4.78,-4.78 v -19.12 c 0,-2.64 -2.14,-4.78 -4.78,-4.78 H 4.78 C 2.14,-23.9 0,-21.76 0,-19.12 Z"
             style="fill:#c1e4e8;fill-opacity:1;fill-rule:evenodd;stroke:none"
             id="path530" /></g></g></g><text
       transform="matrix(1,0,0,-1,347.2015,447.869)"
       style="font-variant:normal;font-weight:normal;font-stretch:normal;font-size:12px;font-family:Calibri;-inkscape-font-specification:Calibri;writing-mode:lr-tb;fill:#1d1d1a;fill-opacity:1;fill-rule:nonzero;stroke:none"
       id="text534"><tspan
         x="0 4.8000002 10.8 17.16 21.84 28.200001 32.400002 37.919998 40.68 47.040001"
         y="0"
         sodipodi:role="line"
         id="tspan532">TensorFlow</tspan></text><g
       id="g536"><g
         id="g538"
         clip-path="url(#clipPath542)"><g
           id="g544"
           transform="translate(548.28,461.5399)"><path
             d="m 0,0 c 0,2.64 2.14,4.78 4.78,4.78 h 80.08 c 2.64,0 4.78,-2.14 4.78,-4.78 v -19.12 c 0,-2.64 -2.14,-4.78 -4.78,-4.78 H 4.78 C 2.14,-23.9 0,-21.76 0,-19.12 Z"
             style="fill:#c1e4e8;fill-opacity:1;fill-rule:evenodd;stroke:none"
             id="path546" /></g></g></g><text
       transform="matrix(1,0,0,-1,566.0157,447.869)"
       style="font-variant:normal;font-weight:normal;font-stretch:normal;font-size:12px;font-family:Calibri;-inkscape-font-specification:Calibri;writing-mode:lr-tb;fill:#1d1d1a;fill-opacity:1;fill-rule:nonzero;stroke:none"
       id="text550"><tspan
         x="0 10.32 13.08 19.440001 25.799999 31.32 37.560001 43.919998 48"
         y="0"
         sodipodi:role="line"
         id="tspan548">MindSpore</tspan></text><path
       d="m 340.32,414.48 h 69.24 v -23.76 h -69.24 z"
       style="fill:#f2f2f2;fill-opacity:1;fill-rule:evenodd;stroke:#d0cece;stroke-width:0.96;stroke-linecap:butt;stroke-linejoin:miter;stroke-miterlimit:8;stroke-dasharray:none;stroke-opacity:1"
       id="path552" /><text
       transform="matrix(1,0,0,-1,348.6939,398.7079)"
       style="font-variant:normal;font-weight:normal;font-stretch:normal;font-size:10.56px;font-family:Arial;-inkscape-font-specification:ArialMT;writing-mode:lr-tb;fill:#1d1d1a;fill-opacity:1;fill-rule:nonzero;stroke:none"
       id="text556"><tspan
         x="0 6.4796162 12.960288 15.600288 22.679712 28.561632 34.44355 40.325474 43.206242 49.088161"
         y="0"
         sodipodi:role="line"
         id="tspan554">TF Adapter</tspan></text><g
       id="g558"><g
         id="g560"
         clip-path="url(#clipPath564)"><g
           id="g566"
           transform="translate(419.76,357.74)"><path
             d="m 0,0 c 0,2.64 2.14,4.78 4.78,4.78 h 106.6 c 2.64,0 4.78,-2.14 4.78,-4.78 v -19.12 c 0,-2.64 -2.14,-4.78 -4.78,-4.78 H 4.78 C 2.14,-23.9 0,-21.76 0,-19.12 Z"
             style="fill:#c1e4e8;fill-opacity:1;fill-rule:evenodd;stroke:none"
             id="path568" /></g></g></g><text
       transform="matrix(1,0,0,-1,434.6969,344.0524)"
       style="font-variant:normal;font-weight:normal;font-stretch:normal;font-size:12px;font-family:Calibri;-inkscape-font-specification:Calibri;writing-mode:lr-tb;fill:#1d1d1a;fill-opacity:1;fill-rule:nonzero;stroke:none"
       id="text572"><tspan
         x="0 7.5599999 11.52 17.280001 23.639999 30 32.52 38.400002 44.759998 50.3988 53.158798 59.518799 65.518799 69.118797 76.678802 82.5588"
         y="0"
         sodipodi:role="line"
         id="tspan570">Graph Engine(GE)</tspan></text><g
       id="g574"><g
         id="g576"
         clip-path="url(#clipPath580)"><g
           id="g582"
           transform="translate(419.4,284.06)"><path
             d="m 0,0 c 0,2.64 2.14,4.78 4.78,4.78 h 106.48 c 2.64,0 4.78,-2.14 4.78,-4.78 v -19.12 c 0,-2.64 -2.14,-4.78 -4.78,-4.78 H 4.78 C 2.14,-23.9 0,-21.76 0,-19.12 Z"
             style="fill:#c1e4e8;fill-opacity:1;fill-rule:evenodd;stroke:none"
             id="path584" /></g></g></g><text
       transform="matrix(1,0,0,-1,434.2875,270.413)"
       style="font-variant:normal;font-weight:normal;font-stretch:normal;font-size:12px;font-family:Calibri;-inkscape-font-specification:Calibri;writing-mode:lr-tb;fill:#1d1d1a;fill-opacity:1;fill-rule:nonzero;stroke:none"
       id="text588"><tspan
         x="0 5.52 11.88 16.559999 19.32 25.68 32.040001 34.68 40.560001 46.9188 52.5588 55.318802 61.678799 67.678802 71.278801 76.798798 82.678802"
         y="0"
         sodipodi:role="line"
         id="tspan586">Fusion Engine(FE)</tspan></text><g
       id="g590"><g
         id="g592"
         clip-path="url(#clipPath596)"><g
           id="g598"
           transform="translate(419.4,226.7)"><path
             d="m 0,0 c 0,2.64 2.14,4.78 4.78,4.78 h 106.48 c 2.64,0 4.78,-2.14 4.78,-4.78 v -19.12 c 0,-2.64 -2.14,-4.78 -4.78,-4.78 H 4.78 C 2.14,-23.9 0,-21.76 0,-19.12 Z"
             style="fill:#c1e4e8;fill-opacity:1;fill-rule:evenodd;stroke:none"
             id="path600" /></g></g></g><text
       transform="matrix(1,0,0,-1,428.0501,220.2757)"
       style="font-variant:normal;font-weight:normal;font-stretch:normal;font-size:12px;font-family:Calibri;-inkscape-font-specification:Calibri;writing-mode:lr-tb;fill:#1d1d1a;fill-opacity:1;fill-rule:nonzero;stroke:none"
       id="text606"><tspan
         x="0 4.8000002 10.8 17.16 21.84 28.200001 32.400002 35.040001 41.52 47.880001 54.2388 58.799999 62.880001 65.639999 71.519997 77.879997 83.519997 86.279999 92.639999"
         y="0"
         sodipodi:role="line"
         id="tspan602">Tensor Boost Engine</tspan><tspan
         x="36.599998 40.200001 46.080002 52.560001 58.439999"
         y="14.4"
         sodipodi:role="line"
         id="tspan604">(TBE)</tspan></text><g
       id="g608"><g
         id="g610"
         clip-path="url(#clipPath614)"><g
           id="g616"
           transform="translate(376.56,141.0199)"><path
             d="m 0,0 c 0,2.64 2.14,4.78 4.78,4.78 h 90.16 c 2.64,0 4.78,-2.14 4.78,-4.78 v -19.12 c 0,-2.64 -2.14,-4.78 -4.78,-4.78 H 4.78 C 2.14,-23.9 0,-21.76 0,-19.12 Z"
             style="fill:#c1e4e8;fill-opacity:1;fill-rule:evenodd;stroke:none"
             id="path618" /></g></g></g><text
       transform="matrix(1,0,0,-1,387.9841,127.3696)"
       style="font-variant:normal;font-weight:normal;font-stretch:normal;font-size:12px;font-family:Calibri;-inkscape-font-specification:Calibri;writing-mode:lr-tb;fill:#1d1d1a;fill-opacity:1;fill-rule:nonzero;stroke:none"
       id="text622"><tspan
         x="0 7.4400001 13.44 18.84 21.6 26.639999 32.639999 35.279999 41.759998 48.118801 54.358799 58.438801 61.198799 70.798798"
         y="0"
         sodipodi:role="line"
         id="tspan620">Device Runtime</tspan></text><g
       id="g624"><g
         id="g626"
         clip-path="url(#clipPath630)"><g
           id="g632"
           transform="translate(488.28,141.0199)"><path
             d="M 0,0 C 0,2.64 2.14,4.78 4.78,4.78 H 94.82 C 97.46,4.78 99.6,2.64 99.6,0 v -19.12 c 0,-2.64 -2.14,-4.78 -4.78,-4.78 H 4.78 C 2.14,-23.9 0,-21.76 0,-19.12 Z"
             style="fill:#c1e4e8;fill-opacity:1;fill-rule:evenodd;stroke:none"
             id="path634" /></g></g></g><text
       transform="matrix(1,0,0,-1,504.6834,127.3696)"
       style="font-variant:normal;font-weight:normal;font-stretch:normal;font-size:12px;font-family:Calibri;-inkscape-font-specification:Calibri;writing-mode:lr-tb;fill:#1d1d1a;fill-opacity:1;fill-rule:nonzero;stroke:none"
       id="text638"><tspan
         x="0 7.4400001 13.8 18.360001 22.440001 25.200001 31.68 38.040001 44.279999 48.360001 51.119999 60.7188"
         y="0"
         sodipodi:role="line"
         id="tspan636">Host Runtime</tspan></text><g
       id="g640"
       transform="translate(375.0001,437.64)"><path
         d="M 0,0 V -18.114"
         style="fill:none;stroke:#000000;stroke-width:1;stroke-linecap:butt;stroke-linejoin:miter;stroke-miterlimit:8;stroke-dasharray:none;stroke-opacity:1"
         id="path642" /></g><g
       id="g644"
       transform="translate(371.9998,420.5255)"><path
         d="M 0,0 3,-6 6,0 Z"
         style="fill:#000000;fill-opacity:1;fill-rule:evenodd;stroke:none"
         id="path646" /></g><g
       id="g648"
       transform="translate(375,390.72)"><path
         d="m 0,0 v -14.124 h 102.84 v -9.125"
         style="fill:none;stroke:#000000;stroke-width:1;stroke-linecap:butt;stroke-linejoin:miter;stroke-miterlimit:8;stroke-dasharray:none;stroke-opacity:1"
         id="path650" /></g><g
       id="g652"
       transform="translate(474.8402,368.471)"><path
         d="M 0,0 3,-6 6,0 Z"
         style="fill:#000000;fill-opacity:1;fill-rule:evenodd;stroke:none"
         id="path654" /></g><g
       id="g656"
       transform="translate(593.0913,437.64)"><path
         d="m 0,0 v -61.354 h -115.251 v -8.794"
         style="fill:none;stroke:#000000;stroke-width:1;stroke-linecap:butt;stroke-linejoin:miter;stroke-miterlimit:8;stroke-dasharray:none;stroke-opacity:1"
         id="path658" /></g><g
       id="g660"
       transform="translate(480.8402,368.492)"><path
         d="M 0,0 -3,-6 -6,0 Z"
         style="fill:#000000;fill-opacity:1;fill-rule:evenodd;stroke:none"
         id="path662" /></g><g
       id="g664"
       transform="translate(477.8394,333.84)"><path
         d="m 0,0 v -10.979 h -135.72 v -188.17 h 13.001"
         style="fill:none;stroke:#000000;stroke-width:1;stroke-linecap:butt;stroke-linejoin:miter;stroke-miterlimit:8;stroke-dasharray:none;stroke-opacity:1"
         id="path666" /></g><g
       id="g668"
       transform="translate(354.1198,137.6909)"><path
         d="M 0,0 6,-2.999 0.001,-6 Z"
         style="fill:#000000;fill-opacity:1;fill-rule:evenodd;stroke:none"
         id="path670" /></g><g
       id="g672"
       transform="translate(477.8868,333.84)"><path
         d="M 0,0 -0.362,-39.971"
         style="fill:none;stroke:#000000;stroke-width:1;stroke-linecap:butt;stroke-linejoin:miter;stroke-miterlimit:8;stroke-dasharray:none;stroke-opacity:1"
         id="path674" /></g><g
       id="g676"
       transform="translate(474.5341,294.896)"><path
         d="M 0,0 2.946,-6.027 6,-0.054 Z"
         style="fill:#000000;fill-opacity:1;fill-rule:evenodd;stroke:none"
         id="path678" /></g><g
       id="g680"
       transform="translate(477.48,260.16)"><path
         d="M 0,0 V -23.669"
         style="fill:none;stroke:#000000;stroke-width:1;stroke-linecap:butt;stroke-linejoin:miter;stroke-miterlimit:8;stroke-dasharray:none;stroke-opacity:1"
         id="path682" /></g><g
       id="g684"
       transform="translate(480.4803,237.4912)"><path
         d="M 0,0 -3,-6 -6,0 Z"
         style="fill:#000000;fill-opacity:1;fill-rule:evenodd;stroke:none"
         id="path686" /></g><g
       id="g688"><g
         id="g690"
         clip-path="url(#clipPath694)"><g
           id="g696"
           transform="translate(210,368.64)"><path
             d="m 0,0 h 95.04 v -32.912 c -47.52,0 -47.52,-12.54 -95.04,-5.415 z"
             style="fill:#fff095;fill-opacity:1;fill-rule:evenodd;stroke:#f2f2f2;stroke-width:0.96;stroke-linecap:butt;stroke-linejoin:miter;stroke-miterlimit:8;stroke-dasharray:none;stroke-opacity:1"
             id="path698" /></g></g></g><text
       transform="matrix(1,0,0,-1,217.1511,348.3034)"
       style="font-variant:normal;font-weight:normal;font-stretch:normal;font-size:10.56px;font-family:Arial;-inkscape-font-specification:ArialMT;writing-mode:lr-tb;fill:#1d1d1a;fill-opacity:1;fill-rule:nonzero;stroke:none"
       id="text702"><tspan
         x="0 8.1597118 14.041632 19.923552 23.404127 29.286049 32.16576 38.04768 41.528255 44.411137 50.293056 52.693344 58.575264 64.457184 67.921921 70.319038"
         y="0"
         sodipodi:role="line"
         id="tspan700">Operator plug-in</tspan></text><g
       id="g704"><g
         id="g706"
         clip-path="url(#clipPath710)"><g
           id="g712"
           transform="translate(657.96,368.64)"><path
             d="M 0,0 H 104.04 V -32.912 C 52.02,-32.912 52.02,-45.452 0,-38.327 Z"
             style="fill:#fff095;fill-opacity:1;fill-rule:evenodd;stroke:#f2f2f2;stroke-width:0.96;stroke-linecap:butt;stroke-linejoin:miter;stroke-miterlimit:8;stroke-dasharray:none;stroke-opacity:1"
             id="path714" /></g></g></g><text
       transform="matrix(1,0,0,-1,665.1224,354.6034)"
       style="font-variant:normal;font-weight:normal;font-stretch:normal;font-size:10.56px;font-family:Arial;-inkscape-font-specification:ArialMT;writing-mode:lr-tb;fill:#1d1d1a;fill-opacity:1;fill-rule:nonzero;stroke:none"
       id="text720"><tspan
         x="0 8.1597118 14.041632 19.923552 23.404127 29.286049 32.16576 38.04768 41.528255 44.411137 50.293056 53.772575 59.654495 62.535263 68.417183 71.296898 76.456512 82.338432 88.220352"
         y="0"
         sodipodi:role="line"
         id="tspan716">Operator prototype </tspan><tspan
         x="0 2.4002881 4.79952 10.680384 14.159904 20.040768 23.520288"
         y="12.59808"
         sodipodi:role="line"
         id="tspan718">library</tspan></text><g
       id="g722"><g
         id="g724"
         clip-path="url(#clipPath728)"><g
           id="g730"
           transform="translate(659.16,295.44)"><path
             d="M 0,0 H 104.04 V -32.912 C 52.02,-32.912 52.02,-45.452 0,-38.327 Z"
             style="fill:#fff095;fill-opacity:1;fill-rule:evenodd;stroke:#f2f2f2;stroke-width:0.96;stroke-linecap:butt;stroke-linejoin:miter;stroke-miterlimit:8;stroke-dasharray:none;stroke-opacity:1"
             id="path732" /></g></g></g><text
       transform="matrix(1,0,0,-1,666.3699,281.3838)"
       style="font-variant:normal;font-weight:normal;font-stretch:normal;font-size:10.56px;font-family:Arial;-inkscape-font-specification:ArialMT;writing-mode:lr-tb;fill:#1d1d1a;fill-opacity:1;fill-rule:nonzero;stroke:none"
       id="text738"><tspan
         x="0 8.1597118 14.041632 19.923552 23.404127 29.286049 32.16576 38.04768 41.528255 44.411137 46.810368 52.692287 55.691326 61.57325"
         y="0"
         sodipodi:role="line"
         id="tspan734">Operator info </tspan><tspan
         x="0 2.4002881 4.79952 10.680384 14.159904 20.040768 23.520288"
         y="12.59808"
         sodipodi:role="line"
         id="tspan736">library</tspan></text><g
       id="g740"><g
         id="g742"
         clip-path="url(#clipPath746)"><g
           id="g748"
           transform="translate(657.96,237.72)"><path
             d="M 0,0 H 104.04 V -33.008 C 52.02,-33.008 52.02,-45.585 0,-38.439 Z"
             style="fill:#fff095;fill-opacity:1;fill-rule:evenodd;stroke:#f2f2f2;stroke-width:0.96;stroke-linecap:butt;stroke-linejoin:miter;stroke-miterlimit:8;stroke-dasharray:none;stroke-opacity:1"
             id="path750" /></g></g></g><text
       transform="matrix(1,0,0,-1,665.1224,223.6266)"
       style="font-variant:normal;font-weight:normal;font-stretch:normal;font-size:10.56px;font-family:Arial;-inkscape-font-specification:ArialMT;writing-mode:lr-tb;fill:#1d1d1a;fill-opacity:1;fill-rule:nonzero;stroke:none"
       id="text756"><tspan
         x="0 8.1597118 14.041632 19.923552 23.404127 29.286049 32.16576 38.04768 41.528255"
         y="0"
         sodipodi:role="line"
         id="tspan752">Operator </tspan><tspan
         x="0 2.4002881 11.280192 17.162111 19.561344 25.443264 34.324223 40.206142 46.088062 48.967777 54.849697 57.729408 60.129696 66.01162"
         y="12.59808"
         sodipodi:role="line"
         id="tspan754">implementation</tspan></text><g
       id="g758"
       transform="translate(305.04,348.12)"><path
         d="M 0,0 H 109.757"
         style="fill:none;stroke:#000000;stroke-width:1;stroke-linecap:butt;stroke-linejoin:miter;stroke-miterlimit:8;stroke-dasharray:none;stroke-opacity:1"
         id="path760" /></g><g
       id="g762"
       transform="translate(413.7967,351.1202)"><path
         d="M 0,0 6,-3 0,-6 Z"
         style="fill:#000000;fill-opacity:1;fill-rule:evenodd;stroke:none"
         id="path764" /></g><g
       id="g766"
       transform="translate(535.92,348.12)"><path
         d="M 0,0 H 117.06"
         style="fill:none;stroke:#000000;stroke-width:1;stroke-linecap:butt;stroke-linejoin:miter;stroke-miterlimit:8;stroke-dasharray:none;stroke-opacity:1"
         id="path768" /></g><g
       id="g770"
       transform="translate(651.9805,351.1202)"><path
         d="M 0,0 6,-3 0,-6 Z"
         style="fill:#000000;fill-opacity:1;fill-rule:evenodd;stroke:none"
         id="path772" /></g><g
       id="g774"
       transform="translate(535.44,274.4805)"><path
         d="M 0,0 118.182,71.063"
         style="fill:none;stroke:#000000;stroke-width:1;stroke-linecap:butt;stroke-linejoin:miter;stroke-miterlimit:8;stroke-dasharray:none;stroke-opacity:1"
         id="path776" /></g><g
       id="g778"
       transform="translate(654.3115,342.4569)"><path
         d="M 0,0 3.596,5.663 -3.092,5.142 Z"
         style="fill:#000000;fill-opacity:1;fill-rule:evenodd;stroke:none"
         id="path780" /></g><g
       id="g782"
       transform="translate(535.44,274.5002)"><path
         d="M 0,0 118.715,0.403"
         style="fill:none;stroke:#000000;stroke-width:1;stroke-linecap:butt;stroke-linejoin:miter;stroke-miterlimit:8;stroke-dasharray:none;stroke-opacity:1"
         id="path784" /></g><g
       id="g786"
       transform="translate(653.1652,271.8994)"><path
         d="M 0,0 5.99,3.021 -0.021,6 Z"
         style="fill:#000000;fill-opacity:1;fill-rule:evenodd;stroke:none"
         id="path788" /></g><g
       id="g790"
       transform="translate(535.44,217.2)"><path
         d="M 0,0 H 117.467"
         style="fill:none;stroke:#000000;stroke-width:1;stroke-linecap:butt;stroke-linejoin:miter;stroke-miterlimit:8;stroke-dasharray:none;stroke-opacity:1"
         id="path792" /></g><g
       id="g794"
       transform="translate(651.9075,220.2002)"><path
         d="M 0,0 6,-3 0,-6 Z"
         style="fill:#000000;fill-opacity:1;fill-rule:evenodd;stroke:none"
         id="path796" /></g><text
       transform="matrix(1,0,0,-1,589.6619,351.8455)"
       style="font-variant:normal;font-weight:normal;font-stretch:normal;font-size:10.56px;font-family:Arial;-inkscape-font-specification:ArialMT;writing-mode:lr-tb;fill:#000000;fill-opacity:1;fill-rule:nonzero;stroke:none"
       id="text808"><tspan
         x="0 5.8819199 11.76384 17.64576"
         y="0"
         sodipodi:role="line"
         id="tspan798">Load</tspan><tspan
         x="-15.30144 -9.4195204 -3.5376 2.3443201"
         y="67.626244"
         sodipodi:role="line"
         id="tspan800">Load</tspan><tspan
         x="-13.64352 -6.564096 -0.68323201 1.713888 4.1110082"
         y="149.87808"
         sodipodi:role="line"
         id="tspan802">Build</tspan><tspan
         x="-268.38239 -262.50049 -256.61856 -250.73663 -244.85472 -241.97185 -236.08992 -233.69069 -227.80876 -221.92685 -218.46529 -216.06499 -210.18307 -207.42374 -204.42365 -198.54173 -195.06116"
         y="-0.021120001"
         sodipodi:role="line"
         id="tspan804">Load plug-in for </tspan><tspan
         x="-268.38239 -262.50049 -256.61856 -250.73663 -247.25606 -241.37415 -238.49443 -232.61252 -229.13194 -226.24905 -217.36916 -211.48723 -205.60532 -199.72339 -197.3231 -191.44118"
         y="12.57696"
         sodipodi:role="line"
         id="tspan806">operator mapping</tspan></text></g></svg>
