<?xml version="1.0" encoding="UTF-8" standalone="no"?>
<!-- Created with Inkscape (http://www.inkscape.org/) -->

<svg
   version="1.1"
   id="svg1045"
   xml:space="preserve"
   width="742.07996"
   height="486.56"
   viewBox="0 0 742.07996 486.56"
   sodipodi:docname="TVM.svg"
   inkscape:version="1.1.2 (b8e25be833, 2022-02-05)"
   xmlns:inkscape="http://www.inkscape.org/namespaces/inkscape"
   xmlns:sodipodi="http://sodipodi.sourceforge.net/DTD/sodipodi-0.dtd"
   xmlns="http://www.w3.org/2000/svg"
   xmlns:svg="http://www.w3.org/2000/svg"><defs
     id="defs1049"><clipPath
       clipPathUnits="userSpaceOnUse"
       id="clipPath1123"><path
         d="M 0,0 H 960 V 540 H 0 Z"
         id="path1121" /></clipPath><clipPath
       clipPathUnits="userSpaceOnUse"
       id="clipPath1149"><path
         d="M 0,0 H 960 V 540 H 0 Z"
         id="path1147" /></clipPath><clipPath
       clipPathUnits="userSpaceOnUse"
       id="clipPath1171"><path
         d="M 0,0 H 960 V 540 H 0 Z"
         id="path1169" /></clipPath></defs><sodipodi:namedview
     id="namedview1047"
     pagecolor="#ffffff"
     bordercolor="#666666"
     borderopacity="1.0"
     inkscape:pageshadow="2"
     inkscape:pageopacity="0.0"
     inkscape:pagecheckerboard="0"
     showgrid="false"
     fit-margin-top="0"
     fit-margin-left="0"
     fit-margin-right="0"
     fit-margin-bottom="0"
     inkscape:zoom="0.93203125"
     inkscape:cx="38.625314"
     inkscape:cy="233.36127"
     inkscape:window-width="1920"
     inkscape:window-height="1001"
     inkscape:window-x="-9"
     inkscape:window-y="-9"
     inkscape:window-maximized="1"
     inkscape:current-layer="g1051" /><g
     id="g1051"
     inkscape:groupmode="layer"
     inkscape:label="MLSYS图书配图"
     transform="matrix(1.3333333,0,0,-1.3333333,-250.23999,593.91999)"><path
       d="M 378.84,239.64 H 543.72 V 213.48 H 378.84 Z"
       style="fill:#629bb7;fill-opacity:1;fill-rule:evenodd;stroke:none"
       id="path1055" /><text
       transform="matrix(1,0,0,-1,438.7003,222.785)"
       style="font-variant:normal;font-weight:bold;font-stretch:normal;font-size:9.96px;font-family:Arial;-inkscape-font-specification:Arial-BoldMT;writing-mode:lr-tb;fill:#ffffff;fill-opacity:1;fill-rule:nonzero;stroke:none"
       id="text1059"><tspan
         x="0 2.7599161 9.96 18.479784 24.600204 30.719627 36.84005 39.599964"
         y="0"
         sodipodi:role="line"
         id="tspan1057">IRModule</tspan></text><path
       d="m 378.96,352.68 h 165 v -26.16 h -165 z"
       style="fill:#629bb7;fill-opacity:1;fill-rule:evenodd;stroke:none"
       id="path1061" /><text
       transform="matrix(1,0,0,-1,438.86,335.8761)"
       style="font-variant:normal;font-weight:bold;font-stretch:normal;font-size:9.96px;font-family:Arial;-inkscape-font-specification:Arial-BoldMT;writing-mode:lr-tb;fill:#ffffff;fill-opacity:1;fill-rule:nonzero;stroke:none"
       id="text1065"><tspan
         x="0 2.7599161 9.96 18.479784 24.600204 30.719627 36.84005 39.599964"
         y="0"
         sodipodi:role="line"
         id="tspan1063">IRModule</tspan></text><path
       d="M 378.72,445.44 H 543.96 V 419.28 H 378.72 Z"
       style="fill:#629bb7;fill-opacity:1;fill-rule:evenodd;stroke:none"
       id="path1067" /><text
       transform="matrix(1,0,0,-1,407.3128,428.6892)"
       style="font-variant:normal;font-weight:normal;font-stretch:normal;font-size:9.96px;font-family:Arial;-inkscape-font-specification:ArialMT;writing-mode:lr-tb;fill:#ffffff;fill-opacity:1;fill-rule:nonzero;stroke:none"
       id="text1071"><tspan
         x="0 8.2767601 13.7946 19.312441 24.83028 26.989609 29.870041 32.749477 36.109982 41.627819 50.147606 52.667484 58.787903 62.147411 67.665253 76.185036 81.702873 88.78244 94.300285 97.660789 102.82107"
         y="0"
         sodipodi:role="line"
         id="tspan1069">Model from Frameworks</tspan></text><path
       d="M 379.44,400.2 H 543.96 V 374.04 H 379.44 Z"
       style="fill:#8faadc;fill-opacity:1;fill-rule:evenodd;stroke:none"
       id="path1073" /><text
       transform="matrix(1,0,0,-1,425.8241,383.3568)"
       style="font-variant:normal;font-weight:normal;font-stretch:normal;font-size:9.96px;font-family:Arial;-inkscape-font-specification:ArialMT;writing-mode:lr-tb;fill:#ffffff;fill-opacity:1;fill-rule:nonzero;stroke:none"
       id="text1077"><tspan
         x="0 2.7599161 11.2797 16.797541 22.31538 25.674889 28.434805 31.795307 34.674744 38.035248 43.553089 49.070927 51.830845 57.348682 62.866524 68.384361"
         y="0"
         sodipodi:role="line"
         id="tspan1075">Import(frontend)</tspan></text><path
       d="M 379.44,301.68 H 543.96 V 264.72 H 379.44 Z"
       style="fill:#8faadc;fill-opacity:1;fill-rule:evenodd;stroke:none"
       id="path1079" /><text
       transform="matrix(1,0,0,-1,398.3416,285.484)"
       style="font-variant:normal;font-weight:normal;font-stretch:normal;font-size:9.96px;font-family:Arial;-inkscape-font-specification:ArialMT;writing-mode:lr-tb;fill:#ffffff;fill-opacity:1;fill-rule:nonzero;stroke:none"
       id="text1085"><tspan
         x="0 6.5994959 9.96 12.12132 20.641104 22.802423 25.56234 27.72366 32.642902 38.156761 41.513279 44.393711 49.911552 55.429394 60.469151 63.229069 65.389389 70.907234 76.425072 79.18399 84.223755 89.264511 94.782349 100.30019 105.81803 111.33587 113.49619 115.65652 121.17435"
         y="0"
         sodipodi:role="line"
         id="tspan1081">Primitive-function scheduling</tspan><tspan
         x="22.07136 25.430868 28.791372 34.309212 36.469536 41.987377 46.66758 49.427498 54.945335 60.463177 65.502937 70.663216 76.181053 81.698891 87.216728 89.976646 92.867043 95.625961 101.1438"
         y="12.0018"
         sodipodi:role="line"
         id="tspan1083">(relay/backend, te)</tspan></text><path
       d="M 379.08,189.12 H 543.6 V 152.16 H 379.08 Z"
       style="fill:#8faadc;fill-opacity:1;fill-rule:evenodd;stroke:none"
       id="path1087" /><text
       transform="matrix(1,0,0,-1,404.8078,166.9593)"
       style="font-variant:normal;font-weight:normal;font-stretch:normal;font-size:9.96px;font-family:Arial;-inkscape-font-specification:ArialMT;writing-mode:lr-tb;fill:#ffffff;fill-opacity:1;fill-rule:nonzero;stroke:none"
       id="text1091"><tspan
         x="0 6.2399402 11.75778 15.118284 20.636124 26.153963 28.913879 31.43376 37.673698 41.034203 46.552044 52.069885 57.109646 59.269966 64.787811 67.547722 69.708046 75.225891 80.743729 84.103233 86.864151 92.381989 95.741493 101.25934 106.77718 109.53709"
         y="0"
         sodipodi:role="line"
         id="tspan1089">Target Translation(target)</tspan></text><path
       d="M 379.44,126.48 H 544.68 V 100.32 H 379.44 Z"
       style="fill:#629bb7;fill-opacity:1;fill-rule:evenodd;stroke:none"
       id="path1093" /><text
       transform="matrix(1,0,0,-1,405.7828,109.6939)"
       style="font-variant:normal;font-weight:normal;font-stretch:normal;font-size:9.96px;font-family:Arial;-inkscape-font-specification:ArialMT;writing-mode:lr-tb;fill:#ffffff;fill-opacity:1;fill-rule:nonzero;stroke:none"
       id="text1097"><tspan
         x="0 7.2000842 12.717924 18.235764 20.99568 23.156004 31.675789 37.193626 39.953545 48.230305 53.748142 59.265984 64.783821 66.944145 72.46199 75.821495 79.181999 84.699837 90.217682 92.977592 95.137917 103.65771 109.17554"
         y="0"
         sodipodi:role="line"
         id="tspan1095">Runtime.Module(runtime)</tspan></text><path
       d="M 187.68,352.68 H 352.2 V 326.52 H 187.68 Z"
       style="fill:#8faadc;fill-opacity:1;fill-rule:evenodd;stroke:none"
       id="path1099" /><text
       transform="matrix(1,0,0,-1,202.8641,335.8761)"
       style="font-variant:normal;font-weight:normal;font-stretch:normal;font-size:9.96px;font-family:Arial;-inkscape-font-specification:ArialMT;writing-mode:lr-tb;fill:#ffffff;fill-opacity:1;fill-rule:nonzero;stroke:none"
       id="text1103"><tspan
         x="0 7.2000842 12.717924 14.878248 20.396088 25.076292 28.193771 34.794266 40.312103 45.351864 50.391624 55.909466 60.949223 64.308731 67.669235 73.187073 75.347397 80.865242 85.544449 88.305359 91.065277 94.424782 99.942627 105.46046 110.50122 113.38065 118.8985 122.259 130.77878"
         y="0"
         sodipodi:role="line"
         id="tspan1101">Relay Passes(relay/transform)</tspan></text><path
       d="M 187.68,296.16 H 352.2 V 270 H 187.68 Z"
       style="fill:#999db1;fill-opacity:1;fill-rule:evenodd;stroke:none"
       id="path1105" /><text
       transform="matrix(1,0,0,-1,234.7816,279.358)"
       style="font-variant:normal;font-weight:normal;font-stretch:normal;font-size:9.96px;font-family:Arial;-inkscape-font-specification:ArialMT;writing-mode:lr-tb;fill:#ffffff;fill-opacity:1;fill-rule:nonzero;stroke:none"
       id="text1109"><tspan
         x="0 6.6034799 12.124308 14.884224 20.404057 26.643995 33.247475 41.523239 44.282162 50.882652 56.400494 61.44025 66.958092"
         y="0"
         sodipodi:role="line"
         id="tspan1107">AutoTVM/Ansor</tspan></text><path
       d="M 187.68,239.64 H 352.2 V 213.48 H 187.68 Z"
       style="fill:#8faadc;fill-opacity:1;fill-rule:evenodd;stroke:none"
       id="path1111" /><text
       transform="matrix(1,0,0,-1,214.0215,222.84)"
       style="font-variant:normal;font-weight:normal;font-stretch:normal;font-size:9.96px;font-family:Arial;-inkscape-font-specification:ArialMT;writing-mode:lr-tb;fill:#ffffff;fill-opacity:1;fill-rule:nonzero;stroke:none"
       id="text1115"><tspan
         x="0 6.2399402 8.999856 16.19994 18.83934 25.438835 30.958668 35.998428 41.038189 46.558022 51.597778 54.959278 57.719196 59.880516 63.236038 65.995956 68.755875 72.116379 77.634216 83.152054 88.191818 91.07225 96.590088 99.949593 108.46938"
         y="0"
         sodipodi:role="line"
         id="tspan1113">TIR Passes(tir/transform)</tspan></text><g
       id="g1117"><g
         id="g1119"
         clip-path="url(#clipPath1123)"><g
           id="g1125"
           transform="translate(617.04,321.9251)"><path
             d="M 0,0 C 47.11,-5.551 47.11,5.551 94.215,5.551 V 34.404 H 0 Z m 7.762,34.404 v 3.741 h 93.571 V 9.11 c -3.556,0 -7.118,-0.201 -7.118,-0.201 v 25.495 z m 7.296,3.741 v 3.65 H 109.44 V 12.851 c -4.053,0 -8.107,-0.151 -8.107,-0.151 v 25.445 z"
             style="fill:#629bb7;fill-opacity:1;fill-rule:evenodd;stroke:none"
             id="path1127" /></g><g
           id="g1129"
           transform="translate(617.04,356.3292)"><path
             d="M 0,0 H 94.215 V -28.853 C 47.11,-28.853 47.11,-39.955 0,-34.404 Z m 7.762,0 v 3.741 h 93.571 v -29.035 c -3.556,0 -7.118,-0.201 -7.118,-0.201 M 15.058,3.741 v 3.65 h 94.382 v -28.944 c -4.053,0 -8.107,-0.151 -8.107,-0.151"
             style="fill:none;stroke:#41719c;stroke-width:0.96;stroke-linecap:butt;stroke-linejoin:miter;stroke-miterlimit:8;stroke-dasharray:none;stroke-opacity:1"
             id="path1131" /></g></g></g><text
       transform="matrix(1,0,0,-1,628.9523,341.5212)"
       style="font-variant:normal;font-weight:normal;font-stretch:normal;font-size:10.56px;font-family:Arial;-inkscape-font-specification:ArialMT;writing-mode:lr-tb;fill:#ffffff;fill-opacity:1;fill-rule:nonzero;stroke:none"
       id="text1137"><tspan
         x="0 7.6802878 13.562208 15.962496 21.844416 27.005089 29.8848 36.364414 42.246338 48.128258 53.4072 56.287968 58.687199 64.569122"
         y="0"
         sodipodi:role="line"
         id="tspan1133">Relay.Function</tspan><tspan
         x="20.2752 23.76 27.239519 33.119328 35.519615 41.399426 46.560097"
         y="12.59808"
         sodipodi:role="line"
         id="tspan1135">(relay)</tspan></text><g
       id="g1139"
       transform="translate(743.76,372)"><path
         d="m 0,0 h -124.56 l -63.36,-32.4 63.36,-32.4 H 0 Z"
         style="fill:none;stroke:#000000;stroke-width:0.96;stroke-linecap:butt;stroke-linejoin:miter;stroke-miterlimit:8;stroke-dasharray:3.84, 2.88;stroke-dashoffset:0;stroke-opacity:1"
         id="path1141" /></g><g
       id="g1143"><g
         id="g1145"
         clip-path="url(#clipPath1149)"><g
           id="g1151"
           transform="translate(617.04,211.4051)"><path
             d="M 0,0 C 47.11,-5.551 47.11,5.551 94.215,5.551 V 34.404 H 0 Z m 7.762,34.404 v 3.741 h 93.571 V 9.11 c -3.556,0 -7.118,-0.201 -7.118,-0.201 v 25.495 z m 7.296,3.741 v 3.65 H 109.44 V 12.851 c -4.053,0 -8.107,-0.151 -8.107,-0.151 v 25.445 z"
             style="fill:#629bb7;fill-opacity:1;fill-rule:evenodd;stroke:none"
             id="path1153" /></g><g
           id="g1155"
           transform="translate(617.04,245.8092)"><path
             d="M 0,0 H 94.215 V -28.853 C 47.11,-28.853 47.11,-39.955 0,-34.404 Z m 7.762,0 v 3.741 h 93.571 v -29.035 c -3.556,0 -7.118,-0.201 -7.118,-0.201 M 15.058,3.741 v 3.65 h 94.382 v -28.944 c -4.053,0 -8.107,-0.151 -8.107,-0.151"
             style="fill:none;stroke:#41719c;stroke-width:0.96;stroke-linecap:butt;stroke-linejoin:miter;stroke-miterlimit:8;stroke-dasharray:none;stroke-opacity:1"
             id="path1157" /></g></g></g><text
       transform="matrix(1,0,0,-1,638.0723,231.0071)"
       style="font-variant:normal;font-weight:normal;font-stretch:normal;font-size:10.56px;font-family:Arial;-inkscape-font-specification:ArialMT;writing-mode:lr-tb;fill:#ffffff;fill-opacity:1;fill-rule:nonzero;stroke:none"
       id="text1163"><tspan
         x="0 2.88288 5.2831678 8.7637444 11.646624 18.12624 24.007105 29.886911 35.166912 38.049793 40.450081 46.329887"
         y="0"
         sodipodi:role="line"
         id="tspan1159">tir.Function</tspan><tspan
         x="18.23712 21.72192 24.604799 27.005089 30.486719"
         y="12.59808"
         sodipodi:role="line"
         id="tspan1161">(tir)</tspan></text><g
       id="g1165"><g
         id="g1167"
         clip-path="url(#clipPath1171)"><g
           id="g1173"
           transform="translate(617.04,93.3251)"><path
             d="M 0,0 C 47.11,-5.551 47.11,5.551 94.215,5.551 V 34.404 H 0 Z m 7.762,34.404 v 3.741 h 93.571 V 9.11 c -3.556,0 -7.118,-0.201 -7.118,-0.201 v 25.495 z m 7.296,3.741 v 3.65 H 109.44 V 12.851 c -4.053,0 -8.107,-0.151 -8.107,-0.151 v 25.445 z"
             style="fill:#629bb7;fill-opacity:1;fill-rule:evenodd;stroke:none"
             id="path1175" /></g><g
           id="g1177"
           transform="translate(617.04,127.7292)"><path
             d="M 0,0 H 94.215 V -28.853 C 47.11,-28.853 47.11,-39.955 0,-34.404 Z m 7.762,0 v 3.741 h 93.571 v -29.035 c -3.556,0 -7.118,-0.201 -7.118,-0.201 M 15.058,3.741 v 3.65 h 94.382 v -28.944 c -4.053,0 -8.107,-0.151 -8.107,-0.151"
             style="fill:none;stroke:#41719c;stroke-width:0.96;stroke-linecap:butt;stroke-linejoin:miter;stroke-miterlimit:8;stroke-dasharray:none;stroke-opacity:1"
             id="path1179" /></g></g></g><text
       transform="matrix(1,0,0,-1,634.7123,112.941)"
       style="font-variant:normal;font-weight:normal;font-stretch:normal;font-size:10.56px;font-family:Arial;-inkscape-font-specification:ArialMT;writing-mode:lr-tb;fill:#ffffff;fill-opacity:1;fill-rule:nonzero;stroke:none"
       id="text1185"><tspan
         x="0 7.0794239 12.961344 18.241344 23.640673 29.522593 35.40451 41.885185 47.767105 53.649025"
         y="0"
         sodipodi:role="line"
         id="tspan1181">PackedFunc</tspan><tspan
         x="8.2790403 11.75856 15.239136 21.121056 27.002975 29.882689 32.282974 41.16288 47.0448"
         y="12.59808"
         sodipodi:role="line"
         id="tspan1183">(runtime)</tspan></text><g
       id="g1187"
       transform="translate(743.76,263.88)"><path
         d="m 0,0 h -124.56 l -63.36,-32.4 63.36,-32.4 H 0 Z"
         style="fill:none;stroke:#000000;stroke-width:0.96;stroke-linecap:butt;stroke-linejoin:miter;stroke-miterlimit:8;stroke-dasharray:3.84, 2.88;stroke-dashoffset:0;stroke-opacity:1"
         id="path1189" /></g><g
       id="g1191"
       transform="translate(743.76,145.8)"><path
         d="m 0,0 h -124.56 l -63.36,-32.4 63.36,-32.4 H 0 Z"
         style="fill:none;stroke:#000000;stroke-width:0.96;stroke-linecap:butt;stroke-linejoin:miter;stroke-miterlimit:8;stroke-dasharray:3.84, 2.88;stroke-dashoffset:0;stroke-opacity:1"
         id="path1193" /></g><text
       transform="matrix(1,0,0,-1,617.76,380.0852)"
       style="font-variant:normal;font-weight:normal;font-stretch:normal;font-size:10.56px;font-family:Arial;-inkscape-font-specification:ArialMT;writing-mode:lr-tb;fill:#000000;fill-opacity:1;fill-rule:nonzero;stroke:none"
       id="text1201"><tspan
         x="0 7.6802878 13.562208 19.444128 22.323839 28.205759 30.606049 36.487968"
         y="0"
         sodipodi:role="line"
         id="tspan1195">Contains</tspan><tspan
         x="0.35903999 8.0393276 13.921248 19.803167 22.68288 28.5648 30.965088 36.847008"
         y="110.67936"
         sodipodi:role="line"
         id="tspan1197">Contains</tspan><tspan
         x="0 7.6802878 13.562208 19.444128 22.323839 28.205759 30.606049 36.487968"
         y="223.41792"
         sodipodi:role="line"
         id="tspan1199">Contains</tspan></text><g
       id="g1203"
       transform="translate(461.28,419.28)"><path
         d="M 0,0 0.278,-14.177"
         style="fill:none;stroke:#000000;stroke-width:1;stroke-linecap:butt;stroke-linejoin:miter;stroke-miterlimit:8;stroke-dasharray:none;stroke-opacity:1"
         id="path1205" /></g><g
       id="g1207"
       transform="translate(464.5383,406.1612)"><path
         d="m 0,0 -2.882,-6.058 -3.117,5.941 z"
         style="fill:#000000;fill-opacity:1;fill-rule:evenodd;stroke:none"
         id="path1209" /></g><g
       id="g1211"
       transform="translate(461.6716,374.04)"><path
         d="M 0,0 -0.208,-16.325"
         style="fill:none;stroke:#000000;stroke-width:1;stroke-linecap:butt;stroke-linejoin:miter;stroke-miterlimit:8;stroke-dasharray:none;stroke-opacity:1"
         id="path1213" /></g><g
       id="g1215"
       transform="translate(458.4763,358.7529)"><path
         d="M 0,0 2.924,-6.038 6,-0.076 Z"
         style="fill:#000000;fill-opacity:1;fill-rule:evenodd;stroke:none"
         id="path1217" /></g><g
       id="g1219"
       transform="translate(461.4,326.52)"><path
         d="M 0,0 0.217,-19.85"
         style="fill:none;stroke:#000000;stroke-width:1;stroke-linecap:butt;stroke-linejoin:miter;stroke-miterlimit:8;stroke-dasharray:none;stroke-opacity:1"
         id="path1221" /></g><g
       id="g1223"
       transform="translate(464.6061,307.7025)"><path
         d="M 0,0 -2.935,-6.032 -6,-0.065 Z"
         style="fill:#000000;fill-opacity:1;fill-rule:evenodd;stroke:none"
         id="path1225" /></g><g
       id="g1227"
       transform="translate(461.6563,264.72)"><path
         d="M 0,0 -0.302,-20.157"
         style="fill:none;stroke:#000000;stroke-width:1;stroke-linecap:butt;stroke-linejoin:miter;stroke-miterlimit:8;stroke-dasharray:none;stroke-opacity:1"
         id="path1229" /></g><g
       id="g1231"
       transform="translate(458.3698,245.6073)"><path
         d="m 0,0 2.91,-6.044 3.089,5.955 z"
         style="fill:#000000;fill-opacity:1;fill-rule:evenodd;stroke:none"
         id="path1233" /></g><g
       id="g1235"
       transform="translate(461.28,213.48)"><path
         d="M 0,0 V -19.283"
         style="fill:none;stroke:#000000;stroke-width:1;stroke-linecap:butt;stroke-linejoin:miter;stroke-miterlimit:8;stroke-dasharray:none;stroke-opacity:1"
         id="path1237" /></g><g
       id="g1239"
       transform="translate(464.2803,195.1965)"><path
         d="M 0,0 -3,-6 -6,0 Z"
         style="fill:#000000;fill-opacity:1;fill-rule:evenodd;stroke:none"
         id="path1241" /></g><g
       id="g1243"
       transform="translate(461.28,152.16)"><path
         d="M 0,0 0.606,-20.725"
         style="fill:none;stroke:#000000;stroke-width:1;stroke-linecap:butt;stroke-linejoin:miter;stroke-miterlimit:8;stroke-dasharray:none;stroke-opacity:1"
         id="path1245" /></g><g
       id="g1247"
       transform="translate(464.8561,132.5219)"><path
         d="m 0,0 -2.824,-6.085 -3.173,5.91 z"
         style="fill:#000000;fill-opacity:1;fill-rule:evenodd;stroke:none"
         id="path1249" /></g><g
       id="g1251"
       transform="translate(378.6719,345.1199)"><path
         d="M 0,0 H -22.312"
         style="fill:none;stroke:#000000;stroke-width:1;stroke-linecap:butt;stroke-linejoin:miter;stroke-miterlimit:8;stroke-dasharray:none;stroke-opacity:1"
         id="path1253" /></g><g
       id="g1255"
       transform="translate(357.3599,342.1197)"><path
         d="M 0,0 -6,3 0,6 Z"
         style="fill:#000000;fill-opacity:1;fill-rule:evenodd;stroke:none"
         id="path1257" /></g><g
       id="g1259"
       transform="translate(378.6719,232.5599)"><path
         d="M 0,0 H -22.312"
         style="fill:none;stroke:#000000;stroke-width:1;stroke-linecap:butt;stroke-linejoin:miter;stroke-miterlimit:8;stroke-dasharray:none;stroke-opacity:1"
         id="path1261" /></g><g
       id="g1263"
       transform="translate(357.3599,229.5597)"><path
         d="M 0,0 -6,3 0,6 Z"
         style="fill:#000000;fill-opacity:1;fill-rule:evenodd;stroke:none"
         id="path1265" /></g><g
       id="g1267"
       transform="translate(352.68,330.96)"><path
         d="M 0,0 H 22.049"
         style="fill:none;stroke:#000000;stroke-width:1;stroke-linecap:butt;stroke-linejoin:miter;stroke-miterlimit:8;stroke-dasharray:none;stroke-opacity:1"
         id="path1269" /></g><g
       id="g1271"
       transform="translate(373.729,333.9603)"><path
         d="M 0,0 6,-3 0,-6 Z"
         style="fill:#000000;fill-opacity:1;fill-rule:evenodd;stroke:none"
         id="path1273" /></g><g
       id="g1275"
       transform="translate(351.36,282.72)"><path
         d="M 0,0 H 22.049"
         style="fill:none;stroke:#000000;stroke-width:1;stroke-linecap:butt;stroke-linejoin:miter;stroke-miterlimit:8;stroke-dasharray:none;stroke-opacity:1"
         id="path1277" /></g><g
       id="g1279"
       transform="translate(372.409,285.7202)"><path
         d="M 0,0 6,-3 0,-6 Z"
         style="fill:#000000;fill-opacity:1;fill-rule:evenodd;stroke:none"
         id="path1281" /></g><g
       id="g1283"
       transform="translate(351.96,220.56)"><path
         d="M 0,0 H 22.049"
         style="fill:none;stroke:#000000;stroke-width:1;stroke-linecap:butt;stroke-linejoin:miter;stroke-miterlimit:8;stroke-dasharray:none;stroke-opacity:1"
         id="path1285" /></g><g
       id="g1287"
       transform="translate(373.009,223.5602)"><path
         d="M 0,0 6,-3 0,-6 Z"
         style="fill:#000000;fill-opacity:1;fill-rule:evenodd;stroke:none"
         id="path1289" /></g></g></svg>
